<?xml version="1.0" encoding="utf-8" standalone="no"?>
<!DOCTYPE svg PUBLIC "-//W3C//DTD SVG 1.1//EN"
  "http://www.w3.org/Graphics/SVG/1.1/DTD/svg11.dtd">
<!-- Created with matplotlib (https://matplotlib.org/) -->
<svg height="811.44pt" version="1.1" viewBox="0 0 1526.4 811.44" width="1526.4pt" xmlns="http://www.w3.org/2000/svg" xmlns:xlink="http://www.w3.org/1999/xlink">
 <metadata>
  <rdf:RDF xmlns:cc="http://creativecommons.org/ns#" xmlns:dc="http://purl.org/dc/elements/1.1/" xmlns:rdf="http://www.w3.org/1999/02/22-rdf-syntax-ns#">
   <cc:Work>
    <dc:type rdf:resource="http://purl.org/dc/dcmitype/StillImage"/>
    <dc:date>2021-02-01T19:02:10.883819</dc:date>
    <dc:format>image/svg+xml</dc:format>
    <dc:creator>
     <cc:Agent>
      <dc:title>Matplotlib v3.3.3, https://matplotlib.org/</dc:title>
     </cc:Agent>
    </dc:creator>
   </cc:Work>
  </rdf:RDF>
 </metadata>
 <defs>
  <style type="text/css">*{stroke-linecap:butt;stroke-linejoin:round;}</style>
 </defs>
 <g id="figure_1">
  <g id="patch_1">
   <path d="M 0 811.44 
L 1526.4 811.44 
L 1526.4 0 
L 0 0 
z
" style="fill:#ffffff;"/>
  </g>
  <g id="axes_1">
   <g id="patch_2">
    <path d="M 190.8 722.1816 
L 1373.76 722.1816 
L 1373.76 97.3728 
L 190.8 97.3728 
z
" style="fill:#ffffff;"/>
   </g>
   <g id="matplotlib.axis_1">
    <g id="xtick_1">
     <g id="line2d_1">
      <defs>
       <path d="M 0 0 
L 0 3.5 
" id="mdef98f95b1" style="stroke:#000000;stroke-width:0.8;"/>
      </defs>
      <g>
       <use style="stroke:#000000;stroke-width:0.8;" x="244.570909" xlink:href="#mdef98f95b1" y="722.1816"/>
      </g>
     </g>
     <g id="text_1">
      <!-- 1/128 -->
      <g transform="translate(215.752159 744.378475)scale(0.2 -0.2)">
       <defs>
        <path d="M 12.40625 8.296875 
L 28.515625 8.296875 
L 28.515625 63.921875 
L 10.984375 60.40625 
L 10.984375 69.390625 
L 28.421875 72.90625 
L 38.28125 72.90625 
L 38.28125 8.296875 
L 54.390625 8.296875 
L 54.390625 0 
L 12.40625 0 
z
" id="DejaVuSans-49"/>
        <path d="M 25.390625 72.90625 
L 33.6875 72.90625 
L 8.296875 -9.28125 
L 0 -9.28125 
z
" id="DejaVuSans-47"/>
        <path d="M 19.1875 8.296875 
L 53.609375 8.296875 
L 53.609375 0 
L 7.328125 0 
L 7.328125 8.296875 
Q 12.9375 14.109375 22.625 23.890625 
Q 32.328125 33.6875 34.8125 36.53125 
Q 39.546875 41.84375 41.421875 45.53125 
Q 43.3125 49.21875 43.3125 52.78125 
Q 43.3125 58.59375 39.234375 62.25 
Q 35.15625 65.921875 28.609375 65.921875 
Q 23.96875 65.921875 18.8125 64.3125 
Q 13.671875 62.703125 7.8125 59.421875 
L 7.8125 69.390625 
Q 13.765625 71.78125 18.9375 73 
Q 24.125 74.21875 28.421875 74.21875 
Q 39.75 74.21875 46.484375 68.546875 
Q 53.21875 62.890625 53.21875 53.421875 
Q 53.21875 48.921875 51.53125 44.890625 
Q 49.859375 40.875 45.40625 35.40625 
Q 44.1875 33.984375 37.640625 27.21875 
Q 31.109375 20.453125 19.1875 8.296875 
z
" id="DejaVuSans-50"/>
        <path d="M 31.78125 34.625 
Q 24.75 34.625 20.71875 30.859375 
Q 16.703125 27.09375 16.703125 20.515625 
Q 16.703125 13.921875 20.71875 10.15625 
Q 24.75 6.390625 31.78125 6.390625 
Q 38.8125 6.390625 42.859375 10.171875 
Q 46.921875 13.96875 46.921875 20.515625 
Q 46.921875 27.09375 42.890625 30.859375 
Q 38.875 34.625 31.78125 34.625 
z
M 21.921875 38.8125 
Q 15.578125 40.375 12.03125 44.71875 
Q 8.5 49.078125 8.5 55.328125 
Q 8.5 64.0625 14.71875 69.140625 
Q 20.953125 74.21875 31.78125 74.21875 
Q 42.671875 74.21875 48.875 69.140625 
Q 55.078125 64.0625 55.078125 55.328125 
Q 55.078125 49.078125 51.53125 44.71875 
Q 48 40.375 41.703125 38.8125 
Q 48.828125 37.15625 52.796875 32.3125 
Q 56.78125 27.484375 56.78125 20.515625 
Q 56.78125 9.90625 50.3125 4.234375 
Q 43.84375 -1.421875 31.78125 -1.421875 
Q 19.734375 -1.421875 13.25 4.234375 
Q 6.78125 9.90625 6.78125 20.515625 
Q 6.78125 27.484375 10.78125 32.3125 
Q 14.796875 37.15625 21.921875 38.8125 
z
M 18.3125 54.390625 
Q 18.3125 48.734375 21.84375 45.5625 
Q 25.390625 42.390625 31.78125 42.390625 
Q 38.140625 42.390625 41.71875 45.5625 
Q 45.3125 48.734375 45.3125 54.390625 
Q 45.3125 60.0625 41.71875 63.234375 
Q 38.140625 66.40625 31.78125 66.40625 
Q 25.390625 66.40625 21.84375 63.234375 
Q 18.3125 60.0625 18.3125 54.390625 
z
" id="DejaVuSans-56"/>
       </defs>
       <use xlink:href="#DejaVuSans-49"/>
       <use x="63.623047" xlink:href="#DejaVuSans-47"/>
       <use x="97.314453" xlink:href="#DejaVuSans-49"/>
       <use x="160.9375" xlink:href="#DejaVuSans-50"/>
       <use x="224.560547" xlink:href="#DejaVuSans-56"/>
      </g>
     </g>
    </g>
    <g id="xtick_2">
     <g id="line2d_2">
      <g>
       <use style="stroke:#000000;stroke-width:0.8;" x="364.061818" xlink:href="#mdef98f95b1" y="722.1816"/>
      </g>
     </g>
     <g id="text_2">
      <!-- 1/64 -->
      <g transform="translate(341.605568 744.378475)scale(0.2 -0.2)">
       <defs>
        <path d="M 33.015625 40.375 
Q 26.375 40.375 22.484375 35.828125 
Q 18.609375 31.296875 18.609375 23.390625 
Q 18.609375 15.53125 22.484375 10.953125 
Q 26.375 6.390625 33.015625 6.390625 
Q 39.65625 6.390625 43.53125 10.953125 
Q 47.40625 15.53125 47.40625 23.390625 
Q 47.40625 31.296875 43.53125 35.828125 
Q 39.65625 40.375 33.015625 40.375 
z
M 52.59375 71.296875 
L 52.59375 62.3125 
Q 48.875 64.0625 45.09375 64.984375 
Q 41.3125 65.921875 37.59375 65.921875 
Q 27.828125 65.921875 22.671875 59.328125 
Q 17.53125 52.734375 16.796875 39.40625 
Q 19.671875 43.65625 24.015625 45.921875 
Q 28.375 48.1875 33.59375 48.1875 
Q 44.578125 48.1875 50.953125 41.515625 
Q 57.328125 34.859375 57.328125 23.390625 
Q 57.328125 12.15625 50.6875 5.359375 
Q 44.046875 -1.421875 33.015625 -1.421875 
Q 20.359375 -1.421875 13.671875 8.265625 
Q 6.984375 17.96875 6.984375 36.375 
Q 6.984375 53.65625 15.1875 63.9375 
Q 23.390625 74.21875 37.203125 74.21875 
Q 40.921875 74.21875 44.703125 73.484375 
Q 48.484375 72.75 52.59375 71.296875 
z
" id="DejaVuSans-54"/>
        <path d="M 37.796875 64.3125 
L 12.890625 25.390625 
L 37.796875 25.390625 
z
M 35.203125 72.90625 
L 47.609375 72.90625 
L 47.609375 25.390625 
L 58.015625 25.390625 
L 58.015625 17.1875 
L 47.609375 17.1875 
L 47.609375 0 
L 37.796875 0 
L 37.796875 17.1875 
L 4.890625 17.1875 
L 4.890625 26.703125 
z
" id="DejaVuSans-52"/>
       </defs>
       <use xlink:href="#DejaVuSans-49"/>
       <use x="63.623047" xlink:href="#DejaVuSans-47"/>
       <use x="97.314453" xlink:href="#DejaVuSans-54"/>
       <use x="160.9375" xlink:href="#DejaVuSans-52"/>
      </g>
     </g>
    </g>
    <g id="xtick_3">
     <g id="line2d_3">
      <g>
       <use style="stroke:#000000;stroke-width:0.8;" x="483.552727" xlink:href="#mdef98f95b1" y="722.1816"/>
      </g>
     </g>
     <g id="text_3">
      <!-- 1/32 -->
      <g transform="translate(461.096477 744.378475)scale(0.2 -0.2)">
       <defs>
        <path d="M 40.578125 39.3125 
Q 47.65625 37.796875 51.625 33 
Q 55.609375 28.21875 55.609375 21.1875 
Q 55.609375 10.40625 48.1875 4.484375 
Q 40.765625 -1.421875 27.09375 -1.421875 
Q 22.515625 -1.421875 17.65625 -0.515625 
Q 12.796875 0.390625 7.625 2.203125 
L 7.625 11.71875 
Q 11.71875 9.328125 16.59375 8.109375 
Q 21.484375 6.890625 26.8125 6.890625 
Q 36.078125 6.890625 40.9375 10.546875 
Q 45.796875 14.203125 45.796875 21.1875 
Q 45.796875 27.640625 41.28125 31.265625 
Q 36.765625 34.90625 28.71875 34.90625 
L 20.21875 34.90625 
L 20.21875 43.015625 
L 29.109375 43.015625 
Q 36.375 43.015625 40.234375 45.921875 
Q 44.09375 48.828125 44.09375 54.296875 
Q 44.09375 59.90625 40.109375 62.90625 
Q 36.140625 65.921875 28.71875 65.921875 
Q 24.65625 65.921875 20.015625 65.03125 
Q 15.375 64.15625 9.8125 62.3125 
L 9.8125 71.09375 
Q 15.4375 72.65625 20.34375 73.4375 
Q 25.25 74.21875 29.59375 74.21875 
Q 40.828125 74.21875 47.359375 69.109375 
Q 53.90625 64.015625 53.90625 55.328125 
Q 53.90625 49.265625 50.4375 45.09375 
Q 46.96875 40.921875 40.578125 39.3125 
z
" id="DejaVuSans-51"/>
       </defs>
       <use xlink:href="#DejaVuSans-49"/>
       <use x="63.623047" xlink:href="#DejaVuSans-47"/>
       <use x="97.314453" xlink:href="#DejaVuSans-51"/>
       <use x="160.9375" xlink:href="#DejaVuSans-50"/>
      </g>
     </g>
    </g>
    <g id="xtick_4">
     <g id="line2d_4">
      <g>
       <use style="stroke:#000000;stroke-width:0.8;" x="603.043636" xlink:href="#mdef98f95b1" y="722.1816"/>
      </g>
     </g>
     <g id="text_4">
      <!-- 1/16 -->
      <g transform="translate(580.587386 744.378475)scale(0.2 -0.2)">
       <use xlink:href="#DejaVuSans-49"/>
       <use x="63.623047" xlink:href="#DejaVuSans-47"/>
       <use x="97.314453" xlink:href="#DejaVuSans-49"/>
       <use x="160.9375" xlink:href="#DejaVuSans-54"/>
      </g>
     </g>
    </g>
    <g id="xtick_5">
     <g id="line2d_5">
      <g>
       <use style="stroke:#000000;stroke-width:0.8;" x="722.534545" xlink:href="#mdef98f95b1" y="722.1816"/>
      </g>
     </g>
     <g id="text_5">
      <!-- 1/8 -->
      <g transform="translate(706.440795 744.378475)scale(0.2 -0.2)">
       <use xlink:href="#DejaVuSans-49"/>
       <use x="63.623047" xlink:href="#DejaVuSans-47"/>
       <use x="97.314453" xlink:href="#DejaVuSans-56"/>
      </g>
     </g>
    </g>
    <g id="xtick_6">
     <g id="line2d_6">
      <g>
       <use style="stroke:#000000;stroke-width:0.8;" x="842.025455" xlink:href="#mdef98f95b1" y="722.1816"/>
      </g>
     </g>
     <g id="text_6">
      <!-- 1/4 -->
      <g transform="translate(825.931705 744.378475)scale(0.2 -0.2)">
       <use xlink:href="#DejaVuSans-49"/>
       <use x="63.623047" xlink:href="#DejaVuSans-47"/>
       <use x="97.314453" xlink:href="#DejaVuSans-52"/>
      </g>
     </g>
    </g>
    <g id="xtick_7">
     <g id="line2d_7">
      <g>
       <use style="stroke:#000000;stroke-width:0.8;" x="961.516364" xlink:href="#mdef98f95b1" y="722.1816"/>
      </g>
     </g>
     <g id="text_7">
      <!-- 1/2 -->
      <g transform="translate(945.422614 744.378475)scale(0.2 -0.2)">
       <use xlink:href="#DejaVuSans-49"/>
       <use x="63.623047" xlink:href="#DejaVuSans-47"/>
       <use x="97.314453" xlink:href="#DejaVuSans-50"/>
      </g>
     </g>
    </g>
    <g id="xtick_8">
     <g id="line2d_8">
      <g>
       <use style="stroke:#000000;stroke-width:0.8;" x="1081.007273" xlink:href="#mdef98f95b1" y="722.1816"/>
      </g>
     </g>
     <g id="text_8">
      <!-- 1 -->
      <g transform="translate(1074.644773 744.378475)scale(0.2 -0.2)">
       <use xlink:href="#DejaVuSans-49"/>
      </g>
     </g>
    </g>
    <g id="xtick_9">
     <g id="line2d_9">
      <g>
       <use style="stroke:#000000;stroke-width:0.8;" x="1200.498182" xlink:href="#mdef98f95b1" y="722.1816"/>
      </g>
     </g>
     <g id="text_9">
      <!-- 2 -->
      <g transform="translate(1194.135682 744.378475)scale(0.2 -0.2)">
       <use xlink:href="#DejaVuSans-50"/>
      </g>
     </g>
    </g>
    <g id="xtick_10">
     <g id="line2d_10">
      <g>
       <use style="stroke:#000000;stroke-width:0.8;" x="1319.989091" xlink:href="#mdef98f95b1" y="722.1816"/>
      </g>
     </g>
     <g id="text_10">
      <!-- 4 -->
      <g transform="translate(1313.626591 744.378475)scale(0.2 -0.2)">
       <use xlink:href="#DejaVuSans-52"/>
      </g>
     </g>
    </g>
    <g id="text_11">
     <!-- $\varepsilon, \alpha, c, Q_0$ -->
     <g transform="translate(741.28 767.734725)scale(0.2 -0.2)">
      <defs>
       <path d="M 2.6875 10.40625 
Q 2.6875 13.140625 3.875 15.71875 
Q 5.078125 18.3125 7 20.359375 
Q 8.9375 22.40625 11.53125 24.03125 
Q 7.71875 26.65625 7.71875 30.8125 
Q 7.71875 35.25 11.421875 38.59375 
Q 15.140625 41.9375 20.5 43.625 
Q 25.875 45.3125 30.171875 45.3125 
Q 31.984375 45.3125 35.03125 44.5 
Q 38.09375 43.703125 40.375 42.375 
Q 42.671875 41.0625 42.671875 39.5 
Q 42.671875 38.328125 41.765625 37.421875 
Q 40.875 36.53125 39.796875 36.53125 
Q 39.359375 36.53125 37.578125 37.578125 
Q 35.796875 38.625 33.78125 39.453125 
Q 31.78125 40.28125 29.390625 40.28125 
Q 25.78125 40.28125 21.453125 39.421875 
Q 17.140625 38.578125 13.859375 36.453125 
Q 10.59375 34.328125 10.59375 30.90625 
Q 10.59375 27.640625 14.3125 25.390625 
Q 18.5 27.296875 22.90625 27.296875 
Q 30.71875 27.296875 30.71875 24.515625 
Q 30.71875 22.3125 28.046875 21.703125 
Q 25.390625 21.09375 21.921875 21.09375 
Q 17.234375 21.09375 14.203125 22.515625 
Q 10.890625 20.75 8.296875 17.578125 
Q 5.71875 14.40625 5.71875 10.984375 
Q 5.71875 7.765625 7.890625 5.953125 
Q 10.0625 4.15625 13.234375 3.46875 
Q 16.40625 2.78125 19.578125 2.78125 
Q 25.09375 2.78125 29.34375 3.96875 
Q 33.59375 5.171875 35.5 8.984375 
Q 35.796875 9.625 36.625 9.625 
Q 37.703125 9.28125 37.703125 8.296875 
Q 37.703125 8.203125 37.40625 7.328125 
Q 35.796875 4.15625 32.84375 2 
Q 29.890625 -0.140625 26.25 -1.171875 
Q 22.609375 -2.203125 18.796875 -2.203125 
Q 12.59375 -2.203125 7.640625 1.109375 
Q 2.6875 4.4375 2.6875 10.40625 
z
M 18.109375 24.03125 
Q 19.875 23.6875 22.125 23.6875 
Q 26.515625 23.6875 27.59375 24.3125 
Q 26.21875 24.703125 22.796875 24.703125 
Q 20.3125 24.703125 18.109375 24.03125 
z
" id="Cmmi10-34"/>
       <path d="M 9.90625 -18.015625 
Q 9.90625 -17.578125 10.296875 -17.1875 
Q 13.921875 -13.71875 15.921875 -9.171875 
Q 17.921875 -4.640625 17.921875 0.390625 
L 17.921875 1.609375 
Q 16.3125 0 13.921875 0 
Q 11.625 0 10.015625 1.609375 
Q 8.40625 3.21875 8.40625 5.515625 
Q 8.40625 7.859375 10.015625 9.421875 
Q 11.625 10.984375 13.921875 10.984375 
Q 17.484375 10.984375 19 7.6875 
Q 20.515625 4.390625 20.515625 0.390625 
Q 20.515625 -5.171875 18.28125 -10.171875 
Q 16.0625 -15.1875 12.015625 -19.1875 
Q 11.625 -19.390625 11.375 -19.390625 
Q 10.890625 -19.390625 10.390625 -18.9375 
Q 9.90625 -18.5 9.90625 -18.015625 
z
" id="Cmmi10-59"/>
       <path d="M 20.125 -1.125 
Q 15.375 -1.125 11.6875 1.125 
Q 8.015625 3.375 6 7.171875 
Q 4 10.984375 4 15.828125 
Q 4 22.609375 7.78125 29.25 
Q 11.578125 35.890625 17.84375 40.03125 
Q 24.125 44.1875 31 44.1875 
Q 36.078125 44.1875 39.9375 41.53125 
Q 43.796875 38.875 45.796875 34.453125 
Q 47.796875 30.03125 47.796875 25 
L 47.90625 18.3125 
Q 51.3125 23.046875 53.6875 28.140625 
Q 56.0625 33.25 57.328125 38.71875 
Q 57.515625 39.3125 58.109375 39.3125 
L 59.28125 39.3125 
Q 60.203125 39.3125 60.203125 38.375 
Q 60.203125 38.28125 60.109375 38.09375 
Q 58.9375 33.5 57.171875 29.265625 
Q 55.421875 25.046875 53.046875 21.09375 
Q 50.6875 17.140625 47.90625 13.921875 
Q 47.90625 1.515625 50.78125 1.515625 
Q 52.640625 1.515625 53.828125 2.609375 
Q 55.03125 3.71875 55.9375 5.328125 
Q 56.84375 6.9375 57.078125 6.984375 
L 58.296875 6.984375 
Q 59.078125 6.984375 59.078125 6 
Q 59.078125 3.515625 56.21875 1.1875 
Q 53.375 -1.125 50.59375 -1.125 
Q 46.96875 -1.125 44.578125 1.21875 
Q 42.1875 3.5625 41.3125 7.328125 
Q 36.625 3.328125 31.15625 1.09375 
Q 25.6875 -1.125 20.125 -1.125 
z
M 20.3125 1.515625 
Q 31 1.515625 40.828125 10.296875 
Q 40.765625 10.890625 40.671875 11.734375 
Q 40.578125 12.59375 40.578125 12.703125 
L 40.578125 23.484375 
Q 40.578125 41.609375 30.8125 41.609375 
Q 24.953125 41.609375 20.546875 36.59375 
Q 16.15625 31.59375 13.9375 24.625 
Q 11.71875 17.671875 11.71875 11.921875 
Q 11.71875 7.5625 13.9375 4.53125 
Q 16.15625 1.515625 20.3125 1.515625 
z
" id="Cmmi10-174"/>
       <path d="M 11.71875 11.921875 
Q 11.71875 7.5625 13.9375 4.53125 
Q 16.15625 1.515625 20.3125 1.515625 
Q 26.265625 1.515625 31.75 4.25 
Q 37.25 6.984375 40.71875 11.8125 
Q 41.015625 12.109375 41.5 12.109375 
Q 42 12.109375 42.5 11.546875 
Q 43.015625 10.984375 43.015625 10.5 
Q 43.015625 10.109375 42.828125 9.90625 
Q 39.15625 4.78125 32.953125 1.828125 
Q 26.765625 -1.125 20.125 -1.125 
Q 15.328125 -1.125 11.671875 1.140625 
Q 8.015625 3.421875 6 7.21875 
Q 4 11.03125 4 15.828125 
Q 4 22.5625 7.765625 29.203125 
Q 11.53125 35.84375 17.78125 40.015625 
Q 24.03125 44.1875 30.90625 44.1875 
Q 35.40625 44.1875 38.984375 42.015625 
Q 42.578125 39.84375 42.578125 35.59375 
Q 42.578125 32.859375 40.984375 30.921875 
Q 39.40625 29 36.71875 29 
Q 35.109375 29 34 30 
Q 32.90625 31 32.90625 32.625 
Q 32.90625 34.96875 34.609375 36.625 
Q 36.328125 38.28125 38.625 38.28125 
L 38.8125 38.28125 
Q 37.640625 39.984375 35.421875 40.796875 
Q 33.203125 41.609375 30.8125 41.609375 
Q 24.953125 41.609375 20.546875 36.59375 
Q 16.15625 31.59375 13.9375 24.625 
Q 11.71875 17.671875 11.71875 11.921875 
z
" id="Cmmi10-99"/>
       <path d="M 30.421875 -2.203125 
Q 22.90625 -2.203125 17.09375 1.234375 
Q 11.28125 4.6875 8.125 10.8125 
Q 4.984375 16.9375 4.984375 24.421875 
Q 4.984375 35.296875 11.15625 46.09375 
Q 17.328125 56.890625 27.4375 63.703125 
Q 37.546875 70.515625 48.578125 70.515625 
Q 54.296875 70.515625 59.03125 68.453125 
Q 63.765625 66.40625 67.03125 62.765625 
Q 70.3125 59.125 72.09375 54.234375 
Q 73.875 49.359375 73.875 43.609375 
Q 73.875 36.96875 71.578125 30.25 
Q 69.28125 23.53125 65.171875 17.75 
Q 61.078125 11.96875 55.609375 7.5625 
Q 50.140625 3.171875 43.890625 0.59375 
Q 44.53125 -4 45.84375 -6.640625 
Q 47.171875 -9.28125 50.875 -9.28125 
Q 54.78125 -9.28125 58.21875 -6.4375 
Q 61.671875 -3.609375 62.59375 0.203125 
Q 62.796875 1.125 63.71875 1.125 
Q 64.796875 1.125 64.796875 -0.203125 
Q 64.0625 -3.421875 62.625 -6.71875 
Q 61.1875 -10.015625 59.15625 -12.859375 
Q 57.125 -15.71875 54.34375 -17.546875 
Q 51.5625 -19.390625 48.1875 -19.390625 
Q 39.796875 -19.390625 39.796875 -8.59375 
Q 39.796875 -7.953125 40.03125 -5.1875 
Q 40.28125 -2.4375 40.28125 -0.6875 
Q 35.453125 -2.203125 30.421875 -2.203125 
z
M 26.703125 4.6875 
Q 26.703125 0.6875 31.109375 0.6875 
Q 35.546875 0.6875 40.484375 2.875 
L 40.484375 3.8125 
Q 40.484375 7.859375 39.203125 10.125 
Q 37.9375 12.40625 34.28125 12.40625 
Q 32.46875 12.40625 30.6875 11.296875 
Q 28.90625 10.203125 27.796875 8.421875 
Q 26.703125 6.640625 26.703125 4.6875 
z
M 24.125 4.5 
Q 24.125 7.125 25.578125 9.5625 
Q 27.046875 12.015625 29.390625 13.5 
Q 31.734375 14.984375 34.421875 14.984375 
Q 38.765625 14.984375 40.734375 12.046875 
Q 42.71875 9.125 43.40625 4.390625 
Q 49.8125 8.203125 54.6875 15.28125 
Q 59.578125 22.359375 62.140625 30.828125 
Q 64.703125 39.3125 64.703125 46.921875 
Q 64.703125 52.4375 62.859375 57.125 
Q 61.03125 61.8125 57.25 64.6875 
Q 53.46875 67.578125 47.90625 67.578125 
Q 42.53125 67.578125 37.546875 64.9375 
Q 32.5625 62.3125 28.328125 57.90625 
Q 24.21875 53.65625 20.96875 47.375 
Q 17.71875 41.109375 15.953125 34.265625 
Q 14.203125 27.4375 14.203125 21.1875 
Q 14.203125 14.796875 16.6875 9.5625 
Q 19.1875 4.34375 24.515625 2 
Q 24.125 3.03125 24.125 4.5 
z
" id="Cmmi10-81"/>
       <path d="M 25 -2.203125 
Q 12.75 -2.203125 8.328125 7.875 
Q 3.90625 17.96875 3.90625 31.890625 
Q 3.90625 40.578125 5.484375 48.234375 
Q 7.078125 55.90625 11.78125 61.25 
Q 16.5 66.609375 25 66.609375 
Q 31.59375 66.609375 35.78125 63.375 
Q 39.984375 60.15625 42.1875 55.046875 
Q 44.390625 49.953125 45.1875 44.109375 
Q 46 38.28125 46 31.890625 
Q 46 23.296875 44.40625 15.796875 
Q 42.828125 8.296875 38.1875 3.046875 
Q 33.546875 -2.203125 25 -2.203125 
z
M 25 0.390625 
Q 30.5625 0.390625 33.296875 6.09375 
Q 36.03125 11.8125 36.671875 18.75 
Q 37.3125 25.6875 37.3125 33.5 
Q 37.3125 41.015625 36.671875 47.359375 
Q 36.03125 53.71875 33.3125 58.859375 
Q 30.609375 64.015625 25 64.015625 
Q 19.34375 64.015625 16.609375 58.828125 
Q 13.875 53.65625 13.234375 47.328125 
Q 12.59375 41.015625 12.59375 33.5 
Q 12.59375 27.9375 12.859375 23 
Q 13.140625 18.0625 14.3125 12.8125 
Q 15.484375 7.5625 18.09375 3.96875 
Q 20.703125 0.390625 25 0.390625 
z
" id="Cmr10-48"/>
      </defs>
      <use transform="translate(0 0.484375)" xlink:href="#Cmmi10-34"/>
      <use transform="translate(46.582031 0.484375)" xlink:href="#Cmmi10-59"/>
      <use transform="translate(91.826172 0.484375)" xlink:href="#Cmmi10-174"/>
      <use transform="translate(155.742188 0.484375)" xlink:href="#Cmmi10-59"/>
      <use transform="translate(200.986328 0.484375)" xlink:href="#Cmmi10-99"/>
      <use transform="translate(244.199219 0.484375)" xlink:href="#Cmmi10-59"/>
      <use transform="translate(289.443359 0.484375)" xlink:href="#Cmmi10-81"/>
      <use transform="translate(368.447266 -16.521875)scale(0.7)" xlink:href="#Cmr10-48"/>
     </g>
    </g>
   </g>
   <g id="matplotlib.axis_2">
    <g id="ytick_1">
     <g id="line2d_11">
      <defs>
       <path d="M 0 0 
L -3.5 0 
" id="m16d9c28c19" style="stroke:#000000;stroke-width:0.8;"/>
      </defs>
      <g>
       <use style="stroke:#000000;stroke-width:0.8;" x="190.8" xlink:href="#m16d9c28c19" y="620.966848"/>
      </g>
     </g>
     <g id="text_12">
      <!-- 1.0 -->
      <g transform="translate(151.99375 628.565285)scale(0.2 -0.2)">
       <defs>
        <path d="M 10.6875 12.40625 
L 21 12.40625 
L 21 0 
L 10.6875 0 
z
" id="DejaVuSans-46"/>
        <path d="M 31.78125 66.40625 
Q 24.171875 66.40625 20.328125 58.90625 
Q 16.5 51.421875 16.5 36.375 
Q 16.5 21.390625 20.328125 13.890625 
Q 24.171875 6.390625 31.78125 6.390625 
Q 39.453125 6.390625 43.28125 13.890625 
Q 47.125 21.390625 47.125 36.375 
Q 47.125 51.421875 43.28125 58.90625 
Q 39.453125 66.40625 31.78125 66.40625 
z
M 31.78125 74.21875 
Q 44.046875 74.21875 50.515625 64.515625 
Q 56.984375 54.828125 56.984375 36.375 
Q 56.984375 17.96875 50.515625 8.265625 
Q 44.046875 -1.421875 31.78125 -1.421875 
Q 19.53125 -1.421875 13.0625 8.265625 
Q 6.59375 17.96875 6.59375 36.375 
Q 6.59375 54.828125 13.0625 64.515625 
Q 19.53125 74.21875 31.78125 74.21875 
z
" id="DejaVuSans-48"/>
       </defs>
       <use xlink:href="#DejaVuSans-49"/>
       <use x="63.623047" xlink:href="#DejaVuSans-46"/>
       <use x="95.410156" xlink:href="#DejaVuSans-48"/>
      </g>
     </g>
    </g>
    <g id="ytick_2">
     <g id="line2d_12">
      <g>
       <use style="stroke:#000000;stroke-width:0.8;" x="190.8" xlink:href="#m16d9c28c19" y="517.382384"/>
      </g>
     </g>
     <g id="text_13">
      <!-- 1.1 -->
      <g transform="translate(151.99375 524.980821)scale(0.2 -0.2)">
       <use xlink:href="#DejaVuSans-49"/>
       <use x="63.623047" xlink:href="#DejaVuSans-46"/>
       <use x="95.410156" xlink:href="#DejaVuSans-49"/>
      </g>
     </g>
    </g>
    <g id="ytick_3">
     <g id="line2d_13">
      <g>
       <use style="stroke:#000000;stroke-width:0.8;" x="190.8" xlink:href="#m16d9c28c19" y="413.79792"/>
      </g>
     </g>
     <g id="text_14">
      <!-- 1.2 -->
      <g transform="translate(151.99375 421.396357)scale(0.2 -0.2)">
       <use xlink:href="#DejaVuSans-49"/>
       <use x="63.623047" xlink:href="#DejaVuSans-46"/>
       <use x="95.410156" xlink:href="#DejaVuSans-50"/>
      </g>
     </g>
    </g>
    <g id="ytick_4">
     <g id="line2d_14">
      <g>
       <use style="stroke:#000000;stroke-width:0.8;" x="190.8" xlink:href="#m16d9c28c19" y="310.213456"/>
      </g>
     </g>
     <g id="text_15">
      <!-- 1.3 -->
      <g transform="translate(151.99375 317.811894)scale(0.2 -0.2)">
       <use xlink:href="#DejaVuSans-49"/>
       <use x="63.623047" xlink:href="#DejaVuSans-46"/>
       <use x="95.410156" xlink:href="#DejaVuSans-51"/>
      </g>
     </g>
    </g>
    <g id="ytick_5">
     <g id="line2d_15">
      <g>
       <use style="stroke:#000000;stroke-width:0.8;" x="190.8" xlink:href="#m16d9c28c19" y="206.628992"/>
      </g>
     </g>
     <g id="text_16">
      <!-- 1.4 -->
      <g transform="translate(151.99375 214.22743)scale(0.2 -0.2)">
       <use xlink:href="#DejaVuSans-49"/>
       <use x="63.623047" xlink:href="#DejaVuSans-46"/>
       <use x="95.410156" xlink:href="#DejaVuSans-52"/>
      </g>
     </g>
    </g>
    <g id="ytick_6">
     <g id="line2d_16">
      <g>
       <use style="stroke:#000000;stroke-width:0.8;" x="190.8" xlink:href="#m16d9c28c19" y="103.044529"/>
      </g>
     </g>
     <g id="text_17">
      <!-- 1.5 -->
      <g transform="translate(151.99375 110.642966)scale(0.2 -0.2)">
       <defs>
        <path d="M 10.796875 72.90625 
L 49.515625 72.90625 
L 49.515625 64.59375 
L 19.828125 64.59375 
L 19.828125 46.734375 
Q 21.96875 47.46875 24.109375 47.828125 
Q 26.265625 48.1875 28.421875 48.1875 
Q 40.625 48.1875 47.75 41.5 
Q 54.890625 34.8125 54.890625 23.390625 
Q 54.890625 11.625 47.5625 5.09375 
Q 40.234375 -1.421875 26.90625 -1.421875 
Q 22.3125 -1.421875 17.546875 -0.640625 
Q 12.796875 0.140625 7.71875 1.703125 
L 7.71875 11.625 
Q 12.109375 9.234375 16.796875 8.0625 
Q 21.484375 6.890625 26.703125 6.890625 
Q 35.15625 6.890625 40.078125 11.328125 
Q 45.015625 15.765625 45.015625 23.390625 
Q 45.015625 31 40.078125 35.4375 
Q 35.15625 39.890625 26.703125 39.890625 
Q 22.75 39.890625 18.8125 39.015625 
Q 14.890625 38.140625 10.796875 36.28125 
z
" id="DejaVuSans-53"/>
       </defs>
       <use xlink:href="#DejaVuSans-49"/>
       <use x="63.623047" xlink:href="#DejaVuSans-46"/>
       <use x="95.410156" xlink:href="#DejaVuSans-53"/>
      </g>
     </g>
    </g>
    <g id="text_18">
     <!-- Average reward over -->
     <g transform="translate(121.43875 514.130325)rotate(-90)scale(0.2 -0.2)">
      <defs>
       <path d="M 34.1875 63.1875 
L 20.796875 26.90625 
L 47.609375 26.90625 
z
M 28.609375 72.90625 
L 39.796875 72.90625 
L 67.578125 0 
L 57.328125 0 
L 50.6875 18.703125 
L 17.828125 18.703125 
L 11.1875 0 
L 0.78125 0 
z
" id="DejaVuSans-65"/>
       <path d="M 2.984375 54.6875 
L 12.5 54.6875 
L 29.59375 8.796875 
L 46.6875 54.6875 
L 56.203125 54.6875 
L 35.6875 0 
L 23.484375 0 
z
" id="DejaVuSans-118"/>
       <path d="M 56.203125 29.59375 
L 56.203125 25.203125 
L 14.890625 25.203125 
Q 15.484375 15.921875 20.484375 11.0625 
Q 25.484375 6.203125 34.421875 6.203125 
Q 39.59375 6.203125 44.453125 7.46875 
Q 49.3125 8.734375 54.109375 11.28125 
L 54.109375 2.78125 
Q 49.265625 0.734375 44.1875 -0.34375 
Q 39.109375 -1.421875 33.890625 -1.421875 
Q 20.796875 -1.421875 13.15625 6.1875 
Q 5.515625 13.8125 5.515625 26.8125 
Q 5.515625 40.234375 12.765625 48.109375 
Q 20.015625 56 32.328125 56 
Q 43.359375 56 49.78125 48.890625 
Q 56.203125 41.796875 56.203125 29.59375 
z
M 47.21875 32.234375 
Q 47.125 39.59375 43.09375 43.984375 
Q 39.0625 48.390625 32.421875 48.390625 
Q 24.90625 48.390625 20.390625 44.140625 
Q 15.875 39.890625 15.1875 32.171875 
z
" id="DejaVuSans-101"/>
       <path d="M 41.109375 46.296875 
Q 39.59375 47.171875 37.8125 47.578125 
Q 36.03125 48 33.890625 48 
Q 26.265625 48 22.1875 43.046875 
Q 18.109375 38.09375 18.109375 28.8125 
L 18.109375 0 
L 9.078125 0 
L 9.078125 54.6875 
L 18.109375 54.6875 
L 18.109375 46.1875 
Q 20.953125 51.171875 25.484375 53.578125 
Q 30.03125 56 36.53125 56 
Q 37.453125 56 38.578125 55.875 
Q 39.703125 55.765625 41.0625 55.515625 
z
" id="DejaVuSans-114"/>
       <path d="M 34.28125 27.484375 
Q 23.390625 27.484375 19.1875 25 
Q 14.984375 22.515625 14.984375 16.5 
Q 14.984375 11.71875 18.140625 8.90625 
Q 21.296875 6.109375 26.703125 6.109375 
Q 34.1875 6.109375 38.703125 11.40625 
Q 43.21875 16.703125 43.21875 25.484375 
L 43.21875 27.484375 
z
M 52.203125 31.203125 
L 52.203125 0 
L 43.21875 0 
L 43.21875 8.296875 
Q 40.140625 3.328125 35.546875 0.953125 
Q 30.953125 -1.421875 24.3125 -1.421875 
Q 15.921875 -1.421875 10.953125 3.296875 
Q 6 8.015625 6 15.921875 
Q 6 25.140625 12.171875 29.828125 
Q 18.359375 34.515625 30.609375 34.515625 
L 43.21875 34.515625 
L 43.21875 35.40625 
Q 43.21875 41.609375 39.140625 45 
Q 35.0625 48.390625 27.6875 48.390625 
Q 23 48.390625 18.546875 47.265625 
Q 14.109375 46.140625 10.015625 43.890625 
L 10.015625 52.203125 
Q 14.9375 54.109375 19.578125 55.046875 
Q 24.21875 56 28.609375 56 
Q 40.484375 56 46.34375 49.84375 
Q 52.203125 43.703125 52.203125 31.203125 
z
" id="DejaVuSans-97"/>
       <path d="M 45.40625 27.984375 
Q 45.40625 37.75 41.375 43.109375 
Q 37.359375 48.484375 30.078125 48.484375 
Q 22.859375 48.484375 18.828125 43.109375 
Q 14.796875 37.75 14.796875 27.984375 
Q 14.796875 18.265625 18.828125 12.890625 
Q 22.859375 7.515625 30.078125 7.515625 
Q 37.359375 7.515625 41.375 12.890625 
Q 45.40625 18.265625 45.40625 27.984375 
z
M 54.390625 6.78125 
Q 54.390625 -7.171875 48.1875 -13.984375 
Q 42 -20.796875 29.203125 -20.796875 
Q 24.46875 -20.796875 20.265625 -20.09375 
Q 16.0625 -19.390625 12.109375 -17.921875 
L 12.109375 -9.1875 
Q 16.0625 -11.328125 19.921875 -12.34375 
Q 23.78125 -13.375 27.78125 -13.375 
Q 36.625 -13.375 41.015625 -8.765625 
Q 45.40625 -4.15625 45.40625 5.171875 
L 45.40625 9.625 
Q 42.625 4.78125 38.28125 2.390625 
Q 33.9375 0 27.875 0 
Q 17.828125 0 11.671875 7.65625 
Q 5.515625 15.328125 5.515625 27.984375 
Q 5.515625 40.671875 11.671875 48.328125 
Q 17.828125 56 27.875 56 
Q 33.9375 56 38.28125 53.609375 
Q 42.625 51.21875 45.40625 46.390625 
L 45.40625 54.6875 
L 54.390625 54.6875 
z
" id="DejaVuSans-103"/>
       <path id="DejaVuSans-32"/>
       <path d="M 4.203125 54.6875 
L 13.1875 54.6875 
L 24.421875 12.015625 
L 35.59375 54.6875 
L 46.1875 54.6875 
L 57.421875 12.015625 
L 68.609375 54.6875 
L 77.59375 54.6875 
L 63.28125 0 
L 52.6875 0 
L 40.921875 44.828125 
L 29.109375 0 
L 18.5 0 
z
" id="DejaVuSans-119"/>
       <path d="M 45.40625 46.390625 
L 45.40625 75.984375 
L 54.390625 75.984375 
L 54.390625 0 
L 45.40625 0 
L 45.40625 8.203125 
Q 42.578125 3.328125 38.25 0.953125 
Q 33.9375 -1.421875 27.875 -1.421875 
Q 17.96875 -1.421875 11.734375 6.484375 
Q 5.515625 14.40625 5.515625 27.296875 
Q 5.515625 40.1875 11.734375 48.09375 
Q 17.96875 56 27.875 56 
Q 33.9375 56 38.25 53.625 
Q 42.578125 51.265625 45.40625 46.390625 
z
M 14.796875 27.296875 
Q 14.796875 17.390625 18.875 11.75 
Q 22.953125 6.109375 30.078125 6.109375 
Q 37.203125 6.109375 41.296875 11.75 
Q 45.40625 17.390625 45.40625 27.296875 
Q 45.40625 37.203125 41.296875 42.84375 
Q 37.203125 48.484375 30.078125 48.484375 
Q 22.953125 48.484375 18.875 42.84375 
Q 14.796875 37.203125 14.796875 27.296875 
z
" id="DejaVuSans-100"/>
       <path d="M 30.609375 48.390625 
Q 23.390625 48.390625 19.1875 42.75 
Q 14.984375 37.109375 14.984375 27.296875 
Q 14.984375 17.484375 19.15625 11.84375 
Q 23.34375 6.203125 30.609375 6.203125 
Q 37.796875 6.203125 41.984375 11.859375 
Q 46.1875 17.53125 46.1875 27.296875 
Q 46.1875 37.015625 41.984375 42.703125 
Q 37.796875 48.390625 30.609375 48.390625 
z
M 30.609375 56 
Q 42.328125 56 49.015625 48.375 
Q 55.71875 40.765625 55.71875 27.296875 
Q 55.71875 13.875 49.015625 6.21875 
Q 42.328125 -1.421875 30.609375 -1.421875 
Q 18.84375 -1.421875 12.171875 6.21875 
Q 5.515625 13.875 5.515625 27.296875 
Q 5.515625 40.765625 12.171875 48.375 
Q 18.84375 56 30.609375 56 
z
" id="DejaVuSans-111"/>
      </defs>
      <use xlink:href="#DejaVuSans-65"/>
      <use x="62.533203" xlink:href="#DejaVuSans-118"/>
      <use x="121.712891" xlink:href="#DejaVuSans-101"/>
      <use x="183.236328" xlink:href="#DejaVuSans-114"/>
      <use x="224.349609" xlink:href="#DejaVuSans-97"/>
      <use x="285.628906" xlink:href="#DejaVuSans-103"/>
      <use x="349.105469" xlink:href="#DejaVuSans-101"/>
      <use x="410.628906" xlink:href="#DejaVuSans-32"/>
      <use x="442.416016" xlink:href="#DejaVuSans-114"/>
      <use x="481.279297" xlink:href="#DejaVuSans-101"/>
      <use x="542.802734" xlink:href="#DejaVuSans-119"/>
      <use x="624.589844" xlink:href="#DejaVuSans-97"/>
      <use x="685.869141" xlink:href="#DejaVuSans-114"/>
      <use x="725.232422" xlink:href="#DejaVuSans-100"/>
      <use x="788.708984" xlink:href="#DejaVuSans-32"/>
      <use x="820.496094" xlink:href="#DejaVuSans-111"/>
      <use x="881.677734" xlink:href="#DejaVuSans-118"/>
      <use x="940.857422" xlink:href="#DejaVuSans-101"/>
      <use x="1002.380859" xlink:href="#DejaVuSans-114"/>
     </g>
     <!--  first 1000 steps -->
     <g transform="translate(143.834375 491.141262)rotate(-90)scale(0.2 -0.2)">
      <defs>
       <path d="M 37.109375 75.984375 
L 37.109375 68.5 
L 28.515625 68.5 
Q 23.6875 68.5 21.796875 66.546875 
Q 19.921875 64.59375 19.921875 59.515625 
L 19.921875 54.6875 
L 34.71875 54.6875 
L 34.71875 47.703125 
L 19.921875 47.703125 
L 19.921875 0 
L 10.890625 0 
L 10.890625 47.703125 
L 2.296875 47.703125 
L 2.296875 54.6875 
L 10.890625 54.6875 
L 10.890625 58.5 
Q 10.890625 67.625 15.140625 71.796875 
Q 19.390625 75.984375 28.609375 75.984375 
z
" id="DejaVuSans-102"/>
       <path d="M 9.421875 54.6875 
L 18.40625 54.6875 
L 18.40625 0 
L 9.421875 0 
z
M 9.421875 75.984375 
L 18.40625 75.984375 
L 18.40625 64.59375 
L 9.421875 64.59375 
z
" id="DejaVuSans-105"/>
       <path d="M 44.28125 53.078125 
L 44.28125 44.578125 
Q 40.484375 46.53125 36.375 47.5 
Q 32.28125 48.484375 27.875 48.484375 
Q 21.1875 48.484375 17.84375 46.4375 
Q 14.5 44.390625 14.5 40.28125 
Q 14.5 37.15625 16.890625 35.375 
Q 19.28125 33.59375 26.515625 31.984375 
L 29.59375 31.296875 
Q 39.15625 29.25 43.1875 25.515625 
Q 47.21875 21.78125 47.21875 15.09375 
Q 47.21875 7.46875 41.1875 3.015625 
Q 35.15625 -1.421875 24.609375 -1.421875 
Q 20.21875 -1.421875 15.453125 -0.5625 
Q 10.6875 0.296875 5.421875 2 
L 5.421875 11.28125 
Q 10.40625 8.6875 15.234375 7.390625 
Q 20.0625 6.109375 24.8125 6.109375 
Q 31.15625 6.109375 34.5625 8.28125 
Q 37.984375 10.453125 37.984375 14.40625 
Q 37.984375 18.0625 35.515625 20.015625 
Q 33.0625 21.96875 24.703125 23.78125 
L 21.578125 24.515625 
Q 13.234375 26.265625 9.515625 29.90625 
Q 5.8125 33.546875 5.8125 39.890625 
Q 5.8125 47.609375 11.28125 51.796875 
Q 16.75 56 26.8125 56 
Q 31.78125 56 36.171875 55.265625 
Q 40.578125 54.546875 44.28125 53.078125 
z
" id="DejaVuSans-115"/>
       <path d="M 18.3125 70.21875 
L 18.3125 54.6875 
L 36.8125 54.6875 
L 36.8125 47.703125 
L 18.3125 47.703125 
L 18.3125 18.015625 
Q 18.3125 11.328125 20.140625 9.421875 
Q 21.96875 7.515625 27.59375 7.515625 
L 36.8125 7.515625 
L 36.8125 0 
L 27.59375 0 
Q 17.1875 0 13.234375 3.875 
Q 9.28125 7.765625 9.28125 18.015625 
L 9.28125 47.703125 
L 2.6875 47.703125 
L 2.6875 54.6875 
L 9.28125 54.6875 
L 9.28125 70.21875 
z
" id="DejaVuSans-116"/>
       <path d="M 18.109375 8.203125 
L 18.109375 -20.796875 
L 9.078125 -20.796875 
L 9.078125 54.6875 
L 18.109375 54.6875 
L 18.109375 46.390625 
Q 20.953125 51.265625 25.265625 53.625 
Q 29.59375 56 35.59375 56 
Q 45.5625 56 51.78125 48.09375 
Q 58.015625 40.1875 58.015625 27.296875 
Q 58.015625 14.40625 51.78125 6.484375 
Q 45.5625 -1.421875 35.59375 -1.421875 
Q 29.59375 -1.421875 25.265625 0.953125 
Q 20.953125 3.328125 18.109375 8.203125 
z
M 48.6875 27.296875 
Q 48.6875 37.203125 44.609375 42.84375 
Q 40.53125 48.484375 33.40625 48.484375 
Q 26.265625 48.484375 22.1875 42.84375 
Q 18.109375 37.203125 18.109375 27.296875 
Q 18.109375 17.390625 22.1875 11.75 
Q 26.265625 6.109375 33.40625 6.109375 
Q 40.53125 6.109375 44.609375 11.75 
Q 48.6875 17.390625 48.6875 27.296875 
z
" id="DejaVuSans-112"/>
      </defs>
      <use xlink:href="#DejaVuSans-32"/>
      <use x="31.787109" xlink:href="#DejaVuSans-102"/>
      <use x="66.992188" xlink:href="#DejaVuSans-105"/>
      <use x="94.775391" xlink:href="#DejaVuSans-114"/>
      <use x="135.888672" xlink:href="#DejaVuSans-115"/>
      <use x="187.988281" xlink:href="#DejaVuSans-116"/>
      <use x="227.197266" xlink:href="#DejaVuSans-32"/>
      <use x="258.984375" xlink:href="#DejaVuSans-49"/>
      <use x="322.607422" xlink:href="#DejaVuSans-48"/>
      <use x="386.230469" xlink:href="#DejaVuSans-48"/>
      <use x="449.853516" xlink:href="#DejaVuSans-48"/>
      <use x="513.476562" xlink:href="#DejaVuSans-32"/>
      <use x="545.263672" xlink:href="#DejaVuSans-115"/>
      <use x="597.363281" xlink:href="#DejaVuSans-116"/>
      <use x="636.572266" xlink:href="#DejaVuSans-101"/>
      <use x="698.095703" xlink:href="#DejaVuSans-112"/>
      <use x="761.572266" xlink:href="#DejaVuSans-115"/>
     </g>
    </g>
   </g>
   <g id="line2d_17">
    <path clip-path="url(#p5bc6c391c8)" d="M 244.570909 439.946267 
L 364.061818 386.271383 
L 483.552727 305.232624 
L 603.043636 256.741551 
L 722.534545 336.716711 
L 842.025455 504.35456 
" style="fill:none;stroke:#ff0000;stroke-linecap:square;stroke-width:1.5;"/>
   </g>
   <g id="line2d_18">
    <path clip-path="url(#p5bc6c391c8)" d="M 483.552727 517.546268 
L 603.043636 338.293503 
L 722.534545 244.604889 
L 842.025455 212.456468 
L 961.516364 230.482535 
L 1081.007273 321.924938 
L 1200.498182 495.651578 
L 1319.989091 693.7812 
" style="fill:none;stroke:#008000;stroke-linecap:square;stroke-width:1.5;"/>
   </g>
   <g id="line2d_19">
    <path clip-path="url(#p5bc6c391c8)" d="M 603.043636 179.895607 
L 722.534545 157.338843 
L 842.025455 146.730116 
L 961.516364 147.640383 
L 1081.007273 125.7732 
L 1200.498182 219.452065 
L 1319.989091 453.338096 
" style="fill:none;stroke:#0000ff;stroke-linecap:square;stroke-width:1.5;"/>
   </g>
   <g id="line2d_20">
    <path clip-path="url(#p5bc6c391c8)" d="M 842.025455 274.516253 
L 961.516364 209.848638 
L 1081.007273 153.370528 
L 1200.498182 215.985072 
L 1319.989091 285.434267 
" style="fill:none;stroke:#000000;stroke-linecap:square;stroke-width:1.5;"/>
   </g>
   <g id="patch_3">
    <path d="M 190.8 722.1816 
L 190.8 97.3728 
" style="fill:none;stroke:#000000;stroke-linecap:square;stroke-linejoin:miter;stroke-width:0.8;"/>
   </g>
   <g id="patch_4">
    <path d="M 190.8 722.1816 
L 1373.76 722.1816 
" style="fill:none;stroke:#000000;stroke-linecap:square;stroke-linejoin:miter;stroke-width:0.8;"/>
   </g>
   <g id="legend_1">
    <g id="patch_5">
     <path d="M 1115.76 712.1816 
L 1359.76 712.1816 
Q 1363.76 712.1816 1363.76 708.1816 
L 1363.76 570.273475 
Q 1363.76 566.273475 1359.76 566.273475 
L 1115.76 566.273475 
Q 1111.76 566.273475 1111.76 570.273475 
L 1111.76 708.1816 
Q 1111.76 712.1816 1115.76 712.1816 
z
" style="fill:#ffffff;opacity:0.8;stroke:#cccccc;stroke-linejoin:miter;"/>
    </g>
    <g id="line2d_21">
     <path d="M 1119.76 582.473475 
L 1159.76 582.473475 
" style="fill:none;stroke:#ff0000;stroke-linecap:square;stroke-width:1.5;"/>
    </g>
    <g id="line2d_22"/>
    <g id="text_19">
     <!-- $\varepsilon$-greedy, $\varepsilon$ -->
     <g transform="translate(1175.76 589.473475)scale(0.2 -0.2)">
      <defs>
       <path d="M 4.890625 31.390625 
L 31.203125 31.390625 
L 31.203125 23.390625 
L 4.890625 23.390625 
z
" id="DejaVuSans-45"/>
       <path d="M 32.171875 -5.078125 
Q 28.375 -14.84375 24.75 -17.8125 
Q 21.140625 -20.796875 15.09375 -20.796875 
L 7.90625 -20.796875 
L 7.90625 -13.28125 
L 13.1875 -13.28125 
Q 16.890625 -13.28125 18.9375 -11.515625 
Q 21 -9.765625 23.484375 -3.21875 
L 25.09375 0.875 
L 2.984375 54.6875 
L 12.5 54.6875 
L 29.59375 11.921875 
L 46.6875 54.6875 
L 56.203125 54.6875 
z
" id="DejaVuSans-121"/>
       <path d="M 11.71875 12.40625 
L 22.015625 12.40625 
L 22.015625 4 
L 14.015625 -11.625 
L 7.71875 -11.625 
L 11.71875 4 
z
" id="DejaVuSans-44"/>
      </defs>
      <use transform="translate(0 0.015625)" xlink:href="#Cmmi10-34"/>
      <use transform="translate(46.582031 0.015625)" xlink:href="#DejaVuSans-45"/>
      <use transform="translate(82.666016 0.015625)" xlink:href="#DejaVuSans-103"/>
      <use transform="translate(146.142578 0.015625)" xlink:href="#DejaVuSans-114"/>
      <use transform="translate(187.255859 0.015625)" xlink:href="#DejaVuSans-101"/>
      <use transform="translate(248.779297 0.015625)" xlink:href="#DejaVuSans-101"/>
      <use transform="translate(310.302734 0.015625)" xlink:href="#DejaVuSans-100"/>
      <use transform="translate(373.779297 0.015625)" xlink:href="#DejaVuSans-121"/>
      <use transform="translate(432.958984 0.015625)" xlink:href="#DejaVuSans-44"/>
      <use transform="translate(464.746094 0.015625)" xlink:href="#DejaVuSans-32"/>
      <use transform="translate(496.533203 0.015625)" xlink:href="#Cmmi10-34"/>
     </g>
    </g>
    <g id="line2d_23">
     <path d="M 1119.76 611.873475 
L 1159.76 611.873475 
" style="fill:none;stroke:#008000;stroke-linecap:square;stroke-width:1.5;"/>
    </g>
    <g id="line2d_24"/>
    <g id="text_20">
     <!-- gradient bandit, $\alpha$ -->
     <g transform="translate(1175.76 618.873475)scale(0.2 -0.2)">
      <defs>
       <path d="M 54.890625 33.015625 
L 54.890625 0 
L 45.90625 0 
L 45.90625 32.71875 
Q 45.90625 40.484375 42.875 44.328125 
Q 39.84375 48.1875 33.796875 48.1875 
Q 26.515625 48.1875 22.3125 43.546875 
Q 18.109375 38.921875 18.109375 30.90625 
L 18.109375 0 
L 9.078125 0 
L 9.078125 54.6875 
L 18.109375 54.6875 
L 18.109375 46.1875 
Q 21.34375 51.125 25.703125 53.5625 
Q 30.078125 56 35.796875 56 
Q 45.21875 56 50.046875 50.171875 
Q 54.890625 44.34375 54.890625 33.015625 
z
" id="DejaVuSans-110"/>
       <path d="M 48.6875 27.296875 
Q 48.6875 37.203125 44.609375 42.84375 
Q 40.53125 48.484375 33.40625 48.484375 
Q 26.265625 48.484375 22.1875 42.84375 
Q 18.109375 37.203125 18.109375 27.296875 
Q 18.109375 17.390625 22.1875 11.75 
Q 26.265625 6.109375 33.40625 6.109375 
Q 40.53125 6.109375 44.609375 11.75 
Q 48.6875 17.390625 48.6875 27.296875 
z
M 18.109375 46.390625 
Q 20.953125 51.265625 25.265625 53.625 
Q 29.59375 56 35.59375 56 
Q 45.5625 56 51.78125 48.09375 
Q 58.015625 40.1875 58.015625 27.296875 
Q 58.015625 14.40625 51.78125 6.484375 
Q 45.5625 -1.421875 35.59375 -1.421875 
Q 29.59375 -1.421875 25.265625 0.953125 
Q 20.953125 3.328125 18.109375 8.203125 
L 18.109375 0 
L 9.078125 0 
L 9.078125 75.984375 
L 18.109375 75.984375 
z
" id="DejaVuSans-98"/>
      </defs>
      <use transform="translate(0 0.015625)" xlink:href="#DejaVuSans-103"/>
      <use transform="translate(63.476562 0.015625)" xlink:href="#DejaVuSans-114"/>
      <use transform="translate(104.589844 0.015625)" xlink:href="#DejaVuSans-97"/>
      <use transform="translate(165.869141 0.015625)" xlink:href="#DejaVuSans-100"/>
      <use transform="translate(229.345703 0.015625)" xlink:href="#DejaVuSans-105"/>
      <use transform="translate(257.128906 0.015625)" xlink:href="#DejaVuSans-101"/>
      <use transform="translate(318.652344 0.015625)" xlink:href="#DejaVuSans-110"/>
      <use transform="translate(382.03125 0.015625)" xlink:href="#DejaVuSans-116"/>
      <use transform="translate(421.240234 0.015625)" xlink:href="#DejaVuSans-32"/>
      <use transform="translate(453.027344 0.015625)" xlink:href="#DejaVuSans-98"/>
      <use transform="translate(516.503906 0.015625)" xlink:href="#DejaVuSans-97"/>
      <use transform="translate(577.783203 0.015625)" xlink:href="#DejaVuSans-110"/>
      <use transform="translate(641.162109 0.015625)" xlink:href="#DejaVuSans-100"/>
      <use transform="translate(704.638672 0.015625)" xlink:href="#DejaVuSans-105"/>
      <use transform="translate(732.421875 0.015625)" xlink:href="#DejaVuSans-116"/>
      <use transform="translate(771.630859 0.015625)" xlink:href="#DejaVuSans-44"/>
      <use transform="translate(803.417969 0.015625)" xlink:href="#DejaVuSans-32"/>
      <use transform="translate(835.205078 0.015625)" xlink:href="#Cmmi10-174"/>
     </g>
    </g>
    <g id="line2d_25">
     <path d="M 1119.76 641.27035 
L 1159.76 641.27035 
" style="fill:none;stroke:#0000ff;stroke-linecap:square;stroke-width:1.5;"/>
    </g>
    <g id="line2d_26"/>
    <g id="text_21">
     <!-- UCB, $c$ -->
     <g transform="translate(1175.76 648.27035)scale(0.2 -0.2)">
      <defs>
       <path d="M 8.6875 72.90625 
L 18.609375 72.90625 
L 18.609375 28.609375 
Q 18.609375 16.890625 22.84375 11.734375 
Q 27.09375 6.59375 36.625 6.59375 
Q 46.09375 6.59375 50.34375 11.734375 
Q 54.59375 16.890625 54.59375 28.609375 
L 54.59375 72.90625 
L 64.5 72.90625 
L 64.5 27.390625 
Q 64.5 13.140625 57.4375 5.859375 
Q 50.390625 -1.421875 36.625 -1.421875 
Q 22.796875 -1.421875 15.734375 5.859375 
Q 8.6875 13.140625 8.6875 27.390625 
z
" id="DejaVuSans-85"/>
       <path d="M 64.40625 67.28125 
L 64.40625 56.890625 
Q 59.421875 61.53125 53.78125 63.8125 
Q 48.140625 66.109375 41.796875 66.109375 
Q 29.296875 66.109375 22.65625 58.46875 
Q 16.015625 50.828125 16.015625 36.375 
Q 16.015625 21.96875 22.65625 14.328125 
Q 29.296875 6.6875 41.796875 6.6875 
Q 48.140625 6.6875 53.78125 8.984375 
Q 59.421875 11.28125 64.40625 15.921875 
L 64.40625 5.609375 
Q 59.234375 2.09375 53.4375 0.328125 
Q 47.65625 -1.421875 41.21875 -1.421875 
Q 24.65625 -1.421875 15.125 8.703125 
Q 5.609375 18.84375 5.609375 36.375 
Q 5.609375 53.953125 15.125 64.078125 
Q 24.65625 74.21875 41.21875 74.21875 
Q 47.75 74.21875 53.53125 72.484375 
Q 59.328125 70.75 64.40625 67.28125 
z
" id="DejaVuSans-67"/>
       <path d="M 19.671875 34.8125 
L 19.671875 8.109375 
L 35.5 8.109375 
Q 43.453125 8.109375 47.28125 11.40625 
Q 51.125 14.703125 51.125 21.484375 
Q 51.125 28.328125 47.28125 31.5625 
Q 43.453125 34.8125 35.5 34.8125 
z
M 19.671875 64.796875 
L 19.671875 42.828125 
L 34.28125 42.828125 
Q 41.5 42.828125 45.03125 45.53125 
Q 48.578125 48.25 48.578125 53.8125 
Q 48.578125 59.328125 45.03125 62.0625 
Q 41.5 64.796875 34.28125 64.796875 
z
M 9.8125 72.90625 
L 35.015625 72.90625 
Q 46.296875 72.90625 52.390625 68.21875 
Q 58.5 63.53125 58.5 54.890625 
Q 58.5 48.1875 55.375 44.234375 
Q 52.25 40.28125 46.1875 39.3125 
Q 53.46875 37.75 57.5 32.78125 
Q 61.53125 27.828125 61.53125 20.40625 
Q 61.53125 10.640625 54.890625 5.3125 
Q 48.25 0 35.984375 0 
L 9.8125 0 
z
" id="DejaVuSans-66"/>
      </defs>
      <use transform="translate(0 0.78125)" xlink:href="#DejaVuSans-85"/>
      <use transform="translate(73.193359 0.78125)" xlink:href="#DejaVuSans-67"/>
      <use transform="translate(143.017578 0.78125)" xlink:href="#DejaVuSans-66"/>
      <use transform="translate(211.621094 0.78125)" xlink:href="#DejaVuSans-44"/>
      <use transform="translate(243.408203 0.78125)" xlink:href="#DejaVuSans-32"/>
      <use transform="translate(275.195312 0.78125)" xlink:href="#Cmmi10-99"/>
     </g>
    </g>
    <g id="line2d_27">
     <path d="M 1119.76 683.9041 
L 1159.76 683.9041 
" style="fill:none;stroke:#000000;stroke-linecap:square;stroke-width:1.5;"/>
    </g>
    <g id="line2d_28"/>
    <g id="text_22">
     <!-- optimistic greedy -->
     <g transform="translate(1175.76 677.6266)scale(0.2 -0.2)">
      <defs>
       <path d="M 52 44.1875 
Q 55.375 50.25 60.0625 53.125 
Q 64.75 56 71.09375 56 
Q 79.640625 56 84.28125 50.015625 
Q 88.921875 44.046875 88.921875 33.015625 
L 88.921875 0 
L 79.890625 0 
L 79.890625 32.71875 
Q 79.890625 40.578125 77.09375 44.375 
Q 74.3125 48.1875 68.609375 48.1875 
Q 61.625 48.1875 57.5625 43.546875 
Q 53.515625 38.921875 53.515625 30.90625 
L 53.515625 0 
L 44.484375 0 
L 44.484375 32.71875 
Q 44.484375 40.625 41.703125 44.40625 
Q 38.921875 48.1875 33.109375 48.1875 
Q 26.21875 48.1875 22.15625 43.53125 
Q 18.109375 38.875 18.109375 30.90625 
L 18.109375 0 
L 9.078125 0 
L 9.078125 54.6875 
L 18.109375 54.6875 
L 18.109375 46.1875 
Q 21.1875 51.21875 25.484375 53.609375 
Q 29.78125 56 35.6875 56 
Q 41.65625 56 45.828125 52.96875 
Q 50 49.953125 52 44.1875 
z
" id="DejaVuSans-109"/>
       <path d="M 48.78125 52.59375 
L 48.78125 44.1875 
Q 44.96875 46.296875 41.140625 47.34375 
Q 37.3125 48.390625 33.40625 48.390625 
Q 24.65625 48.390625 19.8125 42.84375 
Q 14.984375 37.3125 14.984375 27.296875 
Q 14.984375 17.28125 19.8125 11.734375 
Q 24.65625 6.203125 33.40625 6.203125 
Q 37.3125 6.203125 41.140625 7.25 
Q 44.96875 8.296875 48.78125 10.40625 
L 48.78125 2.09375 
Q 45.015625 0.34375 40.984375 -0.53125 
Q 36.96875 -1.421875 32.421875 -1.421875 
Q 20.0625 -1.421875 12.78125 6.34375 
Q 5.515625 14.109375 5.515625 27.296875 
Q 5.515625 40.671875 12.859375 48.328125 
Q 20.21875 56 33.015625 56 
Q 37.15625 56 41.109375 55.140625 
Q 45.0625 54.296875 48.78125 52.59375 
z
" id="DejaVuSans-99"/>
      </defs>
      <use xlink:href="#DejaVuSans-111"/>
      <use x="61.181641" xlink:href="#DejaVuSans-112"/>
      <use x="124.658203" xlink:href="#DejaVuSans-116"/>
      <use x="163.867188" xlink:href="#DejaVuSans-105"/>
      <use x="191.650391" xlink:href="#DejaVuSans-109"/>
      <use x="289.0625" xlink:href="#DejaVuSans-105"/>
      <use x="316.845703" xlink:href="#DejaVuSans-115"/>
      <use x="368.945312" xlink:href="#DejaVuSans-116"/>
      <use x="408.154297" xlink:href="#DejaVuSans-105"/>
      <use x="435.9375" xlink:href="#DejaVuSans-99"/>
      <use x="490.917969" xlink:href="#DejaVuSans-32"/>
      <use x="522.705078" xlink:href="#DejaVuSans-103"/>
      <use x="586.181641" xlink:href="#DejaVuSans-114"/>
      <use x="625.044922" xlink:href="#DejaVuSans-101"/>
      <use x="686.568359" xlink:href="#DejaVuSans-101"/>
      <use x="748.091797" xlink:href="#DejaVuSans-100"/>
      <use x="811.568359" xlink:href="#DejaVuSans-121"/>
     </g>
     <!-- $\alpha=0.1, Q_0$ -->
     <g transform="translate(1175.76 700.022225)scale(0.2 -0.2)">
      <defs>
       <path d="M 7.515625 13.28125 
Q 6.6875 13.28125 6.140625 13.90625 
Q 5.609375 14.546875 5.609375 15.28125 
Q 5.609375 16.109375 6.140625 16.6875 
Q 6.6875 17.28125 7.515625 17.28125 
L 70.3125 17.28125 
Q 71.046875 17.28125 71.578125 16.6875 
Q 72.125 16.109375 72.125 15.28125 
Q 72.125 14.546875 71.578125 13.90625 
Q 71.046875 13.28125 70.3125 13.28125 
z
M 7.515625 32.71875 
Q 6.6875 32.71875 6.140625 33.296875 
Q 5.609375 33.890625 5.609375 34.71875 
Q 5.609375 35.453125 6.140625 36.078125 
Q 6.6875 36.71875 7.515625 36.71875 
L 70.3125 36.71875 
Q 71.046875 36.71875 71.578125 36.078125 
Q 72.125 35.453125 72.125 34.71875 
Q 72.125 33.890625 71.578125 33.296875 
Q 71.046875 32.71875 70.3125 32.71875 
z
" id="Cmr10-61"/>
       <path d="M 8.40625 5.515625 
Q 8.40625 7.765625 10.0625 9.375 
Q 11.71875 10.984375 13.921875 10.984375 
Q 15.28125 10.984375 16.59375 10.25 
Q 17.921875 9.515625 18.65625 8.203125 
Q 19.390625 6.890625 19.390625 5.515625 
Q 19.390625 3.328125 17.765625 1.65625 
Q 16.15625 0 13.921875 0 
Q 11.71875 0 10.0625 1.65625 
Q 8.40625 3.328125 8.40625 5.515625 
z
" id="Cmmi10-58"/>
       <path d="M 9.28125 0 
L 9.28125 3.515625 
Q 21.78125 3.515625 21.78125 6.6875 
L 21.78125 59.1875 
Q 16.609375 56.6875 8.6875 56.6875 
L 8.6875 60.203125 
Q 20.953125 60.203125 27.203125 66.609375 
L 28.609375 66.609375 
Q 28.953125 66.609375 29.265625 66.328125 
Q 29.59375 66.0625 29.59375 65.71875 
L 29.59375 6.6875 
Q 29.59375 3.515625 42.09375 3.515625 
L 42.09375 0 
z
" id="Cmr10-49"/>
      </defs>
      <use transform="translate(0 0.484375)" xlink:href="#Cmmi10-174"/>
      <use transform="translate(81.474609 0.484375)" xlink:href="#Cmr10-61"/>
      <use transform="translate(176.71875 0.484375)" xlink:href="#Cmr10-48"/>
      <use transform="translate(226.71875 0.484375)" xlink:href="#Cmmi10-58"/>
      <use transform="translate(254.404297 0.484375)" xlink:href="#Cmr10-49"/>
      <use transform="translate(304.404297 0.484375)" xlink:href="#Cmmi10-59"/>
      <use transform="translate(349.648438 0.484375)" xlink:href="#Cmmi10-81"/>
      <use transform="translate(428.652344 -16.521875)scale(0.7)" xlink:href="#Cmr10-48"/>
     </g>
    </g>
   </g>
  </g>
 </g>
 <defs>
  <clipPath id="p5bc6c391c8">
   <rect height="624.8088" width="1182.96" x="190.8" y="97.3728"/>
  </clipPath>
 </defs>
</svg>
