<?xml version="1.0" encoding="utf-8" standalone="no"?>
<!DOCTYPE svg PUBLIC "-//W3C//DTD SVG 1.1//EN"
  "http://www.w3.org/Graphics/SVG/1.1/DTD/svg11.dtd">
<!-- Created with matplotlib (https://matplotlib.org/) -->
<svg height="576pt" version="1.1" viewBox="0 0 1296 576" width="1296pt" xmlns="http://www.w3.org/2000/svg" xmlns:xlink="http://www.w3.org/1999/xlink">
 <metadata>
  <rdf:RDF xmlns:cc="http://creativecommons.org/ns#" xmlns:dc="http://purl.org/dc/elements/1.1/" xmlns:rdf="http://www.w3.org/1999/02/22-rdf-syntax-ns#">
   <cc:Work>
    <dc:type rdf:resource="http://purl.org/dc/dcmitype/StillImage"/>
    <dc:date>2021-01-29T22:30:22.438233</dc:date>
    <dc:format>image/svg+xml</dc:format>
    <dc:creator>
     <cc:Agent>
      <dc:title>Matplotlib v3.3.3, https://matplotlib.org/</dc:title>
     </cc:Agent>
    </dc:creator>
   </cc:Work>
  </rdf:RDF>
 </metadata>
 <defs>
  <style type="text/css">*{stroke-linecap:butt;stroke-linejoin:round;}</style>
 </defs>
 <g id="figure_1">
  <g id="patch_1">
   <path d="M 0 576 
L 1296 576 
L 1296 0 
L 0 0 
z
" style="fill:#ffffff;"/>
  </g>
  <g id="axes_1">
   <g id="patch_2">
    <path d="M 162 512.64 
L 1166.4 512.64 
L 1166.4 69.12 
L 162 69.12 
z
" style="fill:#ffffff;"/>
   </g>
   <g id="matplotlib.axis_1">
    <g id="xtick_1">
     <g id="line2d_1">
      <defs>
       <path d="M 0 0 
L 0 3.5 
" id="m6733d0c48d" style="stroke:#000000;stroke-width:0.8;"/>
      </defs>
      <g>
       <use style="stroke:#000000;stroke-width:0.8;" x="207.654545" xlink:href="#m6733d0c48d" y="512.64"/>
      </g>
     </g>
     <g id="text_1">
      <!-- 0 -->
      <g transform="translate(201.292045 534.836875)scale(0.2 -0.2)">
       <defs>
        <path d="M 31.78125 66.40625 
Q 24.171875 66.40625 20.328125 58.90625 
Q 16.5 51.421875 16.5 36.375 
Q 16.5 21.390625 20.328125 13.890625 
Q 24.171875 6.390625 31.78125 6.390625 
Q 39.453125 6.390625 43.28125 13.890625 
Q 47.125 21.390625 47.125 36.375 
Q 47.125 51.421875 43.28125 58.90625 
Q 39.453125 66.40625 31.78125 66.40625 
z
M 31.78125 74.21875 
Q 44.046875 74.21875 50.515625 64.515625 
Q 56.984375 54.828125 56.984375 36.375 
Q 56.984375 17.96875 50.515625 8.265625 
Q 44.046875 -1.421875 31.78125 -1.421875 
Q 19.53125 -1.421875 13.0625 8.265625 
Q 6.59375 17.96875 6.59375 36.375 
Q 6.59375 54.828125 13.0625 64.515625 
Q 19.53125 74.21875 31.78125 74.21875 
z
" id="DejaVuSans-48"/>
       </defs>
       <use xlink:href="#DejaVuSans-48"/>
      </g>
     </g>
    </g>
    <g id="xtick_2">
     <g id="line2d_2">
      <g>
       <use style="stroke:#000000;stroke-width:0.8;" x="390.455528" xlink:href="#m6733d0c48d" y="512.64"/>
      </g>
     </g>
     <g id="text_2">
      <!-- 200 -->
      <g transform="translate(371.368028 534.836875)scale(0.2 -0.2)">
       <defs>
        <path d="M 19.1875 8.296875 
L 53.609375 8.296875 
L 53.609375 0 
L 7.328125 0 
L 7.328125 8.296875 
Q 12.9375 14.109375 22.625 23.890625 
Q 32.328125 33.6875 34.8125 36.53125 
Q 39.546875 41.84375 41.421875 45.53125 
Q 43.3125 49.21875 43.3125 52.78125 
Q 43.3125 58.59375 39.234375 62.25 
Q 35.15625 65.921875 28.609375 65.921875 
Q 23.96875 65.921875 18.8125 64.3125 
Q 13.671875 62.703125 7.8125 59.421875 
L 7.8125 69.390625 
Q 13.765625 71.78125 18.9375 73 
Q 24.125 74.21875 28.421875 74.21875 
Q 39.75 74.21875 46.484375 68.546875 
Q 53.21875 62.890625 53.21875 53.421875 
Q 53.21875 48.921875 51.53125 44.890625 
Q 49.859375 40.875 45.40625 35.40625 
Q 44.1875 33.984375 37.640625 27.21875 
Q 31.109375 20.453125 19.1875 8.296875 
z
" id="DejaVuSans-50"/>
       </defs>
       <use xlink:href="#DejaVuSans-50"/>
       <use x="63.623047" xlink:href="#DejaVuSans-48"/>
       <use x="127.246094" xlink:href="#DejaVuSans-48"/>
      </g>
     </g>
    </g>
    <g id="xtick_3">
     <g id="line2d_3">
      <g>
       <use style="stroke:#000000;stroke-width:0.8;" x="573.256511" xlink:href="#m6733d0c48d" y="512.64"/>
      </g>
     </g>
     <g id="text_3">
      <!-- 400 -->
      <g transform="translate(554.169011 534.836875)scale(0.2 -0.2)">
       <defs>
        <path d="M 37.796875 64.3125 
L 12.890625 25.390625 
L 37.796875 25.390625 
z
M 35.203125 72.90625 
L 47.609375 72.90625 
L 47.609375 25.390625 
L 58.015625 25.390625 
L 58.015625 17.1875 
L 47.609375 17.1875 
L 47.609375 0 
L 37.796875 0 
L 37.796875 17.1875 
L 4.890625 17.1875 
L 4.890625 26.703125 
z
" id="DejaVuSans-52"/>
       </defs>
       <use xlink:href="#DejaVuSans-52"/>
       <use x="63.623047" xlink:href="#DejaVuSans-48"/>
       <use x="127.246094" xlink:href="#DejaVuSans-48"/>
      </g>
     </g>
    </g>
    <g id="xtick_4">
     <g id="line2d_4">
      <g>
       <use style="stroke:#000000;stroke-width:0.8;" x="756.057494" xlink:href="#m6733d0c48d" y="512.64"/>
      </g>
     </g>
     <g id="text_4">
      <!-- 600 -->
      <g transform="translate(736.969994 534.836875)scale(0.2 -0.2)">
       <defs>
        <path d="M 33.015625 40.375 
Q 26.375 40.375 22.484375 35.828125 
Q 18.609375 31.296875 18.609375 23.390625 
Q 18.609375 15.53125 22.484375 10.953125 
Q 26.375 6.390625 33.015625 6.390625 
Q 39.65625 6.390625 43.53125 10.953125 
Q 47.40625 15.53125 47.40625 23.390625 
Q 47.40625 31.296875 43.53125 35.828125 
Q 39.65625 40.375 33.015625 40.375 
z
M 52.59375 71.296875 
L 52.59375 62.3125 
Q 48.875 64.0625 45.09375 64.984375 
Q 41.3125 65.921875 37.59375 65.921875 
Q 27.828125 65.921875 22.671875 59.328125 
Q 17.53125 52.734375 16.796875 39.40625 
Q 19.671875 43.65625 24.015625 45.921875 
Q 28.375 48.1875 33.59375 48.1875 
Q 44.578125 48.1875 50.953125 41.515625 
Q 57.328125 34.859375 57.328125 23.390625 
Q 57.328125 12.15625 50.6875 5.359375 
Q 44.046875 -1.421875 33.015625 -1.421875 
Q 20.359375 -1.421875 13.671875 8.265625 
Q 6.984375 17.96875 6.984375 36.375 
Q 6.984375 53.65625 15.1875 63.9375 
Q 23.390625 74.21875 37.203125 74.21875 
Q 40.921875 74.21875 44.703125 73.484375 
Q 48.484375 72.75 52.59375 71.296875 
z
" id="DejaVuSans-54"/>
       </defs>
       <use xlink:href="#DejaVuSans-54"/>
       <use x="63.623047" xlink:href="#DejaVuSans-48"/>
       <use x="127.246094" xlink:href="#DejaVuSans-48"/>
      </g>
     </g>
    </g>
    <g id="xtick_5">
     <g id="line2d_5">
      <g>
       <use style="stroke:#000000;stroke-width:0.8;" x="938.858477" xlink:href="#m6733d0c48d" y="512.64"/>
      </g>
     </g>
     <g id="text_5">
      <!-- 800 -->
      <g transform="translate(919.770977 534.836875)scale(0.2 -0.2)">
       <defs>
        <path d="M 31.78125 34.625 
Q 24.75 34.625 20.71875 30.859375 
Q 16.703125 27.09375 16.703125 20.515625 
Q 16.703125 13.921875 20.71875 10.15625 
Q 24.75 6.390625 31.78125 6.390625 
Q 38.8125 6.390625 42.859375 10.171875 
Q 46.921875 13.96875 46.921875 20.515625 
Q 46.921875 27.09375 42.890625 30.859375 
Q 38.875 34.625 31.78125 34.625 
z
M 21.921875 38.8125 
Q 15.578125 40.375 12.03125 44.71875 
Q 8.5 49.078125 8.5 55.328125 
Q 8.5 64.0625 14.71875 69.140625 
Q 20.953125 74.21875 31.78125 74.21875 
Q 42.671875 74.21875 48.875 69.140625 
Q 55.078125 64.0625 55.078125 55.328125 
Q 55.078125 49.078125 51.53125 44.71875 
Q 48 40.375 41.703125 38.8125 
Q 48.828125 37.15625 52.796875 32.3125 
Q 56.78125 27.484375 56.78125 20.515625 
Q 56.78125 9.90625 50.3125 4.234375 
Q 43.84375 -1.421875 31.78125 -1.421875 
Q 19.734375 -1.421875 13.25 4.234375 
Q 6.78125 9.90625 6.78125 20.515625 
Q 6.78125 27.484375 10.78125 32.3125 
Q 14.796875 37.15625 21.921875 38.8125 
z
M 18.3125 54.390625 
Q 18.3125 48.734375 21.84375 45.5625 
Q 25.390625 42.390625 31.78125 42.390625 
Q 38.140625 42.390625 41.71875 45.5625 
Q 45.3125 48.734375 45.3125 54.390625 
Q 45.3125 60.0625 41.71875 63.234375 
Q 38.140625 66.40625 31.78125 66.40625 
Q 25.390625 66.40625 21.84375 63.234375 
Q 18.3125 60.0625 18.3125 54.390625 
z
" id="DejaVuSans-56"/>
       </defs>
       <use xlink:href="#DejaVuSans-56"/>
       <use x="63.623047" xlink:href="#DejaVuSans-48"/>
       <use x="127.246094" xlink:href="#DejaVuSans-48"/>
      </g>
     </g>
    </g>
    <g id="xtick_6">
     <g id="line2d_6">
      <g>
       <use style="stroke:#000000;stroke-width:0.8;" x="1121.659459" xlink:href="#m6733d0c48d" y="512.64"/>
      </g>
     </g>
     <g id="text_6">
      <!-- 1000 -->
      <g transform="translate(1096.209459 534.836875)scale(0.2 -0.2)">
       <defs>
        <path d="M 12.40625 8.296875 
L 28.515625 8.296875 
L 28.515625 63.921875 
L 10.984375 60.40625 
L 10.984375 69.390625 
L 28.421875 72.90625 
L 38.28125 72.90625 
L 38.28125 8.296875 
L 54.390625 8.296875 
L 54.390625 0 
L 12.40625 0 
z
" id="DejaVuSans-49"/>
       </defs>
       <use xlink:href="#DejaVuSans-49"/>
       <use x="63.623047" xlink:href="#DejaVuSans-48"/>
       <use x="127.246094" xlink:href="#DejaVuSans-48"/>
       <use x="190.869141" xlink:href="#DejaVuSans-48"/>
      </g>
     </g>
    </g>
    <g id="text_7">
     <!-- Steps -->
     <g transform="translate(636.220313 558.193125)scale(0.2 -0.2)">
      <defs>
       <path d="M 53.515625 70.515625 
L 53.515625 60.890625 
Q 47.90625 63.578125 42.921875 64.890625 
Q 37.9375 66.21875 33.296875 66.21875 
Q 25.25 66.21875 20.875 63.09375 
Q 16.5 59.96875 16.5 54.203125 
Q 16.5 49.359375 19.40625 46.890625 
Q 22.3125 44.4375 30.421875 42.921875 
L 36.375 41.703125 
Q 47.40625 39.59375 52.65625 34.296875 
Q 57.90625 29 57.90625 20.125 
Q 57.90625 9.515625 50.796875 4.046875 
Q 43.703125 -1.421875 29.984375 -1.421875 
Q 24.8125 -1.421875 18.96875 -0.25 
Q 13.140625 0.921875 6.890625 3.21875 
L 6.890625 13.375 
Q 12.890625 10.015625 18.65625 8.296875 
Q 24.421875 6.59375 29.984375 6.59375 
Q 38.421875 6.59375 43.015625 9.90625 
Q 47.609375 13.234375 47.609375 19.390625 
Q 47.609375 24.75 44.3125 27.78125 
Q 41.015625 30.8125 33.5 32.328125 
L 27.484375 33.5 
Q 16.453125 35.6875 11.515625 40.375 
Q 6.59375 45.0625 6.59375 53.421875 
Q 6.59375 63.09375 13.40625 68.65625 
Q 20.21875 74.21875 32.171875 74.21875 
Q 37.3125 74.21875 42.625 73.28125 
Q 47.953125 72.359375 53.515625 70.515625 
z
" id="DejaVuSans-83"/>
       <path d="M 18.3125 70.21875 
L 18.3125 54.6875 
L 36.8125 54.6875 
L 36.8125 47.703125 
L 18.3125 47.703125 
L 18.3125 18.015625 
Q 18.3125 11.328125 20.140625 9.421875 
Q 21.96875 7.515625 27.59375 7.515625 
L 36.8125 7.515625 
L 36.8125 0 
L 27.59375 0 
Q 17.1875 0 13.234375 3.875 
Q 9.28125 7.765625 9.28125 18.015625 
L 9.28125 47.703125 
L 2.6875 47.703125 
L 2.6875 54.6875 
L 9.28125 54.6875 
L 9.28125 70.21875 
z
" id="DejaVuSans-116"/>
       <path d="M 56.203125 29.59375 
L 56.203125 25.203125 
L 14.890625 25.203125 
Q 15.484375 15.921875 20.484375 11.0625 
Q 25.484375 6.203125 34.421875 6.203125 
Q 39.59375 6.203125 44.453125 7.46875 
Q 49.3125 8.734375 54.109375 11.28125 
L 54.109375 2.78125 
Q 49.265625 0.734375 44.1875 -0.34375 
Q 39.109375 -1.421875 33.890625 -1.421875 
Q 20.796875 -1.421875 13.15625 6.1875 
Q 5.515625 13.8125 5.515625 26.8125 
Q 5.515625 40.234375 12.765625 48.109375 
Q 20.015625 56 32.328125 56 
Q 43.359375 56 49.78125 48.890625 
Q 56.203125 41.796875 56.203125 29.59375 
z
M 47.21875 32.234375 
Q 47.125 39.59375 43.09375 43.984375 
Q 39.0625 48.390625 32.421875 48.390625 
Q 24.90625 48.390625 20.390625 44.140625 
Q 15.875 39.890625 15.1875 32.171875 
z
" id="DejaVuSans-101"/>
       <path d="M 18.109375 8.203125 
L 18.109375 -20.796875 
L 9.078125 -20.796875 
L 9.078125 54.6875 
L 18.109375 54.6875 
L 18.109375 46.390625 
Q 20.953125 51.265625 25.265625 53.625 
Q 29.59375 56 35.59375 56 
Q 45.5625 56 51.78125 48.09375 
Q 58.015625 40.1875 58.015625 27.296875 
Q 58.015625 14.40625 51.78125 6.484375 
Q 45.5625 -1.421875 35.59375 -1.421875 
Q 29.59375 -1.421875 25.265625 0.953125 
Q 20.953125 3.328125 18.109375 8.203125 
z
M 48.6875 27.296875 
Q 48.6875 37.203125 44.609375 42.84375 
Q 40.53125 48.484375 33.40625 48.484375 
Q 26.265625 48.484375 22.1875 42.84375 
Q 18.109375 37.203125 18.109375 27.296875 
Q 18.109375 17.390625 22.1875 11.75 
Q 26.265625 6.109375 33.40625 6.109375 
Q 40.53125 6.109375 44.609375 11.75 
Q 48.6875 17.390625 48.6875 27.296875 
z
" id="DejaVuSans-112"/>
       <path d="M 44.28125 53.078125 
L 44.28125 44.578125 
Q 40.484375 46.53125 36.375 47.5 
Q 32.28125 48.484375 27.875 48.484375 
Q 21.1875 48.484375 17.84375 46.4375 
Q 14.5 44.390625 14.5 40.28125 
Q 14.5 37.15625 16.890625 35.375 
Q 19.28125 33.59375 26.515625 31.984375 
L 29.59375 31.296875 
Q 39.15625 29.25 43.1875 25.515625 
Q 47.21875 21.78125 47.21875 15.09375 
Q 47.21875 7.46875 41.1875 3.015625 
Q 35.15625 -1.421875 24.609375 -1.421875 
Q 20.21875 -1.421875 15.453125 -0.5625 
Q 10.6875 0.296875 5.421875 2 
L 5.421875 11.28125 
Q 10.40625 8.6875 15.234375 7.390625 
Q 20.0625 6.109375 24.8125 6.109375 
Q 31.15625 6.109375 34.5625 8.28125 
Q 37.984375 10.453125 37.984375 14.40625 
Q 37.984375 18.0625 35.515625 20.015625 
Q 33.0625 21.96875 24.703125 23.78125 
L 21.578125 24.515625 
Q 13.234375 26.265625 9.515625 29.90625 
Q 5.8125 33.546875 5.8125 39.890625 
Q 5.8125 47.609375 11.28125 51.796875 
Q 16.75 56 26.8125 56 
Q 31.78125 56 36.171875 55.265625 
Q 40.578125 54.546875 44.28125 53.078125 
z
" id="DejaVuSans-115"/>
      </defs>
      <use xlink:href="#DejaVuSans-83"/>
      <use x="63.476562" xlink:href="#DejaVuSans-116"/>
      <use x="102.685547" xlink:href="#DejaVuSans-101"/>
      <use x="164.208984" xlink:href="#DejaVuSans-112"/>
      <use x="227.685547" xlink:href="#DejaVuSans-115"/>
     </g>
    </g>
   </g>
   <g id="matplotlib.axis_2">
    <g id="ytick_1">
     <g id="line2d_7">
      <defs>
       <path d="M 0 0 
L -3.5 0 
" id="mbb5b43f9f0" style="stroke:#000000;stroke-width:0.8;"/>
      </defs>
      <g>
       <use style="stroke:#000000;stroke-width:0.8;" x="162" xlink:href="#mbb5b43f9f0" y="512.64"/>
      </g>
     </g>
     <g id="text_8">
      <!-- 0% -->
      <g transform="translate(123.271875 520.238438)scale(0.2 -0.2)">
       <defs>
        <path d="M 72.703125 32.078125 
Q 68.453125 32.078125 66.03125 28.46875 
Q 63.625 24.859375 63.625 18.40625 
Q 63.625 12.0625 66.03125 8.421875 
Q 68.453125 4.78125 72.703125 4.78125 
Q 76.859375 4.78125 79.265625 8.421875 
Q 81.6875 12.0625 81.6875 18.40625 
Q 81.6875 24.8125 79.265625 28.4375 
Q 76.859375 32.078125 72.703125 32.078125 
z
M 72.703125 38.28125 
Q 80.421875 38.28125 84.953125 32.90625 
Q 89.5 27.546875 89.5 18.40625 
Q 89.5 9.28125 84.9375 3.921875 
Q 80.375 -1.421875 72.703125 -1.421875 
Q 64.890625 -1.421875 60.34375 3.921875 
Q 55.8125 9.28125 55.8125 18.40625 
Q 55.8125 27.59375 60.375 32.9375 
Q 64.9375 38.28125 72.703125 38.28125 
z
M 22.3125 68.015625 
Q 18.109375 68.015625 15.6875 64.375 
Q 13.28125 60.75 13.28125 54.390625 
Q 13.28125 47.953125 15.671875 44.328125 
Q 18.0625 40.71875 22.3125 40.71875 
Q 26.5625 40.71875 28.96875 44.328125 
Q 31.390625 47.953125 31.390625 54.390625 
Q 31.390625 60.6875 28.953125 64.34375 
Q 26.515625 68.015625 22.3125 68.015625 
z
M 66.40625 74.21875 
L 74.21875 74.21875 
L 28.609375 -1.421875 
L 20.796875 -1.421875 
z
M 22.3125 74.21875 
Q 30.03125 74.21875 34.609375 68.875 
Q 39.203125 63.53125 39.203125 54.390625 
Q 39.203125 45.171875 34.640625 39.84375 
Q 30.078125 34.515625 22.3125 34.515625 
Q 14.546875 34.515625 10.03125 39.859375 
Q 5.515625 45.21875 5.515625 54.390625 
Q 5.515625 63.484375 10.046875 68.84375 
Q 14.59375 74.21875 22.3125 74.21875 
z
" id="DejaVuSans-37"/>
       </defs>
       <use xlink:href="#DejaVuSans-48"/>
       <use x="63.623047" xlink:href="#DejaVuSans-37"/>
      </g>
     </g>
    </g>
    <g id="ytick_2">
     <g id="line2d_8">
      <g>
       <use style="stroke:#000000;stroke-width:0.8;" x="162" xlink:href="#mbb5b43f9f0" y="423.936"/>
      </g>
     </g>
     <g id="text_9">
      <!-- 20% -->
      <g transform="translate(110.546875 431.534437)scale(0.2 -0.2)">
       <use xlink:href="#DejaVuSans-50"/>
       <use x="63.623047" xlink:href="#DejaVuSans-48"/>
       <use x="127.246094" xlink:href="#DejaVuSans-37"/>
      </g>
     </g>
    </g>
    <g id="ytick_3">
     <g id="line2d_9">
      <g>
       <use style="stroke:#000000;stroke-width:0.8;" x="162" xlink:href="#mbb5b43f9f0" y="335.232"/>
      </g>
     </g>
     <g id="text_10">
      <!-- 40% -->
      <g transform="translate(110.546875 342.830438)scale(0.2 -0.2)">
       <use xlink:href="#DejaVuSans-52"/>
       <use x="63.623047" xlink:href="#DejaVuSans-48"/>
       <use x="127.246094" xlink:href="#DejaVuSans-37"/>
      </g>
     </g>
    </g>
    <g id="ytick_4">
     <g id="line2d_10">
      <g>
       <use style="stroke:#000000;stroke-width:0.8;" x="162" xlink:href="#mbb5b43f9f0" y="246.528"/>
      </g>
     </g>
     <g id="text_11">
      <!-- 60% -->
      <g transform="translate(110.546875 254.126437)scale(0.2 -0.2)">
       <use xlink:href="#DejaVuSans-54"/>
       <use x="63.623047" xlink:href="#DejaVuSans-48"/>
       <use x="127.246094" xlink:href="#DejaVuSans-37"/>
      </g>
     </g>
    </g>
    <g id="ytick_5">
     <g id="line2d_11">
      <g>
       <use style="stroke:#000000;stroke-width:0.8;" x="162" xlink:href="#mbb5b43f9f0" y="157.824"/>
      </g>
     </g>
     <g id="text_12">
      <!-- 80% -->
      <g transform="translate(110.546875 165.422437)scale(0.2 -0.2)">
       <use xlink:href="#DejaVuSans-56"/>
       <use x="63.623047" xlink:href="#DejaVuSans-48"/>
       <use x="127.246094" xlink:href="#DejaVuSans-37"/>
      </g>
     </g>
    </g>
    <g id="ytick_6">
     <g id="line2d_12">
      <g>
       <use style="stroke:#000000;stroke-width:0.8;" x="162" xlink:href="#mbb5b43f9f0" y="69.12"/>
      </g>
     </g>
     <g id="text_13">
      <!-- 100% -->
      <g transform="translate(97.821875 76.718437)scale(0.2 -0.2)">
       <use xlink:href="#DejaVuSans-49"/>
       <use x="63.623047" xlink:href="#DejaVuSans-48"/>
       <use x="127.246094" xlink:href="#DejaVuSans-48"/>
       <use x="190.869141" xlink:href="#DejaVuSans-37"/>
      </g>
     </g>
    </g>
    <g id="text_14">
     <!-- % Optimal action -->
     <g transform="translate(89.6625 377.084687)rotate(-90)scale(0.2 -0.2)">
      <defs>
       <path id="DejaVuSans-32"/>
       <path d="M 39.40625 66.21875 
Q 28.65625 66.21875 22.328125 58.203125 
Q 16.015625 50.203125 16.015625 36.375 
Q 16.015625 22.609375 22.328125 14.59375 
Q 28.65625 6.59375 39.40625 6.59375 
Q 50.140625 6.59375 56.421875 14.59375 
Q 62.703125 22.609375 62.703125 36.375 
Q 62.703125 50.203125 56.421875 58.203125 
Q 50.140625 66.21875 39.40625 66.21875 
z
M 39.40625 74.21875 
Q 54.734375 74.21875 63.90625 63.9375 
Q 73.09375 53.65625 73.09375 36.375 
Q 73.09375 19.140625 63.90625 8.859375 
Q 54.734375 -1.421875 39.40625 -1.421875 
Q 24.03125 -1.421875 14.8125 8.828125 
Q 5.609375 19.09375 5.609375 36.375 
Q 5.609375 53.65625 14.8125 63.9375 
Q 24.03125 74.21875 39.40625 74.21875 
z
" id="DejaVuSans-79"/>
       <path d="M 9.421875 54.6875 
L 18.40625 54.6875 
L 18.40625 0 
L 9.421875 0 
z
M 9.421875 75.984375 
L 18.40625 75.984375 
L 18.40625 64.59375 
L 9.421875 64.59375 
z
" id="DejaVuSans-105"/>
       <path d="M 52 44.1875 
Q 55.375 50.25 60.0625 53.125 
Q 64.75 56 71.09375 56 
Q 79.640625 56 84.28125 50.015625 
Q 88.921875 44.046875 88.921875 33.015625 
L 88.921875 0 
L 79.890625 0 
L 79.890625 32.71875 
Q 79.890625 40.578125 77.09375 44.375 
Q 74.3125 48.1875 68.609375 48.1875 
Q 61.625 48.1875 57.5625 43.546875 
Q 53.515625 38.921875 53.515625 30.90625 
L 53.515625 0 
L 44.484375 0 
L 44.484375 32.71875 
Q 44.484375 40.625 41.703125 44.40625 
Q 38.921875 48.1875 33.109375 48.1875 
Q 26.21875 48.1875 22.15625 43.53125 
Q 18.109375 38.875 18.109375 30.90625 
L 18.109375 0 
L 9.078125 0 
L 9.078125 54.6875 
L 18.109375 54.6875 
L 18.109375 46.1875 
Q 21.1875 51.21875 25.484375 53.609375 
Q 29.78125 56 35.6875 56 
Q 41.65625 56 45.828125 52.96875 
Q 50 49.953125 52 44.1875 
z
" id="DejaVuSans-109"/>
       <path d="M 34.28125 27.484375 
Q 23.390625 27.484375 19.1875 25 
Q 14.984375 22.515625 14.984375 16.5 
Q 14.984375 11.71875 18.140625 8.90625 
Q 21.296875 6.109375 26.703125 6.109375 
Q 34.1875 6.109375 38.703125 11.40625 
Q 43.21875 16.703125 43.21875 25.484375 
L 43.21875 27.484375 
z
M 52.203125 31.203125 
L 52.203125 0 
L 43.21875 0 
L 43.21875 8.296875 
Q 40.140625 3.328125 35.546875 0.953125 
Q 30.953125 -1.421875 24.3125 -1.421875 
Q 15.921875 -1.421875 10.953125 3.296875 
Q 6 8.015625 6 15.921875 
Q 6 25.140625 12.171875 29.828125 
Q 18.359375 34.515625 30.609375 34.515625 
L 43.21875 34.515625 
L 43.21875 35.40625 
Q 43.21875 41.609375 39.140625 45 
Q 35.0625 48.390625 27.6875 48.390625 
Q 23 48.390625 18.546875 47.265625 
Q 14.109375 46.140625 10.015625 43.890625 
L 10.015625 52.203125 
Q 14.9375 54.109375 19.578125 55.046875 
Q 24.21875 56 28.609375 56 
Q 40.484375 56 46.34375 49.84375 
Q 52.203125 43.703125 52.203125 31.203125 
z
" id="DejaVuSans-97"/>
       <path d="M 9.421875 75.984375 
L 18.40625 75.984375 
L 18.40625 0 
L 9.421875 0 
z
" id="DejaVuSans-108"/>
       <path d="M 48.78125 52.59375 
L 48.78125 44.1875 
Q 44.96875 46.296875 41.140625 47.34375 
Q 37.3125 48.390625 33.40625 48.390625 
Q 24.65625 48.390625 19.8125 42.84375 
Q 14.984375 37.3125 14.984375 27.296875 
Q 14.984375 17.28125 19.8125 11.734375 
Q 24.65625 6.203125 33.40625 6.203125 
Q 37.3125 6.203125 41.140625 7.25 
Q 44.96875 8.296875 48.78125 10.40625 
L 48.78125 2.09375 
Q 45.015625 0.34375 40.984375 -0.53125 
Q 36.96875 -1.421875 32.421875 -1.421875 
Q 20.0625 -1.421875 12.78125 6.34375 
Q 5.515625 14.109375 5.515625 27.296875 
Q 5.515625 40.671875 12.859375 48.328125 
Q 20.21875 56 33.015625 56 
Q 37.15625 56 41.109375 55.140625 
Q 45.0625 54.296875 48.78125 52.59375 
z
" id="DejaVuSans-99"/>
       <path d="M 30.609375 48.390625 
Q 23.390625 48.390625 19.1875 42.75 
Q 14.984375 37.109375 14.984375 27.296875 
Q 14.984375 17.484375 19.15625 11.84375 
Q 23.34375 6.203125 30.609375 6.203125 
Q 37.796875 6.203125 41.984375 11.859375 
Q 46.1875 17.53125 46.1875 27.296875 
Q 46.1875 37.015625 41.984375 42.703125 
Q 37.796875 48.390625 30.609375 48.390625 
z
M 30.609375 56 
Q 42.328125 56 49.015625 48.375 
Q 55.71875 40.765625 55.71875 27.296875 
Q 55.71875 13.875 49.015625 6.21875 
Q 42.328125 -1.421875 30.609375 -1.421875 
Q 18.84375 -1.421875 12.171875 6.21875 
Q 5.515625 13.875 5.515625 27.296875 
Q 5.515625 40.765625 12.171875 48.375 
Q 18.84375 56 30.609375 56 
z
" id="DejaVuSans-111"/>
       <path d="M 54.890625 33.015625 
L 54.890625 0 
L 45.90625 0 
L 45.90625 32.71875 
Q 45.90625 40.484375 42.875 44.328125 
Q 39.84375 48.1875 33.796875 48.1875 
Q 26.515625 48.1875 22.3125 43.546875 
Q 18.109375 38.921875 18.109375 30.90625 
L 18.109375 0 
L 9.078125 0 
L 9.078125 54.6875 
L 18.109375 54.6875 
L 18.109375 46.1875 
Q 21.34375 51.125 25.703125 53.5625 
Q 30.078125 56 35.796875 56 
Q 45.21875 56 50.046875 50.171875 
Q 54.890625 44.34375 54.890625 33.015625 
z
" id="DejaVuSans-110"/>
      </defs>
      <use xlink:href="#DejaVuSans-37"/>
      <use x="95.019531" xlink:href="#DejaVuSans-32"/>
      <use x="126.806641" xlink:href="#DejaVuSans-79"/>
      <use x="205.517578" xlink:href="#DejaVuSans-112"/>
      <use x="268.994141" xlink:href="#DejaVuSans-116"/>
      <use x="308.203125" xlink:href="#DejaVuSans-105"/>
      <use x="335.986328" xlink:href="#DejaVuSans-109"/>
      <use x="433.398438" xlink:href="#DejaVuSans-97"/>
      <use x="494.677734" xlink:href="#DejaVuSans-108"/>
      <use x="522.460938" xlink:href="#DejaVuSans-32"/>
      <use x="554.248047" xlink:href="#DejaVuSans-97"/>
      <use x="615.527344" xlink:href="#DejaVuSans-99"/>
      <use x="670.507812" xlink:href="#DejaVuSans-116"/>
      <use x="709.716797" xlink:href="#DejaVuSans-105"/>
      <use x="737.5" xlink:href="#DejaVuSans-111"/>
      <use x="798.681641" xlink:href="#DejaVuSans-110"/>
     </g>
    </g>
   </g>
   <g id="line2d_13">
    <path clip-path="url(#pc20be9890d)" d="M 207.654545 473.61024 
L 208.56855 456.97824 
L 209.482555 444.33792 
L 210.39656 436.1328 
L 211.310565 424.15776 
L 212.22457 419.27904 
L 213.138575 409.07808 
L 214.966585 395.77248 
L 215.88059 393.55488 
L 216.794595 387.3456 
L 217.7086 382.68864 
L 218.622604 377.14464 
L 219.536609 374.92704 
L 220.450614 376.47936 
L 221.364619 373.37472 
L 223.192629 365.39136 
L 224.106634 363.61728 
L 225.020639 361.39968 
L 226.848649 354.30336 
L 227.762654 352.75104 
L 228.676658 352.08576 
L 229.590663 351.64224 
L 230.504668 346.32 
L 231.418673 344.76768 
L 233.246683 345.2112 
L 234.160688 342.77184 
L 235.074693 338.78016 
L 235.988698 338.5584 
L 236.902703 339.00192 
L 237.816708 337.22784 
L 238.730713 332.57088 
L 239.644717 332.34912 
L 240.558722 328.13568 
L 241.472727 330.35328 
L 242.386732 327.91392 
L 243.300737 329.24448 
L 244.214742 327.24864 
L 245.128747 321.9264 
L 246.042752 321.9264 
L 246.956757 320.59584 
L 247.870762 317.4912 
L 248.784767 318.82176 
L 249.698771 317.04768 
L 250.612776 311.06016 
L 251.526781 314.60832 
L 252.440786 309.7296 
L 253.354791 309.06432 
L 254.268796 309.7296 
L 255.182801 307.95552 
L 256.096806 309.06432 
L 257.010811 306.18144 
L 257.924816 305.2944 
L 258.838821 302.63328 
L 259.752826 303.96384 
L 260.66683 302.85504 
L 261.580835 306.62496 
L 262.49484 301.08096 
L 263.408845 306.18144 
L 264.32285 299.30688 
L 265.236855 300.41568 
L 266.15086 301.30272 
L 267.064865 301.08096 
L 267.97887 301.52448 
L 268.892875 300.19392 
L 269.80688 291.9888 
L 270.720885 295.53696 
L 271.634889 293.98464 
L 272.548894 293.98464 
L 273.462899 289.99296 
L 274.376904 291.32352 
L 275.290909 294.42816 
L 276.204914 286.00128 
L 277.118919 287.5536 
L 278.032924 292.87584 
L 279.860934 281.12256 
L 280.774939 279.34848 
L 281.688943 281.78784 
L 282.602948 278.90496 
L 283.516953 278.90496 
L 284.430958 281.78784 
L 285.344963 274.02624 
L 286.258968 279.57024 
L 288.086978 275.3568 
L 289.000983 276.02208 
L 289.914988 274.46976 
L 290.828993 274.69152 
L 291.742998 272.69568 
L 292.657002 274.46976 
L 293.571007 267.81696 
L 294.485012 266.4864 
L 295.399017 271.80864 
L 296.313022 268.03872 
L 298.141032 263.60352 
L 299.055037 267.81696 
L 299.969042 265.82112 
L 300.883047 266.70816 
L 301.797052 266.26464 
L 302.711057 261.82944 
L 303.625061 263.38176 
L 304.539066 266.4864 
L 305.453071 267.81696 
L 306.367076 264.93408 
L 308.195086 264.04704 
L 309.109091 260.05536 
L 310.023096 260.9424 
L 310.937101 263.16 
L 311.851106 262.0512 
L 312.765111 258.7248 
L 313.679115 256.72896 
L 314.59312 260.72064 
L 315.507125 260.05536 
L 316.42113 252.73728 
L 317.335135 251.62848 
L 318.24914 256.72896 
L 319.163145 258.94656 
L 320.07715 258.94656 
L 320.991155 252.73728 
L 321.90516 251.62848 
L 322.819165 250.29792 
L 324.647174 246.528 
L 325.561179 248.08032 
L 326.475184 247.41504 
L 327.389189 250.74144 
L 328.303194 246.528 
L 329.217199 246.08448 
L 330.131204 247.6368 
L 331.045209 244.97568 
L 331.959214 241.20576 
L 332.873219 240.09696 
L 333.787224 245.19744 
L 334.701229 244.08864 
L 335.615233 242.75808 
L 336.529238 238.10112 
L 337.443243 241.42752 
L 338.357248 243.2016 
L 339.271253 242.31456 
L 340.185258 238.10112 
L 341.099263 239.43168 
L 342.013268 238.98816 
L 342.927273 235.44 
L 343.841278 241.20576 
L 344.755283 238.32288 
L 345.669287 238.7664 
L 346.583292 231.44832 
L 347.497297 232.55712 
L 348.411302 234.10944 
L 349.325307 234.55296 
L 350.239312 235.44 
L 351.153317 232.1136 
L 352.067322 235.88352 
L 352.981327 233.00064 
L 353.895332 235.21824 
L 354.809337 234.77472 
L 355.723342 232.55712 
L 356.637346 232.77888 
L 357.551351 233.44416 
L 358.465356 231.44832 
L 359.379361 233.66592 
L 360.293366 230.56128 
L 361.207371 228.34368 
L 362.121376 231.0048 
L 363.035381 230.33952 
L 363.949386 230.56128 
L 364.863391 231.44832 
L 365.777396 229.896 
L 366.6914 231.22656 
L 367.605405 230.33952 
L 368.51941 225.23904 
L 369.433415 226.5696 
L 370.34742 227.23488 
L 371.261425 227.6784 
L 372.17543 224.352 
L 373.089435 224.352 
L 374.00344 226.5696 
L 374.917445 220.80384 
L 375.83145 229.23072 
L 376.745455 226.79136 
L 377.659459 223.02144 
L 378.573464 223.68672 
L 379.487469 229.23072 
L 380.401474 223.2432 
L 381.315479 223.2432 
L 382.229484 225.90432 
L 383.143489 220.58208 
L 384.057494 221.0256 
L 384.971499 222.35616 
L 385.885504 222.57792 
L 386.799509 223.46496 
L 387.713514 217.25568 
L 388.627518 223.46496 
L 389.541523 216.14688 
L 391.369533 220.36032 
L 392.283538 220.58208 
L 393.197543 214.81632 
L 394.111548 220.13856 
L 395.025553 215.70336 
L 395.939558 219.25152 
L 396.853563 217.03392 
L 397.767568 213.48576 
L 398.681572 212.82048 
L 399.595577 213.48576 
L 400.509582 211.26816 
L 401.423587 210.15936 
L 403.251597 214.15104 
L 404.165602 209.71584 
L 405.079607 207.27648 
L 405.993612 213.264 
L 406.907617 210.15936 
L 407.821622 209.9376 
L 408.735627 207.94176 
L 409.649631 208.8288 
L 410.563636 209.27232 
L 411.477641 212.82048 
L 412.391646 207.49824 
L 413.305651 207.72 
L 414.219656 208.8288 
L 415.133661 212.59872 
L 416.047666 210.60288 
L 416.961671 205.05888 
L 417.875676 206.16768 
L 418.789681 202.84128 
L 419.703686 205.28064 
L 420.61769 210.15936 
L 421.531695 208.16352 
L 422.4457 208.8288 
L 423.359705 214.3728 
L 424.27371 210.38112 
L 425.187715 214.3728 
L 427.015725 208.8288 
L 427.92973 206.16768 
L 428.843735 205.94592 
L 429.75774 207.27648 
L 430.671744 204.83712 
L 431.585749 209.05056 
L 432.499754 205.05888 
L 433.413759 209.9376 
L 434.327764 206.83296 
L 435.241769 199.9584 
L 436.155774 205.05888 
L 437.069779 204.61536 
L 437.983784 199.07136 
L 438.897789 203.95008 
L 439.811794 203.72832 
L 440.725799 206.6112 
L 441.639803 203.95008 
L 442.553808 206.83296 
L 444.381818 201.73248 
L 445.295823 200.62368 
L 446.209828 204.3936 
L 447.123833 201.0672 
L 448.037838 199.51488 
L 448.951843 199.51488 
L 449.865848 204.17184 
L 450.779853 197.7408 
L 452.607862 201.0672 
L 453.521867 198.62784 
L 454.435872 196.85376 
L 455.349877 202.61952 
L 456.263882 203.06304 
L 457.177887 198.8496 
L 458.091892 200.62368 
L 459.005897 197.29728 
L 459.919902 196.632 
L 460.833907 197.7408 
L 461.747912 200.62368 
L 462.661916 195.07968 
L 463.575921 193.74912 
L 464.489926 195.74496 
L 465.403931 195.96672 
L 466.317936 197.96256 
L 467.231941 198.8496 
L 468.145946 196.85376 
L 469.059951 195.30144 
L 469.973956 195.5232 
L 470.887961 199.29312 
L 471.801966 201.0672 
L 472.715971 193.97088 
L 473.629975 195.74496 
L 474.54398 194.4144 
L 475.457985 197.51904 
L 476.37199 196.41024 
L 477.285995 193.08384 
L 478.2 191.97504 
L 479.114005 197.51904 
L 480.02801 194.63616 
L 480.942015 196.41024 
L 481.85602 191.97504 
L 482.770025 191.75328 
L 483.684029 189.9792 
L 484.598034 197.51904 
L 485.512039 192.1968 
L 486.426044 189.53568 
L 487.340049 193.74912 
L 488.254054 192.1968 
L 489.168059 192.86208 
L 490.082064 190.64448 
L 490.996069 200.18016 
L 491.910074 191.30976 
L 492.824079 196.41024 
L 493.738084 192.1968 
L 494.652088 193.08384 
L 495.566093 189.75744 
L 496.480098 191.088 
L 497.394103 193.08384 
L 498.308108 190.64448 
L 499.222113 191.088 
L 500.136118 189.09216 
L 501.050123 186.20928 
L 501.964128 191.088 
L 502.878133 195.07968 
L 503.792138 192.64032 
L 504.706143 192.41856 
L 505.620147 186.43104 
L 506.534152 190.86624 
L 507.448157 190.64448 
L 508.362162 191.53152 
L 509.276167 192.64032 
L 510.190172 189.9792 
L 511.104177 190.64448 
L 512.018182 188.42688 
L 512.932187 190.86624 
L 513.846192 187.53984 
L 514.760197 190.42272 
L 515.674201 191.088 
L 516.588206 186.43104 
L 517.502211 184.87872 
L 518.416216 189.75744 
L 519.330221 188.42688 
L 520.244226 187.31808 
L 521.158231 184.65696 
L 522.072236 185.544 
L 523.900246 189.31392 
L 524.814251 185.76576 
L 525.728256 187.31808 
L 526.64226 181.1088 
L 527.556265 191.088 
L 528.47027 184.87872 
L 529.384275 187.7616 
L 530.29828 184.87872 
L 531.212285 188.64864 
L 532.12629 185.76576 
L 533.040295 190.64448 
L 533.9543 189.53568 
L 534.868305 183.54816 
L 535.78231 185.544 
L 536.696314 189.9792 
L 537.610319 181.77408 
L 538.524324 185.32224 
L 539.438329 184.4352 
L 540.352334 184.21344 
L 541.266339 184.65696 
L 542.180344 181.77408 
L 543.094349 179.77824 
L 544.008354 179.33472 
L 544.922359 190.42272 
L 545.836364 183.10464 
L 546.750369 181.99584 
L 547.664373 182.43936 
L 548.578378 185.544 
L 549.492383 184.21344 
L 550.406388 185.544 
L 551.320393 183.10464 
L 552.234398 189.31392 
L 553.148403 181.33056 
L 554.062408 185.10048 
L 554.976413 182.2176 
L 555.890418 181.1088 
L 556.804423 184.21344 
L 557.718428 189.09216 
L 558.632432 181.33056 
L 560.460442 183.10464 
L 561.374447 178.66944 
L 562.288452 187.53984 
L 563.202457 184.4352 
L 564.116462 179.33472 
L 565.030467 180.66528 
L 565.944472 185.544 
L 566.858477 184.21344 
L 567.772482 181.77408 
L 568.686486 182.2176 
L 569.600491 176.45184 
L 570.514496 183.76992 
L 571.428501 179.77824 
L 572.342506 177.33888 
L 573.256511 176.45184 
L 574.170516 178.66944 
L 575.084521 176.89536 
L 575.998526 181.33056 
L 576.912531 175.78656 
L 577.826536 176.00832 
L 578.740541 179.55648 
L 579.654545 178.66944 
L 580.56855 182.43936 
L 581.482555 179.11296 
L 582.39656 178.00416 
L 583.310565 181.99584 
L 584.22457 176.23008 
L 585.138575 176.6736 
L 586.05258 176.89536 
L 586.966585 178.8912 
L 587.88059 173.79072 
L 588.794595 177.11712 
L 589.7086 176.89536 
L 590.622604 180.22176 
L 591.536609 179.55648 
L 593.364619 180.44352 
L 594.278624 177.33888 
L 595.192629 173.3472 
L 596.106634 178.8912 
L 597.020639 178.66944 
L 597.934644 179.33472 
L 598.848649 179.55648 
L 599.762654 172.2384 
L 600.676658 175.12128 
L 601.590663 176.00832 
L 602.504668 175.12128 
L 603.418673 177.11712 
L 604.332678 177.56064 
L 605.246683 172.90368 
L 606.160688 178.44768 
L 607.074693 178.00416 
L 607.988698 175.34304 
L 608.902703 170.68608 
L 609.816708 176.6736 
L 610.730713 175.78656 
L 611.644717 172.90368 
L 612.558722 174.89952 
L 613.472727 178.8912 
L 614.386732 172.46016 
L 615.300737 174.456 
L 616.214742 180.22176 
L 617.128747 175.5648 
L 618.042752 181.55232 
L 618.956757 175.78656 
L 619.870762 172.2384 
L 620.784767 177.11712 
L 621.698771 173.12544 
L 623.526781 177.33888 
L 624.440786 176.6736 
L 625.354791 173.56896 
L 626.268796 178.8912 
L 627.182801 175.34304 
L 628.096806 179.11296 
L 629.010811 172.01664 
L 629.924816 177.11712 
L 630.838821 173.3472 
L 631.752826 176.89536 
L 632.66683 170.46432 
L 633.580835 178.00416 
L 634.49484 175.5648 
L 635.408845 178.8912 
L 636.32285 176.00832 
L 637.236855 175.34304 
L 638.15086 168.69024 
L 639.064865 174.67776 
L 639.97887 176.45184 
L 640.892875 175.78656 
L 641.80688 176.89536 
L 642.720885 175.78656 
L 643.634889 168.02496 
L 644.548894 174.23424 
L 645.462899 173.79072 
L 646.376904 174.89952 
L 647.290909 170.24256 
L 648.204914 169.57728 
L 649.118919 170.24256 
L 650.032924 175.12128 
L 650.946929 171.1296 
L 651.860934 173.3472 
L 652.774939 172.46016 
L 653.688943 170.90784 
L 654.602948 172.68192 
L 655.516953 172.2384 
L 656.430958 173.79072 
L 657.344963 173.3472 
L 658.258968 174.67776 
L 659.172973 170.46432 
L 660.086978 174.456 
L 661.000983 172.68192 
L 661.914988 173.12544 
L 662.828993 174.01248 
L 663.742998 175.5648 
L 664.657002 173.79072 
L 665.571007 177.56064 
L 666.485012 174.01248 
L 667.399017 172.68192 
L 668.313022 170.68608 
L 669.227027 169.35552 
L 670.141032 171.35136 
L 671.055037 167.58144 
L 671.969042 169.57728 
L 672.883047 168.912 
L 673.797052 170.24256 
L 674.711057 169.13376 
L 675.625061 169.13376 
L 676.539066 169.35552 
L 677.453071 168.912 
L 678.367076 167.13792 
L 679.281081 169.13376 
L 680.195086 168.912 
L 681.109091 176.23008 
L 682.023096 168.69024 
L 682.937101 174.23424 
L 683.851106 174.23424 
L 684.765111 174.67776 
L 685.679115 170.90784 
L 686.59312 169.79904 
L 687.507125 172.46016 
L 688.42113 170.24256 
L 689.335135 173.56896 
L 690.24914 169.79904 
L 691.163145 170.24256 
L 692.07715 171.79488 
L 692.991155 175.78656 
L 693.90516 172.01664 
L 694.819165 170.68608 
L 695.73317 168.24672 
L 696.647174 172.90368 
L 697.561179 166.91616 
L 698.475184 168.24672 
L 699.389189 167.35968 
L 700.303194 165.14208 
L 701.217199 168.912 
L 702.131204 170.46432 
L 703.045209 167.58144 
L 703.959214 169.57728 
L 704.873219 168.69024 
L 705.787224 167.58144 
L 706.701229 172.90368 
L 707.615233 173.79072 
L 708.529238 169.13376 
L 709.443243 162.48096 
L 710.357248 168.24672 
L 711.271253 168.46848 
L 712.185258 172.46016 
L 713.099263 170.46432 
L 714.013268 172.01664 
L 714.927273 172.2384 
L 715.841278 167.58144 
L 716.755283 168.02496 
L 717.669287 173.12544 
L 718.583292 165.80736 
L 719.497297 162.92448 
L 720.411302 167.8032 
L 721.325307 164.03328 
L 722.239312 170.0208 
L 723.153317 167.13792 
L 724.067322 168.24672 
L 724.981327 172.01664 
L 725.895332 164.69856 
L 726.809337 159.37632 
L 727.723342 171.57312 
L 728.637346 171.57312 
L 729.551351 164.92032 
L 730.465356 165.14208 
L 731.379361 168.46848 
L 732.293366 168.69024 
L 733.207371 166.6944 
L 734.121376 166.6944 
L 735.035381 162.70272 
L 735.949386 166.6944 
L 736.863391 166.25088 
L 737.777396 164.25504 
L 738.6914 164.03328 
L 739.605405 166.25088 
L 740.51941 163.368 
L 741.433415 167.35968 
L 742.34742 167.8032 
L 743.261425 165.80736 
L 744.17543 168.02496 
L 745.089435 163.81152 
L 746.00344 166.6944 
L 746.917445 166.02912 
L 747.83145 168.46848 
L 748.745455 162.48096 
L 750.573464 167.58144 
L 751.487469 162.48096 
L 752.401474 162.03744 
L 753.315479 166.25088 
L 754.229484 167.13792 
L 755.143489 170.46432 
L 756.057494 164.92032 
L 756.971499 164.92032 
L 757.885504 167.35968 
L 758.799509 164.69856 
L 759.713514 165.36384 
L 760.627518 162.03744 
L 761.541523 166.25088 
L 763.369533 158.04576 
L 764.283538 164.4768 
L 765.197543 165.80736 
L 766.111548 158.71104 
L 767.025553 163.81152 
L 767.939558 165.36384 
L 768.853563 168.46848 
L 769.767568 160.26336 
L 770.681572 164.92032 
L 771.595577 163.14624 
L 772.509582 167.35968 
L 773.423587 164.92032 
L 774.337592 164.92032 
L 775.251597 166.91616 
L 776.165602 162.92448 
L 777.079607 169.57728 
L 777.993612 163.58976 
L 778.907617 164.03328 
L 779.821622 163.368 
L 780.735627 164.03328 
L 781.649631 160.48512 
L 782.563636 169.13376 
L 783.477641 166.02912 
L 784.391646 164.4768 
L 786.219656 165.80736 
L 787.133661 158.26752 
L 788.047666 165.80736 
L 788.961671 161.81568 
L 789.875676 162.48096 
L 790.789681 167.13792 
L 791.703686 161.59392 
L 792.61769 168.69024 
L 793.531695 160.26336 
L 794.4457 167.35968 
L 796.27371 158.71104 
L 797.187715 163.368 
L 798.10172 161.81568 
L 799.015725 161.59392 
L 799.92973 160.70688 
L 800.843735 164.69856 
L 801.75774 162.2592 
L 802.671744 162.03744 
L 803.585749 163.81152 
L 804.499754 168.24672 
L 805.413759 162.92448 
L 806.327764 160.0416 
L 807.241769 157.60224 
L 808.155774 161.1504 
L 809.069779 159.59808 
L 809.983784 162.92448 
L 810.897789 162.48096 
L 811.811794 159.15456 
L 812.725799 159.81984 
L 813.639803 161.81568 
L 814.553808 161.81568 
L 815.467813 163.368 
L 816.381818 163.368 
L 817.295823 164.69856 
L 818.209828 161.59392 
L 820.037838 163.81152 
L 820.951843 159.81984 
L 821.865848 163.81152 
L 822.779853 163.58976 
L 823.693857 157.60224 
L 824.607862 164.03328 
L 825.521867 159.59808 
L 826.435872 161.1504 
L 827.349877 160.0416 
L 828.263882 156.7152 
L 829.177887 160.70688 
L 830.091892 158.71104 
L 831.005897 160.26336 
L 831.919902 161.1504 
L 832.833907 169.13376 
L 833.747912 163.14624 
L 834.661916 160.70688 
L 835.575921 164.25504 
L 836.489926 165.5856 
L 837.403931 166.02912 
L 838.317936 159.81984 
L 839.231941 162.03744 
L 840.145946 163.58976 
L 841.059951 154.94112 
L 841.973956 161.1504 
L 842.887961 160.0416 
L 843.801966 160.0416 
L 844.715971 159.81984 
L 845.629975 161.81568 
L 846.54398 161.37216 
L 847.457985 157.824 
L 848.37199 163.368 
L 849.285995 163.368 
L 850.2 160.0416 
L 851.114005 158.48928 
L 852.02801 161.59392 
L 852.942015 163.14624 
L 853.85602 164.92032 
L 854.770025 165.5856 
L 855.684029 158.26752 
L 856.598034 164.92032 
L 857.512039 161.1504 
L 858.426044 160.0416 
L 859.340049 163.368 
L 860.254054 160.26336 
L 861.168059 159.15456 
L 862.082064 160.26336 
L 862.996069 160.0416 
L 863.910074 166.25088 
L 864.824079 159.15456 
L 865.738084 157.38048 
L 866.652088 159.15456 
L 867.566093 161.59392 
L 868.480098 158.71104 
L 869.394103 158.48928 
L 870.308108 164.69856 
L 871.222113 155.82816 
L 872.136118 159.59808 
L 873.964128 156.04992 
L 874.878133 159.37632 
L 875.792138 159.37632 
L 876.706143 164.03328 
L 877.620147 162.70272 
L 878.534152 162.92448 
L 879.448157 157.824 
L 880.362162 156.49344 
L 881.276167 157.824 
L 882.190172 159.59808 
L 883.104177 155.6064 
L 884.018182 163.58976 
L 884.932187 162.2592 
L 885.846192 160.48512 
L 886.760197 159.15456 
L 887.674201 162.2592 
L 888.588206 160.70688 
L 889.502211 159.81984 
L 890.416216 160.48512 
L 891.330221 164.25504 
L 893.158231 160.0416 
L 894.072236 164.92032 
L 894.986241 161.59392 
L 895.900246 160.70688 
L 896.814251 162.03744 
L 897.728256 164.25504 
L 898.64226 166.02912 
L 899.556265 160.70688 
L 900.47027 158.26752 
L 901.384275 162.92448 
L 902.29828 161.1504 
L 903.212285 160.70688 
L 904.12629 161.81568 
L 905.040295 164.92032 
L 905.9543 159.59808 
L 906.868305 158.71104 
L 907.78231 164.69856 
L 908.696314 159.81984 
L 909.610319 160.26336 
L 910.524324 158.71104 
L 911.438329 161.59392 
L 912.352334 160.26336 
L 914.180344 159.81984 
L 915.094349 165.5856 
L 916.008354 161.37216 
L 916.922359 160.26336 
L 917.836364 158.9328 
L 918.750369 163.14624 
L 919.664373 157.60224 
L 920.578378 156.27168 
L 921.492383 160.92864 
L 922.406388 158.9328 
L 923.320393 161.81568 
L 924.234398 155.82816 
L 925.148403 157.15872 
L 926.062408 157.15872 
L 926.976413 163.368 
L 927.890418 157.15872 
L 928.804423 160.0416 
L 929.718428 162.48096 
L 930.632432 162.2592 
L 931.546437 158.71104 
L 932.460442 157.60224 
L 933.374447 156.93696 
L 934.288452 158.48928 
L 935.202457 156.04992 
L 936.116462 158.48928 
L 937.030467 162.03744 
L 937.944472 161.1504 
L 938.858477 162.2592 
L 939.772482 162.2592 
L 940.686486 159.15456 
L 941.600491 158.71104 
L 942.514496 161.37216 
L 943.428501 155.16288 
L 944.342506 157.15872 
L 945.256511 154.94112 
L 946.170516 160.26336 
L 947.084521 157.38048 
L 947.998526 161.37216 
L 948.912531 162.92448 
L 949.826536 156.49344 
L 950.740541 155.6064 
L 951.654545 159.59808 
L 952.56855 162.70272 
L 953.482555 157.824 
L 954.39656 158.71104 
L 955.310565 160.0416 
L 956.22457 160.92864 
L 957.138575 155.82816 
L 958.05258 151.83648 
L 958.966585 162.48096 
L 959.88059 154.05408 
L 960.794595 156.93696 
L 961.7086 163.14624 
L 962.622604 156.04992 
L 963.536609 154.71936 
L 964.450614 158.9328 
L 965.364619 156.93696 
L 966.278624 156.04992 
L 967.192629 162.03744 
L 968.106634 161.37216 
L 969.020639 162.03744 
L 969.934644 160.70688 
L 970.848649 163.368 
L 971.762654 158.9328 
L 972.676658 157.38048 
L 973.590663 160.92864 
L 974.504668 161.59392 
L 975.418673 151.39296 
L 976.332678 160.70688 
L 977.246683 158.9328 
L 978.160688 161.59392 
L 979.074693 161.37216 
L 979.988698 165.5856 
L 980.902703 156.7152 
L 981.816708 160.48512 
L 982.730713 156.93696 
L 983.644717 156.93696 
L 984.558722 157.15872 
L 985.472727 158.26752 
L 986.386732 156.7152 
L 987.300737 158.26752 
L 988.214742 157.60224 
L 989.128747 156.27168 
L 990.042752 158.48928 
L 990.956757 164.69856 
L 991.870762 155.38464 
L 992.784767 158.26752 
L 993.698771 158.26752 
L 994.612776 157.15872 
L 995.526781 159.81984 
L 996.440786 163.368 
L 997.354791 159.37632 
L 998.268796 158.04576 
L 999.182801 154.27584 
L 1000.096806 158.04576 
L 1001.010811 159.15456 
L 1001.924816 154.05408 
L 1002.838821 165.14208 
L 1003.752826 160.92864 
L 1004.66683 158.04576 
L 1005.580835 156.04992 
L 1006.49484 154.94112 
L 1007.408845 151.1712 
L 1008.32285 159.37632 
L 1009.236855 160.92864 
L 1010.15086 156.27168 
L 1011.064865 159.15456 
L 1011.97887 160.26336 
L 1012.892875 156.49344 
L 1013.80688 158.26752 
L 1014.720885 157.60224 
L 1015.634889 159.59808 
L 1017.462899 158.26752 
L 1018.376904 160.70688 
L 1019.290909 160.26336 
L 1020.204914 159.59808 
L 1021.118919 154.71936 
L 1022.032924 161.37216 
L 1022.946929 158.04576 
L 1023.860934 161.37216 
L 1024.774939 153.83232 
L 1025.688943 158.48928 
L 1026.602948 160.26336 
L 1027.516953 158.71104 
L 1028.430958 152.72352 
L 1029.344963 157.15872 
L 1030.258968 156.93696 
L 1031.172973 160.0416 
L 1032.086978 152.05824 
L 1033.000983 158.04576 
L 1033.914988 158.48928 
L 1034.828993 160.70688 
L 1035.742998 156.7152 
L 1036.657002 158.26752 
L 1037.571007 161.59392 
L 1038.485012 157.38048 
L 1039.399017 155.6064 
L 1040.313022 158.04576 
L 1041.227027 157.60224 
L 1042.141032 159.37632 
L 1043.055037 162.03744 
L 1043.969042 152.94528 
L 1044.883047 155.82816 
L 1045.797052 158.26752 
L 1046.711057 155.16288 
L 1047.625061 155.16288 
L 1048.539066 157.38048 
L 1049.453071 151.39296 
L 1050.367076 156.93696 
L 1051.281081 154.4976 
L 1052.195086 154.4976 
L 1053.109091 155.82816 
L 1054.023096 150.72768 
L 1055.851106 160.0416 
L 1056.765111 156.49344 
L 1057.679115 158.48928 
L 1058.59312 156.49344 
L 1059.507125 165.14208 
L 1060.42113 152.05824 
L 1061.335135 155.16288 
L 1062.24914 154.71936 
L 1063.163145 157.38048 
L 1064.07715 158.04576 
L 1064.991155 162.03744 
L 1065.90516 155.38464 
L 1066.819165 155.6064 
L 1067.73317 157.60224 
L 1068.647174 156.49344 
L 1069.561179 154.05408 
L 1070.475184 155.6064 
L 1071.389189 155.82816 
L 1072.303194 157.824 
L 1073.217199 154.4976 
L 1074.131204 154.27584 
L 1075.045209 161.37216 
L 1075.959214 155.82816 
L 1076.873219 159.15456 
L 1077.787224 156.27168 
L 1078.701229 156.49344 
L 1079.615233 151.39296 
L 1081.443243 158.9328 
L 1082.357248 162.92448 
L 1083.271253 157.15872 
L 1084.185258 160.92864 
L 1085.099263 154.27584 
L 1086.927273 159.81984 
L 1087.841278 158.48928 
L 1088.755283 159.15456 
L 1089.669287 153.3888 
L 1090.583292 157.824 
L 1092.411302 157.38048 
L 1094.239312 157.824 
L 1095.153317 159.15456 
L 1096.067322 154.94112 
L 1096.981327 158.71104 
L 1097.895332 155.82816 
L 1098.809337 157.60224 
L 1099.723342 154.4976 
L 1100.637346 160.26336 
L 1101.551351 154.94112 
L 1102.465356 156.27168 
L 1103.379361 156.93696 
L 1104.293366 156.04992 
L 1105.207371 155.38464 
L 1106.121376 156.49344 
L 1107.035381 153.83232 
L 1107.949386 158.9328 
L 1108.863391 153.3888 
L 1109.777396 152.72352 
L 1110.6914 158.9328 
L 1111.605405 160.70688 
L 1112.51941 152.50176 
L 1113.433415 156.93696 
L 1114.34742 156.04992 
L 1115.261425 156.27168 
L 1116.17543 156.93696 
L 1117.089435 155.6064 
L 1118.00344 154.94112 
L 1118.917445 152.94528 
L 1119.83145 153.61056 
L 1120.745455 153.61056 
L 1120.745455 153.61056 
" style="fill:none;stroke:#0000ff;stroke-linecap:square;stroke-width:1.5;"/>
   </g>
   <g id="line2d_14">
    <path clip-path="url(#pc20be9890d)" d="M 207.654545 466.95744 
L 208.56855 445.44672 
L 210.39656 419.05728 
L 211.310565 410.6304 
L 212.22457 404.64288 
L 213.138575 397.10304 
L 214.966585 386.2368 
L 215.88059 383.35392 
L 216.794595 379.584 
L 217.7086 374.48352 
L 218.622604 372.26592 
L 219.536609 371.8224 
L 220.450614 370.04832 
L 221.364619 367.3872 
L 222.278624 366.2784 
L 223.192629 364.72608 
L 224.106634 363.39552 
L 225.020639 362.952 
L 226.848649 360.7344 
L 227.762654 358.73856 
L 228.676658 358.29504 
L 229.590663 358.73856 
L 231.418673 357.408 
L 232.332678 357.85152 
L 233.246683 354.96864 
L 234.160688 353.85984 
L 235.074693 353.41632 
L 235.988698 352.75104 
L 236.902703 352.9728 
L 237.816708 352.08576 
L 238.730713 352.52928 
L 239.644717 352.08576 
L 241.472727 350.7552 
L 242.386732 351.64224 
L 243.300737 350.31168 
L 244.214742 350.08992 
L 245.128747 350.53344 
L 246.042752 350.7552 
L 246.956757 350.53344 
L 247.870762 349.42464 
L 248.784767 349.6464 
L 249.698771 348.75936 
L 250.612776 348.98112 
L 251.526781 348.09408 
L 252.440786 346.98528 
L 255.182801 346.98528 
L 256.096806 347.65056 
L 257.010811 346.54176 
L 257.924816 345.87648 
L 258.838821 346.09824 
L 259.752826 345.43296 
L 260.66683 345.65472 
L 261.580835 346.09824 
L 263.408845 345.65472 
L 264.32285 344.98944 
L 265.236855 345.65472 
L 266.15086 345.65472 
L 267.064865 345.43296 
L 267.97887 344.54592 
L 268.892875 344.98944 
L 269.80688 343.65888 
L 270.720885 342.9936 
L 271.634889 344.1024 
L 272.548894 344.1024 
L 273.462899 343.65888 
L 274.376904 342.10656 
L 275.290909 342.32832 
L 276.204914 340.776 
L 277.118919 341.44128 
L 278.032924 341.66304 
L 278.946929 340.99776 
L 280.774939 341.8848 
L 281.688943 340.776 
L 282.602948 340.55424 
L 283.516953 339.88896 
L 284.430958 340.11072 
L 286.258968 339.6672 
L 287.172973 340.11072 
L 288.086978 339.22368 
L 289.000983 339.00192 
L 289.914988 339.6672 
L 290.828993 337.89312 
L 291.742998 337.67136 
L 292.657002 338.11488 
L 293.571007 338.11488 
L 294.485012 336.56256 
L 295.399017 338.5584 
L 296.313022 337.67136 
L 297.227027 337.67136 
L 298.141032 339.00192 
L 299.055037 337.00608 
L 299.969042 336.3408 
L 300.883047 337.00608 
L 302.711057 334.78848 
L 303.625061 335.67552 
L 304.539066 336.3408 
L 305.453071 335.89728 
L 306.367076 337.00608 
L 307.281081 334.56672 
L 308.195086 334.56672 
L 309.109091 335.89728 
L 310.023096 335.67552 
L 310.937101 336.11904 
L 311.851106 335.01024 
L 312.765111 336.11904 
L 313.679115 335.67552 
L 314.59312 335.01024 
L 316.42113 334.56672 
L 317.335135 335.45376 
L 318.24914 334.56672 
L 319.163145 335.45376 
L 320.07715 334.1232 
L 320.991155 333.90144 
L 321.90516 334.78848 
L 322.819165 334.1232 
L 323.73317 334.1232 
L 324.647174 333.67968 
L 325.561179 333.45792 
L 326.475184 333.45792 
L 327.389189 332.57088 
L 328.303194 333.67968 
L 329.217199 332.34912 
L 330.131204 332.34912 
L 331.045209 332.57088 
L 331.959214 332.57088 
L 332.873219 331.9056 
L 333.787224 333.0144 
L 334.701229 331.9056 
L 335.615233 332.57088 
L 336.529238 332.34912 
L 337.443243 331.46208 
L 338.357248 330.7968 
L 339.271253 331.24032 
L 340.185258 330.7968 
L 341.099263 330.7968 
L 342.013268 329.688 
L 342.927273 329.02272 
L 343.841278 329.02272 
L 344.755283 329.688 
L 345.669287 329.688 
L 346.583292 329.90976 
L 347.497297 330.57504 
L 348.411302 330.13152 
L 349.325307 330.13152 
L 350.239312 328.80096 
L 351.153317 328.5792 
L 352.067322 329.46624 
L 352.981327 327.4704 
L 353.895332 328.35744 
L 355.723342 327.91392 
L 356.637346 328.5792 
L 357.551351 328.80096 
L 358.465356 326.80512 
L 359.379361 327.4704 
L 360.293366 328.5792 
L 362.121376 325.91808 
L 363.035381 326.3616 
L 363.949386 326.3616 
L 364.863391 325.47456 
L 365.777396 325.91808 
L 367.605405 325.91808 
L 368.51941 327.4704 
L 369.433415 326.58336 
L 370.34742 327.02688 
L 371.261425 325.47456 
L 372.17543 325.03104 
L 373.089435 325.2528 
L 374.00344 325.03104 
L 374.917445 325.2528 
L 375.83145 325.69632 
L 376.745455 325.03104 
L 377.659459 324.144 
L 378.573464 322.59168 
L 379.487469 324.144 
L 380.401474 323.25696 
L 381.315479 322.81344 
L 382.229484 322.14816 
L 383.143489 321.03936 
L 384.057494 321.26112 
L 384.971499 321.26112 
L 385.885504 322.36992 
L 386.799509 322.36992 
L 387.713514 321.03936 
L 388.627518 321.48288 
L 389.541523 320.8176 
L 390.455528 321.26112 
L 391.369533 320.59584 
L 392.283538 321.03936 
L 393.197543 319.93056 
L 394.111548 320.15232 
L 395.025553 320.15232 
L 395.939558 320.37408 
L 396.853563 321.48288 
L 397.767568 319.48704 
L 398.681572 320.8176 
L 399.595577 320.8176 
L 400.509582 320.59584 
L 401.423587 321.48288 
L 402.337592 319.93056 
L 403.251597 319.93056 
L 404.165602 320.37408 
L 405.079607 321.03936 
L 405.993612 319.04352 
L 406.907617 319.7088 
L 407.821622 319.04352 
L 408.735627 319.04352 
L 409.649631 318.15648 
L 410.563636 318.6 
L 411.477641 320.15232 
L 412.391646 318.82176 
L 414.219656 317.4912 
L 415.133661 319.48704 
L 416.047666 317.4912 
L 416.961671 317.26944 
L 417.875676 318.37824 
L 418.789681 318.15648 
L 419.703686 317.71296 
L 420.61769 317.04768 
L 421.531695 316.16064 
L 422.4457 316.3824 
L 423.359705 315.2736 
L 424.27371 315.05184 
L 425.187715 315.93888 
L 426.10172 315.05184 
L 427.015725 315.05184 
L 427.92973 314.38656 
L 428.843735 314.83008 
L 429.75774 313.94304 
L 430.671744 314.60832 
L 431.585749 314.83008 
L 432.499754 314.38656 
L 433.413759 314.38656 
L 434.327764 314.60832 
L 435.241769 313.94304 
L 436.155774 314.60832 
L 437.069779 313.056 
L 437.983784 313.49952 
L 438.897789 313.27776 
L 439.811794 312.61248 
L 441.639803 310.8384 
L 442.553808 311.28192 
L 444.381818 312.61248 
L 445.295823 311.50368 
L 446.209828 311.72544 
L 447.123833 310.17312 
L 448.037838 310.8384 
L 448.951843 309.95136 
L 449.865848 311.28192 
L 450.779853 310.39488 
L 451.693857 309.06432 
L 452.607862 310.61664 
L 453.521867 310.61664 
L 454.435872 311.06016 
L 455.349877 310.17312 
L 456.263882 311.06016 
L 457.177887 311.28192 
L 458.091892 310.39488 
L 459.005897 310.39488 
L 459.919902 309.95136 
L 460.833907 311.06016 
L 461.747912 309.50784 
L 462.661916 309.7296 
L 463.575921 309.28608 
L 464.489926 309.95136 
L 465.403931 307.512 
L 466.317936 309.28608 
L 468.145946 308.39904 
L 469.059951 309.7296 
L 469.973956 309.06432 
L 470.887961 310.17312 
L 471.801966 308.39904 
L 472.715971 309.06432 
L 473.629975 309.28608 
L 476.37199 308.6208 
L 478.2 309.50784 
L 479.114005 307.512 
L 480.02801 309.28608 
L 480.942015 309.06432 
L 481.85602 309.06432 
L 482.770025 309.95136 
L 483.684029 307.73376 
L 484.598034 306.62496 
L 485.512039 307.73376 
L 486.426044 306.84672 
L 487.340049 308.17728 
L 488.254054 306.18144 
L 489.168059 306.84672 
L 490.082064 306.4032 
L 490.996069 306.84672 
L 491.910074 305.73792 
L 492.824079 306.84672 
L 493.738084 305.73792 
L 494.652088 306.62496 
L 495.566093 305.2944 
L 496.480098 305.07264 
L 497.394103 305.95968 
L 498.308108 305.95968 
L 500.136118 305.07264 
L 501.050123 304.40736 
L 501.964128 305.73792 
L 502.878133 304.85088 
L 503.792138 304.62912 
L 504.706143 304.85088 
L 505.620147 304.40736 
L 506.534152 304.40736 
L 507.448157 305.2944 
L 508.362162 305.2944 
L 509.276167 303.96384 
L 511.104177 303.96384 
L 512.018182 304.1856 
L 512.932187 303.96384 
L 513.846192 304.1856 
L 514.760197 303.29856 
L 515.674201 303.0768 
L 516.588206 303.74208 
L 517.502211 303.96384 
L 518.416216 303.29856 
L 519.330221 302.41152 
L 521.158231 303.29856 
L 522.072236 303.29856 
L 522.986241 302.41152 
L 523.900246 302.85504 
L 524.814251 303.0768 
L 525.728256 302.63328 
L 526.64226 303.29856 
L 527.556265 301.74624 
L 528.47027 302.85504 
L 529.384275 302.63328 
L 530.29828 303.52032 
L 531.212285 301.08096 
L 532.12629 301.08096 
L 533.040295 302.63328 
L 533.9543 301.30272 
L 534.868305 301.52448 
L 535.78231 300.63744 
L 536.696314 300.41568 
L 537.610319 300.63744 
L 538.524324 301.08096 
L 539.438329 299.7504 
L 541.266339 300.19392 
L 542.180344 299.97216 
L 543.094349 300.8592 
L 544.008354 302.41152 
L 544.922359 300.8592 
L 545.836364 300.63744 
L 546.750369 299.7504 
L 547.664373 300.8592 
L 549.492383 300.41568 
L 550.406388 299.30688 
L 551.320393 300.8592 
L 552.234398 299.08512 
L 553.148403 299.97216 
L 554.062408 300.41568 
L 554.976413 299.30688 
L 555.890418 299.08512 
L 556.804423 299.52864 
L 557.718428 299.52864 
L 558.632432 299.30688 
L 559.546437 299.30688 
L 560.460442 298.6416 
L 561.374447 298.41984 
L 562.288452 298.6416 
L 563.202457 299.08512 
L 564.116462 298.41984 
L 565.030467 298.86336 
L 565.944472 298.41984 
L 566.858477 298.41984 
L 567.772482 297.75456 
L 568.686486 298.6416 
L 569.600491 297.31104 
L 570.514496 297.31104 
L 571.428501 297.08928 
L 572.342506 296.20224 
L 573.256511 296.86752 
L 574.170516 296.86752 
L 575.084521 295.09344 
L 575.998526 295.3152 
L 576.912531 296.86752 
L 577.826536 295.98048 
L 578.740541 295.98048 
L 579.654545 296.424 
L 580.56855 295.53696 
L 581.482555 296.20224 
L 582.39656 296.20224 
L 583.310565 295.3152 
L 584.22457 296.86752 
L 585.138575 296.86752 
L 586.05258 296.64576 
L 586.966585 294.87168 
L 587.88059 294.42816 
L 588.794595 296.64576 
L 589.7086 294.87168 
L 590.622604 295.09344 
L 591.536609 297.31104 
L 592.450614 294.42816 
L 593.364619 294.87168 
L 594.278624 295.09344 
L 595.192629 294.87168 
L 596.106634 293.54112 
L 597.934644 294.42816 
L 598.848649 295.53696 
L 599.762654 293.76288 
L 600.676658 293.54112 
L 601.590663 293.76288 
L 604.332678 293.0976 
L 605.246683 292.43232 
L 606.160688 292.65408 
L 607.074693 293.31936 
L 607.988698 293.54112 
L 608.902703 293.54112 
L 609.816708 294.2064 
L 610.730713 292.43232 
L 611.644717 293.0976 
L 613.472727 293.0976 
L 614.386732 293.54112 
L 615.300737 294.87168 
L 616.214742 293.54112 
L 617.128747 293.76288 
L 618.042752 293.31936 
L 618.956757 293.54112 
L 619.870762 291.9888 
L 620.784767 291.9888 
L 621.698771 293.0976 
L 622.612776 293.0976 
L 623.526781 291.54528 
L 624.440786 292.65408 
L 625.354791 291.9888 
L 626.268796 291.10176 
L 627.182801 291.10176 
L 628.096806 292.21056 
L 629.010811 291.32352 
L 629.924816 291.54528 
L 630.838821 291.32352 
L 631.752826 291.76704 
L 632.66683 291.76704 
L 633.580835 290.88 
L 634.49484 291.9888 
L 635.408845 292.43232 
L 636.32285 291.32352 
L 637.236855 291.54528 
L 638.15086 290.65824 
L 639.064865 291.10176 
L 639.97887 290.21472 
L 640.892875 289.99296 
L 641.80688 292.21056 
L 642.720885 291.9888 
L 643.634889 290.21472 
L 644.548894 290.88 
L 645.462899 291.10176 
L 646.376904 291.54528 
L 647.290909 291.10176 
L 648.204914 289.7712 
L 649.118919 289.7712 
L 650.032924 290.88 
L 650.946929 291.54528 
L 651.860934 289.10592 
L 652.774939 289.54944 
L 653.688943 289.7712 
L 654.602948 288.88416 
L 655.516953 287.5536 
L 656.430958 288.88416 
L 657.344963 290.43648 
L 658.258968 288.44064 
L 659.172973 288.88416 
L 660.086978 288.88416 
L 661.000983 289.10592 
L 661.914988 286.88832 
L 662.828993 287.99712 
L 663.742998 288.44064 
L 664.657002 287.33184 
L 665.571007 287.11008 
L 666.485012 288.6624 
L 667.399017 287.11008 
L 668.313022 287.5536 
L 669.227027 287.77536 
L 670.141032 287.11008 
L 671.055037 286.66656 
L 671.969042 284.89248 
L 672.883047 285.11424 
L 673.797052 285.77952 
L 674.711057 285.55776 
L 675.625061 285.11424 
L 676.539066 286.00128 
L 677.453071 286.22304 
L 678.367076 287.5536 
L 679.281081 286.22304 
L 680.195086 285.11424 
L 681.109091 284.67072 
L 682.023096 284.89248 
L 682.937101 283.78368 
L 683.851106 284.00544 
L 684.765111 286.66656 
L 685.679115 283.34016 
L 686.59312 284.44896 
L 687.507125 285.77952 
L 688.42113 284.44896 
L 689.335135 284.00544 
L 690.24914 283.78368 
L 691.163145 284.89248 
L 692.07715 284.00544 
L 692.991155 284.44896 
L 693.90516 283.1184 
L 694.819165 282.23136 
L 695.73317 282.89664 
L 696.647174 285.11424 
L 697.561179 283.1184 
L 698.475184 282.67488 
L 699.389189 282.67488 
L 700.303194 283.34016 
L 701.217199 283.56192 
L 702.131204 282.89664 
L 703.045209 281.12256 
L 703.959214 282.45312 
L 704.873219 282.0096 
L 705.787224 282.67488 
L 708.529238 280.67904 
L 709.443243 281.56608 
L 710.357248 281.78784 
L 711.271253 280.9008 
L 712.185258 280.67904 
L 713.099263 280.9008 
L 714.013268 279.34848 
L 714.927273 280.01376 
L 715.841278 281.12256 
L 716.755283 280.67904 
L 717.669287 280.45728 
L 718.583292 280.45728 
L 719.497297 280.01376 
L 720.411302 281.12256 
L 722.239312 279.792 
L 723.153317 279.34848 
L 724.067322 280.23552 
L 724.981327 280.67904 
L 725.895332 279.12672 
L 726.809337 280.67904 
L 727.723342 279.34848 
L 728.637346 278.6832 
L 729.551351 279.34848 
L 730.465356 277.79616 
L 731.379361 278.6832 
L 732.293366 278.46144 
L 733.207371 277.79616 
L 734.121376 278.6832 
L 735.035381 277.79616 
L 735.949386 278.01792 
L 736.863391 277.5744 
L 737.777396 278.01792 
L 738.6914 279.12672 
L 739.605405 279.12672 
L 740.51941 277.79616 
L 741.433415 278.46144 
L 742.34742 278.90496 
L 743.261425 277.79616 
L 744.17543 277.79616 
L 745.089435 279.12672 
L 746.00344 278.90496 
L 747.83145 276.68736 
L 748.745455 277.79616 
L 749.659459 277.5744 
L 750.573464 277.13088 
L 751.487469 275.80032 
L 752.401474 277.79616 
L 753.315479 277.35264 
L 754.229484 277.5744 
L 755.143489 276.02208 
L 756.971499 276.02208 
L 757.885504 276.4656 
L 758.799509 275.57856 
L 759.713514 275.13504 
L 760.627518 276.24384 
L 761.541523 275.3568 
L 762.455528 275.57856 
L 763.369533 276.02208 
L 764.283538 275.3568 
L 765.197543 274.46976 
L 766.111548 275.57856 
L 767.025553 275.13504 
L 767.939558 274.02624 
L 768.853563 275.13504 
L 769.767568 272.91744 
L 770.681572 275.13504 
L 771.595577 273.80448 
L 772.509582 273.58272 
L 773.423587 272.0304 
L 774.337592 274.46976 
L 775.251597 273.36096 
L 776.165602 273.58272 
L 777.079607 272.91744 
L 777.993612 273.36096 
L 778.907617 274.46976 
L 779.821622 272.91744 
L 780.735627 272.25216 
L 781.649631 274.02624 
L 782.563636 273.1392 
L 783.477641 272.0304 
L 784.391646 271.14336 
L 785.305651 272.69568 
L 787.133661 272.25216 
L 788.047666 271.80864 
L 789.875676 272.69568 
L 790.789681 272.0304 
L 791.703686 270.25632 
L 792.61769 271.14336 
L 793.531695 271.36512 
L 794.4457 270.69984 
L 795.359705 269.59104 
L 796.27371 270.47808 
L 797.187715 269.8128 
L 798.10172 270.25632 
L 799.015725 270.03456 
L 799.92973 270.03456 
L 800.843735 269.14752 
L 801.75774 270.03456 
L 802.671744 270.47808 
L 803.585749 269.14752 
L 804.499754 269.59104 
L 805.413759 270.47808 
L 806.327764 268.92576 
L 807.241769 269.59104 
L 808.155774 269.14752 
L 809.069779 268.92576 
L 809.983784 269.36928 
L 810.897789 268.92576 
L 811.811794 267.5952 
L 812.725799 267.81696 
L 813.639803 267.15168 
L 814.553808 266.04288 
L 815.467813 266.4864 
L 816.381818 267.5952 
L 817.295823 266.70816 
L 818.209828 267.15168 
L 819.123833 265.82112 
L 820.037838 265.82112 
L 820.951843 264.49056 
L 821.865848 265.3776 
L 823.693857 265.3776 
L 824.607862 266.92992 
L 825.521867 265.3776 
L 826.435872 264.71232 
L 827.349877 265.15584 
L 828.263882 264.2688 
L 829.177887 266.26464 
L 830.091892 264.93408 
L 831.005897 265.3776 
L 831.919902 265.3776 
L 832.833907 264.93408 
L 833.747912 264.93408 
L 834.661916 267.15168 
L 835.575921 263.60352 
L 836.489926 263.38176 
L 837.403931 263.60352 
L 838.317936 263.60352 
L 839.231941 263.38176 
L 841.059951 263.38176 
L 841.973956 263.60352 
L 842.887961 264.93408 
L 843.801966 263.60352 
L 844.715971 264.49056 
L 845.629975 262.93824 
L 846.54398 262.49472 
L 847.457985 262.49472 
L 848.37199 262.71648 
L 849.285995 261.82944 
L 850.2 261.60768 
L 851.114005 261.82944 
L 852.02801 264.49056 
L 852.942015 261.60768 
L 853.85602 262.0512 
L 854.770025 261.82944 
L 855.684029 262.71648 
L 856.598034 260.72064 
L 857.512039 262.49472 
L 858.426044 261.60768 
L 859.340049 260.9424 
L 860.254054 261.16416 
L 861.168059 260.27712 
L 862.082064 260.72064 
L 862.996069 261.60768 
L 863.910074 261.38592 
L 864.824079 261.60768 
L 865.738084 262.0512 
L 866.652088 261.38592 
L 867.566093 261.60768 
L 868.480098 261.16416 
L 869.394103 260.9424 
L 870.308108 260.05536 
L 871.222113 260.9424 
L 872.136118 260.72064 
L 873.050123 259.8336 
L 874.878133 260.27712 
L 875.792138 259.8336 
L 876.706143 260.9424 
L 877.620147 258.7248 
L 878.534152 259.8336 
L 879.448157 261.38592 
L 880.362162 258.28128 
L 881.276167 258.94656 
L 882.190172 258.94656 
L 883.104177 260.05536 
L 884.018182 260.49888 
L 884.932187 260.27712 
L 885.846192 259.16832 
L 886.760197 258.94656 
L 887.674201 259.39008 
L 888.588206 260.27712 
L 889.502211 258.7248 
L 890.416216 258.94656 
L 891.330221 259.39008 
L 892.244226 259.61184 
L 893.158231 258.05952 
L 894.072236 257.83776 
L 894.986241 258.50304 
L 895.900246 256.72896 
L 896.814251 258.28128 
L 897.728256 256.95072 
L 898.64226 256.28544 
L 899.556265 256.5072 
L 900.47027 256.06368 
L 901.384275 256.72896 
L 902.29828 256.72896 
L 903.212285 255.84192 
L 904.12629 255.84192 
L 905.040295 257.39424 
L 905.9543 259.16832 
L 906.868305 257.39424 
L 907.78231 259.16832 
L 908.696314 256.28544 
L 909.610319 255.84192 
L 910.524324 257.39424 
L 911.438329 257.17248 
L 912.352334 257.39424 
L 913.266339 255.3984 
L 914.180344 258.05952 
L 915.094349 254.95488 
L 916.008354 256.06368 
L 916.922359 254.95488 
L 917.836364 254.95488 
L 918.750369 254.73312 
L 919.664373 255.3984 
L 920.578378 254.95488 
L 921.492383 254.95488 
L 922.406388 255.3984 
L 923.320393 255.3984 
L 924.234398 256.06368 
L 925.148403 253.1808 
L 926.062408 253.1808 
L 926.976413 253.84608 
L 927.890418 253.40256 
L 929.718428 252.95904 
L 930.632432 253.62432 
L 931.546437 254.51136 
L 932.460442 253.62432 
L 933.374447 253.84608 
L 934.288452 252.072 
L 935.202457 251.85024 
L 936.116462 252.95904 
L 937.030467 252.29376 
L 937.944472 253.1808 
L 938.858477 253.62432 
L 939.772482 252.95904 
L 940.686486 252.072 
L 941.600491 253.40256 
L 942.514496 252.73728 
L 943.428501 251.62848 
L 945.256511 252.95904 
L 946.170516 251.40672 
L 947.084521 251.40672 
L 947.998526 252.29376 
L 948.912531 251.18496 
L 949.826536 251.18496 
L 950.740541 249.8544 
L 951.654545 250.51968 
L 952.56855 252.072 
L 953.482555 252.73728 
L 954.39656 250.74144 
L 955.310565 251.40672 
L 956.22457 251.40672 
L 957.138575 251.18496 
L 958.05258 251.40672 
L 958.966585 250.74144 
L 959.88059 250.29792 
L 960.794595 250.07616 
L 962.622604 250.9632 
L 963.536609 248.7456 
L 964.450614 249.41088 
L 965.364619 250.9632 
L 966.278624 249.41088 
L 967.192629 250.07616 
L 968.106634 249.18912 
L 969.020639 250.9632 
L 969.934644 248.30208 
L 970.848649 250.51968 
L 971.762654 248.7456 
L 972.676658 249.41088 
L 973.590663 250.74144 
L 974.504668 249.8544 
L 975.418673 249.8544 
L 976.332678 250.9632 
L 977.246683 250.07616 
L 978.160688 248.30208 
L 979.074693 248.96736 
L 982.730713 248.96736 
L 983.644717 250.29792 
L 984.558722 248.7456 
L 985.472727 249.18912 
L 986.386732 250.29792 
L 987.300737 249.18912 
L 988.214742 248.96736 
L 989.128747 247.85856 
L 990.042752 247.41504 
L 990.956757 249.18912 
L 991.870762 248.52384 
L 992.784767 248.30208 
L 993.698771 248.52384 
L 994.612776 248.08032 
L 995.526781 250.29792 
L 996.440786 248.52384 
L 997.354791 247.6368 
L 998.268796 247.41504 
L 999.182801 247.85856 
L 1001.010811 247.41504 
L 1001.924816 248.08032 
L 1002.838821 248.52384 
L 1003.752826 249.18912 
L 1004.66683 247.19328 
L 1005.580835 247.85856 
L 1006.49484 246.528 
L 1007.408845 246.30624 
L 1008.32285 246.97152 
L 1009.236855 245.64096 
L 1010.15086 248.08032 
L 1011.064865 246.74976 
L 1011.97887 244.97568 
L 1012.892875 245.19744 
L 1013.80688 246.528 
L 1014.720885 244.97568 
L 1015.634889 244.53216 
L 1016.548894 246.08448 
L 1017.462899 246.08448 
L 1018.376904 245.19744 
L 1019.290909 245.64096 
L 1020.204914 246.74976 
L 1021.118919 245.19744 
L 1022.032924 245.4192 
L 1022.946929 245.4192 
L 1023.860934 245.64096 
L 1024.774939 242.97984 
L 1025.688943 242.31456 
L 1027.516953 246.08448 
L 1028.430958 244.3104 
L 1029.344963 243.42336 
L 1030.258968 243.86688 
L 1031.172973 244.08864 
L 1032.086978 243.86688 
L 1033.000983 242.31456 
L 1033.914988 241.87104 
L 1034.828993 242.97984 
L 1035.742998 243.2016 
L 1036.657002 241.64928 
L 1037.571007 241.20576 
L 1038.485012 240.984 
L 1039.399017 242.97984 
L 1040.313022 243.86688 
L 1041.227027 242.75808 
L 1042.141032 242.75808 
L 1043.055037 242.97984 
L 1043.969042 240.76224 
L 1044.883047 242.75808 
L 1045.797052 240.984 
L 1046.711057 240.984 
L 1048.539066 243.64512 
L 1049.453071 241.87104 
L 1050.367076 241.20576 
L 1052.195086 240.76224 
L 1053.109091 241.20576 
L 1054.023096 241.20576 
L 1054.937101 242.31456 
L 1055.851106 241.20576 
L 1056.765111 239.43168 
L 1057.679115 242.97984 
L 1058.59312 241.20576 
L 1059.507125 240.984 
L 1060.42113 241.20576 
L 1061.335135 243.2016 
L 1062.24914 240.76224 
L 1063.163145 240.54048 
L 1064.07715 239.65344 
L 1064.991155 240.31872 
L 1065.90516 240.09696 
L 1066.819165 240.31872 
L 1067.73317 242.53632 
L 1068.647174 241.20576 
L 1069.561179 240.54048 
L 1070.475184 240.984 
L 1071.389189 240.54048 
L 1072.303194 240.31872 
L 1073.217199 239.8752 
L 1075.045209 239.8752 
L 1075.959214 241.20576 
L 1076.873219 239.65344 
L 1077.787224 240.31872 
L 1078.701229 239.65344 
L 1079.615233 239.20992 
L 1080.529238 240.31872 
L 1081.443243 239.65344 
L 1082.357248 239.8752 
L 1083.271253 238.7664 
L 1084.185258 239.65344 
L 1085.099263 238.32288 
L 1086.013268 239.20992 
L 1086.927273 238.54464 
L 1087.841278 238.10112 
L 1088.755283 238.32288 
L 1089.669287 239.43168 
L 1090.583292 240.31872 
L 1091.497297 238.98816 
L 1093.325307 239.43168 
L 1094.239312 239.43168 
L 1095.153317 238.98816 
L 1096.067322 237.21408 
L 1096.981327 236.32704 
L 1097.895332 238.54464 
L 1098.809337 237.43584 
L 1099.723342 237.21408 
L 1100.637346 237.43584 
L 1101.551351 237.43584 
L 1102.465356 237.21408 
L 1103.379361 236.32704 
L 1104.293366 237.21408 
L 1105.207371 236.77056 
L 1106.121376 236.99232 
L 1107.035381 238.7664 
L 1107.949386 237.43584 
L 1108.863391 237.6576 
L 1109.777396 235.88352 
L 1110.6914 238.10112 
L 1111.605405 235.88352 
L 1112.51941 236.10528 
L 1113.433415 237.6576 
L 1114.34742 237.6576 
L 1115.261425 237.43584 
L 1117.089435 237.87936 
L 1118.00344 237.21408 
L 1118.917445 236.77056 
L 1119.83145 236.10528 
L 1120.745455 236.5488 
L 1120.745455 236.5488 
" style="fill:none;stroke:#ff0000;stroke-linecap:square;stroke-width:1.5;"/>
   </g>
   <g id="line2d_15">
    <path clip-path="url(#pc20be9890d)" d="M 207.654545 471.39264 
L 208.56855 451.87776 
L 209.482555 434.80224 
L 210.39656 423.04896 
L 211.310565 414.17856 
L 213.138575 400.42944 
L 214.05258 395.55072 
L 215.88059 388.89792 
L 216.794595 386.2368 
L 217.7086 381.57984 
L 218.622604 378.91872 
L 221.364619 373.15296 
L 222.278624 372.26592 
L 223.192629 370.04832 
L 224.106634 368.93952 
L 225.020639 367.3872 
L 225.934644 366.50016 
L 226.848649 364.28256 
L 227.762654 363.83904 
L 228.676658 363.61728 
L 229.590663 362.73024 
L 230.504668 362.50848 
L 231.418673 361.8432 
L 232.332678 362.06496 
L 233.246683 361.62144 
L 234.160688 361.39968 
L 235.074693 360.7344 
L 236.902703 360.29088 
L 237.816708 359.84736 
L 239.644717 359.40384 
L 240.558722 359.6256 
L 241.472727 359.40384 
L 242.386732 358.96032 
L 243.300737 358.73856 
L 245.128747 358.73856 
L 246.042752 358.29504 
L 246.956757 358.07328 
L 250.612776 358.07328 
L 252.440786 357.62976 
L 253.354791 357.62976 
L 254.268796 357.408 
L 255.182801 356.96448 
L 258.838821 356.96448 
L 259.752826 356.74272 
L 260.66683 356.96448 
L 263.408845 356.96448 
L 264.32285 356.74272 
L 267.064865 356.74272 
L 267.97887 356.52096 
L 269.80688 356.52096 
L 270.720885 356.07744 
L 271.634889 356.07744 
L 272.548894 356.2992 
L 274.376904 355.85568 
L 277.118919 355.85568 
L 278.032924 355.63392 
L 281.688943 355.63392 
L 282.602948 355.41216 
L 284.430958 355.41216 
L 285.344963 355.1904 
L 286.258968 355.1904 
L 287.172973 355.41216 
L 295.399017 355.41216 
L 296.313022 355.63392 
L 297.227027 355.41216 
L 305.453071 355.41216 
L 306.367076 355.63392 
L 307.281081 355.41216 
L 310.937101 355.41216 
L 311.851106 355.1904 
L 312.765111 355.41216 
L 336.529238 355.41216 
L 337.443243 355.1904 
L 378.573464 355.1904 
L 379.487469 354.96864 
L 384.057494 354.96864 
L 384.971499 355.1904 
L 399.595577 355.1904 
L 400.509582 354.96864 
L 405.079607 354.96864 
L 405.993612 354.74688 
L 864.824079 354.74688 
L 865.738084 354.52512 
L 987.300737 354.52512 
L 988.214742 354.30336 
L 1120.745455 354.30336 
L 1120.745455 354.30336 
" style="fill:none;stroke:#008000;stroke-linecap:square;stroke-width:1.5;"/>
   </g>
   <g id="patch_3">
    <path d="M 162 512.64 
L 162 69.12 
" style="fill:none;stroke:#000000;stroke-linecap:square;stroke-linejoin:miter;stroke-width:0.8;"/>
   </g>
   <g id="patch_4">
    <path d="M 162 512.64 
L 1166.4 512.64 
" style="fill:none;stroke:#000000;stroke-linecap:square;stroke-linejoin:miter;stroke-width:0.8;"/>
   </g>
   <g id="legend_1">
    <g id="patch_5">
     <path d="M 1018.784375 502.64 
L 1152.4 502.64 
Q 1156.4 502.64 1156.4 498.64 
L 1156.4 412.57125 
Q 1156.4 408.57125 1152.4 408.57125 
L 1018.784375 408.57125 
Q 1014.784375 408.57125 1014.784375 412.57125 
L 1014.784375 498.64 
Q 1014.784375 502.64 1018.784375 502.64 
z
" style="fill:#ffffff;opacity:0.8;stroke:#cccccc;stroke-linejoin:miter;"/>
    </g>
    <g id="line2d_16">
     <path d="M 1022.784375 424.768125 
L 1062.784375 424.768125 
" style="fill:none;stroke:#0000ff;stroke-linecap:square;stroke-width:1.5;"/>
    </g>
    <g id="line2d_17"/>
    <g id="text_15">
     <!-- $\varepsilon=0.1$ -->
     <g transform="translate(1078.784375 431.768125)scale(0.2 -0.2)">
      <defs>
       <path d="M 2.6875 10.40625 
Q 2.6875 13.140625 3.875 15.71875 
Q 5.078125 18.3125 7 20.359375 
Q 8.9375 22.40625 11.53125 24.03125 
Q 7.71875 26.65625 7.71875 30.8125 
Q 7.71875 35.25 11.421875 38.59375 
Q 15.140625 41.9375 20.5 43.625 
Q 25.875 45.3125 30.171875 45.3125 
Q 31.984375 45.3125 35.03125 44.5 
Q 38.09375 43.703125 40.375 42.375 
Q 42.671875 41.0625 42.671875 39.5 
Q 42.671875 38.328125 41.765625 37.421875 
Q 40.875 36.53125 39.796875 36.53125 
Q 39.359375 36.53125 37.578125 37.578125 
Q 35.796875 38.625 33.78125 39.453125 
Q 31.78125 40.28125 29.390625 40.28125 
Q 25.78125 40.28125 21.453125 39.421875 
Q 17.140625 38.578125 13.859375 36.453125 
Q 10.59375 34.328125 10.59375 30.90625 
Q 10.59375 27.640625 14.3125 25.390625 
Q 18.5 27.296875 22.90625 27.296875 
Q 30.71875 27.296875 30.71875 24.515625 
Q 30.71875 22.3125 28.046875 21.703125 
Q 25.390625 21.09375 21.921875 21.09375 
Q 17.234375 21.09375 14.203125 22.515625 
Q 10.890625 20.75 8.296875 17.578125 
Q 5.71875 14.40625 5.71875 10.984375 
Q 5.71875 7.765625 7.890625 5.953125 
Q 10.0625 4.15625 13.234375 3.46875 
Q 16.40625 2.78125 19.578125 2.78125 
Q 25.09375 2.78125 29.34375 3.96875 
Q 33.59375 5.171875 35.5 8.984375 
Q 35.796875 9.625 36.625 9.625 
Q 37.703125 9.28125 37.703125 8.296875 
Q 37.703125 8.203125 37.40625 7.328125 
Q 35.796875 4.15625 32.84375 2 
Q 29.890625 -0.140625 26.25 -1.171875 
Q 22.609375 -2.203125 18.796875 -2.203125 
Q 12.59375 -2.203125 7.640625 1.109375 
Q 2.6875 4.4375 2.6875 10.40625 
z
M 18.109375 24.03125 
Q 19.875 23.6875 22.125 23.6875 
Q 26.515625 23.6875 27.59375 24.3125 
Q 26.21875 24.703125 22.796875 24.703125 
Q 20.3125 24.703125 18.109375 24.03125 
z
" id="Cmmi10-34"/>
       <path d="M 7.515625 13.28125 
Q 6.6875 13.28125 6.140625 13.90625 
Q 5.609375 14.546875 5.609375 15.28125 
Q 5.609375 16.109375 6.140625 16.6875 
Q 6.6875 17.28125 7.515625 17.28125 
L 70.3125 17.28125 
Q 71.046875 17.28125 71.578125 16.6875 
Q 72.125 16.109375 72.125 15.28125 
Q 72.125 14.546875 71.578125 13.90625 
Q 71.046875 13.28125 70.3125 13.28125 
z
M 7.515625 32.71875 
Q 6.6875 32.71875 6.140625 33.296875 
Q 5.609375 33.890625 5.609375 34.71875 
Q 5.609375 35.453125 6.140625 36.078125 
Q 6.6875 36.71875 7.515625 36.71875 
L 70.3125 36.71875 
Q 71.046875 36.71875 71.578125 36.078125 
Q 72.125 35.453125 72.125 34.71875 
Q 72.125 33.890625 71.578125 33.296875 
Q 71.046875 32.71875 70.3125 32.71875 
z
" id="Cmr10-61"/>
       <path d="M 25 -2.203125 
Q 12.75 -2.203125 8.328125 7.875 
Q 3.90625 17.96875 3.90625 31.890625 
Q 3.90625 40.578125 5.484375 48.234375 
Q 7.078125 55.90625 11.78125 61.25 
Q 16.5 66.609375 25 66.609375 
Q 31.59375 66.609375 35.78125 63.375 
Q 39.984375 60.15625 42.1875 55.046875 
Q 44.390625 49.953125 45.1875 44.109375 
Q 46 38.28125 46 31.890625 
Q 46 23.296875 44.40625 15.796875 
Q 42.828125 8.296875 38.1875 3.046875 
Q 33.546875 -2.203125 25 -2.203125 
z
M 25 0.390625 
Q 30.5625 0.390625 33.296875 6.09375 
Q 36.03125 11.8125 36.671875 18.75 
Q 37.3125 25.6875 37.3125 33.5 
Q 37.3125 41.015625 36.671875 47.359375 
Q 36.03125 53.71875 33.3125 58.859375 
Q 30.609375 64.015625 25 64.015625 
Q 19.34375 64.015625 16.609375 58.828125 
Q 13.875 53.65625 13.234375 47.328125 
Q 12.59375 41.015625 12.59375 33.5 
Q 12.59375 27.9375 12.859375 23 
Q 13.140625 18.0625 14.3125 12.8125 
Q 15.484375 7.5625 18.09375 3.96875 
Q 20.703125 0.390625 25 0.390625 
z
" id="Cmr10-48"/>
       <path d="M 8.40625 5.515625 
Q 8.40625 7.765625 10.0625 9.375 
Q 11.71875 10.984375 13.921875 10.984375 
Q 15.28125 10.984375 16.59375 10.25 
Q 17.921875 9.515625 18.65625 8.203125 
Q 19.390625 6.890625 19.390625 5.515625 
Q 19.390625 3.328125 17.765625 1.65625 
Q 16.15625 0 13.921875 0 
Q 11.71875 0 10.0625 1.65625 
Q 8.40625 3.328125 8.40625 5.515625 
z
" id="Cmmi10-58"/>
       <path d="M 9.28125 0 
L 9.28125 3.515625 
Q 21.78125 3.515625 21.78125 6.6875 
L 21.78125 59.1875 
Q 16.609375 56.6875 8.6875 56.6875 
L 8.6875 60.203125 
Q 20.953125 60.203125 27.203125 66.609375 
L 28.609375 66.609375 
Q 28.953125 66.609375 29.265625 66.328125 
Q 29.59375 66.0625 29.59375 65.71875 
L 29.59375 6.6875 
Q 29.59375 3.515625 42.09375 3.515625 
L 42.09375 0 
z
" id="Cmr10-49"/>
      </defs>
      <use transform="translate(0 0.390625)" xlink:href="#Cmmi10-34"/>
      <use transform="translate(64.140625 0.390625)" xlink:href="#Cmr10-61"/>
      <use transform="translate(159.384766 0.390625)" xlink:href="#Cmr10-48"/>
      <use transform="translate(209.384766 0.390625)" xlink:href="#Cmmi10-58"/>
      <use transform="translate(237.070312 0.390625)" xlink:href="#Cmr10-49"/>
     </g>
    </g>
    <g id="line2d_18">
     <path d="M 1022.784375 454.124375 
L 1062.784375 454.124375 
" style="fill:none;stroke:#ff0000;stroke-linecap:square;stroke-width:1.5;"/>
    </g>
    <g id="line2d_19"/>
    <g id="text_16">
     <!-- $\varepsilon=0.01$ -->
     <g transform="translate(1078.784375 461.124375)scale(0.2 -0.2)">
      <use transform="translate(0 0.390625)" xlink:href="#Cmmi10-34"/>
      <use transform="translate(64.140625 0.390625)" xlink:href="#Cmr10-61"/>
      <use transform="translate(159.384766 0.390625)" xlink:href="#Cmr10-48"/>
      <use transform="translate(209.384766 0.390625)" xlink:href="#Cmmi10-58"/>
      <use transform="translate(237.070312 0.390625)" xlink:href="#Cmr10-48"/>
      <use transform="translate(287.070312 0.390625)" xlink:href="#Cmr10-49"/>
     </g>
    </g>
    <g id="line2d_20">
     <path d="M 1022.784375 483.480625 
L 1062.784375 483.480625 
" style="fill:none;stroke:#008000;stroke-linecap:square;stroke-width:1.5;"/>
    </g>
    <g id="line2d_21"/>
    <g id="text_17">
     <!-- greedy -->
     <g transform="translate(1078.784375 490.480625)scale(0.2 -0.2)">
      <defs>
       <path d="M 45.40625 27.984375 
Q 45.40625 37.75 41.375 43.109375 
Q 37.359375 48.484375 30.078125 48.484375 
Q 22.859375 48.484375 18.828125 43.109375 
Q 14.796875 37.75 14.796875 27.984375 
Q 14.796875 18.265625 18.828125 12.890625 
Q 22.859375 7.515625 30.078125 7.515625 
Q 37.359375 7.515625 41.375 12.890625 
Q 45.40625 18.265625 45.40625 27.984375 
z
M 54.390625 6.78125 
Q 54.390625 -7.171875 48.1875 -13.984375 
Q 42 -20.796875 29.203125 -20.796875 
Q 24.46875 -20.796875 20.265625 -20.09375 
Q 16.0625 -19.390625 12.109375 -17.921875 
L 12.109375 -9.1875 
Q 16.0625 -11.328125 19.921875 -12.34375 
Q 23.78125 -13.375 27.78125 -13.375 
Q 36.625 -13.375 41.015625 -8.765625 
Q 45.40625 -4.15625 45.40625 5.171875 
L 45.40625 9.625 
Q 42.625 4.78125 38.28125 2.390625 
Q 33.9375 0 27.875 0 
Q 17.828125 0 11.671875 7.65625 
Q 5.515625 15.328125 5.515625 27.984375 
Q 5.515625 40.671875 11.671875 48.328125 
Q 17.828125 56 27.875 56 
Q 33.9375 56 38.28125 53.609375 
Q 42.625 51.21875 45.40625 46.390625 
L 45.40625 54.6875 
L 54.390625 54.6875 
z
" id="DejaVuSans-103"/>
       <path d="M 41.109375 46.296875 
Q 39.59375 47.171875 37.8125 47.578125 
Q 36.03125 48 33.890625 48 
Q 26.265625 48 22.1875 43.046875 
Q 18.109375 38.09375 18.109375 28.8125 
L 18.109375 0 
L 9.078125 0 
L 9.078125 54.6875 
L 18.109375 54.6875 
L 18.109375 46.1875 
Q 20.953125 51.171875 25.484375 53.578125 
Q 30.03125 56 36.53125 56 
Q 37.453125 56 38.578125 55.875 
Q 39.703125 55.765625 41.0625 55.515625 
z
" id="DejaVuSans-114"/>
       <path d="M 45.40625 46.390625 
L 45.40625 75.984375 
L 54.390625 75.984375 
L 54.390625 0 
L 45.40625 0 
L 45.40625 8.203125 
Q 42.578125 3.328125 38.25 0.953125 
Q 33.9375 -1.421875 27.875 -1.421875 
Q 17.96875 -1.421875 11.734375 6.484375 
Q 5.515625 14.40625 5.515625 27.296875 
Q 5.515625 40.1875 11.734375 48.09375 
Q 17.96875 56 27.875 56 
Q 33.9375 56 38.25 53.625 
Q 42.578125 51.265625 45.40625 46.390625 
z
M 14.796875 27.296875 
Q 14.796875 17.390625 18.875 11.75 
Q 22.953125 6.109375 30.078125 6.109375 
Q 37.203125 6.109375 41.296875 11.75 
Q 45.40625 17.390625 45.40625 27.296875 
Q 45.40625 37.203125 41.296875 42.84375 
Q 37.203125 48.484375 30.078125 48.484375 
Q 22.953125 48.484375 18.875 42.84375 
Q 14.796875 37.203125 14.796875 27.296875 
z
" id="DejaVuSans-100"/>
       <path d="M 32.171875 -5.078125 
Q 28.375 -14.84375 24.75 -17.8125 
Q 21.140625 -20.796875 15.09375 -20.796875 
L 7.90625 -20.796875 
L 7.90625 -13.28125 
L 13.1875 -13.28125 
Q 16.890625 -13.28125 18.9375 -11.515625 
Q 21 -9.765625 23.484375 -3.21875 
L 25.09375 0.875 
L 2.984375 54.6875 
L 12.5 54.6875 
L 29.59375 11.921875 
L 46.6875 54.6875 
L 56.203125 54.6875 
z
" id="DejaVuSans-121"/>
      </defs>
      <use xlink:href="#DejaVuSans-103"/>
      <use x="63.476562" xlink:href="#DejaVuSans-114"/>
      <use x="102.339844" xlink:href="#DejaVuSans-101"/>
      <use x="163.863281" xlink:href="#DejaVuSans-101"/>
      <use x="225.386719" xlink:href="#DejaVuSans-100"/>
      <use x="288.863281" xlink:href="#DejaVuSans-121"/>
     </g>
    </g>
   </g>
  </g>
 </g>
 <defs>
  <clipPath id="pc20be9890d">
   <rect height="443.52" width="1004.4" x="162" y="69.12"/>
  </clipPath>
 </defs>
</svg>
