<?xml version="1.0" encoding="utf-8" standalone="no"?>
<!DOCTYPE svg PUBLIC "-//W3C//DTD SVG 1.1//EN"
  "http://www.w3.org/Graphics/SVG/1.1/DTD/svg11.dtd">
<!-- Created with matplotlib (https://matplotlib.org/) -->
<svg height="576pt" version="1.1" viewBox="0 0 1296 576" width="1296pt" xmlns="http://www.w3.org/2000/svg" xmlns:xlink="http://www.w3.org/1999/xlink">
 <metadata>
  <rdf:RDF xmlns:cc="http://creativecommons.org/ns#" xmlns:dc="http://purl.org/dc/elements/1.1/" xmlns:rdf="http://www.w3.org/1999/02/22-rdf-syntax-ns#">
   <cc:Work>
    <dc:type rdf:resource="http://purl.org/dc/dcmitype/StillImage"/>
    <dc:date>2021-01-29T22:33:37.055547</dc:date>
    <dc:format>image/svg+xml</dc:format>
    <dc:creator>
     <cc:Agent>
      <dc:title>Matplotlib v3.3.3, https://matplotlib.org/</dc:title>
     </cc:Agent>
    </dc:creator>
   </cc:Work>
  </rdf:RDF>
 </metadata>
 <defs>
  <style type="text/css">*{stroke-linecap:butt;stroke-linejoin:round;}</style>
 </defs>
 <g id="figure_1">
  <g id="patch_1">
   <path d="M 0 576 
L 1296 576 
L 1296 0 
L 0 0 
z
" style="fill:#ffffff;"/>
  </g>
  <g id="axes_1">
   <g id="patch_2">
    <path d="M 162 512.64 
L 1166.4 512.64 
L 1166.4 69.12 
L 162 69.12 
z
" style="fill:#ffffff;"/>
   </g>
   <g id="matplotlib.axis_1">
    <g id="xtick_1">
     <g id="line2d_1">
      <defs>
       <path d="M 0 0 
L 0 3.5 
" id="m0f1ba69877" style="stroke:#000000;stroke-width:0.8;"/>
      </defs>
      <g>
       <use style="stroke:#000000;stroke-width:0.8;" x="207.654545" xlink:href="#m0f1ba69877" y="512.64"/>
      </g>
     </g>
     <g id="text_1">
      <!-- 0 -->
      <g transform="translate(201.292045 534.836875)scale(0.2 -0.2)">
       <defs>
        <path d="M 31.78125 66.40625 
Q 24.171875 66.40625 20.328125 58.90625 
Q 16.5 51.421875 16.5 36.375 
Q 16.5 21.390625 20.328125 13.890625 
Q 24.171875 6.390625 31.78125 6.390625 
Q 39.453125 6.390625 43.28125 13.890625 
Q 47.125 21.390625 47.125 36.375 
Q 47.125 51.421875 43.28125 58.90625 
Q 39.453125 66.40625 31.78125 66.40625 
z
M 31.78125 74.21875 
Q 44.046875 74.21875 50.515625 64.515625 
Q 56.984375 54.828125 56.984375 36.375 
Q 56.984375 17.96875 50.515625 8.265625 
Q 44.046875 -1.421875 31.78125 -1.421875 
Q 19.53125 -1.421875 13.0625 8.265625 
Q 6.59375 17.96875 6.59375 36.375 
Q 6.59375 54.828125 13.0625 64.515625 
Q 19.53125 74.21875 31.78125 74.21875 
z
" id="DejaVuSans-48"/>
       </defs>
       <use xlink:href="#DejaVuSans-48"/>
      </g>
     </g>
    </g>
    <g id="xtick_2">
     <g id="line2d_2">
      <g>
       <use style="stroke:#000000;stroke-width:0.8;" x="390.455528" xlink:href="#m0f1ba69877" y="512.64"/>
      </g>
     </g>
     <g id="text_2">
      <!-- 200 -->
      <g transform="translate(371.368028 534.836875)scale(0.2 -0.2)">
       <defs>
        <path d="M 19.1875 8.296875 
L 53.609375 8.296875 
L 53.609375 0 
L 7.328125 0 
L 7.328125 8.296875 
Q 12.9375 14.109375 22.625 23.890625 
Q 32.328125 33.6875 34.8125 36.53125 
Q 39.546875 41.84375 41.421875 45.53125 
Q 43.3125 49.21875 43.3125 52.78125 
Q 43.3125 58.59375 39.234375 62.25 
Q 35.15625 65.921875 28.609375 65.921875 
Q 23.96875 65.921875 18.8125 64.3125 
Q 13.671875 62.703125 7.8125 59.421875 
L 7.8125 69.390625 
Q 13.765625 71.78125 18.9375 73 
Q 24.125 74.21875 28.421875 74.21875 
Q 39.75 74.21875 46.484375 68.546875 
Q 53.21875 62.890625 53.21875 53.421875 
Q 53.21875 48.921875 51.53125 44.890625 
Q 49.859375 40.875 45.40625 35.40625 
Q 44.1875 33.984375 37.640625 27.21875 
Q 31.109375 20.453125 19.1875 8.296875 
z
" id="DejaVuSans-50"/>
       </defs>
       <use xlink:href="#DejaVuSans-50"/>
       <use x="63.623047" xlink:href="#DejaVuSans-48"/>
       <use x="127.246094" xlink:href="#DejaVuSans-48"/>
      </g>
     </g>
    </g>
    <g id="xtick_3">
     <g id="line2d_3">
      <g>
       <use style="stroke:#000000;stroke-width:0.8;" x="573.256511" xlink:href="#m0f1ba69877" y="512.64"/>
      </g>
     </g>
     <g id="text_3">
      <!-- 400 -->
      <g transform="translate(554.169011 534.836875)scale(0.2 -0.2)">
       <defs>
        <path d="M 37.796875 64.3125 
L 12.890625 25.390625 
L 37.796875 25.390625 
z
M 35.203125 72.90625 
L 47.609375 72.90625 
L 47.609375 25.390625 
L 58.015625 25.390625 
L 58.015625 17.1875 
L 47.609375 17.1875 
L 47.609375 0 
L 37.796875 0 
L 37.796875 17.1875 
L 4.890625 17.1875 
L 4.890625 26.703125 
z
" id="DejaVuSans-52"/>
       </defs>
       <use xlink:href="#DejaVuSans-52"/>
       <use x="63.623047" xlink:href="#DejaVuSans-48"/>
       <use x="127.246094" xlink:href="#DejaVuSans-48"/>
      </g>
     </g>
    </g>
    <g id="xtick_4">
     <g id="line2d_4">
      <g>
       <use style="stroke:#000000;stroke-width:0.8;" x="756.057494" xlink:href="#m0f1ba69877" y="512.64"/>
      </g>
     </g>
     <g id="text_4">
      <!-- 600 -->
      <g transform="translate(736.969994 534.836875)scale(0.2 -0.2)">
       <defs>
        <path d="M 33.015625 40.375 
Q 26.375 40.375 22.484375 35.828125 
Q 18.609375 31.296875 18.609375 23.390625 
Q 18.609375 15.53125 22.484375 10.953125 
Q 26.375 6.390625 33.015625 6.390625 
Q 39.65625 6.390625 43.53125 10.953125 
Q 47.40625 15.53125 47.40625 23.390625 
Q 47.40625 31.296875 43.53125 35.828125 
Q 39.65625 40.375 33.015625 40.375 
z
M 52.59375 71.296875 
L 52.59375 62.3125 
Q 48.875 64.0625 45.09375 64.984375 
Q 41.3125 65.921875 37.59375 65.921875 
Q 27.828125 65.921875 22.671875 59.328125 
Q 17.53125 52.734375 16.796875 39.40625 
Q 19.671875 43.65625 24.015625 45.921875 
Q 28.375 48.1875 33.59375 48.1875 
Q 44.578125 48.1875 50.953125 41.515625 
Q 57.328125 34.859375 57.328125 23.390625 
Q 57.328125 12.15625 50.6875 5.359375 
Q 44.046875 -1.421875 33.015625 -1.421875 
Q 20.359375 -1.421875 13.671875 8.265625 
Q 6.984375 17.96875 6.984375 36.375 
Q 6.984375 53.65625 15.1875 63.9375 
Q 23.390625 74.21875 37.203125 74.21875 
Q 40.921875 74.21875 44.703125 73.484375 
Q 48.484375 72.75 52.59375 71.296875 
z
" id="DejaVuSans-54"/>
       </defs>
       <use xlink:href="#DejaVuSans-54"/>
       <use x="63.623047" xlink:href="#DejaVuSans-48"/>
       <use x="127.246094" xlink:href="#DejaVuSans-48"/>
      </g>
     </g>
    </g>
    <g id="xtick_5">
     <g id="line2d_5">
      <g>
       <use style="stroke:#000000;stroke-width:0.8;" x="938.858477" xlink:href="#m0f1ba69877" y="512.64"/>
      </g>
     </g>
     <g id="text_5">
      <!-- 800 -->
      <g transform="translate(919.770977 534.836875)scale(0.2 -0.2)">
       <defs>
        <path d="M 31.78125 34.625 
Q 24.75 34.625 20.71875 30.859375 
Q 16.703125 27.09375 16.703125 20.515625 
Q 16.703125 13.921875 20.71875 10.15625 
Q 24.75 6.390625 31.78125 6.390625 
Q 38.8125 6.390625 42.859375 10.171875 
Q 46.921875 13.96875 46.921875 20.515625 
Q 46.921875 27.09375 42.890625 30.859375 
Q 38.875 34.625 31.78125 34.625 
z
M 21.921875 38.8125 
Q 15.578125 40.375 12.03125 44.71875 
Q 8.5 49.078125 8.5 55.328125 
Q 8.5 64.0625 14.71875 69.140625 
Q 20.953125 74.21875 31.78125 74.21875 
Q 42.671875 74.21875 48.875 69.140625 
Q 55.078125 64.0625 55.078125 55.328125 
Q 55.078125 49.078125 51.53125 44.71875 
Q 48 40.375 41.703125 38.8125 
Q 48.828125 37.15625 52.796875 32.3125 
Q 56.78125 27.484375 56.78125 20.515625 
Q 56.78125 9.90625 50.3125 4.234375 
Q 43.84375 -1.421875 31.78125 -1.421875 
Q 19.734375 -1.421875 13.25 4.234375 
Q 6.78125 9.90625 6.78125 20.515625 
Q 6.78125 27.484375 10.78125 32.3125 
Q 14.796875 37.15625 21.921875 38.8125 
z
M 18.3125 54.390625 
Q 18.3125 48.734375 21.84375 45.5625 
Q 25.390625 42.390625 31.78125 42.390625 
Q 38.140625 42.390625 41.71875 45.5625 
Q 45.3125 48.734375 45.3125 54.390625 
Q 45.3125 60.0625 41.71875 63.234375 
Q 38.140625 66.40625 31.78125 66.40625 
Q 25.390625 66.40625 21.84375 63.234375 
Q 18.3125 60.0625 18.3125 54.390625 
z
" id="DejaVuSans-56"/>
       </defs>
       <use xlink:href="#DejaVuSans-56"/>
       <use x="63.623047" xlink:href="#DejaVuSans-48"/>
       <use x="127.246094" xlink:href="#DejaVuSans-48"/>
      </g>
     </g>
    </g>
    <g id="xtick_6">
     <g id="line2d_6">
      <g>
       <use style="stroke:#000000;stroke-width:0.8;" x="1121.659459" xlink:href="#m0f1ba69877" y="512.64"/>
      </g>
     </g>
     <g id="text_6">
      <!-- 1000 -->
      <g transform="translate(1096.209459 534.836875)scale(0.2 -0.2)">
       <defs>
        <path d="M 12.40625 8.296875 
L 28.515625 8.296875 
L 28.515625 63.921875 
L 10.984375 60.40625 
L 10.984375 69.390625 
L 28.421875 72.90625 
L 38.28125 72.90625 
L 38.28125 8.296875 
L 54.390625 8.296875 
L 54.390625 0 
L 12.40625 0 
z
" id="DejaVuSans-49"/>
       </defs>
       <use xlink:href="#DejaVuSans-49"/>
       <use x="63.623047" xlink:href="#DejaVuSans-48"/>
       <use x="127.246094" xlink:href="#DejaVuSans-48"/>
       <use x="190.869141" xlink:href="#DejaVuSans-48"/>
      </g>
     </g>
    </g>
    <g id="text_7">
     <!-- Steps -->
     <g transform="translate(636.220313 558.193125)scale(0.2 -0.2)">
      <defs>
       <path d="M 53.515625 70.515625 
L 53.515625 60.890625 
Q 47.90625 63.578125 42.921875 64.890625 
Q 37.9375 66.21875 33.296875 66.21875 
Q 25.25 66.21875 20.875 63.09375 
Q 16.5 59.96875 16.5 54.203125 
Q 16.5 49.359375 19.40625 46.890625 
Q 22.3125 44.4375 30.421875 42.921875 
L 36.375 41.703125 
Q 47.40625 39.59375 52.65625 34.296875 
Q 57.90625 29 57.90625 20.125 
Q 57.90625 9.515625 50.796875 4.046875 
Q 43.703125 -1.421875 29.984375 -1.421875 
Q 24.8125 -1.421875 18.96875 -0.25 
Q 13.140625 0.921875 6.890625 3.21875 
L 6.890625 13.375 
Q 12.890625 10.015625 18.65625 8.296875 
Q 24.421875 6.59375 29.984375 6.59375 
Q 38.421875 6.59375 43.015625 9.90625 
Q 47.609375 13.234375 47.609375 19.390625 
Q 47.609375 24.75 44.3125 27.78125 
Q 41.015625 30.8125 33.5 32.328125 
L 27.484375 33.5 
Q 16.453125 35.6875 11.515625 40.375 
Q 6.59375 45.0625 6.59375 53.421875 
Q 6.59375 63.09375 13.40625 68.65625 
Q 20.21875 74.21875 32.171875 74.21875 
Q 37.3125 74.21875 42.625 73.28125 
Q 47.953125 72.359375 53.515625 70.515625 
z
" id="DejaVuSans-83"/>
       <path d="M 18.3125 70.21875 
L 18.3125 54.6875 
L 36.8125 54.6875 
L 36.8125 47.703125 
L 18.3125 47.703125 
L 18.3125 18.015625 
Q 18.3125 11.328125 20.140625 9.421875 
Q 21.96875 7.515625 27.59375 7.515625 
L 36.8125 7.515625 
L 36.8125 0 
L 27.59375 0 
Q 17.1875 0 13.234375 3.875 
Q 9.28125 7.765625 9.28125 18.015625 
L 9.28125 47.703125 
L 2.6875 47.703125 
L 2.6875 54.6875 
L 9.28125 54.6875 
L 9.28125 70.21875 
z
" id="DejaVuSans-116"/>
       <path d="M 56.203125 29.59375 
L 56.203125 25.203125 
L 14.890625 25.203125 
Q 15.484375 15.921875 20.484375 11.0625 
Q 25.484375 6.203125 34.421875 6.203125 
Q 39.59375 6.203125 44.453125 7.46875 
Q 49.3125 8.734375 54.109375 11.28125 
L 54.109375 2.78125 
Q 49.265625 0.734375 44.1875 -0.34375 
Q 39.109375 -1.421875 33.890625 -1.421875 
Q 20.796875 -1.421875 13.15625 6.1875 
Q 5.515625 13.8125 5.515625 26.8125 
Q 5.515625 40.234375 12.765625 48.109375 
Q 20.015625 56 32.328125 56 
Q 43.359375 56 49.78125 48.890625 
Q 56.203125 41.796875 56.203125 29.59375 
z
M 47.21875 32.234375 
Q 47.125 39.59375 43.09375 43.984375 
Q 39.0625 48.390625 32.421875 48.390625 
Q 24.90625 48.390625 20.390625 44.140625 
Q 15.875 39.890625 15.1875 32.171875 
z
" id="DejaVuSans-101"/>
       <path d="M 18.109375 8.203125 
L 18.109375 -20.796875 
L 9.078125 -20.796875 
L 9.078125 54.6875 
L 18.109375 54.6875 
L 18.109375 46.390625 
Q 20.953125 51.265625 25.265625 53.625 
Q 29.59375 56 35.59375 56 
Q 45.5625 56 51.78125 48.09375 
Q 58.015625 40.1875 58.015625 27.296875 
Q 58.015625 14.40625 51.78125 6.484375 
Q 45.5625 -1.421875 35.59375 -1.421875 
Q 29.59375 -1.421875 25.265625 0.953125 
Q 20.953125 3.328125 18.109375 8.203125 
z
M 48.6875 27.296875 
Q 48.6875 37.203125 44.609375 42.84375 
Q 40.53125 48.484375 33.40625 48.484375 
Q 26.265625 48.484375 22.1875 42.84375 
Q 18.109375 37.203125 18.109375 27.296875 
Q 18.109375 17.390625 22.1875 11.75 
Q 26.265625 6.109375 33.40625 6.109375 
Q 40.53125 6.109375 44.609375 11.75 
Q 48.6875 17.390625 48.6875 27.296875 
z
" id="DejaVuSans-112"/>
       <path d="M 44.28125 53.078125 
L 44.28125 44.578125 
Q 40.484375 46.53125 36.375 47.5 
Q 32.28125 48.484375 27.875 48.484375 
Q 21.1875 48.484375 17.84375 46.4375 
Q 14.5 44.390625 14.5 40.28125 
Q 14.5 37.15625 16.890625 35.375 
Q 19.28125 33.59375 26.515625 31.984375 
L 29.59375 31.296875 
Q 39.15625 29.25 43.1875 25.515625 
Q 47.21875 21.78125 47.21875 15.09375 
Q 47.21875 7.46875 41.1875 3.015625 
Q 35.15625 -1.421875 24.609375 -1.421875 
Q 20.21875 -1.421875 15.453125 -0.5625 
Q 10.6875 0.296875 5.421875 2 
L 5.421875 11.28125 
Q 10.40625 8.6875 15.234375 7.390625 
Q 20.0625 6.109375 24.8125 6.109375 
Q 31.15625 6.109375 34.5625 8.28125 
Q 37.984375 10.453125 37.984375 14.40625 
Q 37.984375 18.0625 35.515625 20.015625 
Q 33.0625 21.96875 24.703125 23.78125 
L 21.578125 24.515625 
Q 13.234375 26.265625 9.515625 29.90625 
Q 5.8125 33.546875 5.8125 39.890625 
Q 5.8125 47.609375 11.28125 51.796875 
Q 16.75 56 26.8125 56 
Q 31.78125 56 36.171875 55.265625 
Q 40.578125 54.546875 44.28125 53.078125 
z
" id="DejaVuSans-115"/>
      </defs>
      <use xlink:href="#DejaVuSans-83"/>
      <use x="63.476562" xlink:href="#DejaVuSans-116"/>
      <use x="102.685547" xlink:href="#DejaVuSans-101"/>
      <use x="164.208984" xlink:href="#DejaVuSans-112"/>
      <use x="227.685547" xlink:href="#DejaVuSans-115"/>
     </g>
    </g>
   </g>
   <g id="matplotlib.axis_2">
    <g id="ytick_1">
     <g id="line2d_7">
      <defs>
       <path d="M 0 0 
L -3.5 0 
" id="me09e45e3e5" style="stroke:#000000;stroke-width:0.8;"/>
      </defs>
      <g>
       <use style="stroke:#000000;stroke-width:0.8;" x="162" xlink:href="#me09e45e3e5" y="484.882488"/>
      </g>
     </g>
     <g id="text_8">
      <!-- 0.0 -->
      <g transform="translate(123.19375 492.480926)scale(0.2 -0.2)">
       <defs>
        <path d="M 10.6875 12.40625 
L 21 12.40625 
L 21 0 
L 10.6875 0 
z
" id="DejaVuSans-46"/>
       </defs>
       <use xlink:href="#DejaVuSans-48"/>
       <use x="63.623047" xlink:href="#DejaVuSans-46"/>
       <use x="95.410156" xlink:href="#DejaVuSans-48"/>
      </g>
     </g>
    </g>
    <g id="ytick_2">
     <g id="line2d_8">
      <g>
       <use style="stroke:#000000;stroke-width:0.8;" x="162" xlink:href="#me09e45e3e5" y="433.325942"/>
      </g>
     </g>
     <g id="text_9">
      <!-- 0.2 -->
      <g transform="translate(123.19375 440.924379)scale(0.2 -0.2)">
       <use xlink:href="#DejaVuSans-48"/>
       <use x="63.623047" xlink:href="#DejaVuSans-46"/>
       <use x="95.410156" xlink:href="#DejaVuSans-50"/>
      </g>
     </g>
    </g>
    <g id="ytick_3">
     <g id="line2d_9">
      <g>
       <use style="stroke:#000000;stroke-width:0.8;" x="162" xlink:href="#me09e45e3e5" y="381.769396"/>
      </g>
     </g>
     <g id="text_10">
      <!-- 0.4 -->
      <g transform="translate(123.19375 389.367833)scale(0.2 -0.2)">
       <use xlink:href="#DejaVuSans-48"/>
       <use x="63.623047" xlink:href="#DejaVuSans-46"/>
       <use x="95.410156" xlink:href="#DejaVuSans-52"/>
      </g>
     </g>
    </g>
    <g id="ytick_4">
     <g id="line2d_10">
      <g>
       <use style="stroke:#000000;stroke-width:0.8;" x="162" xlink:href="#me09e45e3e5" y="330.212849"/>
      </g>
     </g>
     <g id="text_11">
      <!-- 0.6 -->
      <g transform="translate(123.19375 337.811287)scale(0.2 -0.2)">
       <use xlink:href="#DejaVuSans-48"/>
       <use x="63.623047" xlink:href="#DejaVuSans-46"/>
       <use x="95.410156" xlink:href="#DejaVuSans-54"/>
      </g>
     </g>
    </g>
    <g id="ytick_5">
     <g id="line2d_11">
      <g>
       <use style="stroke:#000000;stroke-width:0.8;" x="162" xlink:href="#me09e45e3e5" y="278.656303"/>
      </g>
     </g>
     <g id="text_12">
      <!-- 0.8 -->
      <g transform="translate(123.19375 286.25474)scale(0.2 -0.2)">
       <use xlink:href="#DejaVuSans-48"/>
       <use x="63.623047" xlink:href="#DejaVuSans-46"/>
       <use x="95.410156" xlink:href="#DejaVuSans-56"/>
      </g>
     </g>
    </g>
    <g id="ytick_6">
     <g id="line2d_12">
      <g>
       <use style="stroke:#000000;stroke-width:0.8;" x="162" xlink:href="#me09e45e3e5" y="227.099757"/>
      </g>
     </g>
     <g id="text_13">
      <!-- 1.0 -->
      <g transform="translate(123.19375 234.698194)scale(0.2 -0.2)">
       <use xlink:href="#DejaVuSans-49"/>
       <use x="63.623047" xlink:href="#DejaVuSans-46"/>
       <use x="95.410156" xlink:href="#DejaVuSans-48"/>
      </g>
     </g>
    </g>
    <g id="ytick_7">
     <g id="line2d_13">
      <g>
       <use style="stroke:#000000;stroke-width:0.8;" x="162" xlink:href="#me09e45e3e5" y="175.54321"/>
      </g>
     </g>
     <g id="text_14">
      <!-- 1.2 -->
      <g transform="translate(123.19375 183.141648)scale(0.2 -0.2)">
       <use xlink:href="#DejaVuSans-49"/>
       <use x="63.623047" xlink:href="#DejaVuSans-46"/>
       <use x="95.410156" xlink:href="#DejaVuSans-50"/>
      </g>
     </g>
    </g>
    <g id="ytick_8">
     <g id="line2d_14">
      <g>
       <use style="stroke:#000000;stroke-width:0.8;" x="162" xlink:href="#me09e45e3e5" y="123.986664"/>
      </g>
     </g>
     <g id="text_15">
      <!-- 1.4 -->
      <g transform="translate(123.19375 131.585101)scale(0.2 -0.2)">
       <use xlink:href="#DejaVuSans-49"/>
       <use x="63.623047" xlink:href="#DejaVuSans-46"/>
       <use x="95.410156" xlink:href="#DejaVuSans-52"/>
      </g>
     </g>
    </g>
    <g id="ytick_9">
     <g id="line2d_15">
      <g>
       <use style="stroke:#000000;stroke-width:0.8;" x="162" xlink:href="#me09e45e3e5" y="72.430118"/>
      </g>
     </g>
     <g id="text_16">
      <!-- 1.6 -->
      <g transform="translate(123.19375 80.028555)scale(0.2 -0.2)">
       <use xlink:href="#DejaVuSans-49"/>
       <use x="63.623047" xlink:href="#DejaVuSans-46"/>
       <use x="95.410156" xlink:href="#DejaVuSans-54"/>
      </g>
     </g>
    </g>
    <g id="text_17">
     <!-- Average reward -->
     <g transform="translate(115.034375 369.753438)rotate(-90)scale(0.2 -0.2)">
      <defs>
       <path d="M 34.1875 63.1875 
L 20.796875 26.90625 
L 47.609375 26.90625 
z
M 28.609375 72.90625 
L 39.796875 72.90625 
L 67.578125 0 
L 57.328125 0 
L 50.6875 18.703125 
L 17.828125 18.703125 
L 11.1875 0 
L 0.78125 0 
z
" id="DejaVuSans-65"/>
       <path d="M 2.984375 54.6875 
L 12.5 54.6875 
L 29.59375 8.796875 
L 46.6875 54.6875 
L 56.203125 54.6875 
L 35.6875 0 
L 23.484375 0 
z
" id="DejaVuSans-118"/>
       <path d="M 41.109375 46.296875 
Q 39.59375 47.171875 37.8125 47.578125 
Q 36.03125 48 33.890625 48 
Q 26.265625 48 22.1875 43.046875 
Q 18.109375 38.09375 18.109375 28.8125 
L 18.109375 0 
L 9.078125 0 
L 9.078125 54.6875 
L 18.109375 54.6875 
L 18.109375 46.1875 
Q 20.953125 51.171875 25.484375 53.578125 
Q 30.03125 56 36.53125 56 
Q 37.453125 56 38.578125 55.875 
Q 39.703125 55.765625 41.0625 55.515625 
z
" id="DejaVuSans-114"/>
       <path d="M 34.28125 27.484375 
Q 23.390625 27.484375 19.1875 25 
Q 14.984375 22.515625 14.984375 16.5 
Q 14.984375 11.71875 18.140625 8.90625 
Q 21.296875 6.109375 26.703125 6.109375 
Q 34.1875 6.109375 38.703125 11.40625 
Q 43.21875 16.703125 43.21875 25.484375 
L 43.21875 27.484375 
z
M 52.203125 31.203125 
L 52.203125 0 
L 43.21875 0 
L 43.21875 8.296875 
Q 40.140625 3.328125 35.546875 0.953125 
Q 30.953125 -1.421875 24.3125 -1.421875 
Q 15.921875 -1.421875 10.953125 3.296875 
Q 6 8.015625 6 15.921875 
Q 6 25.140625 12.171875 29.828125 
Q 18.359375 34.515625 30.609375 34.515625 
L 43.21875 34.515625 
L 43.21875 35.40625 
Q 43.21875 41.609375 39.140625 45 
Q 35.0625 48.390625 27.6875 48.390625 
Q 23 48.390625 18.546875 47.265625 
Q 14.109375 46.140625 10.015625 43.890625 
L 10.015625 52.203125 
Q 14.9375 54.109375 19.578125 55.046875 
Q 24.21875 56 28.609375 56 
Q 40.484375 56 46.34375 49.84375 
Q 52.203125 43.703125 52.203125 31.203125 
z
" id="DejaVuSans-97"/>
       <path d="M 45.40625 27.984375 
Q 45.40625 37.75 41.375 43.109375 
Q 37.359375 48.484375 30.078125 48.484375 
Q 22.859375 48.484375 18.828125 43.109375 
Q 14.796875 37.75 14.796875 27.984375 
Q 14.796875 18.265625 18.828125 12.890625 
Q 22.859375 7.515625 30.078125 7.515625 
Q 37.359375 7.515625 41.375 12.890625 
Q 45.40625 18.265625 45.40625 27.984375 
z
M 54.390625 6.78125 
Q 54.390625 -7.171875 48.1875 -13.984375 
Q 42 -20.796875 29.203125 -20.796875 
Q 24.46875 -20.796875 20.265625 -20.09375 
Q 16.0625 -19.390625 12.109375 -17.921875 
L 12.109375 -9.1875 
Q 16.0625 -11.328125 19.921875 -12.34375 
Q 23.78125 -13.375 27.78125 -13.375 
Q 36.625 -13.375 41.015625 -8.765625 
Q 45.40625 -4.15625 45.40625 5.171875 
L 45.40625 9.625 
Q 42.625 4.78125 38.28125 2.390625 
Q 33.9375 0 27.875 0 
Q 17.828125 0 11.671875 7.65625 
Q 5.515625 15.328125 5.515625 27.984375 
Q 5.515625 40.671875 11.671875 48.328125 
Q 17.828125 56 27.875 56 
Q 33.9375 56 38.28125 53.609375 
Q 42.625 51.21875 45.40625 46.390625 
L 45.40625 54.6875 
L 54.390625 54.6875 
z
" id="DejaVuSans-103"/>
       <path id="DejaVuSans-32"/>
       <path d="M 4.203125 54.6875 
L 13.1875 54.6875 
L 24.421875 12.015625 
L 35.59375 54.6875 
L 46.1875 54.6875 
L 57.421875 12.015625 
L 68.609375 54.6875 
L 77.59375 54.6875 
L 63.28125 0 
L 52.6875 0 
L 40.921875 44.828125 
L 29.109375 0 
L 18.5 0 
z
" id="DejaVuSans-119"/>
       <path d="M 45.40625 46.390625 
L 45.40625 75.984375 
L 54.390625 75.984375 
L 54.390625 0 
L 45.40625 0 
L 45.40625 8.203125 
Q 42.578125 3.328125 38.25 0.953125 
Q 33.9375 -1.421875 27.875 -1.421875 
Q 17.96875 -1.421875 11.734375 6.484375 
Q 5.515625 14.40625 5.515625 27.296875 
Q 5.515625 40.1875 11.734375 48.09375 
Q 17.96875 56 27.875 56 
Q 33.9375 56 38.25 53.625 
Q 42.578125 51.265625 45.40625 46.390625 
z
M 14.796875 27.296875 
Q 14.796875 17.390625 18.875 11.75 
Q 22.953125 6.109375 30.078125 6.109375 
Q 37.203125 6.109375 41.296875 11.75 
Q 45.40625 17.390625 45.40625 27.296875 
Q 45.40625 37.203125 41.296875 42.84375 
Q 37.203125 48.484375 30.078125 48.484375 
Q 22.953125 48.484375 18.875 42.84375 
Q 14.796875 37.203125 14.796875 27.296875 
z
" id="DejaVuSans-100"/>
      </defs>
      <use xlink:href="#DejaVuSans-65"/>
      <use x="62.533203" xlink:href="#DejaVuSans-118"/>
      <use x="121.712891" xlink:href="#DejaVuSans-101"/>
      <use x="183.236328" xlink:href="#DejaVuSans-114"/>
      <use x="224.349609" xlink:href="#DejaVuSans-97"/>
      <use x="285.628906" xlink:href="#DejaVuSans-103"/>
      <use x="349.105469" xlink:href="#DejaVuSans-101"/>
      <use x="410.628906" xlink:href="#DejaVuSans-32"/>
      <use x="442.416016" xlink:href="#DejaVuSans-114"/>
      <use x="481.279297" xlink:href="#DejaVuSans-101"/>
      <use x="542.802734" xlink:href="#DejaVuSans-119"/>
      <use x="624.589844" xlink:href="#DejaVuSans-97"/>
      <use x="685.869141" xlink:href="#DejaVuSans-114"/>
      <use x="725.232422" xlink:href="#DejaVuSans-100"/>
     </g>
    </g>
   </g>
   <g id="line2d_16">
    <path clip-path="url(#pa2426e1490)" d="M 207.654545 478.080451 
L 208.56855 483.529673 
L 209.482555 474.95886 
L 210.39656 479.186376 
L 211.310565 492.48 
L 212.22457 489.145662 
L 213.138575 451.75455 
L 214.05258 471.780641 
L 214.966585 471.154658 
L 215.88059 479.439409 
L 216.794595 455.860716 
L 217.7086 475.481647 
L 218.622604 447.048607 
L 219.536609 471.056758 
L 220.450614 456.925932 
L 221.364619 474.108647 
L 222.278624 461.40147 
L 223.192629 472.379847 
L 225.020639 450.643468 
L 225.934644 357.97692 
L 226.848649 253.661206 
L 227.762654 211.367506 
L 228.676658 199.123953 
L 229.590663 200.976055 
L 230.504668 224.66408 
L 231.418673 219.033984 
L 232.332678 224.577504 
L 233.246683 222.386754 
L 234.160688 229.146894 
L 235.074693 228.184853 
L 235.988698 226.265655 
L 236.902703 213.947096 
L 237.816708 229.164177 
L 238.730713 220.334992 
L 239.644717 225.612649 
L 240.558722 224.708122 
L 241.472727 218.711486 
L 242.386732 234.228551 
L 243.300737 219.712473 
L 244.214742 220.161927 
L 245.128747 217.683827 
L 246.042752 213.58667 
L 246.956757 222.221734 
L 247.870762 208.692014 
L 248.784767 209.122614 
L 249.698771 208.614228 
L 250.612776 218.110694 
L 251.526781 200.849612 
L 252.440786 221.735655 
L 253.354791 204.607004 
L 254.268796 195.714124 
L 256.096806 212.31065 
L 257.010811 206.95228 
L 257.924816 210.260027 
L 258.838821 199.374829 
L 259.752826 210.831107 
L 260.66683 206.133318 
L 261.580835 212.274157 
L 262.49484 196.036114 
L 263.408845 186.821698 
L 264.32285 184.724607 
L 265.236855 187.949736 
L 266.15086 177.572032 
L 267.064865 190.688405 
L 267.97887 177.130486 
L 268.892875 191.79097 
L 269.80688 187.455788 
L 270.720885 184.175516 
L 271.634889 179.364567 
L 272.548894 184.382471 
L 273.462899 184.911767 
L 274.376904 184.491734 
L 275.290909 182.532068 
L 276.204914 186.47971 
L 277.118919 183.560614 
L 278.032924 181.862782 
L 278.946929 183.821836 
L 280.774939 178.964349 
L 281.688943 178.688116 
L 282.602948 177.989094 
L 283.516953 176.448387 
L 285.344963 178.995285 
L 286.258968 180.618568 
L 287.172973 173.791862 
L 289.000983 177.363301 
L 289.914988 174.296771 
L 290.828993 180.937238 
L 291.742998 181.10728 
L 292.657002 173.486331 
L 293.571007 174.852342 
L 294.485012 185.354815 
L 295.399017 164.956731 
L 296.313022 164.058403 
L 297.227027 166.248546 
L 298.141032 173.487622 
L 299.055037 174.148458 
L 299.969042 167.197802 
L 300.883047 166.160709 
L 301.797052 180.105216 
L 302.711057 156.700178 
L 303.625061 155.250701 
L 304.539066 170.697618 
L 305.453071 156.686323 
L 306.367076 157.341646 
L 307.281081 156.158165 
L 308.195086 161.382703 
L 309.109091 157.796189 
L 310.023096 155.254543 
L 310.937101 164.990727 
L 311.851106 162.988303 
L 312.765111 173.670651 
L 314.59312 157.751543 
L 315.507125 170.406446 
L 316.42113 155.312885 
L 317.335135 164.407935 
L 318.24914 155.773034 
L 319.163145 170.41638 
L 320.07715 153.655198 
L 320.991155 155.340331 
L 321.90516 168.788932 
L 322.819165 145.909183 
L 323.73317 152.002778 
L 324.647174 147.194723 
L 325.561179 156.338339 
L 326.475184 164.159105 
L 327.389189 148.05198 
L 328.303194 160.445231 
L 329.217199 154.348372 
L 330.131204 149.039811 
L 331.959214 158.080303 
L 332.873219 159.26569 
L 333.787224 142.045642 
L 334.701229 150.227929 
L 335.615233 136.490972 
L 336.529238 142.639806 
L 337.443243 144.223549 
L 338.357248 151.663857 
L 339.271253 144.854582 
L 340.185258 149.554816 
L 341.099263 146.811386 
L 342.013268 146.282668 
L 342.927273 139.932758 
L 343.841278 135.276427 
L 344.755283 146.28464 
L 345.669287 144.838047 
L 346.583292 146.258789 
L 347.497297 148.763048 
L 348.411302 135.917259 
L 349.325307 142.339568 
L 350.239312 157.227365 
L 351.153317 138.77401 
L 352.067322 142.511467 
L 352.981327 142.366505 
L 354.809337 149.874368 
L 355.723342 142.651383 
L 356.637346 149.531408 
L 357.551351 144.587654 
L 358.465356 151.642098 
L 359.379361 137.97688 
L 360.293366 145.871666 
L 361.207371 155.485687 
L 362.121376 160.221654 
L 363.035381 150.102615 
L 364.863391 157.064956 
L 365.777396 147.304428 
L 366.6914 148.979966 
L 367.605405 151.386163 
L 368.51941 140.660876 
L 369.433415 150.268992 
L 370.34742 145.981196 
L 371.261425 160.079425 
L 372.17543 147.864414 
L 373.089435 150.941066 
L 374.00344 138.158218 
L 374.917445 144.195827 
L 375.83145 145.999045 
L 376.745455 149.730658 
L 377.659459 144.651248 
L 378.573464 142.22256 
L 379.487469 147.801611 
L 380.401474 144.977358 
L 381.315479 144.365761 
L 382.229484 151.905381 
L 383.143489 145.479896 
L 384.057494 146.180419 
L 384.971499 127.487851 
L 385.885504 138.632659 
L 386.799509 139.732617 
L 387.713514 137.041949 
L 388.627518 149.956686 
L 389.541523 150.048437 
L 390.455528 143.949344 
L 391.369533 137.027079 
L 392.283538 136.471427 
L 393.197543 132.345243 
L 394.111548 139.78154 
L 395.025553 141.991422 
L 396.853563 128.634396 
L 397.767568 128.654608 
L 398.681572 131.255377 
L 399.595577 128.78619 
L 400.509582 138.727127 
L 401.423587 132.686919 
L 402.337592 128.881597 
L 403.251597 132.251399 
L 404.165602 133.684387 
L 405.079607 126.87452 
L 405.993612 133.895973 
L 406.907617 144.721327 
L 407.821622 131.050478 
L 408.735627 147.00343 
L 409.649631 140.906198 
L 410.563636 142.545815 
L 411.477641 134.30228 
L 412.391646 140.333016 
L 413.305651 137.276107 
L 414.219656 132.843723 
L 415.133661 143.487097 
L 416.047666 118.921021 
L 416.961671 129.694547 
L 417.875676 137.240568 
L 418.789681 130.365924 
L 419.703686 141.092526 
L 420.61769 138.332036 
L 421.531695 135.013181 
L 422.4457 122.981306 
L 423.359705 133.742754 
L 424.27371 142.946532 
L 425.187715 137.029522 
L 426.10172 133.811946 
L 427.015725 124.92782 
L 427.92973 126.088497 
L 428.843735 133.705494 
L 429.75774 127.854502 
L 430.671744 132.700152 
L 431.585749 125.826946 
L 432.499754 130.30764 
L 433.413759 124.282759 
L 434.327764 122.102856 
L 435.241769 123.756395 
L 436.155774 132.320544 
L 437.069779 125.943061 
L 437.983784 128.850921 
L 438.897789 136.621981 
L 439.811794 131.17071 
L 440.725799 133.475209 
L 441.639803 131.249653 
L 442.553808 135.959528 
L 443.467813 136.029559 
L 444.381818 123.344391 
L 445.295823 121.555138 
L 446.209828 133.309959 
L 447.123833 131.070457 
L 448.037838 132.833234 
L 448.951843 126.177985 
L 449.865848 128.526376 
L 450.779853 128.239126 
L 451.693857 128.991667 
L 452.607862 133.575138 
L 453.521867 117.668363 
L 454.435872 129.662508 
L 455.349877 131.735663 
L 456.263882 133.064114 
L 457.177887 135.381622 
L 458.091892 129.036522 
L 459.005897 129.896864 
L 459.919902 140.661299 
L 460.833907 117.339461 
L 461.747912 122.125791 
L 462.661916 133.916762 
L 463.575921 132.094965 
L 464.489926 137.458639 
L 465.403931 132.671184 
L 466.317936 130.102508 
L 467.231941 122.805686 
L 468.145946 118.676377 
L 469.059951 132.328974 
L 469.973956 114.426384 
L 470.887961 121.592361 
L 471.801966 124.069804 
L 472.715971 125.952532 
L 473.629975 129.305104 
L 474.54398 128.806703 
L 475.457985 124.736269 
L 476.37199 130.641614 
L 477.285995 119.321215 
L 478.2 124.026891 
L 479.114005 124.0182 
L 480.02801 133.595675 
L 480.942015 130.841836 
L 482.770025 120.042294 
L 484.598034 131.781661 
L 485.512039 127.480725 
L 486.426044 127.647696 
L 487.340049 125.06096 
L 489.168059 128.984826 
L 490.082064 128.49528 
L 490.996069 116.502806 
L 491.910074 118.640464 
L 492.824079 122.740129 
L 493.738084 120.641971 
L 494.652088 119.751251 
L 495.566093 120.90719 
L 496.480098 127.071086 
L 497.394103 117.301252 
L 498.308108 122.382278 
L 499.222113 111.654395 
L 500.136118 121.476614 
L 501.050123 113.164833 
L 501.964128 122.857143 
L 502.878133 126.575429 
L 503.792138 128.038819 
L 504.706143 121.822658 
L 505.620147 121.959658 
L 506.534152 133.220892 
L 507.448157 115.972821 
L 508.362162 114.985092 
L 509.276167 125.392786 
L 510.190172 118.302299 
L 511.104177 114.054428 
L 512.018182 126.831479 
L 512.932187 107.002812 
L 513.846192 130.380427 
L 514.760197 127.196557 
L 515.674201 122.378213 
L 516.588206 119.491712 
L 517.502211 121.160705 
L 518.416216 125.564036 
L 519.330221 123.799297 
L 520.244226 113.430437 
L 521.158231 122.901038 
L 522.072236 124.431436 
L 522.986241 118.007667 
L 523.900246 122.883498 
L 524.814251 119.778395 
L 525.728256 119.085891 
L 526.64226 117.602118 
L 527.556265 125.835246 
L 528.47027 124.371895 
L 529.384275 107.088883 
L 530.29828 119.745643 
L 531.212285 122.55516 
L 532.12629 123.826408 
L 533.040295 127.561872 
L 533.9543 117.475352 
L 534.868305 118.722116 
L 535.78231 114.303099 
L 536.696314 126.518724 
L 537.610319 123.268485 
L 538.524324 127.247741 
L 539.438329 124.408398 
L 540.352334 118.814205 
L 541.266339 115.004375 
L 542.180344 118.342692 
L 543.094349 113.399829 
L 544.008354 112.893568 
L 544.922359 115.578912 
L 545.836364 114.358161 
L 546.750369 112.310565 
L 547.664373 115.889094 
L 548.578378 118.854511 
L 549.492383 124.285367 
L 550.406388 117.615582 
L 551.320393 114.127 
L 552.234398 117.401234 
L 553.148403 121.238983 
L 554.062408 112.892867 
L 554.976413 107.600917 
L 555.890418 110.496724 
L 556.804423 106.6238 
L 557.718428 120.756134 
L 558.632432 115.506173 
L 559.546437 119.659163 
L 560.460442 117.444338 
L 561.374447 116.059986 
L 562.288452 126.373266 
L 563.202457 124.083377 
L 564.116462 119.007357 
L 565.030467 105.838027 
L 565.944472 123.641208 
L 566.858477 117.455608 
L 567.772482 116.961266 
L 568.686486 116.251296 
L 569.600491 118.088152 
L 570.514496 117.671264 
L 571.428501 118.700084 
L 572.342506 117.096529 
L 573.256511 120.808347 
L 574.170516 128.533057 
L 575.084521 113.41279 
L 575.998526 122.280895 
L 576.912531 113.838476 
L 577.826536 123.538887 
L 578.740541 123.466412 
L 579.654545 121.418184 
L 580.56855 128.826062 
L 581.482555 117.344416 
L 582.39656 112.612062 
L 583.310565 124.617794 
L 584.22457 112.690289 
L 586.05258 117.936839 
L 586.966585 117.835313 
L 587.88059 125.529741 
L 588.794595 116.094049 
L 589.7086 112.737086 
L 590.622604 116.902045 
L 591.536609 106.119301 
L 592.450614 118.85655 
L 593.364619 108.474445 
L 594.278624 107.948057 
L 595.192629 109.957451 
L 596.106634 120.80812 
L 597.020639 118.374459 
L 597.934644 105.998353 
L 598.848649 121.101302 
L 599.762654 108.982963 
L 600.676658 115.361876 
L 601.590663 107.671315 
L 602.504668 111.603775 
L 603.418673 117.618645 
L 604.332678 116.824141 
L 605.246683 107.883889 
L 606.160688 126.432494 
L 607.074693 111.973138 
L 607.988698 109.660488 
L 608.902703 123.297809 
L 609.816708 121.143089 
L 610.730713 112.19572 
L 611.644717 108.979142 
L 612.558722 107.83031 
L 613.472727 121.493119 
L 614.386732 116.470861 
L 615.300737 118.15045 
L 616.214742 112.699632 
L 617.128747 110.070345 
L 618.042752 112.153187 
L 618.956757 111.576761 
L 619.870762 116.511402 
L 620.784767 119.492997 
L 621.698771 107.904251 
L 622.612776 121.700825 
L 623.526781 100.647307 
L 624.440786 119.295339 
L 625.354791 116.733438 
L 626.268796 111.822787 
L 627.182801 116.378347 
L 628.096806 111.481051 
L 629.010811 112.932249 
L 629.924816 122.750074 
L 630.838821 117.929135 
L 631.752826 124.400561 
L 632.66683 119.342259 
L 633.580835 108.025539 
L 634.49484 112.379171 
L 635.408845 108.707339 
L 636.32285 109.328641 
L 637.236855 123.431178 
L 638.15086 114.126688 
L 639.064865 108.65588 
L 639.97887 114.520102 
L 640.892875 116.898933 
L 641.80688 109.823225 
L 642.720885 112.307949 
L 643.634889 107.780266 
L 644.548894 119.423134 
L 645.462899 116.334401 
L 646.376904 109.45101 
L 647.290909 105.54147 
L 648.204914 107.55708 
L 649.118919 107.8832 
L 650.032924 122.227496 
L 650.946929 119.024253 
L 651.860934 114.513487 
L 652.774939 108.737994 
L 653.688943 117.860571 
L 654.602948 107.068976 
L 655.516953 102.998527 
L 656.430958 105.076933 
L 657.344963 114.483184 
L 658.258968 107.641414 
L 659.172973 111.71767 
L 660.086978 108.995684 
L 661.000983 101.486785 
L 662.828993 114.973992 
L 663.742998 117.952376 
L 664.657002 116.812362 
L 665.571007 117.113092 
L 666.485012 110.805803 
L 667.399017 110.90418 
L 668.313022 125.254117 
L 669.227027 112.892801 
L 670.141032 107.391999 
L 671.055037 114.141272 
L 671.969042 105.53972 
L 672.883047 111.207431 
L 673.797052 110.899198 
L 674.711057 106.276487 
L 675.625061 109.162639 
L 676.539066 111.425612 
L 677.453071 117.009314 
L 678.367076 108.943969 
L 680.195086 119.123533 
L 681.109091 117.830527 
L 682.023096 105.335701 
L 682.937101 110.063589 
L 683.851106 116.092779 
L 684.765111 108.953165 
L 685.679115 110.853146 
L 686.59312 117.826252 
L 687.507125 114.221712 
L 688.42113 109.02441 
L 689.335135 118.980832 
L 690.24914 107.5777 
L 692.07715 112.19434 
L 692.991155 105.591469 
L 693.90516 115.332501 
L 694.819165 104.432533 
L 695.73317 116.103743 
L 696.647174 103.67432 
L 697.561179 113.232713 
L 698.475184 112.140965 
L 699.389189 115.015578 
L 700.303194 114.03399 
L 701.217199 108.490035 
L 702.131204 113.308613 
L 703.045209 99.078224 
L 703.959214 117.066277 
L 704.873219 108.189435 
L 705.787224 110.325118 
L 706.701229 104.352567 
L 707.615233 113.530523 
L 708.529238 109.754819 
L 709.443243 114.956102 
L 710.357248 117.484158 
L 711.271253 112.327366 
L 712.185258 112.717103 
L 713.099263 117.978506 
L 714.013268 106.43129 
L 714.927273 109.010661 
L 715.841278 118.274216 
L 716.755283 106.394329 
L 717.669287 107.650171 
L 718.583292 106.218077 
L 719.497297 101.954094 
L 720.411302 117.189368 
L 721.325307 108.386553 
L 722.239312 105.20773 
L 723.153317 114.976384 
L 724.067322 113.138171 
L 724.981327 120.153727 
L 725.895332 98.959107 
L 726.809337 122.050373 
L 727.723342 121.596912 
L 728.637346 112.071164 
L 729.551351 107.805955 
L 730.465356 105.029467 
L 731.379361 109.213031 
L 732.293366 104.161219 
L 733.207371 109.630146 
L 734.121376 105.307429 
L 735.035381 120.679294 
L 735.949386 108.747275 
L 736.863391 108.476708 
L 737.777396 110.863614 
L 738.6914 112.277469 
L 739.605405 116.853556 
L 740.51941 104.253803 
L 741.433415 109.628442 
L 742.34742 112.302562 
L 743.261425 96.929804 
L 744.17543 111.072979 
L 745.089435 104.666975 
L 746.00344 115.932301 
L 746.917445 106.546661 
L 747.83145 104.439823 
L 748.745455 112.312036 
L 749.659459 114.209756 
L 750.573464 107.685659 
L 751.487469 117.842138 
L 752.401474 107.290181 
L 753.315479 111.638761 
L 754.229484 104.275121 
L 755.143489 102.647351 
L 756.057494 117.413745 
L 756.971499 108.800976 
L 757.885504 105.652809 
L 758.799509 105.919984 
L 759.713514 102.760186 
L 760.627518 109.576705 
L 761.541523 120.301897 
L 762.455528 101.035962 
L 763.369533 108.751477 
L 764.283538 114.751292 
L 765.197543 108.461273 
L 766.111548 111.831426 
L 767.025553 95.924301 
L 767.939558 118.608976 
L 768.853563 108.389545 
L 769.767568 114.998112 
L 770.681572 107.05098 
L 771.595577 115.018761 
L 772.509582 109.432265 
L 773.423587 100.653078 
L 774.337592 101.34384 
L 775.251597 115.562329 
L 776.165602 102.7621 
L 777.079607 110.946961 
L 777.993612 104.083437 
L 778.907617 108.314736 
L 779.821622 105.308416 
L 780.735627 113.928299 
L 781.649631 108.263617 
L 782.563636 114.729358 
L 783.477641 109.996599 
L 784.391646 106.634211 
L 785.305651 118.241105 
L 786.219656 106.451448 
L 787.133661 111.20534 
L 788.047666 109.968885 
L 788.961671 110.956317 
L 789.875676 102.928233 
L 790.789681 119.339195 
L 791.703686 105.630718 
L 792.61769 113.901201 
L 793.531695 108.516228 
L 794.4457 108.788071 
L 795.359705 101.274726 
L 796.27371 114.228135 
L 797.187715 106.01881 
L 798.10172 101.776752 
L 799.015725 105.12569 
L 799.92973 104.852086 
L 800.843735 108.8932 
L 801.75774 100.561356 
L 802.671744 118.282687 
L 803.585749 112.420287 
L 804.499754 108.161286 
L 805.413759 108.50086 
L 806.327764 97.287775 
L 807.241769 120.951249 
L 808.155774 103.483256 
L 809.069779 97.571771 
L 809.983784 113.077554 
L 810.897789 109.991575 
L 811.811794 115.205628 
L 812.725799 111.236191 
L 813.639803 112.306486 
L 814.553808 99.489189 
L 815.467813 101.222661 
L 816.381818 100.004236 
L 817.295823 95.825583 
L 818.209828 104.546148 
L 819.123833 106.333469 
L 820.037838 113.004195 
L 821.865848 107.410372 
L 822.779853 106.779697 
L 823.693857 111.087179 
L 824.607862 104.750872 
L 825.521867 106.033205 
L 826.435872 112.889898 
L 827.349877 113.72564 
L 828.263882 105.430551 
L 829.177887 105.351718 
L 830.091892 106.515351 
L 831.005897 96.339264 
L 831.919902 108.760018 
L 832.833907 102.504739 
L 833.747912 107.837647 
L 834.661916 104.06053 
L 835.575921 115.711455 
L 836.489926 118.735419 
L 837.403931 108.120866 
L 838.317936 108.222091 
L 840.145946 112.157122 
L 841.059951 113.585153 
L 841.973956 115.234972 
L 842.887961 107.258382 
L 843.801966 106.879428 
L 844.715971 120.058658 
L 845.629975 118.524477 
L 846.54398 105.690868 
L 847.457985 97.645609 
L 848.37199 112.306911 
L 849.285995 116.966348 
L 850.2 111.165624 
L 851.114005 111.243314 
L 852.02801 110.600286 
L 852.942015 100.656294 
L 853.85602 109.479854 
L 854.770025 111.993649 
L 855.684029 101.746472 
L 856.598034 104.282848 
L 857.512039 107.253726 
L 858.426044 104.345519 
L 859.340049 97.86292 
L 860.254054 102.609011 
L 861.168059 111.089331 
L 862.082064 109.147442 
L 862.996069 114.934709 
L 863.910074 109.772951 
L 864.824079 97.759371 
L 865.738084 104.23444 
L 866.652088 104.548588 
L 867.566093 114.400185 
L 868.480098 107.463655 
L 869.394103 106.972572 
L 870.308108 96.99659 
L 871.222113 109.258797 
L 872.136118 109.031342 
L 873.050123 117.767996 
L 873.964128 104.889237 
L 874.878133 101.00646 
L 875.792138 109.728277 
L 876.706143 99.595784 
L 877.620147 101.561025 
L 878.534152 99.542122 
L 879.448157 100.054102 
L 880.362162 109.236137 
L 881.276167 104.579385 
L 882.190172 113.176749 
L 883.104177 105.002205 
L 884.018182 106.071448 
L 884.932187 99.150249 
L 885.846192 98.110966 
L 886.760197 117.873736 
L 887.674201 116.405779 
L 888.588206 97.684152 
L 889.502211 116.974278 
L 890.416216 106.060519 
L 891.330221 106.737416 
L 892.244226 108.59096 
L 893.158231 104.130053 
L 894.072236 109.68124 
L 894.986241 93.143551 
L 895.900246 109.93761 
L 896.814251 100.595158 
L 897.728256 114.005245 
L 898.64226 99.625449 
L 899.556265 101.898986 
L 900.47027 97.273298 
L 901.384275 103.320734 
L 902.29828 101.264863 
L 903.212285 115.762886 
L 904.12629 111.30446 
L 905.040295 108.613481 
L 905.9543 115.515955 
L 906.868305 106.211402 
L 907.78231 116.736705 
L 908.696314 106.847693 
L 909.610319 104.218101 
L 910.524324 111.839984 
L 911.438329 111.699758 
L 912.352334 110.218734 
L 913.266339 106.104483 
L 914.180344 104.211791 
L 915.094349 105.731653 
L 916.008354 110.041203 
L 916.922359 101.374864 
L 917.836364 103.804544 
L 918.750369 109.763261 
L 919.664373 109.403495 
L 920.578378 109.489894 
L 921.492383 114.116077 
L 922.406388 104.53329 
L 923.320393 113.163231 
L 924.234398 105.996894 
L 925.148403 108.386906 
L 926.062408 111.880413 
L 926.976413 102.406379 
L 927.890418 102.609852 
L 929.718428 117.957581 
L 932.460442 99.593062 
L 933.374447 109.534121 
L 934.288452 102.788311 
L 935.202457 97.894426 
L 936.116462 110.448293 
L 937.030467 100.631922 
L 937.944472 112.048015 
L 938.858477 97.819501 
L 939.772482 104.995652 
L 940.686486 119.739166 
L 941.600491 116.028407 
L 942.514496 109.706626 
L 943.428501 110.473372 
L 945.256511 98.437215 
L 946.170516 110.124302 
L 947.084521 112.200699 
L 947.998526 100.486322 
L 948.912531 109.96029 
L 949.826536 106.058625 
L 951.654545 102.51761 
L 952.56855 107.979048 
L 953.482555 112.39132 
L 954.39656 101.499559 
L 955.310565 110.70233 
L 956.22457 110.196065 
L 957.138575 96.831361 
L 958.05258 102.230728 
L 958.966585 104.999622 
L 959.88059 102.31482 
L 960.794595 101.754796 
L 961.7086 99.777491 
L 962.622604 101.146949 
L 963.536609 107.926899 
L 964.450614 110.444078 
L 965.364619 105.285635 
L 966.278624 101.333915 
L 967.192629 105.782644 
L 968.106634 111.578055 
L 969.020639 102.907916 
L 969.934644 102.323511 
L 970.848649 110.330832 
L 971.762654 109.519925 
L 972.676658 100.300583 
L 973.590663 98.760069 
L 974.504668 103.486752 
L 975.418673 107.460906 
L 976.332678 109.737902 
L 977.246683 101.055929 
L 978.160688 105.015254 
L 979.074693 110.329721 
L 979.988698 102.560172 
L 980.902703 101.600765 
L 982.730713 107.470271 
L 983.644717 94.563231 
L 984.558722 118.236984 
L 986.386732 93.101036 
L 987.300737 107.409994 
L 988.214742 108.061498 
L 989.128747 113.917136 
L 990.042752 107.140544 
L 990.956757 104.978351 
L 991.870762 109.504805 
L 992.784767 115.165191 
L 993.698771 104.756955 
L 994.612776 105.814225 
L 995.526781 92.830289 
L 996.440786 106.974561 
L 997.354791 98.25928 
L 998.268796 114.952618 
L 999.182801 100.976871 
L 1000.096806 108.644143 
L 1001.010811 93.057121 
L 1001.924816 105.714895 
L 1002.838821 107.229686 
L 1003.752826 109.735608 
L 1004.66683 102.369172 
L 1005.580835 106.628089 
L 1006.49484 91.597551 
L 1007.408845 105.231365 
L 1008.32285 94.713622 
L 1009.236855 95.383991 
L 1010.15086 100.801832 
L 1011.064865 108.63758 
L 1011.97887 99.694311 
L 1012.892875 111.678132 
L 1013.80688 105.881562 
L 1014.720885 108.765421 
L 1015.634889 101.962928 
L 1016.548894 105.869952 
L 1017.462899 94.742343 
L 1019.290909 117.00949 
L 1020.204914 105.320574 
L 1021.118919 102.730981 
L 1022.032924 107.403976 
L 1023.860934 101.309647 
L 1024.774939 110.285063 
L 1025.688943 101.292464 
L 1026.602948 106.74573 
L 1027.516953 101.535561 
L 1028.430958 107.371302 
L 1029.344963 92.196175 
L 1030.258968 99.793996 
L 1031.172973 96.545778 
L 1032.086978 103.730921 
L 1033.000983 104.035388 
L 1033.914988 96.051408 
L 1034.828993 106.55652 
L 1035.742998 93.63672 
L 1036.657002 102.485379 
L 1037.571007 101.942354 
L 1038.485012 106.709609 
L 1039.399017 105.56193 
L 1040.313022 101.585708 
L 1041.227027 106.352084 
L 1042.141032 101.795982 
L 1043.055037 103.695126 
L 1043.969042 105.22827 
L 1044.883047 105.714182 
L 1045.797052 115.586327 
L 1047.625061 99.520506 
L 1048.539066 98.777012 
L 1049.453071 109.046122 
L 1050.367076 113.026263 
L 1051.281081 109.583147 
L 1052.195086 93.829632 
L 1053.109091 103.348984 
L 1054.023096 106.291519 
L 1054.937101 99.403192 
L 1055.851106 104.883655 
L 1056.765111 112.968227 
L 1057.679115 102.778764 
L 1058.59312 105.568234 
L 1059.507125 106.61825 
L 1060.42113 98.517532 
L 1061.335135 98.311329 
L 1062.24914 109.784306 
L 1063.163145 93.376995 
L 1064.07715 110.601481 
L 1064.991155 108.614768 
L 1065.90516 97.592996 
L 1066.819165 89.974208 
L 1068.647174 108.28571 
L 1069.561179 102.897839 
L 1070.475184 98.591822 
L 1071.389189 95.785719 
L 1072.303194 100.884814 
L 1073.217199 114.608728 
L 1074.131204 98.926115 
L 1075.045209 107.253888 
L 1075.959214 103.878505 
L 1076.873219 103.214996 
L 1077.787224 100.533098 
L 1078.701229 110.732312 
L 1080.529238 89.28 
L 1081.443243 104.229978 
L 1082.357248 104.614367 
L 1083.271253 101.623647 
L 1084.185258 100.948087 
L 1085.099263 104.053079 
L 1086.013268 104.494717 
L 1087.841278 92.779187 
L 1088.755283 93.803106 
L 1089.669287 101.342499 
L 1090.583292 96.25563 
L 1091.497297 102.272638 
L 1092.411302 100.457253 
L 1093.325307 110.590713 
L 1094.239312 104.117943 
L 1095.153317 112.522257 
L 1096.067322 110.884003 
L 1096.981327 93.520959 
L 1097.895332 101.42833 
L 1098.809337 97.10309 
L 1099.723342 96.941438 
L 1100.637346 110.885181 
L 1101.551351 92.779832 
L 1102.465356 102.661836 
L 1103.379361 106.365549 
L 1104.293366 102.299764 
L 1105.207371 95.898343 
L 1106.121376 102.856852 
L 1107.035381 102.767647 
L 1107.949386 104.408404 
L 1108.863391 97.091709 
L 1109.777396 107.143471 
L 1110.6914 99.546707 
L 1111.605405 99.134598 
L 1112.51941 103.439989 
L 1113.433415 111.301103 
L 1114.34742 108.363322 
L 1115.261425 110.246148 
L 1116.17543 108.99354 
L 1117.089435 99.231956 
L 1118.00344 115.092098 
L 1118.917445 100.579958 
L 1119.83145 107.10666 
L 1120.745455 110.523495 
L 1120.745455 110.523495 
" style="fill:none;stroke:#0000ff;stroke-linecap:square;stroke-width:1.5;"/>
   </g>
   <g id="line2d_17">
    <path clip-path="url(#pa2426e1490)" d="M 207.654545 490.567549 
L 208.56855 429.228156 
L 209.482555 399.105185 
L 210.39656 362.776127 
L 211.310565 341.92723 
L 212.22457 316.942261 
L 213.138575 312.479696 
L 214.05258 304.723166 
L 214.966585 282.684239 
L 215.88059 291.146829 
L 216.794595 279.792786 
L 217.7086 277.935251 
L 218.622604 274.928692 
L 219.536609 256.374225 
L 220.450614 266.925255 
L 221.364619 261.349219 
L 222.278624 257.25798 
L 223.192629 248.945476 
L 224.106634 246.290451 
L 225.020639 246.309855 
L 225.934644 251.384926 
L 226.848649 255.394997 
L 227.762654 239.941645 
L 228.676658 242.241872 
L 229.590663 234.514392 
L 230.504668 236.141373 
L 231.418673 247.507074 
L 232.332678 237.360429 
L 233.246683 240.626716 
L 234.160688 229.828906 
L 235.074693 239.220077 
L 235.988698 236.595967 
L 236.902703 231.203423 
L 237.816708 222.564204 
L 238.730713 224.874711 
L 239.644717 218.576862 
L 240.558722 211.270653 
L 241.472727 223.413086 
L 242.386732 223.169872 
L 243.300737 222.769087 
L 244.214742 216.537823 
L 245.128747 214.019959 
L 246.042752 223.006732 
L 246.956757 215.387247 
L 247.870762 216.156096 
L 248.784767 210.010788 
L 249.698771 208.297216 
L 250.612776 217.579959 
L 251.526781 202.253203 
L 252.440786 207.039963 
L 253.354791 201.192496 
L 254.268796 201.580672 
L 255.182801 211.435939 
L 256.096806 196.967401 
L 257.010811 205.947602 
L 257.924816 208.84513 
L 258.838821 197.448958 
L 259.752826 207.808029 
L 260.66683 199.985776 
L 261.580835 200.148768 
L 262.49484 198.945386 
L 263.408845 205.45615 
L 264.32285 200.581622 
L 265.236855 212.081534 
L 266.15086 194.017175 
L 267.064865 196.289275 
L 267.97887 192.624561 
L 269.80688 201.296177 
L 270.720885 197.789862 
L 271.634889 201.853214 
L 272.548894 210.879129 
L 273.462899 191.678568 
L 274.376904 207.17755 
L 275.290909 193.631521 
L 276.204914 192.535194 
L 277.118919 190.910846 
L 278.032924 192.820399 
L 278.946929 193.068991 
L 279.860934 185.640191 
L 280.774939 182.418252 
L 281.688943 189.875758 
L 282.602948 193.188879 
L 283.516953 173.18478 
L 284.430958 193.994807 
L 285.344963 191.193025 
L 286.258968 190.955054 
L 287.172973 178.629943 
L 288.086978 196.791159 
L 289.000983 187.114546 
L 289.914988 194.081243 
L 290.828993 184.525077 
L 291.742998 183.170744 
L 292.657002 180.464177 
L 293.571007 186.368866 
L 294.485012 189.347187 
L 295.399017 181.826473 
L 296.313022 189.587806 
L 297.227027 181.531763 
L 298.141032 185.025482 
L 299.055037 186.474792 
L 299.969042 184.009768 
L 300.883047 182.212936 
L 301.797052 186.581701 
L 302.711057 201.723463 
L 303.625061 185.771681 
L 304.539066 185.383554 
L 305.453071 182.828415 
L 306.367076 181.838993 
L 307.281081 166.398939 
L 308.195086 183.913917 
L 309.109091 181.126878 
L 310.023096 171.596829 
L 310.937101 178.904736 
L 311.851106 181.392693 
L 312.765111 177.640839 
L 313.679115 182.373133 
L 314.59312 185.345127 
L 315.507125 180.805773 
L 316.42113 170.429485 
L 317.335135 167.340085 
L 318.24914 178.031936 
L 319.163145 180.392885 
L 320.07715 171.35285 
L 320.991155 181.541836 
L 321.90516 183.272979 
L 322.819165 173.682964 
L 323.73317 181.038806 
L 324.647174 172.945264 
L 325.561179 180.094388 
L 326.475184 174.603844 
L 327.389189 172.769223 
L 328.303194 175.948813 
L 329.217199 175.181015 
L 330.131204 172.241803 
L 331.045209 168.205309 
L 331.959214 175.814506 
L 332.873219 170.794403 
L 333.787224 172.36074 
L 334.701229 172.76716 
L 335.615233 166.760407 
L 336.529238 166.305205 
L 338.357248 176.575565 
L 339.271253 162.452719 
L 340.185258 169.331242 
L 341.099263 178.637512 
L 342.013268 161.947268 
L 342.927273 166.607821 
L 343.841278 167.120549 
L 345.669287 172.000774 
L 346.583292 158.091419 
L 347.497297 169.233493 
L 348.411302 169.208256 
L 349.325307 162.915176 
L 350.239312 165.818543 
L 351.153317 173.166373 
L 352.067322 167.95354 
L 352.981327 168.012943 
L 353.895332 160.934187 
L 354.809337 164.726389 
L 355.723342 176.938927 
L 356.637346 168.638244 
L 357.551351 155.057522 
L 358.465356 157.444625 
L 359.379361 165.908293 
L 360.293366 169.241987 
L 361.207371 167.498542 
L 362.121376 156.200733 
L 363.035381 164.245892 
L 363.949386 167.580264 
L 364.863391 166.025385 
L 365.777396 155.01225 
L 366.6914 150.628338 
L 367.605405 163.752316 
L 368.51941 157.878896 
L 369.433415 162.261595 
L 371.261425 158.16071 
L 372.17543 167.36896 
L 373.089435 159.225011 
L 374.00344 164.441905 
L 374.917445 148.515934 
L 375.83145 156.745181 
L 376.745455 169.339817 
L 377.659459 170.804268 
L 378.573464 165.211522 
L 379.487469 167.275003 
L 380.401474 163.760626 
L 381.315479 168.268483 
L 382.229484 146.00654 
L 384.057494 158.134514 
L 384.971499 162.245603 
L 385.885504 160.3052 
L 386.799509 158.103105 
L 387.713514 162.164454 
L 388.627518 161.241563 
L 389.541523 151.908839 
L 390.455528 169.423293 
L 391.369533 168.167833 
L 392.283538 157.09392 
L 393.197543 157.591953 
L 394.111548 147.558207 
L 395.939558 166.613802 
L 396.853563 157.280333 
L 397.767568 154.371574 
L 398.681572 137.918843 
L 399.595577 154.365356 
L 400.509582 146.437651 
L 401.423587 159.810321 
L 402.337592 166.219031 
L 403.251597 155.69991 
L 404.165602 156.598927 
L 405.079607 141.282219 
L 405.993612 146.882374 
L 406.907617 154.632677 
L 407.821622 157.062317 
L 408.735627 155.01153 
L 409.649631 158.659549 
L 410.563636 150.164582 
L 411.477641 144.711235 
L 412.391646 155.947514 
L 413.305651 159.121994 
L 414.219656 155.653057 
L 415.133661 142.616905 
L 416.047666 147.511909 
L 416.961671 147.90463 
L 417.875676 160.008288 
L 419.703686 152.133612 
L 420.61769 154.433045 
L 421.531695 152.173935 
L 422.4457 153.918843 
L 423.359705 164.544393 
L 424.27371 154.629148 
L 425.187715 153.683281 
L 426.10172 162.207966 
L 427.015725 159.631881 
L 427.92973 157.848954 
L 428.843735 150.599838 
L 430.671744 153.838014 
L 431.585749 154.179396 
L 432.499754 152.3501 
L 433.413759 154.383736 
L 434.327764 143.859026 
L 435.241769 146.128296 
L 436.155774 161.184721 
L 437.069779 162.430226 
L 437.983784 159.084457 
L 438.897789 149.42696 
L 439.811794 148.270526 
L 440.725799 144.434375 
L 441.639803 162.804201 
L 442.553808 142.541537 
L 443.467813 135.254427 
L 444.381818 152.583427 
L 445.295823 139.859769 
L 446.209828 153.121585 
L 447.123833 148.736881 
L 448.037838 149.301482 
L 448.951843 146.798258 
L 450.779853 160.388957 
L 451.693857 157.438194 
L 452.607862 145.61309 
L 453.521867 160.572812 
L 454.435872 155.857397 
L 455.349877 159.963571 
L 456.263882 151.034819 
L 457.177887 154.992423 
L 459.005897 140.031293 
L 459.919902 147.757196 
L 460.833907 149.699979 
L 461.747912 141.206207 
L 462.661916 145.691537 
L 463.575921 151.062601 
L 464.489926 151.977546 
L 465.403931 147.590152 
L 466.317936 157.454362 
L 467.231941 146.198019 
L 468.145946 148.567071 
L 469.059951 150.383903 
L 469.973956 150.313088 
L 470.887961 163.427761 
L 471.801966 140.235855 
L 472.715971 153.185824 
L 474.54398 145.599739 
L 475.457985 146.075608 
L 476.37199 155.300105 
L 477.285995 166.356928 
L 478.2 143.848805 
L 479.114005 152.520388 
L 480.02801 151.620236 
L 480.942015 148.624392 
L 481.85602 149.464745 
L 482.770025 147.970255 
L 483.684029 160.252976 
L 484.598034 137.011668 
L 485.512039 148.309948 
L 486.426044 146.938371 
L 487.340049 159.574566 
L 488.254054 144.614938 
L 489.168059 142.379364 
L 490.082064 126.968411 
L 490.996069 137.778622 
L 491.910074 145.858258 
L 492.824079 142.388118 
L 493.738084 148.727779 
L 494.652088 149.322101 
L 495.566093 142.962587 
L 496.480098 143.84659 
L 497.394103 142.285569 
L 498.308108 137.188582 
L 499.222113 154.98535 
L 500.136118 145.05973 
L 501.050123 143.034899 
L 501.964128 140.08189 
L 502.878133 137.573499 
L 503.792138 157.036698 
L 504.706143 141.706936 
L 505.620147 145.509294 
L 506.534152 153.154099 
L 507.448157 143.690068 
L 508.362162 150.403011 
L 509.276167 148.240215 
L 510.190172 150.620775 
L 512.018182 138.672005 
L 512.932187 143.209917 
L 513.846192 138.16043 
L 514.760197 147.895056 
L 515.674201 143.295033 
L 516.588206 142.060579 
L 517.502211 152.694711 
L 518.416216 136.77309 
L 519.330221 147.092325 
L 520.244226 141.842307 
L 521.158231 149.154108 
L 522.072236 142.725846 
L 522.986241 145.47357 
L 523.900246 140.728166 
L 524.814251 138.253327 
L 525.728256 146.618574 
L 526.64226 136.669789 
L 527.556265 144.3673 
L 528.47027 141.061514 
L 529.384275 144.611406 
L 530.29828 149.405165 
L 531.212285 134.049544 
L 532.12629 144.531834 
L 533.040295 146.268543 
L 533.9543 149.881746 
L 534.868305 139.919406 
L 535.78231 137.031872 
L 536.696314 156.241653 
L 537.610319 144.90029 
L 538.524324 144.512585 
L 539.438329 149.178563 
L 540.352334 141.929819 
L 541.266339 149.341873 
L 542.180344 144.08362 
L 543.094349 152.954545 
L 544.008354 139.971179 
L 544.922359 149.916702 
L 545.836364 152.967996 
L 546.750369 139.962385 
L 547.664373 151.334174 
L 548.578378 139.275678 
L 549.492383 139.196131 
L 550.406388 149.08876 
L 551.320393 143.327752 
L 552.234398 139.894547 
L 553.148403 144.198494 
L 554.062408 149.833165 
L 554.976413 138.153239 
L 555.890418 142.600431 
L 556.804423 148.026721 
L 557.718428 143.363916 
L 558.632432 137.641388 
L 559.546437 136.255263 
L 560.460442 149.116978 
L 561.374447 146.246142 
L 562.288452 133.096376 
L 563.202457 142.400327 
L 564.116462 154.904073 
L 565.030467 142.908406 
L 565.944472 145.313363 
L 566.858477 145.912425 
L 567.772482 141.07597 
L 568.686486 145.31991 
L 569.600491 142.954441 
L 570.514496 142.868106 
L 571.428501 131.212806 
L 572.342506 150.486073 
L 573.256511 145.676892 
L 574.170516 144.277253 
L 575.084521 158.904977 
L 575.998526 147.779201 
L 577.826536 131.598371 
L 578.740541 147.242726 
L 579.654545 143.01439 
L 580.56855 143.152982 
L 581.482555 143.160292 
L 582.39656 154.119782 
L 583.310565 143.295035 
L 584.22457 140.05496 
L 585.138575 141.689088 
L 586.05258 149.284956 
L 586.966585 136.955535 
L 587.88059 154.659595 
L 588.794595 147.932132 
L 589.7086 143.604971 
L 590.622604 148.202554 
L 591.536609 136.573054 
L 592.450614 121.484164 
L 593.364619 137.453299 
L 594.278624 134.848256 
L 595.192629 138.155473 
L 596.106634 146.094034 
L 597.020639 137.592444 
L 597.934644 143.558909 
L 598.848649 142.842019 
L 599.762654 131.953756 
L 600.676658 138.614304 
L 601.590663 153.219347 
L 602.504668 133.894825 
L 603.418673 137.08129 
L 604.332678 131.696517 
L 605.246683 137.402222 
L 606.160688 135.562456 
L 607.074693 145.482704 
L 607.988698 139.310878 
L 608.902703 144.981618 
L 610.730713 136.715315 
L 611.644717 148.544852 
L 612.558722 136.590629 
L 613.472727 146.286746 
L 614.386732 141.644122 
L 615.300737 143.415435 
L 616.214742 147.913281 
L 618.042752 134.16145 
L 618.956757 138.037791 
L 619.870762 138.201627 
L 620.784767 144.197997 
L 621.698771 140.495209 
L 622.612776 128.772689 
L 623.526781 131.54857 
L 624.440786 148.431982 
L 625.354791 136.626732 
L 626.268796 149.196128 
L 627.182801 147.206942 
L 628.096806 135.864434 
L 629.010811 138.648333 
L 629.924816 135.60644 
L 630.838821 148.85309 
L 631.752826 134.238866 
L 633.580835 139.702749 
L 634.49484 153.340945 
L 635.408845 142.324871 
L 636.32285 138.073589 
L 637.236855 141.582942 
L 638.15086 134.500919 
L 639.064865 154.192149 
L 639.97887 148.187308 
L 640.892875 144.063568 
L 641.80688 135.933571 
L 642.720885 144.630091 
L 643.634889 133.895063 
L 644.548894 145.040365 
L 645.462899 149.627482 
L 646.376904 134.170601 
L 647.290909 140.289313 
L 648.204914 149.691688 
L 649.118919 144.398822 
L 650.032924 124.464968 
L 650.946929 133.040047 
L 651.860934 145.640044 
L 652.774939 138.608774 
L 653.688943 144.578828 
L 654.602948 142.297868 
L 655.516953 146.129455 
L 656.430958 130.404967 
L 657.344963 146.65264 
L 658.258968 146.57713 
L 659.172973 150.892713 
L 660.086978 134.991762 
L 661.000983 147.406849 
L 661.914988 137.84691 
L 662.828993 136.427313 
L 663.742998 136.270133 
L 664.657002 139.320922 
L 665.571007 150.78367 
L 666.485012 147.399987 
L 667.399017 134.988062 
L 668.313022 144.934905 
L 669.227027 139.964011 
L 670.141032 136.365097 
L 671.055037 133.607924 
L 671.969042 141.134497 
L 672.883047 134.814001 
L 673.797052 120.873275 
L 674.711057 137.405802 
L 675.625061 142.540123 
L 676.539066 150.252093 
L 677.453071 123.821059 
L 678.367076 144.910078 
L 679.281081 129.403416 
L 680.195086 153.237686 
L 681.109091 144.687648 
L 682.937101 131.816077 
L 683.851106 137.132136 
L 684.765111 143.234854 
L 685.679115 137.035197 
L 686.59312 140.194275 
L 687.507125 137.883291 
L 688.42113 155.780694 
L 689.335135 137.783943 
L 690.24914 143.577597 
L 691.163145 146.27128 
L 692.07715 141.084587 
L 692.991155 137.707375 
L 693.90516 135.427332 
L 694.819165 147.087342 
L 695.73317 147.880228 
L 696.647174 145.565734 
L 697.561179 133.665102 
L 698.475184 149.103346 
L 699.389189 136.46876 
L 700.303194 135.123591 
L 701.217199 134.130378 
L 702.131204 148.162108 
L 703.045209 150.323787 
L 703.959214 131.903311 
L 704.873219 137.167094 
L 705.787224 138.990765 
L 706.701229 141.582198 
L 707.615233 130.744928 
L 708.529238 140.68604 
L 709.443243 131.493832 
L 710.357248 135.168756 
L 711.271253 130.434078 
L 712.185258 139.507677 
L 713.099263 142.136676 
L 714.013268 139.955804 
L 714.927273 133.03245 
L 715.841278 134.55805 
L 716.755283 138.865268 
L 717.669287 133.067109 
L 718.583292 146.511446 
L 719.497297 133.152354 
L 720.411302 142.092472 
L 721.325307 132.204391 
L 722.239312 130.989244 
L 723.153317 132.765877 
L 724.067322 141.16048 
L 724.981327 155.84849 
L 725.895332 145.512712 
L 726.809337 121.711373 
L 727.723342 147.669908 
L 728.637346 142.141871 
L 729.551351 122.471313 
L 730.465356 136.877673 
L 731.379361 133.827725 
L 732.293366 131.456841 
L 733.207371 141.413445 
L 734.121376 148.524092 
L 735.035381 145.591288 
L 735.949386 131.646113 
L 736.863391 140.105043 
L 737.777396 150.489547 
L 738.6914 140.586501 
L 739.605405 148.716408 
L 740.51941 138.662254 
L 741.433415 143.768909 
L 742.34742 133.902674 
L 743.261425 131.2843 
L 744.17543 138.480471 
L 745.089435 135.961535 
L 746.00344 150.037515 
L 746.917445 134.836294 
L 747.83145 136.53326 
L 748.745455 141.852948 
L 749.659459 133.50498 
L 750.573464 140.574725 
L 751.487469 129.700855 
L 752.401474 147.138003 
L 753.315479 139.810278 
L 754.229484 139.721007 
L 755.143489 125.280171 
L 756.971499 145.889461 
L 758.799509 142.398376 
L 759.713514 130.421844 
L 760.627518 148.599738 
L 761.541523 139.071505 
L 762.455528 142.914168 
L 763.369533 133.375246 
L 764.283538 143.348864 
L 765.197543 132.34319 
L 766.111548 141.270359 
L 767.025553 139.911823 
L 767.939558 135.520122 
L 768.853563 132.814726 
L 769.767568 137.937761 
L 770.681572 143.997521 
L 771.595577 139.597996 
L 772.509582 138.750888 
L 773.423587 148.956577 
L 774.337592 133.875554 
L 775.251597 121.452575 
L 776.165602 129.379577 
L 777.079607 144.132194 
L 777.993612 142.757482 
L 778.907617 140.249238 
L 779.821622 127.4676 
L 780.735627 140.029681 
L 781.649631 142.512093 
L 782.563636 131.166839 
L 783.477641 138.007772 
L 784.391646 132.993319 
L 785.305651 133.575591 
L 786.219656 140.202321 
L 787.133661 142.030824 
L 788.047666 140.733519 
L 788.961671 131.61097 
L 789.875676 139.016466 
L 790.789681 135.878634 
L 791.703686 132.311455 
L 792.61769 139.283808 
L 793.531695 132.356048 
L 794.4457 128.327992 
L 795.359705 136.347456 
L 796.27371 145.582899 
L 797.187715 140.267144 
L 798.10172 116.945436 
L 799.015725 133.156029 
L 799.92973 131.481589 
L 800.843735 143.607638 
L 801.75774 151.060179 
L 802.671744 140.944166 
L 803.585749 137.872227 
L 804.499754 143.019214 
L 805.413759 138.825762 
L 806.327764 144.582462 
L 807.241769 152.542533 
L 808.155774 131.641913 
L 809.069779 132.976601 
L 809.983784 135.652898 
L 810.897789 132.249621 
L 811.811794 139.330412 
L 812.725799 137.968929 
L 813.639803 148.407764 
L 814.553808 139.343097 
L 815.467813 136.553937 
L 816.381818 142.748236 
L 817.295823 142.478037 
L 818.209828 137.019379 
L 819.123833 136.759535 
L 820.037838 134.711486 
L 820.951843 140.045196 
L 821.865848 124.268299 
L 822.779853 140.689193 
L 823.693857 141.430065 
L 824.607862 137.367972 
L 825.521867 125.48283 
L 826.435872 135.030909 
L 827.349877 147.312213 
L 828.263882 134.801983 
L 829.177887 134.218763 
L 830.091892 135.189154 
L 831.005897 142.600244 
L 831.919902 134.736666 
L 832.833907 139.071858 
L 833.747912 133.405849 
L 834.661916 144.928207 
L 835.575921 139.420484 
L 836.489926 136.145091 
L 837.403931 137.530083 
L 838.317936 139.707461 
L 839.231941 135.017025 
L 840.145946 142.32556 
L 841.059951 124.03433 
L 841.973956 148.760292 
L 842.887961 137.183572 
L 843.801966 136.974032 
L 844.715971 148.165014 
L 845.629975 134.456916 
L 846.54398 140.563876 
L 847.457985 131.623778 
L 848.37199 130.342252 
L 849.285995 138.918813 
L 850.2 131.517833 
L 851.114005 136.138812 
L 852.02801 141.803069 
L 852.942015 132.68087 
L 853.85602 139.455724 
L 854.770025 133.440987 
L 855.684029 143.434165 
L 856.598034 136.802692 
L 857.512039 140.010115 
L 858.426044 135.155809 
L 859.340049 145.912507 
L 860.254054 136.794301 
L 861.168059 136.270842 
L 862.082064 130.649892 
L 862.996069 137.175155 
L 863.910074 128.415571 
L 864.824079 142.380072 
L 865.738084 126.508352 
L 866.652088 136.632853 
L 867.566093 137.164777 
L 868.480098 129.407898 
L 869.394103 146.793368 
L 870.308108 137.47337 
L 871.222113 138.379351 
L 872.136118 118.002505 
L 873.050123 138.967747 
L 873.964128 136.674391 
L 874.878133 133.142845 
L 875.792138 128.48987 
L 876.706143 130.016093 
L 877.620147 136.427217 
L 878.534152 147.496944 
L 879.448157 135.903414 
L 880.362162 129.812526 
L 881.276167 131.784741 
L 882.190172 135.03627 
L 883.104177 142.179148 
L 884.018182 135.805174 
L 884.932187 147.0719 
L 885.846192 145.495596 
L 886.760197 141.863194 
L 887.674201 134.752098 
L 888.588206 140.276683 
L 889.502211 146.631407 
L 890.416216 142.410666 
L 891.330221 135.070656 
L 892.244226 137.166029 
L 893.158231 131.950896 
L 894.072236 138.730321 
L 894.986241 134.251358 
L 895.900246 117.382007 
L 896.814251 147.274385 
L 897.728256 132.793256 
L 898.64226 129.765925 
L 899.556265 138.212393 
L 900.47027 135.544533 
L 901.384275 130.417099 
L 902.29828 133.332152 
L 903.212285 126.869303 
L 904.12629 147.413004 
L 905.040295 127.523567 
L 905.9543 138.499579 
L 906.868305 136.0995 
L 907.78231 138.895559 
L 908.696314 138.935002 
L 909.610319 145.498256 
L 910.524324 139.448081 
L 911.438329 134.596428 
L 912.352334 138.597693 
L 913.266339 146.09477 
L 914.180344 133.855993 
L 915.094349 123.300053 
L 916.008354 147.127427 
L 916.922359 143.565256 
L 917.836364 134.501301 
L 918.750369 132.19119 
L 919.664373 150.1506 
L 920.578378 135.765487 
L 921.492383 134.64915 
L 922.406388 136.128619 
L 923.320393 143.603596 
L 925.148403 135.017112 
L 926.062408 131.40242 
L 926.976413 133.658461 
L 927.890418 132.156005 
L 928.804423 147.474172 
L 929.718428 142.945745 
L 930.632432 137.073702 
L 931.546437 144.920504 
L 932.460442 127.452635 
L 933.374447 148.090622 
L 934.288452 142.494255 
L 935.202457 135.883712 
L 936.116462 136.084407 
L 937.030467 140.390809 
L 937.944472 124.62155 
L 938.858477 146.926121 
L 939.772482 144.838872 
L 940.686486 144.310293 
L 941.600491 144.334108 
L 942.514496 133.993312 
L 944.342506 144.508356 
L 945.256511 151.270567 
L 946.170516 140.425883 
L 947.084521 127.139283 
L 947.998526 139.033749 
L 948.912531 131.504843 
L 949.826536 140.208283 
L 950.740541 136.5142 
L 951.654545 148.807395 
L 952.56855 146.378794 
L 953.482555 126.997735 
L 954.39656 130.968602 
L 955.310565 134.187972 
L 956.22457 135.964413 
L 957.138575 148.841929 
L 958.05258 141.97759 
L 958.966585 131.140702 
L 960.794595 122.7588 
L 961.7086 146.8146 
L 964.450614 140.441252 
L 965.364619 136.164731 
L 966.278624 136.054647 
L 967.192629 146.317662 
L 968.106634 148.671125 
L 969.020639 133.430947 
L 969.934644 140.356823 
L 970.848649 142.787778 
L 971.762654 127.437246 
L 972.676658 140.701373 
L 973.590663 133.463521 
L 974.504668 144.752765 
L 975.418673 143.224443 
L 976.332678 137.744728 
L 977.246683 140.500632 
L 978.160688 121.954672 
L 979.074693 142.91864 
L 979.988698 137.64836 
L 980.902703 125.271492 
L 981.816708 129.384036 
L 982.730713 145.037587 
L 983.644717 145.493306 
L 984.558722 135.266126 
L 985.472727 135.893099 
L 986.386732 129.734943 
L 987.300737 135.947007 
L 988.214742 141.387997 
L 989.128747 128.847095 
L 990.042752 122.927479 
L 990.956757 139.090595 
L 991.870762 136.216464 
L 992.784767 131.918072 
L 993.698771 139.282193 
L 994.612776 148.797 
L 995.526781 128.031761 
L 996.440786 130.423027 
L 998.268796 142.920695 
L 999.182801 135.331446 
L 1000.096806 143.724358 
L 1001.010811 133.398127 
L 1001.924816 125.118695 
L 1002.838821 141.950737 
L 1003.752826 143.10614 
L 1004.66683 132.690645 
L 1005.580835 138.97492 
L 1006.49484 128.912509 
L 1007.408845 134.689451 
L 1008.32285 129.066265 
L 1009.236855 136.040497 
L 1010.15086 139.004036 
L 1011.97887 134.32751 
L 1012.892875 142.428001 
L 1013.80688 132.082408 
L 1014.720885 134.067457 
L 1015.634889 131.243399 
L 1016.548894 131.441909 
L 1017.462899 144.019194 
L 1018.376904 132.276215 
L 1019.290909 129.215926 
L 1020.204914 135.074732 
L 1021.118919 146.699649 
L 1022.032924 133.872383 
L 1022.946929 143.240482 
L 1023.860934 129.571783 
L 1024.774939 138.56202 
L 1025.688943 139.257475 
L 1026.602948 140.81368 
L 1027.516953 132.175794 
L 1028.430958 142.553095 
L 1029.344963 136.228016 
L 1030.258968 138.516617 
L 1031.172973 129.525643 
L 1032.086978 150.353186 
L 1033.000983 141.971995 
L 1033.914988 146.843561 
L 1034.828993 141.724223 
L 1035.742998 137.570467 
L 1036.657002 135.481523 
L 1037.571007 140.131562 
L 1038.485012 140.369668 
L 1039.399017 139.462575 
L 1040.313022 128.299951 
L 1041.227027 143.415448 
L 1042.141032 125.158774 
L 1043.055037 137.852305 
L 1043.969042 131.801409 
L 1044.883047 143.549463 
L 1045.797052 131.656183 
L 1046.711057 137.922588 
L 1047.625061 129.432539 
L 1048.539066 136.316555 
L 1049.453071 153.139772 
L 1050.367076 132.984874 
L 1051.281081 137.389332 
L 1052.195086 143.578966 
L 1053.109091 136.113567 
L 1054.023096 139.07829 
L 1054.937101 144.849636 
L 1055.851106 134.180369 
L 1057.679115 136.37066 
L 1058.59312 126.060087 
L 1059.507125 144.949701 
L 1060.42113 143.252989 
L 1061.335135 135.014933 
L 1062.24914 134.628149 
L 1063.163145 137.972349 
L 1064.07715 135.291116 
L 1064.991155 136.490514 
L 1065.90516 126.456887 
L 1066.819165 136.372088 
L 1067.73317 142.546182 
L 1068.647174 135.630486 
L 1069.561179 143.210778 
L 1070.475184 128.923036 
L 1071.389189 135.43594 
L 1072.303194 124.218849 
L 1073.217199 140.676567 
L 1074.131204 134.382609 
L 1075.045209 144.111847 
L 1075.959214 130.478928 
L 1076.873219 138.342584 
L 1077.787224 139.791129 
L 1078.701229 141.847223 
L 1079.615233 120.275235 
L 1080.529238 144.100047 
L 1082.357248 120.060929 
L 1083.271253 122.936339 
L 1084.185258 135.089479 
L 1085.099263 132.587565 
L 1086.013268 131.662702 
L 1086.927273 135.687653 
L 1087.841278 132.804923 
L 1088.755283 138.409694 
L 1089.669287 131.663053 
L 1090.583292 128.695728 
L 1091.497297 140.900874 
L 1092.411302 140.126833 
L 1093.325307 133.195836 
L 1094.239312 136.058396 
L 1095.153317 132.919065 
L 1096.067322 124.950777 
L 1096.981327 133.61599 
L 1098.809337 146.097327 
L 1099.723342 131.568527 
L 1100.637346 127.19283 
L 1101.551351 129.262769 
L 1102.465356 122.425981 
L 1103.379361 134.08675 
L 1104.293366 136.319081 
L 1106.121376 128.580043 
L 1107.035381 132.022834 
L 1107.949386 146.974614 
L 1108.863391 131.747723 
L 1109.777396 138.474221 
L 1110.6914 136.480741 
L 1111.605405 138.533314 
L 1112.51941 133.039028 
L 1113.433415 128.843776 
L 1114.34742 128.033712 
L 1115.261425 135.247605 
L 1116.17543 141.253199 
L 1117.089435 140.225109 
L 1118.00344 128.304951 
L 1118.917445 140.865721 
L 1119.83145 130.328973 
L 1120.745455 144.388531 
L 1120.745455 144.388531 
" style="fill:none;stroke:#808080;stroke-linecap:square;stroke-width:1.5;"/>
   </g>
   <g id="patch_3">
    <path d="M 162 512.64 
L 162 69.12 
" style="fill:none;stroke:#000000;stroke-linecap:square;stroke-linejoin:miter;stroke-width:0.8;"/>
   </g>
   <g id="patch_4">
    <path d="M 162 512.64 
L 1166.4 512.64 
" style="fill:none;stroke:#000000;stroke-linecap:square;stroke-linejoin:miter;stroke-width:0.8;"/>
   </g>
   <g id="legend_1">
    <g id="patch_5">
     <path d="M 931.6 502.64 
L 1152.4 502.64 
Q 1156.4 502.64 1156.4 498.64 
L 1156.4 441.88375 
Q 1156.4 437.88375 1152.4 437.88375 
L 931.6 437.88375 
Q 927.6 437.88375 927.6 441.88375 
L 927.6 498.64 
Q 927.6 502.64 931.6 502.64 
z
" style="fill:#ffffff;opacity:0.8;stroke:#cccccc;stroke-linejoin:miter;"/>
    </g>
    <g id="line2d_18">
     <path d="M 935.6 454.080625 
L 975.6 454.080625 
" style="fill:none;stroke:#0000ff;stroke-linecap:square;stroke-width:1.5;"/>
    </g>
    <g id="line2d_19"/>
    <g id="text_18">
     <!-- UCB, $c=2$ -->
     <g transform="translate(991.6 461.080625)scale(0.2 -0.2)">
      <defs>
       <path d="M 8.6875 72.90625 
L 18.609375 72.90625 
L 18.609375 28.609375 
Q 18.609375 16.890625 22.84375 11.734375 
Q 27.09375 6.59375 36.625 6.59375 
Q 46.09375 6.59375 50.34375 11.734375 
Q 54.59375 16.890625 54.59375 28.609375 
L 54.59375 72.90625 
L 64.5 72.90625 
L 64.5 27.390625 
Q 64.5 13.140625 57.4375 5.859375 
Q 50.390625 -1.421875 36.625 -1.421875 
Q 22.796875 -1.421875 15.734375 5.859375 
Q 8.6875 13.140625 8.6875 27.390625 
z
" id="DejaVuSans-85"/>
       <path d="M 64.40625 67.28125 
L 64.40625 56.890625 
Q 59.421875 61.53125 53.78125 63.8125 
Q 48.140625 66.109375 41.796875 66.109375 
Q 29.296875 66.109375 22.65625 58.46875 
Q 16.015625 50.828125 16.015625 36.375 
Q 16.015625 21.96875 22.65625 14.328125 
Q 29.296875 6.6875 41.796875 6.6875 
Q 48.140625 6.6875 53.78125 8.984375 
Q 59.421875 11.28125 64.40625 15.921875 
L 64.40625 5.609375 
Q 59.234375 2.09375 53.4375 0.328125 
Q 47.65625 -1.421875 41.21875 -1.421875 
Q 24.65625 -1.421875 15.125 8.703125 
Q 5.609375 18.84375 5.609375 36.375 
Q 5.609375 53.953125 15.125 64.078125 
Q 24.65625 74.21875 41.21875 74.21875 
Q 47.75 74.21875 53.53125 72.484375 
Q 59.328125 70.75 64.40625 67.28125 
z
" id="DejaVuSans-67"/>
       <path d="M 19.671875 34.8125 
L 19.671875 8.109375 
L 35.5 8.109375 
Q 43.453125 8.109375 47.28125 11.40625 
Q 51.125 14.703125 51.125 21.484375 
Q 51.125 28.328125 47.28125 31.5625 
Q 43.453125 34.8125 35.5 34.8125 
z
M 19.671875 64.796875 
L 19.671875 42.828125 
L 34.28125 42.828125 
Q 41.5 42.828125 45.03125 45.53125 
Q 48.578125 48.25 48.578125 53.8125 
Q 48.578125 59.328125 45.03125 62.0625 
Q 41.5 64.796875 34.28125 64.796875 
z
M 9.8125 72.90625 
L 35.015625 72.90625 
Q 46.296875 72.90625 52.390625 68.21875 
Q 58.5 63.53125 58.5 54.890625 
Q 58.5 48.1875 55.375 44.234375 
Q 52.25 40.28125 46.1875 39.3125 
Q 53.46875 37.75 57.5 32.78125 
Q 61.53125 27.828125 61.53125 20.40625 
Q 61.53125 10.640625 54.890625 5.3125 
Q 48.25 0 35.984375 0 
L 9.8125 0 
z
" id="DejaVuSans-66"/>
       <path d="M 11.71875 12.40625 
L 22.015625 12.40625 
L 22.015625 4 
L 14.015625 -11.625 
L 7.71875 -11.625 
L 11.71875 4 
z
" id="DejaVuSans-44"/>
       <path d="M 11.71875 11.921875 
Q 11.71875 7.5625 13.9375 4.53125 
Q 16.15625 1.515625 20.3125 1.515625 
Q 26.265625 1.515625 31.75 4.25 
Q 37.25 6.984375 40.71875 11.8125 
Q 41.015625 12.109375 41.5 12.109375 
Q 42 12.109375 42.5 11.546875 
Q 43.015625 10.984375 43.015625 10.5 
Q 43.015625 10.109375 42.828125 9.90625 
Q 39.15625 4.78125 32.953125 1.828125 
Q 26.765625 -1.125 20.125 -1.125 
Q 15.328125 -1.125 11.671875 1.140625 
Q 8.015625 3.421875 6 7.21875 
Q 4 11.03125 4 15.828125 
Q 4 22.5625 7.765625 29.203125 
Q 11.53125 35.84375 17.78125 40.015625 
Q 24.03125 44.1875 30.90625 44.1875 
Q 35.40625 44.1875 38.984375 42.015625 
Q 42.578125 39.84375 42.578125 35.59375 
Q 42.578125 32.859375 40.984375 30.921875 
Q 39.40625 29 36.71875 29 
Q 35.109375 29 34 30 
Q 32.90625 31 32.90625 32.625 
Q 32.90625 34.96875 34.609375 36.625 
Q 36.328125 38.28125 38.625 38.28125 
L 38.8125 38.28125 
Q 37.640625 39.984375 35.421875 40.796875 
Q 33.203125 41.609375 30.8125 41.609375 
Q 24.953125 41.609375 20.546875 36.59375 
Q 16.15625 31.59375 13.9375 24.625 
Q 11.71875 17.671875 11.71875 11.921875 
z
" id="Cmmi10-99"/>
       <path d="M 7.515625 13.28125 
Q 6.6875 13.28125 6.140625 13.90625 
Q 5.609375 14.546875 5.609375 15.28125 
Q 5.609375 16.109375 6.140625 16.6875 
Q 6.6875 17.28125 7.515625 17.28125 
L 70.3125 17.28125 
Q 71.046875 17.28125 71.578125 16.6875 
Q 72.125 16.109375 72.125 15.28125 
Q 72.125 14.546875 71.578125 13.90625 
Q 71.046875 13.28125 70.3125 13.28125 
z
M 7.515625 32.71875 
Q 6.6875 32.71875 6.140625 33.296875 
Q 5.609375 33.890625 5.609375 34.71875 
Q 5.609375 35.453125 6.140625 36.078125 
Q 6.6875 36.71875 7.515625 36.71875 
L 70.3125 36.71875 
Q 71.046875 36.71875 71.578125 36.078125 
Q 72.125 35.453125 72.125 34.71875 
Q 72.125 33.890625 71.578125 33.296875 
Q 71.046875 32.71875 70.3125 32.71875 
z
" id="Cmr10-61"/>
       <path d="M 4.984375 0 
L 4.984375 2.6875 
Q 4.984375 2.9375 5.171875 3.21875 
L 20.703125 20.40625 
Q 24.21875 24.21875 26.40625 26.796875 
Q 28.609375 29.390625 30.75 32.765625 
Q 32.90625 36.140625 34.15625 39.625 
Q 35.40625 43.109375 35.40625 47.015625 
Q 35.40625 51.125 33.890625 54.859375 
Q 32.375 58.59375 29.375 60.84375 
Q 26.375 63.09375 22.125 63.09375 
Q 17.78125 63.09375 14.3125 60.46875 
Q 10.84375 57.859375 9.421875 53.71875 
Q 9.8125 53.8125 10.5 53.8125 
Q 12.75 53.8125 14.328125 52.296875 
Q 15.921875 50.78125 15.921875 48.390625 
Q 15.921875 46.09375 14.328125 44.5 
Q 12.75 42.921875 10.5 42.921875 
Q 8.15625 42.921875 6.5625 44.546875 
Q 4.984375 46.1875 4.984375 48.390625 
Q 4.984375 52.15625 6.390625 55.4375 
Q 7.8125 58.734375 10.46875 61.296875 
Q 13.140625 63.875 16.484375 65.234375 
Q 19.828125 66.609375 23.578125 66.609375 
Q 29.296875 66.609375 34.21875 64.1875 
Q 39.15625 61.765625 42.03125 57.34375 
Q 44.921875 52.9375 44.921875 47.015625 
Q 44.921875 42.671875 43.015625 38.765625 
Q 41.109375 34.859375 38.125 31.65625 
Q 35.15625 28.46875 30.515625 24.40625 
Q 25.875 20.359375 24.421875 19 
L 13.09375 8.109375 
L 22.703125 8.109375 
Q 29.78125 8.109375 34.546875 8.21875 
Q 39.3125 8.34375 39.59375 8.59375 
Q 40.765625 9.859375 42 17.828125 
L 44.921875 17.828125 
L 42.09375 0 
z
" id="Cmr10-50"/>
      </defs>
      <use transform="translate(0 0.78125)" xlink:href="#DejaVuSans-85"/>
      <use transform="translate(73.193359 0.78125)" xlink:href="#DejaVuSans-67"/>
      <use transform="translate(143.017578 0.78125)" xlink:href="#DejaVuSans-66"/>
      <use transform="translate(211.621094 0.78125)" xlink:href="#DejaVuSans-44"/>
      <use transform="translate(243.408203 0.78125)" xlink:href="#DejaVuSans-32"/>
      <use transform="translate(275.195312 0.78125)" xlink:href="#Cmmi10-99"/>
      <use transform="translate(335.966797 0.78125)" xlink:href="#Cmr10-61"/>
      <use transform="translate(431.210938 0.78125)" xlink:href="#Cmr10-50"/>
     </g>
    </g>
    <g id="line2d_20">
     <path d="M 935.6 483.44 
L 975.6 483.44 
" style="fill:none;stroke:#808080;stroke-linecap:square;stroke-width:1.5;"/>
    </g>
    <g id="line2d_21"/>
    <g id="text_19">
     <!-- $\varepsilon$-greedy, $\varepsilon=0.1$ -->
     <g transform="translate(991.6 490.44)scale(0.2 -0.2)">
      <defs>
       <path d="M 2.6875 10.40625 
Q 2.6875 13.140625 3.875 15.71875 
Q 5.078125 18.3125 7 20.359375 
Q 8.9375 22.40625 11.53125 24.03125 
Q 7.71875 26.65625 7.71875 30.8125 
Q 7.71875 35.25 11.421875 38.59375 
Q 15.140625 41.9375 20.5 43.625 
Q 25.875 45.3125 30.171875 45.3125 
Q 31.984375 45.3125 35.03125 44.5 
Q 38.09375 43.703125 40.375 42.375 
Q 42.671875 41.0625 42.671875 39.5 
Q 42.671875 38.328125 41.765625 37.421875 
Q 40.875 36.53125 39.796875 36.53125 
Q 39.359375 36.53125 37.578125 37.578125 
Q 35.796875 38.625 33.78125 39.453125 
Q 31.78125 40.28125 29.390625 40.28125 
Q 25.78125 40.28125 21.453125 39.421875 
Q 17.140625 38.578125 13.859375 36.453125 
Q 10.59375 34.328125 10.59375 30.90625 
Q 10.59375 27.640625 14.3125 25.390625 
Q 18.5 27.296875 22.90625 27.296875 
Q 30.71875 27.296875 30.71875 24.515625 
Q 30.71875 22.3125 28.046875 21.703125 
Q 25.390625 21.09375 21.921875 21.09375 
Q 17.234375 21.09375 14.203125 22.515625 
Q 10.890625 20.75 8.296875 17.578125 
Q 5.71875 14.40625 5.71875 10.984375 
Q 5.71875 7.765625 7.890625 5.953125 
Q 10.0625 4.15625 13.234375 3.46875 
Q 16.40625 2.78125 19.578125 2.78125 
Q 25.09375 2.78125 29.34375 3.96875 
Q 33.59375 5.171875 35.5 8.984375 
Q 35.796875 9.625 36.625 9.625 
Q 37.703125 9.28125 37.703125 8.296875 
Q 37.703125 8.203125 37.40625 7.328125 
Q 35.796875 4.15625 32.84375 2 
Q 29.890625 -0.140625 26.25 -1.171875 
Q 22.609375 -2.203125 18.796875 -2.203125 
Q 12.59375 -2.203125 7.640625 1.109375 
Q 2.6875 4.4375 2.6875 10.40625 
z
M 18.109375 24.03125 
Q 19.875 23.6875 22.125 23.6875 
Q 26.515625 23.6875 27.59375 24.3125 
Q 26.21875 24.703125 22.796875 24.703125 
Q 20.3125 24.703125 18.109375 24.03125 
z
" id="Cmmi10-34"/>
       <path d="M 4.890625 31.390625 
L 31.203125 31.390625 
L 31.203125 23.390625 
L 4.890625 23.390625 
z
" id="DejaVuSans-45"/>
       <path d="M 32.171875 -5.078125 
Q 28.375 -14.84375 24.75 -17.8125 
Q 21.140625 -20.796875 15.09375 -20.796875 
L 7.90625 -20.796875 
L 7.90625 -13.28125 
L 13.1875 -13.28125 
Q 16.890625 -13.28125 18.9375 -11.515625 
Q 21 -9.765625 23.484375 -3.21875 
L 25.09375 0.875 
L 2.984375 54.6875 
L 12.5 54.6875 
L 29.59375 11.921875 
L 46.6875 54.6875 
L 56.203125 54.6875 
z
" id="DejaVuSans-121"/>
       <path d="M 25 -2.203125 
Q 12.75 -2.203125 8.328125 7.875 
Q 3.90625 17.96875 3.90625 31.890625 
Q 3.90625 40.578125 5.484375 48.234375 
Q 7.078125 55.90625 11.78125 61.25 
Q 16.5 66.609375 25 66.609375 
Q 31.59375 66.609375 35.78125 63.375 
Q 39.984375 60.15625 42.1875 55.046875 
Q 44.390625 49.953125 45.1875 44.109375 
Q 46 38.28125 46 31.890625 
Q 46 23.296875 44.40625 15.796875 
Q 42.828125 8.296875 38.1875 3.046875 
Q 33.546875 -2.203125 25 -2.203125 
z
M 25 0.390625 
Q 30.5625 0.390625 33.296875 6.09375 
Q 36.03125 11.8125 36.671875 18.75 
Q 37.3125 25.6875 37.3125 33.5 
Q 37.3125 41.015625 36.671875 47.359375 
Q 36.03125 53.71875 33.3125 58.859375 
Q 30.609375 64.015625 25 64.015625 
Q 19.34375 64.015625 16.609375 58.828125 
Q 13.875 53.65625 13.234375 47.328125 
Q 12.59375 41.015625 12.59375 33.5 
Q 12.59375 27.9375 12.859375 23 
Q 13.140625 18.0625 14.3125 12.8125 
Q 15.484375 7.5625 18.09375 3.96875 
Q 20.703125 0.390625 25 0.390625 
z
" id="Cmr10-48"/>
       <path d="M 8.40625 5.515625 
Q 8.40625 7.765625 10.0625 9.375 
Q 11.71875 10.984375 13.921875 10.984375 
Q 15.28125 10.984375 16.59375 10.25 
Q 17.921875 9.515625 18.65625 8.203125 
Q 19.390625 6.890625 19.390625 5.515625 
Q 19.390625 3.328125 17.765625 1.65625 
Q 16.15625 0 13.921875 0 
Q 11.71875 0 10.0625 1.65625 
Q 8.40625 3.328125 8.40625 5.515625 
z
" id="Cmmi10-58"/>
       <path d="M 9.28125 0 
L 9.28125 3.515625 
Q 21.78125 3.515625 21.78125 6.6875 
L 21.78125 59.1875 
Q 16.609375 56.6875 8.6875 56.6875 
L 8.6875 60.203125 
Q 20.953125 60.203125 27.203125 66.609375 
L 28.609375 66.609375 
Q 28.953125 66.609375 29.265625 66.328125 
Q 29.59375 66.0625 29.59375 65.71875 
L 29.59375 6.6875 
Q 29.59375 3.515625 42.09375 3.515625 
L 42.09375 0 
z
" id="Cmr10-49"/>
      </defs>
      <use transform="translate(0 0.015625)" xlink:href="#Cmmi10-34"/>
      <use transform="translate(46.582031 0.015625)" xlink:href="#DejaVuSans-45"/>
      <use transform="translate(82.666016 0.015625)" xlink:href="#DejaVuSans-103"/>
      <use transform="translate(146.142578 0.015625)" xlink:href="#DejaVuSans-114"/>
      <use transform="translate(187.255859 0.015625)" xlink:href="#DejaVuSans-101"/>
      <use transform="translate(248.779297 0.015625)" xlink:href="#DejaVuSans-101"/>
      <use transform="translate(310.302734 0.015625)" xlink:href="#DejaVuSans-100"/>
      <use transform="translate(373.779297 0.015625)" xlink:href="#DejaVuSans-121"/>
      <use transform="translate(432.958984 0.015625)" xlink:href="#DejaVuSans-44"/>
      <use transform="translate(464.746094 0.015625)" xlink:href="#DejaVuSans-32"/>
      <use transform="translate(496.533203 0.015625)" xlink:href="#Cmmi10-34"/>
      <use transform="translate(560.673828 0.015625)" xlink:href="#Cmr10-61"/>
      <use transform="translate(655.917969 0.015625)" xlink:href="#Cmr10-48"/>
      <use transform="translate(705.917969 0.015625)" xlink:href="#Cmmi10-58"/>
      <use transform="translate(733.603516 0.015625)" xlink:href="#Cmr10-49"/>
     </g>
    </g>
   </g>
  </g>
 </g>
 <defs>
  <clipPath id="pa2426e1490">
   <rect height="443.52" width="1004.4" x="162" y="69.12"/>
  </clipPath>
 </defs>
</svg>
