<?xml version="1.0" encoding="utf-8" standalone="no"?>
<!DOCTYPE svg PUBLIC "-//W3C//DTD SVG 1.1//EN"
  "http://www.w3.org/Graphics/SVG/1.1/DTD/svg11.dtd">
<!-- Created with matplotlib (https://matplotlib.org/) -->
<svg height="576pt" version="1.1" viewBox="0 0 1296 576" width="1296pt" xmlns="http://www.w3.org/2000/svg" xmlns:xlink="http://www.w3.org/1999/xlink">
 <metadata>
  <rdf:RDF xmlns:cc="http://creativecommons.org/ns#" xmlns:dc="http://purl.org/dc/elements/1.1/" xmlns:rdf="http://www.w3.org/1999/02/22-rdf-syntax-ns#">
   <cc:Work>
    <dc:type rdf:resource="http://purl.org/dc/dcmitype/StillImage"/>
    <dc:date>2021-01-29T22:28:56.164910</dc:date>
    <dc:format>image/svg+xml</dc:format>
    <dc:creator>
     <cc:Agent>
      <dc:title>Matplotlib v3.3.3, https://matplotlib.org/</dc:title>
     </cc:Agent>
    </dc:creator>
   </cc:Work>
  </rdf:RDF>
 </metadata>
 <defs>
  <style type="text/css">*{stroke-linecap:butt;stroke-linejoin:round;}</style>
 </defs>
 <g id="figure_1">
  <g id="patch_1">
   <path d="M 0 576 
L 1296 576 
L 1296 0 
L 0 0 
z
" style="fill:#ffffff;"/>
  </g>
  <g id="axes_1">
   <g id="patch_2">
    <path d="M 162 512.64 
L 1166.4 512.64 
L 1166.4 69.12 
L 162 69.12 
z
" style="fill:#ffffff;"/>
   </g>
   <g id="matplotlib.axis_1">
    <g id="xtick_1">
     <g id="line2d_1">
      <defs>
       <path d="M 0 0 
L 0 3.5 
" id="m2223acd543" style="stroke:#000000;stroke-width:0.8;"/>
      </defs>
      <g>
       <use style="stroke:#000000;stroke-width:0.8;" x="207.654545" xlink:href="#m2223acd543" y="512.64"/>
      </g>
     </g>
     <g id="text_1">
      <!-- 0 -->
      <g transform="translate(201.292045 534.836875)scale(0.2 -0.2)">
       <defs>
        <path d="M 31.78125 66.40625 
Q 24.171875 66.40625 20.328125 58.90625 
Q 16.5 51.421875 16.5 36.375 
Q 16.5 21.390625 20.328125 13.890625 
Q 24.171875 6.390625 31.78125 6.390625 
Q 39.453125 6.390625 43.28125 13.890625 
Q 47.125 21.390625 47.125 36.375 
Q 47.125 51.421875 43.28125 58.90625 
Q 39.453125 66.40625 31.78125 66.40625 
z
M 31.78125 74.21875 
Q 44.046875 74.21875 50.515625 64.515625 
Q 56.984375 54.828125 56.984375 36.375 
Q 56.984375 17.96875 50.515625 8.265625 
Q 44.046875 -1.421875 31.78125 -1.421875 
Q 19.53125 -1.421875 13.0625 8.265625 
Q 6.59375 17.96875 6.59375 36.375 
Q 6.59375 54.828125 13.0625 64.515625 
Q 19.53125 74.21875 31.78125 74.21875 
z
" id="DejaVuSans-48"/>
       </defs>
       <use xlink:href="#DejaVuSans-48"/>
      </g>
     </g>
    </g>
    <g id="xtick_2">
     <g id="line2d_2">
      <g>
       <use style="stroke:#000000;stroke-width:0.8;" x="390.455528" xlink:href="#m2223acd543" y="512.64"/>
      </g>
     </g>
     <g id="text_2">
      <!-- 200 -->
      <g transform="translate(371.368028 534.836875)scale(0.2 -0.2)">
       <defs>
        <path d="M 19.1875 8.296875 
L 53.609375 8.296875 
L 53.609375 0 
L 7.328125 0 
L 7.328125 8.296875 
Q 12.9375 14.109375 22.625 23.890625 
Q 32.328125 33.6875 34.8125 36.53125 
Q 39.546875 41.84375 41.421875 45.53125 
Q 43.3125 49.21875 43.3125 52.78125 
Q 43.3125 58.59375 39.234375 62.25 
Q 35.15625 65.921875 28.609375 65.921875 
Q 23.96875 65.921875 18.8125 64.3125 
Q 13.671875 62.703125 7.8125 59.421875 
L 7.8125 69.390625 
Q 13.765625 71.78125 18.9375 73 
Q 24.125 74.21875 28.421875 74.21875 
Q 39.75 74.21875 46.484375 68.546875 
Q 53.21875 62.890625 53.21875 53.421875 
Q 53.21875 48.921875 51.53125 44.890625 
Q 49.859375 40.875 45.40625 35.40625 
Q 44.1875 33.984375 37.640625 27.21875 
Q 31.109375 20.453125 19.1875 8.296875 
z
" id="DejaVuSans-50"/>
       </defs>
       <use xlink:href="#DejaVuSans-50"/>
       <use x="63.623047" xlink:href="#DejaVuSans-48"/>
       <use x="127.246094" xlink:href="#DejaVuSans-48"/>
      </g>
     </g>
    </g>
    <g id="xtick_3">
     <g id="line2d_3">
      <g>
       <use style="stroke:#000000;stroke-width:0.8;" x="573.256511" xlink:href="#m2223acd543" y="512.64"/>
      </g>
     </g>
     <g id="text_3">
      <!-- 400 -->
      <g transform="translate(554.169011 534.836875)scale(0.2 -0.2)">
       <defs>
        <path d="M 37.796875 64.3125 
L 12.890625 25.390625 
L 37.796875 25.390625 
z
M 35.203125 72.90625 
L 47.609375 72.90625 
L 47.609375 25.390625 
L 58.015625 25.390625 
L 58.015625 17.1875 
L 47.609375 17.1875 
L 47.609375 0 
L 37.796875 0 
L 37.796875 17.1875 
L 4.890625 17.1875 
L 4.890625 26.703125 
z
" id="DejaVuSans-52"/>
       </defs>
       <use xlink:href="#DejaVuSans-52"/>
       <use x="63.623047" xlink:href="#DejaVuSans-48"/>
       <use x="127.246094" xlink:href="#DejaVuSans-48"/>
      </g>
     </g>
    </g>
    <g id="xtick_4">
     <g id="line2d_4">
      <g>
       <use style="stroke:#000000;stroke-width:0.8;" x="756.057494" xlink:href="#m2223acd543" y="512.64"/>
      </g>
     </g>
     <g id="text_4">
      <!-- 600 -->
      <g transform="translate(736.969994 534.836875)scale(0.2 -0.2)">
       <defs>
        <path d="M 33.015625 40.375 
Q 26.375 40.375 22.484375 35.828125 
Q 18.609375 31.296875 18.609375 23.390625 
Q 18.609375 15.53125 22.484375 10.953125 
Q 26.375 6.390625 33.015625 6.390625 
Q 39.65625 6.390625 43.53125 10.953125 
Q 47.40625 15.53125 47.40625 23.390625 
Q 47.40625 31.296875 43.53125 35.828125 
Q 39.65625 40.375 33.015625 40.375 
z
M 52.59375 71.296875 
L 52.59375 62.3125 
Q 48.875 64.0625 45.09375 64.984375 
Q 41.3125 65.921875 37.59375 65.921875 
Q 27.828125 65.921875 22.671875 59.328125 
Q 17.53125 52.734375 16.796875 39.40625 
Q 19.671875 43.65625 24.015625 45.921875 
Q 28.375 48.1875 33.59375 48.1875 
Q 44.578125 48.1875 50.953125 41.515625 
Q 57.328125 34.859375 57.328125 23.390625 
Q 57.328125 12.15625 50.6875 5.359375 
Q 44.046875 -1.421875 33.015625 -1.421875 
Q 20.359375 -1.421875 13.671875 8.265625 
Q 6.984375 17.96875 6.984375 36.375 
Q 6.984375 53.65625 15.1875 63.9375 
Q 23.390625 74.21875 37.203125 74.21875 
Q 40.921875 74.21875 44.703125 73.484375 
Q 48.484375 72.75 52.59375 71.296875 
z
" id="DejaVuSans-54"/>
       </defs>
       <use xlink:href="#DejaVuSans-54"/>
       <use x="63.623047" xlink:href="#DejaVuSans-48"/>
       <use x="127.246094" xlink:href="#DejaVuSans-48"/>
      </g>
     </g>
    </g>
    <g id="xtick_5">
     <g id="line2d_5">
      <g>
       <use style="stroke:#000000;stroke-width:0.8;" x="938.858477" xlink:href="#m2223acd543" y="512.64"/>
      </g>
     </g>
     <g id="text_5">
      <!-- 800 -->
      <g transform="translate(919.770977 534.836875)scale(0.2 -0.2)">
       <defs>
        <path d="M 31.78125 34.625 
Q 24.75 34.625 20.71875 30.859375 
Q 16.703125 27.09375 16.703125 20.515625 
Q 16.703125 13.921875 20.71875 10.15625 
Q 24.75 6.390625 31.78125 6.390625 
Q 38.8125 6.390625 42.859375 10.171875 
Q 46.921875 13.96875 46.921875 20.515625 
Q 46.921875 27.09375 42.890625 30.859375 
Q 38.875 34.625 31.78125 34.625 
z
M 21.921875 38.8125 
Q 15.578125 40.375 12.03125 44.71875 
Q 8.5 49.078125 8.5 55.328125 
Q 8.5 64.0625 14.71875 69.140625 
Q 20.953125 74.21875 31.78125 74.21875 
Q 42.671875 74.21875 48.875 69.140625 
Q 55.078125 64.0625 55.078125 55.328125 
Q 55.078125 49.078125 51.53125 44.71875 
Q 48 40.375 41.703125 38.8125 
Q 48.828125 37.15625 52.796875 32.3125 
Q 56.78125 27.484375 56.78125 20.515625 
Q 56.78125 9.90625 50.3125 4.234375 
Q 43.84375 -1.421875 31.78125 -1.421875 
Q 19.734375 -1.421875 13.25 4.234375 
Q 6.78125 9.90625 6.78125 20.515625 
Q 6.78125 27.484375 10.78125 32.3125 
Q 14.796875 37.15625 21.921875 38.8125 
z
M 18.3125 54.390625 
Q 18.3125 48.734375 21.84375 45.5625 
Q 25.390625 42.390625 31.78125 42.390625 
Q 38.140625 42.390625 41.71875 45.5625 
Q 45.3125 48.734375 45.3125 54.390625 
Q 45.3125 60.0625 41.71875 63.234375 
Q 38.140625 66.40625 31.78125 66.40625 
Q 25.390625 66.40625 21.84375 63.234375 
Q 18.3125 60.0625 18.3125 54.390625 
z
" id="DejaVuSans-56"/>
       </defs>
       <use xlink:href="#DejaVuSans-56"/>
       <use x="63.623047" xlink:href="#DejaVuSans-48"/>
       <use x="127.246094" xlink:href="#DejaVuSans-48"/>
      </g>
     </g>
    </g>
    <g id="xtick_6">
     <g id="line2d_6">
      <g>
       <use style="stroke:#000000;stroke-width:0.8;" x="1121.659459" xlink:href="#m2223acd543" y="512.64"/>
      </g>
     </g>
     <g id="text_6">
      <!-- 1000 -->
      <g transform="translate(1096.209459 534.836875)scale(0.2 -0.2)">
       <defs>
        <path d="M 12.40625 8.296875 
L 28.515625 8.296875 
L 28.515625 63.921875 
L 10.984375 60.40625 
L 10.984375 69.390625 
L 28.421875 72.90625 
L 38.28125 72.90625 
L 38.28125 8.296875 
L 54.390625 8.296875 
L 54.390625 0 
L 12.40625 0 
z
" id="DejaVuSans-49"/>
       </defs>
       <use xlink:href="#DejaVuSans-49"/>
       <use x="63.623047" xlink:href="#DejaVuSans-48"/>
       <use x="127.246094" xlink:href="#DejaVuSans-48"/>
       <use x="190.869141" xlink:href="#DejaVuSans-48"/>
      </g>
     </g>
    </g>
    <g id="text_7">
     <!-- Steps -->
     <g transform="translate(636.220313 558.193125)scale(0.2 -0.2)">
      <defs>
       <path d="M 53.515625 70.515625 
L 53.515625 60.890625 
Q 47.90625 63.578125 42.921875 64.890625 
Q 37.9375 66.21875 33.296875 66.21875 
Q 25.25 66.21875 20.875 63.09375 
Q 16.5 59.96875 16.5 54.203125 
Q 16.5 49.359375 19.40625 46.890625 
Q 22.3125 44.4375 30.421875 42.921875 
L 36.375 41.703125 
Q 47.40625 39.59375 52.65625 34.296875 
Q 57.90625 29 57.90625 20.125 
Q 57.90625 9.515625 50.796875 4.046875 
Q 43.703125 -1.421875 29.984375 -1.421875 
Q 24.8125 -1.421875 18.96875 -0.25 
Q 13.140625 0.921875 6.890625 3.21875 
L 6.890625 13.375 
Q 12.890625 10.015625 18.65625 8.296875 
Q 24.421875 6.59375 29.984375 6.59375 
Q 38.421875 6.59375 43.015625 9.90625 
Q 47.609375 13.234375 47.609375 19.390625 
Q 47.609375 24.75 44.3125 27.78125 
Q 41.015625 30.8125 33.5 32.328125 
L 27.484375 33.5 
Q 16.453125 35.6875 11.515625 40.375 
Q 6.59375 45.0625 6.59375 53.421875 
Q 6.59375 63.09375 13.40625 68.65625 
Q 20.21875 74.21875 32.171875 74.21875 
Q 37.3125 74.21875 42.625 73.28125 
Q 47.953125 72.359375 53.515625 70.515625 
z
" id="DejaVuSans-83"/>
       <path d="M 18.3125 70.21875 
L 18.3125 54.6875 
L 36.8125 54.6875 
L 36.8125 47.703125 
L 18.3125 47.703125 
L 18.3125 18.015625 
Q 18.3125 11.328125 20.140625 9.421875 
Q 21.96875 7.515625 27.59375 7.515625 
L 36.8125 7.515625 
L 36.8125 0 
L 27.59375 0 
Q 17.1875 0 13.234375 3.875 
Q 9.28125 7.765625 9.28125 18.015625 
L 9.28125 47.703125 
L 2.6875 47.703125 
L 2.6875 54.6875 
L 9.28125 54.6875 
L 9.28125 70.21875 
z
" id="DejaVuSans-116"/>
       <path d="M 56.203125 29.59375 
L 56.203125 25.203125 
L 14.890625 25.203125 
Q 15.484375 15.921875 20.484375 11.0625 
Q 25.484375 6.203125 34.421875 6.203125 
Q 39.59375 6.203125 44.453125 7.46875 
Q 49.3125 8.734375 54.109375 11.28125 
L 54.109375 2.78125 
Q 49.265625 0.734375 44.1875 -0.34375 
Q 39.109375 -1.421875 33.890625 -1.421875 
Q 20.796875 -1.421875 13.15625 6.1875 
Q 5.515625 13.8125 5.515625 26.8125 
Q 5.515625 40.234375 12.765625 48.109375 
Q 20.015625 56 32.328125 56 
Q 43.359375 56 49.78125 48.890625 
Q 56.203125 41.796875 56.203125 29.59375 
z
M 47.21875 32.234375 
Q 47.125 39.59375 43.09375 43.984375 
Q 39.0625 48.390625 32.421875 48.390625 
Q 24.90625 48.390625 20.390625 44.140625 
Q 15.875 39.890625 15.1875 32.171875 
z
" id="DejaVuSans-101"/>
       <path d="M 18.109375 8.203125 
L 18.109375 -20.796875 
L 9.078125 -20.796875 
L 9.078125 54.6875 
L 18.109375 54.6875 
L 18.109375 46.390625 
Q 20.953125 51.265625 25.265625 53.625 
Q 29.59375 56 35.59375 56 
Q 45.5625 56 51.78125 48.09375 
Q 58.015625 40.1875 58.015625 27.296875 
Q 58.015625 14.40625 51.78125 6.484375 
Q 45.5625 -1.421875 35.59375 -1.421875 
Q 29.59375 -1.421875 25.265625 0.953125 
Q 20.953125 3.328125 18.109375 8.203125 
z
M 48.6875 27.296875 
Q 48.6875 37.203125 44.609375 42.84375 
Q 40.53125 48.484375 33.40625 48.484375 
Q 26.265625 48.484375 22.1875 42.84375 
Q 18.109375 37.203125 18.109375 27.296875 
Q 18.109375 17.390625 22.1875 11.75 
Q 26.265625 6.109375 33.40625 6.109375 
Q 40.53125 6.109375 44.609375 11.75 
Q 48.6875 17.390625 48.6875 27.296875 
z
" id="DejaVuSans-112"/>
       <path d="M 44.28125 53.078125 
L 44.28125 44.578125 
Q 40.484375 46.53125 36.375 47.5 
Q 32.28125 48.484375 27.875 48.484375 
Q 21.1875 48.484375 17.84375 46.4375 
Q 14.5 44.390625 14.5 40.28125 
Q 14.5 37.15625 16.890625 35.375 
Q 19.28125 33.59375 26.515625 31.984375 
L 29.59375 31.296875 
Q 39.15625 29.25 43.1875 25.515625 
Q 47.21875 21.78125 47.21875 15.09375 
Q 47.21875 7.46875 41.1875 3.015625 
Q 35.15625 -1.421875 24.609375 -1.421875 
Q 20.21875 -1.421875 15.453125 -0.5625 
Q 10.6875 0.296875 5.421875 2 
L 5.421875 11.28125 
Q 10.40625 8.6875 15.234375 7.390625 
Q 20.0625 6.109375 24.8125 6.109375 
Q 31.15625 6.109375 34.5625 8.28125 
Q 37.984375 10.453125 37.984375 14.40625 
Q 37.984375 18.0625 35.515625 20.015625 
Q 33.0625 21.96875 24.703125 23.78125 
L 21.578125 24.515625 
Q 13.234375 26.265625 9.515625 29.90625 
Q 5.8125 33.546875 5.8125 39.890625 
Q 5.8125 47.609375 11.28125 51.796875 
Q 16.75 56 26.8125 56 
Q 31.78125 56 36.171875 55.265625 
Q 40.578125 54.546875 44.28125 53.078125 
z
" id="DejaVuSans-115"/>
      </defs>
      <use xlink:href="#DejaVuSans-83"/>
      <use x="63.476562" xlink:href="#DejaVuSans-116"/>
      <use x="102.685547" xlink:href="#DejaVuSans-101"/>
      <use x="164.208984" xlink:href="#DejaVuSans-112"/>
      <use x="227.685547" xlink:href="#DejaVuSans-115"/>
     </g>
    </g>
   </g>
   <g id="matplotlib.axis_2">
    <g id="ytick_1">
     <g id="line2d_7">
      <defs>
       <path d="M 0 0 
L -3.5 0 
" id="m65ac46803a" style="stroke:#000000;stroke-width:0.8;"/>
      </defs>
      <g>
       <use style="stroke:#000000;stroke-width:0.8;" x="162" xlink:href="#m65ac46803a" y="512.64"/>
      </g>
     </g>
     <g id="text_8">
      <!-- 0% -->
      <g transform="translate(123.271875 520.238438)scale(0.2 -0.2)">
       <defs>
        <path d="M 72.703125 32.078125 
Q 68.453125 32.078125 66.03125 28.46875 
Q 63.625 24.859375 63.625 18.40625 
Q 63.625 12.0625 66.03125 8.421875 
Q 68.453125 4.78125 72.703125 4.78125 
Q 76.859375 4.78125 79.265625 8.421875 
Q 81.6875 12.0625 81.6875 18.40625 
Q 81.6875 24.8125 79.265625 28.4375 
Q 76.859375 32.078125 72.703125 32.078125 
z
M 72.703125 38.28125 
Q 80.421875 38.28125 84.953125 32.90625 
Q 89.5 27.546875 89.5 18.40625 
Q 89.5 9.28125 84.9375 3.921875 
Q 80.375 -1.421875 72.703125 -1.421875 
Q 64.890625 -1.421875 60.34375 3.921875 
Q 55.8125 9.28125 55.8125 18.40625 
Q 55.8125 27.59375 60.375 32.9375 
Q 64.9375 38.28125 72.703125 38.28125 
z
M 22.3125 68.015625 
Q 18.109375 68.015625 15.6875 64.375 
Q 13.28125 60.75 13.28125 54.390625 
Q 13.28125 47.953125 15.671875 44.328125 
Q 18.0625 40.71875 22.3125 40.71875 
Q 26.5625 40.71875 28.96875 44.328125 
Q 31.390625 47.953125 31.390625 54.390625 
Q 31.390625 60.6875 28.953125 64.34375 
Q 26.515625 68.015625 22.3125 68.015625 
z
M 66.40625 74.21875 
L 74.21875 74.21875 
L 28.609375 -1.421875 
L 20.796875 -1.421875 
z
M 22.3125 74.21875 
Q 30.03125 74.21875 34.609375 68.875 
Q 39.203125 63.53125 39.203125 54.390625 
Q 39.203125 45.171875 34.640625 39.84375 
Q 30.078125 34.515625 22.3125 34.515625 
Q 14.546875 34.515625 10.03125 39.859375 
Q 5.515625 45.21875 5.515625 54.390625 
Q 5.515625 63.484375 10.046875 68.84375 
Q 14.59375 74.21875 22.3125 74.21875 
z
" id="DejaVuSans-37"/>
       </defs>
       <use xlink:href="#DejaVuSans-48"/>
       <use x="63.623047" xlink:href="#DejaVuSans-37"/>
      </g>
     </g>
    </g>
    <g id="ytick_2">
     <g id="line2d_8">
      <g>
       <use style="stroke:#000000;stroke-width:0.8;" x="162" xlink:href="#m65ac46803a" y="423.936"/>
      </g>
     </g>
     <g id="text_9">
      <!-- 20% -->
      <g transform="translate(110.546875 431.534437)scale(0.2 -0.2)">
       <use xlink:href="#DejaVuSans-50"/>
       <use x="63.623047" xlink:href="#DejaVuSans-48"/>
       <use x="127.246094" xlink:href="#DejaVuSans-37"/>
      </g>
     </g>
    </g>
    <g id="ytick_3">
     <g id="line2d_9">
      <g>
       <use style="stroke:#000000;stroke-width:0.8;" x="162" xlink:href="#m65ac46803a" y="335.232"/>
      </g>
     </g>
     <g id="text_10">
      <!-- 40% -->
      <g transform="translate(110.546875 342.830438)scale(0.2 -0.2)">
       <use xlink:href="#DejaVuSans-52"/>
       <use x="63.623047" xlink:href="#DejaVuSans-48"/>
       <use x="127.246094" xlink:href="#DejaVuSans-37"/>
      </g>
     </g>
    </g>
    <g id="ytick_4">
     <g id="line2d_10">
      <g>
       <use style="stroke:#000000;stroke-width:0.8;" x="162" xlink:href="#m65ac46803a" y="246.528"/>
      </g>
     </g>
     <g id="text_11">
      <!-- 60% -->
      <g transform="translate(110.546875 254.126437)scale(0.2 -0.2)">
       <use xlink:href="#DejaVuSans-54"/>
       <use x="63.623047" xlink:href="#DejaVuSans-48"/>
       <use x="127.246094" xlink:href="#DejaVuSans-37"/>
      </g>
     </g>
    </g>
    <g id="ytick_5">
     <g id="line2d_11">
      <g>
       <use style="stroke:#000000;stroke-width:0.8;" x="162" xlink:href="#m65ac46803a" y="157.824"/>
      </g>
     </g>
     <g id="text_12">
      <!-- 80% -->
      <g transform="translate(110.546875 165.422437)scale(0.2 -0.2)">
       <use xlink:href="#DejaVuSans-56"/>
       <use x="63.623047" xlink:href="#DejaVuSans-48"/>
       <use x="127.246094" xlink:href="#DejaVuSans-37"/>
      </g>
     </g>
    </g>
    <g id="ytick_6">
     <g id="line2d_12">
      <g>
       <use style="stroke:#000000;stroke-width:0.8;" x="162" xlink:href="#m65ac46803a" y="69.12"/>
      </g>
     </g>
     <g id="text_13">
      <!-- 100% -->
      <g transform="translate(97.821875 76.718437)scale(0.2 -0.2)">
       <use xlink:href="#DejaVuSans-49"/>
       <use x="63.623047" xlink:href="#DejaVuSans-48"/>
       <use x="127.246094" xlink:href="#DejaVuSans-48"/>
       <use x="190.869141" xlink:href="#DejaVuSans-37"/>
      </g>
     </g>
    </g>
    <g id="text_14">
     <!-- % Optimal action -->
     <g transform="translate(89.6625 377.084687)rotate(-90)scale(0.2 -0.2)">
      <defs>
       <path id="DejaVuSans-32"/>
       <path d="M 39.40625 66.21875 
Q 28.65625 66.21875 22.328125 58.203125 
Q 16.015625 50.203125 16.015625 36.375 
Q 16.015625 22.609375 22.328125 14.59375 
Q 28.65625 6.59375 39.40625 6.59375 
Q 50.140625 6.59375 56.421875 14.59375 
Q 62.703125 22.609375 62.703125 36.375 
Q 62.703125 50.203125 56.421875 58.203125 
Q 50.140625 66.21875 39.40625 66.21875 
z
M 39.40625 74.21875 
Q 54.734375 74.21875 63.90625 63.9375 
Q 73.09375 53.65625 73.09375 36.375 
Q 73.09375 19.140625 63.90625 8.859375 
Q 54.734375 -1.421875 39.40625 -1.421875 
Q 24.03125 -1.421875 14.8125 8.828125 
Q 5.609375 19.09375 5.609375 36.375 
Q 5.609375 53.65625 14.8125 63.9375 
Q 24.03125 74.21875 39.40625 74.21875 
z
" id="DejaVuSans-79"/>
       <path d="M 9.421875 54.6875 
L 18.40625 54.6875 
L 18.40625 0 
L 9.421875 0 
z
M 9.421875 75.984375 
L 18.40625 75.984375 
L 18.40625 64.59375 
L 9.421875 64.59375 
z
" id="DejaVuSans-105"/>
       <path d="M 52 44.1875 
Q 55.375 50.25 60.0625 53.125 
Q 64.75 56 71.09375 56 
Q 79.640625 56 84.28125 50.015625 
Q 88.921875 44.046875 88.921875 33.015625 
L 88.921875 0 
L 79.890625 0 
L 79.890625 32.71875 
Q 79.890625 40.578125 77.09375 44.375 
Q 74.3125 48.1875 68.609375 48.1875 
Q 61.625 48.1875 57.5625 43.546875 
Q 53.515625 38.921875 53.515625 30.90625 
L 53.515625 0 
L 44.484375 0 
L 44.484375 32.71875 
Q 44.484375 40.625 41.703125 44.40625 
Q 38.921875 48.1875 33.109375 48.1875 
Q 26.21875 48.1875 22.15625 43.53125 
Q 18.109375 38.875 18.109375 30.90625 
L 18.109375 0 
L 9.078125 0 
L 9.078125 54.6875 
L 18.109375 54.6875 
L 18.109375 46.1875 
Q 21.1875 51.21875 25.484375 53.609375 
Q 29.78125 56 35.6875 56 
Q 41.65625 56 45.828125 52.96875 
Q 50 49.953125 52 44.1875 
z
" id="DejaVuSans-109"/>
       <path d="M 34.28125 27.484375 
Q 23.390625 27.484375 19.1875 25 
Q 14.984375 22.515625 14.984375 16.5 
Q 14.984375 11.71875 18.140625 8.90625 
Q 21.296875 6.109375 26.703125 6.109375 
Q 34.1875 6.109375 38.703125 11.40625 
Q 43.21875 16.703125 43.21875 25.484375 
L 43.21875 27.484375 
z
M 52.203125 31.203125 
L 52.203125 0 
L 43.21875 0 
L 43.21875 8.296875 
Q 40.140625 3.328125 35.546875 0.953125 
Q 30.953125 -1.421875 24.3125 -1.421875 
Q 15.921875 -1.421875 10.953125 3.296875 
Q 6 8.015625 6 15.921875 
Q 6 25.140625 12.171875 29.828125 
Q 18.359375 34.515625 30.609375 34.515625 
L 43.21875 34.515625 
L 43.21875 35.40625 
Q 43.21875 41.609375 39.140625 45 
Q 35.0625 48.390625 27.6875 48.390625 
Q 23 48.390625 18.546875 47.265625 
Q 14.109375 46.140625 10.015625 43.890625 
L 10.015625 52.203125 
Q 14.9375 54.109375 19.578125 55.046875 
Q 24.21875 56 28.609375 56 
Q 40.484375 56 46.34375 49.84375 
Q 52.203125 43.703125 52.203125 31.203125 
z
" id="DejaVuSans-97"/>
       <path d="M 9.421875 75.984375 
L 18.40625 75.984375 
L 18.40625 0 
L 9.421875 0 
z
" id="DejaVuSans-108"/>
       <path d="M 48.78125 52.59375 
L 48.78125 44.1875 
Q 44.96875 46.296875 41.140625 47.34375 
Q 37.3125 48.390625 33.40625 48.390625 
Q 24.65625 48.390625 19.8125 42.84375 
Q 14.984375 37.3125 14.984375 27.296875 
Q 14.984375 17.28125 19.8125 11.734375 
Q 24.65625 6.203125 33.40625 6.203125 
Q 37.3125 6.203125 41.140625 7.25 
Q 44.96875 8.296875 48.78125 10.40625 
L 48.78125 2.09375 
Q 45.015625 0.34375 40.984375 -0.53125 
Q 36.96875 -1.421875 32.421875 -1.421875 
Q 20.0625 -1.421875 12.78125 6.34375 
Q 5.515625 14.109375 5.515625 27.296875 
Q 5.515625 40.671875 12.859375 48.328125 
Q 20.21875 56 33.015625 56 
Q 37.15625 56 41.109375 55.140625 
Q 45.0625 54.296875 48.78125 52.59375 
z
" id="DejaVuSans-99"/>
       <path d="M 30.609375 48.390625 
Q 23.390625 48.390625 19.1875 42.75 
Q 14.984375 37.109375 14.984375 27.296875 
Q 14.984375 17.484375 19.15625 11.84375 
Q 23.34375 6.203125 30.609375 6.203125 
Q 37.796875 6.203125 41.984375 11.859375 
Q 46.1875 17.53125 46.1875 27.296875 
Q 46.1875 37.015625 41.984375 42.703125 
Q 37.796875 48.390625 30.609375 48.390625 
z
M 30.609375 56 
Q 42.328125 56 49.015625 48.375 
Q 55.71875 40.765625 55.71875 27.296875 
Q 55.71875 13.875 49.015625 6.21875 
Q 42.328125 -1.421875 30.609375 -1.421875 
Q 18.84375 -1.421875 12.171875 6.21875 
Q 5.515625 13.875 5.515625 27.296875 
Q 5.515625 40.765625 12.171875 48.375 
Q 18.84375 56 30.609375 56 
z
" id="DejaVuSans-111"/>
       <path d="M 54.890625 33.015625 
L 54.890625 0 
L 45.90625 0 
L 45.90625 32.71875 
Q 45.90625 40.484375 42.875 44.328125 
Q 39.84375 48.1875 33.796875 48.1875 
Q 26.515625 48.1875 22.3125 43.546875 
Q 18.109375 38.921875 18.109375 30.90625 
L 18.109375 0 
L 9.078125 0 
L 9.078125 54.6875 
L 18.109375 54.6875 
L 18.109375 46.1875 
Q 21.34375 51.125 25.703125 53.5625 
Q 30.078125 56 35.796875 56 
Q 45.21875 56 50.046875 50.171875 
Q 54.890625 44.34375 54.890625 33.015625 
z
" id="DejaVuSans-110"/>
      </defs>
      <use xlink:href="#DejaVuSans-37"/>
      <use x="95.019531" xlink:href="#DejaVuSans-32"/>
      <use x="126.806641" xlink:href="#DejaVuSans-79"/>
      <use x="205.517578" xlink:href="#DejaVuSans-112"/>
      <use x="268.994141" xlink:href="#DejaVuSans-116"/>
      <use x="308.203125" xlink:href="#DejaVuSans-105"/>
      <use x="335.986328" xlink:href="#DejaVuSans-109"/>
      <use x="433.398438" xlink:href="#DejaVuSans-97"/>
      <use x="494.677734" xlink:href="#DejaVuSans-108"/>
      <use x="522.460938" xlink:href="#DejaVuSans-32"/>
      <use x="554.248047" xlink:href="#DejaVuSans-97"/>
      <use x="615.527344" xlink:href="#DejaVuSans-99"/>
      <use x="670.507812" xlink:href="#DejaVuSans-116"/>
      <use x="709.716797" xlink:href="#DejaVuSans-105"/>
      <use x="737.5" xlink:href="#DejaVuSans-111"/>
      <use x="798.681641" xlink:href="#DejaVuSans-110"/>
     </g>
    </g>
   </g>
   <g id="line2d_13">
    <path clip-path="url(#p74c9017497)" d="M 207.654545 472.50144 
L 208.56855 450.5472 
L 210.39656 425.26656 
L 211.310565 415.95264 
L 212.22457 413.51328 
L 213.138575 403.53408 
L 214.05258 395.1072 
L 214.966585 392.8896 
L 215.88059 387.3456 
L 216.794595 385.57152 
L 217.7086 379.36224 
L 218.622604 378.25344 
L 219.536609 371.8224 
L 220.450614 370.7136 
L 221.364619 367.16544 
L 222.278624 366.50016 
L 223.192629 367.16544 
L 224.106634 363.39552 
L 225.020639 365.61312 
L 225.934644 362.28672 
L 226.848649 366.72192 
L 227.762654 358.07328 
L 228.676658 358.73856 
L 229.590663 354.96864 
L 230.504668 356.52096 
L 231.418673 354.52512 
L 232.332678 352.08576 
L 233.246683 350.97696 
L 234.160688 350.08992 
L 235.074693 350.31168 
L 235.988698 348.98112 
L 236.902703 346.98528 
L 237.816708 349.42464 
L 238.730713 348.09408 
L 239.644717 345.43296 
L 240.558722 345.2112 
L 241.472727 345.43296 
L 242.386732 342.55008 
L 243.300737 345.2112 
L 244.214742 343.65888 
L 245.128747 337.22784 
L 246.956757 344.1024 
L 247.870762 343.43712 
L 248.784767 336.3408 
L 249.698771 340.99776 
L 250.612776 342.77184 
L 251.526781 338.33664 
L 252.440786 334.56672 
L 253.354791 335.232 
L 254.268796 336.11904 
L 255.182801 335.67552 
L 256.096806 337.4496 
L 257.010811 337.22784 
L 257.924816 332.57088 
L 258.838821 334.34496 
L 259.752826 332.57088 
L 260.66683 337.22784 
L 261.580835 336.3408 
L 262.49484 330.7968 
L 263.408845 330.35328 
L 264.32285 330.7968 
L 265.236855 329.688 
L 266.15086 326.80512 
L 267.064865 333.45792 
L 267.97887 332.79264 
L 268.892875 328.13568 
L 269.80688 331.68384 
L 270.720885 328.13568 
L 271.634889 325.69632 
L 272.548894 327.4704 
L 273.462899 327.69216 
L 274.376904 325.03104 
L 275.290909 328.13568 
L 276.204914 323.70048 
L 277.118919 322.81344 
L 278.032924 327.69216 
L 278.946929 321.70464 
L 279.860934 326.13984 
L 280.774939 325.91808 
L 281.688943 325.03104 
L 282.602948 324.58752 
L 283.516953 325.03104 
L 284.430958 325.69632 
L 285.344963 325.03104 
L 286.258968 323.92224 
L 287.172973 322.59168 
L 288.086978 324.58752 
L 289.000983 323.0352 
L 289.914988 322.59168 
L 290.828993 321.48288 
L 291.742998 321.9264 
L 292.657002 325.03104 
L 293.571007 320.15232 
L 294.485012 321.9264 
L 295.399017 315.93888 
L 296.313022 322.14816 
L 297.227027 319.7088 
L 298.141032 318.6 
L 299.055037 314.83008 
L 299.969042 315.93888 
L 300.883047 318.82176 
L 301.797052 315.2736 
L 302.711057 319.26528 
L 303.625061 314.60832 
L 304.539066 316.3824 
L 305.453071 313.49952 
L 306.367076 314.60832 
L 307.281081 316.16064 
L 308.195086 313.27776 
L 309.109091 315.49536 
L 310.023096 313.27776 
L 310.937101 316.16064 
L 311.851106 316.60416 
L 312.765111 318.82176 
L 313.679115 309.95136 
L 314.59312 311.9472 
L 315.507125 311.06016 
L 316.42113 314.38656 
L 317.335135 312.16896 
L 318.24914 307.95552 
L 319.163145 313.27776 
L 320.07715 311.72544 
L 320.991155 314.38656 
L 321.90516 311.9472 
L 322.819165 310.61664 
L 323.73317 312.83424 
L 324.647174 309.06432 
L 325.561179 312.83424 
L 326.475184 311.9472 
L 327.389189 310.17312 
L 328.303194 309.7296 
L 329.217199 304.85088 
L 330.131204 307.95552 
L 331.045209 306.62496 
L 331.959214 304.1856 
L 332.873219 306.4032 
L 333.787224 306.18144 
L 334.701229 306.18144 
L 335.615233 308.39904 
L 336.529238 309.7296 
L 337.443243 303.29856 
L 338.357248 305.2944 
L 339.271253 309.06432 
L 340.185258 306.18144 
L 341.099263 302.18976 
L 342.013268 303.74208 
L 342.927273 303.52032 
L 343.841278 307.73376 
L 344.755283 304.62912 
L 345.669287 300.41568 
L 346.583292 302.63328 
L 347.497297 306.18144 
L 348.411302 299.7504 
L 349.325307 298.86336 
L 350.239312 303.29856 
L 352.067322 303.74208 
L 352.981327 302.63328 
L 353.895332 298.86336 
L 354.809337 304.62912 
L 355.723342 299.52864 
L 356.637346 299.7504 
L 357.551351 297.75456 
L 359.379361 301.52448 
L 360.293366 298.41984 
L 361.207371 297.5328 
L 362.121376 297.97632 
L 363.035381 293.98464 
L 363.949386 292.65408 
L 364.863391 294.2064 
L 365.777396 293.0976 
L 366.6914 296.86752 
L 367.605405 292.21056 
L 368.51941 297.75456 
L 369.433415 294.64992 
L 370.34742 292.21056 
L 371.261425 295.3152 
L 372.17543 295.98048 
L 373.089435 291.32352 
L 374.00344 294.2064 
L 374.917445 293.31936 
L 375.83145 294.42816 
L 376.745455 295.3152 
L 378.573464 287.33184 
L 379.487469 294.42816 
L 380.401474 292.87584 
L 381.315479 287.5536 
L 382.229484 289.7712 
L 383.143489 288.44064 
L 384.057494 287.99712 
L 384.971499 291.32352 
L 385.885504 289.99296 
L 386.799509 291.9888 
L 387.713514 292.21056 
L 388.627518 289.7712 
L 389.541523 286.66656 
L 390.455528 285.336 
L 391.369533 287.5536 
L 392.283538 286.66656 
L 393.197543 283.1184 
L 394.111548 289.32768 
L 395.025553 282.67488 
L 395.939558 284.44896 
L 396.853563 283.34016 
L 397.767568 284.67072 
L 398.681572 280.9008 
L 399.595577 286.22304 
L 400.509582 282.67488 
L 401.423587 282.23136 
L 402.337592 285.55776 
L 403.251597 280.9008 
L 404.165602 279.57024 
L 405.079607 282.45312 
L 405.993612 281.12256 
L 406.907617 282.23136 
L 407.821622 282.0096 
L 408.735627 278.46144 
L 409.649631 278.01792 
L 410.563636 276.90912 
L 411.477641 280.23552 
L 412.391646 278.6832 
L 413.305651 279.34848 
L 414.219656 278.23968 
L 415.133661 277.35264 
L 416.047666 276.68736 
L 416.961671 276.4656 
L 417.875676 276.90912 
L 418.789681 274.91328 
L 419.703686 276.4656 
L 420.61769 275.57856 
L 421.531695 277.35264 
L 423.359705 269.8128 
L 424.27371 270.03456 
L 425.187715 274.46976 
L 426.10172 276.24384 
L 427.015725 268.48224 
L 427.92973 274.69152 
L 428.843735 274.46976 
L 429.75774 271.36512 
L 430.671744 272.0304 
L 431.585749 271.80864 
L 432.499754 269.36928 
L 433.413759 273.1392 
L 434.327764 272.0304 
L 435.241769 268.92576 
L 436.155774 272.47392 
L 437.069779 273.1392 
L 437.983784 272.0304 
L 438.897789 268.92576 
L 439.811794 270.25632 
L 440.725799 270.25632 
L 441.639803 270.47808 
L 442.553808 273.80448 
L 443.467813 270.47808 
L 444.381818 266.70816 
L 446.209828 271.36512 
L 447.123833 268.26048 
L 448.037838 267.37344 
L 448.951843 268.704 
L 449.865848 267.81696 
L 450.779853 268.03872 
L 451.693857 272.69568 
L 452.607862 266.04288 
L 453.521867 266.70816 
L 454.435872 268.26048 
L 455.349877 267.5952 
L 456.263882 262.71648 
L 457.177887 267.37344 
L 458.091892 265.15584 
L 459.005897 266.70816 
L 459.919902 261.82944 
L 460.833907 262.0512 
L 461.747912 263.82528 
L 462.661916 266.04288 
L 463.575921 264.71232 
L 464.489926 260.49888 
L 465.403931 265.59936 
L 466.317936 262.71648 
L 467.231941 260.49888 
L 468.145946 260.72064 
L 469.059951 260.05536 
L 469.973956 264.49056 
L 470.887961 260.05536 
L 471.801966 263.16 
L 472.715971 265.82112 
L 473.629975 267.81696 
L 474.54398 261.82944 
L 475.457985 261.38592 
L 476.37199 256.5072 
L 477.285995 262.93824 
L 478.2 260.27712 
L 479.114005 262.0512 
L 480.02801 258.94656 
L 480.942015 260.9424 
L 481.85602 261.82944 
L 483.684029 256.28544 
L 484.598034 262.0512 
L 485.512039 263.60352 
L 486.426044 260.27712 
L 487.340049 259.39008 
L 488.254054 259.8336 
L 489.168059 257.83776 
L 490.082064 257.39424 
L 490.996069 256.5072 
L 491.910074 255.17664 
L 492.824079 257.39424 
L 493.738084 258.7248 
L 494.652088 254.95488 
L 495.566093 258.28128 
L 496.480098 257.83776 
L 497.394103 258.28128 
L 499.222113 256.06368 
L 500.136118 254.73312 
L 501.050123 260.72064 
L 501.964128 254.95488 
L 502.878133 256.06368 
L 503.792138 258.50304 
L 504.706143 258.05952 
L 505.620147 256.06368 
L 506.534152 257.39424 
L 507.448157 257.39424 
L 508.362162 254.95488 
L 509.276167 255.3984 
L 510.190172 254.51136 
L 511.104177 254.95488 
L 512.018182 252.51552 
L 512.932187 255.84192 
L 513.846192 256.06368 
L 514.760197 253.84608 
L 515.674201 257.616 
L 516.588206 256.72896 
L 517.502211 250.51968 
L 518.416216 250.07616 
L 519.330221 253.40256 
L 520.244226 255.62016 
L 521.158231 249.41088 
L 522.072236 251.40672 
L 522.986241 250.51968 
L 523.900246 254.06784 
L 524.814251 254.06784 
L 525.728256 250.51968 
L 526.64226 248.96736 
L 527.556265 249.63264 
L 528.47027 248.96736 
L 529.384275 249.18912 
L 530.29828 253.1808 
L 531.212285 250.9632 
L 532.12629 247.85856 
L 533.040295 251.62848 
L 533.9543 247.41504 
L 534.868305 248.96736 
L 535.78231 245.4192 
L 536.696314 246.97152 
L 537.610319 242.0928 
L 538.524324 245.64096 
L 539.438329 247.19328 
L 540.352334 249.18912 
L 541.266339 244.97568 
L 542.180344 246.08448 
L 543.094349 246.97152 
L 544.008354 245.19744 
L 544.922359 246.528 
L 545.836364 248.08032 
L 546.750369 249.8544 
L 547.664373 244.75392 
L 548.578378 246.97152 
L 549.492383 247.19328 
L 550.406388 240.54048 
L 551.320393 244.53216 
L 552.234398 243.42336 
L 553.148403 241.64928 
L 554.062408 247.41504 
L 555.890418 242.75808 
L 556.804423 244.08864 
L 557.718428 244.53216 
L 558.632432 242.75808 
L 559.546437 242.0928 
L 560.460442 244.3104 
L 561.374447 242.53632 
L 562.288452 242.75808 
L 563.202457 245.86272 
L 564.116462 242.75808 
L 565.030467 241.87104 
L 566.858477 242.31456 
L 567.772482 241.87104 
L 568.686486 238.98816 
L 569.600491 238.98816 
L 570.514496 239.43168 
L 571.428501 243.42336 
L 572.342506 243.64512 
L 573.256511 242.0928 
L 574.170516 242.0928 
L 575.084521 233.44416 
L 575.998526 241.64928 
L 576.912531 240.31872 
L 577.826536 236.10528 
L 578.740541 242.0928 
L 579.654545 244.08864 
L 580.56855 239.8752 
L 581.482555 233.66592 
L 582.39656 242.53632 
L 583.310565 235.66176 
L 584.22457 238.98816 
L 585.138575 233.66592 
L 586.05258 239.20992 
L 586.966585 237.21408 
L 587.88059 238.32288 
L 588.794595 238.54464 
L 589.7086 241.64928 
L 590.622604 239.43168 
L 591.536609 237.6576 
L 592.450614 239.20992 
L 593.364619 238.32288 
L 594.278624 240.76224 
L 595.192629 240.984 
L 596.106634 236.77056 
L 597.020639 237.6576 
L 597.934644 241.20576 
L 598.848649 240.984 
L 599.762654 238.10112 
L 600.676658 241.87104 
L 601.590663 241.64928 
L 602.504668 235.88352 
L 603.418673 232.77888 
L 604.332678 232.1136 
L 605.246683 233.00064 
L 606.160688 237.43584 
L 607.074693 238.10112 
L 607.988698 235.66176 
L 608.902703 234.10944 
L 610.730713 234.55296 
L 611.644717 231.22656 
L 612.558722 236.32704 
L 613.472727 236.77056 
L 614.386732 233.66592 
L 615.300737 239.8752 
L 616.214742 233.00064 
L 617.128747 232.77888 
L 618.042752 234.3312 
L 618.956757 235.44 
L 619.870762 236.99232 
L 620.784767 231.67008 
L 621.698771 235.44 
L 622.612776 236.99232 
L 623.526781 231.0048 
L 624.440786 235.66176 
L 625.354791 231.0048 
L 626.268796 231.89184 
L 627.182801 235.44 
L 628.096806 236.5488 
L 629.010811 232.55712 
L 629.924816 231.22656 
L 630.838821 234.99648 
L 631.752826 236.77056 
L 632.66683 233.44416 
L 633.580835 232.77888 
L 634.49484 237.87936 
L 635.408845 235.44 
L 636.32285 232.55712 
L 637.236855 231.67008 
L 638.15086 230.11776 
L 639.064865 230.56128 
L 639.97887 228.56544 
L 640.892875 230.78304 
L 641.80688 230.78304 
L 642.720885 228.56544 
L 643.634889 230.56128 
L 644.548894 231.0048 
L 645.462899 227.45664 
L 646.376904 225.90432 
L 647.290909 227.45664 
L 648.204914 227.6784 
L 649.118919 228.56544 
L 650.032924 225.4608 
L 650.946929 223.02144 
L 651.860934 225.68256 
L 652.774939 227.45664 
L 653.688943 228.56544 
L 654.602948 230.11776 
L 655.516953 227.45664 
L 656.430958 227.01312 
L 657.344963 228.34368 
L 659.172973 227.45664 
L 660.086978 224.79552 
L 661.000983 228.12192 
L 661.914988 225.68256 
L 662.828993 222.79968 
L 663.742998 221.91264 
L 664.657002 225.23904 
L 665.571007 224.57376 
L 666.485012 223.46496 
L 667.399017 222.57792 
L 668.313022 227.23488 
L 669.227027 227.90016 
L 671.055037 218.58624 
L 671.969042 226.5696 
L 672.883047 223.2432 
L 673.797052 225.90432 
L 674.711057 223.02144 
L 675.625061 219.02976 
L 676.539066 219.69504 
L 677.453071 216.5904 
L 678.367076 219.9168 
L 679.281081 221.91264 
L 680.195086 221.69088 
L 681.109091 217.6992 
L 682.023096 219.02976 
L 682.937101 221.46912 
L 683.851106 220.80384 
L 684.765111 218.36448 
L 686.59312 223.90848 
L 687.507125 225.68256 
L 688.42113 222.35616 
L 689.335135 222.1344 
L 690.24914 220.58208 
L 691.163145 222.79968 
L 692.07715 217.6992 
L 692.991155 220.13856 
L 693.90516 219.25152 
L 694.819165 225.01728 
L 695.73317 217.92096 
L 696.647174 223.02144 
L 697.561179 216.14688 
L 698.475184 221.0256 
L 699.389189 221.46912 
L 700.303194 222.57792 
L 701.217199 217.92096 
L 702.131204 221.24736 
L 703.045209 219.02976 
L 703.959214 221.69088 
L 704.873219 219.69504 
L 705.787224 216.81216 
L 706.701229 214.3728 
L 707.615233 216.36864 
L 708.529238 221.69088 
L 710.357248 215.92512 
L 711.271253 212.59872 
L 712.185258 217.47744 
L 714.013268 220.13856 
L 714.927273 216.36864 
L 715.841278 220.80384 
L 716.755283 216.81216 
L 717.669287 216.36864 
L 718.583292 217.25568 
L 719.497297 217.25568 
L 720.411302 218.808 
L 721.325307 218.36448 
L 722.239312 213.70752 
L 723.153317 213.70752 
L 724.067322 217.25568 
L 724.981327 212.1552 
L 725.895332 212.82048 
L 726.809337 216.36864 
L 727.723342 213.70752 
L 728.637346 213.48576 
L 729.551351 219.47328 
L 730.465356 211.26816 
L 731.379361 215.92512 
L 732.293366 215.25984 
L 733.207371 217.47744 
L 735.035381 217.92096 
L 735.949386 218.808 
L 736.863391 215.70336 
L 737.777396 220.13856 
L 738.6914 215.03808 
L 739.605405 215.70336 
L 740.51941 214.59456 
L 741.433415 219.69504 
L 742.34742 217.03392 
L 743.261425 213.92928 
L 744.17543 217.25568 
L 745.089435 212.82048 
L 746.00344 213.04224 
L 746.917445 218.14272 
L 747.83145 211.26816 
L 748.745455 212.37696 
L 749.659459 212.82048 
L 750.573464 211.48992 
L 751.487469 209.05056 
L 752.401474 215.03808 
L 753.315479 213.92928 
L 754.229484 215.25984 
L 755.143489 212.1552 
L 756.057494 214.3728 
L 756.971499 215.92512 
L 757.885504 211.71168 
L 758.799509 210.60288 
L 759.713514 210.60288 
L 760.627518 209.9376 
L 761.541523 212.59872 
L 762.455528 214.81632 
L 763.369533 208.60704 
L 764.283538 208.38528 
L 765.197543 210.38112 
L 766.111548 208.38528 
L 767.025553 207.27648 
L 767.939558 207.94176 
L 768.853563 208.8288 
L 769.767568 208.8288 
L 770.681572 204.17184 
L 771.595577 211.26816 
L 772.509582 206.6112 
L 773.423587 204.83712 
L 774.337592 206.16768 
L 775.251597 204.83712 
L 776.165602 208.16352 
L 777.079607 206.38944 
L 777.993612 205.5024 
L 778.907617 206.16768 
L 779.821622 207.94176 
L 780.735627 207.94176 
L 781.649631 208.16352 
L 782.563636 210.38112 
L 783.477641 210.15936 
L 784.391646 208.38528 
L 785.305651 210.82464 
L 786.219656 207.49824 
L 787.133661 209.05056 
L 788.047666 204.61536 
L 788.961671 208.16352 
L 789.875676 207.05472 
L 790.789681 207.49824 
L 791.703686 209.9376 
L 792.61769 206.38944 
L 793.531695 205.94592 
L 794.4457 205.28064 
L 795.359705 202.84128 
L 796.27371 211.26816 
L 797.187715 204.3936 
L 798.10172 205.28064 
L 799.015725 209.9376 
L 799.92973 208.16352 
L 800.843735 206.83296 
L 801.75774 206.38944 
L 802.671744 205.28064 
L 803.585749 207.94176 
L 804.499754 206.16768 
L 805.413759 212.82048 
L 806.327764 205.72416 
L 807.241769 209.71584 
L 809.069779 205.05888 
L 809.983784 203.50656 
L 810.897789 202.61952 
L 811.811794 202.39776 
L 812.725799 207.27648 
L 813.639803 207.05472 
L 814.553808 199.51488 
L 815.467813 203.72832 
L 816.381818 205.28064 
L 817.295823 199.07136 
L 818.209828 200.84544 
L 819.123833 208.16352 
L 820.037838 202.39776 
L 820.951843 202.176 
L 821.865848 201.73248 
L 822.779853 203.50656 
L 823.693857 203.72832 
L 824.607862 201.28896 
L 825.521867 204.61536 
L 826.435872 201.0672 
L 827.349877 205.05888 
L 828.263882 201.28896 
L 829.177887 198.8496 
L 830.091892 195.74496 
L 831.919902 203.06304 
L 832.833907 203.2848 
L 834.661916 196.632 
L 835.575921 199.9584 
L 836.489926 195.96672 
L 837.403931 196.85376 
L 838.317936 198.18432 
L 839.231941 197.96256 
L 840.145946 196.85376 
L 841.059951 195.5232 
L 841.973956 194.63616 
L 842.887961 200.62368 
L 843.801966 197.96256 
L 844.715971 201.51072 
L 845.629975 195.30144 
L 846.54398 194.85792 
L 847.457985 200.62368 
L 848.37199 196.632 
L 849.285995 198.8496 
L 850.2 196.18848 
L 851.114005 195.74496 
L 852.02801 196.41024 
L 852.942015 196.85376 
L 853.85602 198.40608 
L 854.770025 200.40192 
L 855.684029 200.18016 
L 856.598034 202.176 
L 857.512039 199.73664 
L 858.426044 200.18016 
L 859.340049 203.2848 
L 860.254054 202.39776 
L 861.168059 201.0672 
L 862.082064 194.85792 
L 862.996069 197.07552 
L 863.910074 200.62368 
L 864.824079 196.18848 
L 865.738084 198.62784 
L 866.652088 199.07136 
L 867.566093 196.41024 
L 868.480098 200.40192 
L 869.394103 200.18016 
L 870.308108 194.63616 
L 871.222113 193.74912 
L 872.136118 196.632 
L 873.050123 195.96672 
L 873.964128 200.18016 
L 874.878133 196.85376 
L 875.792138 199.07136 
L 876.706143 200.18016 
L 877.620147 200.62368 
L 878.534152 196.85376 
L 879.448157 194.4144 
L 880.362162 194.4144 
L 881.276167 194.85792 
L 882.190172 200.18016 
L 883.104177 199.73664 
L 884.018182 194.85792 
L 884.932187 191.30976 
L 886.760197 196.632 
L 887.674201 195.30144 
L 888.588206 194.19264 
L 889.502211 195.96672 
L 890.416216 193.74912 
L 891.330221 193.97088 
L 892.244226 193.08384 
L 893.158231 195.74496 
L 894.072236 186.6528 
L 894.986241 191.53152 
L 895.900246 191.75328 
L 897.728256 192.64032 
L 898.64226 189.9792 
L 899.556265 194.63616 
L 900.47027 192.41856 
L 901.384275 190.64448 
L 902.29828 188.20512 
L 903.212285 193.97088 
L 904.12629 189.09216 
L 905.040295 189.9792 
L 905.9543 189.75744 
L 906.868305 196.41024 
L 907.78231 191.53152 
L 908.696314 194.85792 
L 909.610319 191.088 
L 910.524324 193.3056 
L 911.438329 190.64448 
L 912.352334 193.3056 
L 913.266339 193.74912 
L 914.180344 190.20096 
L 915.094349 191.53152 
L 916.008354 195.5232 
L 916.922359 194.4144 
L 917.836364 192.64032 
L 918.750369 192.64032 
L 919.664373 195.07968 
L 920.578378 196.18848 
L 921.492383 196.41024 
L 922.406388 191.30976 
L 923.320393 192.64032 
L 924.234398 196.18848 
L 925.148403 191.53152 
L 926.062408 188.42688 
L 926.976413 191.088 
L 927.890418 188.8704 
L 928.804423 190.42272 
L 929.718428 191.53152 
L 930.632432 191.53152 
L 931.546437 188.64864 
L 932.460442 184.4352 
L 933.374447 189.31392 
L 934.288452 191.30976 
L 935.202457 189.9792 
L 936.116462 186.43104 
L 937.030467 189.31392 
L 937.944472 189.31392 
L 938.858477 190.64448 
L 939.772482 190.42272 
L 940.686486 188.8704 
L 941.600491 191.97504 
L 942.514496 191.088 
L 943.428501 186.6528 
L 944.342506 195.74496 
L 945.256511 194.4144 
L 946.170516 184.21344 
L 947.084521 191.088 
L 947.998526 190.64448 
L 948.912531 191.97504 
L 949.826536 192.64032 
L 950.740541 193.08384 
L 951.654545 191.30976 
L 952.56855 190.20096 
L 953.482555 192.41856 
L 954.39656 195.30144 
L 955.310565 193.52736 
L 956.22457 189.09216 
L 957.138575 185.32224 
L 958.05258 188.64864 
L 958.966585 190.42272 
L 959.88059 190.20096 
L 960.794595 188.20512 
L 961.7086 187.09632 
L 962.622604 185.32224 
L 963.536609 183.99168 
L 964.450614 188.64864 
L 965.364619 192.64032 
L 966.278624 188.20512 
L 967.192629 191.97504 
L 968.106634 184.21344 
L 969.020639 191.97504 
L 969.934644 189.09216 
L 970.848649 190.20096 
L 971.762654 184.87872 
L 972.676658 187.98336 
L 973.590663 185.544 
L 974.504668 187.09632 
L 975.418673 185.32224 
L 976.332678 188.64864 
L 977.246683 184.87872 
L 978.160688 187.98336 
L 979.074693 185.98752 
L 979.988698 183.3264 
L 980.902703 185.544 
L 981.816708 182.88288 
L 982.730713 189.75744 
L 983.644717 188.8704 
L 984.558722 191.30976 
L 985.472727 189.9792 
L 986.386732 186.43104 
L 987.300737 186.43104 
L 988.214742 188.8704 
L 989.128747 188.42688 
L 990.042752 189.75744 
L 990.956757 185.76576 
L 991.870762 183.99168 
L 992.784767 185.544 
L 993.698771 184.4352 
L 994.612776 182.88288 
L 995.526781 188.20512 
L 996.440786 188.20512 
L 997.354791 183.76992 
L 998.268796 187.09632 
L 999.182801 184.87872 
L 1000.096806 184.4352 
L 1001.010811 186.20928 
L 1001.924816 186.6528 
L 1002.838821 187.7616 
L 1003.752826 187.7616 
L 1004.66683 188.20512 
L 1005.580835 193.3056 
L 1006.49484 188.20512 
L 1008.32285 183.54816 
L 1009.236855 188.20512 
L 1010.15086 184.21344 
L 1011.064865 185.544 
L 1011.97887 184.21344 
L 1012.892875 188.20512 
L 1013.80688 190.20096 
L 1014.720885 190.42272 
L 1015.634889 185.98752 
L 1016.548894 185.544 
L 1017.462899 190.86624 
L 1018.376904 187.53984 
L 1019.290909 190.42272 
L 1020.204914 187.31808 
L 1021.118919 186.6528 
L 1022.032924 184.87872 
L 1022.946929 189.75744 
L 1023.860934 189.31392 
L 1024.774939 185.98752 
L 1025.688943 185.98752 
L 1026.602948 187.53984 
L 1027.516953 187.31808 
L 1028.430958 181.1088 
L 1029.344963 181.33056 
L 1030.258968 185.98752 
L 1031.172973 185.76576 
L 1032.086978 184.87872 
L 1033.000983 182.43936 
L 1033.914988 185.10048 
L 1034.828993 184.4352 
L 1035.742998 183.99168 
L 1036.657002 184.4352 
L 1037.571007 179.11296 
L 1038.485012 182.88288 
L 1039.399017 185.76576 
L 1040.313022 189.31392 
L 1041.227027 182.66112 
L 1042.141032 183.3264 
L 1043.969042 182.88288 
L 1044.883047 183.54816 
L 1045.797052 181.77408 
L 1046.711057 185.32224 
L 1047.625061 180.22176 
L 1048.539066 185.76576 
L 1049.453071 181.99584 
L 1050.367076 184.65696 
L 1051.281081 180.66528 
L 1052.195086 183.54816 
L 1053.109091 188.42688 
L 1054.023096 178.8912 
L 1054.937101 183.10464 
L 1055.851106 181.33056 
L 1056.765111 183.99168 
L 1057.679115 185.10048 
L 1058.59312 181.77408 
L 1059.507125 181.99584 
L 1060.42113 186.6528 
L 1061.335135 181.77408 
L 1062.24914 184.65696 
L 1063.163145 180 
L 1064.07715 187.31808 
L 1065.90516 180 
L 1066.819165 182.43936 
L 1067.73317 183.3264 
L 1068.647174 183.3264 
L 1069.561179 184.65696 
L 1070.475184 183.3264 
L 1071.389189 181.1088 
L 1072.303194 181.99584 
L 1073.217199 188.20512 
L 1074.131204 181.99584 
L 1075.045209 181.77408 
L 1075.959214 180.44352 
L 1076.873219 178.22592 
L 1077.787224 183.3264 
L 1078.701229 174.89952 
L 1079.615233 176.23008 
L 1080.529238 177.33888 
L 1082.357248 187.09632 
L 1084.185258 183.99168 
L 1085.099263 182.66112 
L 1086.927273 178.8912 
L 1087.841278 178.00416 
L 1088.755283 176.89536 
L 1089.669287 177.33888 
L 1091.497297 185.32224 
L 1092.411302 179.11296 
L 1093.325307 179.55648 
L 1094.239312 179.33472 
L 1095.153317 179.55648 
L 1096.067322 184.65696 
L 1096.981327 185.76576 
L 1097.895332 179.55648 
L 1098.809337 181.99584 
L 1099.723342 180.66528 
L 1100.637346 180.66528 
L 1101.551351 173.79072 
L 1102.465356 178.8912 
L 1104.293366 173.3472 
L 1105.207371 181.1088 
L 1106.121376 180.22176 
L 1107.035381 177.11712 
L 1107.949386 179.77824 
L 1108.863391 182.88288 
L 1109.777396 179.77824 
L 1110.6914 181.77408 
L 1111.605405 178.44768 
L 1112.51941 181.1088 
L 1113.433415 179.33472 
L 1114.34742 183.10464 
L 1115.261425 177.33888 
L 1116.17543 175.78656 
L 1117.089435 177.11712 
L 1118.00344 178.8912 
L 1118.917445 176.45184 
L 1119.83145 178.44768 
L 1120.745455 179.33472 
L 1120.745455 179.33472 
" style="fill:none;stroke:#808080;stroke-linecap:square;stroke-width:1.5;"/>
   </g>
   <g id="line2d_14">
    <path clip-path="url(#p74c9017497)" d="M 207.654545 464.73984 
L 208.56855 467.84448 
L 209.482555 473.38848 
L 210.39656 462.96576 
L 211.310565 473.16672 
L 212.22457 472.05792 
L 213.138575 462.07872 
L 214.05258 469.84032 
L 214.966585 464.07456 
L 215.88059 471.17088 
L 216.794595 320.8176 
L 217.7086 405.75168 
L 218.622604 439.68096 
L 219.536609 460.74816 
L 220.450614 460.96992 
L 221.364619 469.3968 
L 222.278624 473.61024 
L 223.192629 467.84448 
L 225.020639 448.3296 
L 225.934644 443.00736 
L 226.848649 431.6976 
L 227.762654 430.5888 
L 228.676658 434.13696 
L 229.590663 438.3504 
L 230.504668 443.67264 
L 231.418673 447.2208 
L 232.332678 448.10784 
L 233.246683 440.12448 
L 234.160688 443.67264 
L 235.074693 446.33376 
L 235.988698 444.33792 
L 236.902703 441.01152 
L 237.816708 440.78976 
L 238.730713 443.22912 
L 239.644717 438.57216 
L 240.558722 436.57632 
L 241.472727 435.024 
L 242.386732 434.13696 
L 243.300737 433.02816 
L 244.214742 435.68928 
L 245.128747 439.68096 
L 246.956757 431.91936 
L 247.870762 436.57632 
L 248.784767 433.69344 
L 249.698771 438.3504 
L 250.612776 434.35872 
L 251.526781 424.37952 
L 252.440786 433.9152 
L 254.268796 428.81472 
L 255.182801 433.02816 
L 257.010811 426.1536 
L 257.924816 424.15776 
L 258.838821 427.48416 
L 259.752826 423.27072 
L 260.66683 428.3712 
L 261.580835 427.2624 
L 262.49484 425.26656 
L 263.408845 428.14944 
L 264.32285 422.16192 
L 265.236855 413.73504 
L 266.15086 420.83136 
L 267.064865 421.7184 
L 267.97887 427.92768 
L 268.892875 421.27488 
L 269.80688 409.5216 
L 270.720885 421.7184 
L 271.634889 404.86464 
L 272.548894 406.1952 
L 273.462899 416.83968 
L 274.376904 405.75168 
L 275.290909 415.0656 
L 276.204914 411.96096 
L 277.118919 411.07392 
L 278.032924 400.42944 
L 278.946929 407.74752 
L 279.860934 409.07808 
L 280.774939 399.5424 
L 281.688943 399.98592 
L 282.602948 406.1952 
L 283.516953 406.1952 
L 284.430958 405.52992 
L 285.344963 397.10304 
L 286.258968 399.98592 
L 287.172973 397.76832 
L 288.086978 394.66368 
L 289.000983 388.01088 
L 289.914988 388.89792 
L 290.828993 386.01504 
L 291.742998 391.11552 
L 292.657002 388.4544 
L 293.571007 390.00672 
L 295.399017 393.9984 
L 296.313022 385.79328 
L 297.227027 382.02336 
L 298.141032 382.46688 
L 299.055037 379.80576 
L 299.969042 374.48352 
L 300.883047 374.26176 
L 301.797052 380.02752 
L 302.711057 376.70112 
L 303.625061 372.26592 
L 304.539066 370.93536 
L 305.453071 365.39136 
L 306.367076 366.2784 
L 307.281081 375.59232 
L 308.195086 373.15296 
L 309.109091 375.37056 
L 310.023096 365.61312 
L 310.937101 366.2784 
L 311.851106 367.16544 
L 312.765111 364.94784 
L 313.679115 362.06496 
L 314.59312 353.41632 
L 315.507125 356.74272 
L 316.42113 357.62976 
L 317.335135 346.09824 
L 318.24914 361.39968 
L 319.163145 353.41632 
L 320.07715 348.31584 
L 320.991155 340.776 
L 321.90516 349.86816 
L 322.819165 347.4288 
L 323.73317 346.09824 
L 324.647174 344.54592 
L 325.561179 343.21536 
L 326.475184 339.22368 
L 327.389189 339.44544 
L 328.303194 341.44128 
L 329.217199 342.32832 
L 330.131204 335.232 
L 331.045209 331.9056 
L 331.959214 330.13152 
L 332.873219 325.2528 
L 334.701229 320.59584 
L 335.615233 316.60416 
L 336.529238 314.60832 
L 337.443243 307.29024 
L 338.357248 315.2736 
L 339.271253 315.71712 
L 340.185258 310.61664 
L 341.099263 309.50784 
L 342.013268 311.72544 
L 342.927273 308.17728 
L 343.841278 312.83424 
L 344.755283 311.28192 
L 345.669287 310.17312 
L 346.583292 308.17728 
L 347.497297 313.27776 
L 348.411302 313.94304 
L 349.325307 307.06848 
L 350.239312 301.08096 
L 351.153317 298.41984 
L 352.067322 294.87168 
L 352.981327 294.2064 
L 353.895332 295.75872 
L 354.809337 296.64576 
L 355.723342 294.2064 
L 356.637346 297.08928 
L 357.551351 294.2064 
L 358.465356 294.2064 
L 359.379361 289.10592 
L 360.293366 288.21888 
L 361.207371 287.11008 
L 362.121376 286.88832 
L 363.949386 283.78368 
L 364.863391 280.45728 
L 365.777396 278.23968 
L 366.6914 280.01376 
L 367.605405 276.02208 
L 368.51941 277.79616 
L 369.433415 275.13504 
L 370.34742 271.58688 
L 371.261425 268.704 
L 372.17543 270.03456 
L 373.089435 269.14752 
L 374.00344 266.4864 
L 374.917445 269.8128 
L 375.83145 266.04288 
L 376.745455 267.15168 
L 377.659459 265.3776 
L 378.573464 262.49472 
L 379.487469 260.9424 
L 381.315479 262.27296 
L 382.229484 260.49888 
L 383.143489 260.05536 
L 384.057494 257.83776 
L 384.971499 262.71648 
L 385.885504 259.39008 
L 386.799509 254.73312 
L 387.713514 254.51136 
L 388.627518 254.51136 
L 389.541523 251.85024 
L 390.455528 247.41504 
L 391.369533 243.86688 
L 392.283538 243.86688 
L 393.197543 243.2016 
L 394.111548 240.31872 
L 395.025553 239.43168 
L 395.939558 236.99232 
L 396.853563 232.1136 
L 397.767568 230.33952 
L 398.681572 231.22656 
L 399.595577 233.00064 
L 400.509582 232.1136 
L 401.423587 230.33952 
L 402.337592 231.22656 
L 403.251597 228.7872 
L 404.165602 233.2224 
L 405.079607 229.23072 
L 405.993612 228.56544 
L 406.907617 226.5696 
L 407.821622 229.00896 
L 409.649631 224.79552 
L 410.563636 223.68672 
L 411.477641 224.352 
L 413.305651 220.13856 
L 414.219656 219.02976 
L 415.133661 221.91264 
L 416.047666 222.1344 
L 416.961671 219.47328 
L 417.875676 216.14688 
L 418.789681 215.4816 
L 419.703686 215.92512 
L 420.61769 215.70336 
L 421.531695 214.3728 
L 422.4457 215.92512 
L 423.359705 212.1552 
L 424.27371 211.0464 
L 425.187715 213.264 
L 426.10172 213.70752 
L 427.015725 212.1552 
L 427.92973 211.71168 
L 428.843735 212.59872 
L 429.75774 208.60704 
L 430.671744 206.83296 
L 431.585749 207.94176 
L 432.499754 210.82464 
L 433.413759 208.16352 
L 434.327764 209.05056 
L 435.241769 208.8288 
L 436.155774 210.38112 
L 437.069779 210.38112 
L 437.983784 208.16352 
L 438.897789 208.8288 
L 439.811794 208.60704 
L 440.725799 208.8288 
L 441.639803 208.8288 
L 442.553808 205.05888 
L 443.467813 204.17184 
L 444.381818 201.0672 
L 445.295823 200.62368 
L 446.209828 201.51072 
L 447.123833 200.40192 
L 448.037838 200.18016 
L 448.951843 197.07552 
L 449.865848 197.96256 
L 450.779853 194.85792 
L 452.607862 197.07552 
L 453.521867 193.08384 
L 454.435872 192.86208 
L 455.349877 191.75328 
L 456.263882 194.63616 
L 457.177887 193.97088 
L 458.091892 194.63616 
L 459.005897 194.63616 
L 459.919902 193.3056 
L 460.833907 192.1968 
L 461.747912 190.64448 
L 462.661916 193.74912 
L 463.575921 190.86624 
L 464.489926 191.75328 
L 465.403931 193.3056 
L 466.317936 191.53152 
L 467.231941 190.64448 
L 468.145946 190.20096 
L 469.059951 188.64864 
L 469.973956 182.43936 
L 470.887961 182.88288 
L 471.801966 183.10464 
L 472.715971 181.55232 
L 473.629975 185.32224 
L 474.54398 185.10048 
L 475.457985 184.4352 
L 476.37199 185.98752 
L 477.285995 184.65696 
L 478.2 184.87872 
L 479.114005 183.54816 
L 480.02801 181.99584 
L 480.942015 179.11296 
L 481.85602 179.11296 
L 482.770025 181.55232 
L 483.684029 177.56064 
L 484.598034 175.34304 
L 485.512039 176.45184 
L 486.426044 179.11296 
L 487.340049 174.23424 
L 488.254054 175.34304 
L 489.168059 176.00832 
L 490.082064 177.11712 
L 490.996069 176.89536 
L 491.910074 177.11712 
L 492.824079 176.6736 
L 493.738084 178.44768 
L 494.652088 177.56064 
L 495.566093 177.11712 
L 496.480098 177.56064 
L 497.394103 176.6736 
L 498.308108 176.6736 
L 499.222113 176.00832 
L 500.136118 176.23008 
L 501.050123 172.01664 
L 501.964128 171.1296 
L 502.878133 170.0208 
L 503.792138 170.90784 
L 504.706143 169.35552 
L 505.620147 169.35552 
L 506.534152 167.58144 
L 507.448157 170.24256 
L 508.362162 168.02496 
L 509.276167 167.58144 
L 510.190172 166.02912 
L 511.104177 166.47264 
L 512.018182 167.35968 
L 512.932187 167.35968 
L 513.846192 169.13376 
L 514.760197 168.02496 
L 515.674201 168.912 
L 516.588206 168.02496 
L 517.502211 168.46848 
L 518.416216 166.02912 
L 519.330221 167.8032 
L 520.244226 168.46848 
L 521.158231 167.13792 
L 522.072236 167.35968 
L 522.986241 167.35968 
L 523.900246 163.81152 
L 524.814251 165.5856 
L 525.728256 163.58976 
L 526.64226 167.13792 
L 527.556265 164.92032 
L 528.47027 164.25504 
L 529.384275 166.02912 
L 530.29828 166.91616 
L 531.212285 167.13792 
L 532.12629 165.5856 
L 533.040295 164.69856 
L 533.9543 166.25088 
L 534.868305 168.912 
L 535.78231 170.0208 
L 536.696314 170.24256 
L 537.610319 170.90784 
L 538.524324 169.35552 
L 539.438329 169.13376 
L 540.352334 168.24672 
L 541.266339 169.79904 
L 542.180344 170.0208 
L 543.094349 169.57728 
L 544.008354 169.57728 
L 544.922359 169.13376 
L 545.836364 167.35968 
L 546.750369 170.0208 
L 547.664373 169.13376 
L 548.578378 168.46848 
L 549.492383 167.35968 
L 550.406388 168.46848 
L 551.320393 168.912 
L 552.234398 170.24256 
L 553.148403 168.46848 
L 554.062408 168.02496 
L 554.976413 165.80736 
L 555.890418 165.36384 
L 556.804423 166.47264 
L 557.718428 165.36384 
L 558.632432 165.5856 
L 559.546437 166.25088 
L 560.460442 165.5856 
L 561.374447 165.80736 
L 562.288452 165.14208 
L 563.202457 164.69856 
L 564.116462 163.58976 
L 565.030467 163.81152 
L 565.944472 165.14208 
L 567.772482 162.92448 
L 568.686486 164.92032 
L 569.600491 165.5856 
L 570.514496 163.58976 
L 571.428501 163.58976 
L 572.342506 163.368 
L 573.256511 165.80736 
L 574.170516 167.13792 
L 575.084521 164.4768 
L 575.998526 166.47264 
L 576.912531 164.69856 
L 577.826536 166.25088 
L 578.740541 167.35968 
L 579.654545 166.47264 
L 580.56855 166.6944 
L 582.39656 166.6944 
L 583.310565 166.91616 
L 584.22457 168.69024 
L 585.138575 167.13792 
L 586.05258 167.58144 
L 586.966585 168.24672 
L 587.88059 167.35968 
L 588.794595 167.8032 
L 589.7086 166.02912 
L 590.622604 166.6944 
L 591.536609 165.36384 
L 592.450614 164.92032 
L 593.364619 163.368 
L 595.192629 167.35968 
L 597.020639 162.92448 
L 597.934644 165.5856 
L 598.848649 163.368 
L 599.762654 164.69856 
L 600.676658 164.69856 
L 601.590663 163.81152 
L 602.504668 163.14624 
L 603.418673 163.58976 
L 604.332678 165.36384 
L 605.246683 165.14208 
L 606.160688 164.4768 
L 607.074693 162.48096 
L 607.988698 162.70272 
L 608.902703 163.368 
L 609.816708 163.58976 
L 610.730713 162.70272 
L 611.644717 162.92448 
L 612.558722 164.4768 
L 613.472727 164.25504 
L 614.386732 165.14208 
L 615.300737 162.70272 
L 616.214742 163.368 
L 617.128747 162.2592 
L 618.042752 161.81568 
L 618.956757 162.92448 
L 619.870762 162.70272 
L 620.784767 162.70272 
L 621.698771 162.03744 
L 622.612776 162.48096 
L 623.526781 163.368 
L 624.440786 163.81152 
L 625.354791 160.92864 
L 626.268796 158.71104 
L 627.182801 159.59808 
L 628.096806 160.0416 
L 629.010811 160.70688 
L 629.924816 160.0416 
L 630.838821 160.48512 
L 632.66683 160.0416 
L 633.580835 159.37632 
L 634.49484 158.26752 
L 635.408845 157.60224 
L 636.32285 158.71104 
L 637.236855 158.48928 
L 638.15086 158.04576 
L 639.064865 158.48928 
L 639.97887 158.48928 
L 640.892875 157.824 
L 641.80688 158.9328 
L 642.720885 159.15456 
L 643.634889 158.71104 
L 644.548894 156.04992 
L 645.462899 156.93696 
L 647.290909 155.16288 
L 648.204914 156.49344 
L 649.118919 158.26752 
L 650.032924 157.824 
L 651.860934 157.38048 
L 652.774939 156.27168 
L 653.688943 156.27168 
L 654.602948 154.71936 
L 655.516953 156.27168 
L 656.430958 156.49344 
L 657.344963 157.38048 
L 658.258968 157.824 
L 659.172973 156.49344 
L 660.086978 154.94112 
L 661.000983 157.15872 
L 661.914988 158.26752 
L 662.828993 157.824 
L 663.742998 156.27168 
L 664.657002 156.7152 
L 666.485012 158.9328 
L 667.399017 156.93696 
L 668.313022 157.38048 
L 669.227027 158.04576 
L 670.141032 157.38048 
L 671.055037 156.04992 
L 671.969042 155.6064 
L 672.883047 157.60224 
L 673.797052 156.04992 
L 675.625061 153.83232 
L 676.539066 154.4976 
L 677.453071 153.83232 
L 678.367076 154.71936 
L 679.281081 155.38464 
L 680.195086 155.38464 
L 681.109091 155.6064 
L 682.023096 156.04992 
L 682.937101 156.93696 
L 683.851106 156.27168 
L 684.765111 156.93696 
L 686.59312 155.16288 
L 687.507125 155.16288 
L 688.42113 154.4976 
L 689.335135 155.82816 
L 690.24914 155.16288 
L 691.163145 155.6064 
L 692.07715 154.4976 
L 693.90516 156.7152 
L 694.819165 155.6064 
L 695.73317 156.04992 
L 696.647174 155.38464 
L 697.561179 154.94112 
L 698.475184 155.82816 
L 699.389189 153.3888 
L 700.303194 154.4976 
L 701.217199 155.38464 
L 702.131204 154.71936 
L 703.045209 155.16288 
L 703.959214 154.4976 
L 704.873219 154.05408 
L 705.787224 155.16288 
L 706.701229 153.61056 
L 707.615233 153.83232 
L 708.529238 153.61056 
L 709.443243 154.27584 
L 710.357248 152.94528 
L 711.271253 152.72352 
L 712.185258 152.94528 
L 713.099263 152.72352 
L 714.927273 154.4976 
L 715.841278 154.05408 
L 716.755283 153.83232 
L 717.669287 154.05408 
L 718.583292 152.72352 
L 719.497297 153.3888 
L 720.411302 154.27584 
L 721.325307 153.83232 
L 722.239312 152.05824 
L 724.067322 152.50176 
L 724.981327 153.83232 
L 725.895332 152.28 
L 726.809337 151.61472 
L 727.723342 151.83648 
L 729.551351 150.94944 
L 730.465356 151.39296 
L 731.379361 151.61472 
L 732.293366 150.50592 
L 733.207371 150.0624 
L 735.035381 151.83648 
L 735.949386 150.72768 
L 736.863391 150.94944 
L 737.777396 152.28 
L 738.6914 152.05824 
L 739.605405 150.50592 
L 740.51941 150.72768 
L 741.433415 149.84064 
L 742.34742 151.1712 
L 744.17543 151.61472 
L 745.089435 151.39296 
L 746.00344 150.50592 
L 746.917445 150.94944 
L 747.83145 146.95776 
L 748.745455 149.84064 
L 749.659459 150.94944 
L 750.573464 149.61888 
L 751.487469 148.06656 
L 752.401474 147.62304 
L 753.315479 147.8448 
L 754.229484 150.0624 
L 755.143489 150.28416 
L 756.057494 150.72768 
L 756.971499 150.28416 
L 757.885504 150.72768 
L 758.799509 150.94944 
L 759.713514 150.94944 
L 761.541523 151.83648 
L 762.455528 150.72768 
L 764.283538 149.84064 
L 765.197543 150.50592 
L 766.111548 150.0624 
L 767.025553 149.39712 
L 767.939558 150.72768 
L 768.853563 150.28416 
L 769.767568 148.9536 
L 770.681572 148.06656 
L 771.595577 148.9536 
L 772.509582 149.61888 
L 773.423587 149.17536 
L 774.337592 148.28832 
L 775.251597 147.62304 
L 776.165602 146.51424 
L 777.079607 147.8448 
L 777.993612 149.84064 
L 779.821622 150.72768 
L 780.735627 150.0624 
L 781.649631 150.0624 
L 782.563636 149.61888 
L 784.391646 148.28832 
L 785.305651 148.06656 
L 786.219656 146.95776 
L 787.133661 145.40544 
L 788.047666 145.40544 
L 788.961671 145.18368 
L 789.875676 143.85312 
L 790.789681 143.85312 
L 791.703686 144.29664 
L 792.61769 145.6272 
L 793.531695 145.6272 
L 794.4457 146.51424 
L 795.359705 146.51424 
L 796.27371 145.40544 
L 797.187715 144.74016 
L 798.10172 143.85312 
L 799.015725 144.5184 
L 799.92973 144.96192 
L 800.843735 145.18368 
L 801.75774 144.07488 
L 802.671744 143.4096 
L 803.585749 144.07488 
L 804.499754 144.5184 
L 805.413759 144.5184 
L 806.327764 145.6272 
L 807.241769 146.29248 
L 808.155774 147.40128 
L 809.069779 147.62304 
L 809.983784 145.84896 
L 811.811794 145.40544 
L 812.725799 145.84896 
L 813.639803 145.18368 
L 814.553808 146.29248 
L 815.467813 145.18368 
L 816.381818 144.96192 
L 817.295823 144.07488 
L 818.209828 144.96192 
L 819.123833 144.74016 
L 820.037838 145.18368 
L 820.951843 146.51424 
L 821.865848 146.07072 
L 822.779853 146.736 
L 823.693857 145.40544 
L 824.607862 144.96192 
L 825.521867 142.52256 
L 826.435872 142.96608 
L 827.349877 142.96608 
L 828.263882 144.07488 
L 830.091892 144.5184 
L 831.005897 144.96192 
L 831.919902 144.96192 
L 832.833907 145.18368 
L 833.747912 146.29248 
L 834.661916 147.17952 
L 835.575921 146.736 
L 836.489926 146.51424 
L 837.403931 145.84896 
L 838.317936 145.6272 
L 839.231941 144.29664 
L 840.145946 143.63136 
L 841.059951 144.96192 
L 841.973956 144.07488 
L 842.887961 144.5184 
L 843.801966 143.63136 
L 844.715971 144.74016 
L 845.629975 144.5184 
L 846.54398 143.63136 
L 847.457985 143.4096 
L 848.37199 142.96608 
L 850.2 144.74016 
L 851.114005 143.85312 
L 852.02801 143.4096 
L 852.942015 144.07488 
L 853.85602 144.07488 
L 854.770025 143.4096 
L 855.684029 144.29664 
L 856.598034 145.6272 
L 857.512039 143.85312 
L 858.426044 144.5184 
L 859.340049 145.40544 
L 860.254054 144.29664 
L 861.168059 144.5184 
L 862.082064 144.07488 
L 862.996069 142.74432 
L 864.824079 141.41376 
L 865.738084 142.52256 
L 866.652088 142.52256 
L 867.566093 141.63552 
L 869.394103 142.96608 
L 870.308108 142.3008 
L 871.222113 142.3008 
L 873.050123 143.18784 
L 873.964128 144.5184 
L 874.878133 143.4096 
L 875.792138 143.18784 
L 876.706143 143.4096 
L 877.620147 142.07904 
L 878.534152 142.52256 
L 880.362162 142.52256 
L 881.276167 142.74432 
L 882.190172 141.63552 
L 883.104177 142.74432 
L 884.018182 142.96608 
L 884.932187 142.74432 
L 885.846192 143.85312 
L 886.760197 142.96608 
L 887.674201 143.18784 
L 888.588206 143.63136 
L 892.244226 143.63136 
L 893.158231 142.52256 
L 894.072236 142.3008 
L 894.986241 142.96608 
L 895.900246 142.96608 
L 896.814251 143.63136 
L 898.64226 143.18784 
L 899.556265 143.4096 
L 900.47027 142.96608 
L 901.384275 141.63552 
L 902.29828 141.41376 
L 905.040295 141.41376 
L 905.9543 141.63552 
L 906.868305 140.97024 
L 907.78231 140.97024 
L 908.696314 141.192 
L 909.610319 142.96608 
L 910.524324 141.192 
L 911.438329 142.07904 
L 912.352334 141.192 
L 913.266339 142.52256 
L 914.180344 141.63552 
L 915.094349 141.63552 
L 916.008354 140.30496 
L 916.922359 140.0832 
L 917.836364 139.63968 
L 919.664373 139.63968 
L 920.578378 138.9744 
L 921.492383 138.53088 
L 922.406388 139.19616 
L 924.234398 139.63968 
L 925.148403 140.52672 
L 926.062408 139.41792 
L 926.976413 140.0832 
L 927.890418 139.86144 
L 928.804423 138.9744 
L 929.718428 139.19616 
L 930.632432 138.30912 
L 931.546437 137.64384 
L 932.460442 137.64384 
L 933.374447 136.31328 
L 934.288452 136.53504 
L 935.202457 135.20448 
L 936.116462 135.86976 
L 937.030467 136.97856 
L 937.944472 136.09152 
L 938.858477 136.53504 
L 939.772482 135.86976 
L 940.686486 136.09152 
L 941.600491 136.09152 
L 942.514496 135.648 
L 943.428501 137.20032 
L 944.342506 137.20032 
L 945.256511 137.64384 
L 946.170516 136.7568 
L 947.084521 137.64384 
L 947.998526 138.75264 
L 948.912531 138.53088 
L 949.826536 139.19616 
L 950.740541 138.9744 
L 951.654545 138.53088 
L 952.56855 139.19616 
L 953.482555 138.9744 
L 954.39656 140.0832 
L 955.310565 139.41792 
L 956.22457 139.86144 
L 958.05258 141.63552 
L 958.966585 142.96608 
L 960.794595 141.192 
L 961.7086 142.52256 
L 962.622604 142.96608 
L 963.536609 142.74432 
L 964.450614 143.18784 
L 965.364619 143.4096 
L 966.278624 143.18784 
L 967.192629 141.63552 
L 968.106634 141.85728 
L 969.020639 141.41376 
L 969.934644 141.41376 
L 970.848649 140.97024 
L 971.762654 140.97024 
L 972.676658 139.86144 
L 973.590663 139.86144 
L 974.504668 140.74848 
L 975.418673 140.74848 
L 976.332678 141.41376 
L 977.246683 140.97024 
L 978.160688 139.19616 
L 979.074693 139.86144 
L 979.988698 140.30496 
L 980.902703 139.63968 
L 981.816708 140.74848 
L 982.730713 141.192 
L 983.644717 141.192 
L 984.558722 140.30496 
L 985.472727 140.30496 
L 986.386732 140.74848 
L 987.300737 140.74848 
L 988.214742 139.63968 
L 990.042752 140.97024 
L 990.956757 140.0832 
L 991.870762 139.63968 
L 992.784767 139.41792 
L 993.698771 140.30496 
L 994.612776 139.63968 
L 995.526781 139.41792 
L 997.354791 139.41792 
L 998.268796 139.19616 
L 999.182801 138.75264 
L 1000.096806 137.8656 
L 1001.010811 137.20032 
L 1001.924816 138.08736 
L 1002.838821 138.30912 
L 1003.752826 137.20032 
L 1004.66683 136.97856 
L 1005.580835 136.97856 
L 1006.49484 138.08736 
L 1008.32285 138.08736 
L 1009.236855 137.8656 
L 1010.15086 136.53504 
L 1011.064865 138.08736 
L 1011.97887 137.8656 
L 1012.892875 138.53088 
L 1013.80688 138.9744 
L 1014.720885 138.75264 
L 1015.634889 138.75264 
L 1016.548894 137.8656 
L 1017.462899 138.08736 
L 1018.376904 137.8656 
L 1019.290909 138.53088 
L 1020.204914 137.64384 
L 1021.118919 137.64384 
L 1022.032924 138.30912 
L 1022.946929 137.8656 
L 1023.860934 137.8656 
L 1024.774939 138.08736 
L 1025.688943 137.8656 
L 1026.602948 138.9744 
L 1027.516953 138.30912 
L 1029.344963 138.75264 
L 1031.172973 138.75264 
L 1032.086978 139.19616 
L 1033.000983 138.75264 
L 1033.914988 139.63968 
L 1034.828993 139.19616 
L 1036.657002 139.19616 
L 1037.571007 138.75264 
L 1038.485012 139.19616 
L 1039.399017 138.9744 
L 1040.313022 140.74848 
L 1041.227027 140.30496 
L 1042.141032 140.0832 
L 1043.055037 138.9744 
L 1043.969042 139.41792 
L 1044.883047 138.9744 
L 1045.797052 138.08736 
L 1046.711057 138.75264 
L 1047.625061 138.75264 
L 1049.453071 138.30912 
L 1050.367076 137.42208 
L 1052.195086 136.97856 
L 1053.109091 137.64384 
L 1054.023096 137.20032 
L 1054.937101 136.53504 
L 1055.851106 136.53504 
L 1056.765111 136.7568 
L 1057.679115 137.8656 
L 1058.59312 138.08736 
L 1060.42113 138.08736 
L 1061.335135 138.30912 
L 1062.24914 137.8656 
L 1063.163145 137.8656 
L 1064.07715 138.08736 
L 1064.991155 137.42208 
L 1065.90516 137.42208 
L 1066.819165 136.7568 
L 1067.73317 137.20032 
L 1068.647174 137.42208 
L 1069.561179 137.20032 
L 1070.475184 136.09152 
L 1071.389189 136.09152 
L 1072.303194 135.42624 
L 1073.217199 135.20448 
L 1074.131204 134.31744 
L 1075.045209 134.31744 
L 1075.959214 133.65216 
L 1076.873219 134.98272 
L 1077.787224 134.98272 
L 1078.701229 135.20448 
L 1079.615233 134.98272 
L 1080.529238 135.648 
L 1081.443243 135.86976 
L 1082.357248 135.42624 
L 1083.271253 135.648 
L 1084.185258 136.09152 
L 1085.099263 136.31328 
L 1086.013268 136.7568 
L 1086.927273 136.53504 
L 1087.841278 136.53504 
L 1088.755283 136.09152 
L 1090.583292 135.648 
L 1091.497297 134.98272 
L 1092.411302 134.09568 
L 1093.325307 134.09568 
L 1094.239312 133.87392 
L 1095.153317 135.20448 
L 1096.067322 135.20448 
L 1096.981327 136.09152 
L 1097.895332 135.86976 
L 1098.809337 135.86976 
L 1100.637346 137.20032 
L 1101.551351 136.97856 
L 1102.465356 137.20032 
L 1103.379361 136.53504 
L 1104.293366 136.31328 
L 1105.207371 136.97856 
L 1106.121376 135.648 
L 1107.035381 136.31328 
L 1107.949386 136.09152 
L 1108.863391 136.31328 
L 1109.777396 136.97856 
L 1110.6914 137.8656 
L 1111.605405 138.9744 
L 1112.51941 138.75264 
L 1113.433415 139.19616 
L 1114.34742 138.75264 
L 1115.261425 137.8656 
L 1116.17543 137.64384 
L 1117.089435 136.7568 
L 1118.00344 137.8656 
L 1118.917445 137.8656 
L 1119.83145 136.97856 
L 1120.745455 136.53504 
L 1120.745455 136.53504 
" style="fill:none;stroke:#1e90ff;stroke-linecap:square;stroke-width:1.5;"/>
   </g>
   <g id="patch_3">
    <path d="M 162 512.64 
L 162 69.12 
" style="fill:none;stroke:#000000;stroke-linecap:square;stroke-linejoin:miter;stroke-width:0.8;"/>
   </g>
   <g id="patch_4">
    <path d="M 162 512.64 
L 1166.4 512.64 
" style="fill:none;stroke:#000000;stroke-linecap:square;stroke-linejoin:miter;stroke-width:0.8;"/>
   </g>
   <g id="legend_1">
    <g id="patch_5">
     <path d="M 887.4 502.64 
L 1152.4 502.64 
Q 1156.4 502.64 1156.4 498.64 
L 1156.4 397.0925 
Q 1156.4 393.0925 1152.4 393.0925 
L 887.4 393.0925 
Q 883.4 393.0925 883.4 397.0925 
L 883.4 498.64 
Q 883.4 502.64 887.4 502.64 
z
" style="fill:#ffffff;opacity:0.8;stroke:#cccccc;stroke-linejoin:miter;"/>
    </g>
    <g id="line2d_15">
     <path d="M 891.4 422.566875 
L 931.4 422.566875 
" style="fill:none;stroke:#808080;stroke-linecap:square;stroke-width:1.5;"/>
    </g>
    <g id="line2d_16"/>
    <g id="text_15">
     <!-- Realistic, greedy -->
     <g transform="translate(947.4 416.289375)scale(0.2 -0.2)">
      <defs>
       <path d="M 44.390625 34.1875 
Q 47.5625 33.109375 50.5625 29.59375 
Q 53.5625 26.078125 56.59375 19.921875 
L 66.609375 0 
L 56 0 
L 46.6875 18.703125 
Q 43.0625 26.03125 39.671875 28.421875 
Q 36.28125 30.8125 30.421875 30.8125 
L 19.671875 30.8125 
L 19.671875 0 
L 9.8125 0 
L 9.8125 72.90625 
L 32.078125 72.90625 
Q 44.578125 72.90625 50.734375 67.671875 
Q 56.890625 62.453125 56.890625 51.90625 
Q 56.890625 45.015625 53.6875 40.46875 
Q 50.484375 35.9375 44.390625 34.1875 
z
M 19.671875 64.796875 
L 19.671875 38.921875 
L 32.078125 38.921875 
Q 39.203125 38.921875 42.84375 42.21875 
Q 46.484375 45.515625 46.484375 51.90625 
Q 46.484375 58.296875 42.84375 61.546875 
Q 39.203125 64.796875 32.078125 64.796875 
z
" id="DejaVuSans-82"/>
       <path d="M 11.71875 12.40625 
L 22.015625 12.40625 
L 22.015625 4 
L 14.015625 -11.625 
L 7.71875 -11.625 
L 11.71875 4 
z
" id="DejaVuSans-44"/>
       <path d="M 45.40625 27.984375 
Q 45.40625 37.75 41.375 43.109375 
Q 37.359375 48.484375 30.078125 48.484375 
Q 22.859375 48.484375 18.828125 43.109375 
Q 14.796875 37.75 14.796875 27.984375 
Q 14.796875 18.265625 18.828125 12.890625 
Q 22.859375 7.515625 30.078125 7.515625 
Q 37.359375 7.515625 41.375 12.890625 
Q 45.40625 18.265625 45.40625 27.984375 
z
M 54.390625 6.78125 
Q 54.390625 -7.171875 48.1875 -13.984375 
Q 42 -20.796875 29.203125 -20.796875 
Q 24.46875 -20.796875 20.265625 -20.09375 
Q 16.0625 -19.390625 12.109375 -17.921875 
L 12.109375 -9.1875 
Q 16.0625 -11.328125 19.921875 -12.34375 
Q 23.78125 -13.375 27.78125 -13.375 
Q 36.625 -13.375 41.015625 -8.765625 
Q 45.40625 -4.15625 45.40625 5.171875 
L 45.40625 9.625 
Q 42.625 4.78125 38.28125 2.390625 
Q 33.9375 0 27.875 0 
Q 17.828125 0 11.671875 7.65625 
Q 5.515625 15.328125 5.515625 27.984375 
Q 5.515625 40.671875 11.671875 48.328125 
Q 17.828125 56 27.875 56 
Q 33.9375 56 38.28125 53.609375 
Q 42.625 51.21875 45.40625 46.390625 
L 45.40625 54.6875 
L 54.390625 54.6875 
z
" id="DejaVuSans-103"/>
       <path d="M 41.109375 46.296875 
Q 39.59375 47.171875 37.8125 47.578125 
Q 36.03125 48 33.890625 48 
Q 26.265625 48 22.1875 43.046875 
Q 18.109375 38.09375 18.109375 28.8125 
L 18.109375 0 
L 9.078125 0 
L 9.078125 54.6875 
L 18.109375 54.6875 
L 18.109375 46.1875 
Q 20.953125 51.171875 25.484375 53.578125 
Q 30.03125 56 36.53125 56 
Q 37.453125 56 38.578125 55.875 
Q 39.703125 55.765625 41.0625 55.515625 
z
" id="DejaVuSans-114"/>
       <path d="M 45.40625 46.390625 
L 45.40625 75.984375 
L 54.390625 75.984375 
L 54.390625 0 
L 45.40625 0 
L 45.40625 8.203125 
Q 42.578125 3.328125 38.25 0.953125 
Q 33.9375 -1.421875 27.875 -1.421875 
Q 17.96875 -1.421875 11.734375 6.484375 
Q 5.515625 14.40625 5.515625 27.296875 
Q 5.515625 40.1875 11.734375 48.09375 
Q 17.96875 56 27.875 56 
Q 33.9375 56 38.25 53.625 
Q 42.578125 51.265625 45.40625 46.390625 
z
M 14.796875 27.296875 
Q 14.796875 17.390625 18.875 11.75 
Q 22.953125 6.109375 30.078125 6.109375 
Q 37.203125 6.109375 41.296875 11.75 
Q 45.40625 17.390625 45.40625 27.296875 
Q 45.40625 37.203125 41.296875 42.84375 
Q 37.203125 48.484375 30.078125 48.484375 
Q 22.953125 48.484375 18.875 42.84375 
Q 14.796875 37.203125 14.796875 27.296875 
z
" id="DejaVuSans-100"/>
       <path d="M 32.171875 -5.078125 
Q 28.375 -14.84375 24.75 -17.8125 
Q 21.140625 -20.796875 15.09375 -20.796875 
L 7.90625 -20.796875 
L 7.90625 -13.28125 
L 13.1875 -13.28125 
Q 16.890625 -13.28125 18.9375 -11.515625 
Q 21 -9.765625 23.484375 -3.21875 
L 25.09375 0.875 
L 2.984375 54.6875 
L 12.5 54.6875 
L 29.59375 11.921875 
L 46.6875 54.6875 
L 56.203125 54.6875 
z
" id="DejaVuSans-121"/>
      </defs>
      <use xlink:href="#DejaVuSans-82"/>
      <use x="64.982422" xlink:href="#DejaVuSans-101"/>
      <use x="126.505859" xlink:href="#DejaVuSans-97"/>
      <use x="187.785156" xlink:href="#DejaVuSans-108"/>
      <use x="215.568359" xlink:href="#DejaVuSans-105"/>
      <use x="243.351562" xlink:href="#DejaVuSans-115"/>
      <use x="295.451172" xlink:href="#DejaVuSans-116"/>
      <use x="334.660156" xlink:href="#DejaVuSans-105"/>
      <use x="362.443359" xlink:href="#DejaVuSans-99"/>
      <use x="417.423828" xlink:href="#DejaVuSans-44"/>
      <use x="449.210938" xlink:href="#DejaVuSans-32"/>
      <use x="480.998047" xlink:href="#DejaVuSans-103"/>
      <use x="544.474609" xlink:href="#DejaVuSans-114"/>
      <use x="583.337891" xlink:href="#DejaVuSans-101"/>
      <use x="644.861328" xlink:href="#DejaVuSans-101"/>
      <use x="706.384766" xlink:href="#DejaVuSans-100"/>
      <use x="769.861328" xlink:href="#DejaVuSans-121"/>
     </g>
     <!-- $Q_1=0, \varepsilon=0$ -->
     <g transform="translate(947.4 438.685)scale(0.2 -0.2)">
      <defs>
       <path d="M 30.421875 -2.203125 
Q 22.90625 -2.203125 17.09375 1.234375 
Q 11.28125 4.6875 8.125 10.8125 
Q 4.984375 16.9375 4.984375 24.421875 
Q 4.984375 35.296875 11.15625 46.09375 
Q 17.328125 56.890625 27.4375 63.703125 
Q 37.546875 70.515625 48.578125 70.515625 
Q 54.296875 70.515625 59.03125 68.453125 
Q 63.765625 66.40625 67.03125 62.765625 
Q 70.3125 59.125 72.09375 54.234375 
Q 73.875 49.359375 73.875 43.609375 
Q 73.875 36.96875 71.578125 30.25 
Q 69.28125 23.53125 65.171875 17.75 
Q 61.078125 11.96875 55.609375 7.5625 
Q 50.140625 3.171875 43.890625 0.59375 
Q 44.53125 -4 45.84375 -6.640625 
Q 47.171875 -9.28125 50.875 -9.28125 
Q 54.78125 -9.28125 58.21875 -6.4375 
Q 61.671875 -3.609375 62.59375 0.203125 
Q 62.796875 1.125 63.71875 1.125 
Q 64.796875 1.125 64.796875 -0.203125 
Q 64.0625 -3.421875 62.625 -6.71875 
Q 61.1875 -10.015625 59.15625 -12.859375 
Q 57.125 -15.71875 54.34375 -17.546875 
Q 51.5625 -19.390625 48.1875 -19.390625 
Q 39.796875 -19.390625 39.796875 -8.59375 
Q 39.796875 -7.953125 40.03125 -5.1875 
Q 40.28125 -2.4375 40.28125 -0.6875 
Q 35.453125 -2.203125 30.421875 -2.203125 
z
M 26.703125 4.6875 
Q 26.703125 0.6875 31.109375 0.6875 
Q 35.546875 0.6875 40.484375 2.875 
L 40.484375 3.8125 
Q 40.484375 7.859375 39.203125 10.125 
Q 37.9375 12.40625 34.28125 12.40625 
Q 32.46875 12.40625 30.6875 11.296875 
Q 28.90625 10.203125 27.796875 8.421875 
Q 26.703125 6.640625 26.703125 4.6875 
z
M 24.125 4.5 
Q 24.125 7.125 25.578125 9.5625 
Q 27.046875 12.015625 29.390625 13.5 
Q 31.734375 14.984375 34.421875 14.984375 
Q 38.765625 14.984375 40.734375 12.046875 
Q 42.71875 9.125 43.40625 4.390625 
Q 49.8125 8.203125 54.6875 15.28125 
Q 59.578125 22.359375 62.140625 30.828125 
Q 64.703125 39.3125 64.703125 46.921875 
Q 64.703125 52.4375 62.859375 57.125 
Q 61.03125 61.8125 57.25 64.6875 
Q 53.46875 67.578125 47.90625 67.578125 
Q 42.53125 67.578125 37.546875 64.9375 
Q 32.5625 62.3125 28.328125 57.90625 
Q 24.21875 53.65625 20.96875 47.375 
Q 17.71875 41.109375 15.953125 34.265625 
Q 14.203125 27.4375 14.203125 21.1875 
Q 14.203125 14.796875 16.6875 9.5625 
Q 19.1875 4.34375 24.515625 2 
Q 24.125 3.03125 24.125 4.5 
z
" id="Cmmi10-81"/>
       <path d="M 9.28125 0 
L 9.28125 3.515625 
Q 21.78125 3.515625 21.78125 6.6875 
L 21.78125 59.1875 
Q 16.609375 56.6875 8.6875 56.6875 
L 8.6875 60.203125 
Q 20.953125 60.203125 27.203125 66.609375 
L 28.609375 66.609375 
Q 28.953125 66.609375 29.265625 66.328125 
Q 29.59375 66.0625 29.59375 65.71875 
L 29.59375 6.6875 
Q 29.59375 3.515625 42.09375 3.515625 
L 42.09375 0 
z
" id="Cmr10-49"/>
       <path d="M 7.515625 13.28125 
Q 6.6875 13.28125 6.140625 13.90625 
Q 5.609375 14.546875 5.609375 15.28125 
Q 5.609375 16.109375 6.140625 16.6875 
Q 6.6875 17.28125 7.515625 17.28125 
L 70.3125 17.28125 
Q 71.046875 17.28125 71.578125 16.6875 
Q 72.125 16.109375 72.125 15.28125 
Q 72.125 14.546875 71.578125 13.90625 
Q 71.046875 13.28125 70.3125 13.28125 
z
M 7.515625 32.71875 
Q 6.6875 32.71875 6.140625 33.296875 
Q 5.609375 33.890625 5.609375 34.71875 
Q 5.609375 35.453125 6.140625 36.078125 
Q 6.6875 36.71875 7.515625 36.71875 
L 70.3125 36.71875 
Q 71.046875 36.71875 71.578125 36.078125 
Q 72.125 35.453125 72.125 34.71875 
Q 72.125 33.890625 71.578125 33.296875 
Q 71.046875 32.71875 70.3125 32.71875 
z
" id="Cmr10-61"/>
       <path d="M 25 -2.203125 
Q 12.75 -2.203125 8.328125 7.875 
Q 3.90625 17.96875 3.90625 31.890625 
Q 3.90625 40.578125 5.484375 48.234375 
Q 7.078125 55.90625 11.78125 61.25 
Q 16.5 66.609375 25 66.609375 
Q 31.59375 66.609375 35.78125 63.375 
Q 39.984375 60.15625 42.1875 55.046875 
Q 44.390625 49.953125 45.1875 44.109375 
Q 46 38.28125 46 31.890625 
Q 46 23.296875 44.40625 15.796875 
Q 42.828125 8.296875 38.1875 3.046875 
Q 33.546875 -2.203125 25 -2.203125 
z
M 25 0.390625 
Q 30.5625 0.390625 33.296875 6.09375 
Q 36.03125 11.8125 36.671875 18.75 
Q 37.3125 25.6875 37.3125 33.5 
Q 37.3125 41.015625 36.671875 47.359375 
Q 36.03125 53.71875 33.3125 58.859375 
Q 30.609375 64.015625 25 64.015625 
Q 19.34375 64.015625 16.609375 58.828125 
Q 13.875 53.65625 13.234375 47.328125 
Q 12.59375 41.015625 12.59375 33.5 
Q 12.59375 27.9375 12.859375 23 
Q 13.140625 18.0625 14.3125 12.8125 
Q 15.484375 7.5625 18.09375 3.96875 
Q 20.703125 0.390625 25 0.390625 
z
" id="Cmr10-48"/>
       <path d="M 9.90625 -18.015625 
Q 9.90625 -17.578125 10.296875 -17.1875 
Q 13.921875 -13.71875 15.921875 -9.171875 
Q 17.921875 -4.640625 17.921875 0.390625 
L 17.921875 1.609375 
Q 16.3125 0 13.921875 0 
Q 11.625 0 10.015625 1.609375 
Q 8.40625 3.21875 8.40625 5.515625 
Q 8.40625 7.859375 10.015625 9.421875 
Q 11.625 10.984375 13.921875 10.984375 
Q 17.484375 10.984375 19 7.6875 
Q 20.515625 4.390625 20.515625 0.390625 
Q 20.515625 -5.171875 18.28125 -10.171875 
Q 16.0625 -15.1875 12.015625 -19.1875 
Q 11.625 -19.390625 11.375 -19.390625 
Q 10.890625 -19.390625 10.390625 -18.9375 
Q 9.90625 -18.5 9.90625 -18.015625 
z
" id="Cmmi10-59"/>
       <path d="M 2.6875 10.40625 
Q 2.6875 13.140625 3.875 15.71875 
Q 5.078125 18.3125 7 20.359375 
Q 8.9375 22.40625 11.53125 24.03125 
Q 7.71875 26.65625 7.71875 30.8125 
Q 7.71875 35.25 11.421875 38.59375 
Q 15.140625 41.9375 20.5 43.625 
Q 25.875 45.3125 30.171875 45.3125 
Q 31.984375 45.3125 35.03125 44.5 
Q 38.09375 43.703125 40.375 42.375 
Q 42.671875 41.0625 42.671875 39.5 
Q 42.671875 38.328125 41.765625 37.421875 
Q 40.875 36.53125 39.796875 36.53125 
Q 39.359375 36.53125 37.578125 37.578125 
Q 35.796875 38.625 33.78125 39.453125 
Q 31.78125 40.28125 29.390625 40.28125 
Q 25.78125 40.28125 21.453125 39.421875 
Q 17.140625 38.578125 13.859375 36.453125 
Q 10.59375 34.328125 10.59375 30.90625 
Q 10.59375 27.640625 14.3125 25.390625 
Q 18.5 27.296875 22.90625 27.296875 
Q 30.71875 27.296875 30.71875 24.515625 
Q 30.71875 22.3125 28.046875 21.703125 
Q 25.390625 21.09375 21.921875 21.09375 
Q 17.234375 21.09375 14.203125 22.515625 
Q 10.890625 20.75 8.296875 17.578125 
Q 5.71875 14.40625 5.71875 10.984375 
Q 5.71875 7.765625 7.890625 5.953125 
Q 10.0625 4.15625 13.234375 3.46875 
Q 16.40625 2.78125 19.578125 2.78125 
Q 25.09375 2.78125 29.34375 3.96875 
Q 33.59375 5.171875 35.5 8.984375 
Q 35.796875 9.625 36.625 9.625 
Q 37.703125 9.28125 37.703125 8.296875 
Q 37.703125 8.203125 37.40625 7.328125 
Q 35.796875 4.15625 32.84375 2 
Q 29.890625 -0.140625 26.25 -1.171875 
Q 22.609375 -2.203125 18.796875 -2.203125 
Q 12.59375 -2.203125 7.640625 1.109375 
Q 2.6875 4.4375 2.6875 10.40625 
z
M 18.109375 24.03125 
Q 19.875 23.6875 22.125 23.6875 
Q 26.515625 23.6875 27.59375 24.3125 
Q 26.21875 24.703125 22.796875 24.703125 
Q 20.3125 24.703125 18.109375 24.03125 
z
" id="Cmmi10-34"/>
      </defs>
      <use transform="translate(0 0.484375)" xlink:href="#Cmmi10-81"/>
      <use transform="translate(79.003906 -16.521875)scale(0.7)" xlink:href="#Cmr10-49"/>
      <use transform="translate(137.939844 0.484375)" xlink:href="#Cmr10-61"/>
      <use transform="translate(233.183984 0.484375)" xlink:href="#Cmr10-48"/>
      <use transform="translate(283.183984 0.484375)" xlink:href="#Cmmi10-59"/>
      <use transform="translate(328.428125 0.484375)" xlink:href="#Cmmi10-34"/>
      <use transform="translate(392.56875 0.484375)" xlink:href="#Cmr10-61"/>
      <use transform="translate(487.812891 0.484375)" xlink:href="#Cmr10-48"/>
     </g>
    </g>
    <g id="line2d_17">
     <path d="M 891.4 474.340625 
L 931.4 474.340625 
" style="fill:none;stroke:#1e90ff;stroke-linecap:square;stroke-width:1.5;"/>
    </g>
    <g id="line2d_18"/>
    <g id="text_16">
     <!-- Optimistic, $\varepsilon$-greedy -->
     <g transform="translate(947.4 468.044375)scale(0.2 -0.2)">
      <defs>
       <path d="M 4.890625 31.390625 
L 31.203125 31.390625 
L 31.203125 23.390625 
L 4.890625 23.390625 
z
" id="DejaVuSans-45"/>
      </defs>
      <use transform="translate(0 0.015625)" xlink:href="#DejaVuSans-79"/>
      <use transform="translate(78.710938 0.015625)" xlink:href="#DejaVuSans-112"/>
      <use transform="translate(142.1875 0.015625)" xlink:href="#DejaVuSans-116"/>
      <use transform="translate(181.396484 0.015625)" xlink:href="#DejaVuSans-105"/>
      <use transform="translate(209.179688 0.015625)" xlink:href="#DejaVuSans-109"/>
      <use transform="translate(306.591797 0.015625)" xlink:href="#DejaVuSans-105"/>
      <use transform="translate(334.375 0.015625)" xlink:href="#DejaVuSans-115"/>
      <use transform="translate(386.474609 0.015625)" xlink:href="#DejaVuSans-116"/>
      <use transform="translate(425.683594 0.015625)" xlink:href="#DejaVuSans-105"/>
      <use transform="translate(453.466797 0.015625)" xlink:href="#DejaVuSans-99"/>
      <use transform="translate(508.447266 0.015625)" xlink:href="#DejaVuSans-44"/>
      <use transform="translate(540.234375 0.015625)" xlink:href="#DejaVuSans-32"/>
      <use transform="translate(572.021484 0.015625)" xlink:href="#Cmmi10-34"/>
      <use transform="translate(618.603516 0.015625)" xlink:href="#DejaVuSans-45"/>
      <use transform="translate(654.6875 0.015625)" xlink:href="#DejaVuSans-103"/>
      <use transform="translate(718.164062 0.015625)" xlink:href="#DejaVuSans-114"/>
      <use transform="translate(759.277344 0.015625)" xlink:href="#DejaVuSans-101"/>
      <use transform="translate(820.800781 0.015625)" xlink:href="#DejaVuSans-101"/>
      <use transform="translate(882.324219 0.015625)" xlink:href="#DejaVuSans-100"/>
      <use transform="translate(945.800781 0.015625)" xlink:href="#DejaVuSans-121"/>
     </g>
     <!-- $Q_1=5, \varepsilon=0.1$ -->
     <g transform="translate(947.4 490.480625)scale(0.2 -0.2)">
      <defs>
       <path d="M 8.6875 11.375 
Q 9.71875 8.453125 11.84375 6.046875 
Q 13.96875 3.65625 16.875 2.3125 
Q 19.78125 0.984375 22.90625 0.984375 
Q 30.125 0.984375 32.859375 6.59375 
Q 35.59375 12.203125 35.59375 20.21875 
Q 35.59375 23.6875 35.46875 26.046875 
Q 35.359375 28.421875 34.8125 30.609375 
Q 33.890625 34.125 31.5625 36.765625 
Q 29.25 39.40625 25.875 39.40625 
Q 22.515625 39.40625 20.09375 38.375 
Q 17.671875 37.359375 16.15625 35.984375 
Q 14.65625 34.625 13.484375 33.109375 
Q 12.3125 31.59375 12.015625 31.5 
L 10.890625 31.5 
Q 10.640625 31.5 10.265625 31.8125 
Q 9.90625 32.125 9.90625 32.421875 
L 9.90625 65.828125 
Q 9.90625 66.0625 10.21875 66.328125 
Q 10.546875 66.609375 10.890625 66.609375 
L 11.1875 66.609375 
Q 17.921875 63.375 25.484375 63.375 
Q 32.90625 63.375 39.796875 66.609375 
L 40.09375 66.609375 
Q 40.4375 66.609375 40.71875 66.359375 
Q 41.015625 66.109375 41.015625 65.828125 
L 41.015625 64.890625 
Q 41.015625 64.40625 40.828125 64.40625 
Q 37.40625 59.859375 32.25 57.3125 
Q 27.09375 54.78125 21.578125 54.78125 
Q 17.578125 54.78125 13.375 55.90625 
L 13.375 37.015625 
Q 16.703125 39.703125 19.3125 40.84375 
Q 21.921875 42 25.984375 42 
Q 31.5 42 35.859375 38.8125 
Q 40.234375 35.640625 42.578125 30.53125 
Q 44.921875 25.4375 44.921875 20.125 
Q 44.921875 14.109375 41.96875 8.984375 
Q 39.015625 3.859375 33.9375 0.828125 
Q 28.859375 -2.203125 22.90625 -2.203125 
Q 17.96875 -2.203125 13.84375 0.328125 
Q 9.71875 2.875 7.34375 7.171875 
Q 4.984375 11.46875 4.984375 16.3125 
Q 4.984375 18.5625 6.4375 19.96875 
Q 7.90625 21.390625 10.109375 21.390625 
Q 12.3125 21.390625 13.796875 19.9375 
Q 15.28125 18.5 15.28125 16.3125 
Q 15.28125 14.15625 13.796875 12.671875 
Q 12.3125 11.1875 10.109375 11.1875 
Q 9.765625 11.1875 9.328125 11.25 
Q 8.890625 11.328125 8.6875 11.375 
z
" id="Cmr10-53"/>
       <path d="M 8.40625 5.515625 
Q 8.40625 7.765625 10.0625 9.375 
Q 11.71875 10.984375 13.921875 10.984375 
Q 15.28125 10.984375 16.59375 10.25 
Q 17.921875 9.515625 18.65625 8.203125 
Q 19.390625 6.890625 19.390625 5.515625 
Q 19.390625 3.328125 17.765625 1.65625 
Q 16.15625 0 13.921875 0 
Q 11.71875 0 10.0625 1.65625 
Q 8.40625 3.328125 8.40625 5.515625 
z
" id="Cmmi10-58"/>
      </defs>
      <use transform="translate(0 0.484375)" xlink:href="#Cmmi10-81"/>
      <use transform="translate(79.003906 -16.521875)scale(0.7)" xlink:href="#Cmr10-49"/>
      <use transform="translate(137.939844 0.484375)" xlink:href="#Cmr10-61"/>
      <use transform="translate(233.183984 0.484375)" xlink:href="#Cmr10-53"/>
      <use transform="translate(283.183984 0.484375)" xlink:href="#Cmmi10-59"/>
      <use transform="translate(328.428125 0.484375)" xlink:href="#Cmmi10-34"/>
      <use transform="translate(392.56875 0.484375)" xlink:href="#Cmr10-61"/>
      <use transform="translate(487.812891 0.484375)" xlink:href="#Cmr10-48"/>
      <use transform="translate(537.812891 0.484375)" xlink:href="#Cmmi10-58"/>
      <use transform="translate(565.498438 0.484375)" xlink:href="#Cmr10-49"/>
     </g>
    </g>
   </g>
  </g>
 </g>
 <defs>
  <clipPath id="p74c9017497">
   <rect height="443.52" width="1004.4" x="162" y="69.12"/>
  </clipPath>
 </defs>
</svg>
