<?xml version="1.0" encoding="utf-8" standalone="no"?>
<!DOCTYPE svg PUBLIC "-//W3C//DTD SVG 1.1//EN"
  "http://www.w3.org/Graphics/SVG/1.1/DTD/svg11.dtd">
<!-- Created with matplotlib (https://matplotlib.org/) -->
<svg height="720.72pt" version="1.1" viewBox="0 0 720 720.72" width="720pt" xmlns="http://www.w3.org/2000/svg" xmlns:xlink="http://www.w3.org/1999/xlink">
 <metadata>
  <rdf:RDF xmlns:cc="http://creativecommons.org/ns#" xmlns:dc="http://purl.org/dc/elements/1.1/" xmlns:rdf="http://www.w3.org/1999/02/22-rdf-syntax-ns#">
   <cc:Work>
    <dc:type rdf:resource="http://purl.org/dc/dcmitype/StillImage"/>
    <dc:date>2021-03-18T19:07:51.180154</dc:date>
    <dc:format>image/svg+xml</dc:format>
    <dc:creator>
     <cc:Agent>
      <dc:title>Matplotlib v3.3.4, https://matplotlib.org/</dc:title>
     </cc:Agent>
    </dc:creator>
   </cc:Work>
  </rdf:RDF>
 </metadata>
 <defs>
  <style type="text/css">*{stroke-linecap:butt;stroke-linejoin:round;}</style>
 </defs>
 <g id="figure_1">
  <g id="patch_1">
   <path d="M 0 720.72 
L 720 720.72 
L 720 0 
L 0 0 
z
" style="fill:#ffffff;"/>
  </g>
  <g id="axes_1">
   <g id="patch_2">
    <path d="M 90 338.7384 
L 648 338.7384 
L 648 86.4864 
L 90 86.4864 
z
" style="fill:#ffffff;"/>
   </g>
   <g id="matplotlib.axis_1">
    <g id="xtick_1">
     <g id="line2d_1">
      <defs>
       <path d="M 0 0 
L 0 3.5 
" id="m6b351e60d0" style="stroke:#000000;stroke-width:0.8;"/>
      </defs>
      <g>
       <use style="stroke:#000000;stroke-width:0.8;" x="115.363636" xlink:href="#m6b351e60d0" y="338.7384"/>
      </g>
     </g>
     <g id="text_1">
      <!-- 0 -->
      <g transform="translate(112.182386 353.336838)scale(0.1 -0.1)">
       <defs>
        <path d="M 31.78125 66.40625 
Q 24.171875 66.40625 20.328125 58.90625 
Q 16.5 51.421875 16.5 36.375 
Q 16.5 21.390625 20.328125 13.890625 
Q 24.171875 6.390625 31.78125 6.390625 
Q 39.453125 6.390625 43.28125 13.890625 
Q 47.125 21.390625 47.125 36.375 
Q 47.125 51.421875 43.28125 58.90625 
Q 39.453125 66.40625 31.78125 66.40625 
z
M 31.78125 74.21875 
Q 44.046875 74.21875 50.515625 64.515625 
Q 56.984375 54.828125 56.984375 36.375 
Q 56.984375 17.96875 50.515625 8.265625 
Q 44.046875 -1.421875 31.78125 -1.421875 
Q 19.53125 -1.421875 13.0625 8.265625 
Q 6.59375 17.96875 6.59375 36.375 
Q 6.59375 54.828125 13.0625 64.515625 
Q 19.53125 74.21875 31.78125 74.21875 
z
" id="DejaVuSans-48"/>
       </defs>
       <use xlink:href="#DejaVuSans-48"/>
      </g>
     </g>
    </g>
    <g id="xtick_2">
     <g id="line2d_2">
      <g>
       <use style="stroke:#000000;stroke-width:0.8;" x="216.818182" xlink:href="#m6b351e60d0" y="338.7384"/>
      </g>
     </g>
     <g id="text_2">
      <!-- 20 -->
      <g transform="translate(210.455682 353.336838)scale(0.1 -0.1)">
       <defs>
        <path d="M 19.1875 8.296875 
L 53.609375 8.296875 
L 53.609375 0 
L 7.328125 0 
L 7.328125 8.296875 
Q 12.9375 14.109375 22.625 23.890625 
Q 32.328125 33.6875 34.8125 36.53125 
Q 39.546875 41.84375 41.421875 45.53125 
Q 43.3125 49.21875 43.3125 52.78125 
Q 43.3125 58.59375 39.234375 62.25 
Q 35.15625 65.921875 28.609375 65.921875 
Q 23.96875 65.921875 18.8125 64.3125 
Q 13.671875 62.703125 7.8125 59.421875 
L 7.8125 69.390625 
Q 13.765625 71.78125 18.9375 73 
Q 24.125 74.21875 28.421875 74.21875 
Q 39.75 74.21875 46.484375 68.546875 
Q 53.21875 62.890625 53.21875 53.421875 
Q 53.21875 48.921875 51.53125 44.890625 
Q 49.859375 40.875 45.40625 35.40625 
Q 44.1875 33.984375 37.640625 27.21875 
Q 31.109375 20.453125 19.1875 8.296875 
z
" id="DejaVuSans-50"/>
       </defs>
       <use xlink:href="#DejaVuSans-50"/>
       <use x="63.623047" xlink:href="#DejaVuSans-48"/>
      </g>
     </g>
    </g>
    <g id="xtick_3">
     <g id="line2d_3">
      <g>
       <use style="stroke:#000000;stroke-width:0.8;" x="318.272727" xlink:href="#m6b351e60d0" y="338.7384"/>
      </g>
     </g>
     <g id="text_3">
      <!-- 40 -->
      <g transform="translate(311.910227 353.336838)scale(0.1 -0.1)">
       <defs>
        <path d="M 37.796875 64.3125 
L 12.890625 25.390625 
L 37.796875 25.390625 
z
M 35.203125 72.90625 
L 47.609375 72.90625 
L 47.609375 25.390625 
L 58.015625 25.390625 
L 58.015625 17.1875 
L 47.609375 17.1875 
L 47.609375 0 
L 37.796875 0 
L 37.796875 17.1875 
L 4.890625 17.1875 
L 4.890625 26.703125 
z
" id="DejaVuSans-52"/>
       </defs>
       <use xlink:href="#DejaVuSans-52"/>
       <use x="63.623047" xlink:href="#DejaVuSans-48"/>
      </g>
     </g>
    </g>
    <g id="xtick_4">
     <g id="line2d_4">
      <g>
       <use style="stroke:#000000;stroke-width:0.8;" x="419.727273" xlink:href="#m6b351e60d0" y="338.7384"/>
      </g>
     </g>
     <g id="text_4">
      <!-- 60 -->
      <g transform="translate(413.364773 353.336838)scale(0.1 -0.1)">
       <defs>
        <path d="M 33.015625 40.375 
Q 26.375 40.375 22.484375 35.828125 
Q 18.609375 31.296875 18.609375 23.390625 
Q 18.609375 15.53125 22.484375 10.953125 
Q 26.375 6.390625 33.015625 6.390625 
Q 39.65625 6.390625 43.53125 10.953125 
Q 47.40625 15.53125 47.40625 23.390625 
Q 47.40625 31.296875 43.53125 35.828125 
Q 39.65625 40.375 33.015625 40.375 
z
M 52.59375 71.296875 
L 52.59375 62.3125 
Q 48.875 64.0625 45.09375 64.984375 
Q 41.3125 65.921875 37.59375 65.921875 
Q 27.828125 65.921875 22.671875 59.328125 
Q 17.53125 52.734375 16.796875 39.40625 
Q 19.671875 43.65625 24.015625 45.921875 
Q 28.375 48.1875 33.59375 48.1875 
Q 44.578125 48.1875 50.953125 41.515625 
Q 57.328125 34.859375 57.328125 23.390625 
Q 57.328125 12.15625 50.6875 5.359375 
Q 44.046875 -1.421875 33.015625 -1.421875 
Q 20.359375 -1.421875 13.671875 8.265625 
Q 6.984375 17.96875 6.984375 36.375 
Q 6.984375 53.65625 15.1875 63.9375 
Q 23.390625 74.21875 37.203125 74.21875 
Q 40.921875 74.21875 44.703125 73.484375 
Q 48.484375 72.75 52.59375 71.296875 
z
" id="DejaVuSans-54"/>
       </defs>
       <use xlink:href="#DejaVuSans-54"/>
       <use x="63.623047" xlink:href="#DejaVuSans-48"/>
      </g>
     </g>
    </g>
    <g id="xtick_5">
     <g id="line2d_5">
      <g>
       <use style="stroke:#000000;stroke-width:0.8;" x="521.181818" xlink:href="#m6b351e60d0" y="338.7384"/>
      </g>
     </g>
     <g id="text_5">
      <!-- 80 -->
      <g transform="translate(514.819318 353.336838)scale(0.1 -0.1)">
       <defs>
        <path d="M 31.78125 34.625 
Q 24.75 34.625 20.71875 30.859375 
Q 16.703125 27.09375 16.703125 20.515625 
Q 16.703125 13.921875 20.71875 10.15625 
Q 24.75 6.390625 31.78125 6.390625 
Q 38.8125 6.390625 42.859375 10.171875 
Q 46.921875 13.96875 46.921875 20.515625 
Q 46.921875 27.09375 42.890625 30.859375 
Q 38.875 34.625 31.78125 34.625 
z
M 21.921875 38.8125 
Q 15.578125 40.375 12.03125 44.71875 
Q 8.5 49.078125 8.5 55.328125 
Q 8.5 64.0625 14.71875 69.140625 
Q 20.953125 74.21875 31.78125 74.21875 
Q 42.671875 74.21875 48.875 69.140625 
Q 55.078125 64.0625 55.078125 55.328125 
Q 55.078125 49.078125 51.53125 44.71875 
Q 48 40.375 41.703125 38.8125 
Q 48.828125 37.15625 52.796875 32.3125 
Q 56.78125 27.484375 56.78125 20.515625 
Q 56.78125 9.90625 50.3125 4.234375 
Q 43.84375 -1.421875 31.78125 -1.421875 
Q 19.734375 -1.421875 13.25 4.234375 
Q 6.78125 9.90625 6.78125 20.515625 
Q 6.78125 27.484375 10.78125 32.3125 
Q 14.796875 37.15625 21.921875 38.8125 
z
M 18.3125 54.390625 
Q 18.3125 48.734375 21.84375 45.5625 
Q 25.390625 42.390625 31.78125 42.390625 
Q 38.140625 42.390625 41.71875 45.5625 
Q 45.3125 48.734375 45.3125 54.390625 
Q 45.3125 60.0625 41.71875 63.234375 
Q 38.140625 66.40625 31.78125 66.40625 
Q 25.390625 66.40625 21.84375 63.234375 
Q 18.3125 60.0625 18.3125 54.390625 
z
" id="DejaVuSans-56"/>
       </defs>
       <use xlink:href="#DejaVuSans-56"/>
       <use x="63.623047" xlink:href="#DejaVuSans-48"/>
      </g>
     </g>
    </g>
    <g id="xtick_6">
     <g id="line2d_6">
      <g>
       <use style="stroke:#000000;stroke-width:0.8;" x="622.636364" xlink:href="#m6b351e60d0" y="338.7384"/>
      </g>
     </g>
     <g id="text_6">
      <!-- 100 -->
      <g transform="translate(613.092614 353.336838)scale(0.1 -0.1)">
       <defs>
        <path d="M 12.40625 8.296875 
L 28.515625 8.296875 
L 28.515625 63.921875 
L 10.984375 60.40625 
L 10.984375 69.390625 
L 28.421875 72.90625 
L 38.28125 72.90625 
L 38.28125 8.296875 
L 54.390625 8.296875 
L 54.390625 0 
L 12.40625 0 
z
" id="DejaVuSans-49"/>
       </defs>
       <use xlink:href="#DejaVuSans-49"/>
       <use x="63.623047" xlink:href="#DejaVuSans-48"/>
       <use x="127.246094" xlink:href="#DejaVuSans-48"/>
      </g>
     </g>
    </g>
    <g id="text_7">
     <!-- Capital -->
     <g transform="translate(351.467969 367.014963)scale(0.1 -0.1)">
      <defs>
       <path d="M 64.40625 67.28125 
L 64.40625 56.890625 
Q 59.421875 61.53125 53.78125 63.8125 
Q 48.140625 66.109375 41.796875 66.109375 
Q 29.296875 66.109375 22.65625 58.46875 
Q 16.015625 50.828125 16.015625 36.375 
Q 16.015625 21.96875 22.65625 14.328125 
Q 29.296875 6.6875 41.796875 6.6875 
Q 48.140625 6.6875 53.78125 8.984375 
Q 59.421875 11.28125 64.40625 15.921875 
L 64.40625 5.609375 
Q 59.234375 2.09375 53.4375 0.328125 
Q 47.65625 -1.421875 41.21875 -1.421875 
Q 24.65625 -1.421875 15.125 8.703125 
Q 5.609375 18.84375 5.609375 36.375 
Q 5.609375 53.953125 15.125 64.078125 
Q 24.65625 74.21875 41.21875 74.21875 
Q 47.75 74.21875 53.53125 72.484375 
Q 59.328125 70.75 64.40625 67.28125 
z
" id="DejaVuSans-67"/>
       <path d="M 34.28125 27.484375 
Q 23.390625 27.484375 19.1875 25 
Q 14.984375 22.515625 14.984375 16.5 
Q 14.984375 11.71875 18.140625 8.90625 
Q 21.296875 6.109375 26.703125 6.109375 
Q 34.1875 6.109375 38.703125 11.40625 
Q 43.21875 16.703125 43.21875 25.484375 
L 43.21875 27.484375 
z
M 52.203125 31.203125 
L 52.203125 0 
L 43.21875 0 
L 43.21875 8.296875 
Q 40.140625 3.328125 35.546875 0.953125 
Q 30.953125 -1.421875 24.3125 -1.421875 
Q 15.921875 -1.421875 10.953125 3.296875 
Q 6 8.015625 6 15.921875 
Q 6 25.140625 12.171875 29.828125 
Q 18.359375 34.515625 30.609375 34.515625 
L 43.21875 34.515625 
L 43.21875 35.40625 
Q 43.21875 41.609375 39.140625 45 
Q 35.0625 48.390625 27.6875 48.390625 
Q 23 48.390625 18.546875 47.265625 
Q 14.109375 46.140625 10.015625 43.890625 
L 10.015625 52.203125 
Q 14.9375 54.109375 19.578125 55.046875 
Q 24.21875 56 28.609375 56 
Q 40.484375 56 46.34375 49.84375 
Q 52.203125 43.703125 52.203125 31.203125 
z
" id="DejaVuSans-97"/>
       <path d="M 18.109375 8.203125 
L 18.109375 -20.796875 
L 9.078125 -20.796875 
L 9.078125 54.6875 
L 18.109375 54.6875 
L 18.109375 46.390625 
Q 20.953125 51.265625 25.265625 53.625 
Q 29.59375 56 35.59375 56 
Q 45.5625 56 51.78125 48.09375 
Q 58.015625 40.1875 58.015625 27.296875 
Q 58.015625 14.40625 51.78125 6.484375 
Q 45.5625 -1.421875 35.59375 -1.421875 
Q 29.59375 -1.421875 25.265625 0.953125 
Q 20.953125 3.328125 18.109375 8.203125 
z
M 48.6875 27.296875 
Q 48.6875 37.203125 44.609375 42.84375 
Q 40.53125 48.484375 33.40625 48.484375 
Q 26.265625 48.484375 22.1875 42.84375 
Q 18.109375 37.203125 18.109375 27.296875 
Q 18.109375 17.390625 22.1875 11.75 
Q 26.265625 6.109375 33.40625 6.109375 
Q 40.53125 6.109375 44.609375 11.75 
Q 48.6875 17.390625 48.6875 27.296875 
z
" id="DejaVuSans-112"/>
       <path d="M 9.421875 54.6875 
L 18.40625 54.6875 
L 18.40625 0 
L 9.421875 0 
z
M 9.421875 75.984375 
L 18.40625 75.984375 
L 18.40625 64.59375 
L 9.421875 64.59375 
z
" id="DejaVuSans-105"/>
       <path d="M 18.3125 70.21875 
L 18.3125 54.6875 
L 36.8125 54.6875 
L 36.8125 47.703125 
L 18.3125 47.703125 
L 18.3125 18.015625 
Q 18.3125 11.328125 20.140625 9.421875 
Q 21.96875 7.515625 27.59375 7.515625 
L 36.8125 7.515625 
L 36.8125 0 
L 27.59375 0 
Q 17.1875 0 13.234375 3.875 
Q 9.28125 7.765625 9.28125 18.015625 
L 9.28125 47.703125 
L 2.6875 47.703125 
L 2.6875 54.6875 
L 9.28125 54.6875 
L 9.28125 70.21875 
z
" id="DejaVuSans-116"/>
       <path d="M 9.421875 75.984375 
L 18.40625 75.984375 
L 18.40625 0 
L 9.421875 0 
z
" id="DejaVuSans-108"/>
      </defs>
      <use xlink:href="#DejaVuSans-67"/>
      <use x="69.824219" xlink:href="#DejaVuSans-97"/>
      <use x="131.103516" xlink:href="#DejaVuSans-112"/>
      <use x="194.580078" xlink:href="#DejaVuSans-105"/>
      <use x="222.363281" xlink:href="#DejaVuSans-116"/>
      <use x="261.572266" xlink:href="#DejaVuSans-97"/>
      <use x="322.851562" xlink:href="#DejaVuSans-108"/>
     </g>
    </g>
   </g>
   <g id="matplotlib.axis_2">
    <g id="ytick_1">
     <g id="line2d_7">
      <defs>
       <path d="M 0 0 
L -3.5 0 
" id="mf29c9a1f19" style="stroke:#000000;stroke-width:0.8;"/>
      </defs>
      <g>
       <use style="stroke:#000000;stroke-width:0.8;" x="90" xlink:href="#mf29c9a1f19" y="327.2724"/>
      </g>
     </g>
     <g id="text_8">
      <!-- 0.0 -->
      <g transform="translate(67.096875 331.071619)scale(0.1 -0.1)">
       <defs>
        <path d="M 10.6875 12.40625 
L 21 12.40625 
L 21 0 
L 10.6875 0 
z
" id="DejaVuSans-46"/>
       </defs>
       <use xlink:href="#DejaVuSans-48"/>
       <use x="63.623047" xlink:href="#DejaVuSans-46"/>
       <use x="95.410156" xlink:href="#DejaVuSans-48"/>
      </g>
     </g>
    </g>
    <g id="ytick_2">
     <g id="line2d_8">
      <g>
       <use style="stroke:#000000;stroke-width:0.8;" x="90" xlink:href="#mf29c9a1f19" y="281.4084"/>
      </g>
     </g>
     <g id="text_9">
      <!-- 0.2 -->
      <g transform="translate(67.096875 285.207619)scale(0.1 -0.1)">
       <use xlink:href="#DejaVuSans-48"/>
       <use x="63.623047" xlink:href="#DejaVuSans-46"/>
       <use x="95.410156" xlink:href="#DejaVuSans-50"/>
      </g>
     </g>
    </g>
    <g id="ytick_3">
     <g id="line2d_9">
      <g>
       <use style="stroke:#000000;stroke-width:0.8;" x="90" xlink:href="#mf29c9a1f19" y="235.5444"/>
      </g>
     </g>
     <g id="text_10">
      <!-- 0.4 -->
      <g transform="translate(67.096875 239.343619)scale(0.1 -0.1)">
       <use xlink:href="#DejaVuSans-48"/>
       <use x="63.623047" xlink:href="#DejaVuSans-46"/>
       <use x="95.410156" xlink:href="#DejaVuSans-52"/>
      </g>
     </g>
    </g>
    <g id="ytick_4">
     <g id="line2d_10">
      <g>
       <use style="stroke:#000000;stroke-width:0.8;" x="90" xlink:href="#mf29c9a1f19" y="189.6804"/>
      </g>
     </g>
     <g id="text_11">
      <!-- 0.6 -->
      <g transform="translate(67.096875 193.479619)scale(0.1 -0.1)">
       <use xlink:href="#DejaVuSans-48"/>
       <use x="63.623047" xlink:href="#DejaVuSans-46"/>
       <use x="95.410156" xlink:href="#DejaVuSans-54"/>
      </g>
     </g>
    </g>
    <g id="ytick_5">
     <g id="line2d_11">
      <g>
       <use style="stroke:#000000;stroke-width:0.8;" x="90" xlink:href="#mf29c9a1f19" y="143.8164"/>
      </g>
     </g>
     <g id="text_12">
      <!-- 0.8 -->
      <g transform="translate(67.096875 147.615619)scale(0.1 -0.1)">
       <use xlink:href="#DejaVuSans-48"/>
       <use x="63.623047" xlink:href="#DejaVuSans-46"/>
       <use x="95.410156" xlink:href="#DejaVuSans-56"/>
      </g>
     </g>
    </g>
    <g id="ytick_6">
     <g id="line2d_12">
      <g>
       <use style="stroke:#000000;stroke-width:0.8;" x="90" xlink:href="#mf29c9a1f19" y="97.9524"/>
      </g>
     </g>
     <g id="text_13">
      <!-- 1.0 -->
      <g transform="translate(67.096875 101.751619)scale(0.1 -0.1)">
       <use xlink:href="#DejaVuSans-49"/>
       <use x="63.623047" xlink:href="#DejaVuSans-46"/>
       <use x="95.410156" xlink:href="#DejaVuSans-48"/>
      </g>
     </g>
    </g>
    <g id="text_14">
     <!-- Value estimates -->
     <g transform="translate(61.017187 252.538962)rotate(-90)scale(0.1 -0.1)">
      <defs>
       <path d="M 28.609375 0 
L 0.78125 72.90625 
L 11.078125 72.90625 
L 34.1875 11.53125 
L 57.328125 72.90625 
L 67.578125 72.90625 
L 39.796875 0 
z
" id="DejaVuSans-86"/>
       <path d="M 8.5 21.578125 
L 8.5 54.6875 
L 17.484375 54.6875 
L 17.484375 21.921875 
Q 17.484375 14.15625 20.5 10.265625 
Q 23.53125 6.390625 29.59375 6.390625 
Q 36.859375 6.390625 41.078125 11.03125 
Q 45.3125 15.671875 45.3125 23.6875 
L 45.3125 54.6875 
L 54.296875 54.6875 
L 54.296875 0 
L 45.3125 0 
L 45.3125 8.40625 
Q 42.046875 3.421875 37.71875 1 
Q 33.40625 -1.421875 27.6875 -1.421875 
Q 18.265625 -1.421875 13.375 4.4375 
Q 8.5 10.296875 8.5 21.578125 
z
M 31.109375 56 
z
" id="DejaVuSans-117"/>
       <path d="M 56.203125 29.59375 
L 56.203125 25.203125 
L 14.890625 25.203125 
Q 15.484375 15.921875 20.484375 11.0625 
Q 25.484375 6.203125 34.421875 6.203125 
Q 39.59375 6.203125 44.453125 7.46875 
Q 49.3125 8.734375 54.109375 11.28125 
L 54.109375 2.78125 
Q 49.265625 0.734375 44.1875 -0.34375 
Q 39.109375 -1.421875 33.890625 -1.421875 
Q 20.796875 -1.421875 13.15625 6.1875 
Q 5.515625 13.8125 5.515625 26.8125 
Q 5.515625 40.234375 12.765625 48.109375 
Q 20.015625 56 32.328125 56 
Q 43.359375 56 49.78125 48.890625 
Q 56.203125 41.796875 56.203125 29.59375 
z
M 47.21875 32.234375 
Q 47.125 39.59375 43.09375 43.984375 
Q 39.0625 48.390625 32.421875 48.390625 
Q 24.90625 48.390625 20.390625 44.140625 
Q 15.875 39.890625 15.1875 32.171875 
z
" id="DejaVuSans-101"/>
       <path id="DejaVuSans-32"/>
       <path d="M 44.28125 53.078125 
L 44.28125 44.578125 
Q 40.484375 46.53125 36.375 47.5 
Q 32.28125 48.484375 27.875 48.484375 
Q 21.1875 48.484375 17.84375 46.4375 
Q 14.5 44.390625 14.5 40.28125 
Q 14.5 37.15625 16.890625 35.375 
Q 19.28125 33.59375 26.515625 31.984375 
L 29.59375 31.296875 
Q 39.15625 29.25 43.1875 25.515625 
Q 47.21875 21.78125 47.21875 15.09375 
Q 47.21875 7.46875 41.1875 3.015625 
Q 35.15625 -1.421875 24.609375 -1.421875 
Q 20.21875 -1.421875 15.453125 -0.5625 
Q 10.6875 0.296875 5.421875 2 
L 5.421875 11.28125 
Q 10.40625 8.6875 15.234375 7.390625 
Q 20.0625 6.109375 24.8125 6.109375 
Q 31.15625 6.109375 34.5625 8.28125 
Q 37.984375 10.453125 37.984375 14.40625 
Q 37.984375 18.0625 35.515625 20.015625 
Q 33.0625 21.96875 24.703125 23.78125 
L 21.578125 24.515625 
Q 13.234375 26.265625 9.515625 29.90625 
Q 5.8125 33.546875 5.8125 39.890625 
Q 5.8125 47.609375 11.28125 51.796875 
Q 16.75 56 26.8125 56 
Q 31.78125 56 36.171875 55.265625 
Q 40.578125 54.546875 44.28125 53.078125 
z
" id="DejaVuSans-115"/>
       <path d="M 52 44.1875 
Q 55.375 50.25 60.0625 53.125 
Q 64.75 56 71.09375 56 
Q 79.640625 56 84.28125 50.015625 
Q 88.921875 44.046875 88.921875 33.015625 
L 88.921875 0 
L 79.890625 0 
L 79.890625 32.71875 
Q 79.890625 40.578125 77.09375 44.375 
Q 74.3125 48.1875 68.609375 48.1875 
Q 61.625 48.1875 57.5625 43.546875 
Q 53.515625 38.921875 53.515625 30.90625 
L 53.515625 0 
L 44.484375 0 
L 44.484375 32.71875 
Q 44.484375 40.625 41.703125 44.40625 
Q 38.921875 48.1875 33.109375 48.1875 
Q 26.21875 48.1875 22.15625 43.53125 
Q 18.109375 38.875 18.109375 30.90625 
L 18.109375 0 
L 9.078125 0 
L 9.078125 54.6875 
L 18.109375 54.6875 
L 18.109375 46.1875 
Q 21.1875 51.21875 25.484375 53.609375 
Q 29.78125 56 35.6875 56 
Q 41.65625 56 45.828125 52.96875 
Q 50 49.953125 52 44.1875 
z
" id="DejaVuSans-109"/>
      </defs>
      <use xlink:href="#DejaVuSans-86"/>
      <use x="60.658203" xlink:href="#DejaVuSans-97"/>
      <use x="121.9375" xlink:href="#DejaVuSans-108"/>
      <use x="149.720703" xlink:href="#DejaVuSans-117"/>
      <use x="213.099609" xlink:href="#DejaVuSans-101"/>
      <use x="274.623047" xlink:href="#DejaVuSans-32"/>
      <use x="306.410156" xlink:href="#DejaVuSans-101"/>
      <use x="367.933594" xlink:href="#DejaVuSans-115"/>
      <use x="420.033203" xlink:href="#DejaVuSans-116"/>
      <use x="459.242188" xlink:href="#DejaVuSans-105"/>
      <use x="487.025391" xlink:href="#DejaVuSans-109"/>
      <use x="584.4375" xlink:href="#DejaVuSans-97"/>
      <use x="645.716797" xlink:href="#DejaVuSans-116"/>
      <use x="684.925781" xlink:href="#DejaVuSans-101"/>
      <use x="746.449219" xlink:href="#DejaVuSans-115"/>
     </g>
    </g>
   </g>
   <g id="line2d_13">
    <path clip-path="url(#pc346e6a079)" d="M 115.363636 327.2724 
L 120.436364 327.2724 
L 125.509091 327.2724 
L 130.581818 327.2724 
L 135.654545 327.2724 
L 140.727273 327.2724 
L 145.8 327.2724 
L 150.872727 327.2724 
L 155.945455 327.2724 
L 161.018182 327.2724 
L 166.090909 327.2724 
L 171.163636 327.2724 
L 176.236364 327.2724 
L 181.309091 327.2724 
L 186.381818 327.2724 
L 191.454545 327.2724 
L 196.527273 327.2724 
L 201.6 327.2724 
L 206.672727 327.2724 
L 211.745455 327.2724 
L 216.818182 327.2724 
L 221.890909 327.2724 
L 226.963636 327.2724 
L 232.036364 327.2724 
L 237.109091 327.2724 
L 242.181818 327.2724 
L 247.254545 327.2724 
L 252.327273 327.2724 
L 257.4 327.2724 
L 262.472727 327.2724 
L 267.545455 327.2724 
L 272.618182 327.2724 
L 277.690909 327.2724 
L 282.763636 327.2724 
L 287.836364 327.2724 
L 292.909091 327.2724 
L 297.981818 327.2724 
L 303.054545 327.2724 
L 308.127273 327.2724 
L 313.2 327.2724 
L 318.272727 327.2724 
L 323.345455 327.2724 
L 328.418182 327.2724 
L 333.490909 327.2724 
L 338.563636 327.2724 
L 343.636364 327.2724 
L 348.709091 327.2724 
L 353.781818 327.2724 
L 358.854545 327.2724 
L 363.927273 327.2724 
L 369 235.5444 
L 374.072727 235.5444 
L 379.145455 235.5444 
L 384.218182 235.5444 
L 389.290909 235.5444 
L 394.363636 235.5444 
L 399.436364 235.5444 
L 404.509091 235.5444 
L 409.581818 235.5444 
L 414.654545 235.5444 
L 419.727273 235.5444 
L 424.8 235.5444 
L 429.872727 235.5444 
L 434.945455 235.5444 
L 440.018182 235.5444 
L 445.090909 235.5444 
L 450.163636 235.5444 
L 455.236364 235.5444 
L 460.309091 235.5444 
L 465.381818 235.5444 
L 470.454545 235.5444 
L 475.527273 235.5444 
L 480.6 235.5444 
L 485.672727 235.5444 
L 490.745455 235.5444 
L 495.818182 180.5076 
L 500.890909 180.5076 
L 505.963636 180.5076 
L 511.036364 180.5076 
L 516.109091 180.5076 
L 521.181818 180.5076 
L 526.254545 180.5076 
L 531.327273 180.5076 
L 536.4 180.5076 
L 541.472727 180.5076 
L 546.545455 180.5076 
L 551.618182 180.5076 
L 556.690909 180.5076 
L 561.763636 147.48552 
L 566.836364 147.48552 
L 571.909091 147.48552 
L 576.981818 147.48552 
L 582.054545 147.48552 
L 587.127273 147.48552 
L 592.2 127.672272 
L 597.272727 127.672272 
L 602.345455 127.672272 
L 607.418182 115.784323 
L 612.490909 115.784323 
L 617.563636 108.651554 
L 622.636364 97.9524 
" style="fill:none;stroke:#1f77b4;stroke-linecap:square;stroke-width:1.5;"/>
   </g>
   <g id="line2d_14">
    <path clip-path="url(#pc346e6a079)" d="M 115.363636 327.2724 
L 120.436364 327.2724 
L 125.509091 327.2724 
L 130.581818 327.2724 
L 135.654545 327.2724 
L 140.727273 327.2724 
L 145.8 327.2724 
L 150.872727 327.2724 
L 155.945455 327.2724 
L 161.018182 327.2724 
L 166.090909 327.2724 
L 171.163636 327.2724 
L 176.236364 327.2724 
L 181.309091 327.2724 
L 186.381818 327.2724 
L 191.454545 327.2724 
L 196.527273 327.2724 
L 201.6 327.2724 
L 206.672727 327.2724 
L 211.745455 327.2724 
L 216.818182 327.2724 
L 221.890909 327.2724 
L 226.963636 327.2724 
L 232.036364 327.2724 
L 237.109091 327.2724 
L 242.181818 290.5812 
L 247.254545 290.5812 
L 252.327273 290.5812 
L 257.4 290.5812 
L 262.472727 290.5812 
L 267.545455 290.5812 
L 272.618182 290.5812 
L 277.690909 290.5812 
L 282.763636 290.5812 
L 287.836364 290.5812 
L 292.909091 290.5812 
L 297.981818 290.5812 
L 303.054545 290.5812 
L 308.127273 268.56648 
L 313.2 268.56648 
L 318.272727 268.56648 
L 323.345455 268.56648 
L 328.418182 268.56648 
L 333.490909 268.56648 
L 338.563636 255.357648 
L 343.636364 255.357648 
L 348.709091 255.357648 
L 353.781818 247.432349 
L 358.854545 247.432349 
L 363.927273 242.677169 
L 369 235.5444 
L 374.072727 235.5444 
L 379.145455 235.5444 
L 384.218182 235.5444 
L 389.290909 235.5444 
L 394.363636 235.5444 
L 399.436364 235.5444 
L 404.509091 233.342928 
L 409.581818 233.342928 
L 414.654545 233.342928 
L 419.727273 225.417629 
L 424.8 220.662449 
L 429.872727 217.809342 
L 434.945455 213.52968 
L 440.018182 213.52968 
L 445.090909 213.52968 
L 450.163636 212.208797 
L 455.236364 212.208797 
L 460.309091 204.60051 
L 465.381818 200.320848 
L 470.454545 200.320848 
L 475.527273 199.528318 
L 480.6 192.395549 
L 485.672727 191.920031 
L 490.745455 187.355059 
L 495.818182 180.5076 
L 500.890909 180.5076 
L 505.963636 180.5076 
L 511.036364 180.5076 
L 516.109091 178.711199 
L 521.181818 174.431537 
L 526.254545 169.866565 
L 531.327273 167.298768 
L 536.4 166.506238 
L 541.472727 161.941266 
L 546.545455 159.373469 
L 551.618182 154.618289 
L 556.690909 151.593995 
L 561.763636 147.48552 
L 566.836364 147.48552 
L 571.909091 143.839882 
L 576.981818 139.560221 
L 582.054545 136.345719 
L 587.127273 131.951934 
L 592.2 127.672272 
L 597.272727 125.484889 
L 602.345455 120.988392 
L 607.418182 115.784323 
L 612.490909 111.773995 
L 617.563636 106.245357 
L 622.636364 97.9524 
" style="fill:none;stroke:#ff7f0e;stroke-linecap:square;stroke-width:1.5;"/>
   </g>
   <g id="line2d_15">
    <path clip-path="url(#pc346e6a079)" d="M 115.363636 327.2724 
L 120.436364 327.2724 
L 125.509091 327.2724 
L 130.581818 327.2724 
L 135.654545 327.2724 
L 140.727273 327.2724 
L 145.8 327.2724 
L 150.872727 327.2724 
L 155.945455 327.2724 
L 161.018182 327.2724 
L 166.090909 327.2724 
L 171.163636 327.2724 
L 176.236364 327.2724 
L 181.309091 312.59592 
L 186.381818 312.59592 
L 191.454545 312.59592 
L 196.527273 312.59592 
L 201.6 312.59592 
L 206.672727 312.59592 
L 211.745455 303.790032 
L 216.818182 303.790032 
L 221.890909 303.790032 
L 226.963636 298.506499 
L 232.036364 298.506499 
L 237.109091 295.33638 
L 242.181818 290.5812 
L 247.254545 290.5812 
L 252.327273 290.5812 
L 257.4 290.5812 
L 262.472727 289.700611 
L 267.545455 286.530492 
L 272.618182 283.487177 
L 277.690909 281.775312 
L 282.763636 281.246959 
L 287.836364 278.203644 
L 292.909091 276.491779 
L 297.981818 273.32166 
L 303.054545 271.305463 
L 308.127273 268.56648 
L 313.2 268.56648 
L 318.272727 266.136055 
L 323.345455 263.282947 
L 328.418182 261.139946 
L 333.490909 258.210756 
L 338.563636 255.357648 
L 343.636364 253.899393 
L 348.709091 250.901728 
L 353.781818 247.432349 
L 358.854545 244.758797 
L 363.927273 241.073038 
L 369 235.5444 
L 374.072727 235.5444 
L 379.145455 235.5444 
L 384.218182 235.5444 
L 389.290909 234.663811 
L 394.363636 231.493692 
L 399.436364 228.450377 
L 404.509091 226.738512 
L 409.581818 226.210159 
L 414.654545 223.166844 
L 419.727273 221.454979 
L 424.8 218.28486 
L 429.872727 216.268663 
L 434.945455 213.52968 
L 440.018182 213.52968 
L 445.090909 211.099255 
L 450.163636 208.246147 
L 455.236364 206.103146 
L 460.309091 203.173956 
L 465.381818 200.320848 
L 470.454545 198.862593 
L 475.527273 195.864928 
L 480.6 192.395549 
L 485.672727 189.721997 
L 490.745455 186.036238 
L 495.818182 180.5076 
L 500.890909 180.5076 
L 505.963636 179.78904 
L 511.036364 176.251186 
L 516.109091 174.907055 
L 521.181818 172.053948 
L 526.254545 168.942158 
L 531.327273 167.298768 
L 536.4 164.128648 
L 541.472727 161.085333 
L 546.545455 158.498516 
L 551.618182 154.618289 
L 556.690909 150.802703 
L 561.763636 147.48552 
L 566.836364 144.931672 
L 571.909091 142.413329 
L 576.981818 139.560221 
L 582.054545 135.83216 
L 587.127273 131.951934 
L 592.2 127.672272 
L 597.272727 124.628957 
L 602.345455 120.680256 
L 607.418182 115.784323 
L 612.490909 111.589114 
L 617.563636 106.134428 
L 622.636364 97.9524 
" style="fill:none;stroke:#2ca02c;stroke-linecap:square;stroke-width:1.5;"/>
   </g>
   <g id="line2d_16">
    <path clip-path="url(#pc346e6a079)" d="M 115.363636 327.2724 
L 120.436364 326.798711 
L 125.509091 326.088177 
L 130.581818 325.156815 
L 135.654545 324.311843 
L 140.727273 323.28558 
L 145.8 321.983437 
L 150.872727 320.894068 
L 155.945455 319.871008 
L 161.018182 318.630459 
L 166.090909 317.305351 
L 171.163636 315.725113 
L 176.236364 314.049994 
L 181.309091 312.311707 
L 186.381818 311.326569 
L 191.454545 310.203828 
L 196.527273 308.768921 
L 201.6 307.410755 
L 206.672727 305.667548 
L 211.745455 303.619504 
L 216.818182 302.354777 
L 221.890909 300.678933 
L 226.963636 298.404182 
L 232.036364 296.63984 
L 237.109091 294.216384 
L 242.181818 290.5812 
L 247.254545 289.870666 
L 252.327273 288.804866 
L 257.4 287.407822 
L 262.472727 286.140365 
L 267.545455 284.60097 
L 272.618182 282.647756 
L 277.690909 281.013701 
L 282.763636 279.479112 
L 287.836364 277.618289 
L 292.909091 275.630626 
L 297.981818 273.260269 
L 303.054545 270.74759 
L 308.127273 268.14016 
L 313.2 266.662453 
L 318.272727 264.978342 
L 323.345455 262.825981 
L 328.418182 260.788733 
L 333.490909 258.173922 
L 338.563636 255.101856 
L 343.636364 253.204765 
L 348.709091 250.691 
L 353.781818 247.278874 
L 358.854545 244.63236 
L 363.927273 240.997176 
L 369 235.5444 
L 374.072727 234.833866 
L 379.145455 233.768066 
L 384.218182 232.371022 
L 389.290909 231.103565 
L 394.363636 229.56417 
L 399.436364 227.610956 
L 404.509091 225.976901 
L 409.581818 224.442312 
L 414.654545 222.581489 
L 419.727273 220.593826 
L 424.8 218.223469 
L 429.872727 215.71079 
L 434.945455 213.10336 
L 440.018182 211.625653 
L 445.090909 209.941542 
L 450.163636 207.789181 
L 455.236364 205.751933 
L 460.309091 203.137122 
L 465.381818 200.065056 
L 470.454545 198.167965 
L 475.527273 195.6542 
L 480.6 192.242074 
L 485.672727 189.59556 
L 490.745455 185.960376 
L 495.818182 180.5076 
L 500.890909 179.4418 
L 505.963636 177.843099 
L 511.036364 175.747534 
L 516.109091 173.846347 
L 521.181818 171.537256 
L 526.254545 168.607434 
L 531.327273 166.156352 
L 536.4 163.854469 
L 541.472727 161.063233 
L 546.545455 158.081739 
L 551.618182 154.526204 
L 556.690909 150.757186 
L 561.763636 146.84604 
L 566.836364 144.62948 
L 571.909091 142.103313 
L 576.981818 138.874771 
L 582.054545 135.8189 
L 587.127273 131.896682 
L 592.2 127.288584 
L 597.272727 124.442948 
L 602.345455 120.6723 
L 607.418182 115.55411 
L 612.490909 111.58434 
L 617.563636 106.131564 
L 622.636364 97.9524 
" style="fill:none;stroke:#d62728;stroke-linecap:square;stroke-width:1.5;"/>
   </g>
   <g id="line2d_17">
    <path clip-path="url(#pc346e6a079)" d="M 115.363636 327.2724 
L 120.436364 326.798711 
L 125.509091 326.088177 
L 130.581818 325.156815 
L 135.654545 324.311843 
L 140.727273 323.28558 
L 145.8 321.983437 
L 150.872727 320.894068 
L 155.945455 319.871008 
L 161.018182 318.630459 
L 166.090909 317.305351 
L 171.163636 315.725113 
L 176.236364 314.049994 
L 181.309091 312.311707 
L 186.381818 311.326569 
L 191.454545 310.203828 
L 196.527273 308.768921 
L 201.6 307.410755 
L 206.672727 305.667548 
L 211.745455 303.619504 
L 216.818182 302.354777 
L 221.890909 300.678933 
L 226.963636 298.404182 
L 232.036364 296.63984 
L 237.109091 294.216384 
L 242.181818 290.5812 
L 247.254545 289.870666 
L 252.327273 288.804866 
L 257.4 287.407822 
L 262.472727 286.140365 
L 267.545455 284.60097 
L 272.618182 282.647756 
L 277.690909 281.013701 
L 282.763636 279.479112 
L 287.836364 277.618289 
L 292.909091 275.630626 
L 297.981818 273.260269 
L 303.054545 270.74759 
L 308.127273 268.14016 
L 313.2 266.662453 
L 318.272727 264.978342 
L 323.345455 262.825981 
L 328.418182 260.788733 
L 333.490909 258.173922 
L 338.563636 255.101856 
L 343.636364 253.204765 
L 348.709091 250.691 
L 353.781818 247.278874 
L 358.854545 244.63236 
L 363.927273 240.997176 
L 369 235.5444 
L 374.072727 234.833866 
L 379.145455 233.768066 
L 384.218182 232.371022 
L 389.290909 231.103565 
L 394.363636 229.56417 
L 399.436364 227.610956 
L 404.509091 225.976901 
L 409.581818 224.442312 
L 414.654545 222.581489 
L 419.727273 220.593826 
L 424.8 218.223469 
L 429.872727 215.71079 
L 434.945455 213.10336 
L 440.018182 211.625653 
L 445.090909 209.941542 
L 450.163636 207.789181 
L 455.236364 205.751933 
L 460.309091 203.137122 
L 465.381818 200.065056 
L 470.454545 198.167965 
L 475.527273 195.6542 
L 480.6 192.242074 
L 485.672727 189.59556 
L 490.745455 185.960376 
L 495.818182 180.5076 
L 500.890909 179.4418 
L 505.963636 177.843099 
L 511.036364 175.747534 
L 516.109091 173.846347 
L 521.181818 171.537256 
L 526.254545 168.607434 
L 531.327273 166.156352 
L 536.4 163.854469 
L 541.472727 161.063233 
L 546.545455 158.081739 
L 551.618182 154.526204 
L 556.690909 150.757186 
L 561.763636 146.84604 
L 566.836364 144.62948 
L 571.909091 142.103313 
L 576.981818 138.874771 
L 582.054545 135.8189 
L 587.127273 131.896682 
L 592.2 127.288584 
L 597.272727 124.442948 
L 602.345455 120.6723 
L 607.418182 115.55411 
L 612.490909 111.58434 
L 617.563636 106.131564 
L 622.636364 97.9524 
" style="fill:none;stroke:#9467bd;stroke-linecap:square;stroke-width:1.5;"/>
   </g>
   <g id="patch_3">
    <path d="M 90 338.7384 
L 90 86.4864 
" style="fill:none;stroke:#000000;stroke-linecap:square;stroke-linejoin:miter;stroke-width:0.8;"/>
   </g>
   <g id="patch_4">
    <path d="M 648 338.7384 
L 648 86.4864 
" style="fill:none;stroke:#000000;stroke-linecap:square;stroke-linejoin:miter;stroke-width:0.8;"/>
   </g>
   <g id="patch_5">
    <path d="M 90 338.7384 
L 648 338.7384 
" style="fill:none;stroke:#000000;stroke-linecap:square;stroke-linejoin:miter;stroke-width:0.8;"/>
   </g>
   <g id="patch_6">
    <path d="M 90 86.4864 
L 648 86.4864 
" style="fill:none;stroke:#000000;stroke-linecap:square;stroke-linejoin:miter;stroke-width:0.8;"/>
   </g>
   <g id="legend_1">
    <g id="patch_7">
     <path d="M 97 167.877025 
L 185.7625 167.877025 
Q 187.7625 167.877025 187.7625 165.877025 
L 187.7625 93.4864 
Q 187.7625 91.4864 185.7625 91.4864 
L 97 91.4864 
Q 95 91.4864 95 93.4864 
L 95 165.877025 
Q 95 167.877025 97 167.877025 
z
" style="fill:#ffffff;opacity:0.8;stroke:#cccccc;stroke-linejoin:miter;"/>
    </g>
    <g id="line2d_18">
     <path d="M 99 99.584838 
L 119 99.584838 
" style="fill:none;stroke:#1f77b4;stroke-linecap:square;stroke-width:1.5;"/>
    </g>
    <g id="line2d_19"/>
    <g id="text_15">
     <!-- sweep 1 -->
     <g transform="translate(127 103.084838)scale(0.1 -0.1)">
      <defs>
       <path d="M 4.203125 54.6875 
L 13.1875 54.6875 
L 24.421875 12.015625 
L 35.59375 54.6875 
L 46.1875 54.6875 
L 57.421875 12.015625 
L 68.609375 54.6875 
L 77.59375 54.6875 
L 63.28125 0 
L 52.6875 0 
L 40.921875 44.828125 
L 29.109375 0 
L 18.5 0 
z
" id="DejaVuSans-119"/>
      </defs>
      <use xlink:href="#DejaVuSans-115"/>
      <use x="52.099609" xlink:href="#DejaVuSans-119"/>
      <use x="133.886719" xlink:href="#DejaVuSans-101"/>
      <use x="195.410156" xlink:href="#DejaVuSans-101"/>
      <use x="256.933594" xlink:href="#DejaVuSans-112"/>
      <use x="320.410156" xlink:href="#DejaVuSans-32"/>
      <use x="352.197266" xlink:href="#DejaVuSans-49"/>
     </g>
    </g>
    <g id="line2d_20">
     <path d="M 99 114.262963 
L 119 114.262963 
" style="fill:none;stroke:#ff7f0e;stroke-linecap:square;stroke-width:1.5;"/>
    </g>
    <g id="line2d_21"/>
    <g id="text_16">
     <!-- sweep 2 -->
     <g transform="translate(127 117.762963)scale(0.1 -0.1)">
      <use xlink:href="#DejaVuSans-115"/>
      <use x="52.099609" xlink:href="#DejaVuSans-119"/>
      <use x="133.886719" xlink:href="#DejaVuSans-101"/>
      <use x="195.410156" xlink:href="#DejaVuSans-101"/>
      <use x="256.933594" xlink:href="#DejaVuSans-112"/>
      <use x="320.410156" xlink:href="#DejaVuSans-32"/>
      <use x="352.197266" xlink:href="#DejaVuSans-50"/>
     </g>
    </g>
    <g id="line2d_22">
     <path d="M 99 128.941088 
L 119 128.941088 
" style="fill:none;stroke:#2ca02c;stroke-linecap:square;stroke-width:1.5;"/>
    </g>
    <g id="line2d_23"/>
    <g id="text_17">
     <!-- sweep 3 -->
     <g transform="translate(127 132.441088)scale(0.1 -0.1)">
      <defs>
       <path d="M 40.578125 39.3125 
Q 47.65625 37.796875 51.625 33 
Q 55.609375 28.21875 55.609375 21.1875 
Q 55.609375 10.40625 48.1875 4.484375 
Q 40.765625 -1.421875 27.09375 -1.421875 
Q 22.515625 -1.421875 17.65625 -0.515625 
Q 12.796875 0.390625 7.625 2.203125 
L 7.625 11.71875 
Q 11.71875 9.328125 16.59375 8.109375 
Q 21.484375 6.890625 26.8125 6.890625 
Q 36.078125 6.890625 40.9375 10.546875 
Q 45.796875 14.203125 45.796875 21.1875 
Q 45.796875 27.640625 41.28125 31.265625 
Q 36.765625 34.90625 28.71875 34.90625 
L 20.21875 34.90625 
L 20.21875 43.015625 
L 29.109375 43.015625 
Q 36.375 43.015625 40.234375 45.921875 
Q 44.09375 48.828125 44.09375 54.296875 
Q 44.09375 59.90625 40.109375 62.90625 
Q 36.140625 65.921875 28.71875 65.921875 
Q 24.65625 65.921875 20.015625 65.03125 
Q 15.375 64.15625 9.8125 62.3125 
L 9.8125 71.09375 
Q 15.4375 72.65625 20.34375 73.4375 
Q 25.25 74.21875 29.59375 74.21875 
Q 40.828125 74.21875 47.359375 69.109375 
Q 53.90625 64.015625 53.90625 55.328125 
Q 53.90625 49.265625 50.4375 45.09375 
Q 46.96875 40.921875 40.578125 39.3125 
z
" id="DejaVuSans-51"/>
      </defs>
      <use xlink:href="#DejaVuSans-115"/>
      <use x="52.099609" xlink:href="#DejaVuSans-119"/>
      <use x="133.886719" xlink:href="#DejaVuSans-101"/>
      <use x="195.410156" xlink:href="#DejaVuSans-101"/>
      <use x="256.933594" xlink:href="#DejaVuSans-112"/>
      <use x="320.410156" xlink:href="#DejaVuSans-32"/>
      <use x="352.197266" xlink:href="#DejaVuSans-51"/>
     </g>
    </g>
    <g id="line2d_24">
     <path d="M 99 143.619213 
L 119 143.619213 
" style="fill:none;stroke:#d62728;stroke-linecap:square;stroke-width:1.5;"/>
    </g>
    <g id="line2d_25"/>
    <g id="text_18">
     <!-- sweep 32 -->
     <g transform="translate(127 147.119213)scale(0.1 -0.1)">
      <use xlink:href="#DejaVuSans-115"/>
      <use x="52.099609" xlink:href="#DejaVuSans-119"/>
      <use x="133.886719" xlink:href="#DejaVuSans-101"/>
      <use x="195.410156" xlink:href="#DejaVuSans-101"/>
      <use x="256.933594" xlink:href="#DejaVuSans-112"/>
      <use x="320.410156" xlink:href="#DejaVuSans-32"/>
      <use x="352.197266" xlink:href="#DejaVuSans-51"/>
      <use x="415.820312" xlink:href="#DejaVuSans-50"/>
     </g>
    </g>
    <g id="line2d_26">
     <path d="M 99 158.297338 
L 119 158.297338 
" style="fill:none;stroke:#9467bd;stroke-linecap:square;stroke-width:1.5;"/>
    </g>
    <g id="line2d_27"/>
    <g id="text_19">
     <!-- sweep final -->
     <g transform="translate(127 161.797338)scale(0.1 -0.1)">
      <defs>
       <path d="M 37.109375 75.984375 
L 37.109375 68.5 
L 28.515625 68.5 
Q 23.6875 68.5 21.796875 66.546875 
Q 19.921875 64.59375 19.921875 59.515625 
L 19.921875 54.6875 
L 34.71875 54.6875 
L 34.71875 47.703125 
L 19.921875 47.703125 
L 19.921875 0 
L 10.890625 0 
L 10.890625 47.703125 
L 2.296875 47.703125 
L 2.296875 54.6875 
L 10.890625 54.6875 
L 10.890625 58.5 
Q 10.890625 67.625 15.140625 71.796875 
Q 19.390625 75.984375 28.609375 75.984375 
z
" id="DejaVuSans-102"/>
       <path d="M 54.890625 33.015625 
L 54.890625 0 
L 45.90625 0 
L 45.90625 32.71875 
Q 45.90625 40.484375 42.875 44.328125 
Q 39.84375 48.1875 33.796875 48.1875 
Q 26.515625 48.1875 22.3125 43.546875 
Q 18.109375 38.921875 18.109375 30.90625 
L 18.109375 0 
L 9.078125 0 
L 9.078125 54.6875 
L 18.109375 54.6875 
L 18.109375 46.1875 
Q 21.34375 51.125 25.703125 53.5625 
Q 30.078125 56 35.796875 56 
Q 45.21875 56 50.046875 50.171875 
Q 54.890625 44.34375 54.890625 33.015625 
z
" id="DejaVuSans-110"/>
      </defs>
      <use xlink:href="#DejaVuSans-115"/>
      <use x="52.099609" xlink:href="#DejaVuSans-119"/>
      <use x="133.886719" xlink:href="#DejaVuSans-101"/>
      <use x="195.410156" xlink:href="#DejaVuSans-101"/>
      <use x="256.933594" xlink:href="#DejaVuSans-112"/>
      <use x="320.410156" xlink:href="#DejaVuSans-32"/>
      <use x="352.197266" xlink:href="#DejaVuSans-102"/>
      <use x="387.402344" xlink:href="#DejaVuSans-105"/>
      <use x="415.185547" xlink:href="#DejaVuSans-110"/>
      <use x="478.564453" xlink:href="#DejaVuSans-97"/>
      <use x="539.84375" xlink:href="#DejaVuSans-108"/>
     </g>
    </g>
   </g>
  </g>
  <g id="axes_2">
   <g id="patch_8">
    <path d="M 90 641.4408 
L 648 641.4408 
L 648 389.1888 
L 90 389.1888 
z
" style="fill:#ffffff;"/>
   </g>
   <g id="patch_9">
    <path clip-path="url(#pceb21efdb6)" d="M 115.363636 641.4408 
L 119.38961 641.4408 
L 119.38961 641.4408 
L 115.363636 641.4408 
z
" style="fill:#1f77b4;"/>
   </g>
   <g id="patch_10">
    <path clip-path="url(#pceb21efdb6)" d="M 120.396104 641.4408 
L 124.422078 641.4408 
L 124.422078 636.636 
L 120.396104 636.636 
z
" style="fill:#1f77b4;"/>
   </g>
   <g id="patch_11">
    <path clip-path="url(#pceb21efdb6)" d="M 125.428571 641.4408 
L 129.454545 641.4408 
L 129.454545 631.8312 
L 125.428571 631.8312 
z
" style="fill:#1f77b4;"/>
   </g>
   <g id="patch_12">
    <path clip-path="url(#pceb21efdb6)" d="M 130.461039 641.4408 
L 134.487013 641.4408 
L 134.487013 627.0264 
L 130.461039 627.0264 
z
" style="fill:#1f77b4;"/>
   </g>
   <g id="patch_13">
    <path clip-path="url(#pceb21efdb6)" d="M 135.493506 641.4408 
L 139.519481 641.4408 
L 139.519481 622.2216 
L 135.493506 622.2216 
z
" style="fill:#1f77b4;"/>
   </g>
   <g id="patch_14">
    <path clip-path="url(#pceb21efdb6)" d="M 140.525974 641.4408 
L 144.551948 641.4408 
L 144.551948 617.4168 
L 140.525974 617.4168 
z
" style="fill:#1f77b4;"/>
   </g>
   <g id="patch_15">
    <path clip-path="url(#pceb21efdb6)" d="M 145.558442 641.4408 
L 149.584416 641.4408 
L 149.584416 612.612 
L 145.558442 612.612 
z
" style="fill:#1f77b4;"/>
   </g>
   <g id="patch_16">
    <path clip-path="url(#pceb21efdb6)" d="M 150.590909 641.4408 
L 154.616883 641.4408 
L 154.616883 607.8072 
L 150.590909 607.8072 
z
" style="fill:#1f77b4;"/>
   </g>
   <g id="patch_17">
    <path clip-path="url(#pceb21efdb6)" d="M 155.623377 641.4408 
L 159.649351 641.4408 
L 159.649351 603.0024 
L 155.623377 603.0024 
z
" style="fill:#1f77b4;"/>
   </g>
   <g id="patch_18">
    <path clip-path="url(#pceb21efdb6)" d="M 160.655844 641.4408 
L 164.681818 641.4408 
L 164.681818 598.1976 
L 160.655844 598.1976 
z
" style="fill:#1f77b4;"/>
   </g>
   <g id="patch_19">
    <path clip-path="url(#pceb21efdb6)" d="M 165.688312 641.4408 
L 169.714286 641.4408 
L 169.714286 593.3928 
L 165.688312 593.3928 
z
" style="fill:#1f77b4;"/>
   </g>
   <g id="patch_20">
    <path clip-path="url(#pceb21efdb6)" d="M 170.720779 641.4408 
L 174.746753 641.4408 
L 174.746753 588.588 
L 170.720779 588.588 
z
" style="fill:#1f77b4;"/>
   </g>
   <g id="patch_21">
    <path clip-path="url(#pceb21efdb6)" d="M 175.753247 641.4408 
L 179.779221 641.4408 
L 179.779221 583.7832 
L 175.753247 583.7832 
z
" style="fill:#1f77b4;"/>
   </g>
   <g id="patch_22">
    <path clip-path="url(#pceb21efdb6)" d="M 180.785714 641.4408 
L 184.811688 641.4408 
L 184.811688 583.7832 
L 180.785714 583.7832 
z
" style="fill:#1f77b4;"/>
   </g>
   <g id="patch_23">
    <path clip-path="url(#pceb21efdb6)" d="M 185.818182 641.4408 
L 189.844156 641.4408 
L 189.844156 588.588 
L 185.818182 588.588 
z
" style="fill:#1f77b4;"/>
   </g>
   <g id="patch_24">
    <path clip-path="url(#pceb21efdb6)" d="M 190.850649 641.4408 
L 194.876623 641.4408 
L 194.876623 593.3928 
L 190.850649 593.3928 
z
" style="fill:#1f77b4;"/>
   </g>
   <g id="patch_25">
    <path clip-path="url(#pceb21efdb6)" d="M 195.883117 641.4408 
L 199.909091 641.4408 
L 199.909091 598.1976 
L 195.883117 598.1976 
z
" style="fill:#1f77b4;"/>
   </g>
   <g id="patch_26">
    <path clip-path="url(#pceb21efdb6)" d="M 200.915584 641.4408 
L 204.941558 641.4408 
L 204.941558 603.0024 
L 200.915584 603.0024 
z
" style="fill:#1f77b4;"/>
   </g>
   <g id="patch_27">
    <path clip-path="url(#pceb21efdb6)" d="M 205.948052 641.4408 
L 209.974026 641.4408 
L 209.974026 607.8072 
L 205.948052 607.8072 
z
" style="fill:#1f77b4;"/>
   </g>
   <g id="patch_28">
    <path clip-path="url(#pceb21efdb6)" d="M 210.980519 641.4408 
L 215.006494 641.4408 
L 215.006494 612.612 
L 210.980519 612.612 
z
" style="fill:#1f77b4;"/>
   </g>
   <g id="patch_29">
    <path clip-path="url(#pceb21efdb6)" d="M 216.012987 641.4408 
L 220.038961 641.4408 
L 220.038961 617.4168 
L 216.012987 617.4168 
z
" style="fill:#1f77b4;"/>
   </g>
   <g id="patch_30">
    <path clip-path="url(#pceb21efdb6)" d="M 221.045455 641.4408 
L 225.071429 641.4408 
L 225.071429 622.2216 
L 221.045455 622.2216 
z
" style="fill:#1f77b4;"/>
   </g>
   <g id="patch_31">
    <path clip-path="url(#pceb21efdb6)" d="M 226.077922 641.4408 
L 230.103896 641.4408 
L 230.103896 627.0264 
L 226.077922 627.0264 
z
" style="fill:#1f77b4;"/>
   </g>
   <g id="patch_32">
    <path clip-path="url(#pceb21efdb6)" d="M 231.11039 641.4408 
L 235.136364 641.4408 
L 235.136364 631.8312 
L 231.11039 631.8312 
z
" style="fill:#1f77b4;"/>
   </g>
   <g id="patch_33">
    <path clip-path="url(#pceb21efdb6)" d="M 236.142857 641.4408 
L 240.168831 641.4408 
L 240.168831 636.636 
L 236.142857 636.636 
z
" style="fill:#1f77b4;"/>
   </g>
   <g id="patch_34">
    <path clip-path="url(#pceb21efdb6)" d="M 241.175325 641.4408 
L 245.201299 641.4408 
L 245.201299 521.3208 
L 241.175325 521.3208 
z
" style="fill:#1f77b4;"/>
   </g>
   <g id="patch_35">
    <path clip-path="url(#pceb21efdb6)" d="M 246.207792 641.4408 
L 250.233766 641.4408 
L 250.233766 636.636 
L 246.207792 636.636 
z
" style="fill:#1f77b4;"/>
   </g>
   <g id="patch_36">
    <path clip-path="url(#pceb21efdb6)" d="M 251.24026 641.4408 
L 255.266234 641.4408 
L 255.266234 631.8312 
L 251.24026 631.8312 
z
" style="fill:#1f77b4;"/>
   </g>
   <g id="patch_37">
    <path clip-path="url(#pceb21efdb6)" d="M 256.272727 641.4408 
L 260.298701 641.4408 
L 260.298701 627.0264 
L 256.272727 627.0264 
z
" style="fill:#1f77b4;"/>
   </g>
   <g id="patch_38">
    <path clip-path="url(#pceb21efdb6)" d="M 261.305195 641.4408 
L 265.331169 641.4408 
L 265.331169 622.2216 
L 261.305195 622.2216 
z
" style="fill:#1f77b4;"/>
   </g>
   <g id="patch_39">
    <path clip-path="url(#pceb21efdb6)" d="M 266.337662 641.4408 
L 270.363636 641.4408 
L 270.363636 617.4168 
L 266.337662 617.4168 
z
" style="fill:#1f77b4;"/>
   </g>
   <g id="patch_40">
    <path clip-path="url(#pceb21efdb6)" d="M 271.37013 641.4408 
L 275.396104 641.4408 
L 275.396104 612.612 
L 271.37013 612.612 
z
" style="fill:#1f77b4;"/>
   </g>
   <g id="patch_41">
    <path clip-path="url(#pceb21efdb6)" d="M 276.402597 641.4408 
L 280.428571 641.4408 
L 280.428571 607.8072 
L 276.402597 607.8072 
z
" style="fill:#1f77b4;"/>
   </g>
   <g id="patch_42">
    <path clip-path="url(#pceb21efdb6)" d="M 281.435065 641.4408 
L 285.461039 641.4408 
L 285.461039 603.0024 
L 281.435065 603.0024 
z
" style="fill:#1f77b4;"/>
   </g>
   <g id="patch_43">
    <path clip-path="url(#pceb21efdb6)" d="M 286.467532 641.4408 
L 290.493506 641.4408 
L 290.493506 598.1976 
L 286.467532 598.1976 
z
" style="fill:#1f77b4;"/>
   </g>
   <g id="patch_44">
    <path clip-path="url(#pceb21efdb6)" d="M 291.5 641.4408 
L 295.525974 641.4408 
L 295.525974 593.3928 
L 291.5 593.3928 
z
" style="fill:#1f77b4;"/>
   </g>
   <g id="patch_45">
    <path clip-path="url(#pceb21efdb6)" d="M 296.532468 641.4408 
L 300.558442 641.4408 
L 300.558442 588.588 
L 296.532468 588.588 
z
" style="fill:#1f77b4;"/>
   </g>
   <g id="patch_46">
    <path clip-path="url(#pceb21efdb6)" d="M 301.564935 641.4408 
L 305.590909 641.4408 
L 305.590909 583.7832 
L 301.564935 583.7832 
z
" style="fill:#1f77b4;"/>
   </g>
   <g id="patch_47">
    <path clip-path="url(#pceb21efdb6)" d="M 306.597403 641.4408 
L 310.623377 641.4408 
L 310.623377 583.7832 
L 306.597403 583.7832 
z
" style="fill:#1f77b4;"/>
   </g>
   <g id="patch_48">
    <path clip-path="url(#pceb21efdb6)" d="M 311.62987 641.4408 
L 315.655844 641.4408 
L 315.655844 588.588 
L 311.62987 588.588 
z
" style="fill:#1f77b4;"/>
   </g>
   <g id="patch_49">
    <path clip-path="url(#pceb21efdb6)" d="M 316.662338 641.4408 
L 320.688312 641.4408 
L 320.688312 593.3928 
L 316.662338 593.3928 
z
" style="fill:#1f77b4;"/>
   </g>
   <g id="patch_50">
    <path clip-path="url(#pceb21efdb6)" d="M 321.694805 641.4408 
L 325.720779 641.4408 
L 325.720779 598.1976 
L 321.694805 598.1976 
z
" style="fill:#1f77b4;"/>
   </g>
   <g id="patch_51">
    <path clip-path="url(#pceb21efdb6)" d="M 326.727273 641.4408 
L 330.753247 641.4408 
L 330.753247 603.0024 
L 326.727273 603.0024 
z
" style="fill:#1f77b4;"/>
   </g>
   <g id="patch_52">
    <path clip-path="url(#pceb21efdb6)" d="M 331.75974 641.4408 
L 335.785714 641.4408 
L 335.785714 607.8072 
L 331.75974 607.8072 
z
" style="fill:#1f77b4;"/>
   </g>
   <g id="patch_53">
    <path clip-path="url(#pceb21efdb6)" d="M 336.792208 641.4408 
L 340.818182 641.4408 
L 340.818182 612.612 
L 336.792208 612.612 
z
" style="fill:#1f77b4;"/>
   </g>
   <g id="patch_54">
    <path clip-path="url(#pceb21efdb6)" d="M 341.824675 641.4408 
L 345.850649 641.4408 
L 345.850649 617.4168 
L 341.824675 617.4168 
z
" style="fill:#1f77b4;"/>
   </g>
   <g id="patch_55">
    <path clip-path="url(#pceb21efdb6)" d="M 346.857143 641.4408 
L 350.883117 641.4408 
L 350.883117 622.2216 
L 346.857143 622.2216 
z
" style="fill:#1f77b4;"/>
   </g>
   <g id="patch_56">
    <path clip-path="url(#pceb21efdb6)" d="M 351.88961 641.4408 
L 355.915584 641.4408 
L 355.915584 627.0264 
L 351.88961 627.0264 
z
" style="fill:#1f77b4;"/>
   </g>
   <g id="patch_57">
    <path clip-path="url(#pceb21efdb6)" d="M 356.922078 641.4408 
L 360.948052 641.4408 
L 360.948052 631.8312 
L 356.922078 631.8312 
z
" style="fill:#1f77b4;"/>
   </g>
   <g id="patch_58">
    <path clip-path="url(#pceb21efdb6)" d="M 361.954545 641.4408 
L 365.980519 641.4408 
L 365.980519 636.636 
L 361.954545 636.636 
z
" style="fill:#1f77b4;"/>
   </g>
   <g id="patch_59">
    <path clip-path="url(#pceb21efdb6)" d="M 366.987013 641.4408 
L 371.012987 641.4408 
L 371.012987 401.2008 
L 366.987013 401.2008 
z
" style="fill:#1f77b4;"/>
   </g>
   <g id="patch_60">
    <path clip-path="url(#pceb21efdb6)" d="M 372.019481 641.4408 
L 376.045455 641.4408 
L 376.045455 636.636 
L 372.019481 636.636 
z
" style="fill:#1f77b4;"/>
   </g>
   <g id="patch_61">
    <path clip-path="url(#pceb21efdb6)" d="M 377.051948 641.4408 
L 381.077922 641.4408 
L 381.077922 631.8312 
L 377.051948 631.8312 
z
" style="fill:#1f77b4;"/>
   </g>
   <g id="patch_62">
    <path clip-path="url(#pceb21efdb6)" d="M 382.084416 641.4408 
L 386.11039 641.4408 
L 386.11039 627.0264 
L 382.084416 627.0264 
z
" style="fill:#1f77b4;"/>
   </g>
   <g id="patch_63">
    <path clip-path="url(#pceb21efdb6)" d="M 387.116883 641.4408 
L 391.142857 641.4408 
L 391.142857 622.2216 
L 387.116883 622.2216 
z
" style="fill:#1f77b4;"/>
   </g>
   <g id="patch_64">
    <path clip-path="url(#pceb21efdb6)" d="M 392.149351 641.4408 
L 396.175325 641.4408 
L 396.175325 617.4168 
L 392.149351 617.4168 
z
" style="fill:#1f77b4;"/>
   </g>
   <g id="patch_65">
    <path clip-path="url(#pceb21efdb6)" d="M 397.181818 641.4408 
L 401.207792 641.4408 
L 401.207792 612.612 
L 397.181818 612.612 
z
" style="fill:#1f77b4;"/>
   </g>
   <g id="patch_66">
    <path clip-path="url(#pceb21efdb6)" d="M 402.214286 641.4408 
L 406.24026 641.4408 
L 406.24026 607.8072 
L 402.214286 607.8072 
z
" style="fill:#1f77b4;"/>
   </g>
   <g id="patch_67">
    <path clip-path="url(#pceb21efdb6)" d="M 407.246753 641.4408 
L 411.272727 641.4408 
L 411.272727 603.0024 
L 407.246753 603.0024 
z
" style="fill:#1f77b4;"/>
   </g>
   <g id="patch_68">
    <path clip-path="url(#pceb21efdb6)" d="M 412.279221 641.4408 
L 416.305195 641.4408 
L 416.305195 598.1976 
L 412.279221 598.1976 
z
" style="fill:#1f77b4;"/>
   </g>
   <g id="patch_69">
    <path clip-path="url(#pceb21efdb6)" d="M 417.311688 641.4408 
L 421.337662 641.4408 
L 421.337662 593.3928 
L 417.311688 593.3928 
z
" style="fill:#1f77b4;"/>
   </g>
   <g id="patch_70">
    <path clip-path="url(#pceb21efdb6)" d="M 422.344156 641.4408 
L 426.37013 641.4408 
L 426.37013 588.588 
L 422.344156 588.588 
z
" style="fill:#1f77b4;"/>
   </g>
   <g id="patch_71">
    <path clip-path="url(#pceb21efdb6)" d="M 427.376623 641.4408 
L 431.402597 641.4408 
L 431.402597 583.7832 
L 427.376623 583.7832 
z
" style="fill:#1f77b4;"/>
   </g>
   <g id="patch_72">
    <path clip-path="url(#pceb21efdb6)" d="M 432.409091 641.4408 
L 436.435065 641.4408 
L 436.435065 583.7832 
L 432.409091 583.7832 
z
" style="fill:#1f77b4;"/>
   </g>
   <g id="patch_73">
    <path clip-path="url(#pceb21efdb6)" d="M 437.441558 641.4408 
L 441.467532 641.4408 
L 441.467532 588.588 
L 437.441558 588.588 
z
" style="fill:#1f77b4;"/>
   </g>
   <g id="patch_74">
    <path clip-path="url(#pceb21efdb6)" d="M 442.474026 641.4408 
L 446.5 641.4408 
L 446.5 593.3928 
L 442.474026 593.3928 
z
" style="fill:#1f77b4;"/>
   </g>
   <g id="patch_75">
    <path clip-path="url(#pceb21efdb6)" d="M 447.506494 641.4408 
L 451.532468 641.4408 
L 451.532468 598.1976 
L 447.506494 598.1976 
z
" style="fill:#1f77b4;"/>
   </g>
   <g id="patch_76">
    <path clip-path="url(#pceb21efdb6)" d="M 452.538961 641.4408 
L 456.564935 641.4408 
L 456.564935 603.0024 
L 452.538961 603.0024 
z
" style="fill:#1f77b4;"/>
   </g>
   <g id="patch_77">
    <path clip-path="url(#pceb21efdb6)" d="M 457.571429 641.4408 
L 461.597403 641.4408 
L 461.597403 607.8072 
L 457.571429 607.8072 
z
" style="fill:#1f77b4;"/>
   </g>
   <g id="patch_78">
    <path clip-path="url(#pceb21efdb6)" d="M 462.603896 641.4408 
L 466.62987 641.4408 
L 466.62987 612.612 
L 462.603896 612.612 
z
" style="fill:#1f77b4;"/>
   </g>
   <g id="patch_79">
    <path clip-path="url(#pceb21efdb6)" d="M 467.636364 641.4408 
L 471.662338 641.4408 
L 471.662338 617.4168 
L 467.636364 617.4168 
z
" style="fill:#1f77b4;"/>
   </g>
   <g id="patch_80">
    <path clip-path="url(#pceb21efdb6)" d="M 472.668831 641.4408 
L 476.694805 641.4408 
L 476.694805 622.2216 
L 472.668831 622.2216 
z
" style="fill:#1f77b4;"/>
   </g>
   <g id="patch_81">
    <path clip-path="url(#pceb21efdb6)" d="M 477.701299 641.4408 
L 481.727273 641.4408 
L 481.727273 627.0264 
L 477.701299 627.0264 
z
" style="fill:#1f77b4;"/>
   </g>
   <g id="patch_82">
    <path clip-path="url(#pceb21efdb6)" d="M 482.733766 641.4408 
L 486.75974 641.4408 
L 486.75974 631.8312 
L 482.733766 631.8312 
z
" style="fill:#1f77b4;"/>
   </g>
   <g id="patch_83">
    <path clip-path="url(#pceb21efdb6)" d="M 487.766234 641.4408 
L 491.792208 641.4408 
L 491.792208 636.636 
L 487.766234 636.636 
z
" style="fill:#1f77b4;"/>
   </g>
   <g id="patch_84">
    <path clip-path="url(#pceb21efdb6)" d="M 492.798701 641.4408 
L 496.824675 641.4408 
L 496.824675 521.3208 
L 492.798701 521.3208 
z
" style="fill:#1f77b4;"/>
   </g>
   <g id="patch_85">
    <path clip-path="url(#pceb21efdb6)" d="M 497.831169 641.4408 
L 501.857143 641.4408 
L 501.857143 636.636 
L 497.831169 636.636 
z
" style="fill:#1f77b4;"/>
   </g>
   <g id="patch_86">
    <path clip-path="url(#pceb21efdb6)" d="M 502.863636 641.4408 
L 506.88961 641.4408 
L 506.88961 631.8312 
L 502.863636 631.8312 
z
" style="fill:#1f77b4;"/>
   </g>
   <g id="patch_87">
    <path clip-path="url(#pceb21efdb6)" d="M 507.896104 641.4408 
L 511.922078 641.4408 
L 511.922078 627.0264 
L 507.896104 627.0264 
z
" style="fill:#1f77b4;"/>
   </g>
   <g id="patch_88">
    <path clip-path="url(#pceb21efdb6)" d="M 512.928571 641.4408 
L 516.954545 641.4408 
L 516.954545 622.2216 
L 512.928571 622.2216 
z
" style="fill:#1f77b4;"/>
   </g>
   <g id="patch_89">
    <path clip-path="url(#pceb21efdb6)" d="M 517.961039 641.4408 
L 521.987013 641.4408 
L 521.987013 617.4168 
L 517.961039 617.4168 
z
" style="fill:#1f77b4;"/>
   </g>
   <g id="patch_90">
    <path clip-path="url(#pceb21efdb6)" d="M 522.993506 641.4408 
L 527.019481 641.4408 
L 527.019481 612.612 
L 522.993506 612.612 
z
" style="fill:#1f77b4;"/>
   </g>
   <g id="patch_91">
    <path clip-path="url(#pceb21efdb6)" d="M 528.025974 641.4408 
L 532.051948 641.4408 
L 532.051948 607.8072 
L 528.025974 607.8072 
z
" style="fill:#1f77b4;"/>
   </g>
   <g id="patch_92">
    <path clip-path="url(#pceb21efdb6)" d="M 533.058442 641.4408 
L 537.084416 641.4408 
L 537.084416 603.0024 
L 533.058442 603.0024 
z
" style="fill:#1f77b4;"/>
   </g>
   <g id="patch_93">
    <path clip-path="url(#pceb21efdb6)" d="M 538.090909 641.4408 
L 542.116883 641.4408 
L 542.116883 598.1976 
L 538.090909 598.1976 
z
" style="fill:#1f77b4;"/>
   </g>
   <g id="patch_94">
    <path clip-path="url(#pceb21efdb6)" d="M 543.123377 641.4408 
L 547.149351 641.4408 
L 547.149351 593.3928 
L 543.123377 593.3928 
z
" style="fill:#1f77b4;"/>
   </g>
   <g id="patch_95">
    <path clip-path="url(#pceb21efdb6)" d="M 548.155844 641.4408 
L 552.181818 641.4408 
L 552.181818 588.588 
L 548.155844 588.588 
z
" style="fill:#1f77b4;"/>
   </g>
   <g id="patch_96">
    <path clip-path="url(#pceb21efdb6)" d="M 553.188312 641.4408 
L 557.214286 641.4408 
L 557.214286 583.7832 
L 553.188312 583.7832 
z
" style="fill:#1f77b4;"/>
   </g>
   <g id="patch_97">
    <path clip-path="url(#pceb21efdb6)" d="M 558.220779 641.4408 
L 562.246753 641.4408 
L 562.246753 583.7832 
L 558.220779 583.7832 
z
" style="fill:#1f77b4;"/>
   </g>
   <g id="patch_98">
    <path clip-path="url(#pceb21efdb6)" d="M 563.253247 641.4408 
L 567.279221 641.4408 
L 567.279221 588.588 
L 563.253247 588.588 
z
" style="fill:#1f77b4;"/>
   </g>
   <g id="patch_99">
    <path clip-path="url(#pceb21efdb6)" d="M 568.285714 641.4408 
L 572.311688 641.4408 
L 572.311688 593.3928 
L 568.285714 593.3928 
z
" style="fill:#1f77b4;"/>
   </g>
   <g id="patch_100">
    <path clip-path="url(#pceb21efdb6)" d="M 573.318182 641.4408 
L 577.344156 641.4408 
L 577.344156 598.1976 
L 573.318182 598.1976 
z
" style="fill:#1f77b4;"/>
   </g>
   <g id="patch_101">
    <path clip-path="url(#pceb21efdb6)" d="M 578.350649 641.4408 
L 582.376623 641.4408 
L 582.376623 603.0024 
L 578.350649 603.0024 
z
" style="fill:#1f77b4;"/>
   </g>
   <g id="patch_102">
    <path clip-path="url(#pceb21efdb6)" d="M 583.383117 641.4408 
L 587.409091 641.4408 
L 587.409091 607.8072 
L 583.383117 607.8072 
z
" style="fill:#1f77b4;"/>
   </g>
   <g id="patch_103">
    <path clip-path="url(#pceb21efdb6)" d="M 588.415584 641.4408 
L 592.441558 641.4408 
L 592.441558 612.612 
L 588.415584 612.612 
z
" style="fill:#1f77b4;"/>
   </g>
   <g id="patch_104">
    <path clip-path="url(#pceb21efdb6)" d="M 593.448052 641.4408 
L 597.474026 641.4408 
L 597.474026 617.4168 
L 593.448052 617.4168 
z
" style="fill:#1f77b4;"/>
   </g>
   <g id="patch_105">
    <path clip-path="url(#pceb21efdb6)" d="M 598.480519 641.4408 
L 602.506494 641.4408 
L 602.506494 622.2216 
L 598.480519 622.2216 
z
" style="fill:#1f77b4;"/>
   </g>
   <g id="patch_106">
    <path clip-path="url(#pceb21efdb6)" d="M 603.512987 641.4408 
L 607.538961 641.4408 
L 607.538961 627.0264 
L 603.512987 627.0264 
z
" style="fill:#1f77b4;"/>
   </g>
   <g id="patch_107">
    <path clip-path="url(#pceb21efdb6)" d="M 608.545455 641.4408 
L 612.571429 641.4408 
L 612.571429 631.8312 
L 608.545455 631.8312 
z
" style="fill:#1f77b4;"/>
   </g>
   <g id="patch_108">
    <path clip-path="url(#pceb21efdb6)" d="M 613.577922 641.4408 
L 617.603896 641.4408 
L 617.603896 636.636 
L 613.577922 636.636 
z
" style="fill:#1f77b4;"/>
   </g>
   <g id="patch_109">
    <path clip-path="url(#pceb21efdb6)" d="M 618.61039 641.4408 
L 622.636364 641.4408 
L 622.636364 641.4408 
L 618.61039 641.4408 
z
" style="fill:#1f77b4;"/>
   </g>
   <g id="matplotlib.axis_3">
    <g id="xtick_7">
     <g id="line2d_28">
      <g>
       <use style="stroke:#000000;stroke-width:0.8;" x="117.376623" xlink:href="#m6b351e60d0" y="641.4408"/>
      </g>
     </g>
     <g id="text_20">
      <!-- 0 -->
      <g transform="translate(114.195373 656.039238)scale(0.1 -0.1)">
       <use xlink:href="#DejaVuSans-48"/>
      </g>
     </g>
    </g>
    <g id="xtick_8">
     <g id="line2d_29">
      <g>
       <use style="stroke:#000000;stroke-width:0.8;" x="218.025974" xlink:href="#m6b351e60d0" y="641.4408"/>
      </g>
     </g>
     <g id="text_21">
      <!-- 20 -->
      <g transform="translate(211.663474 656.039238)scale(0.1 -0.1)">
       <use xlink:href="#DejaVuSans-50"/>
       <use x="63.623047" xlink:href="#DejaVuSans-48"/>
      </g>
     </g>
    </g>
    <g id="xtick_9">
     <g id="line2d_30">
      <g>
       <use style="stroke:#000000;stroke-width:0.8;" x="318.675325" xlink:href="#m6b351e60d0" y="641.4408"/>
      </g>
     </g>
     <g id="text_22">
      <!-- 40 -->
      <g transform="translate(312.312825 656.039238)scale(0.1 -0.1)">
       <use xlink:href="#DejaVuSans-52"/>
       <use x="63.623047" xlink:href="#DejaVuSans-48"/>
      </g>
     </g>
    </g>
    <g id="xtick_10">
     <g id="line2d_31">
      <g>
       <use style="stroke:#000000;stroke-width:0.8;" x="419.324675" xlink:href="#m6b351e60d0" y="641.4408"/>
      </g>
     </g>
     <g id="text_23">
      <!-- 60 -->
      <g transform="translate(412.962175 656.039238)scale(0.1 -0.1)">
       <use xlink:href="#DejaVuSans-54"/>
       <use x="63.623047" xlink:href="#DejaVuSans-48"/>
      </g>
     </g>
    </g>
    <g id="xtick_11">
     <g id="line2d_32">
      <g>
       <use style="stroke:#000000;stroke-width:0.8;" x="519.974026" xlink:href="#m6b351e60d0" y="641.4408"/>
      </g>
     </g>
     <g id="text_24">
      <!-- 80 -->
      <g transform="translate(513.611526 656.039238)scale(0.1 -0.1)">
       <use xlink:href="#DejaVuSans-56"/>
       <use x="63.623047" xlink:href="#DejaVuSans-48"/>
      </g>
     </g>
    </g>
    <g id="xtick_12">
     <g id="line2d_33">
      <g>
       <use style="stroke:#000000;stroke-width:0.8;" x="620.623377" xlink:href="#m6b351e60d0" y="641.4408"/>
      </g>
     </g>
     <g id="text_25">
      <!-- 100 -->
      <g transform="translate(611.079627 656.039238)scale(0.1 -0.1)">
       <use xlink:href="#DejaVuSans-49"/>
       <use x="63.623047" xlink:href="#DejaVuSans-48"/>
       <use x="127.246094" xlink:href="#DejaVuSans-48"/>
      </g>
     </g>
    </g>
    <g id="text_26">
     <!-- Capital -->
     <g transform="translate(351.467969 669.717363)scale(0.1 -0.1)">
      <use xlink:href="#DejaVuSans-67"/>
      <use x="69.824219" xlink:href="#DejaVuSans-97"/>
      <use x="131.103516" xlink:href="#DejaVuSans-112"/>
      <use x="194.580078" xlink:href="#DejaVuSans-105"/>
      <use x="222.363281" xlink:href="#DejaVuSans-116"/>
      <use x="261.572266" xlink:href="#DejaVuSans-97"/>
      <use x="322.851562" xlink:href="#DejaVuSans-108"/>
     </g>
    </g>
   </g>
   <g id="matplotlib.axis_4">
    <g id="ytick_7">
     <g id="line2d_34">
      <g>
       <use style="stroke:#000000;stroke-width:0.8;" x="90" xlink:href="#mf29c9a1f19" y="641.4408"/>
      </g>
     </g>
     <g id="text_27">
      <!-- 0 -->
      <g transform="translate(76.6375 645.240019)scale(0.1 -0.1)">
       <use xlink:href="#DejaVuSans-48"/>
      </g>
     </g>
    </g>
    <g id="ytick_8">
     <g id="line2d_35">
      <g>
       <use style="stroke:#000000;stroke-width:0.8;" x="90" xlink:href="#mf29c9a1f19" y="593.3928"/>
      </g>
     </g>
     <g id="text_28">
      <!-- 10 -->
      <g transform="translate(70.275 597.192019)scale(0.1 -0.1)">
       <use xlink:href="#DejaVuSans-49"/>
       <use x="63.623047" xlink:href="#DejaVuSans-48"/>
      </g>
     </g>
    </g>
    <g id="ytick_9">
     <g id="line2d_36">
      <g>
       <use style="stroke:#000000;stroke-width:0.8;" x="90" xlink:href="#mf29c9a1f19" y="545.3448"/>
      </g>
     </g>
     <g id="text_29">
      <!-- 20 -->
      <g transform="translate(70.275 549.144019)scale(0.1 -0.1)">
       <use xlink:href="#DejaVuSans-50"/>
       <use x="63.623047" xlink:href="#DejaVuSans-48"/>
      </g>
     </g>
    </g>
    <g id="ytick_10">
     <g id="line2d_37">
      <g>
       <use style="stroke:#000000;stroke-width:0.8;" x="90" xlink:href="#mf29c9a1f19" y="497.2968"/>
      </g>
     </g>
     <g id="text_30">
      <!-- 30 -->
      <g transform="translate(70.275 501.096019)scale(0.1 -0.1)">
       <use xlink:href="#DejaVuSans-51"/>
       <use x="63.623047" xlink:href="#DejaVuSans-48"/>
      </g>
     </g>
    </g>
    <g id="ytick_11">
     <g id="line2d_38">
      <g>
       <use style="stroke:#000000;stroke-width:0.8;" x="90" xlink:href="#mf29c9a1f19" y="449.2488"/>
      </g>
     </g>
     <g id="text_31">
      <!-- 40 -->
      <g transform="translate(70.275 453.048019)scale(0.1 -0.1)">
       <use xlink:href="#DejaVuSans-52"/>
       <use x="63.623047" xlink:href="#DejaVuSans-48"/>
      </g>
     </g>
    </g>
    <g id="ytick_12">
     <g id="line2d_39">
      <g>
       <use style="stroke:#000000;stroke-width:0.8;" x="90" xlink:href="#mf29c9a1f19" y="401.2008"/>
      </g>
     </g>
     <g id="text_32">
      <!-- 50 -->
      <g transform="translate(70.275 405.000019)scale(0.1 -0.1)">
       <defs>
        <path d="M 10.796875 72.90625 
L 49.515625 72.90625 
L 49.515625 64.59375 
L 19.828125 64.59375 
L 19.828125 46.734375 
Q 21.96875 47.46875 24.109375 47.828125 
Q 26.265625 48.1875 28.421875 48.1875 
Q 40.625 48.1875 47.75 41.5 
Q 54.890625 34.8125 54.890625 23.390625 
Q 54.890625 11.625 47.5625 5.09375 
Q 40.234375 -1.421875 26.90625 -1.421875 
Q 22.3125 -1.421875 17.546875 -0.640625 
Q 12.796875 0.140625 7.71875 1.703125 
L 7.71875 11.625 
Q 12.109375 9.234375 16.796875 8.0625 
Q 21.484375 6.890625 26.703125 6.890625 
Q 35.15625 6.890625 40.078125 11.328125 
Q 45.015625 15.765625 45.015625 23.390625 
Q 45.015625 31 40.078125 35.4375 
Q 35.15625 39.890625 26.703125 39.890625 
Q 22.75 39.890625 18.8125 39.015625 
Q 14.890625 38.140625 10.796875 36.28125 
z
" id="DejaVuSans-53"/>
       </defs>
       <use xlink:href="#DejaVuSans-53"/>
       <use x="63.623047" xlink:href="#DejaVuSans-48"/>
      </g>
     </g>
    </g>
    <g id="text_33">
     <!-- Final policy (stake) -->
     <g transform="translate(64.195312 562.05855)rotate(-90)scale(0.1 -0.1)">
      <defs>
       <path d="M 9.8125 72.90625 
L 51.703125 72.90625 
L 51.703125 64.59375 
L 19.671875 64.59375 
L 19.671875 43.109375 
L 48.578125 43.109375 
L 48.578125 34.8125 
L 19.671875 34.8125 
L 19.671875 0 
L 9.8125 0 
z
" id="DejaVuSans-70"/>
       <path d="M 30.609375 48.390625 
Q 23.390625 48.390625 19.1875 42.75 
Q 14.984375 37.109375 14.984375 27.296875 
Q 14.984375 17.484375 19.15625 11.84375 
Q 23.34375 6.203125 30.609375 6.203125 
Q 37.796875 6.203125 41.984375 11.859375 
Q 46.1875 17.53125 46.1875 27.296875 
Q 46.1875 37.015625 41.984375 42.703125 
Q 37.796875 48.390625 30.609375 48.390625 
z
M 30.609375 56 
Q 42.328125 56 49.015625 48.375 
Q 55.71875 40.765625 55.71875 27.296875 
Q 55.71875 13.875 49.015625 6.21875 
Q 42.328125 -1.421875 30.609375 -1.421875 
Q 18.84375 -1.421875 12.171875 6.21875 
Q 5.515625 13.875 5.515625 27.296875 
Q 5.515625 40.765625 12.171875 48.375 
Q 18.84375 56 30.609375 56 
z
" id="DejaVuSans-111"/>
       <path d="M 48.78125 52.59375 
L 48.78125 44.1875 
Q 44.96875 46.296875 41.140625 47.34375 
Q 37.3125 48.390625 33.40625 48.390625 
Q 24.65625 48.390625 19.8125 42.84375 
Q 14.984375 37.3125 14.984375 27.296875 
Q 14.984375 17.28125 19.8125 11.734375 
Q 24.65625 6.203125 33.40625 6.203125 
Q 37.3125 6.203125 41.140625 7.25 
Q 44.96875 8.296875 48.78125 10.40625 
L 48.78125 2.09375 
Q 45.015625 0.34375 40.984375 -0.53125 
Q 36.96875 -1.421875 32.421875 -1.421875 
Q 20.0625 -1.421875 12.78125 6.34375 
Q 5.515625 14.109375 5.515625 27.296875 
Q 5.515625 40.671875 12.859375 48.328125 
Q 20.21875 56 33.015625 56 
Q 37.15625 56 41.109375 55.140625 
Q 45.0625 54.296875 48.78125 52.59375 
z
" id="DejaVuSans-99"/>
       <path d="M 32.171875 -5.078125 
Q 28.375 -14.84375 24.75 -17.8125 
Q 21.140625 -20.796875 15.09375 -20.796875 
L 7.90625 -20.796875 
L 7.90625 -13.28125 
L 13.1875 -13.28125 
Q 16.890625 -13.28125 18.9375 -11.515625 
Q 21 -9.765625 23.484375 -3.21875 
L 25.09375 0.875 
L 2.984375 54.6875 
L 12.5 54.6875 
L 29.59375 11.921875 
L 46.6875 54.6875 
L 56.203125 54.6875 
z
" id="DejaVuSans-121"/>
       <path d="M 31 75.875 
Q 24.46875 64.65625 21.28125 53.65625 
Q 18.109375 42.671875 18.109375 31.390625 
Q 18.109375 20.125 21.3125 9.0625 
Q 24.515625 -2 31 -13.1875 
L 23.1875 -13.1875 
Q 15.875 -1.703125 12.234375 9.375 
Q 8.59375 20.453125 8.59375 31.390625 
Q 8.59375 42.28125 12.203125 53.3125 
Q 15.828125 64.359375 23.1875 75.875 
z
" id="DejaVuSans-40"/>
       <path d="M 9.078125 75.984375 
L 18.109375 75.984375 
L 18.109375 31.109375 
L 44.921875 54.6875 
L 56.390625 54.6875 
L 27.390625 29.109375 
L 57.625 0 
L 45.90625 0 
L 18.109375 26.703125 
L 18.109375 0 
L 9.078125 0 
z
" id="DejaVuSans-107"/>
       <path d="M 8.015625 75.875 
L 15.828125 75.875 
Q 23.140625 64.359375 26.78125 53.3125 
Q 30.421875 42.28125 30.421875 31.390625 
Q 30.421875 20.453125 26.78125 9.375 
Q 23.140625 -1.703125 15.828125 -13.1875 
L 8.015625 -13.1875 
Q 14.5 -2 17.703125 9.0625 
Q 20.90625 20.125 20.90625 31.390625 
Q 20.90625 42.671875 17.703125 53.65625 
Q 14.5 64.65625 8.015625 75.875 
z
" id="DejaVuSans-41"/>
      </defs>
      <use xlink:href="#DejaVuSans-70"/>
      <use x="50.269531" xlink:href="#DejaVuSans-105"/>
      <use x="78.052734" xlink:href="#DejaVuSans-110"/>
      <use x="141.431641" xlink:href="#DejaVuSans-97"/>
      <use x="202.710938" xlink:href="#DejaVuSans-108"/>
      <use x="230.494141" xlink:href="#DejaVuSans-32"/>
      <use x="262.28125" xlink:href="#DejaVuSans-112"/>
      <use x="325.757812" xlink:href="#DejaVuSans-111"/>
      <use x="386.939453" xlink:href="#DejaVuSans-108"/>
      <use x="414.722656" xlink:href="#DejaVuSans-105"/>
      <use x="442.505859" xlink:href="#DejaVuSans-99"/>
      <use x="497.486328" xlink:href="#DejaVuSans-121"/>
      <use x="556.666016" xlink:href="#DejaVuSans-32"/>
      <use x="588.453125" xlink:href="#DejaVuSans-40"/>
      <use x="627.466797" xlink:href="#DejaVuSans-115"/>
      <use x="679.566406" xlink:href="#DejaVuSans-116"/>
      <use x="718.775391" xlink:href="#DejaVuSans-97"/>
      <use x="780.054688" xlink:href="#DejaVuSans-107"/>
      <use x="834.339844" xlink:href="#DejaVuSans-101"/>
      <use x="895.863281" xlink:href="#DejaVuSans-41"/>
     </g>
    </g>
   </g>
   <g id="patch_110">
    <path d="M 90 641.4408 
L 90 389.1888 
" style="fill:none;stroke:#000000;stroke-linecap:square;stroke-linejoin:miter;stroke-width:0.8;"/>
   </g>
   <g id="patch_111">
    <path d="M 648 641.4408 
L 648 389.1888 
" style="fill:none;stroke:#000000;stroke-linecap:square;stroke-linejoin:miter;stroke-width:0.8;"/>
   </g>
   <g id="patch_112">
    <path d="M 90 641.4408 
L 648 641.4408 
" style="fill:none;stroke:#000000;stroke-linecap:square;stroke-linejoin:miter;stroke-width:0.8;"/>
   </g>
   <g id="patch_113">
    <path d="M 90 389.1888 
L 648 389.1888 
" style="fill:none;stroke:#000000;stroke-linecap:square;stroke-linejoin:miter;stroke-width:0.8;"/>
   </g>
  </g>
 </g>
 <defs>
  <clipPath id="pc346e6a079">
   <rect height="252.252" width="558" x="90" y="86.4864"/>
  </clipPath>
  <clipPath id="pceb21efdb6">
   <rect height="252.252" width="558" x="90" y="389.1888"/>
  </clipPath>
 </defs>
</svg>
