<?xml version="1.0" encoding="utf-8" standalone="no"?>
<!DOCTYPE svg PUBLIC "-//W3C//DTD SVG 1.1//EN"
  "http://www.w3.org/Graphics/SVG/1.1/DTD/svg11.dtd">
<!-- Created with matplotlib (https://matplotlib.org/) -->
<svg height="288pt" version="1.1" viewBox="0 0 864 288" width="864pt" xmlns="http://www.w3.org/2000/svg" xmlns:xlink="http://www.w3.org/1999/xlink">
 <metadata>
  <rdf:RDF xmlns:cc="http://creativecommons.org/ns#" xmlns:dc="http://purl.org/dc/elements/1.1/" xmlns:rdf="http://www.w3.org/1999/02/22-rdf-syntax-ns#">
   <cc:Work>
    <dc:type rdf:resource="http://purl.org/dc/dcmitype/StillImage"/>
    <dc:date>2021-08-05T13:27:57.953186</dc:date>
    <dc:format>image/svg+xml</dc:format>
    <dc:creator>
     <cc:Agent>
      <dc:title>Matplotlib v3.3.4, https://matplotlib.org/</dc:title>
     </cc:Agent>
    </dc:creator>
   </cc:Work>
  </rdf:RDF>
 </metadata>
 <defs>
  <style type="text/css">*{stroke-linecap:butt;stroke-linejoin:round;}</style>
 </defs>
 <g id="figure_1">
  <g id="patch_1">
   <path d="M 0 288 
L 864 288 
L 864 0 
L 0 0 
z
" style="fill:#ffffff;"/>
  </g>
  <g id="axes_1">
   <g id="patch_2">
    <path d="M 108 256.32 
L 412.363636 256.32 
L 412.363636 34.56 
L 108 34.56 
z
" style="fill:#ffffff;"/>
   </g>
   <g id="matplotlib.axis_1">
    <g id="xtick_1">
     <g id="line2d_1">
      <defs>
       <path d="M 0 0 
L 0 3.5 
" id="m0e526110ac" style="stroke:#000000;stroke-width:0.8;"/>
      </defs>
      <g>
       <use style="stroke:#000000;stroke-width:0.8;" x="121.834711" xlink:href="#m0e526110ac" y="256.32"/>
      </g>
     </g>
     <g id="text_1">
      <!-- a -->
      <g transform="translate(118.770648 270.918437)scale(0.1 -0.1)">
       <defs>
        <path d="M 34.28125 27.484375 
Q 23.390625 27.484375 19.1875 25 
Q 14.984375 22.515625 14.984375 16.5 
Q 14.984375 11.71875 18.140625 8.90625 
Q 21.296875 6.109375 26.703125 6.109375 
Q 34.1875 6.109375 38.703125 11.40625 
Q 43.21875 16.703125 43.21875 25.484375 
L 43.21875 27.484375 
z
M 52.203125 31.203125 
L 52.203125 0 
L 43.21875 0 
L 43.21875 8.296875 
Q 40.140625 3.328125 35.546875 0.953125 
Q 30.953125 -1.421875 24.3125 -1.421875 
Q 15.921875 -1.421875 10.953125 3.296875 
Q 6 8.015625 6 15.921875 
Q 6 25.140625 12.171875 29.828125 
Q 18.359375 34.515625 30.609375 34.515625 
L 43.21875 34.515625 
L 43.21875 35.40625 
Q 43.21875 41.609375 39.140625 45 
Q 35.0625 48.390625 27.6875 48.390625 
Q 23 48.390625 18.546875 47.265625 
Q 14.109375 46.140625 10.015625 43.890625 
L 10.015625 52.203125 
Q 14.9375 54.109375 19.578125 55.046875 
Q 24.21875 56 28.609375 56 
Q 40.484375 56 46.34375 49.84375 
Q 52.203125 43.703125 52.203125 31.203125 
z
" id="DejaVuSans-97"/>
       </defs>
       <use xlink:href="#DejaVuSans-97"/>
      </g>
     </g>
    </g>
    <g id="xtick_2">
     <g id="line2d_2">
      <g>
       <use style="stroke:#000000;stroke-width:0.8;" x="191.008264" xlink:href="#m0e526110ac" y="256.32"/>
      </g>
     </g>
     <g id="text_2">
      <!-- b -->
      <g transform="translate(187.834046 270.918437)scale(0.1 -0.1)">
       <defs>
        <path d="M 48.6875 27.296875 
Q 48.6875 37.203125 44.609375 42.84375 
Q 40.53125 48.484375 33.40625 48.484375 
Q 26.265625 48.484375 22.1875 42.84375 
Q 18.109375 37.203125 18.109375 27.296875 
Q 18.109375 17.390625 22.1875 11.75 
Q 26.265625 6.109375 33.40625 6.109375 
Q 40.53125 6.109375 44.609375 11.75 
Q 48.6875 17.390625 48.6875 27.296875 
z
M 18.109375 46.390625 
Q 20.953125 51.265625 25.265625 53.625 
Q 29.59375 56 35.59375 56 
Q 45.5625 56 51.78125 48.09375 
Q 58.015625 40.1875 58.015625 27.296875 
Q 58.015625 14.40625 51.78125 6.484375 
Q 45.5625 -1.421875 35.59375 -1.421875 
Q 29.59375 -1.421875 25.265625 0.953125 
Q 20.953125 3.328125 18.109375 8.203125 
L 18.109375 0 
L 9.078125 0 
L 9.078125 75.984375 
L 18.109375 75.984375 
z
" id="DejaVuSans-98"/>
       </defs>
       <use xlink:href="#DejaVuSans-98"/>
      </g>
     </g>
    </g>
    <g id="xtick_3">
     <g id="line2d_3">
      <g>
       <use style="stroke:#000000;stroke-width:0.8;" x="260.181818" xlink:href="#m0e526110ac" y="256.32"/>
      </g>
     </g>
     <g id="text_3">
      <!-- c -->
      <g transform="translate(257.432599 270.918437)scale(0.1 -0.1)">
       <defs>
        <path d="M 48.78125 52.59375 
L 48.78125 44.1875 
Q 44.96875 46.296875 41.140625 47.34375 
Q 37.3125 48.390625 33.40625 48.390625 
Q 24.65625 48.390625 19.8125 42.84375 
Q 14.984375 37.3125 14.984375 27.296875 
Q 14.984375 17.28125 19.8125 11.734375 
Q 24.65625 6.203125 33.40625 6.203125 
Q 37.3125 6.203125 41.140625 7.25 
Q 44.96875 8.296875 48.78125 10.40625 
L 48.78125 2.09375 
Q 45.015625 0.34375 40.984375 -0.53125 
Q 36.96875 -1.421875 32.421875 -1.421875 
Q 20.0625 -1.421875 12.78125 6.34375 
Q 5.515625 14.109375 5.515625 27.296875 
Q 5.515625 40.671875 12.859375 48.328125 
Q 20.21875 56 33.015625 56 
Q 37.15625 56 41.109375 55.140625 
Q 45.0625 54.296875 48.78125 52.59375 
z
" id="DejaVuSans-99"/>
       </defs>
       <use xlink:href="#DejaVuSans-99"/>
      </g>
     </g>
    </g>
    <g id="xtick_4">
     <g id="line2d_4">
      <g>
       <use style="stroke:#000000;stroke-width:0.8;" x="329.355372" xlink:href="#m0e526110ac" y="256.32"/>
      </g>
     </g>
     <g id="text_4">
      <!-- d -->
      <g transform="translate(326.181153 270.918437)scale(0.1 -0.1)">
       <defs>
        <path d="M 45.40625 46.390625 
L 45.40625 75.984375 
L 54.390625 75.984375 
L 54.390625 0 
L 45.40625 0 
L 45.40625 8.203125 
Q 42.578125 3.328125 38.25 0.953125 
Q 33.9375 -1.421875 27.875 -1.421875 
Q 17.96875 -1.421875 11.734375 6.484375 
Q 5.515625 14.40625 5.515625 27.296875 
Q 5.515625 40.1875 11.734375 48.09375 
Q 17.96875 56 27.875 56 
Q 33.9375 56 38.25 53.625 
Q 42.578125 51.265625 45.40625 46.390625 
z
M 14.796875 27.296875 
Q 14.796875 17.390625 18.875 11.75 
Q 22.953125 6.109375 30.078125 6.109375 
Q 37.203125 6.109375 41.296875 11.75 
Q 45.40625 17.390625 45.40625 27.296875 
Q 45.40625 37.203125 41.296875 42.84375 
Q 37.203125 48.484375 30.078125 48.484375 
Q 22.953125 48.484375 18.875 42.84375 
Q 14.796875 37.203125 14.796875 27.296875 
z
" id="DejaVuSans-100"/>
       </defs>
       <use xlink:href="#DejaVuSans-100"/>
      </g>
     </g>
    </g>
    <g id="xtick_5">
     <g id="line2d_5">
      <g>
       <use style="stroke:#000000;stroke-width:0.8;" x="398.528926" xlink:href="#m0e526110ac" y="256.32"/>
      </g>
     </g>
     <g id="text_5">
      <!-- e -->
      <g transform="translate(395.452363 270.918437)scale(0.1 -0.1)">
       <defs>
        <path d="M 56.203125 29.59375 
L 56.203125 25.203125 
L 14.890625 25.203125 
Q 15.484375 15.921875 20.484375 11.0625 
Q 25.484375 6.203125 34.421875 6.203125 
Q 39.59375 6.203125 44.453125 7.46875 
Q 49.3125 8.734375 54.109375 11.28125 
L 54.109375 2.78125 
Q 49.265625 0.734375 44.1875 -0.34375 
Q 39.109375 -1.421875 33.890625 -1.421875 
Q 20.796875 -1.421875 13.15625 6.1875 
Q 5.515625 13.8125 5.515625 26.8125 
Q 5.515625 40.234375 12.765625 48.109375 
Q 20.015625 56 32.328125 56 
Q 43.359375 56 49.78125 48.890625 
Q 56.203125 41.796875 56.203125 29.59375 
z
M 47.21875 32.234375 
Q 47.125 39.59375 43.09375 43.984375 
Q 39.0625 48.390625 32.421875 48.390625 
Q 24.90625 48.390625 20.390625 44.140625 
Q 15.875 39.890625 15.1875 32.171875 
z
" id="DejaVuSans-101"/>
       </defs>
       <use xlink:href="#DejaVuSans-101"/>
      </g>
     </g>
    </g>
    <g id="text_6">
     <!-- State -->
     <g transform="translate(246.946662 284.596563)scale(0.1 -0.1)">
      <defs>
       <path d="M 53.515625 70.515625 
L 53.515625 60.890625 
Q 47.90625 63.578125 42.921875 64.890625 
Q 37.9375 66.21875 33.296875 66.21875 
Q 25.25 66.21875 20.875 63.09375 
Q 16.5 59.96875 16.5 54.203125 
Q 16.5 49.359375 19.40625 46.890625 
Q 22.3125 44.4375 30.421875 42.921875 
L 36.375 41.703125 
Q 47.40625 39.59375 52.65625 34.296875 
Q 57.90625 29 57.90625 20.125 
Q 57.90625 9.515625 50.796875 4.046875 
Q 43.703125 -1.421875 29.984375 -1.421875 
Q 24.8125 -1.421875 18.96875 -0.25 
Q 13.140625 0.921875 6.890625 3.21875 
L 6.890625 13.375 
Q 12.890625 10.015625 18.65625 8.296875 
Q 24.421875 6.59375 29.984375 6.59375 
Q 38.421875 6.59375 43.015625 9.90625 
Q 47.609375 13.234375 47.609375 19.390625 
Q 47.609375 24.75 44.3125 27.78125 
Q 41.015625 30.8125 33.5 32.328125 
L 27.484375 33.5 
Q 16.453125 35.6875 11.515625 40.375 
Q 6.59375 45.0625 6.59375 53.421875 
Q 6.59375 63.09375 13.40625 68.65625 
Q 20.21875 74.21875 32.171875 74.21875 
Q 37.3125 74.21875 42.625 73.28125 
Q 47.953125 72.359375 53.515625 70.515625 
z
" id="DejaVuSans-83"/>
       <path d="M 18.3125 70.21875 
L 18.3125 54.6875 
L 36.8125 54.6875 
L 36.8125 47.703125 
L 18.3125 47.703125 
L 18.3125 18.015625 
Q 18.3125 11.328125 20.140625 9.421875 
Q 21.96875 7.515625 27.59375 7.515625 
L 36.8125 7.515625 
L 36.8125 0 
L 27.59375 0 
Q 17.1875 0 13.234375 3.875 
Q 9.28125 7.765625 9.28125 18.015625 
L 9.28125 47.703125 
L 2.6875 47.703125 
L 2.6875 54.6875 
L 9.28125 54.6875 
L 9.28125 70.21875 
z
" id="DejaVuSans-116"/>
      </defs>
      <use xlink:href="#DejaVuSans-83"/>
      <use x="63.476562" xlink:href="#DejaVuSans-116"/>
      <use x="102.685547" xlink:href="#DejaVuSans-97"/>
      <use x="163.964844" xlink:href="#DejaVuSans-116"/>
      <use x="203.173828" xlink:href="#DejaVuSans-101"/>
     </g>
    </g>
   </g>
   <g id="matplotlib.axis_2">
    <g id="ytick_1">
     <g id="line2d_6">
      <defs>
       <path d="M 0 0 
L -3.5 0 
" id="m48f472f063" style="stroke:#000000;stroke-width:0.8;"/>
      </defs>
      <g>
       <use style="stroke:#000000;stroke-width:0.8;" x="108" xlink:href="#m48f472f063" y="241.119566"/>
      </g>
     </g>
     <g id="text_7">
      <!-- 0.1 -->
      <g transform="translate(85.096875 244.918785)scale(0.1 -0.1)">
       <defs>
        <path d="M 31.78125 66.40625 
Q 24.171875 66.40625 20.328125 58.90625 
Q 16.5 51.421875 16.5 36.375 
Q 16.5 21.390625 20.328125 13.890625 
Q 24.171875 6.390625 31.78125 6.390625 
Q 39.453125 6.390625 43.28125 13.890625 
Q 47.125 21.390625 47.125 36.375 
Q 47.125 51.421875 43.28125 58.90625 
Q 39.453125 66.40625 31.78125 66.40625 
z
M 31.78125 74.21875 
Q 44.046875 74.21875 50.515625 64.515625 
Q 56.984375 54.828125 56.984375 36.375 
Q 56.984375 17.96875 50.515625 8.265625 
Q 44.046875 -1.421875 31.78125 -1.421875 
Q 19.53125 -1.421875 13.0625 8.265625 
Q 6.59375 17.96875 6.59375 36.375 
Q 6.59375 54.828125 13.0625 64.515625 
Q 19.53125 74.21875 31.78125 74.21875 
z
" id="DejaVuSans-48"/>
        <path d="M 10.6875 12.40625 
L 21 12.40625 
L 21 0 
L 10.6875 0 
z
" id="DejaVuSans-46"/>
        <path d="M 12.40625 8.296875 
L 28.515625 8.296875 
L 28.515625 63.921875 
L 10.984375 60.40625 
L 10.984375 69.390625 
L 28.421875 72.90625 
L 38.28125 72.90625 
L 38.28125 8.296875 
L 54.390625 8.296875 
L 54.390625 0 
L 12.40625 0 
z
" id="DejaVuSans-49"/>
       </defs>
       <use xlink:href="#DejaVuSans-48"/>
       <use x="63.623047" xlink:href="#DejaVuSans-46"/>
       <use x="95.410156" xlink:href="#DejaVuSans-49"/>
      </g>
     </g>
    </g>
    <g id="ytick_2">
     <g id="line2d_7">
      <g>
       <use style="stroke:#000000;stroke-width:0.8;" x="108" xlink:href="#m48f472f063" y="214.326898"/>
      </g>
     </g>
     <g id="text_8">
      <!-- 0.2 -->
      <g transform="translate(85.096875 218.126117)scale(0.1 -0.1)">
       <defs>
        <path d="M 19.1875 8.296875 
L 53.609375 8.296875 
L 53.609375 0 
L 7.328125 0 
L 7.328125 8.296875 
Q 12.9375 14.109375 22.625 23.890625 
Q 32.328125 33.6875 34.8125 36.53125 
Q 39.546875 41.84375 41.421875 45.53125 
Q 43.3125 49.21875 43.3125 52.78125 
Q 43.3125 58.59375 39.234375 62.25 
Q 35.15625 65.921875 28.609375 65.921875 
Q 23.96875 65.921875 18.8125 64.3125 
Q 13.671875 62.703125 7.8125 59.421875 
L 7.8125 69.390625 
Q 13.765625 71.78125 18.9375 73 
Q 24.125 74.21875 28.421875 74.21875 
Q 39.75 74.21875 46.484375 68.546875 
Q 53.21875 62.890625 53.21875 53.421875 
Q 53.21875 48.921875 51.53125 44.890625 
Q 49.859375 40.875 45.40625 35.40625 
Q 44.1875 33.984375 37.640625 27.21875 
Q 31.109375 20.453125 19.1875 8.296875 
z
" id="DejaVuSans-50"/>
       </defs>
       <use xlink:href="#DejaVuSans-48"/>
       <use x="63.623047" xlink:href="#DejaVuSans-46"/>
       <use x="95.410156" xlink:href="#DejaVuSans-50"/>
      </g>
     </g>
    </g>
    <g id="ytick_3">
     <g id="line2d_8">
      <g>
       <use style="stroke:#000000;stroke-width:0.8;" x="108" xlink:href="#m48f472f063" y="187.53423"/>
      </g>
     </g>
     <g id="text_9">
      <!-- 0.3 -->
      <g transform="translate(85.096875 191.333449)scale(0.1 -0.1)">
       <defs>
        <path d="M 40.578125 39.3125 
Q 47.65625 37.796875 51.625 33 
Q 55.609375 28.21875 55.609375 21.1875 
Q 55.609375 10.40625 48.1875 4.484375 
Q 40.765625 -1.421875 27.09375 -1.421875 
Q 22.515625 -1.421875 17.65625 -0.515625 
Q 12.796875 0.390625 7.625 2.203125 
L 7.625 11.71875 
Q 11.71875 9.328125 16.59375 8.109375 
Q 21.484375 6.890625 26.8125 6.890625 
Q 36.078125 6.890625 40.9375 10.546875 
Q 45.796875 14.203125 45.796875 21.1875 
Q 45.796875 27.640625 41.28125 31.265625 
Q 36.765625 34.90625 28.71875 34.90625 
L 20.21875 34.90625 
L 20.21875 43.015625 
L 29.109375 43.015625 
Q 36.375 43.015625 40.234375 45.921875 
Q 44.09375 48.828125 44.09375 54.296875 
Q 44.09375 59.90625 40.109375 62.90625 
Q 36.140625 65.921875 28.71875 65.921875 
Q 24.65625 65.921875 20.015625 65.03125 
Q 15.375 64.15625 9.8125 62.3125 
L 9.8125 71.09375 
Q 15.4375 72.65625 20.34375 73.4375 
Q 25.25 74.21875 29.59375 74.21875 
Q 40.828125 74.21875 47.359375 69.109375 
Q 53.90625 64.015625 53.90625 55.328125 
Q 53.90625 49.265625 50.4375 45.09375 
Q 46.96875 40.921875 40.578125 39.3125 
z
" id="DejaVuSans-51"/>
       </defs>
       <use xlink:href="#DejaVuSans-48"/>
       <use x="63.623047" xlink:href="#DejaVuSans-46"/>
       <use x="95.410156" xlink:href="#DejaVuSans-51"/>
      </g>
     </g>
    </g>
    <g id="ytick_4">
     <g id="line2d_9">
      <g>
       <use style="stroke:#000000;stroke-width:0.8;" x="108" xlink:href="#m48f472f063" y="160.741562"/>
      </g>
     </g>
     <g id="text_10">
      <!-- 0.4 -->
      <g transform="translate(85.096875 164.540781)scale(0.1 -0.1)">
       <defs>
        <path d="M 37.796875 64.3125 
L 12.890625 25.390625 
L 37.796875 25.390625 
z
M 35.203125 72.90625 
L 47.609375 72.90625 
L 47.609375 25.390625 
L 58.015625 25.390625 
L 58.015625 17.1875 
L 47.609375 17.1875 
L 47.609375 0 
L 37.796875 0 
L 37.796875 17.1875 
L 4.890625 17.1875 
L 4.890625 26.703125 
z
" id="DejaVuSans-52"/>
       </defs>
       <use xlink:href="#DejaVuSans-48"/>
       <use x="63.623047" xlink:href="#DejaVuSans-46"/>
       <use x="95.410156" xlink:href="#DejaVuSans-52"/>
      </g>
     </g>
    </g>
    <g id="ytick_5">
     <g id="line2d_10">
      <g>
       <use style="stroke:#000000;stroke-width:0.8;" x="108" xlink:href="#m48f472f063" y="133.948894"/>
      </g>
     </g>
     <g id="text_11">
      <!-- 0.5 -->
      <g transform="translate(85.096875 137.748113)scale(0.1 -0.1)">
       <defs>
        <path d="M 10.796875 72.90625 
L 49.515625 72.90625 
L 49.515625 64.59375 
L 19.828125 64.59375 
L 19.828125 46.734375 
Q 21.96875 47.46875 24.109375 47.828125 
Q 26.265625 48.1875 28.421875 48.1875 
Q 40.625 48.1875 47.75 41.5 
Q 54.890625 34.8125 54.890625 23.390625 
Q 54.890625 11.625 47.5625 5.09375 
Q 40.234375 -1.421875 26.90625 -1.421875 
Q 22.3125 -1.421875 17.546875 -0.640625 
Q 12.796875 0.140625 7.71875 1.703125 
L 7.71875 11.625 
Q 12.109375 9.234375 16.796875 8.0625 
Q 21.484375 6.890625 26.703125 6.890625 
Q 35.15625 6.890625 40.078125 11.328125 
Q 45.015625 15.765625 45.015625 23.390625 
Q 45.015625 31 40.078125 35.4375 
Q 35.15625 39.890625 26.703125 39.890625 
Q 22.75 39.890625 18.8125 39.015625 
Q 14.890625 38.140625 10.796875 36.28125 
z
" id="DejaVuSans-53"/>
       </defs>
       <use xlink:href="#DejaVuSans-48"/>
       <use x="63.623047" xlink:href="#DejaVuSans-46"/>
       <use x="95.410156" xlink:href="#DejaVuSans-53"/>
      </g>
     </g>
    </g>
    <g id="ytick_6">
     <g id="line2d_11">
      <g>
       <use style="stroke:#000000;stroke-width:0.8;" x="108" xlink:href="#m48f472f063" y="107.156226"/>
      </g>
     </g>
     <g id="text_12">
      <!-- 0.6 -->
      <g transform="translate(85.096875 110.955444)scale(0.1 -0.1)">
       <defs>
        <path d="M 33.015625 40.375 
Q 26.375 40.375 22.484375 35.828125 
Q 18.609375 31.296875 18.609375 23.390625 
Q 18.609375 15.53125 22.484375 10.953125 
Q 26.375 6.390625 33.015625 6.390625 
Q 39.65625 6.390625 43.53125 10.953125 
Q 47.40625 15.53125 47.40625 23.390625 
Q 47.40625 31.296875 43.53125 35.828125 
Q 39.65625 40.375 33.015625 40.375 
z
M 52.59375 71.296875 
L 52.59375 62.3125 
Q 48.875 64.0625 45.09375 64.984375 
Q 41.3125 65.921875 37.59375 65.921875 
Q 27.828125 65.921875 22.671875 59.328125 
Q 17.53125 52.734375 16.796875 39.40625 
Q 19.671875 43.65625 24.015625 45.921875 
Q 28.375 48.1875 33.59375 48.1875 
Q 44.578125 48.1875 50.953125 41.515625 
Q 57.328125 34.859375 57.328125 23.390625 
Q 57.328125 12.15625 50.6875 5.359375 
Q 44.046875 -1.421875 33.015625 -1.421875 
Q 20.359375 -1.421875 13.671875 8.265625 
Q 6.984375 17.96875 6.984375 36.375 
Q 6.984375 53.65625 15.1875 63.9375 
Q 23.390625 74.21875 37.203125 74.21875 
Q 40.921875 74.21875 44.703125 73.484375 
Q 48.484375 72.75 52.59375 71.296875 
z
" id="DejaVuSans-54"/>
       </defs>
       <use xlink:href="#DejaVuSans-48"/>
       <use x="63.623047" xlink:href="#DejaVuSans-46"/>
       <use x="95.410156" xlink:href="#DejaVuSans-54"/>
      </g>
     </g>
    </g>
    <g id="ytick_7">
     <g id="line2d_12">
      <g>
       <use style="stroke:#000000;stroke-width:0.8;" x="108" xlink:href="#m48f472f063" y="80.363558"/>
      </g>
     </g>
     <g id="text_13">
      <!-- 0.7 -->
      <g transform="translate(85.096875 84.162776)scale(0.1 -0.1)">
       <defs>
        <path d="M 8.203125 72.90625 
L 55.078125 72.90625 
L 55.078125 68.703125 
L 28.609375 0 
L 18.3125 0 
L 43.21875 64.59375 
L 8.203125 64.59375 
z
" id="DejaVuSans-55"/>
       </defs>
       <use xlink:href="#DejaVuSans-48"/>
       <use x="63.623047" xlink:href="#DejaVuSans-46"/>
       <use x="95.410156" xlink:href="#DejaVuSans-55"/>
      </g>
     </g>
    </g>
    <g id="ytick_8">
     <g id="line2d_13">
      <g>
       <use style="stroke:#000000;stroke-width:0.8;" x="108" xlink:href="#m48f472f063" y="53.570889"/>
      </g>
     </g>
     <g id="text_14">
      <!-- 0.8 -->
      <g transform="translate(85.096875 57.370108)scale(0.1 -0.1)">
       <defs>
        <path d="M 31.78125 34.625 
Q 24.75 34.625 20.71875 30.859375 
Q 16.703125 27.09375 16.703125 20.515625 
Q 16.703125 13.921875 20.71875 10.15625 
Q 24.75 6.390625 31.78125 6.390625 
Q 38.8125 6.390625 42.859375 10.171875 
Q 46.921875 13.96875 46.921875 20.515625 
Q 46.921875 27.09375 42.890625 30.859375 
Q 38.875 34.625 31.78125 34.625 
z
M 21.921875 38.8125 
Q 15.578125 40.375 12.03125 44.71875 
Q 8.5 49.078125 8.5 55.328125 
Q 8.5 64.0625 14.71875 69.140625 
Q 20.953125 74.21875 31.78125 74.21875 
Q 42.671875 74.21875 48.875 69.140625 
Q 55.078125 64.0625 55.078125 55.328125 
Q 55.078125 49.078125 51.53125 44.71875 
Q 48 40.375 41.703125 38.8125 
Q 48.828125 37.15625 52.796875 32.3125 
Q 56.78125 27.484375 56.78125 20.515625 
Q 56.78125 9.90625 50.3125 4.234375 
Q 43.84375 -1.421875 31.78125 -1.421875 
Q 19.734375 -1.421875 13.25 4.234375 
Q 6.78125 9.90625 6.78125 20.515625 
Q 6.78125 27.484375 10.78125 32.3125 
Q 14.796875 37.15625 21.921875 38.8125 
z
M 18.3125 54.390625 
Q 18.3125 48.734375 21.84375 45.5625 
Q 25.390625 42.390625 31.78125 42.390625 
Q 38.140625 42.390625 41.71875 45.5625 
Q 45.3125 48.734375 45.3125 54.390625 
Q 45.3125 60.0625 41.71875 63.234375 
Q 38.140625 66.40625 31.78125 66.40625 
Q 25.390625 66.40625 21.84375 63.234375 
Q 18.3125 60.0625 18.3125 54.390625 
z
" id="DejaVuSans-56"/>
       </defs>
       <use xlink:href="#DejaVuSans-48"/>
       <use x="63.623047" xlink:href="#DejaVuSans-46"/>
       <use x="95.410156" xlink:href="#DejaVuSans-56"/>
      </g>
     </g>
    </g>
    <g id="text_15">
     <!-- Estimated value -->
     <g transform="translate(79.017187 185.945469)rotate(-90)scale(0.1 -0.1)">
      <defs>
       <path d="M 9.8125 72.90625 
L 55.90625 72.90625 
L 55.90625 64.59375 
L 19.671875 64.59375 
L 19.671875 43.015625 
L 54.390625 43.015625 
L 54.390625 34.71875 
L 19.671875 34.71875 
L 19.671875 8.296875 
L 56.78125 8.296875 
L 56.78125 0 
L 9.8125 0 
z
" id="DejaVuSans-69"/>
       <path d="M 44.28125 53.078125 
L 44.28125 44.578125 
Q 40.484375 46.53125 36.375 47.5 
Q 32.28125 48.484375 27.875 48.484375 
Q 21.1875 48.484375 17.84375 46.4375 
Q 14.5 44.390625 14.5 40.28125 
Q 14.5 37.15625 16.890625 35.375 
Q 19.28125 33.59375 26.515625 31.984375 
L 29.59375 31.296875 
Q 39.15625 29.25 43.1875 25.515625 
Q 47.21875 21.78125 47.21875 15.09375 
Q 47.21875 7.46875 41.1875 3.015625 
Q 35.15625 -1.421875 24.609375 -1.421875 
Q 20.21875 -1.421875 15.453125 -0.5625 
Q 10.6875 0.296875 5.421875 2 
L 5.421875 11.28125 
Q 10.40625 8.6875 15.234375 7.390625 
Q 20.0625 6.109375 24.8125 6.109375 
Q 31.15625 6.109375 34.5625 8.28125 
Q 37.984375 10.453125 37.984375 14.40625 
Q 37.984375 18.0625 35.515625 20.015625 
Q 33.0625 21.96875 24.703125 23.78125 
L 21.578125 24.515625 
Q 13.234375 26.265625 9.515625 29.90625 
Q 5.8125 33.546875 5.8125 39.890625 
Q 5.8125 47.609375 11.28125 51.796875 
Q 16.75 56 26.8125 56 
Q 31.78125 56 36.171875 55.265625 
Q 40.578125 54.546875 44.28125 53.078125 
z
" id="DejaVuSans-115"/>
       <path d="M 9.421875 54.6875 
L 18.40625 54.6875 
L 18.40625 0 
L 9.421875 0 
z
M 9.421875 75.984375 
L 18.40625 75.984375 
L 18.40625 64.59375 
L 9.421875 64.59375 
z
" id="DejaVuSans-105"/>
       <path d="M 52 44.1875 
Q 55.375 50.25 60.0625 53.125 
Q 64.75 56 71.09375 56 
Q 79.640625 56 84.28125 50.015625 
Q 88.921875 44.046875 88.921875 33.015625 
L 88.921875 0 
L 79.890625 0 
L 79.890625 32.71875 
Q 79.890625 40.578125 77.09375 44.375 
Q 74.3125 48.1875 68.609375 48.1875 
Q 61.625 48.1875 57.5625 43.546875 
Q 53.515625 38.921875 53.515625 30.90625 
L 53.515625 0 
L 44.484375 0 
L 44.484375 32.71875 
Q 44.484375 40.625 41.703125 44.40625 
Q 38.921875 48.1875 33.109375 48.1875 
Q 26.21875 48.1875 22.15625 43.53125 
Q 18.109375 38.875 18.109375 30.90625 
L 18.109375 0 
L 9.078125 0 
L 9.078125 54.6875 
L 18.109375 54.6875 
L 18.109375 46.1875 
Q 21.1875 51.21875 25.484375 53.609375 
Q 29.78125 56 35.6875 56 
Q 41.65625 56 45.828125 52.96875 
Q 50 49.953125 52 44.1875 
z
" id="DejaVuSans-109"/>
       <path id="DejaVuSans-32"/>
       <path d="M 2.984375 54.6875 
L 12.5 54.6875 
L 29.59375 8.796875 
L 46.6875 54.6875 
L 56.203125 54.6875 
L 35.6875 0 
L 23.484375 0 
z
" id="DejaVuSans-118"/>
       <path d="M 9.421875 75.984375 
L 18.40625 75.984375 
L 18.40625 0 
L 9.421875 0 
z
" id="DejaVuSans-108"/>
       <path d="M 8.5 21.578125 
L 8.5 54.6875 
L 17.484375 54.6875 
L 17.484375 21.921875 
Q 17.484375 14.15625 20.5 10.265625 
Q 23.53125 6.390625 29.59375 6.390625 
Q 36.859375 6.390625 41.078125 11.03125 
Q 45.3125 15.671875 45.3125 23.6875 
L 45.3125 54.6875 
L 54.296875 54.6875 
L 54.296875 0 
L 45.3125 0 
L 45.3125 8.40625 
Q 42.046875 3.421875 37.71875 1 
Q 33.40625 -1.421875 27.6875 -1.421875 
Q 18.265625 -1.421875 13.375 4.4375 
Q 8.5 10.296875 8.5 21.578125 
z
M 31.109375 56 
z
" id="DejaVuSans-117"/>
      </defs>
      <use xlink:href="#DejaVuSans-69"/>
      <use x="63.183594" xlink:href="#DejaVuSans-115"/>
      <use x="115.283203" xlink:href="#DejaVuSans-116"/>
      <use x="154.492188" xlink:href="#DejaVuSans-105"/>
      <use x="182.275391" xlink:href="#DejaVuSans-109"/>
      <use x="279.6875" xlink:href="#DejaVuSans-97"/>
      <use x="340.966797" xlink:href="#DejaVuSans-116"/>
      <use x="380.175781" xlink:href="#DejaVuSans-101"/>
      <use x="441.699219" xlink:href="#DejaVuSans-100"/>
      <use x="505.175781" xlink:href="#DejaVuSans-32"/>
      <use x="536.962891" xlink:href="#DejaVuSans-118"/>
      <use x="596.142578" xlink:href="#DejaVuSans-97"/>
      <use x="657.421875" xlink:href="#DejaVuSans-108"/>
      <use x="685.205078" xlink:href="#DejaVuSans-117"/>
      <use x="748.583984" xlink:href="#DejaVuSans-101"/>
     </g>
    </g>
   </g>
   <g id="line2d_14">
    <path clip-path="url(#p730640c68d)" d="M 121.834711 133.948894 
L 191.008264 133.948894 
L 260.181818 133.948894 
L 329.355372 133.948894 
L 398.528926 133.948894 
" style="fill:none;stroke:#1f77b4;stroke-linecap:square;stroke-width:1.5;"/>
   </g>
   <g id="line2d_15">
    <path clip-path="url(#p730640c68d)" d="M 121.834711 147.345228 
L 191.008264 133.948894 
L 260.181818 133.948894 
L 329.355372 133.948894 
L 398.528926 133.948894 
" style="fill:none;stroke:#ff7f0e;stroke-linecap:square;stroke-width:1.5;"/>
   </g>
   <g id="line2d_16">
    <path clip-path="url(#p730640c68d)" d="M 121.834711 187.266039 
L 191.008264 150.878302 
L 260.181818 136.563942 
L 329.355372 120.040175 
L 398.528926 88.711023 
" style="fill:none;stroke:#2ca02c;stroke-linecap:square;stroke-width:1.5;"/>
   </g>
   <g id="line2d_17">
    <path clip-path="url(#p730640c68d)" d="M 121.834711 246.24 
L 191.008264 193.234581 
L 260.181818 154.918013 
L 329.355372 94.510591 
L 398.528926 55.58766 
" style="fill:none;stroke:#d62728;stroke-linecap:square;stroke-width:1.5;"/>
   </g>
   <g id="line2d_18">
    <path clip-path="url(#p730640c68d)" d="M 121.834711 223.257788 
L 191.008264 178.603341 
L 260.181818 133.948894 
L 329.355372 89.294447 
L 398.528926 44.64 
" style="fill:none;stroke:#9467bd;stroke-linecap:square;stroke-width:1.5;"/>
   </g>
   <g id="patch_3">
    <path d="M 108 256.32 
L 108 34.56 
" style="fill:none;stroke:#000000;stroke-linecap:square;stroke-linejoin:miter;stroke-width:0.8;"/>
   </g>
   <g id="patch_4">
    <path d="M 412.363636 256.32 
L 412.363636 34.56 
" style="fill:none;stroke:#000000;stroke-linecap:square;stroke-linejoin:miter;stroke-width:0.8;"/>
   </g>
   <g id="patch_5">
    <path d="M 108 256.32 
L 412.363636 256.32 
" style="fill:none;stroke:#000000;stroke-linecap:square;stroke-linejoin:miter;stroke-width:0.8;"/>
   </g>
   <g id="patch_6">
    <path d="M 108 34.56 
L 412.363636 34.56 
" style="fill:none;stroke:#000000;stroke-linecap:square;stroke-linejoin:miter;stroke-width:0.8;"/>
   </g>
   <g id="legend_1">
    <g id="patch_7">
     <path d="M 115 115.950625 
L 203.9375 115.950625 
Q 205.9375 115.950625 205.9375 113.950625 
L 205.9375 41.56 
Q 205.9375 39.56 203.9375 39.56 
L 115 39.56 
Q 113 39.56 113 41.56 
L 113 113.950625 
Q 113 115.950625 115 115.950625 
z
" style="fill:#ffffff;opacity:0.8;stroke:#cccccc;stroke-linejoin:miter;"/>
    </g>
    <g id="line2d_19">
     <path d="M 117 47.658437 
L 137 47.658437 
" style="fill:none;stroke:#1f77b4;stroke-linecap:square;stroke-width:1.5;"/>
    </g>
    <g id="line2d_20"/>
    <g id="text_16">
     <!-- 0 -->
     <g transform="translate(145 51.158437)scale(0.1 -0.1)">
      <use xlink:href="#DejaVuSans-48"/>
     </g>
    </g>
    <g id="line2d_21">
     <path d="M 117 62.336562 
L 137 62.336562 
" style="fill:none;stroke:#ff7f0e;stroke-linecap:square;stroke-width:1.5;"/>
    </g>
    <g id="line2d_22"/>
    <g id="text_17">
     <!-- 1 -->
     <g transform="translate(145 65.836562)scale(0.1 -0.1)">
      <use xlink:href="#DejaVuSans-49"/>
     </g>
    </g>
    <g id="line2d_23">
     <path d="M 117 77.014687 
L 137 77.014687 
" style="fill:none;stroke:#2ca02c;stroke-linecap:square;stroke-width:1.5;"/>
    </g>
    <g id="line2d_24"/>
    <g id="text_18">
     <!-- 10 -->
     <g transform="translate(145 80.514687)scale(0.1 -0.1)">
      <use xlink:href="#DejaVuSans-49"/>
      <use x="63.623047" xlink:href="#DejaVuSans-48"/>
     </g>
    </g>
    <g id="line2d_25">
     <path d="M 117 91.692813 
L 137 91.692813 
" style="fill:none;stroke:#d62728;stroke-linecap:square;stroke-width:1.5;"/>
    </g>
    <g id="line2d_26"/>
    <g id="text_19">
     <!-- 100 -->
     <g transform="translate(145 95.192813)scale(0.1 -0.1)">
      <use xlink:href="#DejaVuSans-49"/>
      <use x="63.623047" xlink:href="#DejaVuSans-48"/>
      <use x="127.246094" xlink:href="#DejaVuSans-48"/>
     </g>
    </g>
    <g id="line2d_27">
     <path d="M 117 106.370937 
L 137 106.370937 
" style="fill:none;stroke:#9467bd;stroke-linecap:square;stroke-width:1.5;"/>
    </g>
    <g id="line2d_28"/>
    <g id="text_20">
     <!-- True values -->
     <g transform="translate(145 109.870937)scale(0.1 -0.1)">
      <defs>
       <path d="M -0.296875 72.90625 
L 61.375 72.90625 
L 61.375 64.59375 
L 35.5 64.59375 
L 35.5 0 
L 25.59375 0 
L 25.59375 64.59375 
L -0.296875 64.59375 
z
" id="DejaVuSans-84"/>
       <path d="M 41.109375 46.296875 
Q 39.59375 47.171875 37.8125 47.578125 
Q 36.03125 48 33.890625 48 
Q 26.265625 48 22.1875 43.046875 
Q 18.109375 38.09375 18.109375 28.8125 
L 18.109375 0 
L 9.078125 0 
L 9.078125 54.6875 
L 18.109375 54.6875 
L 18.109375 46.1875 
Q 20.953125 51.171875 25.484375 53.578125 
Q 30.03125 56 36.53125 56 
Q 37.453125 56 38.578125 55.875 
Q 39.703125 55.765625 41.0625 55.515625 
z
" id="DejaVuSans-114"/>
      </defs>
      <use xlink:href="#DejaVuSans-84"/>
      <use x="46.333984" xlink:href="#DejaVuSans-114"/>
      <use x="87.447266" xlink:href="#DejaVuSans-117"/>
      <use x="150.826172" xlink:href="#DejaVuSans-101"/>
      <use x="212.349609" xlink:href="#DejaVuSans-32"/>
      <use x="244.136719" xlink:href="#DejaVuSans-118"/>
      <use x="303.316406" xlink:href="#DejaVuSans-97"/>
      <use x="364.595703" xlink:href="#DejaVuSans-108"/>
      <use x="392.378906" xlink:href="#DejaVuSans-117"/>
      <use x="455.757812" xlink:href="#DejaVuSans-101"/>
      <use x="517.28125" xlink:href="#DejaVuSans-115"/>
     </g>
    </g>
   </g>
  </g>
  <g id="axes_2">
   <g id="patch_8">
    <path d="M 473.236364 256.32 
L 777.6 256.32 
L 777.6 34.56 
L 473.236364 34.56 
z
" style="fill:#ffffff;"/>
   </g>
   <g id="matplotlib.axis_3">
    <g id="xtick_6">
     <g id="line2d_29">
      <g>
       <use style="stroke:#000000;stroke-width:0.8;" x="487.071074" xlink:href="#m0e526110ac" y="256.32"/>
      </g>
     </g>
     <g id="text_21">
      <!-- 0 -->
      <g transform="translate(483.889824 270.918437)scale(0.1 -0.1)">
       <use xlink:href="#DejaVuSans-48"/>
      </g>
     </g>
    </g>
    <g id="xtick_7">
     <g id="line2d_30">
      <g>
       <use style="stroke:#000000;stroke-width:0.8;" x="542.409917" xlink:href="#m0e526110ac" y="256.32"/>
      </g>
     </g>
     <g id="text_22">
      <!-- 20 -->
      <g transform="translate(536.047417 270.918437)scale(0.1 -0.1)">
       <use xlink:href="#DejaVuSans-50"/>
       <use x="63.623047" xlink:href="#DejaVuSans-48"/>
      </g>
     </g>
    </g>
    <g id="xtick_8">
     <g id="line2d_31">
      <g>
       <use style="stroke:#000000;stroke-width:0.8;" x="597.74876" xlink:href="#m0e526110ac" y="256.32"/>
      </g>
     </g>
     <g id="text_23">
      <!-- 40 -->
      <g transform="translate(591.38626 270.918437)scale(0.1 -0.1)">
       <use xlink:href="#DejaVuSans-52"/>
       <use x="63.623047" xlink:href="#DejaVuSans-48"/>
      </g>
     </g>
    </g>
    <g id="xtick_9">
     <g id="line2d_32">
      <g>
       <use style="stroke:#000000;stroke-width:0.8;" x="653.087603" xlink:href="#m0e526110ac" y="256.32"/>
      </g>
     </g>
     <g id="text_24">
      <!-- 60 -->
      <g transform="translate(646.725103 270.918437)scale(0.1 -0.1)">
       <use xlink:href="#DejaVuSans-54"/>
       <use x="63.623047" xlink:href="#DejaVuSans-48"/>
      </g>
     </g>
    </g>
    <g id="xtick_10">
     <g id="line2d_33">
      <g>
       <use style="stroke:#000000;stroke-width:0.8;" x="708.426446" xlink:href="#m0e526110ac" y="256.32"/>
      </g>
     </g>
     <g id="text_25">
      <!-- 80 -->
      <g transform="translate(702.063946 270.918437)scale(0.1 -0.1)">
       <use xlink:href="#DejaVuSans-56"/>
       <use x="63.623047" xlink:href="#DejaVuSans-48"/>
      </g>
     </g>
    </g>
    <g id="xtick_11">
     <g id="line2d_34">
      <g>
       <use style="stroke:#000000;stroke-width:0.8;" x="763.765289" xlink:href="#m0e526110ac" y="256.32"/>
      </g>
     </g>
     <g id="text_26">
      <!-- 100 -->
      <g transform="translate(754.221539 270.918437)scale(0.1 -0.1)">
       <use xlink:href="#DejaVuSans-49"/>
       <use x="63.623047" xlink:href="#DejaVuSans-48"/>
       <use x="127.246094" xlink:href="#DejaVuSans-48"/>
      </g>
     </g>
    </g>
    <g id="text_27">
     <!-- Walks/Episode -->
     <g transform="translate(589.518182 284.596563)scale(0.1 -0.1)">
      <defs>
       <path d="M 3.328125 72.90625 
L 13.28125 72.90625 
L 28.609375 11.28125 
L 43.890625 72.90625 
L 54.984375 72.90625 
L 70.3125 11.28125 
L 85.59375 72.90625 
L 95.609375 72.90625 
L 77.296875 0 
L 64.890625 0 
L 49.515625 63.28125 
L 33.984375 0 
L 21.578125 0 
z
" id="DejaVuSans-87"/>
       <path d="M 9.078125 75.984375 
L 18.109375 75.984375 
L 18.109375 31.109375 
L 44.921875 54.6875 
L 56.390625 54.6875 
L 27.390625 29.109375 
L 57.625 0 
L 45.90625 0 
L 18.109375 26.703125 
L 18.109375 0 
L 9.078125 0 
z
" id="DejaVuSans-107"/>
       <path d="M 25.390625 72.90625 
L 33.6875 72.90625 
L 8.296875 -9.28125 
L 0 -9.28125 
z
" id="DejaVuSans-47"/>
       <path d="M 18.109375 8.203125 
L 18.109375 -20.796875 
L 9.078125 -20.796875 
L 9.078125 54.6875 
L 18.109375 54.6875 
L 18.109375 46.390625 
Q 20.953125 51.265625 25.265625 53.625 
Q 29.59375 56 35.59375 56 
Q 45.5625 56 51.78125 48.09375 
Q 58.015625 40.1875 58.015625 27.296875 
Q 58.015625 14.40625 51.78125 6.484375 
Q 45.5625 -1.421875 35.59375 -1.421875 
Q 29.59375 -1.421875 25.265625 0.953125 
Q 20.953125 3.328125 18.109375 8.203125 
z
M 48.6875 27.296875 
Q 48.6875 37.203125 44.609375 42.84375 
Q 40.53125 48.484375 33.40625 48.484375 
Q 26.265625 48.484375 22.1875 42.84375 
Q 18.109375 37.203125 18.109375 27.296875 
Q 18.109375 17.390625 22.1875 11.75 
Q 26.265625 6.109375 33.40625 6.109375 
Q 40.53125 6.109375 44.609375 11.75 
Q 48.6875 17.390625 48.6875 27.296875 
z
" id="DejaVuSans-112"/>
       <path d="M 30.609375 48.390625 
Q 23.390625 48.390625 19.1875 42.75 
Q 14.984375 37.109375 14.984375 27.296875 
Q 14.984375 17.484375 19.15625 11.84375 
Q 23.34375 6.203125 30.609375 6.203125 
Q 37.796875 6.203125 41.984375 11.859375 
Q 46.1875 17.53125 46.1875 27.296875 
Q 46.1875 37.015625 41.984375 42.703125 
Q 37.796875 48.390625 30.609375 48.390625 
z
M 30.609375 56 
Q 42.328125 56 49.015625 48.375 
Q 55.71875 40.765625 55.71875 27.296875 
Q 55.71875 13.875 49.015625 6.21875 
Q 42.328125 -1.421875 30.609375 -1.421875 
Q 18.84375 -1.421875 12.171875 6.21875 
Q 5.515625 13.875 5.515625 27.296875 
Q 5.515625 40.765625 12.171875 48.375 
Q 18.84375 56 30.609375 56 
z
" id="DejaVuSans-111"/>
      </defs>
      <use xlink:href="#DejaVuSans-87"/>
      <use x="92.501953" xlink:href="#DejaVuSans-97"/>
      <use x="153.78125" xlink:href="#DejaVuSans-108"/>
      <use x="181.564453" xlink:href="#DejaVuSans-107"/>
      <use x="239.474609" xlink:href="#DejaVuSans-115"/>
      <use x="291.574219" xlink:href="#DejaVuSans-47"/>
      <use x="325.265625" xlink:href="#DejaVuSans-69"/>
      <use x="388.449219" xlink:href="#DejaVuSans-112"/>
      <use x="451.925781" xlink:href="#DejaVuSans-105"/>
      <use x="479.708984" xlink:href="#DejaVuSans-115"/>
      <use x="531.808594" xlink:href="#DejaVuSans-111"/>
      <use x="592.990234" xlink:href="#DejaVuSans-100"/>
      <use x="656.466797" xlink:href="#DejaVuSans-101"/>
     </g>
    </g>
   </g>
   <g id="matplotlib.axis_4">
    <g id="ytick_9">
     <g id="line2d_35">
      <g>
       <use style="stroke:#000000;stroke-width:0.8;" x="473.236364" xlink:href="#m48f472f063" y="254.951428"/>
      </g>
     </g>
     <g id="text_28">
      <!-- 0.025 -->
      <g transform="translate(437.608239 258.750647)scale(0.1 -0.1)">
       <use xlink:href="#DejaVuSans-48"/>
       <use x="63.623047" xlink:href="#DejaVuSans-46"/>
       <use x="95.410156" xlink:href="#DejaVuSans-48"/>
       <use x="159.033203" xlink:href="#DejaVuSans-50"/>
       <use x="222.65625" xlink:href="#DejaVuSans-53"/>
      </g>
     </g>
    </g>
    <g id="ytick_10">
     <g id="line2d_36">
      <g>
       <use style="stroke:#000000;stroke-width:0.8;" x="473.236364" xlink:href="#m48f472f063" y="229.997801"/>
      </g>
     </g>
     <g id="text_29">
      <!-- 0.050 -->
      <g transform="translate(437.608239 233.79702)scale(0.1 -0.1)">
       <use xlink:href="#DejaVuSans-48"/>
       <use x="63.623047" xlink:href="#DejaVuSans-46"/>
       <use x="95.410156" xlink:href="#DejaVuSans-48"/>
       <use x="159.033203" xlink:href="#DejaVuSans-53"/>
       <use x="222.65625" xlink:href="#DejaVuSans-48"/>
      </g>
     </g>
    </g>
    <g id="ytick_11">
     <g id="line2d_37">
      <g>
       <use style="stroke:#000000;stroke-width:0.8;" x="473.236364" xlink:href="#m48f472f063" y="205.044174"/>
      </g>
     </g>
     <g id="text_30">
      <!-- 0.075 -->
      <g transform="translate(437.608239 208.843392)scale(0.1 -0.1)">
       <use xlink:href="#DejaVuSans-48"/>
       <use x="63.623047" xlink:href="#DejaVuSans-46"/>
       <use x="95.410156" xlink:href="#DejaVuSans-48"/>
       <use x="159.033203" xlink:href="#DejaVuSans-55"/>
       <use x="222.65625" xlink:href="#DejaVuSans-53"/>
      </g>
     </g>
    </g>
    <g id="ytick_12">
     <g id="line2d_38">
      <g>
       <use style="stroke:#000000;stroke-width:0.8;" x="473.236364" xlink:href="#m48f472f063" y="180.090546"/>
      </g>
     </g>
     <g id="text_31">
      <!-- 0.100 -->
      <g transform="translate(437.608239 183.889765)scale(0.1 -0.1)">
       <use xlink:href="#DejaVuSans-48"/>
       <use x="63.623047" xlink:href="#DejaVuSans-46"/>
       <use x="95.410156" xlink:href="#DejaVuSans-49"/>
       <use x="159.033203" xlink:href="#DejaVuSans-48"/>
       <use x="222.65625" xlink:href="#DejaVuSans-48"/>
      </g>
     </g>
    </g>
    <g id="ytick_13">
     <g id="line2d_39">
      <g>
       <use style="stroke:#000000;stroke-width:0.8;" x="473.236364" xlink:href="#m48f472f063" y="155.136919"/>
      </g>
     </g>
     <g id="text_32">
      <!-- 0.125 -->
      <g transform="translate(437.608239 158.936137)scale(0.1 -0.1)">
       <use xlink:href="#DejaVuSans-48"/>
       <use x="63.623047" xlink:href="#DejaVuSans-46"/>
       <use x="95.410156" xlink:href="#DejaVuSans-49"/>
       <use x="159.033203" xlink:href="#DejaVuSans-50"/>
       <use x="222.65625" xlink:href="#DejaVuSans-53"/>
      </g>
     </g>
    </g>
    <g id="ytick_14">
     <g id="line2d_40">
      <g>
       <use style="stroke:#000000;stroke-width:0.8;" x="473.236364" xlink:href="#m48f472f063" y="130.183291"/>
      </g>
     </g>
     <g id="text_33">
      <!-- 0.150 -->
      <g transform="translate(437.608239 133.98251)scale(0.1 -0.1)">
       <use xlink:href="#DejaVuSans-48"/>
       <use x="63.623047" xlink:href="#DejaVuSans-46"/>
       <use x="95.410156" xlink:href="#DejaVuSans-49"/>
       <use x="159.033203" xlink:href="#DejaVuSans-53"/>
       <use x="222.65625" xlink:href="#DejaVuSans-48"/>
      </g>
     </g>
    </g>
    <g id="ytick_15">
     <g id="line2d_41">
      <g>
       <use style="stroke:#000000;stroke-width:0.8;" x="473.236364" xlink:href="#m48f472f063" y="105.229664"/>
      </g>
     </g>
     <g id="text_34">
      <!-- 0.175 -->
      <g transform="translate(437.608239 109.028882)scale(0.1 -0.1)">
       <use xlink:href="#DejaVuSans-48"/>
       <use x="63.623047" xlink:href="#DejaVuSans-46"/>
       <use x="95.410156" xlink:href="#DejaVuSans-49"/>
       <use x="159.033203" xlink:href="#DejaVuSans-55"/>
       <use x="222.65625" xlink:href="#DejaVuSans-53"/>
      </g>
     </g>
    </g>
    <g id="ytick_16">
     <g id="line2d_42">
      <g>
       <use style="stroke:#000000;stroke-width:0.8;" x="473.236364" xlink:href="#m48f472f063" y="80.276036"/>
      </g>
     </g>
     <g id="text_35">
      <!-- 0.200 -->
      <g transform="translate(437.608239 84.075255)scale(0.1 -0.1)">
       <use xlink:href="#DejaVuSans-48"/>
       <use x="63.623047" xlink:href="#DejaVuSans-46"/>
       <use x="95.410156" xlink:href="#DejaVuSans-50"/>
       <use x="159.033203" xlink:href="#DejaVuSans-48"/>
       <use x="222.65625" xlink:href="#DejaVuSans-48"/>
      </g>
     </g>
    </g>
    <g id="ytick_17">
     <g id="line2d_43">
      <g>
       <use style="stroke:#000000;stroke-width:0.8;" x="473.236364" xlink:href="#m48f472f063" y="55.322409"/>
      </g>
     </g>
     <g id="text_36">
      <!-- 0.225 -->
      <g transform="translate(437.608239 59.121628)scale(0.1 -0.1)">
       <use xlink:href="#DejaVuSans-48"/>
       <use x="63.623047" xlink:href="#DejaVuSans-46"/>
       <use x="95.410156" xlink:href="#DejaVuSans-50"/>
       <use x="159.033203" xlink:href="#DejaVuSans-50"/>
       <use x="222.65625" xlink:href="#DejaVuSans-53"/>
      </g>
     </g>
    </g>
    <g id="text_37">
     <!-- Empirical RMS error averaged over states -->
     <g transform="translate(431.528551 249.755625)rotate(-90)scale(0.1 -0.1)">
      <defs>
       <path d="M 44.390625 34.1875 
Q 47.5625 33.109375 50.5625 29.59375 
Q 53.5625 26.078125 56.59375 19.921875 
L 66.609375 0 
L 56 0 
L 46.6875 18.703125 
Q 43.0625 26.03125 39.671875 28.421875 
Q 36.28125 30.8125 30.421875 30.8125 
L 19.671875 30.8125 
L 19.671875 0 
L 9.8125 0 
L 9.8125 72.90625 
L 32.078125 72.90625 
Q 44.578125 72.90625 50.734375 67.671875 
Q 56.890625 62.453125 56.890625 51.90625 
Q 56.890625 45.015625 53.6875 40.46875 
Q 50.484375 35.9375 44.390625 34.1875 
z
M 19.671875 64.796875 
L 19.671875 38.921875 
L 32.078125 38.921875 
Q 39.203125 38.921875 42.84375 42.21875 
Q 46.484375 45.515625 46.484375 51.90625 
Q 46.484375 58.296875 42.84375 61.546875 
Q 39.203125 64.796875 32.078125 64.796875 
z
" id="DejaVuSans-82"/>
       <path d="M 9.8125 72.90625 
L 24.515625 72.90625 
L 43.109375 23.296875 
L 61.8125 72.90625 
L 76.515625 72.90625 
L 76.515625 0 
L 66.890625 0 
L 66.890625 64.015625 
L 48.09375 14.015625 
L 38.1875 14.015625 
L 19.390625 64.015625 
L 19.390625 0 
L 9.8125 0 
z
" id="DejaVuSans-77"/>
       <path d="M 45.40625 27.984375 
Q 45.40625 37.75 41.375 43.109375 
Q 37.359375 48.484375 30.078125 48.484375 
Q 22.859375 48.484375 18.828125 43.109375 
Q 14.796875 37.75 14.796875 27.984375 
Q 14.796875 18.265625 18.828125 12.890625 
Q 22.859375 7.515625 30.078125 7.515625 
Q 37.359375 7.515625 41.375 12.890625 
Q 45.40625 18.265625 45.40625 27.984375 
z
M 54.390625 6.78125 
Q 54.390625 -7.171875 48.1875 -13.984375 
Q 42 -20.796875 29.203125 -20.796875 
Q 24.46875 -20.796875 20.265625 -20.09375 
Q 16.0625 -19.390625 12.109375 -17.921875 
L 12.109375 -9.1875 
Q 16.0625 -11.328125 19.921875 -12.34375 
Q 23.78125 -13.375 27.78125 -13.375 
Q 36.625 -13.375 41.015625 -8.765625 
Q 45.40625 -4.15625 45.40625 5.171875 
L 45.40625 9.625 
Q 42.625 4.78125 38.28125 2.390625 
Q 33.9375 0 27.875 0 
Q 17.828125 0 11.671875 7.65625 
Q 5.515625 15.328125 5.515625 27.984375 
Q 5.515625 40.671875 11.671875 48.328125 
Q 17.828125 56 27.875 56 
Q 33.9375 56 38.28125 53.609375 
Q 42.625 51.21875 45.40625 46.390625 
L 45.40625 54.6875 
L 54.390625 54.6875 
z
" id="DejaVuSans-103"/>
      </defs>
      <use xlink:href="#DejaVuSans-69"/>
      <use x="63.183594" xlink:href="#DejaVuSans-109"/>
      <use x="160.595703" xlink:href="#DejaVuSans-112"/>
      <use x="224.072266" xlink:href="#DejaVuSans-105"/>
      <use x="251.855469" xlink:href="#DejaVuSans-114"/>
      <use x="292.96875" xlink:href="#DejaVuSans-105"/>
      <use x="320.751953" xlink:href="#DejaVuSans-99"/>
      <use x="375.732422" xlink:href="#DejaVuSans-97"/>
      <use x="437.011719" xlink:href="#DejaVuSans-108"/>
      <use x="464.794922" xlink:href="#DejaVuSans-32"/>
      <use x="496.582031" xlink:href="#DejaVuSans-82"/>
      <use x="566.064453" xlink:href="#DejaVuSans-77"/>
      <use x="652.34375" xlink:href="#DejaVuSans-83"/>
      <use x="715.820312" xlink:href="#DejaVuSans-32"/>
      <use x="747.607422" xlink:href="#DejaVuSans-101"/>
      <use x="809.130859" xlink:href="#DejaVuSans-114"/>
      <use x="848.494141" xlink:href="#DejaVuSans-114"/>
      <use x="887.357422" xlink:href="#DejaVuSans-111"/>
      <use x="948.539062" xlink:href="#DejaVuSans-114"/>
      <use x="989.652344" xlink:href="#DejaVuSans-32"/>
      <use x="1021.439453" xlink:href="#DejaVuSans-97"/>
      <use x="1082.71875" xlink:href="#DejaVuSans-118"/>
      <use x="1141.898438" xlink:href="#DejaVuSans-101"/>
      <use x="1203.421875" xlink:href="#DejaVuSans-114"/>
      <use x="1244.535156" xlink:href="#DejaVuSans-97"/>
      <use x="1305.814453" xlink:href="#DejaVuSans-103"/>
      <use x="1369.291016" xlink:href="#DejaVuSans-101"/>
      <use x="1430.814453" xlink:href="#DejaVuSans-100"/>
      <use x="1494.291016" xlink:href="#DejaVuSans-32"/>
      <use x="1526.078125" xlink:href="#DejaVuSans-111"/>
      <use x="1587.259766" xlink:href="#DejaVuSans-118"/>
      <use x="1646.439453" xlink:href="#DejaVuSans-101"/>
      <use x="1707.962891" xlink:href="#DejaVuSans-114"/>
      <use x="1749.076172" xlink:href="#DejaVuSans-32"/>
      <use x="1780.863281" xlink:href="#DejaVuSans-115"/>
      <use x="1832.962891" xlink:href="#DejaVuSans-116"/>
      <use x="1872.171875" xlink:href="#DejaVuSans-97"/>
      <use x="1933.451172" xlink:href="#DejaVuSans-116"/>
      <use x="1972.660156" xlink:href="#DejaVuSans-101"/>
      <use x="2034.183594" xlink:href="#DejaVuSans-115"/>
     </g>
    </g>
   </g>
   <g id="line2d_44">
    <path clip-path="url(#p3617c901a0)" d="M 487.071074 44.64 
L 489.838017 46.987445 
L 492.604959 49.291999 
L 495.371901 51.259102 
L 498.138843 53.605513 
L 500.905785 55.73224 
L 503.672727 57.843329 
L 506.439669 59.933185 
L 509.206612 62.645335 
L 511.973554 64.9517 
L 514.740496 67.593815 
L 517.507438 69.606658 
L 520.27438 72.13813 
L 523.041322 74.447584 
L 525.808264 76.810866 
L 528.575207 79.342959 
L 531.342149 81.47137 
L 534.109091 83.21325 
L 536.876033 85.271102 
L 539.642975 86.979282 
L 542.409917 88.993396 
L 545.17686 90.724058 
L 547.943802 91.909767 
L 550.710744 94.869886 
L 553.477686 96.28366 
L 556.244628 98.606219 
L 559.01157 99.914195 
L 561.778512 101.840352 
L 564.545455 103.858882 
L 567.312397 104.997762 
L 570.079339 106.690735 
L 572.846281 108.845175 
L 575.613223 110.395132 
L 578.380165 112.625792 
L 581.147107 114.008013 
L 583.91405 115.883723 
L 586.680992 117.731149 
L 589.447934 119.289461 
L 592.214876 120.114501 
L 594.981818 121.20502 
L 597.74876 122.728546 
L 600.515702 124.469128 
L 603.282645 125.44952 
L 606.049587 126.464249 
L 608.816529 127.694221 
L 611.583471 129.070423 
L 614.350413 129.773033 
L 617.117355 131.988108 
L 619.884298 132.671288 
L 622.65124 134.582575 
L 625.418182 135.719807 
L 628.185124 137.350978 
L 630.952066 138.210117 
L 633.719008 139.123162 
L 636.48595 140.742441 
L 639.252893 142.123163 
L 642.019835 143.488302 
L 644.786777 144.724052 
L 647.553719 144.60848 
L 650.320661 145.684255 
L 653.087603 147.7357 
L 655.854545 149.321865 
L 658.621488 150.066782 
L 661.38843 151.080563 
L 664.155372 153.18333 
L 666.922314 154.114515 
L 669.689256 154.629998 
L 672.456198 155.069186 
L 675.22314 156.057709 
L 677.990083 156.641284 
L 680.757025 157.850334 
L 683.523967 158.292245 
L 686.290909 159.326443 
L 689.057851 160.431992 
L 691.824793 162.194671 
L 694.591736 162.387746 
L 697.358678 163.409655 
L 700.12562 164.941596 
L 702.892562 165.799004 
L 705.659504 167.358673 
L 708.426446 169.010701 
L 711.193388 169.80794 
L 713.960331 170.241363 
L 716.727273 170.687236 
L 719.494215 171.78953 
L 722.261157 173.11514 
L 725.028099 174.054343 
L 727.795041 175.58124 
L 730.561983 176.689756 
L 733.328926 178.353796 
L 736.095868 180.112067 
L 738.86281 180.217641 
L 741.629752 180.7211 
L 744.396694 180.392921 
L 747.163636 180.791934 
L 749.930579 181.248289 
L 752.697521 182.266402 
L 755.464463 182.43326 
L 758.231405 183.395707 
L 760.998347 184.16393 
L 763.765289 184.620321 
" style="fill:none;stroke:#1f77b4;stroke-linecap:square;stroke-width:1.5;"/>
   </g>
   <g id="line2d_45">
    <path clip-path="url(#p3617c901a0)" d="M 487.071074 44.64 
L 489.838017 48.87016 
L 492.604959 53.474216 
L 495.371901 57.592238 
L 498.138843 60.031593 
L 500.905785 64.303679 
L 503.672727 67.62603 
L 506.439669 73.053619 
L 509.206612 75.142573 
L 511.973554 79.620095 
L 514.740496 83.760854 
L 517.507438 87.08147 
L 520.27438 90.981905 
L 523.041322 94.164111 
L 525.808264 98.104883 
L 528.575207 101.154107 
L 531.342149 103.656463 
L 534.109091 106.694852 
L 536.876033 108.57918 
L 539.642975 111.889805 
L 542.409917 114.396123 
L 545.17686 118.152961 
L 547.943802 120.748805 
L 550.710744 124.984939 
L 553.477686 126.600734 
L 556.244628 129.496855 
L 559.01157 131.723134 
L 561.778512 132.728677 
L 564.545455 134.295282 
L 567.312397 134.618855 
L 570.079339 137.200811 
L 572.846281 137.66603 
L 575.613223 140.483024 
L 578.380165 142.775576 
L 581.147107 147.106249 
L 583.91405 146.867659 
L 586.680992 149.450235 
L 589.447934 151.258511 
L 592.214876 153.081024 
L 594.981818 153.125224 
L 597.74876 154.761502 
L 600.515702 157.264022 
L 603.282645 157.28349 
L 606.049587 159.728811 
L 608.816529 161.634656 
L 611.583471 161.356414 
L 614.350413 163.924205 
L 617.117355 163.521109 
L 619.884298 164.508265 
L 622.65124 164.918615 
L 625.418182 167.02748 
L 628.185124 169.85039 
L 630.952066 169.979492 
L 633.719008 170.731251 
L 636.48595 169.881323 
L 639.252893 173.938513 
L 642.019835 174.598381 
L 644.786777 175.35171 
L 647.553719 178.071824 
L 650.320661 179.270471 
L 653.087603 180.408948 
L 655.854545 179.650459 
L 658.621488 180.782133 
L 661.38843 180.26426 
L 664.155372 179.976685 
L 666.922314 182.54755 
L 669.689256 181.251127 
L 672.456198 179.472487 
L 675.22314 179.461276 
L 677.990083 180.507524 
L 680.757025 182.321897 
L 683.523967 183.234368 
L 686.290909 183.690924 
L 689.057851 185.800436 
L 691.824793 186.078845 
L 694.591736 185.428297 
L 697.358678 185.406049 
L 700.12562 188.268583 
L 702.892562 185.187033 
L 705.659504 183.325736 
L 708.426446 184.329065 
L 711.193388 185.169815 
L 713.960331 187.35697 
L 716.727273 187.141372 
L 719.494215 187.722887 
L 722.261157 189.675219 
L 725.028099 189.581288 
L 727.795041 191.626535 
L 730.561983 190.708492 
L 733.328926 191.211759 
L 736.095868 191.34639 
L 738.86281 189.516066 
L 741.629752 190.98151 
L 744.396694 192.688495 
L 747.163636 195.363551 
L 749.930579 197.598477 
L 752.697521 197.350566 
L 755.464463 197.263574 
L 758.231405 195.982722 
L 760.998347 195.930523 
L 763.765289 194.472739 
" style="fill:none;stroke:#ff7f0e;stroke-linecap:square;stroke-width:1.5;"/>
   </g>
   <g id="line2d_46">
    <path clip-path="url(#p3617c901a0)" d="M 487.071074 44.64 
L 489.838017 50.361856 
L 492.604959 53.898468 
L 495.371901 60.022505 
L 498.138843 64.971857 
L 500.905785 70.672678 
L 503.672727 76.018725 
L 506.439669 79.86002 
L 509.206612 86.152149 
L 511.973554 90.959799 
L 514.740496 95.326782 
L 517.507438 100.018568 
L 520.27438 105.892071 
L 523.041322 108.680684 
L 525.808264 115.739171 
L 528.575207 114.885787 
L 531.342149 119.741135 
L 534.109091 122.344473 
L 536.876033 126.522649 
L 539.642975 129.398155 
L 542.409917 132.710005 
L 545.17686 133.775137 
L 547.943802 134.579792 
L 550.710744 138.141257 
L 553.477686 137.811737 
L 556.244628 140.152506 
L 559.01157 142.222323 
L 561.778512 145.10633 
L 564.545455 145.526825 
L 567.312397 145.822085 
L 570.079339 147.166981 
L 572.846281 148.768904 
L 575.613223 153.671801 
L 578.380165 154.982998 
L 581.147107 154.261051 
L 583.91405 155.406389 
L 586.680992 162.33099 
L 589.447934 164.88502 
L 592.214876 164.943219 
L 594.981818 165.852867 
L 597.74876 164.443359 
L 600.515702 165.70387 
L 603.282645 168.259272 
L 606.049587 169.934001 
L 608.816529 170.560734 
L 611.583471 171.769564 
L 614.350413 172.323291 
L 617.117355 174.936226 
L 619.884298 173.121197 
L 622.65124 172.119321 
L 625.418182 172.970267 
L 628.185124 170.182445 
L 630.952066 173.496895 
L 633.719008 175.33681 
L 636.48595 177.890003 
L 639.252893 182.896568 
L 642.019835 186.352233 
L 644.786777 187.709944 
L 647.553719 188.701925 
L 650.320661 190.440042 
L 653.087603 189.561758 
L 655.854545 188.675658 
L 658.621488 187.861058 
L 661.38843 189.389191 
L 664.155372 186.588051 
L 666.922314 182.023012 
L 669.689256 180.589151 
L 672.456198 182.146722 
L 675.22314 184.246155 
L 677.990083 181.338905 
L 680.757025 180.640739 
L 683.523967 182.611853 
L 686.290909 186.895984 
L 689.057851 187.963261 
L 691.824793 190.899975 
L 694.591736 190.774973 
L 697.358678 195.692236 
L 700.12562 196.663322 
L 702.892562 195.087016 
L 705.659504 196.777337 
L 708.426446 198.22808 
L 711.193388 199.618947 
L 713.960331 201.503649 
L 716.727273 199.186801 
L 719.494215 200.401698 
L 722.261157 201.096112 
L 725.028099 198.009773 
L 727.795041 195.711784 
L 730.561983 196.147355 
L 733.328926 194.897999 
L 736.095868 193.725899 
L 738.86281 193.913587 
L 741.629752 189.930412 
L 744.396694 191.581193 
L 747.163636 187.551519 
L 749.930579 192.196861 
L 752.697521 188.72258 
L 755.464463 186.542738 
L 758.231405 186.168994 
L 760.998347 185.659158 
L 763.765289 184.819659 
" style="fill:none;stroke:#2ca02c;stroke-linecap:square;stroke-width:1.5;"/>
   </g>
   <g id="line2d_47">
    <path clip-path="url(#p3617c901a0)" d="M 487.071074 44.64 
L 489.838017 52.14385 
L 492.604959 56.701162 
L 495.371901 61.492169 
L 498.138843 65.941638 
L 500.905785 72.904892 
L 503.672727 76.644851 
L 506.439669 80.916015 
L 509.206612 87.176063 
L 511.973554 93.578983 
L 514.740496 100.226715 
L 517.507438 107.133559 
L 520.27438 112.29729 
L 523.041322 110.186708 
L 525.808264 115.959744 
L 528.575207 121.757547 
L 531.342149 127.244318 
L 534.109091 130.269076 
L 536.876033 136.233435 
L 539.642975 141.035779 
L 542.409917 144.335946 
L 545.17686 145.671409 
L 547.943802 146.402503 
L 550.710744 146.505968 
L 553.477686 146.947724 
L 556.244628 151.249576 
L 559.01157 152.118697 
L 561.778512 152.232402 
L 564.545455 153.27578 
L 567.312397 157.628022 
L 570.079339 160.23805 
L 572.846281 162.984072 
L 575.613223 159.378287 
L 578.380165 160.714945 
L 581.147107 162.35252 
L 583.91405 159.425153 
L 586.680992 160.59122 
L 589.447934 160.105307 
L 592.214876 155.293522 
L 594.981818 155.986861 
L 597.74876 155.601198 
L 600.515702 159.77996 
L 603.282645 159.390537 
L 606.049587 162.203102 
L 608.816529 164.440619 
L 611.583471 164.282563 
L 614.350413 165.973192 
L 617.117355 170.265057 
L 619.884298 171.141613 
L 622.65124 171.367566 
L 625.418182 170.844672 
L 628.185124 171.686466 
L 630.952066 170.671114 
L 633.719008 171.294458 
L 636.48595 173.151467 
L 639.252893 171.221207 
L 642.019835 170.062343 
L 644.786777 172.304203 
L 647.553719 174.026977 
L 650.320661 175.506594 
L 653.087603 180.273408 
L 655.854545 180.500776 
L 658.621488 183.453241 
L 661.38843 182.13695 
L 664.155372 184.929118 
L 666.922314 185.196658 
L 669.689256 179.295847 
L 672.456198 176.331022 
L 675.22314 175.860469 
L 677.990083 179.372756 
L 680.757025 176.239696 
L 683.523967 174.591392 
L 686.290909 175.598001 
L 689.057851 170.870563 
L 691.824793 170.287476 
L 694.591736 165.792547 
L 697.358678 167.523095 
L 700.12562 171.804378 
L 702.892562 171.639214 
L 705.659504 172.229485 
L 708.426446 169.175826 
L 711.193388 169.209027 
L 713.960331 171.013509 
L 716.727273 166.390701 
L 719.494215 170.935088 
L 722.261157 168.131969 
L 725.028099 172.716573 
L 727.795041 172.04367 
L 730.561983 170.115832 
L 733.328926 165.870865 
L 736.095868 170.440018 
L 738.86281 169.715739 
L 741.629752 173.9363 
L 744.396694 178.295115 
L 747.163636 182.148484 
L 749.930579 182.030094 
L 752.697521 182.442019 
L 755.464463 180.163521 
L 758.231405 177.48378 
L 760.998347 178.717806 
L 763.765289 175.791297 
" style="fill:none;stroke:#d62728;stroke-linecap:square;stroke-width:1.5;"/>
   </g>
   <g id="line2d_48">
    <path clip-path="url(#p3617c901a0)" d="M 487.071074 44.64 
L 489.838017 51.534295 
L 492.604959 58.216502 
L 495.371901 64.743834 
L 498.138843 71.0666 
L 500.905785 77.158028 
L 503.672727 83.130858 
L 506.439669 88.984257 
L 509.206612 94.729236 
L 511.973554 100.098115 
L 514.740496 105.484435 
L 517.507438 110.446287 
L 520.27438 115.456353 
L 523.041322 120.224837 
L 525.808264 125.057602 
L 528.575207 129.368243 
L 531.342149 133.825092 
L 534.109091 138.264819 
L 536.876033 142.438446 
L 539.642975 146.348638 
L 542.409917 150.569817 
L 545.17686 154.583668 
L 547.943802 157.997475 
L 550.710744 161.804425 
L 553.477686 165.4589 
L 556.244628 169.261969 
L 559.01157 172.939113 
L 561.778512 176.796674 
L 564.545455 179.648741 
L 567.312397 182.320233 
L 570.079339 185.151785 
L 572.846281 188.383795 
L 575.613223 190.667126 
L 578.380165 193.579032 
L 581.147107 196.666702 
L 583.91405 199.031478 
L 586.680992 201.616238 
L 589.447934 203.538569 
L 592.214876 205.613146 
L 594.981818 208.348161 
L 597.74876 210.706665 
L 600.515702 212.742262 
L 603.282645 214.061211 
L 606.049587 215.723979 
L 608.816529 217.902083 
L 611.583471 219.561071 
L 614.350413 220.354154 
L 617.117355 221.723187 
L 619.884298 223.356147 
L 622.65124 224.876675 
L 625.418182 226.227474 
L 628.185124 227.757917 
L 630.952066 228.974271 
L 633.719008 230.038925 
L 636.48595 231.193146 
L 639.252893 232.137734 
L 642.019835 232.996267 
L 644.786777 233.291537 
L 647.553719 233.756795 
L 650.320661 234.207594 
L 653.087603 234.59578 
L 655.854545 235.578792 
L 658.621488 236.748145 
L 661.38843 237.734415 
L 664.155372 237.746872 
L 666.922314 238.167935 
L 669.689256 238.578975 
L 672.456198 239.660666 
L 675.22314 241.472473 
L 677.990083 241.886531 
L 680.757025 242.700195 
L 683.523967 243.179093 
L 686.290909 242.834015 
L 689.057851 242.376602 
L 691.824793 242.32992 
L 694.591736 243.366031 
L 697.358678 242.826277 
L 700.12562 242.983813 
L 702.892562 243.614809 
L 705.659504 243.564555 
L 708.426446 243.409265 
L 711.193388 243.063221 
L 713.960331 243.515131 
L 716.727273 244.004254 
L 719.494215 244.771051 
L 722.261157 244.73611 
L 725.028099 245.339035 
L 727.795041 245.494715 
L 730.561983 245.275654 
L 733.328926 244.99825 
L 736.095868 245.036611 
L 738.86281 244.818005 
L 741.629752 244.64939 
L 744.396694 244.72359 
L 747.163636 244.810487 
L 749.930579 244.832005 
L 752.697521 245.357261 
L 755.464463 245.644062 
L 758.231405 245.901943 
L 760.998347 246.24 
L 763.765289 245.525889 
" style="fill:none;stroke:#9467bd;stroke-linecap:square;stroke-width:1.5;"/>
   </g>
   <g id="line2d_49">
    <path clip-path="url(#p3617c901a0)" d="M 487.071074 44.64 
L 489.838017 58.081171 
L 492.604959 71.021929 
L 495.371901 82.916083 
L 498.138843 94.33838 
L 500.905785 105.317995 
L 503.672727 116.082946 
L 506.439669 125.79793 
L 509.206612 135.204405 
L 511.973554 143.260043 
L 514.740496 151.712962 
L 517.507438 159.073784 
L 520.27438 166.947804 
L 523.041322 173.54876 
L 525.808264 179.016089 
L 528.575207 184.625788 
L 531.342149 190.42049 
L 534.109091 195.261826 
L 536.876033 200.015755 
L 539.642975 205.649984 
L 542.409917 209.647639 
L 545.17686 212.139376 
L 547.943802 215.087582 
L 550.710744 218.681941 
L 553.477686 220.994616 
L 556.244628 222.313397 
L 559.01157 222.498391 
L 561.778512 223.763133 
L 564.545455 224.880395 
L 567.312397 225.03486 
L 570.079339 225.674439 
L 572.846281 228.145142 
L 575.613223 227.999842 
L 578.380165 228.300948 
L 581.147107 230.121358 
L 583.91405 230.514995 
L 586.680992 229.27898 
L 589.447934 228.65319 
L 592.214876 226.823658 
L 594.981818 227.677609 
L 597.74876 227.274539 
L 600.515702 226.727733 
L 603.282645 225.850103 
L 606.049587 224.731426 
L 608.816529 226.042969 
L 611.583471 225.733118 
L 614.350413 226.351488 
L 617.117355 225.852501 
L 619.884298 226.627613 
L 622.65124 227.252196 
L 625.418182 227.655875 
L 628.185124 226.239283 
L 630.952066 225.463001 
L 633.719008 224.272254 
L 636.48595 223.189639 
L 639.252893 223.515829 
L 642.019835 223.162022 
L 644.786777 222.811301 
L 647.553719 223.70675 
L 650.320661 224.134368 
L 653.087603 224.124885 
L 655.854545 224.089212 
L 658.621488 223.266874 
L 661.38843 223.576683 
L 664.155372 224.304824 
L 666.922314 225.591488 
L 669.689256 224.600571 
L 672.456198 223.712608 
L 675.22314 223.060587 
L 677.990083 221.552326 
L 680.757025 221.346863 
L 683.523967 221.664883 
L 686.290909 221.861833 
L 689.057851 220.6808 
L 691.824793 221.272677 
L 694.591736 219.727208 
L 697.358678 220.105955 
L 700.12562 218.757191 
L 702.892562 219.88668 
L 705.659504 221.080542 
L 708.426446 223.041242 
L 711.193388 223.660297 
L 713.960331 223.747478 
L 716.727273 223.276206 
L 719.494215 223.407964 
L 722.261157 223.606737 
L 725.028099 224.607166 
L 727.795041 223.977053 
L 730.561983 224.156408 
L 733.328926 225.150848 
L 736.095868 225.12589 
L 738.86281 223.883349 
L 741.629752 224.454244 
L 744.396694 223.965927 
L 747.163636 225.454147 
L 749.930579 225.417553 
L 752.697521 224.465612 
L 755.464463 223.962975 
L 758.231405 223.156496 
L 760.998347 223.92988 
L 763.765289 223.643419 
" style="fill:none;stroke:#8c564b;stroke-linecap:square;stroke-width:1.5;"/>
   </g>
   <g id="line2d_50">
    <path clip-path="url(#p3617c901a0)" d="M 487.071074 44.64 
L 489.838017 64.248986 
L 492.604959 82.473682 
L 495.371901 99.916069 
L 498.138843 116.070664 
L 500.905785 129.828007 
L 503.672727 143.503555 
L 506.439669 155.006572 
L 509.206612 165.296075 
L 511.973554 175.008224 
L 514.740496 184.500862 
L 517.507438 193.078829 
L 520.27438 200.354234 
L 523.041322 206.215097 
L 525.808264 210.743866 
L 528.575207 213.768824 
L 531.342149 218.532007 
L 534.109091 222.708153 
L 536.876033 227.583457 
L 539.642975 229.480869 
L 542.409917 229.312826 
L 545.17686 227.37782 
L 547.943802 226.231941 
L 550.710744 227.313798 
L 553.477686 225.600513 
L 556.244628 225.61403 
L 559.01157 228.390315 
L 561.778512 226.647898 
L 564.545455 224.472318 
L 567.312397 224.50322 
L 570.079339 224.263573 
L 572.846281 221.251094 
L 575.613223 221.929736 
L 578.380165 220.602616 
L 581.147107 217.923057 
L 583.91405 219.608819 
L 586.680992 219.740222 
L 589.447934 217.517272 
L 592.214876 216.41438 
L 594.981818 215.731721 
L 597.74876 213.842249 
L 600.515702 214.253261 
L 603.282645 214.562984 
L 606.049587 214.702311 
L 608.816529 214.720939 
L 611.583471 214.686419 
L 614.350413 214.797882 
L 617.117355 215.661236 
L 619.884298 214.445376 
L 622.65124 215.516106 
L 625.418182 214.252719 
L 628.185124 211.539903 
L 630.952066 211.424605 
L 633.719008 209.919614 
L 636.48595 210.899331 
L 639.252893 210.844723 
L 642.019835 209.972093 
L 644.786777 210.695417 
L 647.553719 210.226355 
L 650.320661 210.37011 
L 653.087603 209.46115 
L 655.854545 208.583081 
L 658.621488 208.332524 
L 661.38843 209.708798 
L 664.155372 210.17515 
L 666.922314 208.823261 
L 669.689256 210.407636 
L 672.456198 210.793815 
L 675.22314 211.619508 
L 677.990083 211.883683 
L 680.757025 212.227023 
L 683.523967 212.910789 
L 686.290909 214.785109 
L 689.057851 215.306646 
L 691.824793 213.349601 
L 694.591736 213.709906 
L 697.358678 212.664957 
L 700.12562 215.292105 
L 702.892562 217.943031 
L 705.659504 215.807367 
L 708.426446 213.788858 
L 711.193388 213.208701 
L 713.960331 214.4351 
L 716.727273 212.45277 
L 719.494215 210.51251 
L 722.261157 208.758466 
L 725.028099 210.026716 
L 727.795041 210.428305 
L 730.561983 209.489447 
L 733.328926 209.92353 
L 736.095868 209.761387 
L 738.86281 208.904089 
L 741.629752 208.060966 
L 744.396694 209.257393 
L 747.163636 208.748866 
L 749.930579 207.52693 
L 752.697521 208.337635 
L 755.464463 210.148388 
L 758.231405 209.523409 
L 760.998347 209.416349 
L 763.765289 210.026524 
" style="fill:none;stroke:#e377c2;stroke-linecap:square;stroke-width:1.5;"/>
   </g>
   <g id="patch_9">
    <path d="M 473.236364 256.32 
L 473.236364 34.56 
" style="fill:none;stroke:#000000;stroke-linecap:square;stroke-linejoin:miter;stroke-width:0.8;"/>
   </g>
   <g id="patch_10">
    <path d="M 777.6 256.32 
L 777.6 34.56 
" style="fill:none;stroke:#000000;stroke-linecap:square;stroke-linejoin:miter;stroke-width:0.8;"/>
   </g>
   <g id="patch_11">
    <path d="M 473.236364 256.32 
L 777.6 256.32 
" style="fill:none;stroke:#000000;stroke-linecap:square;stroke-linejoin:miter;stroke-width:0.8;"/>
   </g>
   <g id="patch_12">
    <path d="M 473.236364 34.56 
L 777.6 34.56 
" style="fill:none;stroke:#000000;stroke-linecap:square;stroke-linejoin:miter;stroke-width:0.8;"/>
   </g>
   <g id="legend_2">
    <g id="patch_13">
     <path d="M 679 145.306875 
L 770.6 145.306875 
Q 772.6 145.306875 772.6 143.306875 
L 772.6 41.56 
Q 772.6 39.56 770.6 39.56 
L 679 39.56 
Q 677 39.56 677 41.56 
L 677 143.306875 
Q 677 145.306875 679 145.306875 
z
" style="fill:#ffffff;opacity:0.8;stroke:#cccccc;stroke-linejoin:miter;"/>
    </g>
    <g id="line2d_51">
     <path d="M 681 47.658437 
L 701 47.658437 
" style="fill:none;stroke:#1f77b4;stroke-linecap:square;stroke-width:1.5;"/>
    </g>
    <g id="line2d_52"/>
    <g id="text_38">
     <!-- mc $\alpha=$0.01 -->
     <g transform="translate(709 51.158437)scale(0.1 -0.1)">
      <defs>
       <path d="M 40.921875 25.4375 
L 40.96875 36.71875 
Q 41.015625 48.25 32.328125 48.296875 
Q 25.828125 48.34375 21.78125 42.921875 
Q 16.703125 36.234375 14.984375 27.296875 
Q 12.890625 16.546875 15.53125 11.421875 
Q 18.265625 6.203125 24.171875 6.203125 
Q 30.71875 6.203125 36.234375 16.609375 
z
M 33.84375 55.90625 
Q 49.078125 56.15625 48.875 40.375 
Q 48.875 40.375 56.5 54.6875 
L 64.5 54.6875 
L 48.734375 25.046875 
L 48.578125 14.359375 
Q 48.578125 11.96875 49.90625 9.96875 
Q 51.421875 7.625 52.984375 7.625 
L 57.328125 7.625 
L 55.859375 0 
L 50.4375 0 
Q 45.84375 0 42.53125 4.109375 
Q 40.96875 6.15625 40.921875 10.453125 
Q 37.75 5.21875 32.28125 0.78125 
Q 29.6875 -1.265625 22.703125 -1.21875 
Q 11.28125 -1.125 7.125 6.203125 
Q 2.875 13.8125 5.515625 27.296875 
Q 8.34375 41.796875 15.765625 48.390625 
Q 24.125 55.765625 33.84375 55.90625 
z
" id="DejaVuSans-Oblique-945"/>
       <path d="M 10.59375 45.40625 
L 73.1875 45.40625 
L 73.1875 37.203125 
L 10.59375 37.203125 
z
M 10.59375 25.484375 
L 73.1875 25.484375 
L 73.1875 17.1875 
L 10.59375 17.1875 
z
" id="DejaVuSans-61"/>
      </defs>
      <use transform="translate(0 0.78125)" xlink:href="#DejaVuSans-109"/>
      <use transform="translate(97.412109 0.78125)" xlink:href="#DejaVuSans-99"/>
      <use transform="translate(152.392578 0.78125)" xlink:href="#DejaVuSans-32"/>
      <use transform="translate(184.179688 0.78125)" xlink:href="#DejaVuSans-Oblique-945"/>
      <use transform="translate(269.580078 0.78125)" xlink:href="#DejaVuSans-61"/>
      <use transform="translate(372.851562 0.78125)" xlink:href="#DejaVuSans-48"/>
      <use transform="translate(436.474609 0.78125)" xlink:href="#DejaVuSans-46"/>
      <use transform="translate(468.261719 0.78125)" xlink:href="#DejaVuSans-48"/>
      <use transform="translate(531.884766 0.78125)" xlink:href="#DejaVuSans-49"/>
     </g>
    </g>
    <g id="line2d_53">
     <path d="M 681 62.336563 
L 701 62.336563 
" style="fill:none;stroke:#ff7f0e;stroke-linecap:square;stroke-width:1.5;"/>
    </g>
    <g id="line2d_54"/>
    <g id="text_39">
     <!-- mc $\alpha=$0.02 -->
     <g transform="translate(709 65.836563)scale(0.1 -0.1)">
      <use transform="translate(0 0.78125)" xlink:href="#DejaVuSans-109"/>
      <use transform="translate(97.412109 0.78125)" xlink:href="#DejaVuSans-99"/>
      <use transform="translate(152.392578 0.78125)" xlink:href="#DejaVuSans-32"/>
      <use transform="translate(184.179688 0.78125)" xlink:href="#DejaVuSans-Oblique-945"/>
      <use transform="translate(269.580078 0.78125)" xlink:href="#DejaVuSans-61"/>
      <use transform="translate(372.851562 0.78125)" xlink:href="#DejaVuSans-48"/>
      <use transform="translate(436.474609 0.78125)" xlink:href="#DejaVuSans-46"/>
      <use transform="translate(468.261719 0.78125)" xlink:href="#DejaVuSans-48"/>
      <use transform="translate(531.884766 0.78125)" xlink:href="#DejaVuSans-50"/>
     </g>
    </g>
    <g id="line2d_55">
     <path d="M 681 77.014687 
L 701 77.014687 
" style="fill:none;stroke:#2ca02c;stroke-linecap:square;stroke-width:1.5;"/>
    </g>
    <g id="line2d_56"/>
    <g id="text_40">
     <!-- mc $\alpha=$0.03 -->
     <g transform="translate(709 80.514687)scale(0.1 -0.1)">
      <use transform="translate(0 0.78125)" xlink:href="#DejaVuSans-109"/>
      <use transform="translate(97.412109 0.78125)" xlink:href="#DejaVuSans-99"/>
      <use transform="translate(152.392578 0.78125)" xlink:href="#DejaVuSans-32"/>
      <use transform="translate(184.179688 0.78125)" xlink:href="#DejaVuSans-Oblique-945"/>
      <use transform="translate(269.580078 0.78125)" xlink:href="#DejaVuSans-61"/>
      <use transform="translate(372.851562 0.78125)" xlink:href="#DejaVuSans-48"/>
      <use transform="translate(436.474609 0.78125)" xlink:href="#DejaVuSans-46"/>
      <use transform="translate(468.261719 0.78125)" xlink:href="#DejaVuSans-48"/>
      <use transform="translate(531.884766 0.78125)" xlink:href="#DejaVuSans-51"/>
     </g>
    </g>
    <g id="line2d_57">
     <path d="M 681 91.692813 
L 701 91.692813 
" style="fill:none;stroke:#d62728;stroke-linecap:square;stroke-width:1.5;"/>
    </g>
    <g id="line2d_58"/>
    <g id="text_41">
     <!-- mc $\alpha=$0.04 -->
     <g transform="translate(709 95.192813)scale(0.1 -0.1)">
      <use transform="translate(0 0.78125)" xlink:href="#DejaVuSans-109"/>
      <use transform="translate(97.412109 0.78125)" xlink:href="#DejaVuSans-99"/>
      <use transform="translate(152.392578 0.78125)" xlink:href="#DejaVuSans-32"/>
      <use transform="translate(184.179688 0.78125)" xlink:href="#DejaVuSans-Oblique-945"/>
      <use transform="translate(269.580078 0.78125)" xlink:href="#DejaVuSans-61"/>
      <use transform="translate(372.851562 0.78125)" xlink:href="#DejaVuSans-48"/>
      <use transform="translate(436.474609 0.78125)" xlink:href="#DejaVuSans-46"/>
      <use transform="translate(468.261719 0.78125)" xlink:href="#DejaVuSans-48"/>
      <use transform="translate(531.884766 0.78125)" xlink:href="#DejaVuSans-52"/>
     </g>
    </g>
    <g id="line2d_59">
     <path d="M 681 106.370937 
L 701 106.370937 
" style="fill:none;stroke:#9467bd;stroke-linecap:square;stroke-width:1.5;"/>
    </g>
    <g id="line2d_60"/>
    <g id="text_42">
     <!-- td $\alpha=$0.05 -->
     <g transform="translate(709 109.870937)scale(0.1 -0.1)">
      <use transform="translate(0 0.015625)" xlink:href="#DejaVuSans-116"/>
      <use transform="translate(39.208984 0.015625)" xlink:href="#DejaVuSans-100"/>
      <use transform="translate(102.685547 0.015625)" xlink:href="#DejaVuSans-32"/>
      <use transform="translate(134.472656 0.015625)" xlink:href="#DejaVuSans-Oblique-945"/>
      <use transform="translate(219.873047 0.015625)" xlink:href="#DejaVuSans-61"/>
      <use transform="translate(323.144531 0.015625)" xlink:href="#DejaVuSans-48"/>
      <use transform="translate(386.767578 0.015625)" xlink:href="#DejaVuSans-46"/>
      <use transform="translate(418.554688 0.015625)" xlink:href="#DejaVuSans-48"/>
      <use transform="translate(482.177734 0.015625)" xlink:href="#DejaVuSans-53"/>
     </g>
    </g>
    <g id="line2d_61">
     <path d="M 681 121.049062 
L 701 121.049062 
" style="fill:none;stroke:#8c564b;stroke-linecap:square;stroke-width:1.5;"/>
    </g>
    <g id="line2d_62"/>
    <g id="text_43">
     <!-- td $\alpha=$0.1 -->
     <g transform="translate(709 124.549062)scale(0.1 -0.1)">
      <use transform="translate(0 0.015625)" xlink:href="#DejaVuSans-116"/>
      <use transform="translate(39.208984 0.015625)" xlink:href="#DejaVuSans-100"/>
      <use transform="translate(102.685547 0.015625)" xlink:href="#DejaVuSans-32"/>
      <use transform="translate(134.472656 0.015625)" xlink:href="#DejaVuSans-Oblique-945"/>
      <use transform="translate(219.873047 0.015625)" xlink:href="#DejaVuSans-61"/>
      <use transform="translate(323.144531 0.015625)" xlink:href="#DejaVuSans-48"/>
      <use transform="translate(386.767578 0.015625)" xlink:href="#DejaVuSans-46"/>
      <use transform="translate(418.554688 0.015625)" xlink:href="#DejaVuSans-49"/>
     </g>
    </g>
    <g id="line2d_63">
     <path d="M 681 135.727187 
L 701 135.727187 
" style="fill:none;stroke:#e377c2;stroke-linecap:square;stroke-width:1.5;"/>
    </g>
    <g id="line2d_64"/>
    <g id="text_44">
     <!-- td $\alpha=$0.15 -->
     <g transform="translate(709 139.227187)scale(0.1 -0.1)">
      <use transform="translate(0 0.015625)" xlink:href="#DejaVuSans-116"/>
      <use transform="translate(39.208984 0.015625)" xlink:href="#DejaVuSans-100"/>
      <use transform="translate(102.685547 0.015625)" xlink:href="#DejaVuSans-32"/>
      <use transform="translate(134.472656 0.015625)" xlink:href="#DejaVuSans-Oblique-945"/>
      <use transform="translate(219.873047 0.015625)" xlink:href="#DejaVuSans-61"/>
      <use transform="translate(323.144531 0.015625)" xlink:href="#DejaVuSans-48"/>
      <use transform="translate(386.767578 0.015625)" xlink:href="#DejaVuSans-46"/>
      <use transform="translate(418.554688 0.015625)" xlink:href="#DejaVuSans-49"/>
      <use transform="translate(482.177734 0.015625)" xlink:href="#DejaVuSans-53"/>
     </g>
    </g>
   </g>
  </g>
 </g>
 <defs>
  <clipPath id="p730640c68d">
   <rect height="221.76" width="304.363636" x="108" y="34.56"/>
  </clipPath>
  <clipPath id="p3617c901a0">
   <rect height="221.76" width="304.363636" x="473.236364" y="34.56"/>
  </clipPath>
 </defs>
</svg>
