<?xml version="1.0" encoding="utf-8" standalone="no"?>
<!DOCTYPE svg PUBLIC "-//W3C//DTD SVG 1.1//EN"
  "http://www.w3.org/Graphics/SVG/1.1/DTD/svg11.dtd">
<!-- Created with matplotlib (https://matplotlib.org/) -->
<svg height="345.6pt" version="1.1" viewBox="0 0 460.8 345.6" width="460.8pt" xmlns="http://www.w3.org/2000/svg" xmlns:xlink="http://www.w3.org/1999/xlink">
 <metadata>
  <rdf:RDF xmlns:cc="http://creativecommons.org/ns#" xmlns:dc="http://purl.org/dc/elements/1.1/" xmlns:rdf="http://www.w3.org/1999/02/22-rdf-syntax-ns#">
   <cc:Work>
    <dc:type rdf:resource="http://purl.org/dc/dcmitype/StillImage"/>
    <dc:date>2021-08-08T12:18:26.835810</dc:date>
    <dc:format>image/svg+xml</dc:format>
    <dc:creator>
     <cc:Agent>
      <dc:title>Matplotlib v3.3.4, https://matplotlib.org/</dc:title>
     </cc:Agent>
    </dc:creator>
   </cc:Work>
  </rdf:RDF>
 </metadata>
 <defs>
  <style type="text/css">*{stroke-linecap:butt;stroke-linejoin:round;}</style>
 </defs>
 <g id="figure_1">
  <g id="patch_1">
   <path d="M 0 345.6 
L 460.8 345.6 
L 460.8 0 
L 0 0 
z
" style="fill:#ffffff;"/>
  </g>
  <g id="axes_1">
   <g id="patch_2">
    <path d="M 57.6 307.584 
L 414.72 307.584 
L 414.72 41.472 
L 57.6 41.472 
z
" style="fill:#ffffff;"/>
   </g>
   <g id="matplotlib.axis_1">
    <g id="xtick_1">
     <g id="line2d_1">
      <defs>
       <path d="M 0 0 
L 0 3.5 
" id="m9d47b24739" style="stroke:#000000;stroke-width:0.8;"/>
      </defs>
      <g>
       <use style="stroke:#000000;stroke-width:0.8;" x="73.832727" xlink:href="#m9d47b24739" y="307.584"/>
      </g>
     </g>
     <g id="text_1">
      <!-- 0 -->
      <g transform="translate(70.651477 322.182437)scale(0.1 -0.1)">
       <defs>
        <path d="M 31.78125 66.40625 
Q 24.171875 66.40625 20.328125 58.90625 
Q 16.5 51.421875 16.5 36.375 
Q 16.5 21.390625 20.328125 13.890625 
Q 24.171875 6.390625 31.78125 6.390625 
Q 39.453125 6.390625 43.28125 13.890625 
Q 47.125 21.390625 47.125 36.375 
Q 47.125 51.421875 43.28125 58.90625 
Q 39.453125 66.40625 31.78125 66.40625 
z
M 31.78125 74.21875 
Q 44.046875 74.21875 50.515625 64.515625 
Q 56.984375 54.828125 56.984375 36.375 
Q 56.984375 17.96875 50.515625 8.265625 
Q 44.046875 -1.421875 31.78125 -1.421875 
Q 19.53125 -1.421875 13.0625 8.265625 
Q 6.59375 17.96875 6.59375 36.375 
Q 6.59375 54.828125 13.0625 64.515625 
Q 19.53125 74.21875 31.78125 74.21875 
z
" id="DejaVuSans-48"/>
       </defs>
       <use xlink:href="#DejaVuSans-48"/>
      </g>
     </g>
    </g>
    <g id="xtick_2">
     <g id="line2d_2">
      <g>
       <use style="stroke:#000000;stroke-width:0.8;" x="138.893758" xlink:href="#m9d47b24739" y="307.584"/>
      </g>
     </g>
     <g id="text_2">
      <!-- 100 -->
      <g transform="translate(129.350008 322.182437)scale(0.1 -0.1)">
       <defs>
        <path d="M 12.40625 8.296875 
L 28.515625 8.296875 
L 28.515625 63.921875 
L 10.984375 60.40625 
L 10.984375 69.390625 
L 28.421875 72.90625 
L 38.28125 72.90625 
L 38.28125 8.296875 
L 54.390625 8.296875 
L 54.390625 0 
L 12.40625 0 
z
" id="DejaVuSans-49"/>
       </defs>
       <use xlink:href="#DejaVuSans-49"/>
       <use x="63.623047" xlink:href="#DejaVuSans-48"/>
       <use x="127.246094" xlink:href="#DejaVuSans-48"/>
      </g>
     </g>
    </g>
    <g id="xtick_3">
     <g id="line2d_3">
      <g>
       <use style="stroke:#000000;stroke-width:0.8;" x="203.95479" xlink:href="#m9d47b24739" y="307.584"/>
      </g>
     </g>
     <g id="text_3">
      <!-- 200 -->
      <g transform="translate(194.41104 322.182437)scale(0.1 -0.1)">
       <defs>
        <path d="M 19.1875 8.296875 
L 53.609375 8.296875 
L 53.609375 0 
L 7.328125 0 
L 7.328125 8.296875 
Q 12.9375 14.109375 22.625 23.890625 
Q 32.328125 33.6875 34.8125 36.53125 
Q 39.546875 41.84375 41.421875 45.53125 
Q 43.3125 49.21875 43.3125 52.78125 
Q 43.3125 58.59375 39.234375 62.25 
Q 35.15625 65.921875 28.609375 65.921875 
Q 23.96875 65.921875 18.8125 64.3125 
Q 13.671875 62.703125 7.8125 59.421875 
L 7.8125 69.390625 
Q 13.765625 71.78125 18.9375 73 
Q 24.125 74.21875 28.421875 74.21875 
Q 39.75 74.21875 46.484375 68.546875 
Q 53.21875 62.890625 53.21875 53.421875 
Q 53.21875 48.921875 51.53125 44.890625 
Q 49.859375 40.875 45.40625 35.40625 
Q 44.1875 33.984375 37.640625 27.21875 
Q 31.109375 20.453125 19.1875 8.296875 
z
" id="DejaVuSans-50"/>
       </defs>
       <use xlink:href="#DejaVuSans-50"/>
       <use x="63.623047" xlink:href="#DejaVuSans-48"/>
       <use x="127.246094" xlink:href="#DejaVuSans-48"/>
      </g>
     </g>
    </g>
    <g id="xtick_4">
     <g id="line2d_4">
      <g>
       <use style="stroke:#000000;stroke-width:0.8;" x="269.015821" xlink:href="#m9d47b24739" y="307.584"/>
      </g>
     </g>
     <g id="text_4">
      <!-- 300 -->
      <g transform="translate(259.472071 322.182437)scale(0.1 -0.1)">
       <defs>
        <path d="M 40.578125 39.3125 
Q 47.65625 37.796875 51.625 33 
Q 55.609375 28.21875 55.609375 21.1875 
Q 55.609375 10.40625 48.1875 4.484375 
Q 40.765625 -1.421875 27.09375 -1.421875 
Q 22.515625 -1.421875 17.65625 -0.515625 
Q 12.796875 0.390625 7.625 2.203125 
L 7.625 11.71875 
Q 11.71875 9.328125 16.59375 8.109375 
Q 21.484375 6.890625 26.8125 6.890625 
Q 36.078125 6.890625 40.9375 10.546875 
Q 45.796875 14.203125 45.796875 21.1875 
Q 45.796875 27.640625 41.28125 31.265625 
Q 36.765625 34.90625 28.71875 34.90625 
L 20.21875 34.90625 
L 20.21875 43.015625 
L 29.109375 43.015625 
Q 36.375 43.015625 40.234375 45.921875 
Q 44.09375 48.828125 44.09375 54.296875 
Q 44.09375 59.90625 40.109375 62.90625 
Q 36.140625 65.921875 28.71875 65.921875 
Q 24.65625 65.921875 20.015625 65.03125 
Q 15.375 64.15625 9.8125 62.3125 
L 9.8125 71.09375 
Q 15.4375 72.65625 20.34375 73.4375 
Q 25.25 74.21875 29.59375 74.21875 
Q 40.828125 74.21875 47.359375 69.109375 
Q 53.90625 64.015625 53.90625 55.328125 
Q 53.90625 49.265625 50.4375 45.09375 
Q 46.96875 40.921875 40.578125 39.3125 
z
" id="DejaVuSans-51"/>
       </defs>
       <use xlink:href="#DejaVuSans-51"/>
       <use x="63.623047" xlink:href="#DejaVuSans-48"/>
       <use x="127.246094" xlink:href="#DejaVuSans-48"/>
      </g>
     </g>
    </g>
    <g id="xtick_5">
     <g id="line2d_5">
      <g>
       <use style="stroke:#000000;stroke-width:0.8;" x="334.076852" xlink:href="#m9d47b24739" y="307.584"/>
      </g>
     </g>
     <g id="text_5">
      <!-- 400 -->
      <g transform="translate(324.533102 322.182437)scale(0.1 -0.1)">
       <defs>
        <path d="M 37.796875 64.3125 
L 12.890625 25.390625 
L 37.796875 25.390625 
z
M 35.203125 72.90625 
L 47.609375 72.90625 
L 47.609375 25.390625 
L 58.015625 25.390625 
L 58.015625 17.1875 
L 47.609375 17.1875 
L 47.609375 0 
L 37.796875 0 
L 37.796875 17.1875 
L 4.890625 17.1875 
L 4.890625 26.703125 
z
" id="DejaVuSans-52"/>
       </defs>
       <use xlink:href="#DejaVuSans-52"/>
       <use x="63.623047" xlink:href="#DejaVuSans-48"/>
       <use x="127.246094" xlink:href="#DejaVuSans-48"/>
      </g>
     </g>
    </g>
    <g id="xtick_6">
     <g id="line2d_6">
      <g>
       <use style="stroke:#000000;stroke-width:0.8;" x="399.137883" xlink:href="#m9d47b24739" y="307.584"/>
      </g>
     </g>
     <g id="text_6">
      <!-- 500 -->
      <g transform="translate(389.594133 322.182437)scale(0.1 -0.1)">
       <defs>
        <path d="M 10.796875 72.90625 
L 49.515625 72.90625 
L 49.515625 64.59375 
L 19.828125 64.59375 
L 19.828125 46.734375 
Q 21.96875 47.46875 24.109375 47.828125 
Q 26.265625 48.1875 28.421875 48.1875 
Q 40.625 48.1875 47.75 41.5 
Q 54.890625 34.8125 54.890625 23.390625 
Q 54.890625 11.625 47.5625 5.09375 
Q 40.234375 -1.421875 26.90625 -1.421875 
Q 22.3125 -1.421875 17.546875 -0.640625 
Q 12.796875 0.140625 7.71875 1.703125 
L 7.71875 11.625 
Q 12.109375 9.234375 16.796875 8.0625 
Q 21.484375 6.890625 26.703125 6.890625 
Q 35.15625 6.890625 40.078125 11.328125 
Q 45.015625 15.765625 45.015625 23.390625 
Q 45.015625 31 40.078125 35.4375 
Q 35.15625 39.890625 26.703125 39.890625 
Q 22.75 39.890625 18.8125 39.015625 
Q 14.890625 38.140625 10.796875 36.28125 
z
" id="DejaVuSans-53"/>
       </defs>
       <use xlink:href="#DejaVuSans-53"/>
       <use x="63.623047" xlink:href="#DejaVuSans-48"/>
       <use x="127.246094" xlink:href="#DejaVuSans-48"/>
      </g>
     </g>
    </g>
    <g id="text_7">
     <!-- Episodes -->
     <g transform="translate(213.917812 335.860562)scale(0.1 -0.1)">
      <defs>
       <path d="M 9.8125 72.90625 
L 55.90625 72.90625 
L 55.90625 64.59375 
L 19.671875 64.59375 
L 19.671875 43.015625 
L 54.390625 43.015625 
L 54.390625 34.71875 
L 19.671875 34.71875 
L 19.671875 8.296875 
L 56.78125 8.296875 
L 56.78125 0 
L 9.8125 0 
z
" id="DejaVuSans-69"/>
       <path d="M 18.109375 8.203125 
L 18.109375 -20.796875 
L 9.078125 -20.796875 
L 9.078125 54.6875 
L 18.109375 54.6875 
L 18.109375 46.390625 
Q 20.953125 51.265625 25.265625 53.625 
Q 29.59375 56 35.59375 56 
Q 45.5625 56 51.78125 48.09375 
Q 58.015625 40.1875 58.015625 27.296875 
Q 58.015625 14.40625 51.78125 6.484375 
Q 45.5625 -1.421875 35.59375 -1.421875 
Q 29.59375 -1.421875 25.265625 0.953125 
Q 20.953125 3.328125 18.109375 8.203125 
z
M 48.6875 27.296875 
Q 48.6875 37.203125 44.609375 42.84375 
Q 40.53125 48.484375 33.40625 48.484375 
Q 26.265625 48.484375 22.1875 42.84375 
Q 18.109375 37.203125 18.109375 27.296875 
Q 18.109375 17.390625 22.1875 11.75 
Q 26.265625 6.109375 33.40625 6.109375 
Q 40.53125 6.109375 44.609375 11.75 
Q 48.6875 17.390625 48.6875 27.296875 
z
" id="DejaVuSans-112"/>
       <path d="M 9.421875 54.6875 
L 18.40625 54.6875 
L 18.40625 0 
L 9.421875 0 
z
M 9.421875 75.984375 
L 18.40625 75.984375 
L 18.40625 64.59375 
L 9.421875 64.59375 
z
" id="DejaVuSans-105"/>
       <path d="M 44.28125 53.078125 
L 44.28125 44.578125 
Q 40.484375 46.53125 36.375 47.5 
Q 32.28125 48.484375 27.875 48.484375 
Q 21.1875 48.484375 17.84375 46.4375 
Q 14.5 44.390625 14.5 40.28125 
Q 14.5 37.15625 16.890625 35.375 
Q 19.28125 33.59375 26.515625 31.984375 
L 29.59375 31.296875 
Q 39.15625 29.25 43.1875 25.515625 
Q 47.21875 21.78125 47.21875 15.09375 
Q 47.21875 7.46875 41.1875 3.015625 
Q 35.15625 -1.421875 24.609375 -1.421875 
Q 20.21875 -1.421875 15.453125 -0.5625 
Q 10.6875 0.296875 5.421875 2 
L 5.421875 11.28125 
Q 10.40625 8.6875 15.234375 7.390625 
Q 20.0625 6.109375 24.8125 6.109375 
Q 31.15625 6.109375 34.5625 8.28125 
Q 37.984375 10.453125 37.984375 14.40625 
Q 37.984375 18.0625 35.515625 20.015625 
Q 33.0625 21.96875 24.703125 23.78125 
L 21.578125 24.515625 
Q 13.234375 26.265625 9.515625 29.90625 
Q 5.8125 33.546875 5.8125 39.890625 
Q 5.8125 47.609375 11.28125 51.796875 
Q 16.75 56 26.8125 56 
Q 31.78125 56 36.171875 55.265625 
Q 40.578125 54.546875 44.28125 53.078125 
z
" id="DejaVuSans-115"/>
       <path d="M 30.609375 48.390625 
Q 23.390625 48.390625 19.1875 42.75 
Q 14.984375 37.109375 14.984375 27.296875 
Q 14.984375 17.484375 19.15625 11.84375 
Q 23.34375 6.203125 30.609375 6.203125 
Q 37.796875 6.203125 41.984375 11.859375 
Q 46.1875 17.53125 46.1875 27.296875 
Q 46.1875 37.015625 41.984375 42.703125 
Q 37.796875 48.390625 30.609375 48.390625 
z
M 30.609375 56 
Q 42.328125 56 49.015625 48.375 
Q 55.71875 40.765625 55.71875 27.296875 
Q 55.71875 13.875 49.015625 6.21875 
Q 42.328125 -1.421875 30.609375 -1.421875 
Q 18.84375 -1.421875 12.171875 6.21875 
Q 5.515625 13.875 5.515625 27.296875 
Q 5.515625 40.765625 12.171875 48.375 
Q 18.84375 56 30.609375 56 
z
" id="DejaVuSans-111"/>
       <path d="M 45.40625 46.390625 
L 45.40625 75.984375 
L 54.390625 75.984375 
L 54.390625 0 
L 45.40625 0 
L 45.40625 8.203125 
Q 42.578125 3.328125 38.25 0.953125 
Q 33.9375 -1.421875 27.875 -1.421875 
Q 17.96875 -1.421875 11.734375 6.484375 
Q 5.515625 14.40625 5.515625 27.296875 
Q 5.515625 40.1875 11.734375 48.09375 
Q 17.96875 56 27.875 56 
Q 33.9375 56 38.25 53.625 
Q 42.578125 51.265625 45.40625 46.390625 
z
M 14.796875 27.296875 
Q 14.796875 17.390625 18.875 11.75 
Q 22.953125 6.109375 30.078125 6.109375 
Q 37.203125 6.109375 41.296875 11.75 
Q 45.40625 17.390625 45.40625 27.296875 
Q 45.40625 37.203125 41.296875 42.84375 
Q 37.203125 48.484375 30.078125 48.484375 
Q 22.953125 48.484375 18.875 42.84375 
Q 14.796875 37.203125 14.796875 27.296875 
z
" id="DejaVuSans-100"/>
       <path d="M 56.203125 29.59375 
L 56.203125 25.203125 
L 14.890625 25.203125 
Q 15.484375 15.921875 20.484375 11.0625 
Q 25.484375 6.203125 34.421875 6.203125 
Q 39.59375 6.203125 44.453125 7.46875 
Q 49.3125 8.734375 54.109375 11.28125 
L 54.109375 2.78125 
Q 49.265625 0.734375 44.1875 -0.34375 
Q 39.109375 -1.421875 33.890625 -1.421875 
Q 20.796875 -1.421875 13.15625 6.1875 
Q 5.515625 13.8125 5.515625 26.8125 
Q 5.515625 40.234375 12.765625 48.109375 
Q 20.015625 56 32.328125 56 
Q 43.359375 56 49.78125 48.890625 
Q 56.203125 41.796875 56.203125 29.59375 
z
M 47.21875 32.234375 
Q 47.125 39.59375 43.09375 43.984375 
Q 39.0625 48.390625 32.421875 48.390625 
Q 24.90625 48.390625 20.390625 44.140625 
Q 15.875 39.890625 15.1875 32.171875 
z
" id="DejaVuSans-101"/>
      </defs>
      <use xlink:href="#DejaVuSans-69"/>
      <use x="63.183594" xlink:href="#DejaVuSans-112"/>
      <use x="126.660156" xlink:href="#DejaVuSans-105"/>
      <use x="154.443359" xlink:href="#DejaVuSans-115"/>
      <use x="206.542969" xlink:href="#DejaVuSans-111"/>
      <use x="267.724609" xlink:href="#DejaVuSans-100"/>
      <use x="331.201172" xlink:href="#DejaVuSans-101"/>
      <use x="392.724609" xlink:href="#DejaVuSans-115"/>
     </g>
    </g>
   </g>
   <g id="matplotlib.axis_2">
    <g id="ytick_1">
     <g id="line2d_7">
      <defs>
       <path d="M 0 0 
L -3.5 0 
" id="m19884f0773" style="stroke:#000000;stroke-width:0.8;"/>
      </defs>
      <g>
       <use style="stroke:#000000;stroke-width:0.8;" x="57.6" xlink:href="#m19884f0773" y="307.584"/>
      </g>
     </g>
     <g id="text_8">
      <!-- −100 -->
      <g transform="translate(23.132812 311.383219)scale(0.1 -0.1)">
       <defs>
        <path d="M 10.59375 35.5 
L 73.1875 35.5 
L 73.1875 27.203125 
L 10.59375 27.203125 
z
" id="DejaVuSans-8722"/>
       </defs>
       <use xlink:href="#DejaVuSans-8722"/>
       <use x="83.789062" xlink:href="#DejaVuSans-49"/>
       <use x="147.412109" xlink:href="#DejaVuSans-48"/>
       <use x="211.035156" xlink:href="#DejaVuSans-48"/>
      </g>
     </g>
    </g>
    <g id="ytick_2">
     <g id="line2d_8">
      <g>
       <use style="stroke:#000000;stroke-width:0.8;" x="57.6" xlink:href="#m19884f0773" y="274.32"/>
      </g>
     </g>
     <g id="text_9">
      <!-- −90 -->
      <g transform="translate(29.495313 278.119219)scale(0.1 -0.1)">
       <defs>
        <path d="M 10.984375 1.515625 
L 10.984375 10.5 
Q 14.703125 8.734375 18.5 7.8125 
Q 22.3125 6.890625 25.984375 6.890625 
Q 35.75 6.890625 40.890625 13.453125 
Q 46.046875 20.015625 46.78125 33.40625 
Q 43.953125 29.203125 39.59375 26.953125 
Q 35.25 24.703125 29.984375 24.703125 
Q 19.046875 24.703125 12.671875 31.3125 
Q 6.296875 37.9375 6.296875 49.421875 
Q 6.296875 60.640625 12.9375 67.421875 
Q 19.578125 74.21875 30.609375 74.21875 
Q 43.265625 74.21875 49.921875 64.515625 
Q 56.59375 54.828125 56.59375 36.375 
Q 56.59375 19.140625 48.40625 8.859375 
Q 40.234375 -1.421875 26.421875 -1.421875 
Q 22.703125 -1.421875 18.890625 -0.6875 
Q 15.09375 0.046875 10.984375 1.515625 
z
M 30.609375 32.421875 
Q 37.25 32.421875 41.125 36.953125 
Q 45.015625 41.5 45.015625 49.421875 
Q 45.015625 57.28125 41.125 61.84375 
Q 37.25 66.40625 30.609375 66.40625 
Q 23.96875 66.40625 20.09375 61.84375 
Q 16.21875 57.28125 16.21875 49.421875 
Q 16.21875 41.5 20.09375 36.953125 
Q 23.96875 32.421875 30.609375 32.421875 
z
" id="DejaVuSans-57"/>
       </defs>
       <use xlink:href="#DejaVuSans-8722"/>
       <use x="83.789062" xlink:href="#DejaVuSans-57"/>
       <use x="147.412109" xlink:href="#DejaVuSans-48"/>
      </g>
     </g>
    </g>
    <g id="ytick_3">
     <g id="line2d_9">
      <g>
       <use style="stroke:#000000;stroke-width:0.8;" x="57.6" xlink:href="#m19884f0773" y="241.056"/>
      </g>
     </g>
     <g id="text_10">
      <!-- −80 -->
      <g transform="translate(29.495313 244.855219)scale(0.1 -0.1)">
       <defs>
        <path d="M 31.78125 34.625 
Q 24.75 34.625 20.71875 30.859375 
Q 16.703125 27.09375 16.703125 20.515625 
Q 16.703125 13.921875 20.71875 10.15625 
Q 24.75 6.390625 31.78125 6.390625 
Q 38.8125 6.390625 42.859375 10.171875 
Q 46.921875 13.96875 46.921875 20.515625 
Q 46.921875 27.09375 42.890625 30.859375 
Q 38.875 34.625 31.78125 34.625 
z
M 21.921875 38.8125 
Q 15.578125 40.375 12.03125 44.71875 
Q 8.5 49.078125 8.5 55.328125 
Q 8.5 64.0625 14.71875 69.140625 
Q 20.953125 74.21875 31.78125 74.21875 
Q 42.671875 74.21875 48.875 69.140625 
Q 55.078125 64.0625 55.078125 55.328125 
Q 55.078125 49.078125 51.53125 44.71875 
Q 48 40.375 41.703125 38.8125 
Q 48.828125 37.15625 52.796875 32.3125 
Q 56.78125 27.484375 56.78125 20.515625 
Q 56.78125 9.90625 50.3125 4.234375 
Q 43.84375 -1.421875 31.78125 -1.421875 
Q 19.734375 -1.421875 13.25 4.234375 
Q 6.78125 9.90625 6.78125 20.515625 
Q 6.78125 27.484375 10.78125 32.3125 
Q 14.796875 37.15625 21.921875 38.8125 
z
M 18.3125 54.390625 
Q 18.3125 48.734375 21.84375 45.5625 
Q 25.390625 42.390625 31.78125 42.390625 
Q 38.140625 42.390625 41.71875 45.5625 
Q 45.3125 48.734375 45.3125 54.390625 
Q 45.3125 60.0625 41.71875 63.234375 
Q 38.140625 66.40625 31.78125 66.40625 
Q 25.390625 66.40625 21.84375 63.234375 
Q 18.3125 60.0625 18.3125 54.390625 
z
" id="DejaVuSans-56"/>
       </defs>
       <use xlink:href="#DejaVuSans-8722"/>
       <use x="83.789062" xlink:href="#DejaVuSans-56"/>
       <use x="147.412109" xlink:href="#DejaVuSans-48"/>
      </g>
     </g>
    </g>
    <g id="ytick_4">
     <g id="line2d_10">
      <g>
       <use style="stroke:#000000;stroke-width:0.8;" x="57.6" xlink:href="#m19884f0773" y="207.792"/>
      </g>
     </g>
     <g id="text_11">
      <!-- −70 -->
      <g transform="translate(29.495313 211.591219)scale(0.1 -0.1)">
       <defs>
        <path d="M 8.203125 72.90625 
L 55.078125 72.90625 
L 55.078125 68.703125 
L 28.609375 0 
L 18.3125 0 
L 43.21875 64.59375 
L 8.203125 64.59375 
z
" id="DejaVuSans-55"/>
       </defs>
       <use xlink:href="#DejaVuSans-8722"/>
       <use x="83.789062" xlink:href="#DejaVuSans-55"/>
       <use x="147.412109" xlink:href="#DejaVuSans-48"/>
      </g>
     </g>
    </g>
    <g id="ytick_5">
     <g id="line2d_11">
      <g>
       <use style="stroke:#000000;stroke-width:0.8;" x="57.6" xlink:href="#m19884f0773" y="174.528"/>
      </g>
     </g>
     <g id="text_12">
      <!-- −60 -->
      <g transform="translate(29.495313 178.327219)scale(0.1 -0.1)">
       <defs>
        <path d="M 33.015625 40.375 
Q 26.375 40.375 22.484375 35.828125 
Q 18.609375 31.296875 18.609375 23.390625 
Q 18.609375 15.53125 22.484375 10.953125 
Q 26.375 6.390625 33.015625 6.390625 
Q 39.65625 6.390625 43.53125 10.953125 
Q 47.40625 15.53125 47.40625 23.390625 
Q 47.40625 31.296875 43.53125 35.828125 
Q 39.65625 40.375 33.015625 40.375 
z
M 52.59375 71.296875 
L 52.59375 62.3125 
Q 48.875 64.0625 45.09375 64.984375 
Q 41.3125 65.921875 37.59375 65.921875 
Q 27.828125 65.921875 22.671875 59.328125 
Q 17.53125 52.734375 16.796875 39.40625 
Q 19.671875 43.65625 24.015625 45.921875 
Q 28.375 48.1875 33.59375 48.1875 
Q 44.578125 48.1875 50.953125 41.515625 
Q 57.328125 34.859375 57.328125 23.390625 
Q 57.328125 12.15625 50.6875 5.359375 
Q 44.046875 -1.421875 33.015625 -1.421875 
Q 20.359375 -1.421875 13.671875 8.265625 
Q 6.984375 17.96875 6.984375 36.375 
Q 6.984375 53.65625 15.1875 63.9375 
Q 23.390625 74.21875 37.203125 74.21875 
Q 40.921875 74.21875 44.703125 73.484375 
Q 48.484375 72.75 52.59375 71.296875 
z
" id="DejaVuSans-54"/>
       </defs>
       <use xlink:href="#DejaVuSans-8722"/>
       <use x="83.789062" xlink:href="#DejaVuSans-54"/>
       <use x="147.412109" xlink:href="#DejaVuSans-48"/>
      </g>
     </g>
    </g>
    <g id="ytick_6">
     <g id="line2d_12">
      <g>
       <use style="stroke:#000000;stroke-width:0.8;" x="57.6" xlink:href="#m19884f0773" y="141.264"/>
      </g>
     </g>
     <g id="text_13">
      <!-- −50 -->
      <g transform="translate(29.495313 145.063219)scale(0.1 -0.1)">
       <use xlink:href="#DejaVuSans-8722"/>
       <use x="83.789062" xlink:href="#DejaVuSans-53"/>
       <use x="147.412109" xlink:href="#DejaVuSans-48"/>
      </g>
     </g>
    </g>
    <g id="ytick_7">
     <g id="line2d_13">
      <g>
       <use style="stroke:#000000;stroke-width:0.8;" x="57.6" xlink:href="#m19884f0773" y="108"/>
      </g>
     </g>
     <g id="text_14">
      <!-- −40 -->
      <g transform="translate(29.495313 111.799219)scale(0.1 -0.1)">
       <use xlink:href="#DejaVuSans-8722"/>
       <use x="83.789062" xlink:href="#DejaVuSans-52"/>
       <use x="147.412109" xlink:href="#DejaVuSans-48"/>
      </g>
     </g>
    </g>
    <g id="ytick_8">
     <g id="line2d_14">
      <g>
       <use style="stroke:#000000;stroke-width:0.8;" x="57.6" xlink:href="#m19884f0773" y="74.736"/>
      </g>
     </g>
     <g id="text_15">
      <!-- −30 -->
      <g transform="translate(29.495313 78.535219)scale(0.1 -0.1)">
       <use xlink:href="#DejaVuSans-8722"/>
       <use x="83.789062" xlink:href="#DejaVuSans-51"/>
       <use x="147.412109" xlink:href="#DejaVuSans-48"/>
      </g>
     </g>
    </g>
    <g id="ytick_9">
     <g id="line2d_15">
      <g>
       <use style="stroke:#000000;stroke-width:0.8;" x="57.6" xlink:href="#m19884f0773" y="41.472"/>
      </g>
     </g>
     <g id="text_16">
      <!-- −20 -->
      <g transform="translate(29.495313 45.271219)scale(0.1 -0.1)">
       <use xlink:href="#DejaVuSans-8722"/>
       <use x="83.789062" xlink:href="#DejaVuSans-50"/>
       <use x="147.412109" xlink:href="#DejaVuSans-48"/>
      </g>
     </g>
    </g>
    <g id="text_17">
     <!-- Sum of rewards during episode -->
     <g transform="translate(17.053125 252.52175)rotate(-90)scale(0.1 -0.1)">
      <defs>
       <path d="M 53.515625 70.515625 
L 53.515625 60.890625 
Q 47.90625 63.578125 42.921875 64.890625 
Q 37.9375 66.21875 33.296875 66.21875 
Q 25.25 66.21875 20.875 63.09375 
Q 16.5 59.96875 16.5 54.203125 
Q 16.5 49.359375 19.40625 46.890625 
Q 22.3125 44.4375 30.421875 42.921875 
L 36.375 41.703125 
Q 47.40625 39.59375 52.65625 34.296875 
Q 57.90625 29 57.90625 20.125 
Q 57.90625 9.515625 50.796875 4.046875 
Q 43.703125 -1.421875 29.984375 -1.421875 
Q 24.8125 -1.421875 18.96875 -0.25 
Q 13.140625 0.921875 6.890625 3.21875 
L 6.890625 13.375 
Q 12.890625 10.015625 18.65625 8.296875 
Q 24.421875 6.59375 29.984375 6.59375 
Q 38.421875 6.59375 43.015625 9.90625 
Q 47.609375 13.234375 47.609375 19.390625 
Q 47.609375 24.75 44.3125 27.78125 
Q 41.015625 30.8125 33.5 32.328125 
L 27.484375 33.5 
Q 16.453125 35.6875 11.515625 40.375 
Q 6.59375 45.0625 6.59375 53.421875 
Q 6.59375 63.09375 13.40625 68.65625 
Q 20.21875 74.21875 32.171875 74.21875 
Q 37.3125 74.21875 42.625 73.28125 
Q 47.953125 72.359375 53.515625 70.515625 
z
" id="DejaVuSans-83"/>
       <path d="M 8.5 21.578125 
L 8.5 54.6875 
L 17.484375 54.6875 
L 17.484375 21.921875 
Q 17.484375 14.15625 20.5 10.265625 
Q 23.53125 6.390625 29.59375 6.390625 
Q 36.859375 6.390625 41.078125 11.03125 
Q 45.3125 15.671875 45.3125 23.6875 
L 45.3125 54.6875 
L 54.296875 54.6875 
L 54.296875 0 
L 45.3125 0 
L 45.3125 8.40625 
Q 42.046875 3.421875 37.71875 1 
Q 33.40625 -1.421875 27.6875 -1.421875 
Q 18.265625 -1.421875 13.375 4.4375 
Q 8.5 10.296875 8.5 21.578125 
z
M 31.109375 56 
z
" id="DejaVuSans-117"/>
       <path d="M 52 44.1875 
Q 55.375 50.25 60.0625 53.125 
Q 64.75 56 71.09375 56 
Q 79.640625 56 84.28125 50.015625 
Q 88.921875 44.046875 88.921875 33.015625 
L 88.921875 0 
L 79.890625 0 
L 79.890625 32.71875 
Q 79.890625 40.578125 77.09375 44.375 
Q 74.3125 48.1875 68.609375 48.1875 
Q 61.625 48.1875 57.5625 43.546875 
Q 53.515625 38.921875 53.515625 30.90625 
L 53.515625 0 
L 44.484375 0 
L 44.484375 32.71875 
Q 44.484375 40.625 41.703125 44.40625 
Q 38.921875 48.1875 33.109375 48.1875 
Q 26.21875 48.1875 22.15625 43.53125 
Q 18.109375 38.875 18.109375 30.90625 
L 18.109375 0 
L 9.078125 0 
L 9.078125 54.6875 
L 18.109375 54.6875 
L 18.109375 46.1875 
Q 21.1875 51.21875 25.484375 53.609375 
Q 29.78125 56 35.6875 56 
Q 41.65625 56 45.828125 52.96875 
Q 50 49.953125 52 44.1875 
z
" id="DejaVuSans-109"/>
       <path id="DejaVuSans-32"/>
       <path d="M 37.109375 75.984375 
L 37.109375 68.5 
L 28.515625 68.5 
Q 23.6875 68.5 21.796875 66.546875 
Q 19.921875 64.59375 19.921875 59.515625 
L 19.921875 54.6875 
L 34.71875 54.6875 
L 34.71875 47.703125 
L 19.921875 47.703125 
L 19.921875 0 
L 10.890625 0 
L 10.890625 47.703125 
L 2.296875 47.703125 
L 2.296875 54.6875 
L 10.890625 54.6875 
L 10.890625 58.5 
Q 10.890625 67.625 15.140625 71.796875 
Q 19.390625 75.984375 28.609375 75.984375 
z
" id="DejaVuSans-102"/>
       <path d="M 41.109375 46.296875 
Q 39.59375 47.171875 37.8125 47.578125 
Q 36.03125 48 33.890625 48 
Q 26.265625 48 22.1875 43.046875 
Q 18.109375 38.09375 18.109375 28.8125 
L 18.109375 0 
L 9.078125 0 
L 9.078125 54.6875 
L 18.109375 54.6875 
L 18.109375 46.1875 
Q 20.953125 51.171875 25.484375 53.578125 
Q 30.03125 56 36.53125 56 
Q 37.453125 56 38.578125 55.875 
Q 39.703125 55.765625 41.0625 55.515625 
z
" id="DejaVuSans-114"/>
       <path d="M 4.203125 54.6875 
L 13.1875 54.6875 
L 24.421875 12.015625 
L 35.59375 54.6875 
L 46.1875 54.6875 
L 57.421875 12.015625 
L 68.609375 54.6875 
L 77.59375 54.6875 
L 63.28125 0 
L 52.6875 0 
L 40.921875 44.828125 
L 29.109375 0 
L 18.5 0 
z
" id="DejaVuSans-119"/>
       <path d="M 34.28125 27.484375 
Q 23.390625 27.484375 19.1875 25 
Q 14.984375 22.515625 14.984375 16.5 
Q 14.984375 11.71875 18.140625 8.90625 
Q 21.296875 6.109375 26.703125 6.109375 
Q 34.1875 6.109375 38.703125 11.40625 
Q 43.21875 16.703125 43.21875 25.484375 
L 43.21875 27.484375 
z
M 52.203125 31.203125 
L 52.203125 0 
L 43.21875 0 
L 43.21875 8.296875 
Q 40.140625 3.328125 35.546875 0.953125 
Q 30.953125 -1.421875 24.3125 -1.421875 
Q 15.921875 -1.421875 10.953125 3.296875 
Q 6 8.015625 6 15.921875 
Q 6 25.140625 12.171875 29.828125 
Q 18.359375 34.515625 30.609375 34.515625 
L 43.21875 34.515625 
L 43.21875 35.40625 
Q 43.21875 41.609375 39.140625 45 
Q 35.0625 48.390625 27.6875 48.390625 
Q 23 48.390625 18.546875 47.265625 
Q 14.109375 46.140625 10.015625 43.890625 
L 10.015625 52.203125 
Q 14.9375 54.109375 19.578125 55.046875 
Q 24.21875 56 28.609375 56 
Q 40.484375 56 46.34375 49.84375 
Q 52.203125 43.703125 52.203125 31.203125 
z
" id="DejaVuSans-97"/>
       <path d="M 54.890625 33.015625 
L 54.890625 0 
L 45.90625 0 
L 45.90625 32.71875 
Q 45.90625 40.484375 42.875 44.328125 
Q 39.84375 48.1875 33.796875 48.1875 
Q 26.515625 48.1875 22.3125 43.546875 
Q 18.109375 38.921875 18.109375 30.90625 
L 18.109375 0 
L 9.078125 0 
L 9.078125 54.6875 
L 18.109375 54.6875 
L 18.109375 46.1875 
Q 21.34375 51.125 25.703125 53.5625 
Q 30.078125 56 35.796875 56 
Q 45.21875 56 50.046875 50.171875 
Q 54.890625 44.34375 54.890625 33.015625 
z
" id="DejaVuSans-110"/>
       <path d="M 45.40625 27.984375 
Q 45.40625 37.75 41.375 43.109375 
Q 37.359375 48.484375 30.078125 48.484375 
Q 22.859375 48.484375 18.828125 43.109375 
Q 14.796875 37.75 14.796875 27.984375 
Q 14.796875 18.265625 18.828125 12.890625 
Q 22.859375 7.515625 30.078125 7.515625 
Q 37.359375 7.515625 41.375 12.890625 
Q 45.40625 18.265625 45.40625 27.984375 
z
M 54.390625 6.78125 
Q 54.390625 -7.171875 48.1875 -13.984375 
Q 42 -20.796875 29.203125 -20.796875 
Q 24.46875 -20.796875 20.265625 -20.09375 
Q 16.0625 -19.390625 12.109375 -17.921875 
L 12.109375 -9.1875 
Q 16.0625 -11.328125 19.921875 -12.34375 
Q 23.78125 -13.375 27.78125 -13.375 
Q 36.625 -13.375 41.015625 -8.765625 
Q 45.40625 -4.15625 45.40625 5.171875 
L 45.40625 9.625 
Q 42.625 4.78125 38.28125 2.390625 
Q 33.9375 0 27.875 0 
Q 17.828125 0 11.671875 7.65625 
Q 5.515625 15.328125 5.515625 27.984375 
Q 5.515625 40.671875 11.671875 48.328125 
Q 17.828125 56 27.875 56 
Q 33.9375 56 38.28125 53.609375 
Q 42.625 51.21875 45.40625 46.390625 
L 45.40625 54.6875 
L 54.390625 54.6875 
z
" id="DejaVuSans-103"/>
      </defs>
      <use xlink:href="#DejaVuSans-83"/>
      <use x="63.476562" xlink:href="#DejaVuSans-117"/>
      <use x="126.855469" xlink:href="#DejaVuSans-109"/>
      <use x="224.267578" xlink:href="#DejaVuSans-32"/>
      <use x="256.054688" xlink:href="#DejaVuSans-111"/>
      <use x="317.236328" xlink:href="#DejaVuSans-102"/>
      <use x="352.441406" xlink:href="#DejaVuSans-32"/>
      <use x="384.228516" xlink:href="#DejaVuSans-114"/>
      <use x="423.091797" xlink:href="#DejaVuSans-101"/>
      <use x="484.615234" xlink:href="#DejaVuSans-119"/>
      <use x="566.402344" xlink:href="#DejaVuSans-97"/>
      <use x="627.681641" xlink:href="#DejaVuSans-114"/>
      <use x="667.044922" xlink:href="#DejaVuSans-100"/>
      <use x="730.521484" xlink:href="#DejaVuSans-115"/>
      <use x="782.621094" xlink:href="#DejaVuSans-32"/>
      <use x="814.408203" xlink:href="#DejaVuSans-100"/>
      <use x="877.884766" xlink:href="#DejaVuSans-117"/>
      <use x="941.263672" xlink:href="#DejaVuSans-114"/>
      <use x="982.376953" xlink:href="#DejaVuSans-105"/>
      <use x="1010.160156" xlink:href="#DejaVuSans-110"/>
      <use x="1073.539062" xlink:href="#DejaVuSans-103"/>
      <use x="1137.015625" xlink:href="#DejaVuSans-32"/>
      <use x="1168.802734" xlink:href="#DejaVuSans-101"/>
      <use x="1230.326172" xlink:href="#DejaVuSans-112"/>
      <use x="1293.802734" xlink:href="#DejaVuSans-105"/>
      <use x="1321.585938" xlink:href="#DejaVuSans-115"/>
      <use x="1373.685547" xlink:href="#DejaVuSans-111"/>
      <use x="1434.867188" xlink:href="#DejaVuSans-100"/>
      <use x="1498.34375" xlink:href="#DejaVuSans-101"/>
     </g>
    </g>
   </g>
   <g id="line2d_16">
    <path clip-path="url(#p34ce5c50a9)" d="M 78.687232 346.6 
L 79.03761 343.755274 
L 79.68822 333.806011 
L 80.33883 297.488376 
L 81.640051 263.362838 
L 82.290661 271.129982 
L 82.941272 258.799018 
L 83.591882 235.321286 
L 84.242492 237.583238 
L 84.893103 219.900096 
L 85.543713 212.229418 
L 86.194323 212.715072 
L 86.844934 190.438171 
L 87.495544 196.771637 
L 88.146154 196.678498 
L 88.796764 194.842325 
L 89.447375 177.757934 
L 90.097985 175.898477 
L 90.748595 164.38248 
L 91.399206 162.995371 
L 92.049816 156.911386 
L 92.700426 154.187064 
L 93.351037 172.582056 
L 94.001647 171.417816 
L 94.652257 136.251115 
L 95.302868 151.263158 
L 95.953478 149.41368 
L 96.604088 137.535106 
L 97.905309 146.273558 
L 98.555919 143.965037 
L 99.206529 146.599546 
L 99.85714 132.086462 
L 100.50775 142.574602 
L 101.15836 132.841555 
L 101.808971 125.054453 
L 102.459581 145.225742 
L 103.110191 129.009542 
L 103.760802 137.621592 
L 104.411412 134.767541 
L 105.062022 132.69852 
L 105.712633 122.898946 
L 106.363243 124.794994 
L 107.013853 121.624934 
L 107.664463 124.675243 
L 108.315074 138.107246 
L 108.965684 140.987909 
L 109.616294 145.861085 
L 110.266905 135.828662 
L 110.917515 138.93552 
L 111.568125 130.330123 
L 112.218736 140.791651 
L 112.869346 137.824502 
L 113.519956 149.250686 
L 114.170567 148.864824 
L 114.821177 144.184579 
L 115.471787 135.269827 
L 116.122398 143.29643 
L 116.773008 135.040306 
L 117.423618 141.413688 
L 118.074228 140.172941 
L 118.724839 132.146338 
L 119.375449 135.545918 
L 120.026059 141.872731 
L 120.67667 131.477731 
L 121.32728 141.413688 
L 121.97789 142.498094 
L 122.628501 144.663581 
L 123.279111 150.022411 
L 123.929721 137.575022 
L 124.580332 135.056938 
L 125.230942 133.283966 
L 125.881552 121.219114 
L 126.532163 138.513067 
L 127.182773 142.943832 
L 127.833383 129.91765 
L 128.483993 139.025333 
L 129.134604 153.658166 
L 129.785214 153.824486 
L 130.435824 142.47481 
L 131.086435 146.014099 
L 131.737045 139.347994 
L 132.387655 140.089781 
L 133.038266 125.945928 
L 133.688876 143.828654 
L 134.339486 157.513464 
L 134.990097 132.582096 
L 135.640707 131.973365 
L 136.291317 122.177117 
L 136.941927 136.65361 
L 137.592538 156.60203 
L 138.243148 142.471483 
L 138.893758 143.752147 
L 139.544369 134.251949 
L 140.194979 142.035725 
L 140.845589 141.054437 
L 141.4962 134.847374 
L 142.14681 135.981677 
L 142.79742 142.01244 
L 143.448031 142.318469 
L 144.098641 141.76296 
L 144.749251 138.749242 
L 145.399862 145.425326 
L 146.701082 138.107246 
L 147.351692 143.975016 
L 148.002303 135.961718 
L 148.652913 132.61536 
L 149.303523 143.802043 
L 149.954134 139.085208 
L 150.604744 137.857766 
L 151.255354 134.015774 
L 151.905965 135.828662 
L 152.556575 139.520966 
L 153.207185 141.626578 
L 153.857796 151.153387 
L 154.508406 141.653189 
L 155.159016 136.577102 
L 155.809627 146.260253 
L 156.460237 123.886886 
L 157.110847 146.87231 
L 157.761457 133.599974 
L 158.412068 149.872723 
L 159.062678 133.979184 
L 159.713288 151.170019 
L 160.363899 137.451946 
L 161.014509 144.547157 
L 161.665119 134.238643 
L 162.31573 138.922214 
L 162.96634 128.813285 
L 163.61695 133.89935 
L 164.267561 149.942578 
L 164.918171 141.117638 
L 165.568781 143.695598 
L 166.219392 138.622838 
L 166.870002 139.181674 
L 167.520612 148.675219 
L 168.171222 148.798296 
L 168.821833 152.051515 
L 169.472443 135.432821 
L 170.123053 133.490203 
L 170.773664 140.991235 
L 171.424274 140.116392 
L 172.074884 133.473571 
L 172.725495 144.354226 
L 173.376105 130.200394 
L 174.026715 140.755061 
L 174.677326 142.704331 
L 175.327936 135.389578 
L 175.978546 156.472301 
L 176.629156 136.530533 
L 177.279767 143.096846 
L 177.930377 140.63531 
L 178.580987 139.89685 
L 179.231598 149.716382 
L 179.882208 133.110994 
L 180.532818 153.964195 
L 181.183429 134.521387 
L 181.834039 139.900176 
L 182.484649 147.973349 
L 183.13526 132.612034 
L 183.78587 133.40039 
L 184.43648 157.047768 
L 185.087091 140.957971 
L 185.737701 143.133437 
L 186.388311 143.352979 
L 187.038921 123.05196 
L 187.689532 130.260269 
L 188.340142 144.537178 
L 188.990752 144.271066 
L 189.641363 135.831989 
L 190.291973 142.34508 
L 190.942583 142.421587 
L 191.593194 146.552976 
L 192.243804 155.963362 
L 192.894414 136.364213 
L 193.545025 145.17252 
L 194.195635 134.059018 
L 194.846245 128.128046 
L 195.496856 140.133024 
L 196.147466 131.005382 
L 196.798076 150.331766 
L 197.448686 139.26816 
L 198.099297 139.474397 
L 198.749907 137.039472 
L 199.400517 136.014941 
L 200.051128 132.352574 
L 200.701738 151.758792 
L 201.352348 138.080635 
L 202.002959 139.657349 
L 202.653569 143.605786 
L 203.304179 134.870659 
L 203.95479 141.543418 
L 204.6054 132.944674 
L 205.25601 138.296851 
L 205.906621 139.940093 
L 206.557231 147.271478 
L 207.207841 135.382925 
L 207.858451 144.098093 
L 209.159672 141.496848 
L 209.810282 135.183341 
L 210.460893 136.244462 
L 211.111503 139.703918 
L 211.762113 138.802464 
L 212.412724 138.759221 
L 213.063334 137.252362 
L 213.713944 139.487702 
L 214.364555 128.450707 
L 215.015165 136.231157 
L 215.665775 137.851114 
L 216.316385 149.490187 
L 216.966996 147.061915 
L 217.617606 148.758379 
L 218.268216 138.985416 
L 218.918827 144.287698 
L 219.569437 142.847366 
L 220.220047 133.057771 
L 220.870658 145.807862 
L 221.521268 129.32555 
L 222.171878 136.367539 
L 222.822489 127.931789 
L 223.473099 148.069814 
L 224.123709 128.444054 
L 224.77432 141.586661 
L 225.42493 135.333029 
L 226.07554 150.441538 
L 226.72615 127.665677 
L 227.376761 138.213691 
L 228.027371 146.33676 
L 228.677981 148.459003 
L 229.328592 134.903923 
L 229.979202 145.694765 
L 230.629812 134.644464 
L 231.280423 118.807474 
L 231.931033 129.841142 
L 232.581643 147.75048 
L 233.232254 146.187072 
L 233.882864 135.343008 
L 234.533474 146.885616 
L 235.184085 144.836554 
L 235.834695 137.781259 
L 236.485305 136.197893 
L 237.135915 135.82201 
L 237.786526 137.721384 
L 238.437136 153.900994 
L 239.087746 136.97627 
L 239.738357 143.718883 
L 240.388967 144.390816 
L 241.039577 150.275218 
L 241.690188 146.173766 
L 242.340798 139.414522 
L 242.991408 140.64529 
L 243.642019 159.34631 
L 244.943239 132.492283 
L 245.59385 124.532208 
L 246.24446 145.33884 
L 246.89507 136.593734 
L 247.54568 145.678133 
L 248.196291 129.308918 
L 248.846901 143.812022 
L 249.497511 142.085621 
L 250.148122 150.278544 
L 250.798732 146.240294 
L 251.449342 146.356718 
L 252.099953 140.143003 
L 252.750563 154.719288 
L 253.401173 140.189573 
L 254.051784 140.133024 
L 254.702394 145.535098 
L 255.353004 164.26273 
L 256.003615 138.413275 
L 256.654225 155.65068 
L 257.304835 136.380845 
L 257.955445 138.948826 
L 258.606056 142.484789 
L 259.907276 132.143011 
L 260.557887 151.40952 
L 261.208497 136.992902 
L 261.859107 150.867317 
L 262.509718 133.220765 
L 263.160328 139.391237 
L 263.810938 151.745486 
L 264.461549 138.183754 
L 265.112159 140.036558 
L 265.762769 147.607445 
L 266.413379 141.583334 
L 267.06399 151.27979 
L 267.7146 126.33179 
L 269.015821 145.20911 
L 269.666431 128.251123 
L 270.317041 156.422405 
L 270.967652 133.057771 
L 271.618262 144.234475 
L 272.268872 140.296018 
L 272.919483 144.916387 
L 273.570093 157.506811 
L 274.220703 151.489354 
L 275.521924 129.348835 
L 276.172534 147.943411 
L 276.823144 132.938021 
L 277.473755 147.161707 
L 278.124365 157.047768 
L 278.774975 151.479374 
L 279.425586 150.251933 
L 280.076196 133.666502 
L 280.726806 137.738016 
L 281.377417 128.128046 
L 282.028027 144.42408 
L 282.678637 130.878979 
L 283.329248 138.31681 
L 283.979858 143.196638 
L 284.630468 124.858195 
L 285.281079 130.662763 
L 285.931689 143.160048 
L 286.582299 126.235325 
L 287.232909 157.822819 
L 287.88352 129.488544 
L 288.53413 148.595386 
L 289.18474 147.647362 
L 289.835351 153.298915 
L 290.485961 127.888546 
L 291.136571 144.04487 
L 291.787182 149.546736 
L 292.437792 143.772106 
L 293.088402 150.059002 
L 293.739013 136.008288 
L 294.389623 144.577094 
L 295.040233 131.943427 
L 295.690844 149.147568 
L 296.992064 133.347168 
L 297.642674 136.334275 
L 298.293285 150.384989 
L 298.943895 134.644464 
L 300.245116 138.459845 
L 300.895726 130.722638 
L 301.546336 139.501008 
L 302.196947 139.597474 
L 302.847557 144.80329 
L 303.498167 144.181253 
L 304.148778 140.622005 
L 304.799388 140.502254 
L 305.449998 140.828242 
L 306.100608 136.563797 
L 306.751219 149.859418 
L 307.401829 136.121386 
L 308.052439 135.379598 
L 308.70305 136.693526 
L 309.35366 146.08728 
L 310.00427 142.082294 
L 310.654881 134.39831 
L 311.305491 128.66027 
L 311.956101 145.13593 
L 312.606712 144.334267 
L 313.257322 155.058581 
L 313.907932 125.889379 
L 314.558543 136.2744 
L 315.209153 134.44488 
L 315.859763 137.72471 
L 316.510373 137.465251 
L 317.160984 128.191248 
L 317.811594 162.01741 
L 319.112815 135.725544 
L 319.763425 144.364205 
L 320.414035 147.477715 
L 321.064646 139.497682 
L 321.715256 132.997896 
L 322.365866 134.44488 
L 323.016477 145.618258 
L 323.667087 147.96337 
L 324.317697 147.610771 
L 324.968308 156.286022 
L 325.618918 148.029898 
L 326.269528 130.00081 
L 326.920138 143.026992 
L 327.570749 137.787912 
L 328.221359 144.447365 
L 328.871969 131.574197 
L 329.52258 145.684786 
L 330.17319 133.460266 
L 330.8238 147.993307 
L 331.474411 130.363387 
L 332.125021 136.952986 
L 332.775631 137.222424 
L 333.426242 131.960059 
L 334.076852 135.020347 
L 334.727462 138.795811 
L 335.378073 130.539686 
L 336.028683 142.96379 
L 336.679293 139.936766 
L 337.329903 150.072307 
L 337.980514 140.226163 
L 338.631124 139.863586 
L 339.281734 142.857346 
L 339.932345 129.804552 
L 340.582955 137.957558 
L 341.233565 135.772114 
L 341.884176 125.0478 
L 342.534786 139.900176 
L 343.185396 126.478152 
L 343.836007 148.189565 
L 344.486617 143.87855 
L 345.137227 156.801614 
L 345.787837 141.270653 
L 346.438448 145.062749 
L 347.089058 149.925946 
L 347.739668 136.750075 
L 348.390279 145.0062 
L 349.040889 146.988734 
L 349.691499 153.611597 
L 350.34211 133.200806 
L 350.99272 133.972531 
L 351.64333 153.77459 
L 352.293941 129.468586 
L 352.944551 162.107222 
L 353.595161 136.507248 
L 354.245772 148.325947 
L 354.896382 149.134262 
L 355.546992 117.769637 
L 356.197602 142.118885 
L 356.848213 134.754235 
L 357.498823 144.5904 
L 358.149433 132.558811 
L 358.800044 147.188318 
L 359.450654 147.208277 
L 360.101264 144.570442 
L 360.751875 148.738421 
L 361.402485 133.3638 
L 362.053095 133.250702 
L 362.703706 135.143424 
L 363.354316 149.227402 
L 364.004926 158.175418 
L 364.655537 150.943824 
L 365.306147 134.368373 
L 365.956757 146.107238 
L 366.607367 139.308077 
L 367.257978 134.182094 
L 367.908588 154.60619 
L 368.559198 140.365872 
L 369.209809 147.308069 
L 369.860419 133.500182 
L 370.511029 145.485202 
L 371.16164 143.589154 
L 371.81225 150.997046 
L 372.46286 128.354242 
L 373.113471 139.175021 
L 373.764081 130.755902 
L 374.414691 137.5218 
L 375.065302 143.000381 
L 375.715912 130.686048 
L 376.366522 147.693931 
L 377.017132 139.853606 
L 377.667743 148.365864 
L 378.318353 136.540512 
L 378.968963 141.806203 
L 379.619574 149.909314 
L 380.270184 130.686048 
L 380.920794 138.323462 
L 381.571405 131.787086 
L 382.222015 139.128451 
L 382.872625 134.807458 
L 383.523236 137.907662 
L 384.173846 141.693106 
L 384.824456 161.295581 
L 385.475066 143.582501 
L 386.125677 136.640304 
L 386.776287 142.358386 
L 387.426897 140.878138 
L 388.077508 143.409528 
L 388.728118 146.459837 
L 389.378728 139.604126 
L 390.029339 142.501421 
L 390.679949 141.939259 
L 391.98117 133.357147 
L 393.28239 151.715549 
L 393.933001 125.812872 
L 394.583611 136.058184 
L 395.234221 155.620742 
L 395.884831 143.602459 
L 396.535442 149.360458 
L 397.186052 148.099752 
L 397.836662 144.789984 
L 398.487273 140.049864 
L 398.487273 140.049864 
" style="fill:none;stroke:#1f77b4;stroke-linecap:square;stroke-width:1.5;"/>
   </g>
   <g id="line2d_17">
    <path clip-path="url(#p34ce5c50a9)" d="M 78.609907 346.6 
L 79.03761 326.381486 
L 79.68822 325.376914 
L 80.33883 291.254702 
L 80.989441 263.512526 
L 81.640051 273.092558 
L 82.290661 259.125005 
L 82.941272 242.55288 
L 83.591882 237.573259 
L 84.242492 214.73087 
L 84.893103 211.604054 
L 85.543713 210.506342 
L 86.194323 187.683912 
L 86.844934 180.179554 
L 87.495544 185.731315 
L 88.146154 181.666454 
L 88.796764 174.9438 
L 89.447375 158.591218 
L 90.097985 164.681856 
L 90.748595 165.413664 
L 91.399206 149.869397 
L 92.700426 140.758387 
L 94.001647 137.871072 
L 94.652257 137.654856 
L 95.302868 141.666494 
L 95.953478 128.128046 
L 96.604088 128.57711 
L 97.254698 124.315992 
L 97.905309 124.522229 
L 98.555919 126.597902 
L 99.85714 113.95093 
L 100.50775 103.246574 
L 101.15836 115.727227 
L 101.808971 113.162573 
L 102.459581 113.684818 
L 103.110191 112.181285 
L 103.760802 103.050317 
L 104.411412 102.607906 
L 105.062022 98.922254 
L 105.712633 99.960091 
L 106.363243 93.679848 
L 107.013853 97.904376 
L 107.664463 98.466538 
L 108.315074 95.871946 
L 108.965684 90.829123 
L 109.616294 97.219138 
L 110.266905 95.44284 
L 110.917515 88.547213 
L 111.568125 95.106874 
L 112.218736 83.893579 
L 112.869346 100.322669 
L 113.519956 89.292326 
L 114.170567 84.615408 
L 114.821177 87.100229 
L 115.471787 90.137232 
L 116.122398 94.77756 
L 116.773008 91.018728 
L 117.423618 85.270709 
L 118.074228 90.273614 
L 118.724839 90.067378 
L 119.375449 85.017902 
L 120.026059 89.082763 
L 120.67667 84.515616 
L 121.32728 75.065314 
L 121.97789 94.434941 
L 122.628501 77.955955 
L 123.279111 78.168845 
L 123.929721 87.539314 
L 124.580332 86.232038 
L 125.230942 91.191701 
L 125.881552 83.244931 
L 126.532163 82.855742 
L 127.182773 86.514782 
L 127.833383 93.250742 
L 128.483993 79.985059 
L 129.134604 83.002104 
L 129.785214 82.223726 
L 130.435824 78.697742 
L 131.086435 81.10273 
L 131.737045 77.400446 
L 132.387655 76.06656 
L 133.038266 76.894834 
L 133.688876 79.482773 
L 134.339486 78.820819 
L 135.640707 86.102309 
L 136.291317 83.554286 
L 136.941927 75.707309 
L 137.592538 75.966768 
L 138.243148 74.227061 
L 138.893758 76.795042 
L 139.544369 70.178832 
L 140.194979 76.119782 
L 140.845589 77.486933 
L 141.4962 71.549309 
L 142.14681 74.885688 
L 142.79742 72.101491 
L 143.448031 72.257832 
L 144.098641 66.203784 
L 144.749251 70.095672 
L 145.399862 72.670306 
L 146.050472 71.775504 
L 146.701082 74.795875 
L 147.351692 81.046181 
L 148.002303 74.157206 
L 148.652913 76.355957 
L 149.303523 71.426232 
L 149.954134 69.58008 
L 150.604744 66.782578 
L 151.255354 72.434131 
L 151.905965 70.897334 
L 152.556575 65.605032 
L 153.207185 68.199624 
L 153.857796 77.264064 
L 154.508406 71.286523 
L 155.159016 70.098998 
L 155.809627 76.691923 
L 156.460237 70.727688 
L 157.110847 71.489434 
L 157.761457 67.71397 
L 158.412068 74.326853 
L 159.062678 73.658246 
L 159.713288 65.831227 
L 160.363899 68.871557 
L 161.014509 68.552222 
L 161.665119 69.463656 
L 162.31573 65.847859 
L 162.96634 73.744733 
L 163.61695 76.129762 
L 164.267561 66.410021 
L 164.918171 68.542243 
L 166.219392 71.263238 
L 166.870002 75.723941 
L 167.520612 73.884442 
L 168.171222 72.533923 
L 168.821833 72.800035 
L 169.472443 74.017498 
L 170.123053 74.466562 
L 170.773664 72.247853 
L 171.424274 72.800035 
L 172.074884 69.476962 
L 172.725495 73.415419 
L 173.376105 68.402534 
L 174.026715 70.185485 
L 174.677326 78.298574 
L 175.327936 74.965522 
L 175.978546 74.133922 
L 176.629156 72.494006 
L 177.279767 65.571768 
L 177.930377 68.508979 
L 178.580987 65.325614 
L 179.231598 66.75264 
L 179.882208 70.248686 
L 180.532818 64.790064 
L 181.183429 73.927685 
L 181.834039 68.808355 
L 182.484649 67.743907 
L 183.13526 69.546816 
L 183.78587 62.747654 
L 184.43648 71.170099 
L 185.087091 67.338086 
L 185.737701 62.827488 
L 186.388311 64.034971 
L 187.038921 69.91272 
L 187.689532 59.427907 
L 188.340142 70.87405 
L 188.990752 68.189645 
L 189.641363 73.076126 
L 190.291973 74.010845 
L 190.942583 68.525611 
L 191.593194 70.647854 
L 192.243804 70.035797 
L 192.894414 65.678213 
L 193.545025 68.924779 
L 194.195635 66.393389 
L 195.496856 71.166773 
L 196.147466 66.602952 
L 196.798076 68.648688 
L 197.448686 68.276131 
L 198.099297 75.990053 
L 198.749907 62.970523 
L 199.400517 62.395056 
L 200.051128 71.855338 
L 200.701738 64.796717 
L 201.352348 67.753886 
L 202.002959 63.998381 
L 202.653569 64.427486 
L 203.304179 71.136835 
L 203.95479 67.022078 
L 204.6054 70.674466 
L 205.25601 66.330187 
L 205.906621 72.57384 
L 206.557231 65.954304 
L 207.207841 65.215843 
L 207.858451 67.035384 
L 208.509062 62.967197 
L 209.159672 68.70191 
L 209.810282 65.032891 
L 210.460893 66.699418 
L 211.111503 71.858664 
L 211.762113 64.25784 
L 212.412724 78.414998 
L 213.063334 75.171758 
L 213.713944 75.860323 
L 214.364555 63.715637 
L 215.015165 61.277386 
L 215.665775 60.212938 
L 216.316385 71.346398 
L 216.966996 66.463243 
L 217.617606 67.973429 
L 218.268216 69.776338 
L 218.918827 73.734754 
L 219.569437 74.546395 
L 220.220047 69.004613 
L 220.870658 67.976755 
L 221.521268 61.420421 
L 222.822489 65.927693 
L 223.473099 67.567608 
L 224.123709 75.637454 
L 224.77432 67.45451 
L 225.42493 65.940998 
L 226.07554 61.313976 
L 226.72615 67.87031 
L 227.376761 69.573427 
L 228.027371 69.264072 
L 228.677981 73.44203 
L 229.328592 67.570934 
L 229.979202 72.101491 
L 230.629812 66.63289 
L 231.280423 67.397962 
L 231.931033 72.523944 
L 232.581643 72.760118 
L 233.232254 75.504398 
L 233.882864 67.926859 
L 234.533474 68.661994 
L 235.184085 72.048269 
L 235.834695 71.462822 
L 236.485305 77.333918 
L 237.135915 69.357211 
L 237.786526 73.664899 
L 238.437136 69.763032 
L 239.087746 73.911053 
L 239.738357 67.035384 
L 240.388967 71.419579 
L 241.039577 70.760952 
L 241.690188 67.481122 
L 242.340798 69.636629 
L 242.991408 67.115218 
L 243.642019 72.90648 
L 244.292629 65.072808 
L 244.943239 64.766779 
L 245.59385 63.861998 
L 246.24446 69.759706 
L 246.89507 57.229157 
L 247.54568 66.616258 
L 248.196291 67.33476 
L 248.846901 64.943078 
L 249.497511 63.858672 
L 250.148122 64.414181 
L 250.798732 65.581747 
L 251.449342 65.295677 
L 252.099953 63.406282 
L 252.750563 66.127277 
L 253.401173 76.169678 
L 254.051784 67.980082 
L 254.702394 62.158882 
L 255.353004 65.817922 
L 256.003615 59.537678 
L 256.654225 69.566774 
L 257.304835 66.978835 
L 257.955445 76.888181 
L 258.606056 63.72229 
L 259.256666 69.806275 
L 259.907276 68.076547 
L 260.557887 63.768859 
L 261.208497 67.21501 
L 261.859107 61.570109 
L 262.509718 63.798797 
L 263.160328 64.447445 
L 263.810938 69.447024 
L 264.461549 65.325614 
L 265.112159 59.580922 
L 266.413379 75.221654 
L 267.06399 64.164701 
L 267.7146 67.883616 
L 268.36521 61.646616 
L 269.015821 71.632469 
L 269.666431 68.192971 
L 270.317041 61.157635 
L 270.967652 64.287778 
L 271.618262 65.525198 
L 272.268872 62.990482 
L 272.919483 63.75888 
L 273.570093 64.071562 
L 274.220703 67.860331 
L 274.871314 61.806283 
L 275.521924 66.443285 
L 276.172534 68.931432 
L 276.823144 61.972603 
L 277.473755 58.799218 
L 278.124365 66.855758 
L 278.774975 64.929773 
L 279.425586 63.419587 
L 280.076196 69.014592 
L 280.726806 67.873637 
L 281.377417 67.358045 
L 282.028027 67.570934 
L 282.678637 63.901915 
L 283.329248 67.920206 
L 283.979858 62.96387 
L 284.630468 65.954304 
L 285.281079 75.560947 
L 286.582299 65.54183 
L 287.232909 69.177586 
L 287.88352 63.13019 
L 288.53413 64.746821 
L 289.18474 63.63913 
L 289.835351 66.899002 
L 290.485961 60.425827 
L 291.136571 62.009194 
L 291.787182 63.246614 
L 292.437792 62.6778 
L 293.088402 61.064496 
L 294.389623 71.728934 
L 295.040233 72.640368 
L 295.690844 63.935179 
L 296.341454 58.669488 
L 296.992064 65.478629 
L 297.642674 65.415427 
L 298.293285 57.478637 
L 299.594505 63.9252 
L 300.245116 63.01044 
L 300.895726 66.54973 
L 301.546336 72.53725 
L 302.196947 71.911886 
L 302.847557 64.557216 
L 303.498167 64.633723 
L 304.148778 61.39381 
L 304.799388 61.064496 
L 305.449998 62.311896 
L 306.100608 59.211691 
L 306.751219 64.523952 
L 307.401829 68.329354 
L 308.052439 65.571768 
L 308.70305 67.853678 
L 309.35366 71.419579 
L 310.00427 65.927693 
L 310.654881 58.682794 
L 311.305491 64.254514 
L 311.956101 64.520626 
L 312.606712 68.256173 
L 313.257322 64.38757 
L 313.907932 61.586741 
L 314.558543 62.89069 
L 315.209153 62.937259 
L 315.859763 68.395882 
L 316.510373 62.035805 
L 317.160984 63.97177 
L 317.811594 59.660755 
L 318.462204 61.38383 
L 319.112815 61.297344 
L 319.763425 57.678221 
L 320.414035 65.901082 
L 321.064646 62.611272 
L 321.715256 57.871152 
L 322.365866 57.581755 
L 323.016477 59.697346 
L 323.667087 65.402122 
L 324.317697 67.41792 
L 324.968308 74.48652 
L 325.618918 69.224155 
L 326.269528 61.037885 
L 326.920138 69.174259 
L 327.570749 66.712723 
L 328.221359 62.371771 
L 328.871969 60.485702 
L 329.52258 64.657008 
L 330.17319 64.13809 
L 330.8238 61.982582 
L 331.474411 61.05119 
L 332.125021 66.952224 
L 332.775631 65.528525 
L 333.426242 62.305243 
L 334.076852 64.114805 
L 334.727462 60.176347 
L 335.378073 63.432893 
L 336.028683 64.22125 
L 336.679293 65.322288 
L 337.329903 64.207944 
L 337.980514 66.413347 
L 338.631124 66.436632 
L 339.281734 60.798384 
L 340.582955 68.775091 
L 341.233565 64.447445 
L 341.884176 66.047443 
L 342.534786 66.443285 
L 343.185396 72.098165 
L 343.836007 60.928114 
L 344.486617 67.434552 
L 345.137227 64.810022 
L 345.787837 60.362626 
L 346.438448 65.891102 
L 347.089058 63.778838 
L 347.739668 61.117718 
L 348.390279 61.842874 
L 349.040889 66.157214 
L 349.691499 58.197139 
L 350.34211 59.391317 
L 350.99272 69.706483 
L 351.64333 67.378003 
L 352.293941 67.437878 
L 352.944551 65.535178 
L 353.595161 65.917714 
L 354.245772 72.015005 
L 354.896382 70.232054 
L 355.546992 63.775512 
L 356.197602 65.531851 
L 356.848213 60.761794 
L 357.498823 65.132683 
L 358.149433 62.63123 
L 358.800044 66.646195 
L 359.450654 65.5884 
L 360.101264 69.111058 
L 360.751875 63.399629 
L 361.402485 65.046197 
L 362.053095 64.580501 
L 362.703706 65.807942 
L 363.354316 72.414173 
L 364.004926 63.858672 
L 364.655537 68.289437 
L 365.306147 71.748893 
L 365.956757 66.71605 
L 366.607367 56.467411 
L 367.257978 63.233309 
L 367.908588 62.59464 
L 368.559198 65.901082 
L 369.209809 71.439538 
L 370.511029 63.715637 
L 371.16164 62.814182 
L 371.81225 59.817096 
L 372.46286 64.83996 
L 373.113471 62.591314 
L 373.764081 63.21335 
L 374.414691 55.592568 
L 375.065302 67.171766 
L 375.715912 61.290691 
L 376.366522 60.655349 
L 377.017132 60.489029 
L 377.667743 59.740589 
L 378.318353 60.419174 
L 378.968963 74.170512 
L 379.619574 62.401709 
L 380.270184 75.195043 
L 380.920794 65.678213 
L 381.571405 67.644115 
L 382.222015 61.89277 
L 382.872625 63.768859 
L 383.523236 63.150149 
L 384.173846 63.579254 
L 384.824456 60.09984 
L 385.475066 60.442459 
L 386.125677 62.64121 
L 386.776287 70.840786 
L 387.426897 63.565949 
L 388.077508 61.952645 
L 388.728118 61.945992 
L 389.378728 58.004208 
L 390.029339 63.96179 
L 390.679949 60.143083 
L 391.330559 70.674466 
L 391.98117 58.915642 
L 392.63178 60.908155 
L 393.28239 73.721448 
L 393.933001 59.348074 
L 394.583611 61.530192 
L 395.234221 65.149315 
L 395.884831 65.591726 
L 396.535442 64.650355 
L 397.186052 59.165122 
L 397.836662 60.036638 
L 398.487273 59.447866 
L 398.487273 59.447866 
" style="fill:none;stroke:#ff7f0e;stroke-linecap:square;stroke-width:1.5;"/>
   </g>
   <g id="patch_3">
    <path d="M 57.6 307.584 
L 57.6 41.472 
" style="fill:none;stroke:#000000;stroke-linecap:square;stroke-linejoin:miter;stroke-width:0.8;"/>
   </g>
   <g id="patch_4">
    <path d="M 414.72 307.584 
L 414.72 41.472 
" style="fill:none;stroke:#000000;stroke-linecap:square;stroke-linejoin:miter;stroke-width:0.8;"/>
   </g>
   <g id="patch_5">
    <path d="M 57.6 307.584 
L 414.72 307.584 
" style="fill:none;stroke:#000000;stroke-linecap:square;stroke-linejoin:miter;stroke-width:0.8;"/>
   </g>
   <g id="patch_6">
    <path d="M 57.6 41.472 
L 414.72 41.472 
" style="fill:none;stroke:#000000;stroke-linecap:square;stroke-linejoin:miter;stroke-width:0.8;"/>
   </g>
   <g id="legend_1">
    <g id="patch_7">
     <path d="M 323.168438 302.584 
L 407.72 302.584 
Q 409.72 302.584 409.72 300.584 
L 409.72 272.22775 
Q 409.72 270.22775 407.72 270.22775 
L 323.168438 270.22775 
Q 321.168438 270.22775 321.168438 272.22775 
L 321.168438 300.584 
Q 321.168438 302.584 323.168438 302.584 
z
" style="fill:#ffffff;opacity:0.8;stroke:#cccccc;stroke-linejoin:miter;"/>
    </g>
    <g id="line2d_18">
     <path d="M 325.168438 278.326187 
L 345.168438 278.326187 
" style="fill:none;stroke:#1f77b4;stroke-linecap:square;stroke-width:1.5;"/>
    </g>
    <g id="line2d_19"/>
    <g id="text_18">
     <!-- Q-learning -->
     <g transform="translate(353.168438 281.826187)scale(0.1 -0.1)">
      <defs>
       <path d="M 39.40625 66.21875 
Q 28.65625 66.21875 22.328125 58.203125 
Q 16.015625 50.203125 16.015625 36.375 
Q 16.015625 22.609375 22.328125 14.59375 
Q 28.65625 6.59375 39.40625 6.59375 
Q 50.140625 6.59375 56.421875 14.59375 
Q 62.703125 22.609375 62.703125 36.375 
Q 62.703125 50.203125 56.421875 58.203125 
Q 50.140625 66.21875 39.40625 66.21875 
z
M 53.21875 1.3125 
L 66.21875 -12.890625 
L 54.296875 -12.890625 
L 43.5 -1.21875 
Q 41.890625 -1.3125 41.03125 -1.359375 
Q 40.1875 -1.421875 39.40625 -1.421875 
Q 24.03125 -1.421875 14.8125 8.859375 
Q 5.609375 19.140625 5.609375 36.375 
Q 5.609375 53.65625 14.8125 63.9375 
Q 24.03125 74.21875 39.40625 74.21875 
Q 54.734375 74.21875 63.90625 63.9375 
Q 73.09375 53.65625 73.09375 36.375 
Q 73.09375 23.6875 67.984375 14.640625 
Q 62.890625 5.609375 53.21875 1.3125 
z
" id="DejaVuSans-81"/>
       <path d="M 4.890625 31.390625 
L 31.203125 31.390625 
L 31.203125 23.390625 
L 4.890625 23.390625 
z
" id="DejaVuSans-45"/>
       <path d="M 9.421875 75.984375 
L 18.40625 75.984375 
L 18.40625 0 
L 9.421875 0 
z
" id="DejaVuSans-108"/>
      </defs>
      <use xlink:href="#DejaVuSans-81"/>
      <use x="81.460938" xlink:href="#DejaVuSans-45"/>
      <use x="117.544922" xlink:href="#DejaVuSans-108"/>
      <use x="145.328125" xlink:href="#DejaVuSans-101"/>
      <use x="206.851562" xlink:href="#DejaVuSans-97"/>
      <use x="268.130859" xlink:href="#DejaVuSans-114"/>
      <use x="307.494141" xlink:href="#DejaVuSans-110"/>
      <use x="370.873047" xlink:href="#DejaVuSans-105"/>
      <use x="398.65625" xlink:href="#DejaVuSans-110"/>
      <use x="462.035156" xlink:href="#DejaVuSans-103"/>
     </g>
    </g>
    <g id="line2d_20">
     <path d="M 325.168438 293.004312 
L 345.168438 293.004312 
" style="fill:none;stroke:#ff7f0e;stroke-linecap:square;stroke-width:1.5;"/>
    </g>
    <g id="line2d_21"/>
    <g id="text_19">
     <!-- Sarsa -->
     <g transform="translate(353.168438 296.504312)scale(0.1 -0.1)">
      <use xlink:href="#DejaVuSans-83"/>
      <use x="63.476562" xlink:href="#DejaVuSans-97"/>
      <use x="124.755859" xlink:href="#DejaVuSans-114"/>
      <use x="165.869141" xlink:href="#DejaVuSans-115"/>
      <use x="217.96875" xlink:href="#DejaVuSans-97"/>
     </g>
    </g>
   </g>
  </g>
 </g>
 <defs>
  <clipPath id="p34ce5c50a9">
   <rect height="266.112" width="357.12" x="57.6" y="41.472"/>
  </clipPath>
 </defs>
</svg>
