<?xml version="1.0" encoding="utf-8" standalone="no"?>
<!DOCTYPE svg PUBLIC "-//W3C//DTD SVG 1.1//EN"
  "http://www.w3.org/Graphics/SVG/1.1/DTD/svg11.dtd">
<!-- Created with matplotlib (https://matplotlib.org/) -->
<svg height="345.6pt" version="1.1" viewBox="0 0 460.8 345.6" width="460.8pt" xmlns="http://www.w3.org/2000/svg" xmlns:xlink="http://www.w3.org/1999/xlink">
 <metadata>
  <rdf:RDF xmlns:cc="http://creativecommons.org/ns#" xmlns:dc="http://purl.org/dc/elements/1.1/" xmlns:rdf="http://www.w3.org/1999/02/22-rdf-syntax-ns#">
   <cc:Work>
    <dc:type rdf:resource="http://purl.org/dc/dcmitype/StillImage"/>
    <dc:date>2021-08-07T14:45:18.684580</dc:date>
    <dc:format>image/svg+xml</dc:format>
    <dc:creator>
     <cc:Agent>
      <dc:title>Matplotlib v3.3.4, https://matplotlib.org/</dc:title>
     </cc:Agent>
    </dc:creator>
   </cc:Work>
  </rdf:RDF>
 </metadata>
 <defs>
  <style type="text/css">*{stroke-linecap:butt;stroke-linejoin:round;}</style>
 </defs>
 <g id="figure_1">
  <g id="patch_1">
   <path d="M 0 345.6 
L 460.8 345.6 
L 460.8 0 
L 0 0 
z
" style="fill:#ffffff;"/>
  </g>
  <g id="axes_1">
   <g id="patch_2">
    <path d="M 57.6 307.584 
L 414.72 307.584 
L 414.72 41.472 
L 57.6 41.472 
z
" style="fill:#ffffff;"/>
   </g>
   <g id="matplotlib.axis_1">
    <g id="xtick_1">
     <g id="line2d_1">
      <defs>
       <path d="M 0 0 
L 0 3.5 
" id="m268eb927c7" style="stroke:#000000;stroke-width:0.8;"/>
      </defs>
      <g>
       <use style="stroke:#000000;stroke-width:0.8;" x="73.792181" xlink:href="#m268eb927c7" y="307.584"/>
      </g>
     </g>
     <g id="text_1">
      <!-- 0 -->
      <g transform="translate(70.610931 322.182437)scale(0.1 -0.1)">
       <defs>
        <path d="M 31.78125 66.40625 
Q 24.171875 66.40625 20.328125 58.90625 
Q 16.5 51.421875 16.5 36.375 
Q 16.5 21.390625 20.328125 13.890625 
Q 24.171875 6.390625 31.78125 6.390625 
Q 39.453125 6.390625 43.28125 13.890625 
Q 47.125 21.390625 47.125 36.375 
Q 47.125 51.421875 43.28125 58.90625 
Q 39.453125 66.40625 31.78125 66.40625 
z
M 31.78125 74.21875 
Q 44.046875 74.21875 50.515625 64.515625 
Q 56.984375 54.828125 56.984375 36.375 
Q 56.984375 17.96875 50.515625 8.265625 
Q 44.046875 -1.421875 31.78125 -1.421875 
Q 19.53125 -1.421875 13.0625 8.265625 
Q 6.59375 17.96875 6.59375 36.375 
Q 6.59375 54.828125 13.0625 64.515625 
Q 19.53125 74.21875 31.78125 74.21875 
z
" id="DejaVuSans-48"/>
       </defs>
       <use xlink:href="#DejaVuSans-48"/>
      </g>
     </g>
    </g>
    <g id="xtick_2">
     <g id="line2d_2">
      <g>
       <use style="stroke:#000000;stroke-width:0.8;" x="114.338521" xlink:href="#m268eb927c7" y="307.584"/>
      </g>
     </g>
     <g id="text_2">
      <!-- 1000 -->
      <g transform="translate(101.613521 322.182437)scale(0.1 -0.1)">
       <defs>
        <path d="M 12.40625 8.296875 
L 28.515625 8.296875 
L 28.515625 63.921875 
L 10.984375 60.40625 
L 10.984375 69.390625 
L 28.421875 72.90625 
L 38.28125 72.90625 
L 38.28125 8.296875 
L 54.390625 8.296875 
L 54.390625 0 
L 12.40625 0 
z
" id="DejaVuSans-49"/>
       </defs>
       <use xlink:href="#DejaVuSans-49"/>
       <use x="63.623047" xlink:href="#DejaVuSans-48"/>
       <use x="127.246094" xlink:href="#DejaVuSans-48"/>
       <use x="190.869141" xlink:href="#DejaVuSans-48"/>
      </g>
     </g>
    </g>
    <g id="xtick_3">
     <g id="line2d_3">
      <g>
       <use style="stroke:#000000;stroke-width:0.8;" x="154.884861" xlink:href="#m268eb927c7" y="307.584"/>
      </g>
     </g>
     <g id="text_3">
      <!-- 2000 -->
      <g transform="translate(142.159861 322.182437)scale(0.1 -0.1)">
       <defs>
        <path d="M 19.1875 8.296875 
L 53.609375 8.296875 
L 53.609375 0 
L 7.328125 0 
L 7.328125 8.296875 
Q 12.9375 14.109375 22.625 23.890625 
Q 32.328125 33.6875 34.8125 36.53125 
Q 39.546875 41.84375 41.421875 45.53125 
Q 43.3125 49.21875 43.3125 52.78125 
Q 43.3125 58.59375 39.234375 62.25 
Q 35.15625 65.921875 28.609375 65.921875 
Q 23.96875 65.921875 18.8125 64.3125 
Q 13.671875 62.703125 7.8125 59.421875 
L 7.8125 69.390625 
Q 13.765625 71.78125 18.9375 73 
Q 24.125 74.21875 28.421875 74.21875 
Q 39.75 74.21875 46.484375 68.546875 
Q 53.21875 62.890625 53.21875 53.421875 
Q 53.21875 48.921875 51.53125 44.890625 
Q 49.859375 40.875 45.40625 35.40625 
Q 44.1875 33.984375 37.640625 27.21875 
Q 31.109375 20.453125 19.1875 8.296875 
z
" id="DejaVuSans-50"/>
       </defs>
       <use xlink:href="#DejaVuSans-50"/>
       <use x="63.623047" xlink:href="#DejaVuSans-48"/>
       <use x="127.246094" xlink:href="#DejaVuSans-48"/>
       <use x="190.869141" xlink:href="#DejaVuSans-48"/>
      </g>
     </g>
    </g>
    <g id="xtick_4">
     <g id="line2d_4">
      <g>
       <use style="stroke:#000000;stroke-width:0.8;" x="195.431201" xlink:href="#m268eb927c7" y="307.584"/>
      </g>
     </g>
     <g id="text_4">
      <!-- 3000 -->
      <g transform="translate(182.706201 322.182437)scale(0.1 -0.1)">
       <defs>
        <path d="M 40.578125 39.3125 
Q 47.65625 37.796875 51.625 33 
Q 55.609375 28.21875 55.609375 21.1875 
Q 55.609375 10.40625 48.1875 4.484375 
Q 40.765625 -1.421875 27.09375 -1.421875 
Q 22.515625 -1.421875 17.65625 -0.515625 
Q 12.796875 0.390625 7.625 2.203125 
L 7.625 11.71875 
Q 11.71875 9.328125 16.59375 8.109375 
Q 21.484375 6.890625 26.8125 6.890625 
Q 36.078125 6.890625 40.9375 10.546875 
Q 45.796875 14.203125 45.796875 21.1875 
Q 45.796875 27.640625 41.28125 31.265625 
Q 36.765625 34.90625 28.71875 34.90625 
L 20.21875 34.90625 
L 20.21875 43.015625 
L 29.109375 43.015625 
Q 36.375 43.015625 40.234375 45.921875 
Q 44.09375 48.828125 44.09375 54.296875 
Q 44.09375 59.90625 40.109375 62.90625 
Q 36.140625 65.921875 28.71875 65.921875 
Q 24.65625 65.921875 20.015625 65.03125 
Q 15.375 64.15625 9.8125 62.3125 
L 9.8125 71.09375 
Q 15.4375 72.65625 20.34375 73.4375 
Q 25.25 74.21875 29.59375 74.21875 
Q 40.828125 74.21875 47.359375 69.109375 
Q 53.90625 64.015625 53.90625 55.328125 
Q 53.90625 49.265625 50.4375 45.09375 
Q 46.96875 40.921875 40.578125 39.3125 
z
" id="DejaVuSans-51"/>
       </defs>
       <use xlink:href="#DejaVuSans-51"/>
       <use x="63.623047" xlink:href="#DejaVuSans-48"/>
       <use x="127.246094" xlink:href="#DejaVuSans-48"/>
       <use x="190.869141" xlink:href="#DejaVuSans-48"/>
      </g>
     </g>
    </g>
    <g id="xtick_5">
     <g id="line2d_5">
      <g>
       <use style="stroke:#000000;stroke-width:0.8;" x="235.977541" xlink:href="#m268eb927c7" y="307.584"/>
      </g>
     </g>
     <g id="text_5">
      <!-- 4000 -->
      <g transform="translate(223.252541 322.182437)scale(0.1 -0.1)">
       <defs>
        <path d="M 37.796875 64.3125 
L 12.890625 25.390625 
L 37.796875 25.390625 
z
M 35.203125 72.90625 
L 47.609375 72.90625 
L 47.609375 25.390625 
L 58.015625 25.390625 
L 58.015625 17.1875 
L 47.609375 17.1875 
L 47.609375 0 
L 37.796875 0 
L 37.796875 17.1875 
L 4.890625 17.1875 
L 4.890625 26.703125 
z
" id="DejaVuSans-52"/>
       </defs>
       <use xlink:href="#DejaVuSans-52"/>
       <use x="63.623047" xlink:href="#DejaVuSans-48"/>
       <use x="127.246094" xlink:href="#DejaVuSans-48"/>
       <use x="190.869141" xlink:href="#DejaVuSans-48"/>
      </g>
     </g>
    </g>
    <g id="xtick_6">
     <g id="line2d_6">
      <g>
       <use style="stroke:#000000;stroke-width:0.8;" x="276.523882" xlink:href="#m268eb927c7" y="307.584"/>
      </g>
     </g>
     <g id="text_6">
      <!-- 5000 -->
      <g transform="translate(263.798882 322.182437)scale(0.1 -0.1)">
       <defs>
        <path d="M 10.796875 72.90625 
L 49.515625 72.90625 
L 49.515625 64.59375 
L 19.828125 64.59375 
L 19.828125 46.734375 
Q 21.96875 47.46875 24.109375 47.828125 
Q 26.265625 48.1875 28.421875 48.1875 
Q 40.625 48.1875 47.75 41.5 
Q 54.890625 34.8125 54.890625 23.390625 
Q 54.890625 11.625 47.5625 5.09375 
Q 40.234375 -1.421875 26.90625 -1.421875 
Q 22.3125 -1.421875 17.546875 -0.640625 
Q 12.796875 0.140625 7.71875 1.703125 
L 7.71875 11.625 
Q 12.109375 9.234375 16.796875 8.0625 
Q 21.484375 6.890625 26.703125 6.890625 
Q 35.15625 6.890625 40.078125 11.328125 
Q 45.015625 15.765625 45.015625 23.390625 
Q 45.015625 31 40.078125 35.4375 
Q 35.15625 39.890625 26.703125 39.890625 
Q 22.75 39.890625 18.8125 39.015625 
Q 14.890625 38.140625 10.796875 36.28125 
z
" id="DejaVuSans-53"/>
       </defs>
       <use xlink:href="#DejaVuSans-53"/>
       <use x="63.623047" xlink:href="#DejaVuSans-48"/>
       <use x="127.246094" xlink:href="#DejaVuSans-48"/>
       <use x="190.869141" xlink:href="#DejaVuSans-48"/>
      </g>
     </g>
    </g>
    <g id="xtick_7">
     <g id="line2d_7">
      <g>
       <use style="stroke:#000000;stroke-width:0.8;" x="317.070222" xlink:href="#m268eb927c7" y="307.584"/>
      </g>
     </g>
     <g id="text_7">
      <!-- 6000 -->
      <g transform="translate(304.345222 322.182437)scale(0.1 -0.1)">
       <defs>
        <path d="M 33.015625 40.375 
Q 26.375 40.375 22.484375 35.828125 
Q 18.609375 31.296875 18.609375 23.390625 
Q 18.609375 15.53125 22.484375 10.953125 
Q 26.375 6.390625 33.015625 6.390625 
Q 39.65625 6.390625 43.53125 10.953125 
Q 47.40625 15.53125 47.40625 23.390625 
Q 47.40625 31.296875 43.53125 35.828125 
Q 39.65625 40.375 33.015625 40.375 
z
M 52.59375 71.296875 
L 52.59375 62.3125 
Q 48.875 64.0625 45.09375 64.984375 
Q 41.3125 65.921875 37.59375 65.921875 
Q 27.828125 65.921875 22.671875 59.328125 
Q 17.53125 52.734375 16.796875 39.40625 
Q 19.671875 43.65625 24.015625 45.921875 
Q 28.375 48.1875 33.59375 48.1875 
Q 44.578125 48.1875 50.953125 41.515625 
Q 57.328125 34.859375 57.328125 23.390625 
Q 57.328125 12.15625 50.6875 5.359375 
Q 44.046875 -1.421875 33.015625 -1.421875 
Q 20.359375 -1.421875 13.671875 8.265625 
Q 6.984375 17.96875 6.984375 36.375 
Q 6.984375 53.65625 15.1875 63.9375 
Q 23.390625 74.21875 37.203125 74.21875 
Q 40.921875 74.21875 44.703125 73.484375 
Q 48.484375 72.75 52.59375 71.296875 
z
" id="DejaVuSans-54"/>
       </defs>
       <use xlink:href="#DejaVuSans-54"/>
       <use x="63.623047" xlink:href="#DejaVuSans-48"/>
       <use x="127.246094" xlink:href="#DejaVuSans-48"/>
       <use x="190.869141" xlink:href="#DejaVuSans-48"/>
      </g>
     </g>
    </g>
    <g id="xtick_8">
     <g id="line2d_8">
      <g>
       <use style="stroke:#000000;stroke-width:0.8;" x="357.616562" xlink:href="#m268eb927c7" y="307.584"/>
      </g>
     </g>
     <g id="text_8">
      <!-- 7000 -->
      <g transform="translate(344.891562 322.182437)scale(0.1 -0.1)">
       <defs>
        <path d="M 8.203125 72.90625 
L 55.078125 72.90625 
L 55.078125 68.703125 
L 28.609375 0 
L 18.3125 0 
L 43.21875 64.59375 
L 8.203125 64.59375 
z
" id="DejaVuSans-55"/>
       </defs>
       <use xlink:href="#DejaVuSans-55"/>
       <use x="63.623047" xlink:href="#DejaVuSans-48"/>
       <use x="127.246094" xlink:href="#DejaVuSans-48"/>
       <use x="190.869141" xlink:href="#DejaVuSans-48"/>
      </g>
     </g>
    </g>
    <g id="xtick_9">
     <g id="line2d_9">
      <g>
       <use style="stroke:#000000;stroke-width:0.8;" x="398.162902" xlink:href="#m268eb927c7" y="307.584"/>
      </g>
     </g>
     <g id="text_9">
      <!-- 8000 -->
      <g transform="translate(385.437902 322.182437)scale(0.1 -0.1)">
       <defs>
        <path d="M 31.78125 34.625 
Q 24.75 34.625 20.71875 30.859375 
Q 16.703125 27.09375 16.703125 20.515625 
Q 16.703125 13.921875 20.71875 10.15625 
Q 24.75 6.390625 31.78125 6.390625 
Q 38.8125 6.390625 42.859375 10.171875 
Q 46.921875 13.96875 46.921875 20.515625 
Q 46.921875 27.09375 42.890625 30.859375 
Q 38.875 34.625 31.78125 34.625 
z
M 21.921875 38.8125 
Q 15.578125 40.375 12.03125 44.71875 
Q 8.5 49.078125 8.5 55.328125 
Q 8.5 64.0625 14.71875 69.140625 
Q 20.953125 74.21875 31.78125 74.21875 
Q 42.671875 74.21875 48.875 69.140625 
Q 55.078125 64.0625 55.078125 55.328125 
Q 55.078125 49.078125 51.53125 44.71875 
Q 48 40.375 41.703125 38.8125 
Q 48.828125 37.15625 52.796875 32.3125 
Q 56.78125 27.484375 56.78125 20.515625 
Q 56.78125 9.90625 50.3125 4.234375 
Q 43.84375 -1.421875 31.78125 -1.421875 
Q 19.734375 -1.421875 13.25 4.234375 
Q 6.78125 9.90625 6.78125 20.515625 
Q 6.78125 27.484375 10.78125 32.3125 
Q 14.796875 37.15625 21.921875 38.8125 
z
M 18.3125 54.390625 
Q 18.3125 48.734375 21.84375 45.5625 
Q 25.390625 42.390625 31.78125 42.390625 
Q 38.140625 42.390625 41.71875 45.5625 
Q 45.3125 48.734375 45.3125 54.390625 
Q 45.3125 60.0625 41.71875 63.234375 
Q 38.140625 66.40625 31.78125 66.40625 
Q 25.390625 66.40625 21.84375 63.234375 
Q 18.3125 60.0625 18.3125 54.390625 
z
" id="DejaVuSans-56"/>
       </defs>
       <use xlink:href="#DejaVuSans-56"/>
       <use x="63.623047" xlink:href="#DejaVuSans-48"/>
       <use x="127.246094" xlink:href="#DejaVuSans-48"/>
       <use x="190.869141" xlink:href="#DejaVuSans-48"/>
      </g>
     </g>
    </g>
    <g id="text_10">
     <!-- Time steps -->
     <g transform="translate(208.917031 335.860562)scale(0.1 -0.1)">
      <defs>
       <path d="M -0.296875 72.90625 
L 61.375 72.90625 
L 61.375 64.59375 
L 35.5 64.59375 
L 35.5 0 
L 25.59375 0 
L 25.59375 64.59375 
L -0.296875 64.59375 
z
" id="DejaVuSans-84"/>
       <path d="M 9.421875 54.6875 
L 18.40625 54.6875 
L 18.40625 0 
L 9.421875 0 
z
M 9.421875 75.984375 
L 18.40625 75.984375 
L 18.40625 64.59375 
L 9.421875 64.59375 
z
" id="DejaVuSans-105"/>
       <path d="M 52 44.1875 
Q 55.375 50.25 60.0625 53.125 
Q 64.75 56 71.09375 56 
Q 79.640625 56 84.28125 50.015625 
Q 88.921875 44.046875 88.921875 33.015625 
L 88.921875 0 
L 79.890625 0 
L 79.890625 32.71875 
Q 79.890625 40.578125 77.09375 44.375 
Q 74.3125 48.1875 68.609375 48.1875 
Q 61.625 48.1875 57.5625 43.546875 
Q 53.515625 38.921875 53.515625 30.90625 
L 53.515625 0 
L 44.484375 0 
L 44.484375 32.71875 
Q 44.484375 40.625 41.703125 44.40625 
Q 38.921875 48.1875 33.109375 48.1875 
Q 26.21875 48.1875 22.15625 43.53125 
Q 18.109375 38.875 18.109375 30.90625 
L 18.109375 0 
L 9.078125 0 
L 9.078125 54.6875 
L 18.109375 54.6875 
L 18.109375 46.1875 
Q 21.1875 51.21875 25.484375 53.609375 
Q 29.78125 56 35.6875 56 
Q 41.65625 56 45.828125 52.96875 
Q 50 49.953125 52 44.1875 
z
" id="DejaVuSans-109"/>
       <path d="M 56.203125 29.59375 
L 56.203125 25.203125 
L 14.890625 25.203125 
Q 15.484375 15.921875 20.484375 11.0625 
Q 25.484375 6.203125 34.421875 6.203125 
Q 39.59375 6.203125 44.453125 7.46875 
Q 49.3125 8.734375 54.109375 11.28125 
L 54.109375 2.78125 
Q 49.265625 0.734375 44.1875 -0.34375 
Q 39.109375 -1.421875 33.890625 -1.421875 
Q 20.796875 -1.421875 13.15625 6.1875 
Q 5.515625 13.8125 5.515625 26.8125 
Q 5.515625 40.234375 12.765625 48.109375 
Q 20.015625 56 32.328125 56 
Q 43.359375 56 49.78125 48.890625 
Q 56.203125 41.796875 56.203125 29.59375 
z
M 47.21875 32.234375 
Q 47.125 39.59375 43.09375 43.984375 
Q 39.0625 48.390625 32.421875 48.390625 
Q 24.90625 48.390625 20.390625 44.140625 
Q 15.875 39.890625 15.1875 32.171875 
z
" id="DejaVuSans-101"/>
       <path id="DejaVuSans-32"/>
       <path d="M 44.28125 53.078125 
L 44.28125 44.578125 
Q 40.484375 46.53125 36.375 47.5 
Q 32.28125 48.484375 27.875 48.484375 
Q 21.1875 48.484375 17.84375 46.4375 
Q 14.5 44.390625 14.5 40.28125 
Q 14.5 37.15625 16.890625 35.375 
Q 19.28125 33.59375 26.515625 31.984375 
L 29.59375 31.296875 
Q 39.15625 29.25 43.1875 25.515625 
Q 47.21875 21.78125 47.21875 15.09375 
Q 47.21875 7.46875 41.1875 3.015625 
Q 35.15625 -1.421875 24.609375 -1.421875 
Q 20.21875 -1.421875 15.453125 -0.5625 
Q 10.6875 0.296875 5.421875 2 
L 5.421875 11.28125 
Q 10.40625 8.6875 15.234375 7.390625 
Q 20.0625 6.109375 24.8125 6.109375 
Q 31.15625 6.109375 34.5625 8.28125 
Q 37.984375 10.453125 37.984375 14.40625 
Q 37.984375 18.0625 35.515625 20.015625 
Q 33.0625 21.96875 24.703125 23.78125 
L 21.578125 24.515625 
Q 13.234375 26.265625 9.515625 29.90625 
Q 5.8125 33.546875 5.8125 39.890625 
Q 5.8125 47.609375 11.28125 51.796875 
Q 16.75 56 26.8125 56 
Q 31.78125 56 36.171875 55.265625 
Q 40.578125 54.546875 44.28125 53.078125 
z
" id="DejaVuSans-115"/>
       <path d="M 18.3125 70.21875 
L 18.3125 54.6875 
L 36.8125 54.6875 
L 36.8125 47.703125 
L 18.3125 47.703125 
L 18.3125 18.015625 
Q 18.3125 11.328125 20.140625 9.421875 
Q 21.96875 7.515625 27.59375 7.515625 
L 36.8125 7.515625 
L 36.8125 0 
L 27.59375 0 
Q 17.1875 0 13.234375 3.875 
Q 9.28125 7.765625 9.28125 18.015625 
L 9.28125 47.703125 
L 2.6875 47.703125 
L 2.6875 54.6875 
L 9.28125 54.6875 
L 9.28125 70.21875 
z
" id="DejaVuSans-116"/>
       <path d="M 18.109375 8.203125 
L 18.109375 -20.796875 
L 9.078125 -20.796875 
L 9.078125 54.6875 
L 18.109375 54.6875 
L 18.109375 46.390625 
Q 20.953125 51.265625 25.265625 53.625 
Q 29.59375 56 35.59375 56 
Q 45.5625 56 51.78125 48.09375 
Q 58.015625 40.1875 58.015625 27.296875 
Q 58.015625 14.40625 51.78125 6.484375 
Q 45.5625 -1.421875 35.59375 -1.421875 
Q 29.59375 -1.421875 25.265625 0.953125 
Q 20.953125 3.328125 18.109375 8.203125 
z
M 48.6875 27.296875 
Q 48.6875 37.203125 44.609375 42.84375 
Q 40.53125 48.484375 33.40625 48.484375 
Q 26.265625 48.484375 22.1875 42.84375 
Q 18.109375 37.203125 18.109375 27.296875 
Q 18.109375 17.390625 22.1875 11.75 
Q 26.265625 6.109375 33.40625 6.109375 
Q 40.53125 6.109375 44.609375 11.75 
Q 48.6875 17.390625 48.6875 27.296875 
z
" id="DejaVuSans-112"/>
      </defs>
      <use xlink:href="#DejaVuSans-84"/>
      <use x="57.958984" xlink:href="#DejaVuSans-105"/>
      <use x="85.742188" xlink:href="#DejaVuSans-109"/>
      <use x="183.154297" xlink:href="#DejaVuSans-101"/>
      <use x="244.677734" xlink:href="#DejaVuSans-32"/>
      <use x="276.464844" xlink:href="#DejaVuSans-115"/>
      <use x="328.564453" xlink:href="#DejaVuSans-116"/>
      <use x="367.773438" xlink:href="#DejaVuSans-101"/>
      <use x="429.296875" xlink:href="#DejaVuSans-112"/>
      <use x="492.773438" xlink:href="#DejaVuSans-115"/>
     </g>
    </g>
   </g>
   <g id="matplotlib.axis_2">
    <g id="ytick_1">
     <g id="line2d_10">
      <defs>
       <path d="M 0 0 
L -3.5 0 
" id="m09985d4d51" style="stroke:#000000;stroke-width:0.8;"/>
      </defs>
      <g>
       <use style="stroke:#000000;stroke-width:0.8;" x="57.6" xlink:href="#m09985d4d51" y="295.488"/>
      </g>
     </g>
     <g id="text_11">
      <!-- 0 -->
      <g transform="translate(44.2375 299.287219)scale(0.1 -0.1)">
       <use xlink:href="#DejaVuSans-48"/>
      </g>
     </g>
    </g>
    <g id="ytick_2">
     <g id="line2d_11">
      <g>
       <use style="stroke:#000000;stroke-width:0.8;" x="57.6" xlink:href="#m09985d4d51" y="240.001761"/>
      </g>
     </g>
     <g id="text_12">
      <!-- 50 -->
      <g transform="translate(37.875 243.80098)scale(0.1 -0.1)">
       <use xlink:href="#DejaVuSans-53"/>
       <use x="63.623047" xlink:href="#DejaVuSans-48"/>
      </g>
     </g>
    </g>
    <g id="ytick_3">
     <g id="line2d_12">
      <g>
       <use style="stroke:#000000;stroke-width:0.8;" x="57.6" xlink:href="#m09985d4d51" y="184.515523"/>
      </g>
     </g>
     <g id="text_13">
      <!-- 100 -->
      <g transform="translate(31.5125 188.314742)scale(0.1 -0.1)">
       <use xlink:href="#DejaVuSans-49"/>
       <use x="63.623047" xlink:href="#DejaVuSans-48"/>
       <use x="127.246094" xlink:href="#DejaVuSans-48"/>
      </g>
     </g>
    </g>
    <g id="ytick_4">
     <g id="line2d_13">
      <g>
       <use style="stroke:#000000;stroke-width:0.8;" x="57.6" xlink:href="#m09985d4d51" y="129.029284"/>
      </g>
     </g>
     <g id="text_14">
      <!-- 150 -->
      <g transform="translate(31.5125 132.828503)scale(0.1 -0.1)">
       <use xlink:href="#DejaVuSans-49"/>
       <use x="63.623047" xlink:href="#DejaVuSans-53"/>
       <use x="127.246094" xlink:href="#DejaVuSans-48"/>
      </g>
     </g>
    </g>
    <g id="ytick_5">
     <g id="line2d_14">
      <g>
       <use style="stroke:#000000;stroke-width:0.8;" x="57.6" xlink:href="#m09985d4d51" y="73.543046"/>
      </g>
     </g>
     <g id="text_15">
      <!-- 200 -->
      <g transform="translate(31.5125 77.342265)scale(0.1 -0.1)">
       <use xlink:href="#DejaVuSans-50"/>
       <use x="63.623047" xlink:href="#DejaVuSans-48"/>
       <use x="127.246094" xlink:href="#DejaVuSans-48"/>
      </g>
     </g>
    </g>
    <g id="text_16">
     <!-- Episodes -->
     <g transform="translate(25.432812 196.770187)rotate(-90)scale(0.1 -0.1)">
      <defs>
       <path d="M 9.8125 72.90625 
L 55.90625 72.90625 
L 55.90625 64.59375 
L 19.671875 64.59375 
L 19.671875 43.015625 
L 54.390625 43.015625 
L 54.390625 34.71875 
L 19.671875 34.71875 
L 19.671875 8.296875 
L 56.78125 8.296875 
L 56.78125 0 
L 9.8125 0 
z
" id="DejaVuSans-69"/>
       <path d="M 30.609375 48.390625 
Q 23.390625 48.390625 19.1875 42.75 
Q 14.984375 37.109375 14.984375 27.296875 
Q 14.984375 17.484375 19.15625 11.84375 
Q 23.34375 6.203125 30.609375 6.203125 
Q 37.796875 6.203125 41.984375 11.859375 
Q 46.1875 17.53125 46.1875 27.296875 
Q 46.1875 37.015625 41.984375 42.703125 
Q 37.796875 48.390625 30.609375 48.390625 
z
M 30.609375 56 
Q 42.328125 56 49.015625 48.375 
Q 55.71875 40.765625 55.71875 27.296875 
Q 55.71875 13.875 49.015625 6.21875 
Q 42.328125 -1.421875 30.609375 -1.421875 
Q 18.84375 -1.421875 12.171875 6.21875 
Q 5.515625 13.875 5.515625 27.296875 
Q 5.515625 40.765625 12.171875 48.375 
Q 18.84375 56 30.609375 56 
z
" id="DejaVuSans-111"/>
       <path d="M 45.40625 46.390625 
L 45.40625 75.984375 
L 54.390625 75.984375 
L 54.390625 0 
L 45.40625 0 
L 45.40625 8.203125 
Q 42.578125 3.328125 38.25 0.953125 
Q 33.9375 -1.421875 27.875 -1.421875 
Q 17.96875 -1.421875 11.734375 6.484375 
Q 5.515625 14.40625 5.515625 27.296875 
Q 5.515625 40.1875 11.734375 48.09375 
Q 17.96875 56 27.875 56 
Q 33.9375 56 38.25 53.625 
Q 42.578125 51.265625 45.40625 46.390625 
z
M 14.796875 27.296875 
Q 14.796875 17.390625 18.875 11.75 
Q 22.953125 6.109375 30.078125 6.109375 
Q 37.203125 6.109375 41.296875 11.75 
Q 45.40625 17.390625 45.40625 27.296875 
Q 45.40625 37.203125 41.296875 42.84375 
Q 37.203125 48.484375 30.078125 48.484375 
Q 22.953125 48.484375 18.875 42.84375 
Q 14.796875 37.203125 14.796875 27.296875 
z
" id="DejaVuSans-100"/>
      </defs>
      <use xlink:href="#DejaVuSans-69"/>
      <use x="63.183594" xlink:href="#DejaVuSans-112"/>
      <use x="126.660156" xlink:href="#DejaVuSans-105"/>
      <use x="154.443359" xlink:href="#DejaVuSans-115"/>
      <use x="206.542969" xlink:href="#DejaVuSans-111"/>
      <use x="267.724609" xlink:href="#DejaVuSans-100"/>
      <use x="331.201172" xlink:href="#DejaVuSans-101"/>
      <use x="392.724609" xlink:href="#DejaVuSans-115"/>
     </g>
    </g>
   </g>
   <g id="line2d_15">
    <path clip-path="url(#p2fc47b1000)" d="M 73.832727 295.488 
L 118.433701 295.488 
L 118.55534 294.378275 
L 131.205799 294.378275 
L 131.327438 293.26855 
L 133.800764 293.26855 
L 133.922403 292.158826 
L 142.031671 292.158826 
L 142.15331 291.049101 
L 146.978325 291.049101 
L 147.099964 289.939376 
L 151.560061 289.939376 
L 151.6817 288.829651 
L 159.466598 288.829651 
L 159.588237 287.719927 
L 160.520802 287.719927 
L 160.642442 286.610202 
L 163.76451 286.610202 
L 163.886149 285.500477 
L 166.6433 285.500477 
L 166.764939 284.390752 
L 171.833231 284.390752 
L 171.95487 283.281028 
L 174.9553 283.281028 
L 175.076939 282.171303 
L 176.6177 282.171303 
L 176.739339 281.061578 
L 183.632216 281.061578 
L 183.753855 279.951853 
L 193.647162 279.951853 
L 193.768801 278.842128 
L 199.404743 278.842128 
L 199.526382 277.732404 
L 200.175123 277.732404 
L 200.296762 276.622679 
L 202.607904 276.622679 
L 202.729543 275.512954 
L 211.690284 275.512954 
L 211.811923 274.403229 
L 212.460664 274.403229 
L 212.582303 273.293505 
L 213.960879 273.293505 
L 214.082518 272.18378 
L 215.05563 272.18378 
L 215.177269 271.074055 
L 216.312567 271.074055 
L 216.434206 269.96433 
L 217.366771 269.96433 
L 217.48841 268.854606 
L 220.326654 268.854606 
L 220.448293 267.744881 
L 226.530244 267.744881 
L 226.651883 266.635156 
L 229.368488 266.635156 
L 229.490127 265.525431 
L 230.017229 265.525431 
L 230.138868 264.415706 
L 235.653171 264.415706 
L 235.77481 263.305982 
L 236.018088 263.305982 
L 236.139727 262.196257 
L 237.477756 262.196257 
L 237.599395 261.086532 
L 239.261795 261.086532 
L 239.383434 259.976807 
L 240.680917 259.976807 
L 240.802556 258.867083 
L 242.100039 258.867083 
L 242.221678 257.757358 
L 247.452156 257.757358 
L 247.573795 256.647633 
L 249.84439 256.647633 
L 249.966029 255.537908 
L 250.695863 255.537908 
L 250.817502 254.428183 
L 252.317717 254.428183 
L 252.439356 253.318459 
L 252.885365 253.318459 
L 253.007004 252.208734 
L 253.250282 252.208734 
L 253.371921 251.099009 
L 253.817931 251.099009 
L 253.93957 249.989284 
L 255.115414 249.989284 
L 255.237053 248.87956 
L 257.183277 248.87956 
L 257.304916 247.769835 
L 257.548194 247.769835 
L 257.669833 246.66011 
L 258.764585 246.66011 
L 258.886224 245.550385 
L 259.453872 245.550385 
L 259.575511 244.440661 
L 263.265228 244.440661 
L 263.386867 243.330936 
L 264.319433 243.330936 
L 264.441072 242.221211 
L 265.414184 242.221211 
L 265.535823 241.111486 
L 266.306204 241.111486 
L 266.427843 240.001761 
L 270.441931 240.001761 
L 270.56357 238.892037 
L 273.077443 238.892037 
L 273.199082 237.782312 
L 276.158965 237.782312 
L 276.280604 236.672587 
L 277.172623 236.672587 
L 277.294262 235.562862 
L 277.53754 235.562862 
L 277.659179 234.453138 
L 278.105189 234.453138 
L 278.226828 233.343413 
L 279.64595 233.343413 
L 279.767589 232.233688 
L 281.470535 232.233688 
L 281.592174 231.123963 
L 282.362555 231.123963 
L 282.484194 230.014239 
L 282.727472 230.014239 
L 282.849111 228.904514 
L 283.011296 228.904514 
L 283.132935 227.794789 
L 283.29512 227.794789 
L 283.416759 226.685064 
L 284.18714 226.685064 
L 284.308779 225.575339 
L 285.971179 225.575339 
L 286.092818 224.465615 
L 287.876857 224.465615 
L 287.998496 223.35589 
L 289.579803 223.35589 
L 289.701442 222.246165 
L 290.958379 222.246165 
L 291.080018 221.13644 
L 293.472252 221.13644 
L 293.593891 220.026716 
L 294.364271 220.026716 
L 294.48591 218.916991 
L 298.378359 218.916991 
L 298.499998 217.807266 
L 299.513656 217.807266 
L 299.635295 216.697541 
L 301.257149 216.697541 
L 301.378788 215.587817 
L 302.189715 215.587817 
L 302.311354 214.478092 
L 303.284466 214.478092 
L 303.406105 213.368367 
L 304.379217 213.368367 
L 304.500856 212.258642 
L 305.595607 212.258642 
L 305.717247 211.148917 
L 309.123139 211.148917 
L 309.244778 210.039193 
L 310.21789 210.039193 
L 310.339529 208.929468 
L 310.542261 208.929468 
L 310.6639 207.819743 
L 313.9887 207.819743 
L 314.110339 206.710018 
L 315.164544 206.710018 
L 315.286183 205.600294 
L 315.488914 205.600294 
L 315.610553 204.490569 
L 315.975471 204.490569 
L 316.09711 203.380844 
L 316.624212 203.380844 
L 316.745851 202.271119 
L 317.678417 202.271119 
L 317.800056 201.161394 
L 319.584095 201.161394 
L 319.705734 200.05167 
L 320.313929 200.05167 
L 320.435568 198.941945 
L 321.084309 198.941945 
L 321.205948 197.83222 
L 322.989987 197.83222 
L 323.111626 196.722495 
L 323.719822 196.722495 
L 323.841461 195.612771 
L 324.044192 195.612771 
L 324.165831 194.503046 
L 325.544407 194.503046 
L 325.666046 193.393321 
L 325.828231 193.393321 
L 325.94987 192.283596 
L 326.517519 192.283596 
L 326.639158 191.173872 
L 328.990846 191.173872 
L 329.112485 190.064147 
L 329.355763 190.064147 
L 329.477402 188.954422 
L 330.531607 188.954422 
L 330.653246 187.844697 
L 330.855977 187.844697 
L 330.977616 186.734972 
L 331.504719 186.734972 
L 331.626358 185.625248 
L 332.640016 185.625248 
L 332.761655 184.515523 
L 333.04548 184.515523 
L 333.167119 183.405798 
L 335.518806 183.405798 
L 335.640446 182.296073 
L 336.248641 182.296073 
L 336.37028 181.186349 
L 336.573011 181.186349 
L 336.69465 180.076624 
L 337.019021 180.076624 
L 337.14066 178.966899 
L 337.302845 178.966899 
L 337.424484 177.857174 
L 338.194865 177.857174 
L 338.316504 176.74745 
L 339.24907 176.74745 
L 339.370709 175.637725 
L 339.938358 175.637725 
L 340.059997 174.528 
L 340.870923 174.528 
L 340.992562 173.418275 
L 341.357479 173.418275 
L 341.479118 172.30855 
L 343.425343 172.30855 
L 343.546982 171.198826 
L 344.195723 171.198826 
L 344.317362 170.089101 
L 344.56064 170.089101 
L 344.682279 168.979376 
L 345.047196 168.979376 
L 345.168835 167.869651 
L 345.695938 167.869651 
L 345.817577 166.759927 
L 346.182494 166.759927 
L 346.304133 165.650202 
L 346.628504 165.650202 
L 346.750143 164.540477 
L 346.912328 164.540477 
L 347.033967 163.430752 
L 347.88544 163.430752 
L 348.007079 162.321028 
L 348.858552 162.321028 
L 348.980191 161.211303 
L 349.304562 161.211303 
L 349.426201 160.101578 
L 350.318221 160.101578 
L 350.43986 158.991853 
L 350.602045 158.991853 
L 350.723684 157.882128 
L 350.885869 157.882128 
L 351.007508 156.772404 
L 351.169694 156.772404 
L 351.291333 155.662679 
L 351.453518 155.662679 
L 351.575157 154.552954 
L 351.818435 154.552954 
L 351.940074 153.443229 
L 352.10226 153.443229 
L 352.223899 152.333505 
L 352.386084 152.333505 
L 352.507723 151.22378 
L 352.669908 151.22378 
L 352.791547 150.114055 
L 352.953733 150.114055 
L 353.075372 149.00433 
L 353.237557 149.00433 
L 353.359196 147.894606 
L 353.561928 147.894606 
L 353.683567 146.784881 
L 353.845752 146.784881 
L 353.967391 145.675156 
L 354.129577 145.675156 
L 354.251216 144.565431 
L 354.656679 144.565431 
L 354.778318 143.455706 
L 355.224328 143.455706 
L 355.345967 142.345982 
L 355.589245 142.345982 
L 355.710884 141.236257 
L 356.116347 141.236257 
L 356.237986 140.126532 
L 356.400172 140.126532 
L 356.521811 139.016807 
L 356.683996 139.016807 
L 356.805635 137.907083 
L 357.211098 137.907083 
L 357.332737 136.797358 
L 357.494923 136.797358 
L 357.616562 135.687633 
L 357.778747 135.687633 
L 357.900386 134.577908 
L 358.062572 134.577908 
L 358.184211 133.468183 
L 358.873498 133.468183 
L 358.995137 132.358459 
L 360.089889 132.358459 
L 360.211528 131.248734 
L 360.860269 131.248734 
L 360.981908 130.139009 
L 361.427918 130.139009 
L 361.549557 129.029284 
L 362.076659 129.029284 
L 362.198298 127.91956 
L 362.441576 127.91956 
L 362.563215 126.809835 
L 363.049771 126.809835 
L 363.17141 125.70011 
L 363.739059 125.70011 
L 363.860698 124.590385 
L 364.144523 124.590385 
L 364.266162 123.480661 
L 365.360913 123.480661 
L 365.482552 122.370936 
L 365.969108 122.370936 
L 366.090747 121.261211 
L 366.252932 121.261211 
L 366.374571 120.151486 
L 366.617849 120.151486 
L 366.739488 119.041761 
L 367.063859 119.041761 
L 367.185498 117.932037 
L 367.469323 117.932037 
L 367.590962 116.822312 
L 367.753147 116.822312 
L 367.874786 115.712587 
L 368.036971 115.712587 
L 368.15861 114.602862 
L 369.010083 114.602862 
L 369.131722 113.493138 
L 369.293908 113.493138 
L 369.415547 112.383413 
L 369.902103 112.383413 
L 370.023742 111.273688 
L 370.26702 111.273688 
L 370.388659 110.163963 
L 370.591391 110.163963 
L 370.71303 109.054239 
L 371.0374 109.054239 
L 371.159039 107.944514 
L 371.321225 107.944514 
L 371.442864 106.834789 
L 371.686142 106.834789 
L 371.807781 105.725064 
L 372.334883 105.725064 
L 372.456522 104.615339 
L 373.14581 104.615339 
L 373.267449 103.505615 
L 373.470181 103.505615 
L 373.59182 102.39589 
L 373.835098 102.39589 
L 373.956737 101.286165 
L 374.118922 101.286165 
L 374.240561 100.17644 
L 374.524386 100.17644 
L 374.646025 99.066716 
L 375.375859 99.066716 
L 375.497498 97.956991 
L 375.659683 97.956991 
L 375.781322 96.847266 
L 375.943508 96.847266 
L 376.065147 95.737541 
L 376.227332 95.737541 
L 376.348971 94.627817 
L 377.687 94.627817 
L 377.808639 93.518092 
L 377.970825 93.518092 
L 378.092464 92.408367 
L 378.254649 92.408367 
L 378.376288 91.298642 
L 378.943937 91.298642 
L 379.065576 90.188917 
L 379.3494 90.188917 
L 379.471039 89.079193 
L 379.835956 89.079193 
L 379.957595 87.969468 
L 380.403605 87.969468 
L 380.525244 86.859743 
L 380.687429 86.859743 
L 380.809068 85.750018 
L 380.971254 85.750018 
L 381.092893 84.640294 
L 381.660542 84.640294 
L 381.782181 83.530569 
L 382.147098 83.530569 
L 382.268737 82.420844 
L 382.430922 82.420844 
L 382.552561 81.311119 
L 383.485127 81.311119 
L 383.606766 80.201394 
L 384.3366 80.201394 
L 384.458239 79.09167 
L 384.620424 79.09167 
L 384.742063 77.981945 
L 384.985341 77.981945 
L 385.10698 76.87222 
L 385.269166 76.87222 
L 385.390805 75.762495 
L 385.674629 75.762495 
L 385.796268 74.652771 
L 386.161185 74.652771 
L 386.282824 73.543046 
L 386.891019 73.543046 
L 387.012658 72.433321 
L 387.174844 72.433321 
L 387.296483 71.323596 
L 387.499215 71.323596 
L 387.620854 70.213872 
L 387.823585 70.213872 
L 387.945224 69.104147 
L 388.10741 69.104147 
L 388.229049 67.994422 
L 388.391234 67.994422 
L 388.512873 66.884697 
L 389.080522 66.884697 
L 389.202161 65.774972 
L 389.364346 65.774972 
L 389.485985 64.665248 
L 389.729263 64.665248 
L 389.850902 63.555523 
L 390.296912 63.555523 
L 390.418551 62.445798 
L 390.945653 62.445798 
L 391.067292 61.336073 
L 391.229478 61.336073 
L 391.351117 60.226349 
L 392.20259 60.226349 
L 392.324229 59.116624 
L 392.486414 59.116624 
L 392.608053 58.006899 
L 393.540619 58.006899 
L 393.662258 56.897174 
L 393.824444 56.897174 
L 393.946083 55.78745 
L 396.500502 55.78745 
L 396.622141 54.677725 
L 397.96017 54.677725 
L 398.081809 53.568 
L 398.365634 53.568 
L 398.365634 53.568 
" style="fill:none;stroke:#1f77b4;stroke-linecap:square;stroke-width:1.5;"/>
   </g>
   <g id="line2d_16">
    <path clip-path="url(#p2fc47b1000)" d="M 73.832727 295.488 
L 124.475106 295.488 
L 124.596745 294.378275 
L 141.342384 294.378275 
L 141.464023 293.26855 
L 143.531886 293.26855 
L 143.653525 292.158826 
L 164.291612 292.158826 
L 164.413251 291.049101 
L 171.711592 291.049101 
L 171.833231 289.939376 
L 173.049622 289.939376 
L 173.171261 288.829651 
L 181.402168 288.829651 
L 181.523807 287.719927 
L 185.456802 287.719927 
L 185.578441 286.610202 
L 187.849036 286.610202 
L 187.970675 285.500477 
L 194.701367 285.500477 
L 194.823006 284.390752 
L 197.66125 284.390752 
L 197.782889 283.281028 
L 202.770089 283.281028 
L 202.891728 282.171303 
L 204.067572 282.171303 
L 204.189211 281.061578 
L 206.581445 281.061578 
L 206.703084 279.951853 
L 207.351825 279.951853 
L 207.473464 278.842128 
L 209.865698 278.842128 
L 209.987337 277.732404 
L 211.852469 277.732404 
L 211.974108 276.622679 
L 216.758576 276.622679 
L 216.880215 275.512954 
L 218.218244 275.512954 
L 218.339884 274.403229 
L 226.895161 274.403229 
L 227.0168 273.293505 
L 228.314283 273.293505 
L 228.435922 272.18378 
L 229.206303 272.18378 
L 229.327942 271.074055 
L 233.058205 271.074055 
L 233.179844 269.96433 
L 236.301912 269.96433 
L 236.423551 268.854606 
L 238.085951 268.854606 
L 238.20759 267.744881 
L 239.180702 267.744881 
L 239.302341 266.635156 
L 240.194361 266.635156 
L 240.316 265.525431 
L 242.42441 265.525431 
L 242.546049 264.415706 
L 244.167902 264.415706 
L 244.289541 263.305982 
L 245.870848 263.305982 
L 245.992487 262.196257 
L 246.925053 262.196257 
L 247.046692 261.086532 
L 247.979258 261.086532 
L 248.100897 259.976807 
L 253.128643 259.976807 
L 253.250282 258.867083 
L 256.291258 258.867083 
L 256.412897 257.757358 
L 257.832019 257.757358 
L 257.953658 256.647633 
L 258.724038 256.647633 
L 258.845677 255.537908 
L 259.088955 255.537908 
L 259.210594 254.428183 
L 261.116272 254.428183 
L 261.237911 253.318459 
L 261.927199 253.318459 
L 262.048838 252.208734 
L 262.494848 252.208734 
L 262.616487 251.099009 
L 267.360409 251.099009 
L 267.482048 249.989284 
L 268.211882 249.989284 
L 268.333521 248.87956 
L 268.820077 248.87956 
L 268.941716 247.769835 
L 269.590457 247.769835 
L 269.712096 246.66011 
L 277.253716 246.66011 
L 277.375355 245.550385 
L 278.145735 245.550385 
L 278.267374 244.440661 
L 279.929774 244.440661 
L 280.051413 243.330936 
L 281.186711 243.330936 
L 281.30835 242.221211 
L 281.916545 242.221211 
L 282.038184 241.111486 
L 285.890086 241.111486 
L 286.011725 240.001761 
L 287.430847 240.001761 
L 287.552486 238.892037 
L 288.566145 238.892037 
L 288.687784 237.782312 
L 292.05313 237.782312 
L 292.174769 236.672587 
L 292.620779 236.672587 
L 292.742418 235.562862 
L 294.323725 235.562862 
L 294.445364 234.453138 
L 295.296837 234.453138 
L 295.418476 233.343413 
L 296.14831 233.343413 
L 296.269949 232.233688 
L 297.202515 232.233688 
L 297.324154 231.123963 
L 297.567432 231.123963 
L 297.689071 230.014239 
L 299.148739 230.014239 
L 299.270378 228.904514 
L 300.608408 228.904514 
L 300.730047 227.794789 
L 301.784252 227.794789 
L 301.905891 226.685064 
L 303.56829 226.685064 
L 303.689929 225.575339 
L 304.095393 225.575339 
L 304.217032 224.465615 
L 305.068505 224.465615 
L 305.190144 223.35589 
L 305.919978 223.35589 
L 306.041617 222.246165 
L 307.744564 222.246165 
L 307.866203 221.13644 
L 309.44751 221.13644 
L 309.569149 220.026716 
L 310.461168 220.026716 
L 310.582807 218.916991 
L 313.218319 218.916991 
L 313.339958 217.807266 
L 313.583236 217.807266 
L 313.704876 216.697541 
L 315.002358 216.697541 
L 315.123997 215.587817 
L 315.529461 215.587817 
L 315.6511 214.478092 
L 315.894378 214.478092 
L 316.016017 213.368367 
L 316.462027 213.368367 
L 316.583666 212.258642 
L 318.570436 212.258642 
L 318.692075 211.148917 
L 319.30027 211.148917 
L 319.421909 210.039193 
L 321.611412 210.039193 
L 321.733051 208.929468 
L 322.179061 208.929468 
L 322.3007 207.819743 
L 323.598182 207.819743 
L 323.719822 206.710018 
L 325.017304 206.710018 
L 325.138943 205.600294 
L 326.112056 205.600294 
L 326.233695 204.490569 
L 326.598612 204.490569 
L 326.720251 203.380844 
L 327.16626 203.380844 
L 327.287899 202.271119 
L 328.544836 202.271119 
L 328.666475 201.161394 
L 328.909753 201.161394 
L 329.031392 200.05167 
L 329.477402 200.05167 
L 329.599041 198.941945 
L 330.247782 198.941945 
L 330.369421 197.83222 
L 330.612699 197.83222 
L 330.734338 196.722495 
L 330.93707 196.722495 
L 331.058709 195.612771 
L 331.220894 195.612771 
L 331.342533 194.503046 
L 332.072368 194.503046 
L 332.194007 193.393321 
L 332.477831 193.393321 
L 332.59947 192.283596 
L 333.248211 192.283596 
L 333.36985 191.173872 
L 333.856407 191.173872 
L 333.978046 190.064147 
L 334.829519 190.064147 
L 334.951158 188.954422 
L 335.153889 188.954422 
L 335.275528 187.844697 
L 335.762085 187.844697 
L 335.883724 186.734972 
L 339.086884 186.734972 
L 339.208523 185.625248 
L 339.532894 185.625248 
L 339.654533 184.515523 
L 341.68185 184.515523 
L 341.803489 183.405798 
L 342.087314 183.405798 
L 342.208953 182.296073 
L 342.736055 182.296073 
L 342.857694 181.186349 
L 343.182065 181.186349 
L 343.303704 180.076624 
L 344.56064 180.076624 
L 344.682279 178.966899 
L 344.844465 178.966899 
L 344.966104 177.857174 
L 346.304133 177.857174 
L 346.425772 176.74745 
L 347.56107 176.74745 
L 347.682709 175.637725 
L 347.88544 175.637725 
L 348.007079 174.528 
L 348.33145 174.528 
L 348.453089 173.418275 
L 348.696367 173.418275 
L 348.818006 172.30855 
L 348.980191 172.30855 
L 349.10183 171.198826 
L 349.264016 171.198826 
L 349.385655 170.089101 
L 350.156035 170.089101 
L 350.277674 168.979376 
L 350.43986 168.979376 
L 350.561499 167.869651 
L 351.453518 167.869651 
L 351.575157 166.759927 
L 351.737343 166.759927 
L 351.858982 165.650202 
L 352.183352 165.650202 
L 352.304991 164.540477 
L 352.467177 164.540477 
L 352.588816 163.430752 
L 352.953733 163.430752 
L 353.075372 162.321028 
L 353.724113 162.321028 
L 353.845752 161.211303 
L 354.170123 161.211303 
L 354.291762 160.101578 
L 354.737772 160.101578 
L 354.859411 158.991853 
L 356.319079 158.991853 
L 356.440718 157.882128 
L 356.724542 157.882128 
L 356.846181 156.772404 
L 357.900386 156.772404 
L 358.022025 155.662679 
L 358.792406 155.662679 
L 358.914045 154.552954 
L 359.07623 154.552954 
L 359.197869 153.443229 
L 359.481694 153.443229 
L 359.603333 152.333505 
L 361.063001 152.333505 
L 361.18464 151.22378 
L 361.427918 151.22378 
L 361.549557 150.114055 
L 363.698513 150.114055 
L 363.820152 149.00433 
L 364.428347 149.00433 
L 364.549986 147.894606 
L 366.982766 147.894606 
L 367.104405 146.784881 
L 367.307137 146.784881 
L 367.428776 145.675156 
L 367.672054 145.675156 
L 367.793693 144.565431 
L 368.60462 144.565431 
L 368.726259 143.455706 
L 371.077947 143.455706 
L 371.199586 142.345982 
L 371.402318 142.345982 
L 371.523957 141.236257 
L 372.659254 141.236257 
L 372.780893 140.126532 
L 373.024171 140.126532 
L 373.14581 139.016807 
L 373.551274 139.016807 
L 373.672913 137.907083 
L 373.956737 137.907083 
L 374.078376 136.797358 
L 374.80821 136.797358 
L 374.929849 135.687633 
L 375.902961 135.687633 
L 376.0246 134.577908 
L 376.430064 134.577908 
L 376.551703 133.468183 
L 376.835527 133.468183 
L 376.957166 132.358459 
L 377.119351 132.358459 
L 377.24099 131.248734 
L 377.524815 131.248734 
L 377.646454 130.139009 
L 378.416834 130.139009 
L 378.538473 129.029284 
L 378.741205 129.029284 
L 378.862844 127.91956 
L 380.079234 127.91956 
L 380.200873 126.809835 
L 380.849615 126.809835 
L 380.971254 125.70011 
L 381.863273 125.70011 
L 381.984912 124.590385 
L 382.958024 124.590385 
L 383.079663 123.480661 
L 384.012229 123.480661 
L 384.133868 122.370936 
L 384.296054 122.370936 
L 384.417693 121.261211 
L 386.566649 121.261211 
L 386.688288 120.151486 
L 389.080522 120.151486 
L 389.202161 119.041761 
L 390.013088 119.041761 
L 390.134727 117.932037 
L 390.296912 117.932037 
L 390.418551 116.822312 
L 390.945653 116.822312 
L 391.067292 115.712587 
L 391.837673 115.712587 
L 391.959312 114.602862 
L 392.162044 114.602862 
L 392.283683 113.493138 
L 392.486414 113.493138 
L 392.608053 112.383413 
L 392.810785 112.383413 
L 392.932424 111.273688 
L 393.540619 111.273688 
L 393.662258 110.163963 
L 394.63537 110.163963 
L 394.757009 109.054239 
L 397.919624 109.054239 
L 398.041263 107.944514 
L 398.487273 107.944514 
L 398.487273 107.944514 
" style="fill:none;stroke:#ff7f0e;stroke-linecap:square;stroke-width:1.5;"/>
   </g>
   <g id="patch_3">
    <path d="M 57.6 307.584 
L 57.6 41.472 
" style="fill:none;stroke:#000000;stroke-linecap:square;stroke-linejoin:miter;stroke-width:0.8;"/>
   </g>
   <g id="patch_4">
    <path d="M 414.72 307.584 
L 414.72 41.472 
" style="fill:none;stroke:#000000;stroke-linecap:square;stroke-linejoin:miter;stroke-width:0.8;"/>
   </g>
   <g id="patch_5">
    <path d="M 57.6 307.584 
L 414.72 307.584 
" style="fill:none;stroke:#000000;stroke-linecap:square;stroke-linejoin:miter;stroke-width:0.8;"/>
   </g>
   <g id="patch_6">
    <path d="M 57.6 41.472 
L 414.72 41.472 
" style="fill:none;stroke:#000000;stroke-linecap:square;stroke-linejoin:miter;stroke-width:0.8;"/>
   </g>
   <g id="legend_1">
    <g id="patch_7">
     <path d="M 64.6 78.82825 
L 153.689063 78.82825 
Q 155.689063 78.82825 155.689063 76.82825 
L 155.689063 48.472 
Q 155.689063 46.472 153.689063 46.472 
L 64.6 46.472 
Q 62.6 46.472 62.6 48.472 
L 62.6 76.82825 
Q 62.6 78.82825 64.6 78.82825 
z
" style="fill:#ffffff;opacity:0.8;stroke:#cccccc;stroke-linejoin:miter;"/>
    </g>
    <g id="line2d_17">
     <path d="M 66.6 54.570437 
L 86.6 54.570437 
" style="fill:none;stroke:#1f77b4;stroke-linecap:square;stroke-width:1.5;"/>
    </g>
    <g id="line2d_18"/>
    <g id="text_17">
     <!-- # actions 8 -->
     <g transform="translate(94.6 58.070437)scale(0.1 -0.1)">
      <defs>
       <path d="M 51.125 44 
L 36.921875 44 
L 32.8125 27.6875 
L 47.125 27.6875 
z
M 43.796875 71.78125 
L 38.71875 51.515625 
L 52.984375 51.515625 
L 58.109375 71.78125 
L 65.921875 71.78125 
L 60.890625 51.515625 
L 76.125 51.515625 
L 76.125 44 
L 58.984375 44 
L 54.984375 27.6875 
L 70.515625 27.6875 
L 70.515625 20.21875 
L 53.078125 20.21875 
L 48 0 
L 40.1875 0 
L 45.21875 20.21875 
L 30.90625 20.21875 
L 25.875 0 
L 18.015625 0 
L 23.09375 20.21875 
L 7.71875 20.21875 
L 7.71875 27.6875 
L 24.90625 27.6875 
L 29 44 
L 13.28125 44 
L 13.28125 51.515625 
L 30.90625 51.515625 
L 35.890625 71.78125 
z
" id="DejaVuSans-35"/>
       <path d="M 34.28125 27.484375 
Q 23.390625 27.484375 19.1875 25 
Q 14.984375 22.515625 14.984375 16.5 
Q 14.984375 11.71875 18.140625 8.90625 
Q 21.296875 6.109375 26.703125 6.109375 
Q 34.1875 6.109375 38.703125 11.40625 
Q 43.21875 16.703125 43.21875 25.484375 
L 43.21875 27.484375 
z
M 52.203125 31.203125 
L 52.203125 0 
L 43.21875 0 
L 43.21875 8.296875 
Q 40.140625 3.328125 35.546875 0.953125 
Q 30.953125 -1.421875 24.3125 -1.421875 
Q 15.921875 -1.421875 10.953125 3.296875 
Q 6 8.015625 6 15.921875 
Q 6 25.140625 12.171875 29.828125 
Q 18.359375 34.515625 30.609375 34.515625 
L 43.21875 34.515625 
L 43.21875 35.40625 
Q 43.21875 41.609375 39.140625 45 
Q 35.0625 48.390625 27.6875 48.390625 
Q 23 48.390625 18.546875 47.265625 
Q 14.109375 46.140625 10.015625 43.890625 
L 10.015625 52.203125 
Q 14.9375 54.109375 19.578125 55.046875 
Q 24.21875 56 28.609375 56 
Q 40.484375 56 46.34375 49.84375 
Q 52.203125 43.703125 52.203125 31.203125 
z
" id="DejaVuSans-97"/>
       <path d="M 48.78125 52.59375 
L 48.78125 44.1875 
Q 44.96875 46.296875 41.140625 47.34375 
Q 37.3125 48.390625 33.40625 48.390625 
Q 24.65625 48.390625 19.8125 42.84375 
Q 14.984375 37.3125 14.984375 27.296875 
Q 14.984375 17.28125 19.8125 11.734375 
Q 24.65625 6.203125 33.40625 6.203125 
Q 37.3125 6.203125 41.140625 7.25 
Q 44.96875 8.296875 48.78125 10.40625 
L 48.78125 2.09375 
Q 45.015625 0.34375 40.984375 -0.53125 
Q 36.96875 -1.421875 32.421875 -1.421875 
Q 20.0625 -1.421875 12.78125 6.34375 
Q 5.515625 14.109375 5.515625 27.296875 
Q 5.515625 40.671875 12.859375 48.328125 
Q 20.21875 56 33.015625 56 
Q 37.15625 56 41.109375 55.140625 
Q 45.0625 54.296875 48.78125 52.59375 
z
" id="DejaVuSans-99"/>
       <path d="M 54.890625 33.015625 
L 54.890625 0 
L 45.90625 0 
L 45.90625 32.71875 
Q 45.90625 40.484375 42.875 44.328125 
Q 39.84375 48.1875 33.796875 48.1875 
Q 26.515625 48.1875 22.3125 43.546875 
Q 18.109375 38.921875 18.109375 30.90625 
L 18.109375 0 
L 9.078125 0 
L 9.078125 54.6875 
L 18.109375 54.6875 
L 18.109375 46.1875 
Q 21.34375 51.125 25.703125 53.5625 
Q 30.078125 56 35.796875 56 
Q 45.21875 56 50.046875 50.171875 
Q 54.890625 44.34375 54.890625 33.015625 
z
" id="DejaVuSans-110"/>
      </defs>
      <use xlink:href="#DejaVuSans-35"/>
      <use x="83.789062" xlink:href="#DejaVuSans-32"/>
      <use x="115.576172" xlink:href="#DejaVuSans-97"/>
      <use x="176.855469" xlink:href="#DejaVuSans-99"/>
      <use x="231.835938" xlink:href="#DejaVuSans-116"/>
      <use x="271.044922" xlink:href="#DejaVuSans-105"/>
      <use x="298.828125" xlink:href="#DejaVuSans-111"/>
      <use x="360.009766" xlink:href="#DejaVuSans-110"/>
      <use x="423.388672" xlink:href="#DejaVuSans-115"/>
      <use x="475.488281" xlink:href="#DejaVuSans-32"/>
      <use x="507.275391" xlink:href="#DejaVuSans-56"/>
     </g>
    </g>
    <g id="line2d_19">
     <path d="M 66.6 69.248562 
L 86.6 69.248562 
" style="fill:none;stroke:#ff7f0e;stroke-linecap:square;stroke-width:1.5;"/>
    </g>
    <g id="line2d_20"/>
    <g id="text_18">
     <!-- # actions 9 -->
     <g transform="translate(94.6 72.748562)scale(0.1 -0.1)">
      <defs>
       <path d="M 10.984375 1.515625 
L 10.984375 10.5 
Q 14.703125 8.734375 18.5 7.8125 
Q 22.3125 6.890625 25.984375 6.890625 
Q 35.75 6.890625 40.890625 13.453125 
Q 46.046875 20.015625 46.78125 33.40625 
Q 43.953125 29.203125 39.59375 26.953125 
Q 35.25 24.703125 29.984375 24.703125 
Q 19.046875 24.703125 12.671875 31.3125 
Q 6.296875 37.9375 6.296875 49.421875 
Q 6.296875 60.640625 12.9375 67.421875 
Q 19.578125 74.21875 30.609375 74.21875 
Q 43.265625 74.21875 49.921875 64.515625 
Q 56.59375 54.828125 56.59375 36.375 
Q 56.59375 19.140625 48.40625 8.859375 
Q 40.234375 -1.421875 26.421875 -1.421875 
Q 22.703125 -1.421875 18.890625 -0.6875 
Q 15.09375 0.046875 10.984375 1.515625 
z
M 30.609375 32.421875 
Q 37.25 32.421875 41.125 36.953125 
Q 45.015625 41.5 45.015625 49.421875 
Q 45.015625 57.28125 41.125 61.84375 
Q 37.25 66.40625 30.609375 66.40625 
Q 23.96875 66.40625 20.09375 61.84375 
Q 16.21875 57.28125 16.21875 49.421875 
Q 16.21875 41.5 20.09375 36.953125 
Q 23.96875 32.421875 30.609375 32.421875 
z
" id="DejaVuSans-57"/>
      </defs>
      <use xlink:href="#DejaVuSans-35"/>
      <use x="83.789062" xlink:href="#DejaVuSans-32"/>
      <use x="115.576172" xlink:href="#DejaVuSans-97"/>
      <use x="176.855469" xlink:href="#DejaVuSans-99"/>
      <use x="231.835938" xlink:href="#DejaVuSans-116"/>
      <use x="271.044922" xlink:href="#DejaVuSans-105"/>
      <use x="298.828125" xlink:href="#DejaVuSans-111"/>
      <use x="360.009766" xlink:href="#DejaVuSans-110"/>
      <use x="423.388672" xlink:href="#DejaVuSans-115"/>
      <use x="475.488281" xlink:href="#DejaVuSans-32"/>
      <use x="507.275391" xlink:href="#DejaVuSans-57"/>
     </g>
    </g>
   </g>
  </g>
 </g>
 <defs>
  <clipPath id="p2fc47b1000">
   <rect height="266.112" width="357.12" x="57.6" y="41.472"/>
  </clipPath>
 </defs>
</svg>
