<?xml version="1.0" encoding="utf-8" standalone="no"?>
<!DOCTYPE svg PUBLIC "-//W3C//DTD SVG 1.1//EN"
  "http://www.w3.org/Graphics/SVG/1.1/DTD/svg11.dtd">
<!-- Created with matplotlib (https://matplotlib.org/) -->
<svg height="345.6pt" version="1.1" viewBox="0 0 460.8 345.6" width="460.8pt" xmlns="http://www.w3.org/2000/svg" xmlns:xlink="http://www.w3.org/1999/xlink">
 <metadata>
  <rdf:RDF xmlns:cc="http://creativecommons.org/ns#" xmlns:dc="http://purl.org/dc/elements/1.1/" xmlns:rdf="http://www.w3.org/1999/02/22-rdf-syntax-ns#">
   <cc:Work>
    <dc:type rdf:resource="http://purl.org/dc/dcmitype/StillImage"/>
    <dc:date>2021-08-23T16:18:58.570948</dc:date>
    <dc:format>image/svg+xml</dc:format>
    <dc:creator>
     <cc:Agent>
      <dc:title>Matplotlib v3.3.4, https://matplotlib.org/</dc:title>
     </cc:Agent>
    </dc:creator>
   </cc:Work>
  </rdf:RDF>
 </metadata>
 <defs>
  <style type="text/css">*{stroke-linecap:butt;stroke-linejoin:round;}</style>
 </defs>
 <g id="figure_1">
  <g id="patch_1">
   <path d="M 0 345.6 
L 460.8 345.6 
L 460.8 0 
L 0 0 
z
" style="fill:#ffffff;"/>
  </g>
  <g id="axes_1">
   <g id="patch_2">
    <path d="M 57.6 307.584 
L 414.72 307.584 
L 414.72 41.472 
L 57.6 41.472 
z
" style="fill:#ffffff;"/>
   </g>
   <g id="matplotlib.axis_1">
    <g id="xtick_1">
     <g id="line2d_1">
      <defs>
       <path d="M 0 0 
L 0 3.5 
" id="m3ead570a23" style="stroke:#000000;stroke-width:0.8;"/>
      </defs>
      <g>
       <use style="stroke:#000000;stroke-width:0.8;" x="73.832727" xlink:href="#m3ead570a23" y="307.584"/>
      </g>
     </g>
     <g id="text_1">
      <!-- 0 -->
      <g transform="translate(70.651477 322.182437)scale(0.1 -0.1)">
       <defs>
        <path d="M 31.78125 66.40625 
Q 24.171875 66.40625 20.328125 58.90625 
Q 16.5 51.421875 16.5 36.375 
Q 16.5 21.390625 20.328125 13.890625 
Q 24.171875 6.390625 31.78125 6.390625 
Q 39.453125 6.390625 43.28125 13.890625 
Q 47.125 21.390625 47.125 36.375 
Q 47.125 51.421875 43.28125 58.90625 
Q 39.453125 66.40625 31.78125 66.40625 
z
M 31.78125 74.21875 
Q 44.046875 74.21875 50.515625 64.515625 
Q 56.984375 54.828125 56.984375 36.375 
Q 56.984375 17.96875 50.515625 8.265625 
Q 44.046875 -1.421875 31.78125 -1.421875 
Q 19.53125 -1.421875 13.0625 8.265625 
Q 6.59375 17.96875 6.59375 36.375 
Q 6.59375 54.828125 13.0625 64.515625 
Q 19.53125 74.21875 31.78125 74.21875 
z
" id="DejaVuSans-48"/>
       </defs>
       <use xlink:href="#DejaVuSans-48"/>
      </g>
     </g>
    </g>
    <g id="xtick_2">
     <g id="line2d_2">
      <g>
       <use style="stroke:#000000;stroke-width:0.8;" x="128.122785" xlink:href="#m3ead570a23" y="307.584"/>
      </g>
     </g>
     <g id="text_2">
      <!-- 50 -->
      <g transform="translate(121.760285 322.182437)scale(0.1 -0.1)">
       <defs>
        <path d="M 10.796875 72.90625 
L 49.515625 72.90625 
L 49.515625 64.59375 
L 19.828125 64.59375 
L 19.828125 46.734375 
Q 21.96875 47.46875 24.109375 47.828125 
Q 26.265625 48.1875 28.421875 48.1875 
Q 40.625 48.1875 47.75 41.5 
Q 54.890625 34.8125 54.890625 23.390625 
Q 54.890625 11.625 47.5625 5.09375 
Q 40.234375 -1.421875 26.90625 -1.421875 
Q 22.3125 -1.421875 17.546875 -0.640625 
Q 12.796875 0.140625 7.71875 1.703125 
L 7.71875 11.625 
Q 12.109375 9.234375 16.796875 8.0625 
Q 21.484375 6.890625 26.703125 6.890625 
Q 35.15625 6.890625 40.078125 11.328125 
Q 45.015625 15.765625 45.015625 23.390625 
Q 45.015625 31 40.078125 35.4375 
Q 35.15625 39.890625 26.703125 39.890625 
Q 22.75 39.890625 18.8125 39.015625 
Q 14.890625 38.140625 10.796875 36.28125 
z
" id="DejaVuSans-53"/>
       </defs>
       <use xlink:href="#DejaVuSans-53"/>
       <use x="63.623047" xlink:href="#DejaVuSans-48"/>
      </g>
     </g>
    </g>
    <g id="xtick_3">
     <g id="line2d_3">
      <g>
       <use style="stroke:#000000;stroke-width:0.8;" x="182.412843" xlink:href="#m3ead570a23" y="307.584"/>
      </g>
     </g>
     <g id="text_3">
      <!-- 100 -->
      <g transform="translate(172.869093 322.182437)scale(0.1 -0.1)">
       <defs>
        <path d="M 12.40625 8.296875 
L 28.515625 8.296875 
L 28.515625 63.921875 
L 10.984375 60.40625 
L 10.984375 69.390625 
L 28.421875 72.90625 
L 38.28125 72.90625 
L 38.28125 8.296875 
L 54.390625 8.296875 
L 54.390625 0 
L 12.40625 0 
z
" id="DejaVuSans-49"/>
       </defs>
       <use xlink:href="#DejaVuSans-49"/>
       <use x="63.623047" xlink:href="#DejaVuSans-48"/>
       <use x="127.246094" xlink:href="#DejaVuSans-48"/>
      </g>
     </g>
    </g>
    <g id="xtick_4">
     <g id="line2d_4">
      <g>
       <use style="stroke:#000000;stroke-width:0.8;" x="236.702901" xlink:href="#m3ead570a23" y="307.584"/>
      </g>
     </g>
     <g id="text_4">
      <!-- 150 -->
      <g transform="translate(227.159151 322.182437)scale(0.1 -0.1)">
       <use xlink:href="#DejaVuSans-49"/>
       <use x="63.623047" xlink:href="#DejaVuSans-53"/>
       <use x="127.246094" xlink:href="#DejaVuSans-48"/>
      </g>
     </g>
    </g>
    <g id="xtick_5">
     <g id="line2d_5">
      <g>
       <use style="stroke:#000000;stroke-width:0.8;" x="290.992958" xlink:href="#m3ead570a23" y="307.584"/>
      </g>
     </g>
     <g id="text_5">
      <!-- 200 -->
      <g transform="translate(281.449208 322.182437)scale(0.1 -0.1)">
       <defs>
        <path d="M 19.1875 8.296875 
L 53.609375 8.296875 
L 53.609375 0 
L 7.328125 0 
L 7.328125 8.296875 
Q 12.9375 14.109375 22.625 23.890625 
Q 32.328125 33.6875 34.8125 36.53125 
Q 39.546875 41.84375 41.421875 45.53125 
Q 43.3125 49.21875 43.3125 52.78125 
Q 43.3125 58.59375 39.234375 62.25 
Q 35.15625 65.921875 28.609375 65.921875 
Q 23.96875 65.921875 18.8125 64.3125 
Q 13.671875 62.703125 7.8125 59.421875 
L 7.8125 69.390625 
Q 13.765625 71.78125 18.9375 73 
Q 24.125 74.21875 28.421875 74.21875 
Q 39.75 74.21875 46.484375 68.546875 
Q 53.21875 62.890625 53.21875 53.421875 
Q 53.21875 48.921875 51.53125 44.890625 
Q 49.859375 40.875 45.40625 35.40625 
Q 44.1875 33.984375 37.640625 27.21875 
Q 31.109375 20.453125 19.1875 8.296875 
z
" id="DejaVuSans-50"/>
       </defs>
       <use xlink:href="#DejaVuSans-50"/>
       <use x="63.623047" xlink:href="#DejaVuSans-48"/>
       <use x="127.246094" xlink:href="#DejaVuSans-48"/>
      </g>
     </g>
    </g>
    <g id="xtick_6">
     <g id="line2d_6">
      <g>
       <use style="stroke:#000000;stroke-width:0.8;" x="345.283016" xlink:href="#m3ead570a23" y="307.584"/>
      </g>
     </g>
     <g id="text_6">
      <!-- 250 -->
      <g transform="translate(335.739266 322.182437)scale(0.1 -0.1)">
       <use xlink:href="#DejaVuSans-50"/>
       <use x="63.623047" xlink:href="#DejaVuSans-53"/>
       <use x="127.246094" xlink:href="#DejaVuSans-48"/>
      </g>
     </g>
    </g>
    <g id="xtick_7">
     <g id="line2d_7">
      <g>
       <use style="stroke:#000000;stroke-width:0.8;" x="399.573074" xlink:href="#m3ead570a23" y="307.584"/>
      </g>
     </g>
     <g id="text_7">
      <!-- 300 -->
      <g transform="translate(390.029324 322.182437)scale(0.1 -0.1)">
       <defs>
        <path d="M 40.578125 39.3125 
Q 47.65625 37.796875 51.625 33 
Q 55.609375 28.21875 55.609375 21.1875 
Q 55.609375 10.40625 48.1875 4.484375 
Q 40.765625 -1.421875 27.09375 -1.421875 
Q 22.515625 -1.421875 17.65625 -0.515625 
Q 12.796875 0.390625 7.625 2.203125 
L 7.625 11.71875 
Q 11.71875 9.328125 16.59375 8.109375 
Q 21.484375 6.890625 26.8125 6.890625 
Q 36.078125 6.890625 40.9375 10.546875 
Q 45.796875 14.203125 45.796875 21.1875 
Q 45.796875 27.640625 41.28125 31.265625 
Q 36.765625 34.90625 28.71875 34.90625 
L 20.21875 34.90625 
L 20.21875 43.015625 
L 29.109375 43.015625 
Q 36.375 43.015625 40.234375 45.921875 
Q 44.09375 48.828125 44.09375 54.296875 
Q 44.09375 59.90625 40.109375 62.90625 
Q 36.140625 65.921875 28.71875 65.921875 
Q 24.65625 65.921875 20.015625 65.03125 
Q 15.375 64.15625 9.8125 62.3125 
L 9.8125 71.09375 
Q 15.4375 72.65625 20.34375 73.4375 
Q 25.25 74.21875 29.59375 74.21875 
Q 40.828125 74.21875 47.359375 69.109375 
Q 53.90625 64.015625 53.90625 55.328125 
Q 53.90625 49.265625 50.4375 45.09375 
Q 46.96875 40.921875 40.578125 39.3125 
z
" id="DejaVuSans-51"/>
       </defs>
       <use xlink:href="#DejaVuSans-51"/>
       <use x="63.623047" xlink:href="#DejaVuSans-48"/>
       <use x="127.246094" xlink:href="#DejaVuSans-48"/>
      </g>
     </g>
    </g>
    <g id="text_8">
     <!-- Episodes -->
     <g transform="translate(213.917812 335.860562)scale(0.1 -0.1)">
      <defs>
       <path d="M 9.8125 72.90625 
L 55.90625 72.90625 
L 55.90625 64.59375 
L 19.671875 64.59375 
L 19.671875 43.015625 
L 54.390625 43.015625 
L 54.390625 34.71875 
L 19.671875 34.71875 
L 19.671875 8.296875 
L 56.78125 8.296875 
L 56.78125 0 
L 9.8125 0 
z
" id="DejaVuSans-69"/>
       <path d="M 18.109375 8.203125 
L 18.109375 -20.796875 
L 9.078125 -20.796875 
L 9.078125 54.6875 
L 18.109375 54.6875 
L 18.109375 46.390625 
Q 20.953125 51.265625 25.265625 53.625 
Q 29.59375 56 35.59375 56 
Q 45.5625 56 51.78125 48.09375 
Q 58.015625 40.1875 58.015625 27.296875 
Q 58.015625 14.40625 51.78125 6.484375 
Q 45.5625 -1.421875 35.59375 -1.421875 
Q 29.59375 -1.421875 25.265625 0.953125 
Q 20.953125 3.328125 18.109375 8.203125 
z
M 48.6875 27.296875 
Q 48.6875 37.203125 44.609375 42.84375 
Q 40.53125 48.484375 33.40625 48.484375 
Q 26.265625 48.484375 22.1875 42.84375 
Q 18.109375 37.203125 18.109375 27.296875 
Q 18.109375 17.390625 22.1875 11.75 
Q 26.265625 6.109375 33.40625 6.109375 
Q 40.53125 6.109375 44.609375 11.75 
Q 48.6875 17.390625 48.6875 27.296875 
z
" id="DejaVuSans-112"/>
       <path d="M 9.421875 54.6875 
L 18.40625 54.6875 
L 18.40625 0 
L 9.421875 0 
z
M 9.421875 75.984375 
L 18.40625 75.984375 
L 18.40625 64.59375 
L 9.421875 64.59375 
z
" id="DejaVuSans-105"/>
       <path d="M 44.28125 53.078125 
L 44.28125 44.578125 
Q 40.484375 46.53125 36.375 47.5 
Q 32.28125 48.484375 27.875 48.484375 
Q 21.1875 48.484375 17.84375 46.4375 
Q 14.5 44.390625 14.5 40.28125 
Q 14.5 37.15625 16.890625 35.375 
Q 19.28125 33.59375 26.515625 31.984375 
L 29.59375 31.296875 
Q 39.15625 29.25 43.1875 25.515625 
Q 47.21875 21.78125 47.21875 15.09375 
Q 47.21875 7.46875 41.1875 3.015625 
Q 35.15625 -1.421875 24.609375 -1.421875 
Q 20.21875 -1.421875 15.453125 -0.5625 
Q 10.6875 0.296875 5.421875 2 
L 5.421875 11.28125 
Q 10.40625 8.6875 15.234375 7.390625 
Q 20.0625 6.109375 24.8125 6.109375 
Q 31.15625 6.109375 34.5625 8.28125 
Q 37.984375 10.453125 37.984375 14.40625 
Q 37.984375 18.0625 35.515625 20.015625 
Q 33.0625 21.96875 24.703125 23.78125 
L 21.578125 24.515625 
Q 13.234375 26.265625 9.515625 29.90625 
Q 5.8125 33.546875 5.8125 39.890625 
Q 5.8125 47.609375 11.28125 51.796875 
Q 16.75 56 26.8125 56 
Q 31.78125 56 36.171875 55.265625 
Q 40.578125 54.546875 44.28125 53.078125 
z
" id="DejaVuSans-115"/>
       <path d="M 30.609375 48.390625 
Q 23.390625 48.390625 19.1875 42.75 
Q 14.984375 37.109375 14.984375 27.296875 
Q 14.984375 17.484375 19.15625 11.84375 
Q 23.34375 6.203125 30.609375 6.203125 
Q 37.796875 6.203125 41.984375 11.859375 
Q 46.1875 17.53125 46.1875 27.296875 
Q 46.1875 37.015625 41.984375 42.703125 
Q 37.796875 48.390625 30.609375 48.390625 
z
M 30.609375 56 
Q 42.328125 56 49.015625 48.375 
Q 55.71875 40.765625 55.71875 27.296875 
Q 55.71875 13.875 49.015625 6.21875 
Q 42.328125 -1.421875 30.609375 -1.421875 
Q 18.84375 -1.421875 12.171875 6.21875 
Q 5.515625 13.875 5.515625 27.296875 
Q 5.515625 40.765625 12.171875 48.375 
Q 18.84375 56 30.609375 56 
z
" id="DejaVuSans-111"/>
       <path d="M 45.40625 46.390625 
L 45.40625 75.984375 
L 54.390625 75.984375 
L 54.390625 0 
L 45.40625 0 
L 45.40625 8.203125 
Q 42.578125 3.328125 38.25 0.953125 
Q 33.9375 -1.421875 27.875 -1.421875 
Q 17.96875 -1.421875 11.734375 6.484375 
Q 5.515625 14.40625 5.515625 27.296875 
Q 5.515625 40.1875 11.734375 48.09375 
Q 17.96875 56 27.875 56 
Q 33.9375 56 38.25 53.625 
Q 42.578125 51.265625 45.40625 46.390625 
z
M 14.796875 27.296875 
Q 14.796875 17.390625 18.875 11.75 
Q 22.953125 6.109375 30.078125 6.109375 
Q 37.203125 6.109375 41.296875 11.75 
Q 45.40625 17.390625 45.40625 27.296875 
Q 45.40625 37.203125 41.296875 42.84375 
Q 37.203125 48.484375 30.078125 48.484375 
Q 22.953125 48.484375 18.875 42.84375 
Q 14.796875 37.203125 14.796875 27.296875 
z
" id="DejaVuSans-100"/>
       <path d="M 56.203125 29.59375 
L 56.203125 25.203125 
L 14.890625 25.203125 
Q 15.484375 15.921875 20.484375 11.0625 
Q 25.484375 6.203125 34.421875 6.203125 
Q 39.59375 6.203125 44.453125 7.46875 
Q 49.3125 8.734375 54.109375 11.28125 
L 54.109375 2.78125 
Q 49.265625 0.734375 44.1875 -0.34375 
Q 39.109375 -1.421875 33.890625 -1.421875 
Q 20.796875 -1.421875 13.15625 6.1875 
Q 5.515625 13.8125 5.515625 26.8125 
Q 5.515625 40.234375 12.765625 48.109375 
Q 20.015625 56 32.328125 56 
Q 43.359375 56 49.78125 48.890625 
Q 56.203125 41.796875 56.203125 29.59375 
z
M 47.21875 32.234375 
Q 47.125 39.59375 43.09375 43.984375 
Q 39.0625 48.390625 32.421875 48.390625 
Q 24.90625 48.390625 20.390625 44.140625 
Q 15.875 39.890625 15.1875 32.171875 
z
" id="DejaVuSans-101"/>
      </defs>
      <use xlink:href="#DejaVuSans-69"/>
      <use x="63.183594" xlink:href="#DejaVuSans-112"/>
      <use x="126.660156" xlink:href="#DejaVuSans-105"/>
      <use x="154.443359" xlink:href="#DejaVuSans-115"/>
      <use x="206.542969" xlink:href="#DejaVuSans-111"/>
      <use x="267.724609" xlink:href="#DejaVuSans-100"/>
      <use x="331.201172" xlink:href="#DejaVuSans-101"/>
      <use x="392.724609" xlink:href="#DejaVuSans-115"/>
     </g>
    </g>
   </g>
   <g id="matplotlib.axis_2">
    <g id="ytick_1">
     <g id="line2d_8">
      <defs>
       <path d="M 0 0 
L -3.5 0 
" id="m86a6851154" style="stroke:#000000;stroke-width:0.8;"/>
      </defs>
      <g>
       <use style="stroke:#000000;stroke-width:0.8;" x="57.6" xlink:href="#m86a6851154" y="257.61554"/>
      </g>
     </g>
     <g id="text_9">
      <!-- 20 -->
      <g transform="translate(37.875 261.414759)scale(0.1 -0.1)">
       <use xlink:href="#DejaVuSans-50"/>
       <use x="63.623047" xlink:href="#DejaVuSans-48"/>
      </g>
     </g>
    </g>
    <g id="ytick_2">
     <g id="line2d_9">
      <g>
       <use style="stroke:#000000;stroke-width:0.8;" x="57.6" xlink:href="#m86a6851154" y="202.407872"/>
      </g>
     </g>
     <g id="text_10">
      <!-- 40 -->
      <g transform="translate(37.875 206.207091)scale(0.1 -0.1)">
       <defs>
        <path d="M 37.796875 64.3125 
L 12.890625 25.390625 
L 37.796875 25.390625 
z
M 35.203125 72.90625 
L 47.609375 72.90625 
L 47.609375 25.390625 
L 58.015625 25.390625 
L 58.015625 17.1875 
L 47.609375 17.1875 
L 47.609375 0 
L 37.796875 0 
L 37.796875 17.1875 
L 4.890625 17.1875 
L 4.890625 26.703125 
z
" id="DejaVuSans-52"/>
       </defs>
       <use xlink:href="#DejaVuSans-52"/>
       <use x="63.623047" xlink:href="#DejaVuSans-48"/>
      </g>
     </g>
    </g>
    <g id="ytick_3">
     <g id="line2d_10">
      <g>
       <use style="stroke:#000000;stroke-width:0.8;" x="57.6" xlink:href="#m86a6851154" y="147.200204"/>
      </g>
     </g>
     <g id="text_11">
      <!-- 60 -->
      <g transform="translate(37.875 150.999423)scale(0.1 -0.1)">
       <defs>
        <path d="M 33.015625 40.375 
Q 26.375 40.375 22.484375 35.828125 
Q 18.609375 31.296875 18.609375 23.390625 
Q 18.609375 15.53125 22.484375 10.953125 
Q 26.375 6.390625 33.015625 6.390625 
Q 39.65625 6.390625 43.53125 10.953125 
Q 47.40625 15.53125 47.40625 23.390625 
Q 47.40625 31.296875 43.53125 35.828125 
Q 39.65625 40.375 33.015625 40.375 
z
M 52.59375 71.296875 
L 52.59375 62.3125 
Q 48.875 64.0625 45.09375 64.984375 
Q 41.3125 65.921875 37.59375 65.921875 
Q 27.828125 65.921875 22.671875 59.328125 
Q 17.53125 52.734375 16.796875 39.40625 
Q 19.671875 43.65625 24.015625 45.921875 
Q 28.375 48.1875 33.59375 48.1875 
Q 44.578125 48.1875 50.953125 41.515625 
Q 57.328125 34.859375 57.328125 23.390625 
Q 57.328125 12.15625 50.6875 5.359375 
Q 44.046875 -1.421875 33.015625 -1.421875 
Q 20.359375 -1.421875 13.671875 8.265625 
Q 6.984375 17.96875 6.984375 36.375 
Q 6.984375 53.65625 15.1875 63.9375 
Q 23.390625 74.21875 37.203125 74.21875 
Q 40.921875 74.21875 44.703125 73.484375 
Q 48.484375 72.75 52.59375 71.296875 
z
" id="DejaVuSans-54"/>
       </defs>
       <use xlink:href="#DejaVuSans-54"/>
       <use x="63.623047" xlink:href="#DejaVuSans-48"/>
      </g>
     </g>
    </g>
    <g id="ytick_4">
     <g id="line2d_11">
      <g>
       <use style="stroke:#000000;stroke-width:0.8;" x="57.6" xlink:href="#m86a6851154" y="91.992537"/>
      </g>
     </g>
     <g id="text_12">
      <!-- 80 -->
      <g transform="translate(37.875 95.791755)scale(0.1 -0.1)">
       <defs>
        <path d="M 31.78125 34.625 
Q 24.75 34.625 20.71875 30.859375 
Q 16.703125 27.09375 16.703125 20.515625 
Q 16.703125 13.921875 20.71875 10.15625 
Q 24.75 6.390625 31.78125 6.390625 
Q 38.8125 6.390625 42.859375 10.171875 
Q 46.921875 13.96875 46.921875 20.515625 
Q 46.921875 27.09375 42.890625 30.859375 
Q 38.875 34.625 31.78125 34.625 
z
M 21.921875 38.8125 
Q 15.578125 40.375 12.03125 44.71875 
Q 8.5 49.078125 8.5 55.328125 
Q 8.5 64.0625 14.71875 69.140625 
Q 20.953125 74.21875 31.78125 74.21875 
Q 42.671875 74.21875 48.875 69.140625 
Q 55.078125 64.0625 55.078125 55.328125 
Q 55.078125 49.078125 51.53125 44.71875 
Q 48 40.375 41.703125 38.8125 
Q 48.828125 37.15625 52.796875 32.3125 
Q 56.78125 27.484375 56.78125 20.515625 
Q 56.78125 9.90625 50.3125 4.234375 
Q 43.84375 -1.421875 31.78125 -1.421875 
Q 19.734375 -1.421875 13.25 4.234375 
Q 6.78125 9.90625 6.78125 20.515625 
Q 6.78125 27.484375 10.78125 32.3125 
Q 14.796875 37.15625 21.921875 38.8125 
z
M 18.3125 54.390625 
Q 18.3125 48.734375 21.84375 45.5625 
Q 25.390625 42.390625 31.78125 42.390625 
Q 38.140625 42.390625 41.71875 45.5625 
Q 45.3125 48.734375 45.3125 54.390625 
Q 45.3125 60.0625 41.71875 63.234375 
Q 38.140625 66.40625 31.78125 66.40625 
Q 25.390625 66.40625 21.84375 63.234375 
Q 18.3125 60.0625 18.3125 54.390625 
z
" id="DejaVuSans-56"/>
       </defs>
       <use xlink:href="#DejaVuSans-56"/>
       <use x="63.623047" xlink:href="#DejaVuSans-48"/>
      </g>
     </g>
    </g>
    <g id="text_13">
     <!-- % left actions from A -->
     <g transform="translate(31.795312 226.781906)rotate(-90)scale(0.1 -0.1)">
      <defs>
       <path d="M 72.703125 32.078125 
Q 68.453125 32.078125 66.03125 28.46875 
Q 63.625 24.859375 63.625 18.40625 
Q 63.625 12.0625 66.03125 8.421875 
Q 68.453125 4.78125 72.703125 4.78125 
Q 76.859375 4.78125 79.265625 8.421875 
Q 81.6875 12.0625 81.6875 18.40625 
Q 81.6875 24.8125 79.265625 28.4375 
Q 76.859375 32.078125 72.703125 32.078125 
z
M 72.703125 38.28125 
Q 80.421875 38.28125 84.953125 32.90625 
Q 89.5 27.546875 89.5 18.40625 
Q 89.5 9.28125 84.9375 3.921875 
Q 80.375 -1.421875 72.703125 -1.421875 
Q 64.890625 -1.421875 60.34375 3.921875 
Q 55.8125 9.28125 55.8125 18.40625 
Q 55.8125 27.59375 60.375 32.9375 
Q 64.9375 38.28125 72.703125 38.28125 
z
M 22.3125 68.015625 
Q 18.109375 68.015625 15.6875 64.375 
Q 13.28125 60.75 13.28125 54.390625 
Q 13.28125 47.953125 15.671875 44.328125 
Q 18.0625 40.71875 22.3125 40.71875 
Q 26.5625 40.71875 28.96875 44.328125 
Q 31.390625 47.953125 31.390625 54.390625 
Q 31.390625 60.6875 28.953125 64.34375 
Q 26.515625 68.015625 22.3125 68.015625 
z
M 66.40625 74.21875 
L 74.21875 74.21875 
L 28.609375 -1.421875 
L 20.796875 -1.421875 
z
M 22.3125 74.21875 
Q 30.03125 74.21875 34.609375 68.875 
Q 39.203125 63.53125 39.203125 54.390625 
Q 39.203125 45.171875 34.640625 39.84375 
Q 30.078125 34.515625 22.3125 34.515625 
Q 14.546875 34.515625 10.03125 39.859375 
Q 5.515625 45.21875 5.515625 54.390625 
Q 5.515625 63.484375 10.046875 68.84375 
Q 14.59375 74.21875 22.3125 74.21875 
z
" id="DejaVuSans-37"/>
       <path id="DejaVuSans-32"/>
       <path d="M 9.421875 75.984375 
L 18.40625 75.984375 
L 18.40625 0 
L 9.421875 0 
z
" id="DejaVuSans-108"/>
       <path d="M 37.109375 75.984375 
L 37.109375 68.5 
L 28.515625 68.5 
Q 23.6875 68.5 21.796875 66.546875 
Q 19.921875 64.59375 19.921875 59.515625 
L 19.921875 54.6875 
L 34.71875 54.6875 
L 34.71875 47.703125 
L 19.921875 47.703125 
L 19.921875 0 
L 10.890625 0 
L 10.890625 47.703125 
L 2.296875 47.703125 
L 2.296875 54.6875 
L 10.890625 54.6875 
L 10.890625 58.5 
Q 10.890625 67.625 15.140625 71.796875 
Q 19.390625 75.984375 28.609375 75.984375 
z
" id="DejaVuSans-102"/>
       <path d="M 18.3125 70.21875 
L 18.3125 54.6875 
L 36.8125 54.6875 
L 36.8125 47.703125 
L 18.3125 47.703125 
L 18.3125 18.015625 
Q 18.3125 11.328125 20.140625 9.421875 
Q 21.96875 7.515625 27.59375 7.515625 
L 36.8125 7.515625 
L 36.8125 0 
L 27.59375 0 
Q 17.1875 0 13.234375 3.875 
Q 9.28125 7.765625 9.28125 18.015625 
L 9.28125 47.703125 
L 2.6875 47.703125 
L 2.6875 54.6875 
L 9.28125 54.6875 
L 9.28125 70.21875 
z
" id="DejaVuSans-116"/>
       <path d="M 34.28125 27.484375 
Q 23.390625 27.484375 19.1875 25 
Q 14.984375 22.515625 14.984375 16.5 
Q 14.984375 11.71875 18.140625 8.90625 
Q 21.296875 6.109375 26.703125 6.109375 
Q 34.1875 6.109375 38.703125 11.40625 
Q 43.21875 16.703125 43.21875 25.484375 
L 43.21875 27.484375 
z
M 52.203125 31.203125 
L 52.203125 0 
L 43.21875 0 
L 43.21875 8.296875 
Q 40.140625 3.328125 35.546875 0.953125 
Q 30.953125 -1.421875 24.3125 -1.421875 
Q 15.921875 -1.421875 10.953125 3.296875 
Q 6 8.015625 6 15.921875 
Q 6 25.140625 12.171875 29.828125 
Q 18.359375 34.515625 30.609375 34.515625 
L 43.21875 34.515625 
L 43.21875 35.40625 
Q 43.21875 41.609375 39.140625 45 
Q 35.0625 48.390625 27.6875 48.390625 
Q 23 48.390625 18.546875 47.265625 
Q 14.109375 46.140625 10.015625 43.890625 
L 10.015625 52.203125 
Q 14.9375 54.109375 19.578125 55.046875 
Q 24.21875 56 28.609375 56 
Q 40.484375 56 46.34375 49.84375 
Q 52.203125 43.703125 52.203125 31.203125 
z
" id="DejaVuSans-97"/>
       <path d="M 48.78125 52.59375 
L 48.78125 44.1875 
Q 44.96875 46.296875 41.140625 47.34375 
Q 37.3125 48.390625 33.40625 48.390625 
Q 24.65625 48.390625 19.8125 42.84375 
Q 14.984375 37.3125 14.984375 27.296875 
Q 14.984375 17.28125 19.8125 11.734375 
Q 24.65625 6.203125 33.40625 6.203125 
Q 37.3125 6.203125 41.140625 7.25 
Q 44.96875 8.296875 48.78125 10.40625 
L 48.78125 2.09375 
Q 45.015625 0.34375 40.984375 -0.53125 
Q 36.96875 -1.421875 32.421875 -1.421875 
Q 20.0625 -1.421875 12.78125 6.34375 
Q 5.515625 14.109375 5.515625 27.296875 
Q 5.515625 40.671875 12.859375 48.328125 
Q 20.21875 56 33.015625 56 
Q 37.15625 56 41.109375 55.140625 
Q 45.0625 54.296875 48.78125 52.59375 
z
" id="DejaVuSans-99"/>
       <path d="M 54.890625 33.015625 
L 54.890625 0 
L 45.90625 0 
L 45.90625 32.71875 
Q 45.90625 40.484375 42.875 44.328125 
Q 39.84375 48.1875 33.796875 48.1875 
Q 26.515625 48.1875 22.3125 43.546875 
Q 18.109375 38.921875 18.109375 30.90625 
L 18.109375 0 
L 9.078125 0 
L 9.078125 54.6875 
L 18.109375 54.6875 
L 18.109375 46.1875 
Q 21.34375 51.125 25.703125 53.5625 
Q 30.078125 56 35.796875 56 
Q 45.21875 56 50.046875 50.171875 
Q 54.890625 44.34375 54.890625 33.015625 
z
" id="DejaVuSans-110"/>
       <path d="M 41.109375 46.296875 
Q 39.59375 47.171875 37.8125 47.578125 
Q 36.03125 48 33.890625 48 
Q 26.265625 48 22.1875 43.046875 
Q 18.109375 38.09375 18.109375 28.8125 
L 18.109375 0 
L 9.078125 0 
L 9.078125 54.6875 
L 18.109375 54.6875 
L 18.109375 46.1875 
Q 20.953125 51.171875 25.484375 53.578125 
Q 30.03125 56 36.53125 56 
Q 37.453125 56 38.578125 55.875 
Q 39.703125 55.765625 41.0625 55.515625 
z
" id="DejaVuSans-114"/>
       <path d="M 52 44.1875 
Q 55.375 50.25 60.0625 53.125 
Q 64.75 56 71.09375 56 
Q 79.640625 56 84.28125 50.015625 
Q 88.921875 44.046875 88.921875 33.015625 
L 88.921875 0 
L 79.890625 0 
L 79.890625 32.71875 
Q 79.890625 40.578125 77.09375 44.375 
Q 74.3125 48.1875 68.609375 48.1875 
Q 61.625 48.1875 57.5625 43.546875 
Q 53.515625 38.921875 53.515625 30.90625 
L 53.515625 0 
L 44.484375 0 
L 44.484375 32.71875 
Q 44.484375 40.625 41.703125 44.40625 
Q 38.921875 48.1875 33.109375 48.1875 
Q 26.21875 48.1875 22.15625 43.53125 
Q 18.109375 38.875 18.109375 30.90625 
L 18.109375 0 
L 9.078125 0 
L 9.078125 54.6875 
L 18.109375 54.6875 
L 18.109375 46.1875 
Q 21.1875 51.21875 25.484375 53.609375 
Q 29.78125 56 35.6875 56 
Q 41.65625 56 45.828125 52.96875 
Q 50 49.953125 52 44.1875 
z
" id="DejaVuSans-109"/>
       <path d="M 34.1875 63.1875 
L 20.796875 26.90625 
L 47.609375 26.90625 
z
M 28.609375 72.90625 
L 39.796875 72.90625 
L 67.578125 0 
L 57.328125 0 
L 50.6875 18.703125 
L 17.828125 18.703125 
L 11.1875 0 
L 0.78125 0 
z
" id="DejaVuSans-65"/>
      </defs>
      <use xlink:href="#DejaVuSans-37"/>
      <use x="95.019531" xlink:href="#DejaVuSans-32"/>
      <use x="126.806641" xlink:href="#DejaVuSans-108"/>
      <use x="154.589844" xlink:href="#DejaVuSans-101"/>
      <use x="216.113281" xlink:href="#DejaVuSans-102"/>
      <use x="249.568359" xlink:href="#DejaVuSans-116"/>
      <use x="288.777344" xlink:href="#DejaVuSans-32"/>
      <use x="320.564453" xlink:href="#DejaVuSans-97"/>
      <use x="381.84375" xlink:href="#DejaVuSans-99"/>
      <use x="436.824219" xlink:href="#DejaVuSans-116"/>
      <use x="476.033203" xlink:href="#DejaVuSans-105"/>
      <use x="503.816406" xlink:href="#DejaVuSans-111"/>
      <use x="564.998047" xlink:href="#DejaVuSans-110"/>
      <use x="628.376953" xlink:href="#DejaVuSans-115"/>
      <use x="680.476562" xlink:href="#DejaVuSans-32"/>
      <use x="712.263672" xlink:href="#DejaVuSans-102"/>
      <use x="747.46875" xlink:href="#DejaVuSans-114"/>
      <use x="786.332031" xlink:href="#DejaVuSans-111"/>
      <use x="847.513672" xlink:href="#DejaVuSans-109"/>
      <use x="944.925781" xlink:href="#DejaVuSans-32"/>
      <use x="976.712891" xlink:href="#DejaVuSans-65"/>
     </g>
    </g>
   </g>
   <g id="line2d_12">
    <path clip-path="url(#p667614a564)" d="M 73.832727 175.46653 
L 74.918528 175.162888 
L 76.00433 163.348447 
L 77.090131 140.299246 
L 78.175932 126.966594 
L 79.261733 110.652728 
L 81.433335 88.072792 
L 82.519137 79.653623 
L 83.604938 74.353687 
L 84.690739 68.170428 
L 85.77654 64.443911 
L 86.862341 61.13145 
L 87.948142 58.233048 
L 89.033943 57.266914 
L 90.119745 57.046083 
L 91.205546 56.52161 
L 92.291347 53.568 
L 94.462949 55.251834 
L 95.54875 53.678415 
L 97.720353 55.610684 
L 98.806154 54.837776 
L 99.891955 54.699757 
L 100.977756 56.632026 
L 102.063557 56.079949 
L 105.320961 59.420013 
L 106.406762 61.214262 
L 107.492563 62.235604 
L 108.578364 62.042377 
L 109.664165 62.815284 
L 110.749967 64.885572 
L 111.835768 64.94078 
L 112.921569 67.425125 
L 114.00737 69.495412 
L 115.093171 69.605827 
L 116.178972 70.820396 
L 117.264773 71.703719 
L 118.350575 73.663591 
L 119.436376 74.988575 
L 120.522177 75.347425 
L 121.607978 77.997393 
L 123.77958 80.067681 
L 124.865382 82.027553 
L 125.951183 83.490556 
L 127.036984 85.560843 
L 128.122785 86.858224 
L 129.208586 89.259757 
L 130.294387 89.176946 
L 131.380189 92.047744 
L 132.46599 93.400332 
L 133.551791 96.685188 
L 134.637592 97.458096 
L 135.723393 98.06538 
L 136.809194 101.571067 
L 137.894995 101.709086 
L 138.980797 104.966339 
L 140.066598 106.539757 
L 141.152399 110.37669 
L 142.2382 111.09439 
L 143.324001 114.462058 
L 144.409802 115.290173 
L 145.495604 117.194837 
L 146.581405 118.43701 
L 147.667206 122.991642 
L 148.753007 123.460907 
L 149.838808 124.730684 
L 150.924609 128.650428 
L 154.182013 134.06078 
L 155.267814 136.821163 
L 156.353615 138.228958 
L 157.439416 141.182569 
L 158.525217 143.611706 
L 159.611019 144.826275 
L 160.69682 147.641866 
L 161.782621 149.022058 
L 162.868422 152.334518 
L 165.040024 156.143847 
L 166.125825 159.677137 
L 167.211627 160.367233 
L 168.297428 161.664613 
L 169.383229 164.121355 
L 170.46903 167.130173 
L 171.554831 167.875476 
L 173.726434 172.098863 
L 174.812235 174.638415 
L 175.898036 176.570684 
L 176.983837 177.730045 
L 178.069638 180.766466 
L 179.155439 182.008639 
L 180.24124 183.968511 
L 181.327042 185.486722 
L 182.412843 188.937201 
L 183.498644 188.440332 
L 184.584445 189.930939 
L 185.670246 191.863208 
L 186.756047 195.562121 
L 187.841849 195.755348 
L 188.92765 197.49439 
L 190.013451 198.543335 
L 191.099252 200.08915 
L 192.185053 202.573495 
L 193.270854 203.235987 
L 194.356656 204.395348 
L 195.442457 205.030236 
L 196.528258 207.79062 
L 197.614059 211.517137 
L 198.69986 211.047872 
L 199.785661 212.704102 
L 200.871462 214.746786 
L 201.957264 215.768128 
L 204.128866 218.694134 
L 205.214667 220.736818 
L 206.300468 221.840971 
L 207.386269 222.641482 
L 208.472071 224.35292 
L 210.643673 225.015412 
L 211.729474 226.036754 
L 212.815275 227.251323 
L 213.901076 229.211195 
L 214.986877 229.846083 
L 218.244281 233.738224 
L 219.330082 235.063208 
L 220.415883 235.311642 
L 221.501684 234.952792 
L 224.759088 239.645444 
L 225.844889 239.700652 
L 226.93069 240.69439 
L 229.102292 243.206339 
L 230.188094 243.28915 
L 231.273895 245.083399 
L 232.359696 245.994326 
L 233.445497 246.104741 
L 234.531298 247.015668 
L 236.702901 249.141163 
L 237.788702 249.748447 
L 238.874503 249.748447 
L 239.960304 250.410939 
L 242.131906 251.377073 
L 243.217708 251.542696 
L 244.303509 252.922888 
L 245.38931 253.254134 
L 246.475111 253.060907 
L 247.560912 253.751003 
L 248.646713 255.269214 
L 249.732514 255.324422 
L 250.818316 255.628064 
L 252.989918 257.118671 
L 254.075719 256.124933 
L 255.16152 256.704613 
L 256.247321 258.885316 
L 257.333123 258.416051 
L 258.418924 258.802505 
L 259.504725 260.679565 
L 260.590526 260.541546 
L 261.676327 261.673304 
L 263.847929 262.363399 
L 264.933731 261.949342 
L 266.019532 262.446211 
L 267.105333 263.715987 
L 268.191134 262.777457 
L 269.276935 263.909214 
L 270.362736 262.94308 
L 271.448538 264.902952 
L 272.534339 264.24046 
L 273.62014 265.17899 
L 274.705941 265.17899 
L 275.791742 265.593048 
L 276.877543 266.25554 
L 277.963344 266.062313 
L 279.049146 266.448767 
L 280.134947 266.531578 
L 281.220748 268.077393 
L 282.306549 267.442505 
L 283.39235 267.359693 
L 284.478151 267.746147 
L 286.649754 270.037265 
L 287.735555 270.423719 
L 288.821356 269.623208 
L 289.907157 270.561738 
L 290.992958 269.650812 
L 292.07876 270.672153 
L 293.164561 270.64455 
L 294.250362 270.451323 
L 295.336163 270.561738 
L 296.421964 271.031003 
L 297.507765 269.871642 
L 299.679368 272.052345 
L 300.765169 271.113815 
L 301.85097 272.852856 
L 302.936771 272.438799 
L 304.022572 272.245572 
L 305.108373 272.494006 
L 306.194175 272.273176 
L 307.279976 273.23931 
L 308.365777 273.184102 
L 309.451578 274.067425 
L 310.537379 273.073687 
L 311.62318 273.487744 
L 312.708981 272.632026 
L 313.794783 273.515348 
L 314.880584 272.742441 
L 315.966385 273.073687 
L 317.052186 273.901802 
L 318.137987 273.846594 
L 319.223788 274.840332 
L 320.30959 274.591898 
L 321.395391 275.640843 
L 323.566993 274.591898 
L 324.652794 275.558032 
L 326.824396 274.509086 
L 327.910198 274.53669 
L 331.167601 275.889278 
L 332.253402 275.199182 
L 333.339203 276.855412 
L 334.425005 275.61324 
L 335.510806 275.143974 
L 336.596607 275.47522 
L 337.682408 276.827808 
L 338.768209 276.855412 
L 339.85401 275.83407 
L 340.939811 275.61324 
L 342.025613 277.13145 
L 343.111414 277.103847 
L 344.197215 278.125188 
L 345.283016 277.324677 
L 346.368817 277.462696 
L 347.454618 278.152792 
L 348.54042 278.042377 
L 349.626221 278.208 
L 350.712022 277.904358 
L 351.797823 279.14653 
L 352.883624 278.787681 
L 353.969425 279.091323 
L 355.055227 278.622058 
L 356.141028 277.876754 
L 357.226829 277.738735 
L 358.31263 278.346019 
L 359.398431 278.622058 
L 361.570033 277.959565 
L 362.655835 278.649661 
L 363.741636 278.373623 
L 364.827437 278.456435 
L 365.913238 277.987169 
L 366.999039 277.876754 
L 368.08484 279.339757 
L 369.170642 280.112665 
L 370.256443 279.726211 
L 371.342244 278.704869 
L 372.428045 278.318415 
L 373.513846 280.029853 
L 374.599647 280.526722 
L 375.685448 278.704869 
L 376.77125 279.367361 
L 377.857051 279.643399 
L 378.942852 278.953304 
L 380.028653 280.471514 
L 381.114454 279.367361 
L 382.200255 279.753815 
L 383.286057 280.416307 
L 384.371858 280.361099 
L 385.457659 280.002249 
L 386.54346 279.836626 
L 387.629261 281.16161 
L 388.715062 280.499118 
L 389.800863 280.94078 
L 390.886665 280.112665 
L 391.972466 281.216818 
L 393.058267 281.52046 
L 394.144068 282.23816 
L 395.229869 281.244422 
L 396.31567 281.492856 
L 398.487273 281.16161 
L 398.487273 281.16161 
" style="fill:none;stroke:#1f77b4;stroke-linecap:square;stroke-width:1.5;"/>
   </g>
   <g id="line2d_13">
    <path clip-path="url(#p667614a564)" d="M 73.832727 173.8103 
L 74.918528 175.300907 
L 76.00433 174.003527 
L 77.090131 173.147808 
L 78.175932 174.88685 
L 79.261733 175.2457 
L 80.347534 178.171706 
L 81.433335 179.745125 
L 83.604938 184.82423 
L 89.033943 213.173367 
L 90.119745 215.850939 
L 91.205546 222.199821 
L 92.291347 225.622696 
L 94.462949 233.821035 
L 97.720353 243.123527 
L 99.891955 246.187553 
L 100.977756 249.389597 
L 102.063557 250.604166 
L 103.149358 254.137457 
L 104.23516 254.634326 
L 105.320961 256.124933 
L 107.492563 258.278032 
L 108.578364 260.596754 
L 109.664165 260.458735 
L 110.749967 262.94308 
L 111.835768 264.074837 
L 112.921569 264.019629 
L 114.00737 265.040971 
L 115.093171 268.160204 
L 116.178972 267.056051 
L 117.264773 269.706019 
L 119.436376 271.58308 
L 120.522177 271.445061 
L 121.607978 272.742441 
L 122.693779 272.190364 
L 123.77958 272.714837 
L 124.865382 274.647105 
L 125.951183 275.530428 
L 127.036984 275.309597 
L 128.122785 275.558032 
L 129.208586 277.048639 
L 130.294387 276.772601 
L 131.380189 275.806466 
L 132.46599 277.021035 
L 133.551791 279.422569 
L 134.637592 276.772601 
L 135.723393 279.008511 
L 136.809194 278.208 
L 137.894995 279.588192 
L 138.980797 280.195476 
L 140.066598 280.416307 
L 141.152399 280.499118 
L 142.2382 281.078799 
L 143.324001 281.216818 
L 144.409802 281.023591 
L 145.495604 281.87931 
L 146.581405 281.52046 
L 147.667206 282.403783 
L 148.753007 282.155348 
L 149.838808 282.900652 
L 150.924609 282.735029 
L 152.01041 281.87931 
L 153.096212 283.425125 
L 154.182013 282.072537 
L 155.267814 283.811578 
L 156.353615 283.977201 
L 157.439416 282.81784 
L 158.525217 283.563144 
L 159.611019 283.121482 
L 160.69682 284.225636 
L 161.782621 284.004805 
L 162.868422 285.246978 
L 163.954223 284.694901 
L 165.040024 284.970939 
L 166.125825 284.47407 
L 167.211627 285.854262 
L 168.297428 284.639693 
L 169.383229 285.246978 
L 170.46903 285.026147 
L 171.554831 285.799054 
L 172.640632 285.881866 
L 173.726434 286.544358 
L 174.812235 285.357393 
L 175.898036 286.544358 
L 176.983837 286.102696 
L 178.069638 286.323527 
L 179.155439 286.102696 
L 180.24124 286.654773 
L 181.327042 286.157904 
L 183.498644 285.881866 
L 184.584445 286.709981 
L 185.670246 287.124038 
L 186.756047 287.096435 
L 187.841849 287.92455 
L 188.92765 287.317265 
L 190.013451 288.090173 
L 191.099252 288.283399 
L 192.185053 288.172984 
L 193.270854 287.703719 
L 194.356656 286.461546 
L 195.442457 287.455284 
L 196.528258 288.228192 
L 197.614059 286.848 
L 199.785661 289.80161 
L 200.871462 286.986019 
L 201.957264 288.697457 
L 203.043065 288.807872 
L 204.128866 287.869342 
L 205.214667 288.725061 
L 206.300468 287.593304 
L 207.386269 288.090173 
L 208.472071 289.166722 
L 209.557872 288.559438 
L 210.643673 289.829214 
L 211.729474 289.884422 
L 212.815275 289.746403 
L 213.901076 290.326083 
L 214.986877 289.139118 
L 217.15848 289.912026 
L 218.244281 289.856818 
L 219.330082 290.326083 
L 220.415883 289.856818 
L 221.501684 289.608383 
L 222.587486 291.706275 
L 223.673287 289.718799 
L 224.759088 289.663591 
L 225.844889 290.795348 
L 226.93069 290.712537 
L 228.016491 291.016179 
L 229.102292 291.844294 
L 231.273895 291.209406 
L 232.359696 291.319821 
L 233.445497 290.574518 
L 234.531298 291.954709 
L 235.617099 291.595859 
L 236.702901 290.740141 
L 237.788702 290.795348 
L 238.874503 291.264613 
L 239.960304 290.933367 
L 241.046105 291.430236 
L 242.131906 289.856818 
L 244.303509 291.789086 
L 246.475111 290.905764 
L 247.560912 291.568256 
L 248.646713 290.491706 
L 249.732514 291.016179 
L 251.904117 290.491706 
L 252.989918 291.513048 
L 254.075719 291.706275 
L 255.16152 292.423974 
L 256.247321 291.540652 
L 257.333123 292.092728 
L 259.504725 292.009917 
L 261.676327 291.23701 
L 262.762128 291.844294 
L 263.847929 290.767744 
L 264.933731 290.767744 
L 266.019532 291.209406 
L 267.105333 290.795348 
L 268.191134 292.147936 
L 269.276935 291.927105 
L 270.362736 291.319821 
L 271.448538 291.651067 
L 272.534339 291.154198 
L 273.62014 291.568256 
L 274.705941 290.602121 
L 275.791742 292.948447 
L 276.877543 291.209406 
L 277.963344 291.071387 
L 279.049146 292.17554 
L 280.134947 291.181802 
L 281.220748 292.920843 
L 282.306549 291.402633 
L 283.39235 291.844294 
L 284.478151 292.976051 
L 285.563953 292.037521 
L 286.649754 291.623463 
L 287.735555 292.258351 
L 288.821356 291.651067 
L 289.907157 292.976051 
L 290.992958 291.954709 
L 292.07876 291.402633 
L 293.164561 291.789086 
L 295.336163 291.45784 
L 296.421964 290.464102 
L 297.507765 291.761482 
L 298.593566 292.120332 
L 299.679368 292.17554 
L 300.765169 291.264613 
L 301.85097 292.617201 
L 302.936771 291.899502 
L 304.022572 292.341163 
L 305.108373 291.871898 
L 306.194175 291.651067 
L 308.365777 293.362505 
L 309.451578 292.258351 
L 310.537379 292.75522 
L 312.708981 292.920843 
L 313.794783 292.092728 
L 315.966385 292.700013 
L 317.052186 292.451578 
L 318.137987 293.003655 
L 319.223788 291.651067 
L 320.30959 293.169278 
L 321.395391 293.169278 
L 322.481192 294.439054 
L 323.566993 292.700013 
L 324.652794 292.865636 
L 325.738595 293.224486 
L 326.824396 294.107808 
L 327.910198 293.252089 
L 328.995999 292.810428 
L 330.0818 293.47292 
L 332.253402 293.11407 
L 333.339203 292.617201 
L 334.425005 293.169278 
L 335.510806 292.313559 
L 336.596607 292.230748 
L 337.682408 293.638543 
L 338.768209 292.341163 
L 339.85401 291.789086 
L 340.939811 292.727617 
L 342.025613 293.334901 
L 343.111414 293.307297 
L 344.197215 293.528128 
L 345.283016 293.141674 
L 346.368817 293.693751 
L 347.454618 293.058863 
L 349.626221 294.19062 
L 350.712022 292.865636 
L 351.797823 294.163016 
L 352.883624 293.969789 
L 353.969425 293.638543 
L 355.055227 293.997393 
L 356.141028 294.163016 
L 357.226829 294.080204 
L 358.31263 293.721355 
L 359.398431 293.776562 
L 360.484232 293.47292 
L 361.570033 293.334901 
L 363.741636 293.914581 
L 364.827437 293.528128 
L 365.913238 293.942185 
L 366.999039 293.859374 
L 368.08484 293.390109 
L 369.170642 293.83177 
L 370.256443 293.47292 
L 371.342244 292.976051 
L 372.428045 293.914581 
L 373.513846 294.301035 
L 374.599647 294.439054 
L 375.685448 292.589597 
L 376.77125 292.976051 
L 377.857051 292.423974 
L 378.942852 293.086466 
L 380.028653 292.644805 
L 381.114454 292.479182 
L 382.200255 293.942185 
L 383.286057 294.301035 
L 384.371858 292.976051 
L 385.457659 293.83177 
L 387.629261 294.521866 
L 388.715062 293.224486 
L 389.800863 292.589597 
L 390.886665 293.47292 
L 391.972466 295.488 
L 393.058267 293.859374 
L 394.144068 293.610939 
L 395.229869 294.7703 
L 396.31567 293.666147 
L 397.401472 294.439054 
L 398.487273 294.273431 
L 398.487273 294.273431 
" style="fill:none;stroke:#ff7f0e;stroke-linecap:square;stroke-width:1.5;"/>
   </g>
   <g id="patch_3">
    <path d="M 57.6 307.584 
L 57.6 41.472 
" style="fill:none;stroke:#000000;stroke-linecap:square;stroke-linejoin:miter;stroke-width:0.8;"/>
   </g>
   <g id="patch_4">
    <path d="M 414.72 307.584 
L 414.72 41.472 
" style="fill:none;stroke:#000000;stroke-linecap:square;stroke-linejoin:miter;stroke-width:0.8;"/>
   </g>
   <g id="patch_5">
    <path d="M 57.6 307.584 
L 414.72 307.584 
" style="fill:none;stroke:#000000;stroke-linecap:square;stroke-linejoin:miter;stroke-width:0.8;"/>
   </g>
   <g id="patch_6">
    <path d="M 57.6 41.472 
L 414.72 41.472 
" style="fill:none;stroke:#000000;stroke-linecap:square;stroke-linejoin:miter;stroke-width:0.8;"/>
   </g>
   <g id="legend_1">
    <g id="patch_7">
     <path d="M 284.554375 78.82825 
L 407.72 78.82825 
Q 409.72 78.82825 409.72 76.82825 
L 409.72 48.472 
Q 409.72 46.472 407.72 46.472 
L 284.554375 46.472 
Q 282.554375 46.472 282.554375 48.472 
L 282.554375 76.82825 
Q 282.554375 78.82825 284.554375 78.82825 
z
" style="fill:#ffffff;opacity:0.8;stroke:#cccccc;stroke-linejoin:miter;"/>
    </g>
    <g id="line2d_14">
     <path d="M 286.554375 54.570437 
L 306.554375 54.570437 
" style="fill:none;stroke:#1f77b4;stroke-linecap:square;stroke-width:1.5;"/>
    </g>
    <g id="line2d_15"/>
    <g id="text_14">
     <!-- Q-learning -->
     <g transform="translate(314.554375 58.070437)scale(0.1 -0.1)">
      <defs>
       <path d="M 39.40625 66.21875 
Q 28.65625 66.21875 22.328125 58.203125 
Q 16.015625 50.203125 16.015625 36.375 
Q 16.015625 22.609375 22.328125 14.59375 
Q 28.65625 6.59375 39.40625 6.59375 
Q 50.140625 6.59375 56.421875 14.59375 
Q 62.703125 22.609375 62.703125 36.375 
Q 62.703125 50.203125 56.421875 58.203125 
Q 50.140625 66.21875 39.40625 66.21875 
z
M 53.21875 1.3125 
L 66.21875 -12.890625 
L 54.296875 -12.890625 
L 43.5 -1.21875 
Q 41.890625 -1.3125 41.03125 -1.359375 
Q 40.1875 -1.421875 39.40625 -1.421875 
Q 24.03125 -1.421875 14.8125 8.859375 
Q 5.609375 19.140625 5.609375 36.375 
Q 5.609375 53.65625 14.8125 63.9375 
Q 24.03125 74.21875 39.40625 74.21875 
Q 54.734375 74.21875 63.90625 63.9375 
Q 73.09375 53.65625 73.09375 36.375 
Q 73.09375 23.6875 67.984375 14.640625 
Q 62.890625 5.609375 53.21875 1.3125 
z
" id="DejaVuSans-81"/>
       <path d="M 4.890625 31.390625 
L 31.203125 31.390625 
L 31.203125 23.390625 
L 4.890625 23.390625 
z
" id="DejaVuSans-45"/>
       <path d="M 45.40625 27.984375 
Q 45.40625 37.75 41.375 43.109375 
Q 37.359375 48.484375 30.078125 48.484375 
Q 22.859375 48.484375 18.828125 43.109375 
Q 14.796875 37.75 14.796875 27.984375 
Q 14.796875 18.265625 18.828125 12.890625 
Q 22.859375 7.515625 30.078125 7.515625 
Q 37.359375 7.515625 41.375 12.890625 
Q 45.40625 18.265625 45.40625 27.984375 
z
M 54.390625 6.78125 
Q 54.390625 -7.171875 48.1875 -13.984375 
Q 42 -20.796875 29.203125 -20.796875 
Q 24.46875 -20.796875 20.265625 -20.09375 
Q 16.0625 -19.390625 12.109375 -17.921875 
L 12.109375 -9.1875 
Q 16.0625 -11.328125 19.921875 -12.34375 
Q 23.78125 -13.375 27.78125 -13.375 
Q 36.625 -13.375 41.015625 -8.765625 
Q 45.40625 -4.15625 45.40625 5.171875 
L 45.40625 9.625 
Q 42.625 4.78125 38.28125 2.390625 
Q 33.9375 0 27.875 0 
Q 17.828125 0 11.671875 7.65625 
Q 5.515625 15.328125 5.515625 27.984375 
Q 5.515625 40.671875 11.671875 48.328125 
Q 17.828125 56 27.875 56 
Q 33.9375 56 38.28125 53.609375 
Q 42.625 51.21875 45.40625 46.390625 
L 45.40625 54.6875 
L 54.390625 54.6875 
z
" id="DejaVuSans-103"/>
      </defs>
      <use xlink:href="#DejaVuSans-81"/>
      <use x="81.460938" xlink:href="#DejaVuSans-45"/>
      <use x="117.544922" xlink:href="#DejaVuSans-108"/>
      <use x="145.328125" xlink:href="#DejaVuSans-101"/>
      <use x="206.851562" xlink:href="#DejaVuSans-97"/>
      <use x="268.130859" xlink:href="#DejaVuSans-114"/>
      <use x="307.494141" xlink:href="#DejaVuSans-110"/>
      <use x="370.873047" xlink:href="#DejaVuSans-105"/>
      <use x="398.65625" xlink:href="#DejaVuSans-110"/>
      <use x="462.035156" xlink:href="#DejaVuSans-103"/>
     </g>
    </g>
    <g id="line2d_16">
     <path d="M 286.554375 69.248562 
L 306.554375 69.248562 
" style="fill:none;stroke:#ff7f0e;stroke-linecap:square;stroke-width:1.5;"/>
    </g>
    <g id="line2d_17"/>
    <g id="text_15">
     <!-- Double Q-learning -->
     <g transform="translate(314.554375 72.748562)scale(0.1 -0.1)">
      <defs>
       <path d="M 19.671875 64.796875 
L 19.671875 8.109375 
L 31.59375 8.109375 
Q 46.6875 8.109375 53.6875 14.9375 
Q 60.6875 21.78125 60.6875 36.53125 
Q 60.6875 51.171875 53.6875 57.984375 
Q 46.6875 64.796875 31.59375 64.796875 
z
M 9.8125 72.90625 
L 30.078125 72.90625 
Q 51.265625 72.90625 61.171875 64.09375 
Q 71.09375 55.28125 71.09375 36.53125 
Q 71.09375 17.671875 61.125 8.828125 
Q 51.171875 0 30.078125 0 
L 9.8125 0 
z
" id="DejaVuSans-68"/>
       <path d="M 8.5 21.578125 
L 8.5 54.6875 
L 17.484375 54.6875 
L 17.484375 21.921875 
Q 17.484375 14.15625 20.5 10.265625 
Q 23.53125 6.390625 29.59375 6.390625 
Q 36.859375 6.390625 41.078125 11.03125 
Q 45.3125 15.671875 45.3125 23.6875 
L 45.3125 54.6875 
L 54.296875 54.6875 
L 54.296875 0 
L 45.3125 0 
L 45.3125 8.40625 
Q 42.046875 3.421875 37.71875 1 
Q 33.40625 -1.421875 27.6875 -1.421875 
Q 18.265625 -1.421875 13.375 4.4375 
Q 8.5 10.296875 8.5 21.578125 
z
M 31.109375 56 
z
" id="DejaVuSans-117"/>
       <path d="M 48.6875 27.296875 
Q 48.6875 37.203125 44.609375 42.84375 
Q 40.53125 48.484375 33.40625 48.484375 
Q 26.265625 48.484375 22.1875 42.84375 
Q 18.109375 37.203125 18.109375 27.296875 
Q 18.109375 17.390625 22.1875 11.75 
Q 26.265625 6.109375 33.40625 6.109375 
Q 40.53125 6.109375 44.609375 11.75 
Q 48.6875 17.390625 48.6875 27.296875 
z
M 18.109375 46.390625 
Q 20.953125 51.265625 25.265625 53.625 
Q 29.59375 56 35.59375 56 
Q 45.5625 56 51.78125 48.09375 
Q 58.015625 40.1875 58.015625 27.296875 
Q 58.015625 14.40625 51.78125 6.484375 
Q 45.5625 -1.421875 35.59375 -1.421875 
Q 29.59375 -1.421875 25.265625 0.953125 
Q 20.953125 3.328125 18.109375 8.203125 
L 18.109375 0 
L 9.078125 0 
L 9.078125 75.984375 
L 18.109375 75.984375 
z
" id="DejaVuSans-98"/>
      </defs>
      <use xlink:href="#DejaVuSans-68"/>
      <use x="77.001953" xlink:href="#DejaVuSans-111"/>
      <use x="138.183594" xlink:href="#DejaVuSans-117"/>
      <use x="201.5625" xlink:href="#DejaVuSans-98"/>
      <use x="265.039062" xlink:href="#DejaVuSans-108"/>
      <use x="292.822266" xlink:href="#DejaVuSans-101"/>
      <use x="354.345703" xlink:href="#DejaVuSans-32"/>
      <use x="386.132812" xlink:href="#DejaVuSans-81"/>
      <use x="467.59375" xlink:href="#DejaVuSans-45"/>
      <use x="503.677734" xlink:href="#DejaVuSans-108"/>
      <use x="531.460938" xlink:href="#DejaVuSans-101"/>
      <use x="592.984375" xlink:href="#DejaVuSans-97"/>
      <use x="654.263672" xlink:href="#DejaVuSans-114"/>
      <use x="693.626953" xlink:href="#DejaVuSans-110"/>
      <use x="757.005859" xlink:href="#DejaVuSans-105"/>
      <use x="784.789062" xlink:href="#DejaVuSans-110"/>
      <use x="848.167969" xlink:href="#DejaVuSans-103"/>
     </g>
    </g>
   </g>
  </g>
 </g>
 <defs>
  <clipPath id="p667614a564">
   <rect height="266.112" width="357.12" x="57.6" y="41.472"/>
  </clipPath>
 </defs>
</svg>
