<?xml version="1.0" encoding="utf-8" standalone="no"?>
<!DOCTYPE svg PUBLIC "-//W3C//DTD SVG 1.1//EN"
  "http://www.w3.org/Graphics/SVG/1.1/DTD/svg11.dtd">
<!-- Created with matplotlib (https://matplotlib.org/) -->
<svg height="345.6pt" version="1.1" viewBox="0 0 460.8 345.6" width="460.8pt" xmlns="http://www.w3.org/2000/svg" xmlns:xlink="http://www.w3.org/1999/xlink">
 <metadata>
  <rdf:RDF xmlns:cc="http://creativecommons.org/ns#" xmlns:dc="http://purl.org/dc/elements/1.1/" xmlns:rdf="http://www.w3.org/1999/02/22-rdf-syntax-ns#">
   <cc:Work>
    <dc:type rdf:resource="http://purl.org/dc/dcmitype/StillImage"/>
    <dc:date>2021-08-23T13:06:41.298572</dc:date>
    <dc:format>image/svg+xml</dc:format>
    <dc:creator>
     <cc:Agent>
      <dc:title>Matplotlib v3.3.4, https://matplotlib.org/</dc:title>
     </cc:Agent>
    </dc:creator>
   </cc:Work>
  </rdf:RDF>
 </metadata>
 <defs>
  <style type="text/css">*{stroke-linecap:butt;stroke-linejoin:round;}</style>
 </defs>
 <g id="figure_1">
  <g id="patch_1">
   <path d="M 0 345.6 
L 460.8 345.6 
L 460.8 0 
L 0 0 
z
" style="fill:#ffffff;"/>
  </g>
  <g id="axes_1">
   <g id="patch_2">
    <path d="M 57.6 307.584 
L 414.72 307.584 
L 414.72 41.472 
L 57.6 41.472 
z
" style="fill:#ffffff;"/>
   </g>
   <g id="matplotlib.axis_1">
    <g id="xtick_1">
     <g id="line2d_1">
      <defs>
       <path d="M 0 0 
L 0 3.5 
" id="mdf3845f3dd" style="stroke:#000000;stroke-width:0.8;"/>
      </defs>
      <g>
       <use style="stroke:#000000;stroke-width:0.8;" x="73.832727" xlink:href="#mdf3845f3dd" y="307.584"/>
      </g>
     </g>
     <g id="text_1">
      <!-- 0 -->
      <g transform="translate(70.651477 322.182437)scale(0.1 -0.1)">
       <defs>
        <path d="M 31.78125 66.40625 
Q 24.171875 66.40625 20.328125 58.90625 
Q 16.5 51.421875 16.5 36.375 
Q 16.5 21.390625 20.328125 13.890625 
Q 24.171875 6.390625 31.78125 6.390625 
Q 39.453125 6.390625 43.28125 13.890625 
Q 47.125 21.390625 47.125 36.375 
Q 47.125 51.421875 43.28125 58.90625 
Q 39.453125 66.40625 31.78125 66.40625 
z
M 31.78125 74.21875 
Q 44.046875 74.21875 50.515625 64.515625 
Q 56.984375 54.828125 56.984375 36.375 
Q 56.984375 17.96875 50.515625 8.265625 
Q 44.046875 -1.421875 31.78125 -1.421875 
Q 19.53125 -1.421875 13.0625 8.265625 
Q 6.59375 17.96875 6.59375 36.375 
Q 6.59375 54.828125 13.0625 64.515625 
Q 19.53125 74.21875 31.78125 74.21875 
z
" id="DejaVuSans-48"/>
       </defs>
       <use xlink:href="#DejaVuSans-48"/>
      </g>
     </g>
    </g>
    <g id="xtick_2">
     <g id="line2d_2">
      <g>
       <use style="stroke:#000000;stroke-width:0.8;" x="128.122785" xlink:href="#mdf3845f3dd" y="307.584"/>
      </g>
     </g>
     <g id="text_2">
      <!-- 50 -->
      <g transform="translate(121.760285 322.182437)scale(0.1 -0.1)">
       <defs>
        <path d="M 10.796875 72.90625 
L 49.515625 72.90625 
L 49.515625 64.59375 
L 19.828125 64.59375 
L 19.828125 46.734375 
Q 21.96875 47.46875 24.109375 47.828125 
Q 26.265625 48.1875 28.421875 48.1875 
Q 40.625 48.1875 47.75 41.5 
Q 54.890625 34.8125 54.890625 23.390625 
Q 54.890625 11.625 47.5625 5.09375 
Q 40.234375 -1.421875 26.90625 -1.421875 
Q 22.3125 -1.421875 17.546875 -0.640625 
Q 12.796875 0.140625 7.71875 1.703125 
L 7.71875 11.625 
Q 12.109375 9.234375 16.796875 8.0625 
Q 21.484375 6.890625 26.703125 6.890625 
Q 35.15625 6.890625 40.078125 11.328125 
Q 45.015625 15.765625 45.015625 23.390625 
Q 45.015625 31 40.078125 35.4375 
Q 35.15625 39.890625 26.703125 39.890625 
Q 22.75 39.890625 18.8125 39.015625 
Q 14.890625 38.140625 10.796875 36.28125 
z
" id="DejaVuSans-53"/>
       </defs>
       <use xlink:href="#DejaVuSans-53"/>
       <use x="63.623047" xlink:href="#DejaVuSans-48"/>
      </g>
     </g>
    </g>
    <g id="xtick_3">
     <g id="line2d_3">
      <g>
       <use style="stroke:#000000;stroke-width:0.8;" x="182.412843" xlink:href="#mdf3845f3dd" y="307.584"/>
      </g>
     </g>
     <g id="text_3">
      <!-- 100 -->
      <g transform="translate(172.869093 322.182437)scale(0.1 -0.1)">
       <defs>
        <path d="M 12.40625 8.296875 
L 28.515625 8.296875 
L 28.515625 63.921875 
L 10.984375 60.40625 
L 10.984375 69.390625 
L 28.421875 72.90625 
L 38.28125 72.90625 
L 38.28125 8.296875 
L 54.390625 8.296875 
L 54.390625 0 
L 12.40625 0 
z
" id="DejaVuSans-49"/>
       </defs>
       <use xlink:href="#DejaVuSans-49"/>
       <use x="63.623047" xlink:href="#DejaVuSans-48"/>
       <use x="127.246094" xlink:href="#DejaVuSans-48"/>
      </g>
     </g>
    </g>
    <g id="xtick_4">
     <g id="line2d_4">
      <g>
       <use style="stroke:#000000;stroke-width:0.8;" x="236.702901" xlink:href="#mdf3845f3dd" y="307.584"/>
      </g>
     </g>
     <g id="text_4">
      <!-- 150 -->
      <g transform="translate(227.159151 322.182437)scale(0.1 -0.1)">
       <use xlink:href="#DejaVuSans-49"/>
       <use x="63.623047" xlink:href="#DejaVuSans-53"/>
       <use x="127.246094" xlink:href="#DejaVuSans-48"/>
      </g>
     </g>
    </g>
    <g id="xtick_5">
     <g id="line2d_5">
      <g>
       <use style="stroke:#000000;stroke-width:0.8;" x="290.992958" xlink:href="#mdf3845f3dd" y="307.584"/>
      </g>
     </g>
     <g id="text_5">
      <!-- 200 -->
      <g transform="translate(281.449208 322.182437)scale(0.1 -0.1)">
       <defs>
        <path d="M 19.1875 8.296875 
L 53.609375 8.296875 
L 53.609375 0 
L 7.328125 0 
L 7.328125 8.296875 
Q 12.9375 14.109375 22.625 23.890625 
Q 32.328125 33.6875 34.8125 36.53125 
Q 39.546875 41.84375 41.421875 45.53125 
Q 43.3125 49.21875 43.3125 52.78125 
Q 43.3125 58.59375 39.234375 62.25 
Q 35.15625 65.921875 28.609375 65.921875 
Q 23.96875 65.921875 18.8125 64.3125 
Q 13.671875 62.703125 7.8125 59.421875 
L 7.8125 69.390625 
Q 13.765625 71.78125 18.9375 73 
Q 24.125 74.21875 28.421875 74.21875 
Q 39.75 74.21875 46.484375 68.546875 
Q 53.21875 62.890625 53.21875 53.421875 
Q 53.21875 48.921875 51.53125 44.890625 
Q 49.859375 40.875 45.40625 35.40625 
Q 44.1875 33.984375 37.640625 27.21875 
Q 31.109375 20.453125 19.1875 8.296875 
z
" id="DejaVuSans-50"/>
       </defs>
       <use xlink:href="#DejaVuSans-50"/>
       <use x="63.623047" xlink:href="#DejaVuSans-48"/>
       <use x="127.246094" xlink:href="#DejaVuSans-48"/>
      </g>
     </g>
    </g>
    <g id="xtick_6">
     <g id="line2d_6">
      <g>
       <use style="stroke:#000000;stroke-width:0.8;" x="345.283016" xlink:href="#mdf3845f3dd" y="307.584"/>
      </g>
     </g>
     <g id="text_6">
      <!-- 250 -->
      <g transform="translate(335.739266 322.182437)scale(0.1 -0.1)">
       <use xlink:href="#DejaVuSans-50"/>
       <use x="63.623047" xlink:href="#DejaVuSans-53"/>
       <use x="127.246094" xlink:href="#DejaVuSans-48"/>
      </g>
     </g>
    </g>
    <g id="xtick_7">
     <g id="line2d_7">
      <g>
       <use style="stroke:#000000;stroke-width:0.8;" x="399.573074" xlink:href="#mdf3845f3dd" y="307.584"/>
      </g>
     </g>
     <g id="text_7">
      <!-- 300 -->
      <g transform="translate(390.029324 322.182437)scale(0.1 -0.1)">
       <defs>
        <path d="M 40.578125 39.3125 
Q 47.65625 37.796875 51.625 33 
Q 55.609375 28.21875 55.609375 21.1875 
Q 55.609375 10.40625 48.1875 4.484375 
Q 40.765625 -1.421875 27.09375 -1.421875 
Q 22.515625 -1.421875 17.65625 -0.515625 
Q 12.796875 0.390625 7.625 2.203125 
L 7.625 11.71875 
Q 11.71875 9.328125 16.59375 8.109375 
Q 21.484375 6.890625 26.8125 6.890625 
Q 36.078125 6.890625 40.9375 10.546875 
Q 45.796875 14.203125 45.796875 21.1875 
Q 45.796875 27.640625 41.28125 31.265625 
Q 36.765625 34.90625 28.71875 34.90625 
L 20.21875 34.90625 
L 20.21875 43.015625 
L 29.109375 43.015625 
Q 36.375 43.015625 40.234375 45.921875 
Q 44.09375 48.828125 44.09375 54.296875 
Q 44.09375 59.90625 40.109375 62.90625 
Q 36.140625 65.921875 28.71875 65.921875 
Q 24.65625 65.921875 20.015625 65.03125 
Q 15.375 64.15625 9.8125 62.3125 
L 9.8125 71.09375 
Q 15.4375 72.65625 20.34375 73.4375 
Q 25.25 74.21875 29.59375 74.21875 
Q 40.828125 74.21875 47.359375 69.109375 
Q 53.90625 64.015625 53.90625 55.328125 
Q 53.90625 49.265625 50.4375 45.09375 
Q 46.96875 40.921875 40.578125 39.3125 
z
" id="DejaVuSans-51"/>
       </defs>
       <use xlink:href="#DejaVuSans-51"/>
       <use x="63.623047" xlink:href="#DejaVuSans-48"/>
       <use x="127.246094" xlink:href="#DejaVuSans-48"/>
      </g>
     </g>
    </g>
    <g id="text_8">
     <!-- Episodes -->
     <g transform="translate(213.917812 335.860562)scale(0.1 -0.1)">
      <defs>
       <path d="M 9.8125 72.90625 
L 55.90625 72.90625 
L 55.90625 64.59375 
L 19.671875 64.59375 
L 19.671875 43.015625 
L 54.390625 43.015625 
L 54.390625 34.71875 
L 19.671875 34.71875 
L 19.671875 8.296875 
L 56.78125 8.296875 
L 56.78125 0 
L 9.8125 0 
z
" id="DejaVuSans-69"/>
       <path d="M 18.109375 8.203125 
L 18.109375 -20.796875 
L 9.078125 -20.796875 
L 9.078125 54.6875 
L 18.109375 54.6875 
L 18.109375 46.390625 
Q 20.953125 51.265625 25.265625 53.625 
Q 29.59375 56 35.59375 56 
Q 45.5625 56 51.78125 48.09375 
Q 58.015625 40.1875 58.015625 27.296875 
Q 58.015625 14.40625 51.78125 6.484375 
Q 45.5625 -1.421875 35.59375 -1.421875 
Q 29.59375 -1.421875 25.265625 0.953125 
Q 20.953125 3.328125 18.109375 8.203125 
z
M 48.6875 27.296875 
Q 48.6875 37.203125 44.609375 42.84375 
Q 40.53125 48.484375 33.40625 48.484375 
Q 26.265625 48.484375 22.1875 42.84375 
Q 18.109375 37.203125 18.109375 27.296875 
Q 18.109375 17.390625 22.1875 11.75 
Q 26.265625 6.109375 33.40625 6.109375 
Q 40.53125 6.109375 44.609375 11.75 
Q 48.6875 17.390625 48.6875 27.296875 
z
" id="DejaVuSans-112"/>
       <path d="M 9.421875 54.6875 
L 18.40625 54.6875 
L 18.40625 0 
L 9.421875 0 
z
M 9.421875 75.984375 
L 18.40625 75.984375 
L 18.40625 64.59375 
L 9.421875 64.59375 
z
" id="DejaVuSans-105"/>
       <path d="M 44.28125 53.078125 
L 44.28125 44.578125 
Q 40.484375 46.53125 36.375 47.5 
Q 32.28125 48.484375 27.875 48.484375 
Q 21.1875 48.484375 17.84375 46.4375 
Q 14.5 44.390625 14.5 40.28125 
Q 14.5 37.15625 16.890625 35.375 
Q 19.28125 33.59375 26.515625 31.984375 
L 29.59375 31.296875 
Q 39.15625 29.25 43.1875 25.515625 
Q 47.21875 21.78125 47.21875 15.09375 
Q 47.21875 7.46875 41.1875 3.015625 
Q 35.15625 -1.421875 24.609375 -1.421875 
Q 20.21875 -1.421875 15.453125 -0.5625 
Q 10.6875 0.296875 5.421875 2 
L 5.421875 11.28125 
Q 10.40625 8.6875 15.234375 7.390625 
Q 20.0625 6.109375 24.8125 6.109375 
Q 31.15625 6.109375 34.5625 8.28125 
Q 37.984375 10.453125 37.984375 14.40625 
Q 37.984375 18.0625 35.515625 20.015625 
Q 33.0625 21.96875 24.703125 23.78125 
L 21.578125 24.515625 
Q 13.234375 26.265625 9.515625 29.90625 
Q 5.8125 33.546875 5.8125 39.890625 
Q 5.8125 47.609375 11.28125 51.796875 
Q 16.75 56 26.8125 56 
Q 31.78125 56 36.171875 55.265625 
Q 40.578125 54.546875 44.28125 53.078125 
z
" id="DejaVuSans-115"/>
       <path d="M 30.609375 48.390625 
Q 23.390625 48.390625 19.1875 42.75 
Q 14.984375 37.109375 14.984375 27.296875 
Q 14.984375 17.484375 19.15625 11.84375 
Q 23.34375 6.203125 30.609375 6.203125 
Q 37.796875 6.203125 41.984375 11.859375 
Q 46.1875 17.53125 46.1875 27.296875 
Q 46.1875 37.015625 41.984375 42.703125 
Q 37.796875 48.390625 30.609375 48.390625 
z
M 30.609375 56 
Q 42.328125 56 49.015625 48.375 
Q 55.71875 40.765625 55.71875 27.296875 
Q 55.71875 13.875 49.015625 6.21875 
Q 42.328125 -1.421875 30.609375 -1.421875 
Q 18.84375 -1.421875 12.171875 6.21875 
Q 5.515625 13.875 5.515625 27.296875 
Q 5.515625 40.765625 12.171875 48.375 
Q 18.84375 56 30.609375 56 
z
" id="DejaVuSans-111"/>
       <path d="M 45.40625 46.390625 
L 45.40625 75.984375 
L 54.390625 75.984375 
L 54.390625 0 
L 45.40625 0 
L 45.40625 8.203125 
Q 42.578125 3.328125 38.25 0.953125 
Q 33.9375 -1.421875 27.875 -1.421875 
Q 17.96875 -1.421875 11.734375 6.484375 
Q 5.515625 14.40625 5.515625 27.296875 
Q 5.515625 40.1875 11.734375 48.09375 
Q 17.96875 56 27.875 56 
Q 33.9375 56 38.25 53.625 
Q 42.578125 51.265625 45.40625 46.390625 
z
M 14.796875 27.296875 
Q 14.796875 17.390625 18.875 11.75 
Q 22.953125 6.109375 30.078125 6.109375 
Q 37.203125 6.109375 41.296875 11.75 
Q 45.40625 17.390625 45.40625 27.296875 
Q 45.40625 37.203125 41.296875 42.84375 
Q 37.203125 48.484375 30.078125 48.484375 
Q 22.953125 48.484375 18.875 42.84375 
Q 14.796875 37.203125 14.796875 27.296875 
z
" id="DejaVuSans-100"/>
       <path d="M 56.203125 29.59375 
L 56.203125 25.203125 
L 14.890625 25.203125 
Q 15.484375 15.921875 20.484375 11.0625 
Q 25.484375 6.203125 34.421875 6.203125 
Q 39.59375 6.203125 44.453125 7.46875 
Q 49.3125 8.734375 54.109375 11.28125 
L 54.109375 2.78125 
Q 49.265625 0.734375 44.1875 -0.34375 
Q 39.109375 -1.421875 33.890625 -1.421875 
Q 20.796875 -1.421875 13.15625 6.1875 
Q 5.515625 13.8125 5.515625 26.8125 
Q 5.515625 40.234375 12.765625 48.109375 
Q 20.015625 56 32.328125 56 
Q 43.359375 56 49.78125 48.890625 
Q 56.203125 41.796875 56.203125 29.59375 
z
M 47.21875 32.234375 
Q 47.125 39.59375 43.09375 43.984375 
Q 39.0625 48.390625 32.421875 48.390625 
Q 24.90625 48.390625 20.390625 44.140625 
Q 15.875 39.890625 15.1875 32.171875 
z
" id="DejaVuSans-101"/>
      </defs>
      <use xlink:href="#DejaVuSans-69"/>
      <use x="63.183594" xlink:href="#DejaVuSans-112"/>
      <use x="126.660156" xlink:href="#DejaVuSans-105"/>
      <use x="154.443359" xlink:href="#DejaVuSans-115"/>
      <use x="206.542969" xlink:href="#DejaVuSans-111"/>
      <use x="267.724609" xlink:href="#DejaVuSans-100"/>
      <use x="331.201172" xlink:href="#DejaVuSans-101"/>
      <use x="392.724609" xlink:href="#DejaVuSans-115"/>
     </g>
    </g>
   </g>
   <g id="matplotlib.axis_2">
    <g id="ytick_1">
     <g id="line2d_8">
      <defs>
       <path d="M 0 0 
L -3.5 0 
" id="m3db698ac4f" style="stroke:#000000;stroke-width:0.8;"/>
      </defs>
      <g>
       <use style="stroke:#000000;stroke-width:0.8;" x="57.6" xlink:href="#m3db698ac4f" y="258.024096"/>
      </g>
     </g>
     <g id="text_9">
      <!-- 20 -->
      <g transform="translate(37.875 261.823314)scale(0.1 -0.1)">
       <use xlink:href="#DejaVuSans-50"/>
       <use x="63.623047" xlink:href="#DejaVuSans-48"/>
      </g>
     </g>
    </g>
    <g id="ytick_2">
     <g id="line2d_9">
      <g>
       <use style="stroke:#000000;stroke-width:0.8;" x="57.6" xlink:href="#m3db698ac4f" y="203.01102"/>
      </g>
     </g>
     <g id="text_10">
      <!-- 40 -->
      <g transform="translate(37.875 206.810239)scale(0.1 -0.1)">
       <defs>
        <path d="M 37.796875 64.3125 
L 12.890625 25.390625 
L 37.796875 25.390625 
z
M 35.203125 72.90625 
L 47.609375 72.90625 
L 47.609375 25.390625 
L 58.015625 25.390625 
L 58.015625 17.1875 
L 47.609375 17.1875 
L 47.609375 0 
L 37.796875 0 
L 37.796875 17.1875 
L 4.890625 17.1875 
L 4.890625 26.703125 
z
" id="DejaVuSans-52"/>
       </defs>
       <use xlink:href="#DejaVuSans-52"/>
       <use x="63.623047" xlink:href="#DejaVuSans-48"/>
      </g>
     </g>
    </g>
    <g id="ytick_3">
     <g id="line2d_10">
      <g>
       <use style="stroke:#000000;stroke-width:0.8;" x="57.6" xlink:href="#m3db698ac4f" y="147.997944"/>
      </g>
     </g>
     <g id="text_11">
      <!-- 60 -->
      <g transform="translate(37.875 151.797163)scale(0.1 -0.1)">
       <defs>
        <path d="M 33.015625 40.375 
Q 26.375 40.375 22.484375 35.828125 
Q 18.609375 31.296875 18.609375 23.390625 
Q 18.609375 15.53125 22.484375 10.953125 
Q 26.375 6.390625 33.015625 6.390625 
Q 39.65625 6.390625 43.53125 10.953125 
Q 47.40625 15.53125 47.40625 23.390625 
Q 47.40625 31.296875 43.53125 35.828125 
Q 39.65625 40.375 33.015625 40.375 
z
M 52.59375 71.296875 
L 52.59375 62.3125 
Q 48.875 64.0625 45.09375 64.984375 
Q 41.3125 65.921875 37.59375 65.921875 
Q 27.828125 65.921875 22.671875 59.328125 
Q 17.53125 52.734375 16.796875 39.40625 
Q 19.671875 43.65625 24.015625 45.921875 
Q 28.375 48.1875 33.59375 48.1875 
Q 44.578125 48.1875 50.953125 41.515625 
Q 57.328125 34.859375 57.328125 23.390625 
Q 57.328125 12.15625 50.6875 5.359375 
Q 44.046875 -1.421875 33.015625 -1.421875 
Q 20.359375 -1.421875 13.671875 8.265625 
Q 6.984375 17.96875 6.984375 36.375 
Q 6.984375 53.65625 15.1875 63.9375 
Q 23.390625 74.21875 37.203125 74.21875 
Q 40.921875 74.21875 44.703125 73.484375 
Q 48.484375 72.75 52.59375 71.296875 
z
" id="DejaVuSans-54"/>
       </defs>
       <use xlink:href="#DejaVuSans-54"/>
       <use x="63.623047" xlink:href="#DejaVuSans-48"/>
      </g>
     </g>
    </g>
    <g id="ytick_4">
     <g id="line2d_11">
      <g>
       <use style="stroke:#000000;stroke-width:0.8;" x="57.6" xlink:href="#m3db698ac4f" y="92.984869"/>
      </g>
     </g>
     <g id="text_12">
      <!-- 80 -->
      <g transform="translate(37.875 96.784087)scale(0.1 -0.1)">
       <defs>
        <path d="M 31.78125 34.625 
Q 24.75 34.625 20.71875 30.859375 
Q 16.703125 27.09375 16.703125 20.515625 
Q 16.703125 13.921875 20.71875 10.15625 
Q 24.75 6.390625 31.78125 6.390625 
Q 38.8125 6.390625 42.859375 10.171875 
Q 46.921875 13.96875 46.921875 20.515625 
Q 46.921875 27.09375 42.890625 30.859375 
Q 38.875 34.625 31.78125 34.625 
z
M 21.921875 38.8125 
Q 15.578125 40.375 12.03125 44.71875 
Q 8.5 49.078125 8.5 55.328125 
Q 8.5 64.0625 14.71875 69.140625 
Q 20.953125 74.21875 31.78125 74.21875 
Q 42.671875 74.21875 48.875 69.140625 
Q 55.078125 64.0625 55.078125 55.328125 
Q 55.078125 49.078125 51.53125 44.71875 
Q 48 40.375 41.703125 38.8125 
Q 48.828125 37.15625 52.796875 32.3125 
Q 56.78125 27.484375 56.78125 20.515625 
Q 56.78125 9.90625 50.3125 4.234375 
Q 43.84375 -1.421875 31.78125 -1.421875 
Q 19.734375 -1.421875 13.25 4.234375 
Q 6.78125 9.90625 6.78125 20.515625 
Q 6.78125 27.484375 10.78125 32.3125 
Q 14.796875 37.15625 21.921875 38.8125 
z
M 18.3125 54.390625 
Q 18.3125 48.734375 21.84375 45.5625 
Q 25.390625 42.390625 31.78125 42.390625 
Q 38.140625 42.390625 41.71875 45.5625 
Q 45.3125 48.734375 45.3125 54.390625 
Q 45.3125 60.0625 41.71875 63.234375 
Q 38.140625 66.40625 31.78125 66.40625 
Q 25.390625 66.40625 21.84375 63.234375 
Q 18.3125 60.0625 18.3125 54.390625 
z
" id="DejaVuSans-56"/>
       </defs>
       <use xlink:href="#DejaVuSans-56"/>
       <use x="63.623047" xlink:href="#DejaVuSans-48"/>
      </g>
     </g>
    </g>
    <g id="text_13">
     <!-- % left actions from A -->
     <g transform="translate(31.795312 226.781906)rotate(-90)scale(0.1 -0.1)">
      <defs>
       <path d="M 72.703125 32.078125 
Q 68.453125 32.078125 66.03125 28.46875 
Q 63.625 24.859375 63.625 18.40625 
Q 63.625 12.0625 66.03125 8.421875 
Q 68.453125 4.78125 72.703125 4.78125 
Q 76.859375 4.78125 79.265625 8.421875 
Q 81.6875 12.0625 81.6875 18.40625 
Q 81.6875 24.8125 79.265625 28.4375 
Q 76.859375 32.078125 72.703125 32.078125 
z
M 72.703125 38.28125 
Q 80.421875 38.28125 84.953125 32.90625 
Q 89.5 27.546875 89.5 18.40625 
Q 89.5 9.28125 84.9375 3.921875 
Q 80.375 -1.421875 72.703125 -1.421875 
Q 64.890625 -1.421875 60.34375 3.921875 
Q 55.8125 9.28125 55.8125 18.40625 
Q 55.8125 27.59375 60.375 32.9375 
Q 64.9375 38.28125 72.703125 38.28125 
z
M 22.3125 68.015625 
Q 18.109375 68.015625 15.6875 64.375 
Q 13.28125 60.75 13.28125 54.390625 
Q 13.28125 47.953125 15.671875 44.328125 
Q 18.0625 40.71875 22.3125 40.71875 
Q 26.5625 40.71875 28.96875 44.328125 
Q 31.390625 47.953125 31.390625 54.390625 
Q 31.390625 60.6875 28.953125 64.34375 
Q 26.515625 68.015625 22.3125 68.015625 
z
M 66.40625 74.21875 
L 74.21875 74.21875 
L 28.609375 -1.421875 
L 20.796875 -1.421875 
z
M 22.3125 74.21875 
Q 30.03125 74.21875 34.609375 68.875 
Q 39.203125 63.53125 39.203125 54.390625 
Q 39.203125 45.171875 34.640625 39.84375 
Q 30.078125 34.515625 22.3125 34.515625 
Q 14.546875 34.515625 10.03125 39.859375 
Q 5.515625 45.21875 5.515625 54.390625 
Q 5.515625 63.484375 10.046875 68.84375 
Q 14.59375 74.21875 22.3125 74.21875 
z
" id="DejaVuSans-37"/>
       <path id="DejaVuSans-32"/>
       <path d="M 9.421875 75.984375 
L 18.40625 75.984375 
L 18.40625 0 
L 9.421875 0 
z
" id="DejaVuSans-108"/>
       <path d="M 37.109375 75.984375 
L 37.109375 68.5 
L 28.515625 68.5 
Q 23.6875 68.5 21.796875 66.546875 
Q 19.921875 64.59375 19.921875 59.515625 
L 19.921875 54.6875 
L 34.71875 54.6875 
L 34.71875 47.703125 
L 19.921875 47.703125 
L 19.921875 0 
L 10.890625 0 
L 10.890625 47.703125 
L 2.296875 47.703125 
L 2.296875 54.6875 
L 10.890625 54.6875 
L 10.890625 58.5 
Q 10.890625 67.625 15.140625 71.796875 
Q 19.390625 75.984375 28.609375 75.984375 
z
" id="DejaVuSans-102"/>
       <path d="M 18.3125 70.21875 
L 18.3125 54.6875 
L 36.8125 54.6875 
L 36.8125 47.703125 
L 18.3125 47.703125 
L 18.3125 18.015625 
Q 18.3125 11.328125 20.140625 9.421875 
Q 21.96875 7.515625 27.59375 7.515625 
L 36.8125 7.515625 
L 36.8125 0 
L 27.59375 0 
Q 17.1875 0 13.234375 3.875 
Q 9.28125 7.765625 9.28125 18.015625 
L 9.28125 47.703125 
L 2.6875 47.703125 
L 2.6875 54.6875 
L 9.28125 54.6875 
L 9.28125 70.21875 
z
" id="DejaVuSans-116"/>
       <path d="M 34.28125 27.484375 
Q 23.390625 27.484375 19.1875 25 
Q 14.984375 22.515625 14.984375 16.5 
Q 14.984375 11.71875 18.140625 8.90625 
Q 21.296875 6.109375 26.703125 6.109375 
Q 34.1875 6.109375 38.703125 11.40625 
Q 43.21875 16.703125 43.21875 25.484375 
L 43.21875 27.484375 
z
M 52.203125 31.203125 
L 52.203125 0 
L 43.21875 0 
L 43.21875 8.296875 
Q 40.140625 3.328125 35.546875 0.953125 
Q 30.953125 -1.421875 24.3125 -1.421875 
Q 15.921875 -1.421875 10.953125 3.296875 
Q 6 8.015625 6 15.921875 
Q 6 25.140625 12.171875 29.828125 
Q 18.359375 34.515625 30.609375 34.515625 
L 43.21875 34.515625 
L 43.21875 35.40625 
Q 43.21875 41.609375 39.140625 45 
Q 35.0625 48.390625 27.6875 48.390625 
Q 23 48.390625 18.546875 47.265625 
Q 14.109375 46.140625 10.015625 43.890625 
L 10.015625 52.203125 
Q 14.9375 54.109375 19.578125 55.046875 
Q 24.21875 56 28.609375 56 
Q 40.484375 56 46.34375 49.84375 
Q 52.203125 43.703125 52.203125 31.203125 
z
" id="DejaVuSans-97"/>
       <path d="M 48.78125 52.59375 
L 48.78125 44.1875 
Q 44.96875 46.296875 41.140625 47.34375 
Q 37.3125 48.390625 33.40625 48.390625 
Q 24.65625 48.390625 19.8125 42.84375 
Q 14.984375 37.3125 14.984375 27.296875 
Q 14.984375 17.28125 19.8125 11.734375 
Q 24.65625 6.203125 33.40625 6.203125 
Q 37.3125 6.203125 41.140625 7.25 
Q 44.96875 8.296875 48.78125 10.40625 
L 48.78125 2.09375 
Q 45.015625 0.34375 40.984375 -0.53125 
Q 36.96875 -1.421875 32.421875 -1.421875 
Q 20.0625 -1.421875 12.78125 6.34375 
Q 5.515625 14.109375 5.515625 27.296875 
Q 5.515625 40.671875 12.859375 48.328125 
Q 20.21875 56 33.015625 56 
Q 37.15625 56 41.109375 55.140625 
Q 45.0625 54.296875 48.78125 52.59375 
z
" id="DejaVuSans-99"/>
       <path d="M 54.890625 33.015625 
L 54.890625 0 
L 45.90625 0 
L 45.90625 32.71875 
Q 45.90625 40.484375 42.875 44.328125 
Q 39.84375 48.1875 33.796875 48.1875 
Q 26.515625 48.1875 22.3125 43.546875 
Q 18.109375 38.921875 18.109375 30.90625 
L 18.109375 0 
L 9.078125 0 
L 9.078125 54.6875 
L 18.109375 54.6875 
L 18.109375 46.1875 
Q 21.34375 51.125 25.703125 53.5625 
Q 30.078125 56 35.796875 56 
Q 45.21875 56 50.046875 50.171875 
Q 54.890625 44.34375 54.890625 33.015625 
z
" id="DejaVuSans-110"/>
       <path d="M 41.109375 46.296875 
Q 39.59375 47.171875 37.8125 47.578125 
Q 36.03125 48 33.890625 48 
Q 26.265625 48 22.1875 43.046875 
Q 18.109375 38.09375 18.109375 28.8125 
L 18.109375 0 
L 9.078125 0 
L 9.078125 54.6875 
L 18.109375 54.6875 
L 18.109375 46.1875 
Q 20.953125 51.171875 25.484375 53.578125 
Q 30.03125 56 36.53125 56 
Q 37.453125 56 38.578125 55.875 
Q 39.703125 55.765625 41.0625 55.515625 
z
" id="DejaVuSans-114"/>
       <path d="M 52 44.1875 
Q 55.375 50.25 60.0625 53.125 
Q 64.75 56 71.09375 56 
Q 79.640625 56 84.28125 50.015625 
Q 88.921875 44.046875 88.921875 33.015625 
L 88.921875 0 
L 79.890625 0 
L 79.890625 32.71875 
Q 79.890625 40.578125 77.09375 44.375 
Q 74.3125 48.1875 68.609375 48.1875 
Q 61.625 48.1875 57.5625 43.546875 
Q 53.515625 38.921875 53.515625 30.90625 
L 53.515625 0 
L 44.484375 0 
L 44.484375 32.71875 
Q 44.484375 40.625 41.703125 44.40625 
Q 38.921875 48.1875 33.109375 48.1875 
Q 26.21875 48.1875 22.15625 43.53125 
Q 18.109375 38.875 18.109375 30.90625 
L 18.109375 0 
L 9.078125 0 
L 9.078125 54.6875 
L 18.109375 54.6875 
L 18.109375 46.1875 
Q 21.1875 51.21875 25.484375 53.609375 
Q 29.78125 56 35.6875 56 
Q 41.65625 56 45.828125 52.96875 
Q 50 49.953125 52 44.1875 
z
" id="DejaVuSans-109"/>
       <path d="M 34.1875 63.1875 
L 20.796875 26.90625 
L 47.609375 26.90625 
z
M 28.609375 72.90625 
L 39.796875 72.90625 
L 67.578125 0 
L 57.328125 0 
L 50.6875 18.703125 
L 17.828125 18.703125 
L 11.1875 0 
L 0.78125 0 
z
" id="DejaVuSans-65"/>
      </defs>
      <use xlink:href="#DejaVuSans-37"/>
      <use x="95.019531" xlink:href="#DejaVuSans-32"/>
      <use x="126.806641" xlink:href="#DejaVuSans-108"/>
      <use x="154.589844" xlink:href="#DejaVuSans-101"/>
      <use x="216.113281" xlink:href="#DejaVuSans-102"/>
      <use x="249.568359" xlink:href="#DejaVuSans-116"/>
      <use x="288.777344" xlink:href="#DejaVuSans-32"/>
      <use x="320.564453" xlink:href="#DejaVuSans-97"/>
      <use x="381.84375" xlink:href="#DejaVuSans-99"/>
      <use x="436.824219" xlink:href="#DejaVuSans-116"/>
      <use x="476.033203" xlink:href="#DejaVuSans-105"/>
      <use x="503.816406" xlink:href="#DejaVuSans-111"/>
      <use x="564.998047" xlink:href="#DejaVuSans-110"/>
      <use x="628.376953" xlink:href="#DejaVuSans-115"/>
      <use x="680.476562" xlink:href="#DejaVuSans-32"/>
      <use x="712.263672" xlink:href="#DejaVuSans-102"/>
      <use x="747.46875" xlink:href="#DejaVuSans-114"/>
      <use x="786.332031" xlink:href="#DejaVuSans-111"/>
      <use x="847.513672" xlink:href="#DejaVuSans-109"/>
      <use x="944.925781" xlink:href="#DejaVuSans-32"/>
      <use x="976.712891" xlink:href="#DejaVuSans-65"/>
     </g>
    </g>
   </g>
   <g id="line2d_12">
    <path clip-path="url(#pf9ff804113)" d="M 73.832727 176.439704 
L 74.918528 177.209887 
L 77.090131 143.404352 
L 79.261733 110.203961 
L 80.347534 99.09132 
L 81.433335 90.564293 
L 82.519137 80.992018 
L 83.604938 72.71255 
L 84.690739 68.669089 
L 85.77654 65.148252 
L 86.862341 62.645157 
L 87.948142 59.701958 
L 89.033943 59.096814 
L 90.119745 56.373667 
L 91.205546 55.768523 
L 92.291347 55.823536 
L 94.462949 54.063118 
L 95.54875 54.99834 
L 96.634552 53.568 
L 97.720353 55.465951 
L 98.806154 56.098601 
L 99.891955 55.548471 
L 100.977756 55.988575 
L 102.063557 57.06133 
L 104.23516 58.656709 
L 105.320961 58.436657 
L 107.492563 61.572403 
L 108.578364 61.43487 
L 109.664165 62.370092 
L 110.749967 63.690406 
L 111.835768 65.450824 
L 114.00737 68.476543 
L 115.093171 68.531557 
L 116.178972 70.429508 
L 117.264773 70.512027 
L 118.350575 72.520005 
L 119.436376 73.290188 
L 120.522177 75.160632 
L 121.607978 76.590972 
L 122.693779 79.066561 
L 123.77958 80.469394 
L 124.865382 82.697424 
L 125.951183 84.07275 
L 127.036984 86.905924 
L 128.122785 87.456055 
L 129.208586 89.986656 
L 130.294387 91.692061 
L 131.380189 93.094895 
L 132.46599 94.827807 
L 133.551791 96.973317 
L 134.637592 97.468434 
L 135.723393 99.999036 
L 136.809194 101.566908 
L 137.894995 105.280291 
L 138.980797 106.1605 
L 140.066598 108.498556 
L 141.152399 111.359236 
L 142.2382 112.817082 
L 143.324001 114.054877 
L 144.409802 116.667998 
L 145.495604 118.896027 
L 146.581405 119.968782 
L 147.667206 123.517126 
L 148.753007 124.287309 
L 150.924609 129.210979 
L 152.01041 133.33696 
L 153.096212 134.162156 
L 154.182013 135.757535 
L 156.353615 140.928764 
L 157.439416 142.579156 
L 158.525217 144.532121 
L 159.611019 146.76015 
L 161.782621 150.336 
L 162.868422 151.546288 
L 163.954223 154.737046 
L 165.040024 156.745023 
L 166.125825 158.257883 
L 167.211627 160.073314 
L 168.297428 162.823968 
L 169.383229 164.969478 
L 170.46903 166.537351 
L 172.640632 170.828371 
L 173.726434 171.020916 
L 174.812235 175.009364 
L 175.898036 176.384691 
L 176.983837 178.310149 
L 178.069638 180.620698 
L 179.155439 181.72096 
L 181.327042 185.84694 
L 182.412843 187.084735 
L 183.498644 188.845153 
L 184.584445 189.175231 
L 185.670246 191.100689 
L 186.756047 193.576277 
L 187.841849 195.309189 
L 188.92765 195.914333 
L 190.013451 199.187611 
L 191.099252 200.095327 
L 194.356656 205.294063 
L 195.442457 206.064246 
L 196.528258 207.879677 
L 197.614059 209.255004 
L 198.69986 210.87789 
L 199.785661 212.94088 
L 200.871462 213.380985 
L 201.957264 215.031377 
L 203.043065 217.31442 
L 204.128866 217.782031 
L 205.214667 220.01006 
L 206.300468 220.120086 
L 207.386269 222.403129 
L 208.472071 223.200819 
L 209.557872 225.291316 
L 210.643673 225.703914 
L 211.729474 226.584123 
L 212.815275 228.234515 
L 214.986877 229.30727 
L 216.072679 232.222963 
L 217.15848 231.287741 
L 218.244281 233.378238 
L 219.330082 234.423486 
L 220.415883 234.808578 
L 221.501684 236.238918 
L 222.587486 238.081856 
L 223.673287 238.164375 
L 224.759088 238.907052 
L 225.844889 241.547679 
L 226.93069 242.427889 
L 228.016491 242.18033 
L 229.102292 242.565421 
L 230.188094 244.820957 
L 231.273895 244.738438 
L 232.359696 244.298333 
L 234.531298 246.993974 
L 235.617099 248.066729 
L 236.702901 247.956703 
L 237.788702 248.726886 
L 238.874503 250.019693 
L 239.960304 250.652343 
L 241.046105 252.055177 
L 242.131906 251.642579 
L 244.303509 253.320478 
L 245.38931 254.475752 
L 246.475111 254.805831 
L 247.560912 254.420739 
L 248.646713 255.548507 
L 249.732514 256.483729 
L 250.818316 255.548507 
L 251.904117 256.043625 
L 252.989918 257.11638 
L 254.075719 258.656746 
L 255.16152 259.041837 
L 256.247321 258.354174 
L 257.333123 259.81202 
L 258.418924 259.234383 
L 259.504725 259.426929 
L 261.676327 260.967295 
L 262.762128 262.205089 
L 263.847929 262.260102 
L 264.933731 262.947766 
L 266.019532 261.379893 
L 267.105333 262.590181 
L 268.191134 262.425142 
L 269.276935 263.772962 
L 270.362736 263.222831 
L 271.448538 265.065769 
L 272.534339 263.993014 
L 273.62014 265.230808 
L 274.705941 264.90073 
L 275.791742 265.753433 
L 276.877543 264.598158 
L 277.963344 266.111018 
L 279.049146 266.111018 
L 280.134947 267.211279 
L 281.220748 267.211279 
L 282.306549 266.908707 
L 283.39235 267.76141 
L 284.478151 269.219256 
L 285.563953 269.301776 
L 286.649754 268.504086 
L 287.735555 269.439309 
L 288.821356 269.604348 
L 289.907157 270.292011 
L 290.992958 268.39406 
L 292.07876 270.099466 
L 294.250362 268.118995 
L 295.336163 270.209492 
L 296.421964 268.834165 
L 297.507765 270.484557 
L 298.593566 270.759623 
L 299.679368 270.512064 
L 300.765169 271.502299 
L 301.85097 270.62209 
L 302.936771 270.732116 
L 304.022572 271.199727 
L 305.108373 270.594583 
L 306.194175 271.942404 
L 307.279976 272.602561 
L 308.365777 272.327495 
L 309.451578 274.060407 
L 310.537379 271.777364 
L 311.62318 272.492534 
L 312.708981 272.217469 
L 313.794783 273.950381 
L 314.880584 272.822613 
L 315.966385 274.142927 
L 317.052186 273.647809 
L 318.137987 273.620302 
L 319.223788 274.032901 
L 320.30959 274.225446 
L 322.481192 276.068384 
L 323.566993 275.435734 
L 324.652794 276.205917 
L 325.738595 275.105655 
L 326.824396 275.353214 
L 327.910198 274.610538 
L 328.995999 275.820825 
L 330.0818 275.380721 
L 332.253402 275.298201 
L 333.339203 275.958358 
L 334.425005 276.838567 
L 335.510806 277.086126 
L 337.682408 275.270695 
L 338.768209 275.848332 
L 339.85401 275.875839 
L 340.939811 277.086126 
L 342.025613 276.26093 
L 343.111414 276.673528 
L 344.197215 276.205917 
L 345.283016 276.673528 
L 346.368817 277.388698 
L 347.454618 277.828803 
L 348.54042 277.416205 
L 349.626221 278.241401 
L 350.712022 278.48896 
L 352.883624 277.77379 
L 353.969425 277.856309 
L 355.055227 277.663764 
L 356.141028 277.251165 
L 357.226829 278.268907 
L 358.31263 278.736518 
L 359.398431 278.653999 
L 360.484232 278.433947 
L 361.570033 278.543973 
L 362.655835 278.433947 
L 363.741636 278.846545 
L 364.827437 278.213894 
L 365.913238 278.351427 
L 366.999039 278.736518 
L 368.08484 279.286649 
L 369.170642 278.241401 
L 370.256443 278.764025 
L 371.342244 278.351427 
L 372.428045 278.653999 
L 373.513846 277.993842 
L 374.599647 280.056832 
L 375.685448 278.378933 
L 376.77125 277.05862 
L 377.857051 278.846545 
L 380.028653 278.296414 
L 381.114454 278.598986 
L 382.200255 279.314156 
L 383.286057 279.066597 
L 384.371858 279.314156 
L 386.54346 278.819038 
L 387.629261 279.479195 
L 388.715062 279.644234 
L 389.800863 279.396675 
L 390.886665 279.314156 
L 391.972466 279.891793 
L 393.058267 279.12161 
L 394.144068 279.644234 
L 395.229869 278.241401 
L 396.31567 279.974313 
L 397.401472 280.166858 
L 398.487273 279.671741 
L 398.487273 279.671741 
" style="fill:none;stroke:#1f77b4;stroke-linecap:square;stroke-width:1.5;"/>
   </g>
   <g id="line2d_13">
    <path clip-path="url(#pf9ff804113)" d="M 73.832727 174.48674 
L 74.918528 175.752041 
L 76.00433 176.412198 
L 77.090131 176.192146 
L 78.175932 173.799077 
L 79.261733 174.981858 
L 80.347534 177.842538 
L 81.433335 179.080332 
L 83.604938 186.342058 
L 84.690739 194.098902 
L 86.862341 203.753696 
L 89.033943 215.196416 
L 90.119745 220.340139 
L 91.205546 223.723443 
L 92.291347 228.454567 
L 93.377148 231.700339 
L 94.462949 234.506006 
L 95.54875 237.779284 
L 96.634552 240.364898 
L 97.720353 243.968255 
L 99.891955 249.222003 
L 100.977756 250.129719 
L 102.063557 254.228193 
L 103.149358 254.228193 
L 104.23516 256.40121 
L 105.320961 258.244148 
L 106.406762 259.041837 
L 107.492563 260.719736 
L 108.578364 260.939789 
L 109.664165 264.240573 
L 111.835768 265.340835 
L 112.921569 266.633642 
L 114.00737 268.229021 
L 115.093171 268.311541 
L 116.178972 269.411802 
L 117.264773 269.466815 
L 118.350575 271.914897 
L 119.436376 271.474792 
L 120.522177 270.869649 
L 121.607978 272.740093 
L 122.693779 274.060407 
L 123.77958 272.437521 
L 127.036984 275.683293 
L 128.122785 276.508489 
L 129.208586 276.425969 
L 132.46599 278.213894 
L 133.551791 277.636257 
L 134.637592 279.891793 
L 135.723393 278.681505 
L 136.809194 279.616728 
L 137.894995 278.736518 
L 138.980797 279.726754 
L 140.066598 280.496937 
L 141.152399 281.074574 
L 142.2382 279.946806 
L 143.324001 281.569692 
L 144.409802 282.147329 
L 145.495604 281.624705 
L 146.581405 281.514679 
L 148.753007 283.33011 
L 149.838808 283.632682 
L 150.924609 283.110058 
L 152.01041 284.04528 
L 153.096212 285.173048 
L 154.182013 284.292839 
L 155.267814 285.338088 
L 156.353615 284.512891 
L 157.439416 284.76045 
L 158.525217 284.1278 
L 159.611019 284.375359 
L 160.69682 285.008009 
L 161.782621 284.84297 
L 162.868422 285.118035 
L 163.954223 284.952996 
L 165.040024 285.47562 
L 166.125825 284.980503 
L 167.211627 285.063022 
L 168.297428 285.668166 
L 169.383229 284.430372 
L 170.46903 285.888218 
L 171.554831 286.19079 
L 172.640632 286.080764 
L 173.726434 286.19079 
L 174.812235 285.613153 
L 175.898036 286.740921 
L 176.983837 287.511104 
L 178.069638 285.613153 
L 179.155439 287.676143 
L 180.24124 287.263545 
L 181.327042 285.998244 
L 182.412843 288.033728 
L 183.498644 287.346065 
L 184.584445 287.868689 
L 185.670246 286.465856 
L 186.756047 288.198767 
L 187.841849 288.363807 
L 188.92765 287.896196 
L 190.013451 287.896196 
L 191.099252 288.281287 
L 192.185053 287.676143 
L 193.270854 289.711627 
L 194.356656 289.656614 
L 195.442457 288.776405 
L 196.528258 288.913937 
L 197.614059 287.043493 
L 198.69986 288.858924 
L 199.785661 288.666379 
L 200.871462 287.978715 
L 201.957264 288.033728 
L 203.043065 287.786169 
L 204.128866 286.768428 
L 205.214667 288.363807 
L 206.300468 287.648637 
L 207.386269 288.171261 
L 208.472071 288.033728 
L 209.557872 288.446326 
L 210.643673 289.684121 
L 211.729474 288.858924 
L 212.815275 289.601601 
L 213.901076 290.179238 
L 214.986877 289.904173 
L 216.072679 288.776405 
L 218.244281 287.978715 
L 219.330082 288.363807 
L 220.415883 288.308794 
L 221.501684 288.996457 
L 222.587486 289.161496 
L 223.673287 290.041706 
L 224.759088 288.583859 
L 225.844889 290.206745 
L 226.93069 290.729369 
L 228.016491 289.299029 
L 229.102292 291.609578 
L 230.188094 290.234251 
L 231.273895 289.711627 
L 232.359696 289.739134 
L 233.445497 289.409055 
L 234.531298 290.206745 
L 235.617099 290.371784 
L 236.702901 289.656614 
L 237.788702 290.206745 
L 238.874503 289.84916 
L 239.960304 290.729369 
L 241.046105 290.949421 
L 242.131906 292.159709 
L 243.217708 292.077189 
L 244.303509 290.729369 
L 245.38931 290.56433 
L 246.475111 291.11446 
L 247.560912 290.56433 
L 248.646713 290.509317 
L 249.732514 290.811889 
L 251.904117 291.99467 
L 254.075719 291.169474 
L 255.16152 291.307006 
L 256.247321 291.307006 
L 258.418924 290.784382 
L 259.504725 291.609578 
L 260.590526 291.472045 
L 261.676327 290.949421 
L 262.762128 292.352255 
L 263.847929 291.004434 
L 264.933731 290.866902 
L 266.019532 291.967163 
L 267.105333 291.527059 
L 268.191134 292.517294 
L 269.276935 291.444539 
L 270.362736 291.362019 
L 271.448538 291.857137 
L 272.534339 290.949421 
L 273.62014 292.049683 
L 274.705941 292.297242 
L 275.791742 291.499552 
L 277.963344 291.609578 
L 279.049146 292.764853 
L 281.220748 291.637085 
L 283.39235 293.369997 
L 284.478151 291.637085 
L 285.563953 291.307006 
L 286.649754 292.324748 
L 288.821356 293.149944 
L 289.907157 292.049683 
L 290.992958 293.34249 
L 292.07876 292.159709 
L 293.164561 292.70984 
L 294.250362 292.847372 
L 295.336163 291.857137 
L 296.421964 291.802124 
L 297.507765 292.929892 
L 298.593566 291.82963 
L 299.679368 293.012412 
L 302.936771 292.269735 
L 304.022572 292.324748 
L 305.108373 293.810101 
L 306.194175 294.05766 
L 307.279976 293.177451 
L 308.365777 292.902385 
L 309.451578 294.14018 
L 310.537379 293.232464 
L 311.62318 293.25997 
L 312.708981 293.700075 
L 313.794783 293.149944 
L 314.880584 293.507529 
L 317.052186 292.599814 
L 319.223788 292.517294 
L 320.30959 293.204957 
L 321.395391 293.122438 
L 322.481192 292.792359 
L 323.566993 294.030153 
L 324.652794 292.407268 
L 325.738595 293.617555 
L 327.910198 293.672569 
L 328.995999 293.177451 
L 330.0818 294.580284 
L 331.167601 292.792359 
L 332.253402 293.920127 
L 333.339203 294.250206 
L 334.425005 293.452516 
L 335.510806 293.590049 
L 336.596607 292.682333 
L 338.768209 294.112673 
L 339.85401 291.554565 
L 340.939811 293.149944 
L 342.025613 293.42501 
L 343.111414 292.104696 
L 344.197215 293.645062 
L 345.283016 292.62732 
L 346.368817 294.05766 
L 347.454618 293.287477 
L 348.54042 292.654827 
L 349.626221 295.322961 
L 350.712022 293.865114 
L 351.797823 292.70984 
L 353.969425 294.332725 
L 355.055227 294.717817 
L 356.141028 293.067425 
L 357.226829 294.580284 
L 358.31263 293.865114 
L 359.398431 294.14018 
L 360.484232 293.314984 
L 361.570033 293.837608 
L 362.655835 293.507529 
L 363.741636 293.947634 
L 364.827437 293.672569 
L 366.999039 294.552778 
L 368.08484 292.5448 
L 369.170642 294.305219 
L 372.428045 293.617555 
L 373.513846 294.332725 
L 374.599647 294.167686 
L 375.685448 294.497765 
L 376.77125 294.14018 
L 377.857051 295.075402 
L 378.942852 294.030153 
L 380.028653 293.149944 
L 381.114454 293.122438 
L 382.200255 295.047895 
L 383.286057 295.488 
L 384.371858 294.800337 
L 385.457659 295.157922 
L 386.54346 293.397503 
L 387.629261 294.305219 
L 388.715062 294.415245 
L 389.800863 294.800337 
L 390.886665 294.14018 
L 391.972466 295.267948 
L 393.058267 294.745323 
L 394.144068 295.130415 
L 395.229869 293.314984 
L 396.31567 295.130415 
L 397.401472 295.432987 
L 398.487273 294.360232 
L 398.487273 294.360232 
" style="fill:none;stroke:#ff7f0e;stroke-linecap:square;stroke-width:1.5;"/>
   </g>
   <g id="patch_3">
    <path d="M 57.6 307.584 
L 57.6 41.472 
" style="fill:none;stroke:#000000;stroke-linecap:square;stroke-linejoin:miter;stroke-width:0.8;"/>
   </g>
   <g id="patch_4">
    <path d="M 414.72 307.584 
L 414.72 41.472 
" style="fill:none;stroke:#000000;stroke-linecap:square;stroke-linejoin:miter;stroke-width:0.8;"/>
   </g>
   <g id="patch_5">
    <path d="M 57.6 307.584 
L 414.72 307.584 
" style="fill:none;stroke:#000000;stroke-linecap:square;stroke-linejoin:miter;stroke-width:0.8;"/>
   </g>
   <g id="patch_6">
    <path d="M 57.6 41.472 
L 414.72 41.472 
" style="fill:none;stroke:#000000;stroke-linecap:square;stroke-linejoin:miter;stroke-width:0.8;"/>
   </g>
  </g>
 </g>
 <defs>
  <clipPath id="pf9ff804113">
   <rect height="266.112" width="357.12" x="57.6" y="41.472"/>
  </clipPath>
 </defs>
</svg>
